<svg width="33" height="32" viewBox="0 0 33 32" fill="none" xmlns="http://www.w3.org/2000/svg">
<g id="mdi:instagram">
<path id="Vector" d="M10.9003 2.66663H22.1003C26.367 2.66663 29.8337 6.13329 29.8337 10.4V21.6C29.8337 23.651 29.0189 25.618 27.5686 27.0683C26.1183 28.5185 24.1513 29.3333 22.1003 29.3333H10.9003C6.63366 29.3333 3.16699 25.8666 3.16699 21.6V10.4C3.16699 8.34895 3.98175 6.38195 5.43203 4.93167C6.88231 3.48139 8.84932 2.66663 10.9003 2.66663ZM10.6337 5.33329C9.36062 5.33329 8.13972 5.83901 7.23955 6.73918C6.33937 7.63935 5.83366 8.86025 5.83366 10.1333V21.8666C5.83366 24.52 7.98033 26.6666 10.6337 26.6666H22.367C23.64 26.6666 24.8609 26.1609 25.7611 25.2607C26.6613 24.3606 27.167 23.1397 27.167 21.8666V10.1333C27.167 7.47996 25.0203 5.33329 22.367 5.33329H10.6337ZM23.5003 7.33329C23.9424 7.33329 24.3663 7.50889 24.6788 7.82145C24.9914 8.13401 25.167 8.55793 25.167 8.99996C25.167 9.44199 24.9914 9.86591 24.6788 10.1785C24.3663 10.491 23.9424 10.6666 23.5003 10.6666C23.0583 10.6666 22.6344 10.491 22.3218 10.1785C22.0093 9.86591 21.8337 9.44199 21.8337 8.99996C21.8337 8.55793 22.0093 8.13401 22.3218 7.82145C22.6344 7.50889 23.0583 7.33329 23.5003 7.33329ZM16.5003 9.33329C18.2684 9.33329 19.9641 10.0357 21.2144 11.2859C22.4646 12.5362 23.167 14.2318 23.167 16C23.167 17.7681 22.4646 19.4638 21.2144 20.714C19.9641 21.9642 18.2684 22.6666 16.5003 22.6666C14.7322 22.6666 13.0365 21.9642 11.7863 20.714C10.536 19.4638 9.83366 17.7681 9.83366 16C9.83366 14.2318 10.536 12.5362 11.7863 11.2859C13.0365 10.0357 14.7322 9.33329 16.5003 9.33329ZM16.5003 12C15.4395 12 14.422 12.4214 13.6719 13.1715C12.9218 13.9217 12.5003 14.9391 12.5003 16C12.5003 17.0608 12.9218 18.0782 13.6719 18.8284C14.422 19.5785 15.4395 20 16.5003 20C17.5612 20 18.5786 19.5785 19.3288 18.8284C20.0789 18.0782 20.5003 17.0608 20.5003 16C20.5003 14.9391 20.0789 13.9217 19.3288 13.1715C18.5786 12.4214 17.5612 12 16.5003 12Z" fill="#FCFFFE"/>
</g>
</svg>
