<svg width="33" height="32" viewBox="0 0 33 32" fill="none" xmlns="http://www.w3.org/2000/svg">
<g id="ic:baseline-whatsapp">
<path id="Vector" d="M25.9001 6.54671C24.6777 5.31194 23.2216 4.33293 21.6169 3.66677C20.0122 3.00062 18.2909 2.66065 16.5534 2.66671C9.2734 2.66671 3.34007 8.60004 3.34007 15.88C3.34007 18.2134 3.9534 20.48 5.10007 22.48L3.2334 29.3334L10.2334 27.4934C12.1667 28.5467 14.3401 29.1067 16.5534 29.1067C23.8334 29.1067 29.7667 23.1734 29.7667 15.8934C29.7667 12.36 28.3934 9.04004 25.9001 6.54671ZM16.5534 26.8667C14.5801 26.8667 12.6467 26.3334 10.9534 25.3334L10.5534 25.0934L6.3934 26.1867L7.50006 22.1334L7.2334 21.72C6.13706 19.9693 5.55492 17.9457 5.5534 15.88C5.5534 9.8267 10.4867 4.89337 16.5401 4.89337C19.4734 4.89337 22.2334 6.04004 24.3001 8.12004C25.3234 9.13866 26.1343 10.3503 26.6859 11.6846C27.2375 13.019 27.5188 14.4495 27.5134 15.8934C27.5401 21.9467 22.6067 26.8667 16.5534 26.8667ZM22.5801 18.6534C22.2467 18.4934 20.6201 17.6934 20.3267 17.5734C20.0201 17.4667 19.8067 17.4134 19.5801 17.7334C19.3534 18.0667 18.7267 18.8134 18.5401 19.0267C18.3534 19.2534 18.1534 19.28 17.8201 19.1067C17.4867 18.9467 16.4201 18.5867 15.1667 17.4667C14.1801 16.5867 13.5267 15.5067 13.3267 15.1734C13.1401 14.84 13.3001 14.6667 13.4734 14.4934C13.6201 14.3467 13.8067 14.1067 13.9667 13.92C14.1267 13.7334 14.1934 13.5867 14.3001 13.3734C14.4067 13.1467 14.3534 12.96 14.2734 12.8C14.1934 12.64 13.5267 11.0134 13.2601 10.3467C12.9934 9.70671 12.7134 9.78671 12.5134 9.77337H11.8734C11.6467 9.77337 11.3001 9.85337 10.9934 10.1867C10.7001 10.52 9.84673 11.32 9.84673 12.9467C9.84673 14.5734 11.0334 16.1467 11.1934 16.36C11.3534 16.5867 13.5267 19.92 16.8334 21.3467C17.6201 21.6934 18.2334 21.8934 18.7134 22.04C19.5001 22.2934 20.2201 22.2534 20.7934 22.1734C21.4334 22.08 22.7534 21.3734 23.0201 20.6C23.3001 19.8267 23.3001 19.1734 23.2067 19.0267C23.1134 18.88 22.9134 18.8134 22.5801 18.6534Z" fill="#FCFFFE"/>
</g>
</svg>
