<svg width="33" height="32" viewBox="0 0 33 32" fill="none" xmlns="http://www.w3.org/2000/svg">
<g id="mdi:youtube">
<path id="Vector" d="M13.8337 20L20.7537 16L13.8337 12V20ZM29.247 9.55996C29.4203 10.1866 29.5403 11.0266 29.6203 12.0933C29.7137 13.16 29.7537 14.08 29.7537 14.88L29.8337 16C29.8337 18.92 29.6203 21.0666 29.247 22.44C28.9137 23.64 28.1403 24.4133 26.9403 24.7466C26.3137 24.92 25.167 25.04 23.407 25.12C21.6737 25.2133 20.087 25.2533 18.6203 25.2533L16.5003 25.3333C10.9137 25.3333 7.43366 25.12 6.06033 24.7466C4.86033 24.4133 4.08699 23.64 3.75366 22.44C3.58033 21.8133 3.46033 20.9733 3.38033 19.9066C3.28699 18.84 3.24699 17.92 3.24699 17.12L3.16699 16C3.16699 13.08 3.38033 10.9333 3.75366 9.55996C4.08699 8.35996 4.86033 7.58663 6.06033 7.25329C6.68699 7.07996 7.83366 6.95996 9.59366 6.87996C11.327 6.78663 12.9137 6.74663 14.3803 6.74663L16.5003 6.66663C22.087 6.66663 25.567 6.87996 26.9403 7.25329C28.1403 7.58663 28.9137 8.35996 29.247 9.55996Z" fill="#FCFFFE"/>
</g>
</svg>
