<svg width="250" height="246" viewBox="0 0 250 246" fill="none" xmlns="http://www.w3.org/2000/svg">
<g id="financial-data/bro">
<g id="Graphics">
<path id="Vector" d="M128.977 14.8833L117.647 17.2687C116.12 17.5903 115.142 19.0894 115.464 20.6169L117.849 31.9464C118.171 33.474 119.67 34.4515 121.197 34.1299L132.527 31.7445C134.054 31.4228 135.032 29.9238 134.71 28.3963L132.325 17.0668C132.003 15.5392 130.504 14.5617 128.977 14.8833Z" stroke="#263238" stroke-linecap="round" stroke-linejoin="round"/>
<path id="Vector_2" d="M124.369 21.0648L125.813 27.9394" stroke="#263238" stroke-linecap="round" stroke-linejoin="round"/>
<path id="Vector_3" d="M128.528 23.7747L121.654 25.224" stroke="#263238" stroke-linecap="round" stroke-linejoin="round"/>
<path id="Vector_4" d="M243.184 136.017L231.855 138.403C230.327 138.725 229.35 140.224 229.671 141.751L232.057 153.081C232.378 154.608 233.877 155.586 235.405 155.264L246.734 152.879C248.262 152.557 249.239 151.058 248.918 149.53L246.532 138.201C246.211 136.673 244.712 135.696 243.184 136.017Z" stroke="#263238" stroke-linecap="round" stroke-linejoin="round"/>
<path id="Vector_5" d="M241.22 142.686L237.383 148.572" stroke="#263238" stroke-linecap="round" stroke-linejoin="round"/>
<path id="Vector_6" d="M242.242 147.55L236.356 143.708" stroke="#263238" stroke-linecap="round" stroke-linejoin="round"/>
<path id="Vector_7" d="M90.2193 209.767L78.6414 209.073C77.0804 208.979 75.739 210.169 75.6454 211.73L74.9507 223.308C74.857 224.869 76.0465 226.21 77.6075 226.304L89.1855 226.998C90.7465 227.092 92.0879 225.902 92.1815 224.341L92.8762 212.764C92.9699 211.202 91.7804 209.861 90.2193 209.767Z" stroke="#263238" stroke-width="1.0018" stroke-linecap="round" stroke-linejoin="round"/>
<path id="Vector_8" d="M87.8139 217.618L80.7949 217.212" stroke="#263238" stroke-linecap="round" stroke-linejoin="round"/>
<path id="Vector_9" d="M21.1374 129.177L10.1469 125.536C8.66511 125.045 7.0659 125.848 6.57497 127.33L2.93383 138.32C2.44291 139.802 3.24618 141.401 4.72799 141.892L15.7185 145.533C17.2003 146.024 18.7995 145.221 19.2904 143.739L22.9316 132.749C23.4225 131.267 22.6192 129.668 21.1374 129.177Z" stroke="#263238" stroke-linecap="round" stroke-linejoin="round"/>
<path id="Vector_10" d="M17.3299 133.329L8.53955 137.744" stroke="#263238" stroke-linecap="round" stroke-linejoin="round"/>
<path id="Vector_11" d="M12.2878 131.541C12.3933 131.758 12.4322 132.002 12.3999 132.241C12.3676 132.481 12.2654 132.705 12.1061 132.887C11.9468 133.068 11.7375 133.198 11.5044 133.262C11.2713 133.325 11.0248 133.318 10.7957 133.241C10.5666 133.165 10.3651 133.023 10.2165 132.832C10.0679 132.642 9.97872 132.412 9.96017 132.171C9.94162 131.93 9.99452 131.69 10.1122 131.479C10.23 131.268 10.4073 131.096 10.6219 130.986C10.7672 130.91 10.9263 130.865 11.0896 130.852C11.2529 130.839 11.4172 130.859 11.5726 130.91C11.728 130.962 11.8714 131.045 11.9943 131.153C12.1172 131.262 12.217 131.393 12.2878 131.541Z" stroke="#263238" stroke-linecap="round" stroke-linejoin="round"/>
<path id="Vector_12" d="M15.7751 138.46C15.8806 138.677 15.9195 138.921 15.8872 139.16C15.8549 139.4 15.7527 139.624 15.5934 139.805C15.4341 139.987 15.2248 140.117 14.9917 140.181C14.7586 140.244 14.5121 140.237 14.283 140.16C14.0539 140.084 13.8524 139.942 13.7038 139.751C13.5552 139.561 13.466 139.331 13.4475 139.09C13.4289 138.849 13.4818 138.609 13.5995 138.398C13.7173 138.187 13.8946 138.015 14.1092 137.905C14.2545 137.829 14.4136 137.784 14.5769 137.771C14.7402 137.758 14.9045 137.778 15.0599 137.829C15.2153 137.881 15.3587 137.964 15.4816 138.072C15.6045 138.18 15.7043 138.312 15.7751 138.46Z" stroke="#263238" stroke-linecap="round" stroke-linejoin="round"/>
</g>
<g id="Coins">
<path id="Vector_13" d="M129.694 206.39C128.545 208.054 126.928 209.34 125.048 210.086C123.167 210.832 121.108 211.003 119.13 210.578C117.153 210.154 115.345 209.152 113.937 207.701C112.528 206.249 111.581 204.412 111.217 202.423C110.852 200.433 111.085 198.38 111.887 196.523C112.689 194.666 114.023 193.088 115.722 191.99C117.42 190.891 119.406 190.32 121.428 190.35C123.451 190.38 125.419 191.009 127.084 192.157C129.317 193.699 130.847 196.064 131.336 198.733C131.825 201.402 131.235 204.156 129.694 206.39Z" fill="#525ECC"/>
<g id="Clip path group">
<mask id="mask0_63_6985" style="mask-type:luminance" maskUnits="userSpaceOnUse" x="111" y="190" width="21" height="21">
<g id="clip-path">
<path id="Vector_14" d="M129.694 206.39C128.545 208.054 126.928 209.34 125.048 210.086C123.167 210.832 121.108 211.003 119.13 210.578C117.153 210.154 115.345 209.152 113.937 207.701C112.528 206.249 111.581 204.412 111.217 202.423C110.852 200.433 111.085 198.38 111.887 196.523C112.689 194.666 114.023 193.088 115.722 191.99C117.42 190.891 119.406 190.32 121.428 190.35C123.451 190.38 125.419 191.009 127.084 192.157C129.317 193.699 130.847 196.064 131.336 198.733C131.825 201.402 131.235 204.156 129.694 206.39Z" fill="white"/>
</g>
</mask>
<g mask="url(#mask0_63_6985)">
<g id="Group">
<path id="Vector_15" opacity="0.3" d="M128.362 205.468C127.393 206.868 126.032 207.949 124.449 208.575C122.867 209.202 121.134 209.345 119.47 208.986C117.806 208.628 116.286 207.784 115.101 206.562C113.917 205.339 113.121 203.793 112.815 202.119C112.51 200.444 112.707 198.717 113.383 197.155C114.059 195.593 115.183 194.266 116.612 193.342C118.042 192.419 119.714 191.94 121.415 191.966C123.117 191.992 124.773 192.523 126.174 193.49C128.052 194.789 129.337 196.78 129.747 199.026C130.157 201.272 129.659 203.589 128.362 205.468Z" fill="black" fill-opacity="0.7"/>
<path id="Vector_16" d="M128.362 205.468C127.393 206.868 126.032 207.949 124.449 208.575C122.867 209.202 121.134 209.345 119.47 208.986C117.806 208.628 116.286 207.784 115.101 206.562C113.917 205.339 113.121 203.793 112.815 202.119C112.51 200.444 112.707 198.717 113.383 197.155C114.059 195.593 115.183 194.266 116.612 193.342C118.042 192.419 119.714 191.94 121.415 191.966C123.117 191.992 124.773 192.523 126.174 193.49C128.052 194.789 129.337 196.78 129.747 199.026C130.157 201.272 129.659 203.589 128.362 205.468Z" stroke="#263238" stroke-linecap="round" stroke-linejoin="round"/>
<path id="Vector_17" d="M123.486 196.272L123.903 195.678L124.935 196.389L124.519 196.988C125.291 197.794 125.274 198.799 124.519 199.887L124.341 200.143L123.147 199.315L123.381 198.982C123.775 198.427 123.697 198.032 123.297 197.755C122.898 197.477 122.514 197.533 122.115 198.11C121.715 198.688 121.67 199.221 122.053 200.509C122.514 202.053 122.431 202.93 121.798 203.841C121.043 204.951 120.088 205.307 119.066 204.874L118.661 205.457L117.644 204.752L118.05 204.163C117.267 203.352 117.295 202.336 118.05 201.242L118.427 200.687L119.621 201.514L119.188 202.142C118.788 202.697 118.899 203.097 119.299 203.38C119.699 203.663 120.099 203.624 120.499 203.047C120.898 202.469 120.948 201.903 120.56 200.648C120.088 199.121 120.177 198.232 120.815 197.316C121.531 196.239 122.47 195.856 123.486 196.272Z" fill="#525ECC" stroke="#263238" stroke-linecap="round" stroke-linejoin="round"/>
<path id="Vector_18" opacity="0.2" d="M118.427 192.28C118.429 194.671 117.808 197.021 116.626 199.1C115.444 201.178 113.742 202.914 111.686 204.135C111.198 202.823 110.985 201.425 111.06 200.027C111.134 198.63 111.495 197.262 112.12 196.009C112.745 194.757 113.62 193.646 114.692 192.746C115.763 191.845 117.008 191.174 118.35 190.775C118.404 191.274 118.43 191.777 118.427 192.28Z" fill="black" fill-opacity="0.7"/>
</g>
</g>
</g>
<path id="Vector_19" d="M129.694 206.39C128.545 208.054 126.928 209.34 125.048 210.086C123.167 210.832 121.108 211.003 119.13 210.578C117.153 210.154 115.345 209.152 113.937 207.701C112.528 206.249 111.581 204.412 111.217 202.423C110.852 200.433 111.085 198.38 111.887 196.523C112.689 194.666 114.023 193.088 115.722 191.99C117.42 190.891 119.406 190.32 121.428 190.35C123.451 190.38 125.419 191.009 127.084 192.157C129.317 193.699 130.847 196.064 131.336 198.733C131.825 201.402 131.235 204.156 129.694 206.39Z" stroke="#263238" stroke-linecap="round" stroke-linejoin="round"/>
<path id="Vector_20" d="M106.672 202.197C112.324 202.197 116.906 197.615 116.906 191.963C116.906 186.311 112.324 181.729 106.672 181.729C101.019 181.729 96.4375 186.311 96.4375 191.963C96.4375 197.615 101.019 202.197 106.672 202.197Z" fill="#525ECC" stroke="#263238" stroke-linecap="round" stroke-linejoin="round"/>
<path id="Vector_21" opacity="0.3" d="M106.672 200.57C111.425 200.57 115.279 196.717 115.279 191.963C115.279 187.209 111.425 183.356 106.672 183.356C101.918 183.356 98.0645 187.209 98.0645 191.963C98.0645 196.717 101.918 200.57 106.672 200.57Z" fill="black" fill-opacity="0.7"/>
<path id="Vector_22" d="M106.672 200.57C111.425 200.57 115.279 196.717 115.279 191.963C115.279 187.209 111.425 183.356 106.672 183.356C101.918 183.356 98.0645 187.209 98.0645 191.963C98.0645 196.717 101.918 200.57 106.672 200.57Z" stroke="#263238" stroke-linecap="round" stroke-linejoin="round"/>
<path id="Vector_23" d="M106.044 187.171V186.449H107.299V187.171C108.41 187.399 108.965 188.231 108.965 189.559V189.847H107.51V189.442C107.51 188.742 107.233 188.476 106.744 188.476C106.255 188.476 105.978 188.742 105.978 189.442C105.978 190.142 106.255 190.625 107.288 191.452C108.543 192.457 108.954 193.224 108.954 194.34C108.954 195.667 108.399 196.522 107.288 196.744V197.455H106.033V196.744C104.922 196.522 104.367 195.667 104.367 194.34V193.673H105.817V194.44C105.817 195.139 106.122 195.389 106.611 195.389C107.099 195.389 107.41 195.139 107.41 194.44C107.41 193.74 107.133 193.24 106.094 192.43C104.839 191.436 104.428 190.658 104.428 189.536C104.423 188.248 104.967 187.41 106.044 187.171Z" fill="#525ECC" stroke="#263238" stroke-linecap="round" stroke-linejoin="round"/>
<path id="Vector_24" d="M164.109 200.559C167.158 195.8 165.772 189.471 161.013 186.421C156.254 183.372 149.924 184.758 146.875 189.517C143.825 194.276 145.211 200.606 149.97 203.655C154.729 206.704 161.059 205.318 164.109 200.559Z" fill="#525ECC" stroke="#263238" stroke-linecap="round" stroke-linejoin="round"/>
<path id="Vector_25" opacity="0.3" d="M161.796 189.187C162.955 190.434 163.718 191.997 163.988 193.678C164.259 195.358 164.025 197.082 163.316 198.63C162.607 200.178 161.454 201.48 160.005 202.373C158.555 203.266 156.874 203.709 155.172 203.646C153.471 203.583 151.826 203.017 150.447 202.02C149.067 201.022 148.015 199.638 147.422 198.042C146.829 196.446 146.723 194.71 147.117 193.054C147.511 191.397 148.387 189.895 149.635 188.737C150.462 187.967 151.434 187.367 152.493 186.973C153.552 186.579 154.679 186.398 155.809 186.439C156.938 186.481 158.049 186.745 159.076 187.217C160.103 187.688 161.028 188.358 161.796 189.187Z" fill="black" fill-opacity="0.7"/>
<path id="Vector_26" d="M161.796 189.187C162.955 190.434 163.718 191.997 163.988 193.678C164.259 195.358 164.025 197.082 163.316 198.63C162.607 200.178 161.454 201.48 160.005 202.373C158.555 203.266 156.874 203.709 155.172 203.646C153.471 203.583 151.826 203.017 150.447 202.02C149.067 201.022 148.015 199.638 147.422 198.042C146.829 196.446 146.723 194.71 147.117 193.054C147.511 191.397 148.387 189.895 149.635 188.737C150.462 187.967 151.434 187.367 152.493 186.973C153.552 186.579 154.679 186.398 155.809 186.439C156.938 186.481 158.049 186.745 159.076 187.217C160.103 187.688 161.028 188.358 161.796 189.187Z" stroke="#263238" stroke-linecap="round" stroke-linejoin="round"/>
<path id="Vector_27" d="M151.773 191.963L151.279 191.408L152.195 190.553L152.689 191.108C153.644 190.553 154.621 190.764 155.521 191.735L155.732 191.958L154.671 192.946L154.394 192.652C153.916 192.141 153.533 192.135 153.178 192.468C152.822 192.802 152.795 193.185 153.267 193.696C153.739 194.206 154.283 194.373 155.599 194.279C157.204 194.157 158.042 194.423 158.803 195.245C159.702 196.217 159.863 197.227 159.219 198.132L159.702 198.654L158.781 199.51L158.298 198.988C157.337 199.576 156.348 199.332 155.449 198.36L154.988 197.871L156.054 196.883L156.576 197.438C157.054 197.949 157.448 197.927 157.809 197.594C158.17 197.261 158.22 196.866 157.742 196.355C157.265 195.845 156.72 195.667 155.416 195.8C153.816 195.928 152.967 195.65 152.211 194.828C151.317 193.851 151.145 192.868 151.773 191.963Z" fill="#525ECC" stroke="#263238" stroke-linecap="round" stroke-linejoin="round"/>
</g>
<g id="right-hand">
<path id="Vector_28" opacity="0.2" d="M151.278 150.56C151.278 150.56 151.234 171.795 151.278 173.033C151.323 174.271 152.944 181.729 152.944 181.729L147.786 191.236L152.228 194.812L160.863 186.327C160.863 186.327 168.215 190.864 169.559 197.361C170.903 203.857 178.904 208.589 187.206 226.58C195.508 244.572 204.976 186.327 204.976 186.327L179.36 154.075L151.278 150.56Z" fill="black" fill-opacity="0.7"/>
<path id="Vector_29" d="M229.587 36.4799L221.74 113.044L216.915 160.145L149.479 153.237L136.358 151.893L127.956 151.032L135.403 78.3437L140.628 27.3674L229.587 36.4799Z" fill="white"/>
<g id="Clip path group_2">
<mask id="mask1_63_6985" style="mask-type:luminance" maskUnits="userSpaceOnUse" x="127" y="27" width="103" height="134">
<g id="clip-path-2">
<path id="Vector_30" d="M229.587 36.4799L221.74 113.044L216.915 160.145L149.479 153.237L136.358 151.893L127.956 151.032L135.403 78.3437L140.628 27.3674L229.587 36.4799Z" fill="white"/>
</g>
</mask>
<g mask="url(#mask1_63_6985)">
<g id="Group_2">
<path id="Vector_31" d="M203.749 39.3618L165.35 35.4248C165.178 35.4073 165.005 35.4237 164.84 35.4731C164.675 35.5225 164.522 35.6039 164.388 35.7127C164.254 35.8215 164.144 35.9556 164.062 36.1072C163.98 36.2588 163.929 36.4251 163.912 36.5964C163.894 36.7678 163.91 36.9409 163.96 37.106C164.009 37.271 164.091 37.4247 164.2 37.5582C164.308 37.6918 164.442 37.8026 164.594 37.8843C164.746 37.9661 164.912 38.0172 165.083 38.0347L203.482 41.9717C203.828 42.0071 204.174 41.9035 204.444 41.6837C204.714 41.464 204.885 41.1461 204.92 40.8C204.956 40.4539 204.852 40.108 204.632 39.8383C204.413 39.5685 204.095 39.3972 203.749 39.3618Z" fill="#263238"/>
<path id="Vector_32" d="M193.598 43.7209L174.401 41.7496C174.227 41.7326 174.054 41.7849 173.919 41.8951C173.784 42.0054 173.697 42.1647 173.679 42.3383C173.671 42.4239 173.679 42.5105 173.704 42.5928C173.729 42.6752 173.77 42.7519 173.825 42.8184C173.88 42.8849 173.947 42.94 174.023 42.9806C174.099 43.0211 174.182 43.0462 174.268 43.0546L193.464 45.0259C193.638 45.043 193.811 44.9907 193.947 44.8804C194.082 44.7701 194.168 44.6108 194.186 44.4373C194.195 44.3514 194.187 44.2647 194.163 44.182C194.138 44.0993 194.097 44.0223 194.042 43.9556C193.987 43.8889 193.92 43.8338 193.844 43.7935C193.767 43.7532 193.684 43.7286 193.598 43.7209Z" fill="#263238"/>
<path id="Vector_33" d="M214.727 100.228L152.4 93.842C152.232 93.8229 152.062 93.8702 151.927 93.9738C151.792 94.0774 151.703 94.2293 151.678 94.3973C151.661 94.571 151.714 94.7444 151.824 94.8796C151.934 95.0149 152.094 95.101 152.267 95.1192L214.594 101.555C214.679 101.564 214.766 101.555 214.848 101.53C214.931 101.505 215.007 101.464 215.074 101.409C215.14 101.355 215.195 101.287 215.236 101.211C215.276 101.135 215.302 101.052 215.31 100.967C215.322 100.879 215.317 100.791 215.294 100.706C215.271 100.621 215.231 100.541 215.177 100.472C215.122 100.403 215.054 100.346 214.977 100.304C214.9 100.262 214.814 100.236 214.727 100.228Z" fill="#263238"/>
<path id="Vector_34" d="M214.266 104.92L141.772 97.4958C141.686 97.4866 141.6 97.4944 141.518 97.5188C141.435 97.5432 141.359 97.5837 141.292 97.6379C141.225 97.6921 141.17 97.759 141.13 97.8347C141.089 97.9104 141.064 97.9934 141.055 98.0789C141.036 98.2477 141.084 98.4174 141.187 98.5521C141.291 98.6867 141.443 98.7759 141.611 98.8008L214.083 106.225C214.168 106.234 214.255 106.226 214.337 106.201C214.42 106.176 214.497 106.135 214.563 106.081C214.63 106.027 214.686 105.96 214.727 105.884C214.767 105.808 214.793 105.725 214.802 105.639C214.81 105.554 214.802 105.467 214.777 105.384C214.753 105.302 214.712 105.225 214.658 105.158C214.603 105.092 214.536 105.036 214.46 104.995C214.385 104.954 214.302 104.929 214.216 104.92H214.266Z" fill="#263238"/>
<path id="Vector_35" d="M193.47 107.536L141.272 102.188C141.099 102.17 140.926 102.221 140.79 102.33C140.655 102.44 140.568 102.598 140.55 102.771C140.532 102.944 140.583 103.118 140.692 103.253C140.801 103.388 140.96 103.475 141.133 103.493L193.331 108.841C193.417 108.849 193.503 108.84 193.586 108.815C193.668 108.79 193.745 108.749 193.811 108.695C193.878 108.64 193.933 108.573 193.973 108.497C194.014 108.421 194.039 108.338 194.047 108.252C194.057 108.167 194.049 108.081 194.025 107.999C194.001 107.917 193.961 107.841 193.907 107.774C193.854 107.707 193.787 107.652 193.712 107.611C193.637 107.57 193.555 107.545 193.47 107.536Z" fill="#263238"/>
<path id="Vector_36" d="M140.472 107.248L138.352 127.941L211.413 135.427L213.533 114.734L140.472 107.248Z" fill="#BFBFBF" stroke="#263238" stroke-miterlimit="10"/>
<path id="Vector_37" d="M173.976 83.3033C180.877 77.5534 181.81 67.2976 176.06 60.3963C170.31 53.495 160.055 52.5617 153.153 58.3116C146.252 64.0615 145.319 74.3174 151.069 81.2186C156.819 88.1199 167.074 89.0533 173.976 83.3033Z" fill="#525ECC"/>
<g id="Clip path group_3">
<mask id="mask2_63_6985" style="mask-type:luminance" maskUnits="userSpaceOnUse" x="147" y="54" width="33" height="34">
<g id="clip-path-3">
<path id="Vector_38" d="M173.976 83.3033C180.877 77.5534 181.81 67.2976 176.06 60.3963C170.31 53.495 160.055 52.5617 153.153 58.3116C146.252 64.0615 145.319 74.3174 151.069 81.2186C156.819 88.1199 167.074 89.0533 173.976 83.3033Z" fill="white"/>
</g>
</mask>
<g mask="url(#mask2_63_6985)">
<g id="Group_3">
<path id="Vector_39" opacity="0.5" d="M173.976 83.3033C180.877 77.5534 181.81 67.2976 176.06 60.3963C170.31 53.495 160.055 52.5617 153.153 58.3116C146.252 64.0615 145.319 74.3174 151.069 81.2186C156.819 88.1199 167.074 89.0533 173.976 83.3033Z" fill="white"/>
</g>
</g>
</g>
<path id="Vector_40" d="M173.976 83.3033C180.877 77.5534 181.81 67.2976 176.06 60.3963C170.31 53.495 160.055 52.5617 153.153 58.3116C146.252 64.0615 145.319 74.3174 151.069 81.2186C156.819 88.1199 167.074 89.0533 173.976 83.3033Z" stroke="#263238" stroke-miterlimit="10"/>
<path id="Vector_41" d="M164.034 70.7694L177.561 77.5718C178.823 74.9508 179.324 72.0282 179.008 69.1363C178.692 66.2445 177.571 63.4992 175.773 61.2128L164.034 70.7694Z" fill="white"/>
<path id="Vector_42" d="M164.123 70.0364L175.451 60.8185C173.759 58.8031 171.583 57.2514 169.126 56.3094L167.066 61.9179L164.123 70.0364Z" fill="#525ECC"/>
<path id="Vector_43" d="M165.4 55.3988L164.034 68.7926L168.643 56.1262C167.591 55.7678 166.504 55.5239 165.4 55.3988Z" fill="#757575"/>
<path id="Vector_44" d="M163.328 70.6472L164.9 55.3433C162.223 55.1184 159.533 55.5912 157.092 56.7155C154.652 57.8398 152.545 59.5772 150.976 61.7585C149.407 63.9397 148.43 66.4902 148.141 69.1614C147.851 71.8325 148.259 74.5331 149.324 76.9998L163.328 70.6472Z" fill="#999999"/>
<path id="Vector_45" d="M161.985 86.2733C165.073 86.5875 168.185 85.97 170.919 84.5004C173.654 83.0307 175.885 80.7762 177.327 78.0271L163.562 71.1025L149.529 77.4773C150.675 79.8898 152.423 81.9663 154.605 83.507C156.786 85.0476 159.328 86.0003 161.985 86.2733Z" fill="#BFBFBF"/>
<path id="Vector_46" d="M189.665 60.2546L187.814 60.065C187.622 60.0453 187.45 60.1851 187.43 60.3773L187.241 62.2279C187.221 62.4201 187.361 62.5918 187.553 62.6115L189.404 62.8011C189.596 62.8208 189.768 62.681 189.787 62.4888L189.977 60.6382C189.997 60.446 189.857 60.2743 189.665 60.2546Z" fill="#525ECC" stroke="#263238" stroke-miterlimit="10"/>
<path id="Vector_47" d="M215.449 63.8394L191.538 61.3905C191.481 61.3647 191.435 61.3219 191.404 61.2681C191.374 61.2143 191.361 61.1523 191.368 61.0908C191.374 61.0294 191.4 60.9716 191.442 60.9257C191.483 60.8798 191.538 60.8482 191.599 60.8352L215.51 63.2396C215.582 63.2538 215.646 63.2944 215.69 63.3536C215.733 63.4127 215.753 63.486 215.746 63.5591C215.738 63.6322 215.703 63.6998 215.648 63.7486C215.593 63.7973 215.522 63.8238 215.449 63.8227V63.8394Z" fill="#263238"/>
<path id="Vector_48" d="M212.978 64.8721L191.41 62.6509C191.333 62.6425 191.262 62.604 191.213 62.5436C191.164 62.4833 191.141 62.4061 191.149 62.3289C191.152 62.2903 191.164 62.2529 191.182 62.2188C191.2 62.1847 191.225 62.1545 191.255 62.1302C191.285 62.1059 191.319 62.0878 191.357 62.0771C191.394 62.0664 191.433 62.0632 191.471 62.0679L213.039 64.289C213.111 64.3032 213.175 64.3439 213.219 64.403C213.262 64.4621 213.282 64.5354 213.275 64.6085C213.267 64.6816 213.232 64.7492 213.177 64.798C213.122 64.8467 213.051 64.8732 212.978 64.8721Z" fill="#263238"/>
<path id="Vector_49" d="M189.081 65.9572L187.23 65.7676C187.038 65.7479 186.866 65.8877 186.847 66.08L186.657 67.9305C186.637 68.1227 186.777 68.2945 186.969 68.3142L188.82 68.5038C189.012 68.5235 189.184 68.3836 189.204 68.1914L189.393 66.3409C189.413 66.1487 189.273 65.9769 189.081 65.9572Z" fill="#757575" stroke="#263238" stroke-linecap="round" stroke-linejoin="round"/>
<path id="Vector_50" d="M214.866 69.5422L190.943 67.0933C190.871 67.0792 190.807 67.0385 190.763 66.9794C190.72 66.9203 190.7 66.847 190.707 66.7739C190.715 66.7008 190.75 66.6332 190.805 66.5844C190.86 66.5357 190.931 66.5092 191.004 66.5103L214.91 68.9591C214.988 68.9676 215.059 69.0059 215.109 69.0661C215.158 69.1262 215.183 69.2034 215.177 69.2812C215.168 69.3563 215.131 69.4253 215.073 69.4739C215.015 69.5225 214.941 69.547 214.866 69.5422Z" fill="#263238"/>
<path id="Vector_51" d="M212.389 70.5806L190.827 68.3595C190.749 68.3521 190.677 68.314 190.627 68.2536C190.577 68.1932 190.553 68.1154 190.56 68.0374C190.568 67.9593 190.606 67.8874 190.666 67.8374C190.726 67.7874 190.804 67.7635 190.882 67.7708L212.45 69.992C212.489 69.996 212.526 70.0076 212.56 70.0261C212.594 70.0446 212.625 70.0697 212.649 70.0998C212.674 70.13 212.692 70.1647 212.703 70.2019C212.714 70.2392 212.718 70.2782 212.714 70.3169C212.71 70.3555 212.698 70.393 212.68 70.4272C212.661 70.4613 212.636 70.4915 212.606 70.516C212.576 70.5405 212.541 70.5588 212.504 70.5699C212.467 70.581 212.428 70.5847 212.389 70.5806Z" fill="#263238"/>
<path id="Vector_52" d="M188.497 71.6654L186.647 71.4758C186.454 71.4561 186.283 71.596 186.263 71.7882L186.073 73.6388C186.054 73.831 186.193 74.0027 186.386 74.0224L188.236 74.212C188.428 74.2317 188.6 74.0919 188.62 73.8997L188.81 72.0491C188.829 71.8569 188.689 71.6851 188.497 71.6654Z" fill="#999999" stroke="#263238" stroke-linecap="round" stroke-linejoin="round"/>
<path id="Vector_53" d="M214.266 75.2506L190.388 72.7962C190.347 72.7956 190.307 72.7865 190.27 72.7695C190.233 72.7524 190.199 72.7279 190.172 72.6973C190.145 72.6667 190.125 72.6308 190.112 72.5919C190.1 72.553 190.095 72.5119 190.1 72.4713C190.104 72.4306 190.117 72.3913 190.137 72.3558C190.157 72.3204 190.185 72.2895 190.218 72.2652C190.25 72.2409 190.288 72.2238 190.328 72.2148C190.368 72.2058 190.409 72.2053 190.449 72.2132L214.355 74.662C214.393 74.666 214.431 74.6776 214.465 74.6961C214.499 74.7146 214.529 74.7397 214.554 74.7698C214.578 74.8 214.597 74.8347 214.608 74.8719C214.619 74.9092 214.623 74.9482 214.618 74.9869C214.614 75.0255 214.603 75.063 214.584 75.0972C214.566 75.1313 214.541 75.1615 214.511 75.186C214.481 75.2105 214.446 75.2288 214.409 75.2399C214.371 75.251 214.332 75.2546 214.294 75.2506H214.266Z" fill="#263238"/>
<path id="Vector_54" d="M211.806 76.2835L190.238 74.0624C190.161 74.054 190.09 74.0154 190.041 73.9551C189.992 73.8947 189.969 73.8175 189.977 73.7403C189.985 73.6627 190.024 73.5914 190.084 73.5416C190.144 73.4919 190.221 73.4675 190.299 73.4737L211.867 75.6949C211.945 75.703 212.017 75.7418 212.066 75.8027C212.116 75.8637 212.139 75.9417 212.131 76.0198C212.123 76.0978 212.084 76.1695 212.023 76.2189C211.962 76.2684 211.884 76.2916 211.806 76.2835Z" fill="#263238"/>
<path id="Vector_55" d="M187.913 77.373L186.062 77.1834C185.87 77.1637 185.698 77.3035 185.678 77.4957L185.489 79.3463C185.469 79.5385 185.609 79.7103 185.801 79.73L187.652 79.9196C187.844 79.9392 188.016 79.7994 188.035 79.6072L188.225 77.7566C188.245 77.5644 188.105 77.3927 187.913 77.373Z" fill="#BFBFBF" stroke="#263238" stroke-miterlimit="10"/>
<path id="Vector_56" d="M213.711 80.9536L189.805 78.5047C189.766 78.5013 189.729 78.4902 189.694 78.472C189.66 78.4539 189.629 78.4292 189.605 78.3993C189.58 78.3693 189.561 78.3347 189.55 78.2976C189.539 78.2604 189.535 78.2214 189.539 78.1827C189.547 78.1051 189.585 78.0338 189.645 77.984C189.706 77.9342 189.783 77.9099 189.861 77.9161L213.772 80.3705C213.813 80.3711 213.853 80.3803 213.89 80.3973C213.927 80.4143 213.96 80.4389 213.987 80.4695C214.015 80.5 214.035 80.5359 214.048 80.5748C214.06 80.6137 214.064 80.6548 214.06 80.6955C214.056 80.7361 214.043 80.7754 214.023 80.8109C214.003 80.8464 213.975 80.8773 213.942 80.9015C213.909 80.9258 213.872 80.943 213.832 80.952C213.792 80.9609 213.751 80.9615 213.711 80.9536Z" fill="#263238"/>
<path id="Vector_57" d="M211.223 81.9864L189.655 79.7652C189.583 79.751 189.519 79.7104 189.475 79.6513C189.431 79.5922 189.411 79.5189 189.419 79.4458C189.427 79.3727 189.461 79.3051 189.516 79.2563C189.571 79.2075 189.643 79.1811 189.716 79.1822L211.284 81.4033C211.329 81.3936 211.377 81.3948 211.422 81.4069C211.467 81.4189 211.508 81.4415 211.543 81.4728C211.577 81.504 211.604 81.543 211.621 81.5866C211.637 81.6301 211.643 81.677 211.638 81.7233C211.633 81.7696 211.617 81.8141 211.591 81.853C211.566 81.8919 211.531 81.9242 211.491 81.9472C211.45 81.9702 211.405 81.9832 211.358 81.9852C211.312 81.9872 211.265 81.9781 211.223 81.9586V81.9864Z" fill="#263238"/>
<path id="Vector_58" d="M187.329 83.0756L185.478 82.886C185.286 82.8663 185.114 83.0062 185.095 83.1984L184.905 85.0489C184.885 85.2411 185.025 85.4129 185.217 85.4326L187.068 85.6222C187.26 85.6419 187.432 85.502 187.452 85.3098L187.641 83.4593C187.661 83.2671 187.521 83.0953 187.329 83.0756Z" fill="white" stroke="#263238" stroke-linecap="round" stroke-linejoin="round"/>
<path id="Vector_59" d="M213.111 86.6565L189.2 84.2076C189.143 84.1819 189.097 84.139 189.066 84.0852C189.036 84.0315 189.023 83.9694 189.03 83.908C189.037 83.8465 189.063 83.7887 189.104 83.7428C189.145 83.697 189.2 83.6653 189.261 83.6523L213.155 86.0734C213.201 86.0637 213.248 86.0649 213.293 86.077C213.338 86.089 213.38 86.1116 213.414 86.1428C213.449 86.1741 213.475 86.2131 213.492 86.2567C213.508 86.3002 213.514 86.3471 213.509 86.3934C213.504 86.4397 213.488 86.4842 213.463 86.5231C213.437 86.562 213.402 86.5943 213.362 86.6173C213.321 86.6402 213.276 86.6533 213.229 86.6553C213.183 86.6573 213.136 86.6482 213.094 86.6287L213.111 86.6565Z" fill="#263238"/>
<path id="Vector_60" d="M210.64 87.6727L189.072 85.4515C189.031 85.4509 188.991 85.4418 188.954 85.4248C188.916 85.4077 188.883 85.3831 188.856 85.3526C188.829 85.322 188.809 85.2861 188.796 85.2472C188.784 85.2083 188.779 85.1672 188.784 85.1266C188.788 85.0859 188.801 85.0466 188.821 85.0111C188.841 84.9756 188.869 84.9448 188.901 84.9205C188.934 84.8962 188.972 84.879 189.012 84.8701C189.052 84.8611 189.093 84.8606 189.133 84.8684L210.695 87.0896C210.736 87.0894 210.777 87.0979 210.815 87.1144C210.852 87.1309 210.886 87.1551 210.914 87.1854C210.942 87.2158 210.963 87.2516 210.976 87.2906C210.989 87.3296 210.993 87.3709 210.99 87.4118C210.986 87.4528 210.973 87.4924 210.953 87.5283C210.933 87.5641 210.905 87.5953 210.872 87.6199C210.84 87.6445 210.802 87.6618 210.762 87.6709C210.722 87.68 210.68 87.6806 210.64 87.6727Z" fill="#263238"/>
<path id="Vector_61" d="M202.472 128.45L203.836 128.59L204.636 120.785L203.271 120.645L202.472 128.45Z" fill="#757575" stroke="#263238" stroke-linecap="round" stroke-linejoin="round"/>
<path id="Vector_62" d="M202.596 127.27L203.96 127.41L204.337 123.736L202.972 123.596L202.596 127.27Z" fill="#525ECC" stroke="#263238" stroke-miterlimit="10"/>
<path id="Vector_63" d="M205.752 126.792L207.116 126.932L207.916 119.126L206.552 118.986L205.752 126.792Z" fill="#757575" stroke="#263238" stroke-linecap="round" stroke-linejoin="round"/>
<path id="Vector_64" d="M206.334 121.049L205.957 124.722L207.322 124.862L207.698 121.188L206.334 121.049Z" fill="#525ECC" stroke="#263238" stroke-miterlimit="10"/>
<path id="Vector_65" d="M208.668 128.597L210.032 128.737L210.832 120.931L209.467 120.792L208.668 128.597Z" fill="#757575" stroke="#263238" stroke-linecap="round" stroke-linejoin="round"/>
<path id="Vector_66" d="M208.968 125.668L210.332 125.808L210.709 122.134L209.344 121.994L208.968 125.668Z" fill="#525ECC" stroke="#263238" stroke-miterlimit="10"/>
<path id="Vector_67" d="M199.558 126.594L200.922 126.734L201.722 118.929L200.357 118.789L199.558 126.594Z" fill="#757575" stroke="#263238" stroke-linecap="round" stroke-linejoin="round"/>
<path id="Vector_68" d="M199.682 125.408L201.046 125.548L201.423 121.875L200.058 121.735L199.682 125.408Z" fill="#525ECC" stroke="#263238" stroke-miterlimit="10"/>
<path id="Vector_69" d="M196.251 128.58L197.615 128.72L198.415 120.915L197.051 120.775L196.251 128.58Z" fill="#757575" stroke="#263238" stroke-linecap="round" stroke-linejoin="round"/>
<path id="Vector_70" d="M196.338 127.705L197.702 127.844L198.079 124.171L196.714 124.031L196.338 127.705Z" fill="#525ECC" stroke="#263238" stroke-miterlimit="10"/>
<path id="Vector_71" d="M193.383 126.25L194.747 126.39L195.547 118.585L194.182 118.445L193.383 126.25Z" fill="#757575" stroke="#263238" stroke-linecap="round" stroke-linejoin="round"/>
<path id="Vector_72" d="M193.413 125.967L194.777 126.107L195.154 122.433L193.789 122.294L193.413 125.967Z" fill="#525ECC" stroke="#263238" stroke-miterlimit="10"/>
<path id="Vector_73" d="M189.889 130.019L191.254 130.159L192.054 122.353L190.689 122.213L189.889 130.019Z" fill="#757575" stroke="#263238" stroke-linecap="round" stroke-linejoin="round"/>
<path id="Vector_74" d="M189.914 129.729L191.278 129.869L191.654 126.196L190.29 126.056L189.914 129.729Z" fill="#525ECC" stroke="#263238" stroke-miterlimit="10"/>
<path id="Vector_75" d="M187.322 124.783L188.686 124.923L189.486 117.118L188.121 116.978L187.322 124.783Z" fill="#757575" stroke="#263238" stroke-linecap="round" stroke-linejoin="round"/>
<path id="Vector_76" d="M187.446 123.609L188.81 123.749L189.186 120.075L187.822 119.935L187.446 123.609Z" fill="#525ECC" stroke="#263238" stroke-miterlimit="10"/>
<path id="Vector_77" d="M184.29 124.022L185.654 124.161L186.454 116.356L185.089 116.216L184.29 124.022Z" fill="#757575" stroke="#263238" stroke-linecap="round" stroke-linejoin="round"/>
<path id="Vector_78" d="M184.596 121.07L185.961 121.21L186.337 117.537L184.973 117.397L184.596 121.07Z" fill="#525ECC" stroke="#263238" stroke-miterlimit="10"/>
<path id="Vector_79" d="M180.723 128.603L182.088 128.742L182.887 120.937L181.523 120.797L180.723 128.603Z" fill="#757575" stroke="#263238" stroke-linecap="round" stroke-linejoin="round"/>
<path id="Vector_80" d="M181.055 125.363L182.42 125.503L182.796 121.83L181.432 121.69L181.055 125.363Z" fill="#525ECC" stroke="#263238" stroke-miterlimit="10"/>
<path id="Vector_81" d="M178.001 124.851L179.365 124.991L180.165 117.185L178.801 117.046L178.001 124.851Z" fill="#757575" stroke="#263238" stroke-linecap="round" stroke-linejoin="round"/>
<path id="Vector_82" d="M178.151 123.383L179.515 123.523L179.892 119.849L178.527 119.71L178.151 123.383Z" fill="#525ECC" stroke="#263238" stroke-miterlimit="10"/>
<path id="Vector_83" d="M174.711 126.583L176.075 126.723L176.875 118.917L175.51 118.777L174.711 126.583Z" fill="#757575" stroke="#263238" stroke-linecap="round" stroke-linejoin="round"/>
<path id="Vector_84" d="M174.84 125.397L176.205 125.537L176.581 121.864L175.217 121.724L174.84 125.397Z" fill="#525ECC" stroke="#263238" stroke-miterlimit="10"/>
<path id="Vector_85" d="M171.281 129.77L172.645 129.91L173.445 122.104L172.08 121.965L171.281 129.77Z" fill="#757575" stroke="#263238" stroke-linecap="round" stroke-linejoin="round"/>
<path id="Vector_86" d="M171.291 129.764L172.655 129.904L173.032 126.23L171.667 126.09L171.291 129.764Z" fill="#525ECC" stroke="#263238" stroke-miterlimit="10"/>
<path id="Vector_87" d="M168.721 124.507L170.085 124.647L170.885 116.842L169.521 116.702L168.721 124.507Z" fill="#757575" stroke="#263238" stroke-linecap="round" stroke-linejoin="round"/>
<path id="Vector_88" d="M168.809 123.62L170.173 123.76L170.55 120.086L169.185 119.946L168.809 123.62Z" fill="#525ECC" stroke="#263238" stroke-miterlimit="10"/>
<path id="Vector_89" d="M165.993 120.767L167.358 120.907L168.157 113.101L166.793 112.962L165.993 120.767Z" fill="#757575" stroke="#263238" stroke-linecap="round" stroke-linejoin="round"/>
<path id="Vector_90" d="M166.092 119.88L167.456 120.02L167.832 116.347L166.468 116.207L166.092 119.88Z" fill="#525ECC" stroke="#263238" stroke-miterlimit="10"/>
<path id="Vector_91" d="M162.499 124.58L163.864 124.72L164.663 116.914L163.299 116.775L162.499 124.58Z" fill="#757575" stroke="#263238" stroke-linecap="round" stroke-linejoin="round"/>
<path id="Vector_92" d="M162.8 121.645L164.164 121.785L164.541 118.112L163.176 117.972L162.8 121.645Z" fill="#525ECC" stroke="#263238" stroke-miterlimit="10"/>
<path id="Vector_93" d="M158.978 128.676L160.342 128.816L161.142 121.01L159.778 120.87L158.978 128.676Z" fill="#757575" stroke="#263238" stroke-linecap="round" stroke-linejoin="round"/>
<path id="Vector_94" d="M159.336 125.143L160.7 125.283L161.077 121.609L159.712 121.47L159.336 125.143Z" fill="#525ECC" stroke="#263238" stroke-miterlimit="10"/>
<path id="Vector_95" d="M156.356 123.948L157.72 124.088L158.52 116.283L157.156 116.143L156.356 123.948Z" fill="#757575" stroke="#263238" stroke-linecap="round" stroke-linejoin="round"/>
<path id="Vector_96" d="M156.474 122.78L157.839 122.919L158.215 119.246L156.851 119.106L156.474 122.78Z" fill="#525ECC" stroke="#263238" stroke-miterlimit="10"/>
<path id="Vector_97" d="M153.416 122.341L154.781 122.481L155.58 114.675L154.216 114.535L153.416 122.341Z" fill="#757575" stroke="#263238" stroke-linecap="round" stroke-linejoin="round"/>
<path id="Vector_98" d="M153.748 119.101L155.113 119.241L155.489 115.568L154.124 115.428L153.748 119.101Z" fill="#525ECC" stroke="#263238" stroke-miterlimit="10"/>
<path id="Vector_99" d="M150.089 124.462L151.453 124.602L152.253 116.796L150.888 116.656L150.089 124.462Z" fill="#757575" stroke="#263238" stroke-linecap="round" stroke-linejoin="round"/>
<path id="Vector_100" d="M150.093 124.455L151.458 124.595L151.834 120.921L150.47 120.781L150.093 124.455Z" fill="#525ECC" stroke="#263238" stroke-miterlimit="10"/>
<path id="Vector_101" d="M147.267 121.703L148.632 121.843L149.432 114.037L148.067 113.898L147.267 121.703Z" fill="#757575" stroke="#263238" stroke-linecap="round" stroke-linejoin="round"/>
<path id="Vector_102" d="M147.329 121.121L148.693 121.261L149.07 117.587L147.705 117.448L147.329 121.121Z" fill="#525ECC" stroke="#263238" stroke-miterlimit="10"/>
<path id="Vector_103" d="M144.089 122.442L145.453 122.582L146.253 114.777L144.888 114.637L144.089 122.442Z" fill="#757575" stroke="#263238" stroke-linecap="round" stroke-linejoin="round"/>
<path id="Vector_104" d="M144.119 122.148L145.483 122.287L145.86 118.614L144.495 118.474L144.119 122.148Z" fill="#525ECC" stroke="#263238" stroke-miterlimit="10"/>
<path id="Vector_105" d="M141.118 121.122L142.483 121.262L143.282 113.456L141.918 113.317L141.118 121.122Z" fill="#757575" stroke="#263238" stroke-linecap="round" stroke-linejoin="round"/>
<path id="Vector_106" d="M141.512 117.307L142.877 117.447L143.253 113.774L141.889 113.634L141.512 117.307Z" fill="#525ECC" stroke="#263238" stroke-miterlimit="10"/>
<path id="Vector_107" d="M210.851 138.027L148.53 131.636C148.356 131.618 148.183 131.671 148.048 131.781C147.912 131.891 147.826 132.051 147.808 132.224C147.799 132.31 147.807 132.396 147.831 132.478C147.855 132.561 147.896 132.637 147.95 132.704C148.004 132.771 148.071 132.826 148.147 132.866C148.223 132.907 148.306 132.932 148.391 132.94L210.718 139.315C210.891 139.332 211.065 139.28 211.2 139.17C211.335 139.059 211.421 138.9 211.439 138.727C211.452 138.556 211.397 138.388 211.287 138.257C211.177 138.126 211.021 138.044 210.851 138.027Z" fill="#263238"/>
<path id="Vector_108" d="M210.379 142.719L137.901 135.289C137.728 135.272 137.554 135.325 137.419 135.435C137.284 135.545 137.198 135.704 137.179 135.878C137.17 135.964 137.178 136.051 137.203 136.133C137.228 136.216 137.269 136.293 137.324 136.36C137.378 136.426 137.446 136.481 137.522 136.522C137.599 136.562 137.682 136.587 137.768 136.594L210.24 144.024C210.413 144.04 210.585 143.987 210.719 143.877C210.853 143.767 210.938 143.608 210.956 143.436C210.965 143.351 210.958 143.265 210.934 143.183C210.91 143.101 210.87 143.024 210.816 142.958C210.763 142.891 210.696 142.836 210.621 142.795C210.546 142.754 210.464 142.728 210.379 142.719Z" fill="#263238"/>
<path id="Vector_109" d="M179.449 144.313L137.418 140.004C137.245 139.987 137.071 140.039 136.936 140.149C136.801 140.26 136.715 140.419 136.697 140.593C136.688 140.678 136.697 140.765 136.722 140.847C136.747 140.93 136.788 141.006 136.842 141.073C136.897 141.139 136.964 141.194 137.04 141.235C137.116 141.275 137.199 141.301 137.285 141.309L179.316 145.618C179.401 145.627 179.488 145.619 179.57 145.594C179.653 145.569 179.73 145.528 179.796 145.474C179.863 145.42 179.919 145.353 179.959 145.277C180 145.201 180.026 145.118 180.035 145.032C180.043 144.946 180.035 144.86 180.011 144.777C179.986 144.695 179.945 144.618 179.891 144.551C179.836 144.484 179.769 144.429 179.693 144.388C179.618 144.347 179.535 144.322 179.449 144.313Z" fill="#263238"/>
<path id="Vector_110" opacity="0.2" d="M217.725 102.382C215.576 102.21 214.832 105.636 214.832 105.636C214.832 105.636 211.434 101.194 211.973 90.7101C211.973 90.7101 210.307 86.0678 205.864 88.8721C201.422 91.6763 196.807 101.555 197.907 112.328L189.278 83.6245C186.29 84.2575 180.221 88.2723 181.82 107.658L172.38 97.6624C172.38 97.6624 169.825 96.8406 168.382 99.1006C166.938 101.361 167.626 117.548 168.82 123.6C170.014 129.653 166.971 141.814 166.971 141.814C166.971 141.814 163.717 128.043 157.831 124.555L135.414 78.3436L127.956 151.032L136.358 151.893L149.851 145.324C149.774 148.361 149.701 151.154 149.479 153.237L216.915 160.144L221.74 113.044C220.102 107.175 218.536 102.444 217.725 102.382Z" fill="black" fill-opacity="0.7"/>
</g>
</g>
</g>
<path id="Vector_111" d="M229.587 36.4799L221.74 113.044L216.915 160.145L149.479 153.237L136.358 151.893L127.956 151.032L135.403 78.3437L140.628 27.3674L229.587 36.4799Z" stroke="#263238" stroke-linecap="round" stroke-linejoin="round"/>
<path id="Vector_112" d="M228.476 233.588L189.05 240.296C189.05 240.296 182.186 203.841 178.094 198.093C174.001 192.346 174.762 189.986 172.763 186.116C171.564 183.778 165.544 179.419 160.83 175.115C160.419 174.743 160.019 174.371 159.636 174.005C159.469 173.855 159.314 173.694 159.158 173.544C158.531 172.922 157.948 172.317 157.431 171.722C157.242 171.511 157.057 171.3 156.876 171.089C156.001 170.115 155.349 168.961 154.966 167.708C154.949 167.652 154.938 167.594 154.932 167.535C154.916 167.468 154.905 167.399 154.899 167.33C154.794 166.469 154.683 165.486 154.572 164.42C154.572 164.209 154.527 163.987 154.499 163.765L154.466 163.498C154.372 162.61 154.266 161.666 154.144 160.694C154.022 159.722 153.889 158.623 153.733 157.562C153.683 157.196 153.633 156.829 153.572 156.452C153.511 156.041 153.444 155.63 153.378 155.213L153.183 154.142C153.183 154.081 153.156 154.025 153.15 153.975L152.917 152.742C152.902 152.697 152.892 152.651 152.889 152.604C152.811 152.243 152.739 151.887 152.656 151.526C152.484 150.721 152.289 149.933 152.1 149.166C151.718 147.724 151.226 146.313 150.629 144.946C147.786 138.599 151.484 140.892 149.257 124.561C149.257 124.561 150.895 120.774 155.566 123.8C155.926 124.036 156.275 124.29 156.609 124.561C157.556 125.326 158.391 126.22 159.092 127.215C160.041 128.571 160.765 130.071 161.235 131.658C161.998 134.231 162.214 136.936 161.868 139.599C161.868 139.599 165.378 151.626 167.227 154.364C169.076 157.101 176.722 141.375 176.228 139.543C176.055 138.721 175.923 137.891 175.834 137.055C175.801 136.783 175.767 136.5 175.728 136.189C175.689 135.878 175.656 135.567 175.623 135.239C175.623 135.084 175.584 134.917 175.562 134.756C175.562 134.69 175.562 134.623 175.562 134.562C175.495 133.934 175.417 133.268 175.345 132.58C175.345 132.385 175.306 132.202 175.284 132.024C175.251 131.697 175.217 131.358 175.184 131.025C175.181 130.969 175.181 130.914 175.184 130.858C175.184 130.669 175.14 130.475 175.123 130.303C175.079 129.914 175.04 129.52 175.001 129.126C174.962 128.731 174.934 128.448 174.901 128.109C174.834 127.471 174.773 126.832 174.712 126.216C174.668 125.755 174.623 125.3 174.584 124.855C174.584 124.755 174.584 124.655 174.557 124.561C174.323 122.118 174.14 120.119 174.074 119.252C174.074 119.252 168.521 111.023 167.965 107.147C167.41 103.271 167.443 99.1895 169.77 97.5292C175.279 93.6088 173.657 99.9281 176.134 102.527C178.61 105.126 182.381 109.429 184.524 110.767C186.501 112.022 188.267 116.876 188.517 117.609C188.234 116.543 185.407 106.059 185.346 103.948C185.274 101.727 183.575 89.9772 186.457 85.7624C189.339 81.5477 193.181 84.8184 193.537 85.6514C193.892 86.4843 193.998 97.8679 195.014 101.033C196.03 104.198 200.284 117.398 200.284 117.398C200.284 117.398 200.461 104.559 201.394 98.8119C202.327 93.0646 204.848 88.5723 207.291 88.3168C209.735 88.0614 211.995 90.7546 211.995 90.7546C211.995 90.7546 211.029 99.917 211.306 102.033C211.584 104.148 210.906 111.789 212.067 115.915C212.067 115.915 211.934 104.97 213.633 103.571C215.332 102.171 216.793 101.5 217.748 102.46C218.703 103.421 218.908 109.885 219.88 113.783C220.852 117.681 220.73 122.978 221.368 129.059C222.007 135.139 224.522 143.58 224.023 148.406C223.523 153.231 221.985 165.198 220.746 172.222C219.508 179.247 216.348 188.881 216.348 188.881C216.348 188.881 217.787 194.018 217.509 198.599C217.231 203.18 228.476 233.588 228.476 233.588Z" fill="white"/>
<path id="Vector_113" opacity="0.4" d="M194.964 101C195.719 103.343 198.246 111.184 199.501 115.099C199.501 115.099 193.992 119.147 194.125 122.912C194.259 126.677 193.12 134.279 190.644 134.057C188.167 133.835 188.422 118.036 187.584 115.377C188.089 116.52 188.411 117.448 188.478 117.631C188.295 116.948 185.352 106.07 185.291 103.915C185.291 103.41 185.174 102.399 185.057 101.094C185.057 101.094 190.538 95.8467 194.559 99.0564C194.65 99.7126 194.785 100.362 194.964 101Z" fill="#525ECC"/>
<path id="Vector_114" opacity="0.4" d="M211.34 105.509C208.774 107.941 204.904 112.239 204.415 116.387C204.415 116.387 205.842 127.971 205.231 133.046L200.234 117.381C200.234 117.381 200.411 104.543 201.344 98.7952C201.344 98.6398 201.4 98.4787 201.428 98.3232C204.547 96.7358 207.99 95.8865 211.49 95.8411C211.275 97.8826 211.202 99.9366 211.273 101.988C211.357 103.16 211.379 104.335 211.34 105.509Z" fill="#525ECC"/>
<path id="Vector_115" opacity="0.4" d="M213.611 103.51C213.55 103.549 213.4 103.671 213.183 103.854C213.312 103.604 213.456 103.363 213.616 103.132L213.611 103.51Z" fill="#525ECC"/>
<path id="Vector_116" opacity="0.4" d="M214.916 135.534C214.916 135.534 211.617 123.162 211.584 113.2C211.556 109.513 211.984 106.153 213.177 103.882C213.306 103.632 213.451 103.391 213.611 103.16V103.515C214.208 103 214.868 102.563 215.576 102.216C214.649 103.66 213.583 106.486 214.816 111.101C216.754 118.27 215.065 127.06 214.916 135.534Z" fill="#525ECC"/>
<path id="Vector_117" opacity="0.4" d="M169.42 159.112C169.42 159.112 170.303 170.901 160.83 175.121C160.419 174.749 160.019 174.377 159.636 174.01C159.469 173.86 159.314 173.699 159.158 173.549C158.531 172.927 157.948 172.322 157.431 171.728C157.237 171.511 157.065 171.3 156.876 171.095C156.001 170.12 155.349 168.966 154.966 167.713C154.949 167.657 154.938 167.599 154.932 167.541C154.916 167.473 154.905 167.405 154.899 167.336C154.794 166.475 154.682 165.492 154.571 164.426C154.571 164.215 154.527 163.993 154.499 163.771L154.466 163.504C154.372 162.616 154.266 161.672 154.144 160.7C154.022 159.728 153.888 158.628 153.733 157.568C153.677 157.201 153.627 156.829 153.572 156.457C153.511 156.046 153.444 155.635 153.378 155.219L153.183 154.142C153.183 154.081 153.155 154.025 153.15 153.975L152.917 152.742C152.901 152.697 152.892 152.651 152.889 152.604C152.811 152.243 152.739 151.887 152.656 151.526C152.478 150.727 152.284 149.938 152.1 149.166C155.849 145.562 164.5 147.822 160.313 139.465C160.313 139.465 162.423 132.313 156.609 124.561C160.585 127.765 162.623 133.401 161.868 139.554C161.868 139.554 165.378 151.582 167.227 154.319C169.076 157.057 176.722 141.331 176.228 139.499C176.054 138.676 175.923 137.846 175.834 137.011C175.8 136.739 175.767 136.455 175.728 136.145C175.689 135.834 175.656 135.523 175.623 135.195C175.623 135.039 175.584 134.873 175.562 134.712C175.562 134.645 175.562 134.579 175.562 134.517C175.495 133.884 175.423 133.224 175.345 132.535C175.345 132.341 175.306 132.157 175.284 131.98C175.251 131.652 175.217 131.313 175.184 130.98C175.181 130.925 175.181 130.869 175.184 130.814C175.184 130.625 175.14 130.431 175.123 130.258C175.079 129.87 175.04 129.475 175.001 129.081C174.962 128.687 174.934 128.404 174.901 128.065C174.834 127.426 174.773 126.788 174.712 126.171C174.668 125.71 174.629 125.25 174.584 124.811C174.584 124.711 174.584 124.611 174.557 124.517C174.706 125.244 177.522 138.649 179.132 141.77C180.748 144.968 173.729 161.888 169.42 159.112Z" fill="#525ECC"/>
<path id="Vector_118" opacity="0.4" d="M220.724 172.144C219.486 179.175 216.326 188.803 216.326 188.803C216.326 188.803 217.764 193.94 217.487 198.521C217.409 199.754 218.175 202.869 219.319 206.756C218.986 205.901 215.432 196.727 215.504 193.529C215.576 190.169 214.621 189.242 212.728 185.116C210.834 180.99 208.002 181.446 208.002 181.446C208.002 181.446 206.892 191.735 204.315 184.972C201.738 178.208 201.233 170.34 207.747 143.019C207.747 143.019 208.73 146.445 207.908 156.624C207.086 166.803 209.518 169.884 209.518 169.884C213.174 163.513 216.079 156.74 218.175 149.699C218.175 149.699 217.331 161.577 216.582 166.986C215.832 172.394 219.253 160.716 221.64 153.503C223.862 146.734 223.967 144.158 223.112 139.338C223.745 142.73 224.222 146.001 223.978 148.339C223.501 153.142 221.962 165.12 220.724 172.144Z" fill="#525ECC"/>
<path id="Vector_119" opacity="0.4" d="M176.173 195.045C178.094 198.099 182.797 202.136 185.613 213.303C188.428 224.47 186.651 236.692 186.651 236.692L176.173 195.045Z" fill="#525ECC"/>
<path id="Vector_120" opacity="0.2" d="M161.241 131.636C161.241 131.636 151.406 136.633 150.629 144.963C147.786 138.616 151.484 140.909 149.257 124.578C149.257 124.578 150.895 120.791 155.566 123.817C155.926 124.052 156.275 124.306 156.609 124.578C157.556 125.343 158.391 126.236 159.092 127.232L161.241 131.636Z" fill="black" fill-opacity="0.7"/>
<path id="Vector_121" d="M189.05 240.296C189.05 240.296 182.186 203.841 178.094 198.093C174.001 192.346 174.762 189.986 172.763 186.116C170.764 182.245 155.588 172.827 154.916 167.324C154.244 161.821 153.472 151.293 150.629 144.94C147.786 138.588 151.484 140.887 149.252 124.555C149.252 124.555 150.918 120.768 155.565 123.795C160.213 126.821 162.69 132.874 161.874 139.576C161.874 139.576 165.383 151.593 167.238 154.336C169.092 157.079 176.722 141.348 176.228 139.51C175.734 137.672 174.268 122.04 174.04 119.186C174.04 119.186 168.487 110.951 167.932 107.075C167.377 103.199 167.41 99.1173 169.737 97.4625C175.245 93.5421 173.624 99.8614 176.1 102.46C178.577 105.059 182.347 109.357 184.485 110.701C186.623 112.045 188.489 117.659 188.489 117.659C188.489 117.659 185.352 106.142 185.29 103.915C185.229 101.688 183.519 89.9438 186.401 85.7347C189.283 81.5255 193.131 84.7851 193.487 85.6181C193.842 86.451 193.948 97.8346 194.969 101L200.228 117.364C200.228 117.364 200.411 104.526 201.372 98.7786C202.333 93.0313 204.826 88.5389 207.269 88.2835C209.712 88.028 211.973 90.7212 211.973 90.7212C211.973 90.7212 211.006 99.8836 211.278 101.999C211.55 104.115 210.884 111.75 212.045 115.882C212.045 115.882 211.911 104.937 213.611 103.537C215.31 102.138 216.77 101.466 217.725 102.427C218.681 103.388 218.886 109.851 219.858 113.749C220.83 117.648 220.707 122.945 221.346 129.026C221.985 135.106 224.5 143.547 224 148.367C223.5 153.187 221.962 165.164 220.718 172.194C219.475 179.224 216.332 188.853 216.332 188.853C216.332 188.853 217.764 193.99 217.487 198.571C217.209 203.152 228.47 233.649 228.47 233.649" stroke="#263238" stroke-linecap="round" stroke-linejoin="round"/>
<path id="Vector_122" d="M200.228 117.353C201.377 120.052 204.215 131.447 205.226 133.024C205.741 133.898 206.491 134.61 207.391 135.078" stroke="#263238" stroke-linecap="round" stroke-linejoin="round"/>
<path id="Vector_123" d="M212.045 115.854C212.045 115.854 211.8 118.192 213.061 125.633C214.321 133.074 214.938 136.245 215.643 137.905" stroke="#263238" stroke-linecap="round" stroke-linejoin="round"/>
<path id="Vector_124" d="M188.489 117.659C190.027 122.195 190.899 129.425 191.776 131.602C192.654 133.779 193.442 134.229 193.442 134.229" stroke="#263238" stroke-linecap="round" stroke-linejoin="round"/>
<path id="Vector_125" d="M190.982 128.531C191.909 129.235 192.642 130.162 193.115 131.225" stroke="#263238" stroke-linecap="round" stroke-linejoin="round"/>
<path id="Vector_126" d="M167.238 154.342C167.238 154.342 168.076 160.356 171.847 159.895" stroke="#263238" stroke-linecap="round" stroke-linejoin="round"/>
<path id="Vector_127" d="M176.228 139.515C176.228 139.515 177.205 146.668 175.606 149.699" stroke="#263238" stroke-linecap="round" stroke-linejoin="round"/>
<path id="Vector_128" d="M206.347 139.582C206.347 139.582 208.879 141.131 207.186 145.69C205.492 150.249 202.543 168.585 202.543 168.585" stroke="#263238" stroke-linecap="round" stroke-linejoin="round"/>
<path id="Vector_129" d="M217.37 144.38C218.431 148.489 218.525 148.594 216.815 153.642C215.104 158.69 212.311 171.056 212.311 171.056" stroke="#263238" stroke-linecap="round" stroke-linejoin="round"/>
<path id="Vector_130" d="M216.332 188.792C216.332 188.792 214.666 185.461 216.043 182.684" stroke="#263238" stroke-linecap="round" stroke-linejoin="round"/>
<path id="Vector_131" d="M178.094 198.099C178.094 198.099 182.281 203.98 184.102 210.56" stroke="#263238" stroke-linecap="round" stroke-linejoin="round"/>
<path id="Vector_132" d="M208.902 95.0193L210.034 93.9031L210.545 93.7532L210.512 94.3085L209.474 95.6356L208.902 95.0193Z" fill="#757575" stroke="#263238" stroke-linecap="round" stroke-linejoin="round"/>
<path id="Vector_133" d="M209.824 95.6412L207.98 99.817L158.447 165.864L152.933 162.343L160.402 152.948L204.893 97.1405L208.818 94.6472C209.059 94.7093 209.279 94.834 209.455 95.0086C209.632 95.1832 209.759 95.4015 209.824 95.6412Z" fill="#525ECC"/>
<g id="Clip path group_4">
<mask id="mask3_63_6985" style="mask-type:luminance" maskUnits="userSpaceOnUse" x="152" y="94" width="58" height="72">
<g id="clip-path-4">
<path id="Vector_134" d="M209.824 95.6412L207.98 99.817L158.447 165.864L152.933 162.343L160.402 152.948L204.893 97.1405L208.818 94.6472C209.059 94.7093 209.279 94.834 209.455 95.0086C209.632 95.1832 209.759 95.4015 209.824 95.6412Z" fill="white"/>
</g>
</mask>
<g mask="url(#mask3_63_6985)">
<g id="Group_4">
<path id="Vector_135" opacity="0.3" d="M209.824 95.6412L207.98 99.817L158.447 165.864L152.933 162.343L160.402 152.948C163.845 152.592 164.422 154.614 164.422 154.614L207.097 98.9175C206.675 97.4182 204.876 97.1294 204.876 97.1294L208.802 94.6361C209.047 94.6965 209.271 94.8217 209.45 94.9986C209.63 95.1754 209.759 95.3974 209.824 95.6412Z" fill="black" fill-opacity="0.7"/>
</g>
</g>
</g>
<path id="Vector_136" d="M209.824 95.6412L207.98 99.817L158.447 165.864L152.933 162.343L160.402 152.948L204.893 97.1405L208.818 94.6472C209.059 94.7093 209.279 94.834 209.455 95.0086C209.632 95.1832 209.759 95.4015 209.824 95.6412Z" stroke="#263238" stroke-linecap="round" stroke-linejoin="round"/>
<path id="Vector_137" d="M174.601 146.306C174.601 146.306 169.048 157.279 163.751 165.042L159.952 166.025C159.952 166.025 151.234 174.688 145.914 179.013C144.949 178.414 144.073 177.679 143.316 176.831C143.316 176.831 150.868 162.327 159.225 153.148C160.204 153.495 161.127 153.986 161.963 154.603C163.047 155.372 164.012 156.296 164.828 157.346L174.14 145.629L174.601 146.306Z" fill="#525ECC"/>
<g id="Clip path group_5">
<mask id="mask4_63_6985" style="mask-type:luminance" maskUnits="userSpaceOnUse" x="143" y="145" width="32" height="35">
<g id="clip-path-5">
<path id="Vector_138" d="M174.601 146.306C174.601 146.306 169.048 157.279 163.751 165.042L159.952 166.025C159.952 166.025 151.234 174.688 145.914 179.013C144.949 178.414 144.073 177.679 143.316 176.831C143.316 176.831 150.868 162.327 159.225 153.148C160.204 153.495 161.127 153.986 161.963 154.603C163.047 155.372 164.012 156.296 164.828 157.346L174.14 145.629L174.601 146.306Z" fill="white"/>
</g>
</mask>
<g mask="url(#mask4_63_6985)">
<g id="Group_5">
<path id="Vector_139" opacity="0.3" d="M174.601 146.306C174.601 146.306 169.048 157.279 163.751 165.042L159.952 166.025C159.952 166.025 151.234 174.688 145.915 179.013L146.059 176.659C151.828 167.846 159.158 158.234 161.963 154.603C163.047 155.372 164.012 156.296 164.828 157.346L159.653 164.254L162.618 163.698L174.14 145.607L174.601 146.306Z" fill="black" fill-opacity="0.7"/>
</g>
</g>
</g>
<path id="Vector_140" d="M174.601 146.306C174.601 146.306 169.048 157.279 163.751 165.042L159.952 166.025C159.952 166.025 151.234 174.688 145.914 179.013C144.949 178.414 144.073 177.679 143.316 176.831C143.316 176.831 150.868 162.327 159.225 153.148C160.204 153.495 161.127 153.986 161.963 154.603C163.047 155.372 164.012 156.296 164.828 157.346L174.14 145.629L174.601 146.306Z" stroke="#263238" stroke-linecap="round" stroke-linejoin="round"/>
<path id="Vector_141" d="M193.431 134.218L177.961 149.211L175.489 151.61C177.183 147.256 176.361 140.504 176.256 139.71C176.256 139.665 176.256 139.637 176.256 139.637C176.256 139.637 176.256 139.549 176.256 139.521C176.082 138.699 175.951 137.868 175.861 137.033C175.828 136.761 175.795 136.478 175.756 136.167C175.717 135.856 175.684 135.545 175.65 135.217C175.65 135.062 175.612 134.895 175.589 134.734C175.589 134.667 175.589 134.601 175.589 134.54C175.523 133.912 175.445 133.246 175.373 132.557C175.373 132.363 175.334 132.18 175.312 132.002C175.278 131.674 175.245 131.336 175.212 131.003C175.209 130.947 175.209 130.891 175.212 130.836C175.212 130.647 175.167 130.453 175.151 130.281C175.106 129.892 175.067 129.498 175.029 129.103C174.99 128.709 174.962 128.426 174.929 128.087C174.862 127.449 174.801 126.81 174.74 126.194C174.695 125.733 174.651 125.277 174.612 124.833C174.612 124.733 174.612 124.633 174.584 124.539C174.351 122.096 174.168 120.096 174.101 119.23C174.101 119.23 168.548 111.001 167.993 107.125C167.438 103.249 167.471 99.1673 169.798 97.507C175.306 93.5866 173.685 99.9059 176.161 102.505C178.638 105.103 182.408 109.407 184.552 110.745C186.695 112.084 188.489 117.659 188.489 117.659C190.027 122.19 190.899 129.42 191.776 131.597C192.654 133.773 193.431 134.218 193.431 134.218Z" fill="white"/>
<path id="Vector_142" d="M190.982 128.531C191.909 129.235 192.642 130.162 193.115 131.225" stroke="#263238" stroke-linecap="round" stroke-linejoin="round"/>
<path id="Vector_143" opacity="0.4" d="M176.078 102.483C178.533 105.104 182.303 109.357 184.446 110.712C184.147 110.562 180.198 108.641 177.994 110.779C175.701 113 174.04 119.191 174.04 119.191C174.04 119.191 168.487 110.962 167.932 107.086C167.377 103.21 167.41 99.1285 169.737 97.4682C175.223 93.5478 173.613 99.8893 176.078 102.483Z" fill="#525ECC"/>
<path id="Vector_144" opacity="0.4" d="M177.961 149.222L175.49 151.621C177.183 147.267 176.361 140.515 176.256 139.721C176.263 139.658 176.263 139.595 176.256 139.532C176.082 138.71 175.951 137.88 175.862 137.044C175.828 136.772 175.795 136.489 175.756 136.178C175.717 135.867 175.684 135.556 175.651 135.228C175.651 135.073 175.612 134.906 175.59 134.745C175.59 134.679 175.59 134.612 175.59 134.551C175.523 133.918 175.451 133.257 175.373 132.568C175.373 132.374 175.334 132.191 175.312 132.013C175.279 131.685 175.245 131.347 175.212 131.014C175.209 130.958 175.209 130.902 175.212 130.847C175.212 130.658 175.168 130.464 175.151 130.292C175.106 129.903 175.068 129.509 175.029 129.114C174.99 128.72 174.962 128.437 174.929 128.098C174.862 127.46 174.801 126.821 174.74 126.205C174.696 125.744 174.657 125.283 174.612 124.844C174.612 124.744 174.612 124.644 174.584 124.55C174.734 125.277 177.55 138.682 179.16 141.803C179.704 142.936 179.138 145.979 177.961 149.222Z" fill="#525ECC"/>
<path id="Vector_145" d="M193.437 134.218C193.437 134.218 192.654 133.768 191.771 131.591C190.888 129.414 190.022 122.184 188.483 117.648C188.483 117.648 186.601 112.095 184.458 110.729C182.314 109.363 178.538 105.109 176.073 102.488C173.607 99.867 175.217 93.5478 169.709 97.4904C167.382 99.1563 167.332 103.232 167.904 107.103C168.476 110.973 174.012 119.214 174.012 119.214C174.24 122.068 175.706 137.705 176.2 139.537" stroke="#263238" stroke-linecap="round" stroke-linejoin="round"/>
<path id="Vector_146" d="M176.228 139.515C176.228 139.515 177.205 146.668 175.606 149.699" stroke="#263238" stroke-linecap="round" stroke-linejoin="round"/>
</g>
<g id="left-hand">
<path id="Vector_147" opacity="0.2" d="M81.2556 148.261C81.2556 148.261 84.7707 164.587 77.1575 176.459C69.5444 188.331 63.6805 191.502 61.0539 195.045C58.4274 198.588 48.1044 218.395 48.1044 218.395L36.0544 182.706L48.1044 138.555L81.2556 148.261Z" fill="black" fill-opacity="0.7"/>
<path id="Vector_148" d="M152.278 135.784L77.5575 167.23L69.8555 170.473L55.3401 135.984L21.6335 55.893L104.056 21.2036L152.278 135.784Z" fill="white"/>
<g id="Clip path group_6">
<mask id="mask5_63_6985" style="mask-type:luminance" maskUnits="userSpaceOnUse" x="21" y="21" width="132" height="150">
<g id="clip-path-6">
<path id="Vector_149" d="M152.278 135.784L77.5575 167.23L69.8555 170.473L55.3401 135.984L21.6335 55.893L104.056 21.2036L152.278 135.784Z" fill="white"/>
</g>
</mask>
<g mask="url(#mask5_63_6985)">
<g id="Group_6">
<path id="Vector_150" d="M82.7606 36.1133L47.1827 51.1063C46.8616 51.2411 46.6073 51.4979 46.4755 51.8202C46.3438 52.1425 46.3455 52.5039 46.4802 52.825C46.615 53.1461 46.8718 53.4004 47.1941 53.5322C47.5164 53.6639 47.8778 53.6622 48.1989 53.5274L83.7712 38.5289C83.9328 38.4642 84.0799 38.368 84.204 38.2459C84.328 38.1238 84.4264 37.9782 84.4936 37.8176C84.5607 37.6571 84.5952 37.4847 84.595 37.3107C84.5948 37.1366 84.56 36.9643 84.4925 36.8039C84.425 36.6435 84.3262 36.4981 84.2019 36.3763C84.0776 36.2544 83.9303 36.1585 83.7686 36.0943C83.6068 36.03 83.4339 35.9985 83.2599 36.0018C83.0859 36.0051 82.9142 36.043 82.755 36.1133H82.7606Z" fill="#263238"/>
<path id="Vector_151" d="M75.9581 44.826L58.1886 52.3114C58.0281 52.3791 57.9011 52.5079 57.8355 52.6693C57.7699 52.8307 57.7711 53.0116 57.8388 53.1721C57.9065 53.3326 58.0353 53.4597 58.1967 53.5253C58.3581 53.5909 58.539 53.5897 58.6995 53.5219L76.469 46.031C76.5525 46.0005 76.6288 45.9533 76.6935 45.8924C76.7582 45.8315 76.8098 45.758 76.8452 45.6765C76.8806 45.5951 76.899 45.5072 76.8994 45.4184C76.8998 45.3295 76.8821 45.2415 76.8474 45.1597C76.8127 45.0779 76.7618 45.0041 76.6977 44.9426C76.6335 44.8811 76.5576 44.8333 76.4744 44.802C76.3912 44.7708 76.3026 44.7568 76.2138 44.761C76.1251 44.7651 76.0381 44.7872 75.9581 44.826Z" fill="#263238"/>
<g id="Vector_152">
<path d="M105.228 90.4491C105.228 90.4491 105.977 96.3408 103.784 97.2626C101.779 98.1066 99.1417 94.947 96.8372 95.9132C94.5328 96.8794 96.3486 105.242 94.1274 106.175C91.9062 107.108 89.2297 103.676 87.3083 104.509C85.387 105.342 86.5531 109.618 84.5763 110.451C82.9437 111.134 80.6115 107.719 78.7457 106.969C78.5739 106.885 78.3869 106.837 78.196 106.828C78.0052 106.818 77.8144 106.847 77.6351 106.914C75.6804 107.735 76.6522 116.715 74.9641 117.42C74.4919 117.623 73.9774 117.709 73.4648 117.67C72.8367 117.551 72.1992 117.49 71.5601 117.487C71.3153 117.511 71.0757 117.573 70.8493 117.67C69.4111 118.275 69.6055 123.001 68.2894 123.556C66.9734 124.111 65.674 123.423 64.2691 124.011C62.8642 124.6 62.8864 127.06 60.7874 127.943L61.6758 130.047L112.824 108.524" fill="#BFBFBF"/>
<path d="M105.228 90.4491C105.228 90.4491 105.977 96.3408 103.784 97.2626C101.779 98.1066 99.1417 94.947 96.8372 95.9132C94.5328 96.8794 96.3486 105.242 94.1274 106.175C91.9062 107.108 89.2297 103.676 87.3083 104.509C85.387 105.342 86.5531 109.618 84.5763 110.451C82.9437 111.134 80.6115 107.719 78.7457 106.969C78.5739 106.885 78.3869 106.837 78.196 106.828C78.0052 106.818 77.8144 106.847 77.6351 106.914C75.6804 107.735 76.6522 116.715 74.9641 117.42C74.4919 117.623 73.9774 117.709 73.4648 117.67C72.8367 117.551 72.1992 117.49 71.5601 117.487C71.3153 117.511 71.0757 117.573 70.8493 117.67C69.4111 118.275 69.6055 123.001 68.2894 123.556C66.9734 124.111 65.674 123.423 64.2691 124.011C62.8642 124.6 62.8864 127.06 60.7874 127.943L61.6758 130.047L112.824 108.524" stroke="#263238" stroke-miterlimit="10"/>
</g>
<path id="Vector_153" d="M51.3196 105.398L61.6759 130.003L115.229 107.469" stroke="#263238" stroke-linecap="round" stroke-linejoin="round"/>
<g id="Vector_154">
<path d="M109.343 100.211C109.343 100.211 109.087 99.9003 108.709 99.5282C108.049 98.8896 106.999 98.0789 106.2 98.4176C105.4 98.7564 105.35 100.039 105.367 101.427C105.367 103.093 105.533 104.926 104.684 105.281C103.962 105.587 103.318 105.131 102.651 104.631C101.89 104.076 101.113 103.443 100.175 103.837C98.5975 104.504 99.064 106.558 98.5087 108.319C98.3578 108.825 98.0911 109.289 97.7297 109.675C97.3683 110.06 96.922 110.357 96.4263 110.54C95.0658 111.095 93.6832 110.54 92.3782 109.662C90.157 108.163 88.2024 105.731 86.9252 106.27C84.8872 107.13 87.1306 112.639 84.9428 113.561C83.7211 114.077 81.189 110.229 78.729 106.897C76.7855 104.27 74.8863 101.983 73.7313 102.455C71.0937 103.565 75.4416 116.742 73.5259 117.548L73.4648 117.575C73.1565 117.703 72.8217 117.752 72.4897 117.72C72.1577 117.689 71.8385 117.576 71.5601 117.392C70.8715 117.003 70.3051 116.443 69.5444 116.765C68.1284 117.364 68.9558 122.529 67.4009 123.184C65.8461 123.839 64.9077 122.89 63.1529 123.628C61.6703 124.256 60.7874 127.848 60.7874 127.848L61.6758 129.953L112.824 108.43" fill="#757575"/>
<path d="M109.343 100.211C109.343 100.211 109.087 99.9003 108.709 99.5282C108.049 98.8896 106.999 98.0789 106.2 98.4176C105.4 98.7564 105.35 100.039 105.367 101.427C105.367 103.093 105.533 104.926 104.684 105.281C103.962 105.587 103.318 105.131 102.651 104.631C101.89 104.076 101.113 103.443 100.175 103.837C98.5975 104.504 99.064 106.558 98.5087 108.319C98.3578 108.825 98.0911 109.289 97.7297 109.675C97.3683 110.06 96.922 110.357 96.4263 110.54C95.0658 111.095 93.6832 110.54 92.3782 109.662C90.157 108.163 88.2024 105.731 86.9252 106.27C84.8872 107.13 87.1306 112.639 84.9428 113.561C83.7211 114.077 81.189 110.229 78.729 106.897C76.7855 104.27 74.8863 101.983 73.7313 102.455C71.0937 103.565 75.4416 116.742 73.5259 117.548L73.4648 117.575C73.1565 117.703 72.8217 117.752 72.4897 117.72C72.1577 117.689 71.8385 117.576 71.5601 117.392C70.8715 117.003 70.3051 116.443 69.5444 116.765C68.1284 117.364 68.9558 122.529 67.4009 123.184C65.8461 123.839 64.9077 122.89 63.1529 123.628C61.6703 124.256 60.7874 127.848 60.7874 127.848L61.6758 129.953L112.824 108.43" stroke="#263238" stroke-linecap="round" stroke-linejoin="round"/>
</g>
<path id="Vector_155" d="M98.5143 117.775L80.7448 125.261C80.5843 125.328 80.4572 125.457 80.3916 125.619C80.326 125.78 80.3272 125.961 80.395 126.121C80.4627 126.282 80.5914 126.409 80.7529 126.475C80.9143 126.54 81.0951 126.539 81.2557 126.471L99.0252 118.986C99.1857 118.918 99.3127 118.789 99.3784 118.628C99.444 118.467 99.4428 118.286 99.375 118.125C99.3073 117.965 99.1785 117.838 99.0171 117.772C98.8557 117.706 98.6748 117.708 98.5143 117.775Z" fill="#263238"/>
<path id="Vector_156" d="M112.602 88.3063L110.888 89.0278C110.71 89.1027 110.626 89.3078 110.701 89.4859L111.422 91.2006C111.497 91.3786 111.702 91.4623 111.88 91.3873L113.595 90.6658C113.773 90.5909 113.857 90.3858 113.782 90.2077L113.06 88.4931C112.985 88.315 112.78 88.2314 112.602 88.3063Z" fill="#BFBFBF" stroke="#263238" stroke-miterlimit="10"/>
<path id="Vector_157" d="M121.904 85.3959L114.796 88.3889C114.723 88.417 114.642 88.416 114.569 88.386C114.497 88.3561 114.439 88.2995 114.407 88.2279C114.377 88.1564 114.377 88.0761 114.406 88.0044C114.435 87.9327 114.491 87.8753 114.562 87.8448L121.676 84.8517C121.747 84.822 121.828 84.8217 121.899 84.8508C121.971 84.8799 122.028 84.9361 122.059 85.0072C122.075 85.0429 122.083 85.0813 122.083 85.1203C122.084 85.1592 122.077 85.1979 122.062 85.234C122.048 85.2702 122.026 85.3031 121.999 85.3309C121.972 85.3587 121.939 85.3808 121.904 85.3959Z" fill="#263238"/>
<path id="Vector_158" d="M120.232 87.4894L115.29 89.5662C115.218 89.5959 115.138 89.5962 115.066 89.5671C114.995 89.538 114.937 89.4818 114.907 89.4107C114.891 89.375 114.883 89.3366 114.882 89.2977C114.882 89.2587 114.889 89.2201 114.903 89.1839C114.918 89.1478 114.939 89.1148 114.967 89.087C114.994 89.0593 115.026 89.0371 115.062 89.022L120.004 86.9452C120.076 86.9155 120.156 86.9152 120.228 86.9443C120.3 86.9734 120.357 87.0296 120.388 87.1007C120.417 87.173 120.418 87.2541 120.389 87.3267C120.36 87.3993 120.304 87.4577 120.232 87.4894Z" fill="#263238"/>
<path id="Vector_159" d="M114.828 93.5926L113.113 94.314C112.935 94.389 112.852 94.5941 112.927 94.7722L113.648 96.4868C113.723 96.6649 113.928 96.7485 114.106 96.6736L115.821 95.9521C115.999 95.8772 116.083 95.6721 116.008 95.494L115.286 93.7793C115.211 93.6012 115.006 93.5176 114.828 93.5926Z" fill="#757575" stroke="#263238" stroke-linecap="round" stroke-linejoin="round"/>
<path id="Vector_160" d="M124.125 90.6824L117.017 93.6699C116.98 93.6848 116.941 93.6925 116.902 93.6923C116.863 93.6922 116.824 93.6843 116.787 93.6691C116.751 93.6539 116.718 93.6316 116.69 93.6037C116.662 93.5757 116.64 93.5425 116.625 93.5061C116.611 93.4696 116.603 93.4306 116.603 93.3912C116.603 93.3518 116.611 93.3128 116.626 93.2764C116.641 93.2401 116.664 93.2071 116.692 93.1793C116.72 93.1515 116.753 93.1296 116.789 93.1146L123.897 90.1216C123.934 90.1066 123.973 90.099 124.012 90.0991C124.051 90.0993 124.09 90.1072 124.127 90.1224C124.163 90.1376 124.196 90.1598 124.224 90.1878C124.252 90.2157 124.274 90.2489 124.289 90.2854C124.304 90.3218 124.311 90.3609 124.311 90.4003C124.311 90.4397 124.303 90.4787 124.288 90.515C124.273 90.5514 124.25 90.5844 124.222 90.6121C124.194 90.6399 124.161 90.6619 124.125 90.6768V90.6824Z" fill="#263238"/>
<path id="Vector_161" d="M122.453 92.7703L117.517 94.8527C117.443 94.8836 117.36 94.884 117.286 94.8538C117.212 94.8236 117.153 94.7653 117.122 94.6916C117.091 94.618 117.091 94.5351 117.121 94.4611C117.151 94.3872 117.21 94.3283 117.283 94.2974L122.226 92.2206C122.262 92.2056 122.301 92.198 122.34 92.1981C122.38 92.1983 122.419 92.2062 122.455 92.2214C122.492 92.2366 122.525 92.2588 122.552 92.2868C122.58 92.3147 122.602 92.3479 122.617 92.3844C122.632 92.4208 122.64 92.4599 122.639 92.4993C122.639 92.5387 122.631 92.5777 122.616 92.614C122.601 92.6504 122.579 92.6834 122.551 92.7111C122.523 92.7389 122.49 92.7609 122.453 92.7758V92.7703Z" fill="#263238"/>
<path id="Vector_162" d="M133.476 112.472L75.725 136.772C75.5645 136.84 75.4374 136.968 75.3718 137.13C75.3062 137.291 75.3074 137.472 75.3752 137.633C75.4429 137.793 75.5717 137.92 75.7331 137.986C75.8945 138.052 76.0754 138.05 76.2359 137.983L133.987 113.677C134.07 113.647 134.147 113.6 134.211 113.539C134.276 113.478 134.328 113.404 134.363 113.323C134.398 113.241 134.417 113.153 134.417 113.065C134.418 112.976 134.4 112.888 134.365 112.806C134.331 112.724 134.28 112.65 134.215 112.589C134.151 112.527 134.075 112.48 133.992 112.448C133.909 112.417 133.82 112.403 133.732 112.407C133.643 112.411 133.556 112.433 133.476 112.472Z" fill="#263238"/>
<path id="Vector_163" d="M135.308 116.82L68.1562 145.079C68.0728 145.11 67.9964 145.157 67.9317 145.218C67.8671 145.279 67.8155 145.352 67.7801 145.434C67.7447 145.515 67.7262 145.603 67.7258 145.692C67.7254 145.781 67.7431 145.869 67.7778 145.95C67.8125 146.032 67.8634 146.106 67.9276 146.168C67.9917 146.229 68.0676 146.277 68.1508 146.308C68.234 146.339 68.3227 146.353 68.4114 146.349C68.5002 146.345 68.5872 146.323 68.6671 146.284L135.814 118.025C135.899 117.997 135.978 117.951 136.045 117.891C136.112 117.83 136.166 117.757 136.204 117.674C136.241 117.592 136.261 117.503 136.262 117.413C136.264 117.323 136.246 117.233 136.211 117.15C136.177 117.067 136.125 116.992 136.059 116.929C135.994 116.867 135.917 116.819 135.832 116.788C135.747 116.757 135.657 116.744 135.567 116.749C135.477 116.755 135.389 116.779 135.308 116.82Z" fill="#263238"/>
<path id="Vector_164" d="M137.135 121.168L69.9887 149.427C69.9053 149.458 69.8289 149.505 69.7642 149.566C69.6996 149.627 69.648 149.7 69.6126 149.782C69.5772 149.863 69.5587 149.951 69.5584 150.04C69.558 150.129 69.5756 150.217 69.6103 150.298C69.645 150.38 69.696 150.454 69.7601 150.516C69.8242 150.577 69.9002 150.625 69.9833 150.656C70.0665 150.687 70.1552 150.701 70.2439 150.697C70.3327 150.693 70.4197 150.671 70.4996 150.632L137.635 122.373C137.718 122.343 137.795 122.295 137.86 122.235C137.924 122.174 137.976 122.1 138.011 122.019C138.047 121.937 138.065 121.849 138.065 121.761C138.066 121.672 138.048 121.584 138.013 121.502C137.979 121.42 137.928 121.346 137.864 121.285C137.8 121.223 137.724 121.175 137.64 121.144C137.557 121.113 137.469 121.099 137.38 121.103C137.291 121.107 137.204 121.129 137.124 121.168H137.135Z" fill="#263238"/>
<path id="Vector_165" d="M138.968 125.516L71.8211 153.753C71.7355 153.782 71.6566 153.827 71.5895 153.888C71.5223 153.948 71.4684 154.022 71.431 154.104C71.3937 154.186 71.3737 154.275 71.3724 154.365C71.3711 154.456 71.3884 154.545 71.4233 154.628C71.4582 154.712 71.5099 154.787 71.5753 154.849C71.6406 154.911 71.7181 154.96 71.8029 154.99C71.8877 155.021 71.9779 155.035 72.068 155.029C72.1581 155.023 72.2461 154.999 72.3265 154.958L139.473 126.699C139.559 126.671 139.638 126.625 139.705 126.564C139.772 126.504 139.826 126.43 139.863 126.348C139.9 126.266 139.92 126.177 139.922 126.087C139.923 125.997 139.906 125.907 139.871 125.824C139.836 125.74 139.784 125.665 139.719 125.603C139.654 125.541 139.576 125.493 139.491 125.462C139.406 125.431 139.316 125.418 139.226 125.423C139.136 125.429 139.048 125.453 138.968 125.494V125.516Z" fill="#263238"/>
<path id="Vector_166" d="M112.591 141.731L73.6482 158.123C73.5647 158.154 73.4883 158.201 73.4237 158.262C73.359 158.323 73.3074 158.396 73.272 158.478C73.2366 158.559 73.2182 158.647 73.2178 158.736C73.2174 158.825 73.2351 158.913 73.2698 158.994C73.3044 159.076 73.3554 159.15 73.4195 159.212C73.4836 159.273 73.5596 159.321 73.6428 159.352C73.7259 159.383 73.8146 159.397 73.9034 159.393C73.9921 159.389 74.0791 159.367 74.159 159.328L113.102 142.941C113.182 142.908 113.254 142.859 113.314 142.798C113.375 142.736 113.423 142.663 113.455 142.584C113.488 142.504 113.504 142.418 113.504 142.332C113.503 142.246 113.485 142.16 113.452 142.081C113.418 142.001 113.369 141.929 113.308 141.869C113.247 141.808 113.174 141.76 113.094 141.728C113.014 141.695 112.928 141.679 112.842 141.679C112.756 141.68 112.671 141.697 112.591 141.731Z" fill="#263238"/>
<g id="Vector_167">
<path d="M91.1455 56.9647C91.1455 56.9647 91.8952 62.862 89.7017 63.7838C87.6971 64.6278 85.0539 61.4682 82.755 62.4344C80.456 63.4006 82.2663 71.7578 80.0451 72.6963C77.8239 73.6347 75.1418 70.1975 73.2261 71.0026C71.3103 71.8078 72.4709 76.1114 70.494 76.9388C68.8614 77.6273 66.5292 74.2123 64.6634 73.4626C64.4916 73.3789 64.3046 73.3308 64.1138 73.3213C63.9229 73.3117 63.7321 73.3409 63.5528 73.4071C61.5981 74.2289 62.5699 83.2025 60.8818 83.9133C60.4101 84.1179 59.8948 84.2018 59.3825 84.1576C58.7538 84.0442 58.1166 83.9848 57.4778 83.9799C57.2329 84.0042 56.9932 84.066 56.7671 84.1632C55.3288 84.7684 55.5232 89.494 54.2071 90.0438C52.8911 90.5935 51.5917 89.9161 50.1868 90.5047C48.7819 91.0933 48.8041 93.5532 46.7051 94.4362L47.5936 96.5407L98.7642 75.0174" fill="#BFBFBF"/>
<path d="M91.1455 56.9647C91.1455 56.9647 91.8952 62.862 89.7017 63.7838C87.6971 64.6278 85.0539 61.4682 82.755 62.4344C80.456 63.4006 82.2663 71.7578 80.0451 72.6963C77.8239 73.6347 75.1418 70.1975 73.2261 71.0026C71.3103 71.8078 72.4709 76.1114 70.494 76.9388C68.8614 77.6273 66.5292 74.2123 64.6634 73.4626C64.4916 73.3789 64.3046 73.3308 64.1138 73.3213C63.9229 73.3117 63.7321 73.3409 63.5528 73.4071C61.5981 74.2289 62.5699 83.2025 60.8818 83.9133C60.4101 84.1179 59.8948 84.2018 59.3825 84.1576C58.7538 84.0442 58.1166 83.9848 57.4778 83.9799C57.2329 84.0042 56.9932 84.066 56.7671 84.1632C55.3288 84.7684 55.5232 89.494 54.2071 90.0438C52.8911 90.5935 51.5917 89.9161 50.1868 90.5047C48.7819 91.0933 48.8041 93.5532 46.7051 94.4362L47.5936 96.5407L98.7642 75.0174" stroke="#263238" stroke-miterlimit="10"/>
</g>
<g id="Vector_168">
<path d="M94.4495 64.8221C94.4495 64.8221 94.9159 67.6764 93.7887 68.1539C92.8502 68.5482 92.2727 67.9984 91.2843 67.9651C90.8016 67.9504 90.3217 68.0434 89.8794 68.2372C88.9742 68.6148 88.7688 69.8365 88.5966 71.147C88.3967 72.7629 88.2968 74.5176 87.114 75.0341C86.2866 75.3839 85.3926 75.1784 84.4708 74.8564C82.9992 74.3455 81.4555 73.5347 79.9618 74.1622C79.2399 74.4676 78.7345 75.2728 78.3403 76.2224C77.4129 78.5158 77.1242 81.8364 76.1191 82.2585C74.692 82.8637 72.0765 80.4093 70.8105 80.9424C69.5444 81.4755 70.0608 83.6745 69.0335 84.1076C68.0062 84.5407 67.4176 83.2636 65.6073 84.0243C63.7971 84.7851 64.68 87.4616 62.1256 88.5389C59.5712 89.6162 58.4495 87.6337 55.984 88.6722C53.5185 89.7106 53.9627 91.5875 52.2191 92.3204C50.4755 93.0534 49.7425 91.7652 48.4986 92.3204C47.2548 92.8757 46.9549 94.8137 46.9382 94.9359L47.6212 96.5574L98.7641 75.0174" fill="#525ECC"/>
<path d="M94.4495 64.8221C94.4495 64.8221 94.9159 67.6764 93.7886 68.1539C92.8502 68.5482 92.2727 67.9984 91.2843 67.9651C90.8016 67.9504 90.3217 68.0434 89.8794 68.2372C88.9742 68.6148 88.7688 69.8365 88.5966 71.147C88.3967 72.7629 88.2968 74.5176 87.114 75.0341C86.2866 75.3839 85.3926 75.1784 84.4708 74.8564C82.9992 74.3455 81.4555 73.5348 79.9618 74.1622C79.2399 74.4676 78.7345 75.2728 78.3403 76.2224C77.4129 78.5158 77.1242 81.8364 76.1191 82.2585C74.692 82.8637 72.0765 80.4093 70.8105 80.9424C69.5444 81.4755 70.0608 83.6745 69.0335 84.1076C68.0062 84.5407 67.4176 83.2636 65.6073 84.0243C63.7971 84.7851 64.68 87.4616 62.1256 88.5389C59.5712 89.6162 58.4495 87.6337 55.984 88.6722C53.5185 89.7106 53.9627 91.5875 52.2191 92.3204C50.4755 93.0534 49.7425 91.7652 48.4986 92.3204C47.2548 92.8757 46.9549 94.8137 46.9382 94.9359L47.6212 96.5574L98.7641 75.0174" stroke="#263238" stroke-miterlimit="10"/>
</g>
<path id="Vector_169" d="M37.2373 71.9355L47.5936 96.5408L101.141 74.0013" stroke="#263238" stroke-linecap="round" stroke-linejoin="round"/>
<path id="Vector_170" d="M84.2709 83.93L66.5014 91.4154C66.3408 91.4824 66.2135 91.6104 66.1474 91.7713C66.0813 91.9322 66.0818 92.1128 66.1488 92.2733C66.2158 92.4339 66.3438 92.5612 66.5047 92.6273C66.6656 92.6935 66.8462 92.693 67.0067 92.6259L84.7762 85.1405C84.8557 85.107 84.9278 85.0581 84.9884 84.9967C85.049 84.9353 85.0969 84.8626 85.1294 84.7826C85.1619 84.7027 85.1783 84.6172 85.1777 84.5309C85.1771 84.4446 85.1596 84.3593 85.126 84.2798C85.0925 84.2003 85.0436 84.1282 84.9822 84.0676C84.9208 84.007 84.8481 83.9591 84.7681 83.9266C84.6882 83.8942 84.6027 83.8777 84.5164 83.8783C84.4301 83.8789 84.3448 83.8964 84.2653 83.93H84.2709Z" fill="#263238"/>
<path id="Vector_171" d="M97.6191 52.7073L95.9045 53.4288C95.7264 53.5037 95.6428 53.7088 95.7177 53.8869L96.4392 55.6015C96.5141 55.7796 96.7192 55.8633 96.8973 55.7883L98.612 55.0668C98.79 54.9919 98.8737 54.7868 98.7987 54.6087L98.0773 52.8941C98.0023 52.716 97.7972 52.6324 97.6191 52.7073Z" fill="#BFBFBF" stroke="#263238" stroke-miterlimit="10"/>
<path id="Vector_172" d="M106.921 49.7958L99.8137 52.7889C99.7406 52.817 99.6595 52.816 99.5872 52.786C99.5149 52.756 99.4568 52.6994 99.425 52.6279C99.3956 52.5557 99.3961 52.4748 99.4263 52.403C99.4565 52.3312 99.5139 52.2742 99.586 52.2447L106.694 49.2516C106.766 49.2223 106.847 49.2228 106.919 49.253C106.991 49.2832 107.047 49.3406 107.077 49.4127C107.092 49.448 107.101 49.486 107.101 49.5246C107.102 49.5631 107.095 49.6013 107.08 49.637C107.066 49.6727 107.044 49.7052 107.017 49.7325C106.99 49.7597 106.957 49.7813 106.921 49.7958Z" fill="#263238"/>
<path id="Vector_173" d="M105.25 51.8894L100.308 53.9662C100.234 53.9964 100.152 53.9961 100.078 53.9653C100.005 53.9346 99.9467 53.876 99.9165 53.8024C99.8863 53.7287 99.8866 53.6461 99.9173 53.5727C99.948 53.4993 100.007 53.4411 100.08 53.4109L105.022 51.3285C105.094 51.2988 105.174 51.2985 105.246 51.3276C105.318 51.3567 105.375 51.4129 105.406 51.484C105.423 51.5207 105.433 51.5605 105.434 51.6011C105.436 51.6416 105.429 51.6821 105.415 51.72C105.4 51.7579 105.378 51.7924 105.35 51.8216C105.321 51.8507 105.288 51.8737 105.25 51.8894Z" fill="#263238"/>
<path id="Vector_174" d="M99.8503 57.9934L98.1357 58.7149C97.9576 58.7898 97.874 58.995 97.9489 59.173L98.6704 60.8877C98.7453 61.0658 98.9504 61.1494 99.1285 61.0745L100.843 60.353C101.021 60.278 101.105 60.0729 101.03 59.8948L100.308 58.1802C100.234 58.0021 100.028 57.9185 99.8503 57.9934Z" fill="#525ECC" stroke="#263238" stroke-miterlimit="10"/>
<path id="Vector_175" d="M109.143 55.0822L102.035 58.0753C101.963 58.1046 101.882 58.1042 101.81 58.074C101.738 58.0438 101.681 57.9864 101.652 57.9143C101.636 57.879 101.628 57.8409 101.627 57.8024C101.627 57.7639 101.634 57.7256 101.649 57.6899C101.663 57.6542 101.685 57.6217 101.712 57.5945C101.739 57.5672 101.771 57.5457 101.807 57.5311L108.915 54.5381C108.951 54.5231 108.99 54.5155 109.03 54.5156C109.069 54.5158 109.108 54.5237 109.145 54.5389C109.181 54.5541 109.214 54.5763 109.242 54.6043C109.27 54.6322 109.291 54.6654 109.306 54.7019C109.321 54.7383 109.329 54.7774 109.329 54.8168C109.329 54.8562 109.321 54.8952 109.306 54.9315C109.29 54.9679 109.268 55.0009 109.24 55.0287C109.212 55.0564 109.179 55.0784 109.143 55.0934V55.0822Z" fill="#263238"/>
<path id="Vector_176" d="M107.471 57.1757L102.535 59.2526C102.461 59.2835 102.378 59.2839 102.304 59.2537C102.23 59.2235 102.171 59.1652 102.14 59.0915C102.11 59.0179 102.109 58.935 102.139 58.861C102.17 58.7871 102.228 58.7282 102.301 58.6973L107.244 56.6205C107.28 56.6055 107.319 56.5979 107.359 56.598C107.398 56.5982 107.437 56.6061 107.473 56.6213C107.51 56.6365 107.543 56.6587 107.57 56.6867C107.598 56.7146 107.62 56.7478 107.635 56.7843C107.65 56.8207 107.658 56.8598 107.658 56.8992C107.657 56.9386 107.649 56.9776 107.634 57.0139C107.619 57.0503 107.597 57.0833 107.569 57.111C107.541 57.1388 107.508 57.1608 107.471 57.1757Z" fill="#263238"/>
<path id="Vector_177" opacity="0.2" d="M77.5575 167.23L69.8556 170.473L55.3401 135.984C56.6367 134.697 57.4871 133.029 57.7667 131.225C58.633 126.605 58.0222 111.75 69.589 110.218C81.1559 108.685 71.3993 134.695 71.9324 139.649C72.421 144.169 79.0124 157.29 77.5575 167.23Z" fill="black" fill-opacity="0.7"/>
</g>
</g>
</g>
<path id="Vector_178" d="M152.278 135.784L77.5575 167.23L69.8556 170.473L55.3401 135.984L21.6335 55.893L104.056 21.2036L152.278 135.784Z" stroke="#263238" stroke-linecap="round" stroke-linejoin="round"/>
<path id="Vector_179" d="M72.904 141.536C74.2034 137.094 79.2677 122.867 78.6014 116.576C78.5471 116.052 78.4278 115.537 78.246 115.043C76.469 110.345 69.2057 110.801 66.4126 114.693C63.3529 118.975 60.8596 126.682 60.6375 131.352C60.4411 133.695 59.6789 135.955 58.4163 137.938C57.9801 138.671 57.4881 139.369 56.9448 140.026L40.3858 100.739C38.7129 102.132 37.2519 103.761 36.0489 105.575C35.3726 106.587 34.9358 107.74 34.7718 108.946C34.433 112.822 30.0462 128.765 28.2415 135.428C28.2026 135.573 28.1637 135.711 28.1304 135.845C26.3757 142.297 31.0068 166.264 29.6797 173.227C28.3525 180.191 27.5362 180.03 27.3419 184.977C27.2031 188.587 22.0388 199.559 16.2359 210.826C12.9042 217.285 9.39468 223.826 6.49048 229.151L48.8708 227.391C49.6037 222.243 50.359 216.807 51.0475 211.543C51.3468 209.353 51.7695 207.182 52.3136 205.04C53.2465 201.264 54.3849 197.849 55.0901 195.85C55.9906 192.914 56.7321 189.931 57.3113 186.915C62.2423 181.696 68.706 173.494 70.5773 167.941V167.902C71.0356 166.761 71.1813 165.519 70.9993 164.304C70.7928 163.306 70.6794 162.291 70.6606 161.272C70.444 155.241 71.8156 145.229 72.904 141.536Z" fill="white"/>
<path id="Vector_180" opacity="0.4" d="M58.4273 137.977C57.1113 140.615 55.5287 143.175 54.5402 146.129C53.5518 149.083 52.4468 149.505 49.4815 151.821C46.5162 154.136 44.3505 150.321 44.3505 150.321C44.3505 150.321 48.2765 146.245 46.9715 143.974C45.6666 141.703 40.78 136.056 41.0687 132.94C41.3575 129.825 38.109 122.84 38.109 122.84C38.109 122.84 45.5111 118.492 44.0729 113.4C43.2899 110.623 39.4139 107.663 36.071 105.559C37.274 103.744 38.735 102.115 40.4079 100.722L56.978 140.048C57.513 139.396 57.9975 138.703 58.4273 137.977Z" fill="#525ECC"/>
<path id="Vector_181" opacity="0.4" d="M31.5732 162.082C31.6731 162.416 34.0831 170.373 32.0507 173.688C30.0183 177.003 27.9304 181.401 28.9244 185.905C29.7129 189.503 23.0493 202.497 16.2581 210.838C22.0443 199.571 27.2085 188.598 27.364 184.988C27.5584 180.041 28.3746 180.191 29.7018 173.238C31.029 166.286 26.37 142.308 28.1525 135.856C28.1858 135.723 28.2247 135.584 28.2636 135.439C29.5574 142.753 32.5671 157.318 33.3945 161.999C34.4107 167.974 31.662 162.332 31.5732 162.082Z" fill="#525ECC"/>
<path id="Vector_182" opacity="0.4" d="M46.8105 210.116C51.736 188.909 68.3116 172.65 70.555 167.941C68.6837 173.494 62.2256 181.696 57.289 186.915C56.7098 189.931 55.9684 192.914 55.0678 195.85C54.3737 197.849 53.2353 201.264 52.2913 205.04C47.4991 210.721 46.8105 210.116 46.8105 210.116Z" fill="#525ECC"/>
<path id="Vector_183" opacity="0.4" d="M72.9041 141.537C71.7935 145.229 70.4441 155.241 70.6551 161.255C69.7833 157.479 68.1063 152.681 67.8286 146.001C67.3566 134.673 73.7759 138.76 71.5547 133.157C69.3335 127.554 62.9365 134.729 66.0795 122.917C68.3728 114.294 74.9087 114.371 78.2627 115.043C78.4445 115.537 78.5639 116.052 78.6181 116.576C79.2678 122.867 74.2035 137.094 72.9041 141.537Z" fill="#525ECC"/>
<path id="Vector_184" d="M12.9375 217.462C18.2461 207.75 23.416 197.76 27.1309 186.988C27.5751 185.438 26.981 183.417 27.4308 181.868C32.4617 167.88 26.7533 153.314 27.6917 138.982C28.4858 133.335 30.2905 127.654 32.1286 121.951C32.9782 117.836 33.2947 113.227 34.6552 109.085C36.0545 105.964 37.4317 102.338 40.4136 100.755C46.0776 113.733 51.7195 126.771 56.9837 140.082C59.3659 138.704 59.7602 135.639 60.1489 133.057C61.426 126.877 62.7199 121.213 65.0577 116.01C67.4344 111.828 73.4871 110.046 77.202 113.461C78.2672 114.528 78.8764 115.968 78.9012 117.475C78.1793 124.65 75.9248 131.913 73.6537 138.621C72.7597 141.72 71.849 144.313 71.4658 147.389C71.5047 148.411 71.5269 148.916 71.5713 149.938C70.2553 155.097 71.4658 159.639 71.166 164.759C70.0165 173.994 62.6255 180.424 57.2835 187.282C55.9619 192.441 54.6459 197.599 52.8411 202.78C50.62 210.554 49.9092 218.217 49.1484 225.686" stroke="#263238" stroke-linecap="round" stroke-linejoin="round"/>
<path id="Vector_185" d="M56.9614 140.065C55.9562 142.004 55.1381 144.034 54.5181 146.129C53.824 148.85 50.309 148.461 48.4932 150.149" stroke="#263238" stroke-linecap="round" stroke-linejoin="round"/>
<path id="Vector_186" d="M43.7009 135.273C43.7009 135.273 48.482 136.939 51.2696 139.132C54.0572 141.325 56.1118 141.836 56.1118 141.836" stroke="#263238" stroke-linecap="round" stroke-linejoin="round"/>
<path id="Vector_187" d="M40.6523 123.417C40.6523 123.417 44.5394 124.5 47.3714 123.14C47.5007 121.754 47.744 120.381 48.0989 119.036" stroke="#263238" stroke-linecap="round" stroke-linejoin="round"/>
<path id="Vector_188" d="M48.2932 123.7C48.2932 123.7 48.3321 124.256 50.2978 124.256" stroke="#263238" stroke-linecap="round" stroke-linejoin="round"/>
<path id="Vector_189" d="M57.2889 186.915C54.5947 189.635 52.5254 192.91 51.2251 196.511" stroke="#263238" stroke-linecap="round" stroke-linejoin="round"/>
<path id="Vector_190" d="M27.886 137.05C27.7083 140.381 31.6176 152.198 32.8004 158.073C33.9832 163.948 34.4329 168.102 34.4329 168.102" stroke="#263238" stroke-linecap="round" stroke-linejoin="round"/>
</g>
</g>
</svg>
