<svg width="199" height="129" viewBox="0 0 199 129" fill="none" xmlns="http://www.w3.org/2000/svg">
<g id="software-integration/bro">
<g id="Plant">
<path id="Vector" d="M163.561 75.509C164.61 75.9646 167.169 75.9083 167.172 75.9083C167.175 75.9083 166.609 74.2209 166.573 74.1309C166.01 72.9553 164.233 71.0148 162.787 71.2088C162.548 71.2482 162.32 71.3375 162.117 71.4708C161.915 71.6042 161.743 71.7786 161.612 71.9828C161.481 72.187 161.395 72.4164 161.358 72.6562C161.322 72.8959 161.337 73.1406 161.401 73.3744C161.643 74.3756 162.669 75.118 163.561 75.509Z" fill="#263238"/>
<path id="Vector_2" d="M164.447 82.9252C165.532 83.0855 167.822 82.4218 167.999 82.3627C168.375 83.6709 168.838 84.9524 169.385 86.1988C169.697 86.9244 170.038 87.65 170.386 88.37C170.178 88.0634 169.99 87.7934 169.959 87.7569C169.115 86.7725 166.882 85.3692 165.538 85.9401C165.318 86.041 165.121 86.1871 164.961 86.369C164.801 86.5509 164.681 86.7644 164.609 86.9957C164.537 87.227 164.514 87.4709 164.542 87.7116C164.57 87.9522 164.649 88.1842 164.773 88.3925C165.268 89.2952 166.46 89.7424 167.419 89.883C168.378 90.0236 170.356 89.4977 170.873 89.3515C171.011 89.6327 171.154 89.914 171.284 90.1783C171.944 91.4973 172.611 92.8079 173.224 94.1156C173.441 94.5769 173.638 95.0381 173.834 95.4993C173.649 95.2181 173.491 95.0015 173.463 94.9678C172.619 93.9835 170.384 92.5801 169.042 93.151C168.822 93.2519 168.625 93.3981 168.465 93.5799C168.305 93.7618 168.185 93.9754 168.113 94.2067C168.041 94.438 168.018 94.6819 168.046 94.9225C168.075 95.1631 168.153 95.3951 168.277 95.6034C168.772 96.5062 169.965 96.9533 170.924 97.0939C171.883 97.2346 173.668 96.7593 174.298 96.5877C174.487 97.0658 174.675 97.5467 174.838 98.0164C174.94 98.3426 175.063 98.6492 175.148 98.9782C175.232 99.3073 175.328 99.6307 175.429 99.9513C175.578 100.573 175.738 101.217 175.868 101.827C175.961 102.252 176.042 102.671 176.126 103.067C175.916 102.606 175.485 101.715 175.443 101.644C174.748 100.539 172.76 98.832 171.345 99.1779C171.112 99.2442 170.896 99.3589 170.71 99.5145C170.524 99.6701 170.373 99.8632 170.267 100.081C170.161 100.299 170.102 100.537 170.094 100.779C170.086 101.021 170.129 101.262 170.221 101.487C170.572 102.452 171.68 103.073 172.608 103.357C173.635 103.672 175.901 103.385 176.186 103.357C176.321 104.035 176.447 104.693 176.557 105.326C176.799 106.704 176.981 107.941 177.119 108.982H178.075C177.91 107.899 177.69 106.608 177.403 105.16C177.268 104.471 177.108 103.74 176.939 102.989C177.621 102.714 178.287 102.4 178.933 102.049C179.681 102.856 181.594 103.804 181.841 103.925C181.582 104.564 181.324 105.185 181.068 105.767C180.539 106.985 180.036 108.065 179.594 108.982H180.626C181.009 108.138 181.428 107.171 181.864 106.102C182.131 105.455 182.404 104.755 182.677 104.035C182.958 104.091 185.208 104.547 186.243 104.316C187.193 104.102 188.343 103.565 188.774 102.629C188.881 102.411 188.941 102.174 188.951 101.931C188.96 101.689 188.919 101.448 188.829 101.223C188.739 100.997 188.603 100.794 188.429 100.625C188.255 100.455 188.048 100.325 187.82 100.241C186.437 99.777 184.327 101.346 183.554 102.395C183.506 102.457 183.087 103.183 182.828 103.647C182.938 103.366 183.051 103.067 183.16 102.761C183.38 102.159 183.582 101.554 183.801 100.902L184.083 99.9344C184.187 99.6138 184.254 99.2623 184.344 98.9248C184.53 98.1345 184.682 97.3246 184.82 96.5062C185.345 96.7002 187.227 97.3499 188.194 97.2852C189.162 97.2205 190.382 96.8605 190.945 95.9971C191.084 95.7987 191.18 95.5732 191.226 95.3353C191.272 95.0975 191.268 94.8525 191.213 94.6164C191.159 94.3804 191.055 94.1584 190.909 93.9651C190.763 93.7717 190.578 93.6112 190.366 93.4941C189.069 92.8248 186.743 94.0566 185.821 94.9762C185.762 95.0353 185.174 95.7693 184.859 96.1771C184.935 95.6849 185.016 95.1928 185.078 94.6922C185.258 93.2466 185.393 91.7757 185.537 90.3105C185.579 89.8605 185.629 89.4133 185.677 88.9662C185.863 89.0365 188.085 89.8633 189.176 89.7874C190.146 89.7199 191.364 89.3627 191.926 88.4993C192.065 88.3007 192.161 88.0751 192.207 87.8371C192.253 87.5991 192.249 87.3541 192.194 87.118C192.139 86.8819 192.035 86.66 191.888 86.4667C191.742 86.2735 191.557 86.1132 191.344 85.9963C190.048 85.327 187.725 86.5588 186.802 87.4784C186.732 87.5487 185.885 88.6034 185.677 88.8846C185.781 87.9003 185.894 86.916 186.043 85.9569C186.241 84.6558 186.523 83.3688 186.887 82.104C186.974 82.1377 189.288 83.0096 190.408 82.9308C191.378 82.8633 192.596 82.5062 193.158 81.6428C193.297 81.444 193.392 81.2184 193.438 80.9805C193.484 80.7426 193.479 80.4977 193.424 80.2617C193.369 80.0257 193.265 79.8039 193.119 79.6107C192.973 79.4174 192.788 79.2569 192.576 79.1398C191.28 78.4704 188.957 79.7022 188.031 80.6219C187.961 80.695 187.05 81.834 186.906 82.0506C186.929 81.9774 186.943 81.8987 186.965 81.8284C187.364 80.567 187.875 79.3435 188.49 78.1723C188.822 77.5226 189.176 76.9208 189.533 76.3443C189.946 76.5496 191.85 77.4692 192.866 77.5142C193.881 77.5592 195.088 77.3342 195.74 76.5383C195.9 76.3561 196.02 76.1424 196.092 75.9109C196.164 75.6793 196.187 75.4353 196.158 75.1945C196.13 74.9537 196.051 74.7215 195.927 74.5131C195.803 74.3047 195.637 74.1247 195.439 73.9847C194.224 73.1775 191.783 74.1478 190.759 74.9606C190.703 75.0056 190.197 75.523 189.823 75.8943C189.986 75.6355 190.152 75.3655 190.315 75.1209C190.925 74.2012 191.541 73.3969 192.092 72.691C192.407 72.2916 192.703 71.9344 192.981 71.6054C193.493 71.6054 195.557 71.5351 196.46 71.1104C197.363 70.6858 198.347 69.9264 198.561 68.9168C198.619 68.6817 198.627 68.437 198.585 68.1985C198.542 67.9601 198.45 67.7334 198.313 67.533C198.177 67.3327 198 67.1633 197.795 67.0359C197.589 66.9084 197.358 66.8258 197.118 66.7934C195.667 66.6359 193.943 68.6243 193.414 69.8139C193.369 69.918 192.838 71.6082 192.852 71.6082H192.883C192.601 71.9176 192.32 72.2551 192.008 72.6319C191.445 73.3294 190.804 74.1197 190.171 75.0309C189.485 76.0034 188.855 77.0148 188.284 78.0598C187.636 79.2281 187.092 80.4516 186.659 81.7159C186.659 81.7299 186.659 81.7468 186.659 81.7637C186.659 81.3362 186.659 80.141 186.636 80.0481C186.47 78.7573 185.388 76.3583 183.951 76.0939C183.711 76.0566 183.467 76.07 183.233 76.1333C182.999 76.1966 182.781 76.3085 182.593 76.4615C182.405 76.6146 182.252 76.8054 182.143 77.0216C182.034 77.2379 181.971 77.4747 181.959 77.7167C181.878 78.7432 182.62 79.7697 183.346 80.4194C184.164 81.1506 186.439 81.8565 186.617 81.9127C186.209 83.2116 185.888 84.5364 185.658 85.8782C185.52 86.6572 185.402 87.4475 185.295 88.2406C185.295 87.8722 185.295 87.5403 185.278 87.4953C185.109 86.2044 184.026 83.8055 182.592 83.5411C182.353 83.5033 182.108 83.5164 181.874 83.5795C181.64 83.6427 181.422 83.7545 181.234 83.9076C181.046 84.0607 180.893 84.2517 180.784 84.4682C180.674 84.6847 180.612 84.9217 180.601 85.1639C180.517 86.1904 181.262 87.2169 181.987 87.8665C182.713 88.5162 184.648 89.1659 185.16 89.329C185.12 89.6355 185.081 89.9393 185.045 90.243C184.87 91.7082 184.701 93.1707 184.482 94.5994C184.409 95.1028 184.316 95.5949 184.229 96.0899C184.229 95.7609 184.229 95.4853 184.209 95.4431C184.043 94.1494 182.961 91.7532 181.526 91.4861C181.287 91.4487 181.042 91.4622 180.807 91.5257C180.573 91.5891 180.355 91.7012 180.167 91.8545C179.979 92.0078 179.825 92.1989 179.716 92.4155C179.607 92.6321 179.544 92.8693 179.532 93.1116C179.451 94.1381 180.193 95.1647 180.919 95.8143C181.644 96.464 183.394 97.0489 184.012 97.2458C183.906 97.7492 183.799 98.2526 183.675 98.7364C183.579 99.0626 183.515 99.386 183.394 99.7094C183.273 100.033 183.186 100.351 183.084 100.668C182.865 101.27 182.643 101.895 182.412 102.477C182.257 102.882 182.1 103.267 181.945 103.652C182.024 103.155 182.159 102.17 182.159 102.086C182.14 100.941 181.828 99.8197 181.253 98.8292C181.256 98.7012 181.248 98.5732 181.228 98.4467C181.198 98.2061 181.117 97.9745 180.992 97.7671C180.866 97.5597 180.698 97.381 180.499 97.2428C180.3 97.1045 180.074 97.0098 179.835 96.9648C179.597 96.9198 179.352 96.9254 179.116 96.9814C177.71 97.3583 176.813 99.8332 176.748 101.133C176.748 101.211 176.793 102.047 176.832 102.575C176.762 102.269 176.697 101.971 176.621 101.656C176.472 101.031 176.306 100.415 176.129 99.7488C176.034 99.431 175.938 99.1076 175.848 98.7842C175.758 98.4608 175.62 98.1289 175.505 97.797C175.224 97.0349 174.909 96.2755 174.568 95.519C175.114 95.3868 177.046 94.8947 177.822 94.3013C178.599 93.7078 179.411 92.7404 179.406 91.7082C179.412 91.4661 179.367 91.2254 179.274 91.0016C179.182 90.7779 179.043 90.5762 178.867 90.4096C178.691 90.2431 178.482 90.1154 178.254 90.0348C178.025 89.9543 177.783 89.9227 177.541 89.9421C176.09 90.0996 174.83 92.4085 174.568 93.6854C174.552 93.7641 174.464 94.7006 174.428 95.2181C174.22 94.7625 174.017 94.3097 173.792 93.8569C173.143 92.552 172.445 91.2498 171.756 89.9505C171.545 89.5512 171.34 89.1518 171.132 88.7524C171.326 88.7074 173.635 88.1731 174.507 87.5066C175.277 86.9132 176.098 85.9429 176.09 84.9136C176.096 84.6714 176.052 84.4307 175.959 84.2069C175.866 83.9832 175.727 83.7815 175.551 83.615C175.375 83.4484 175.166 83.3207 174.938 83.2401C174.71 83.1596 174.467 83.128 174.225 83.1474C172.774 83.3049 171.517 85.6138 171.253 86.8907C171.233 86.9863 171.112 88.3362 171.098 88.6793C170.64 87.799 170.192 86.9188 169.787 86.0329C169.234 84.8396 168.759 83.6117 168.364 82.3571C168.454 82.3346 170.865 81.7946 171.756 81.1056C172.527 80.5122 173.345 79.5419 173.339 78.5126C173.346 78.2705 173.301 78.0297 173.208 77.806C173.115 77.5823 172.977 77.3806 172.801 77.214C172.625 77.0474 172.416 76.9197 172.188 76.8392C171.959 76.7586 171.716 76.727 171.475 76.7464C170.024 76.9039 168.764 79.2129 168.502 80.4897C168.48 80.5909 168.35 82.0393 168.347 82.3037C168.322 82.2334 168.291 82.1602 168.272 82.0871C167.91 80.8171 167.662 79.5173 167.532 78.2032C167.45 77.4776 167.414 76.7802 167.394 76.1024C167.852 76.0461 169.951 75.7677 170.82 75.2418C171.689 74.7159 172.572 73.8637 172.676 72.84C172.71 72.5996 172.693 72.3548 172.626 72.1214C172.559 71.888 172.444 71.6714 172.287 71.4856C172.131 71.2998 171.937 71.1491 171.719 71.0432C171.5 70.9374 171.262 70.8788 171.019 70.8714C169.56 70.8714 168.055 73.0285 167.644 74.2659C167.622 74.3334 167.476 75.0449 167.377 75.5624C167.377 75.2559 167.36 74.9409 167.363 74.6456C167.363 73.5431 167.433 72.5335 167.504 71.6391C167.546 71.1301 167.597 70.6717 167.647 70.233C168.069 69.9517 169.756 68.7508 170.274 67.8987C170.791 67.0465 171.196 65.8682 170.817 64.9119C170.736 64.6834 170.608 64.4745 170.44 64.299C170.273 64.1234 170.071 63.985 169.847 63.8929C169.622 63.8008 169.381 63.757 169.139 63.7645C168.897 63.7719 168.658 63.8304 168.44 63.9361C167.144 64.6054 166.803 67.2125 167.017 68.4977C167.037 68.6102 167.526 70.3117 167.549 70.2976L167.574 70.2808C167.518 70.6914 167.462 71.1245 167.408 71.6167C167.321 72.511 167.228 73.5234 167.203 74.6315C167.163 75.8246 167.191 77.019 167.287 78.2088C167.39 79.5385 167.612 80.8562 167.951 82.1462C167.951 82.1602 167.951 82.1771 167.965 82.1912C167.734 81.8312 167.059 80.844 167 80.785C166.157 79.8007 163.921 78.3973 162.579 78.9682C162.359 79.0691 162.162 79.2153 162.002 79.3971C161.842 79.579 161.722 79.7926 161.65 80.0239C161.578 80.2552 161.555 80.4991 161.584 80.7397C161.612 80.9803 161.69 81.2123 161.814 81.4206C162.295 82.3402 163.482 82.7846 164.447 82.9252Z" fill="#263238"/>
<path id="Vector_3" d="M189.462 76.0715C189.485 76.0855 189.929 74.37 189.943 74.2575C190.123 72.9694 189.713 70.3708 188.399 69.7352C188.178 69.6356 187.939 69.5838 187.697 69.583C187.454 69.5823 187.214 69.6326 186.993 69.7308C186.771 69.829 186.573 69.9728 186.41 70.1529C186.248 70.3329 186.126 70.5452 186.051 70.7758C185.697 71.7432 186.144 72.9301 186.673 73.7485C187.294 74.7075 189.462 76.0715 189.462 76.0715Z" fill="#263238"/>
<path id="Vector_4" d="M186.147 122.824H172.15L170.4 107.278H187.896L186.147 122.824Z" fill="white" stroke="#263238" stroke-linecap="round" stroke-linejoin="round"/>
<path id="Vector_5" d="M170.721 110.126L170.89 111.634H187.407L187.575 110.126H170.721Z" fill="#263238"/>
<path id="Vector_6" d="M187.033 114.947L187.201 113.439H171.092L171.264 114.947H187.033Z" fill="#263238"/>
</g>
<g id="Device">
<path id="Vector_7" d="M113.267 88.3303H104.768V122.622H113.267V88.3303Z" fill="#263238" stroke="#263238" stroke-linecap="round" stroke-linejoin="round"/>
<path id="Vector_8" d="M164.812 31.7651H57.5425V96.8294H164.812V31.7651Z" fill="#263238" stroke="#263238" stroke-linecap="round" stroke-linejoin="round"/>
<path id="Vector_9" d="M162.652 31.7651H55.3828V96.8294H162.652V31.7651Z" fill="#525ECC" stroke="#263238" stroke-linecap="round" stroke-linejoin="round"/>
<path id="Vector_10" d="M158.785 34.1079H59.2471V94.484H158.785V34.1079Z" fill="white" stroke="#263238" stroke-linecap="round" stroke-linejoin="round"/>
<path id="Vector_11" d="M158.785 90.8503H59.2471V94.4867H158.785V90.8503Z" fill="white" stroke="#263238" stroke-linecap="round" stroke-linejoin="round"/>
<path id="Vector_12" d="M109.482 118.774L77.969 120.811V122.864H140.066V120.811L109.482 118.774Z" fill="#263238" stroke="#263238" stroke-linecap="round" stroke-linejoin="round"/>
<path id="Vector_13" d="M158.785 34.1079H59.2471V94.484H158.785V34.1079Z" fill="white" stroke="#263238" stroke-linecap="round" stroke-linejoin="round"/>
<path id="Vector_14" d="M156.713 37.3872H108.717V50.985H156.713V37.3872Z" fill="white" stroke="#263238" stroke-linecap="round" stroke-linejoin="round"/>
<path id="Vector_15" d="M156.522 54.2417H126.258V72.2465H156.522V54.2417Z" fill="white" stroke="#263238" stroke-linecap="round" stroke-linejoin="round"/>
<path id="Vector_16" d="M126.258 72.2464L136.793 63.8178L141.197 67.0745L150.391 59.9873L156.327 65.733V72.2464H126.258Z" fill="#263238" stroke="#263238" stroke-linecap="round" stroke-linejoin="round"/>
<path id="Vector_17" d="M133.536 58.8427C133.535 59.2592 133.411 59.6662 133.18 60.0122C132.948 60.3582 132.619 60.6278 132.234 60.7868C131.849 60.9458 131.425 60.9871 131.017 60.9055C130.608 60.8239 130.233 60.6231 129.939 60.3284C129.645 60.0337 129.444 59.6583 129.363 59.2498C129.282 58.8412 129.324 58.4179 129.484 58.0331C129.643 57.6484 129.913 57.3195 130.259 57.0882C130.606 56.8569 131.013 56.7334 131.429 56.7334C131.988 56.7341 132.524 56.9567 132.919 57.3522C133.314 57.7477 133.536 58.2837 133.536 58.8427Z" fill="#263238" stroke="#263238" stroke-linecap="round" stroke-linejoin="round"/>
<path id="Vector_18" d="M156.522 74.7354H126.258V92.7402H156.522V74.7354Z" fill="white" stroke="#263238" stroke-linecap="round" stroke-linejoin="round"/>
<path id="Vector_19" d="M126.258 92.7401L136.793 84.3114L141.197 87.5681L150.391 80.481L156.327 86.2295V92.7401H126.258Z" fill="#263238" stroke="#263238" stroke-linecap="round" stroke-linejoin="round"/>
<path id="Vector_20" d="M133.536 79.3338C133.536 79.7504 133.412 80.1576 133.181 80.5041C132.949 80.8505 132.62 81.1205 132.236 81.2799C131.851 81.4393 131.427 81.481 131.019 81.3998C130.61 81.3185 130.235 81.1179 129.94 80.8233C129.645 80.5287 129.445 80.1533 129.363 79.7447C129.282 79.3361 129.324 78.9126 129.483 78.5277C129.643 78.1428 129.913 77.8138 130.259 77.5823C130.606 77.3508 131.013 77.2273 131.429 77.2273C131.988 77.228 132.523 77.4502 132.918 77.8451C133.313 78.24 133.535 78.7753 133.536 79.3338Z" fill="#263238" stroke="#263238" stroke-linecap="round" stroke-linejoin="round"/>
<path id="Vector_21" d="M111.2 83.4707L110.021 76.2373H110.865L111.641 81.4346L112.612 76.2795H113.326L114.319 81.4627L115.078 76.2373H115.902L114.741 83.4707H114.007L112.997 78.1132L111.979 83.4707H111.2Z" fill="#263238"/>
<path id="Vector_22" d="M116.988 76.6758H124.064" stroke="#263238" stroke-miterlimit="10"/>
<path id="Vector_23" d="M116.988 78.6277H124.064" stroke="#263238" stroke-miterlimit="10"/>
<path id="Vector_24" d="M116.988 80.5796H124.064" stroke="#263238" stroke-miterlimit="10"/>
<path id="Vector_25" d="M116.988 82.5312H124.064" stroke="#263238" stroke-miterlimit="10"/>
<path id="Vector_26" d="M116.988 84.4832H124.064" stroke="#263238" stroke-miterlimit="10"/>
<path id="Vector_27" d="M116.988 86.4348H124.064" stroke="#263238" stroke-miterlimit="10"/>
<path id="Vector_28" d="M116.988 88.3867H124.064" stroke="#263238" stroke-miterlimit="10"/>
<path id="Vector_29" d="M116.988 90.3384H124.064" stroke="#263238" stroke-miterlimit="10"/>
<path id="Vector_30" d="M116.988 92.2903H124.064" stroke="#263238" stroke-miterlimit="10"/>
<path id="Vector_31" d="M112.764 54.5286C110.831 54.5258 108.941 55.0996 107.336 56.1766V34.1079H59.2444V94.484H107.336V72.4181C108.604 73.2651 110.053 73.8035 111.567 73.99C113.08 74.1765 114.616 74.006 116.052 73.4922C117.488 72.9783 118.784 72.1354 119.835 71.031C120.887 69.9265 121.665 68.5911 122.108 67.1318C122.551 65.6725 122.645 64.1298 122.385 62.6272C122.124 61.1246 121.516 59.7039 120.607 58.4788C119.699 57.2538 118.517 56.2584 117.155 55.5725C115.793 54.8865 114.289 54.529 112.764 54.5286Z" fill="#263238" stroke="#263238" stroke-linecap="round" stroke-linejoin="round"/>
<path id="Vector_32" d="M64.2502 43.324H85.8943" stroke="white" stroke-width="2" stroke-linecap="round" stroke-linejoin="round"/>
<path id="Vector_33" d="M64.2502 49.8008H75.5504" stroke="white" stroke-width="2" stroke-linecap="round" stroke-linejoin="round"/>
<path id="Vector_34" d="M64.2502 46.2375H74.7854" stroke="#525ECC" stroke-width="2" stroke-linecap="round" stroke-linejoin="round"/>
<path id="Vector_35" d="M77.083 46.2375H82.6374" stroke="#525ECC" stroke-width="2" stroke-linecap="round" stroke-linejoin="round"/>
<path id="Vector_36" d="M85.8943 46.2375H91.4487" stroke="#525ECC" stroke-width="2" stroke-linecap="round" stroke-linejoin="round"/>
<path id="Vector_37" d="M64.2502 52.5542H74.7854" stroke="white" stroke-width="2" stroke-linecap="round" stroke-linejoin="round"/>
<path id="Vector_38" d="M77.083 52.5542H82.6374" stroke="white" stroke-width="2" stroke-linecap="round" stroke-linejoin="round"/>
<path id="Vector_39" d="M85.8943 52.5542H91.4487" stroke="#525ECC" stroke-width="2" stroke-linecap="round" stroke-linejoin="round"/>
<path id="Vector_40" d="M64.2502 58.8679H74.7854" stroke="white" stroke-width="2" stroke-linecap="round" stroke-linejoin="round"/>
<path id="Vector_41" d="M77.083 58.8679H82.6374" stroke="#525ECC" stroke-width="2" stroke-linecap="round" stroke-linejoin="round"/>
<path id="Vector_42" d="M85.8943 58.8679H91.4487" stroke="white" stroke-width="2" stroke-linecap="round" stroke-linejoin="round"/>
<path id="Vector_43" d="M70.7607 61.6213H78.7732" stroke="white" stroke-width="2" stroke-linecap="round" stroke-linejoin="round"/>
<path id="Vector_44" d="M80.5227 61.6213H84.7469" stroke="white" stroke-width="2" stroke-linecap="round" stroke-linejoin="round"/>
<path id="Vector_45" d="M87.2217 61.6213H91.4487" stroke="white" stroke-width="2" stroke-linecap="round" stroke-linejoin="round"/>
<path id="Vector_46" d="M70.7607 65.0215H78.7732" stroke="white" stroke-width="2" stroke-linecap="round" stroke-linejoin="round"/>
<path id="Vector_47" d="M80.5227 65.0215H84.7469" stroke="white" stroke-width="2" stroke-linecap="round" stroke-linejoin="round"/>
<path id="Vector_48" d="M87.2217 65.0215H91.4487" stroke="white" stroke-width="2" stroke-linecap="round" stroke-linejoin="round"/>
<path id="Vector_49" d="M64.2502 68.7451H85.8943" stroke="#525ECC" stroke-width="2" stroke-linecap="round" stroke-linejoin="round"/>
<path id="Vector_50" d="M64.2502 75.2219H75.5504" stroke="white" stroke-width="2" stroke-linecap="round" stroke-linejoin="round"/>
<path id="Vector_51" d="M64.2502 71.6587H74.7854" stroke="#525ECC" stroke-width="2" stroke-linecap="round" stroke-linejoin="round"/>
<path id="Vector_52" d="M77.083 71.6587H82.6374" stroke="white" stroke-width="2" stroke-linecap="round" stroke-linejoin="round"/>
<path id="Vector_53" d="M85.8943 71.6587H91.4487" stroke="#525ECC" stroke-width="2" stroke-linecap="round" stroke-linejoin="round"/>
<path id="Vector_54" d="M64.2502 77.9753H74.7854" stroke="#525ECC" stroke-width="2" stroke-linecap="round" stroke-linejoin="round"/>
<path id="Vector_55" d="M77.083 77.9753H82.6374" stroke="#525ECC" stroke-width="2" stroke-linecap="round" stroke-linejoin="round"/>
<path id="Vector_56" d="M85.8943 77.9753H91.4487" stroke="white" stroke-width="2" stroke-linecap="round" stroke-linejoin="round"/>
<path id="Vector_57" d="M64.2502 84.2891H74.7854" stroke="white" stroke-width="2" stroke-linecap="round" stroke-linejoin="round"/>
<path id="Vector_58" d="M77.083 84.2891H82.6374" stroke="#525ECC" stroke-width="2" stroke-linecap="round" stroke-linejoin="round"/>
<path id="Vector_59" d="M85.8943 84.2891H91.4487" stroke="#525ECC" stroke-width="2" stroke-linecap="round" stroke-linejoin="round"/>
<path id="Vector_60" d="M70.7607 87.0425H78.7732" stroke="white" stroke-width="2" stroke-linecap="round" stroke-linejoin="round"/>
<path id="Vector_61" d="M80.5227 87.0425H84.7469" stroke="white" stroke-width="2" stroke-linecap="round" stroke-linejoin="round"/>
<path id="Vector_62" d="M87.2217 87.0425H91.4487" stroke="white" stroke-width="2" stroke-linecap="round" stroke-linejoin="round"/>
<path id="Vector_63" d="M70.7607 90.4424H78.7732" stroke="white" stroke-width="2" stroke-linecap="round" stroke-linejoin="round"/>
<path id="Vector_64" d="M80.5227 90.4424H84.7469" stroke="white" stroke-width="2" stroke-linecap="round" stroke-linejoin="round"/>
<path id="Vector_65" d="M87.2217 90.4424H91.4487" stroke="white" stroke-width="2" stroke-linecap="round" stroke-linejoin="round"/>
<path id="Vector_66" d="M64.8408 39.4372L66.8742 38.3882V38.6919L65.1614 39.5525L66.8742 40.4103V40.714L64.8408 39.665V39.4372Z" fill="white" stroke="white" stroke-miterlimit="10"/>
<path id="Vector_67" d="M68.0918 40.8997L69.3208 37.7217H69.602L68.3758 40.8997H68.0918Z" fill="white" stroke="white" stroke-miterlimit="10"/>
<path id="Vector_68" d="M72.8561 39.6821L70.8228 40.7255V40.4218L72.5496 39.564L70.8228 38.7034V38.3997L72.8561 39.4431V39.6821Z" fill="white" stroke="white" stroke-miterlimit="10"/>
</g>
<g id="Gears">
<path id="Vector_69" d="M93.9914 20.2598L85.4558 33.2023" stroke="#263238" stroke-miterlimit="10" stroke-dasharray="5 5"/>
<path id="Vector_70" d="M107.569 13.3583V10.4193L104.644 10.0931C104.48 9.48008 104.234 8.8918 103.913 8.34379L105.767 6.02358L103.688 3.94524L101.382 5.79297C100.836 5.47183 100.25 5.22587 99.6384 5.06175L99.3094 2.11157H96.3789L96.0527 5.04769C95.4398 5.20779 94.8514 5.44997 94.3034 5.76766L91.986 3.9143L89.9076 5.99265L91.7526 8.30161C91.4314 8.84726 91.1855 9.43378 91.0213 10.0453L88.074 10.3743V13.3133L91.0073 13.6395C91.1686 14.2519 91.4107 14.8402 91.7273 15.3888L89.8739 17.7062L91.9522 19.7845L94.2612 17.9396C94.8068 18.2607 95.3934 18.5067 96.0049 18.6708L96.3339 21.6182H99.2728L99.5991 18.6849C100.212 18.5235 100.8 18.2814 101.348 17.9649L103.666 19.8183L105.744 17.7399L103.913 15.431C104.234 14.8853 104.48 14.2988 104.644 13.6873L107.569 13.3583ZM97.816 15.3747C97.1217 15.3731 96.4435 15.1655 95.8672 14.7783C95.2909 14.3911 94.8424 13.8417 94.5783 13.1996C94.3143 12.5575 94.2467 11.8514 94.384 11.1708C94.5212 10.4903 94.8573 9.86567 95.3496 9.37611C95.842 8.88654 96.4684 8.55399 97.1498 8.42052C97.8311 8.28705 98.5367 8.35865 99.1774 8.62627C99.818 8.8939 100.365 9.34551 100.749 9.924C101.133 10.5025 101.337 11.1818 101.334 11.8761C101.331 12.8051 100.96 13.6949 100.302 14.3507C99.6444 15.0065 98.7534 15.3747 97.8245 15.3747H97.816Z" fill="#525ECC" stroke="#263238" stroke-linecap="round" stroke-linejoin="round"/>
<path id="Vector_71" d="M119.131 7.45793L118.819 5.51177L116.85 5.62145C116.677 5.2335 116.452 4.87108 116.181 4.54431L117.132 2.80345L115.526 1.656L114.201 3.13531C113.804 2.98504 113.389 2.8904 112.966 2.85407L112.421 0.936035L110.475 1.26227L110.584 3.23093C110.196 3.40438 109.833 3.62953 109.504 3.90028L107.766 2.93001L106.619 4.53587L108.098 5.8605C107.948 6.2571 107.853 6.67258 107.817 7.09513L105.882 7.65761L106.208 9.60377L108.177 9.49409C108.35 9.88258 108.576 10.2459 108.846 10.574L107.876 12.3121L109.482 13.4595L110.807 11.9802C111.203 12.1305 111.619 12.2251 112.041 12.2615L112.587 14.1795L114.547 13.8448L114.437 11.8762C114.825 11.7033 115.188 11.4781 115.514 11.2068L117.255 12.1574L118.403 10.5515L116.923 9.22691C117.074 8.83032 117.168 8.41483 117.205 7.99228L119.131 7.45793ZM112.896 9.87376C112.437 9.95022 111.965 9.88883 111.541 9.69738C111.117 9.50592 110.759 9.19298 110.513 8.79812C110.266 8.40325 110.142 7.94419 110.157 7.47895C110.171 7.01371 110.323 6.56319 110.593 6.18432C110.864 5.80545 111.24 5.51525 111.676 5.3504C112.111 5.18555 112.585 5.15344 113.039 5.25815C113.493 5.36285 113.905 5.59966 114.224 5.93865C114.543 6.27763 114.754 6.70357 114.831 7.16263C114.934 7.77868 114.787 8.41022 114.425 8.91856C114.062 9.42689 113.512 9.77044 112.896 9.87376Z" fill="#263238" stroke="#263238" stroke-miterlimit="10"/>
</g>
<g id="Chart">
<path id="Vector_72" d="M68.9165 20.3948L69.0543 21.0866" stroke="#263238" stroke-miterlimit="10"/>
<path id="Vector_73" d="M69.3132 22.3831L71.2453 32.1082" stroke="#263238" stroke-miterlimit="10" stroke-dasharray="4.7 4.7"/>
<path id="Vector_74" d="M71.3745 32.7551L71.5123 33.447" stroke="#263238" stroke-miterlimit="10"/>
<path id="Vector_75" d="M70.8966 19.1882H74.8677V4.40358H70.8966V19.1882Z" fill="#525ECC" stroke="#263238" stroke-linecap="round" stroke-linejoin="round"/>
<path id="Vector_76" d="M65.6009 19.1882H69.572V7.71375H65.6009V19.1882Z" fill="#263238" stroke="#263238" stroke-miterlimit="10"/>
<path id="Vector_77" d="M60.308 19.1882H64.2791V10.363H60.308V19.1882Z" fill="#525ECC" stroke="#263238" stroke-linecap="round" stroke-linejoin="round"/>
<path id="Vector_78" d="M55.0094 19.1882H58.9805V12.5679H55.0094V19.1882Z" fill="#263238" stroke="#263238" stroke-miterlimit="10"/>
<path id="Vector_79" d="M56.8688 11.592L56.4807 11.083L60.5418 7.99221L62.5554 8.66437L65.8797 5.08421L67.8343 5.68044L71.3807 1.61656L72.8825 2.58683L74.4405 1.48438L74.8118 2.00748L72.8993 3.36023L71.4988 2.45464L68.0452 6.41165L66.0765 5.81262L62.7439 9.40121L60.6599 8.70655L56.8688 11.592Z" fill="#263238"/>
<path id="Vector_80" d="M75.1345 3.22238L76.3888 0.5L73.4021 0.775613L75.1345 3.22238Z" fill="#263238"/>
</g>
<g id="Search">
<path id="Vector_81" d="M37.7864 19.8716L38.3714 20.2597" stroke="#263238" stroke-miterlimit="10"/>
<path id="Vector_82" d="M39.5466 21.0359L57.7736 33.0869" stroke="#263238" stroke-miterlimit="10" stroke-dasharray="5.01 5.01"/>
<path id="Vector_83" d="M58.3616 33.4751L58.9465 33.8632" stroke="#263238" stroke-miterlimit="10"/>
<path id="Vector_84" d="M18.8393 7.81226H39.2572C39.733 7.81226 40.1894 8.0013 40.5259 8.33779C40.8624 8.67429 41.0515 9.13067 41.0515 9.60655V23.57H17.0479V9.60374C17.0486 9.12884 17.2376 8.6736 17.5734 8.33779C17.9092 8.00198 18.3644 7.813 18.8393 7.81226Z" fill="white" stroke="#263238" stroke-linecap="round" stroke-linejoin="round"/>
<path id="Vector_85" d="M23.103 14.1428H34.4734" stroke="#263238" stroke-linecap="round" stroke-linejoin="round"/>
<path id="Vector_86" d="M23.103 15.9792H34.4734" stroke="#263238" stroke-linecap="round" stroke-linejoin="round"/>
<path id="Vector_87" d="M23.103 17.813H34.4734" stroke="#263238" stroke-linecap="round" stroke-linejoin="round"/>
<path id="Vector_88" d="M23.103 19.6467H34.4734" stroke="#263238" stroke-linecap="round" stroke-linejoin="round"/>
<path id="Vector_89" d="M41.0514 10.2984V9.28032C41.0514 8.89096 40.8968 8.51756 40.6215 8.24224C40.3462 7.96693 39.9727 7.81226 39.5834 7.81226H18.5131C18.3204 7.81226 18.1297 7.85025 17.9517 7.92406C17.7738 7.99787 17.6121 8.10605 17.476 8.24241C17.3399 8.37877 17.2321 8.54063 17.1586 8.71873C17.0851 8.89682 17.0475 9.08766 17.0479 9.28032V10.2984H41.0514Z" fill="#525ECC" stroke="#263238" stroke-linecap="round" stroke-linejoin="round"/>
<path id="Vector_90" d="M36.9456 9.12C36.9456 9.04646 36.9237 8.97457 36.8828 8.91347C36.8419 8.85236 36.7838 8.80478 36.7158 8.77677C36.6478 8.74875 36.573 8.74157 36.5009 8.75612C36.4288 8.77067 36.3627 8.80631 36.3109 8.85851C36.2591 8.91071 36.2239 8.97712 36.2099 9.04932C36.1959 9.12151 36.2037 9.19624 36.2322 9.26403C36.2607 9.33181 36.3087 9.38959 36.3702 9.43004C36.4316 9.47049 36.5036 9.49179 36.5772 9.49124C36.6751 9.49049 36.7688 9.45105 36.8379 9.38151C36.9069 9.31198 36.9456 9.21797 36.9456 9.12Z" fill="#263238" stroke="#263238" stroke-linecap="round" stroke-linejoin="round"/>
<path id="Vector_91" d="M38.4275 9.12001C38.4275 9.04659 38.4058 8.97482 38.365 8.91377C38.3242 8.85272 38.2662 8.80514 38.1984 8.77704C38.1305 8.74894 38.0559 8.74159 37.9839 8.75591C37.9119 8.77024 37.8457 8.80559 37.7938 8.85751C37.7419 8.90943 37.7065 8.97558 37.6922 9.04759C37.6779 9.1196 37.6852 9.19424 37.7133 9.26208C37.7414 9.32991 37.789 9.38789 37.85 9.42868C37.9111 9.46947 37.9829 9.49125 38.0563 9.49125C38.1547 9.49125 38.2492 9.45213 38.3188 9.38251C38.3884 9.31289 38.4275 9.21847 38.4275 9.12001Z" fill="#263238" stroke="#263238" stroke-linecap="round" stroke-linejoin="round"/>
<path id="Vector_92" d="M39.9097 9.12001C39.9097 9.04659 39.8879 8.97482 39.8471 8.91377C39.8063 8.85272 39.7484 8.80514 39.6805 8.77704C39.6127 8.74894 39.5381 8.74159 39.466 8.75591C39.394 8.77024 39.3279 8.80559 39.276 8.85751C39.2241 8.90943 39.1887 8.97558 39.1744 9.04759C39.16 9.1196 39.1674 9.19424 39.1955 9.26208C39.2236 9.32991 39.2712 9.38789 39.3322 9.42868C39.3933 9.46947 39.465 9.49125 39.5385 9.49125C39.6369 9.49125 39.7314 9.45213 39.801 9.38251C39.8706 9.31289 39.9097 9.21847 39.9097 9.12001Z" fill="#263238" stroke="#263238" stroke-linecap="round" stroke-linejoin="round"/>
<path id="Vector_93" d="M14.0022 26.9195C13.9067 26.8402 13.8281 26.7426 13.771 26.6325C13.7138 26.5224 13.6792 26.402 13.6693 26.2783C13.6593 26.1546 13.6742 26.0302 13.713 25.9124C13.7518 25.7945 13.8138 25.6856 13.8953 25.5921L20.645 17.8552L21.6743 18.6989L15.324 26.7817C15.2472 26.8789 15.1517 26.9597 15.0432 27.0194C14.9347 27.0791 14.8153 27.1164 14.6921 27.1293C14.5689 27.1421 14.4444 27.1302 14.3259 27.0941C14.2074 27.0581 14.0974 26.9987 14.0022 26.9195Z" fill="#263238" stroke="#263238" stroke-linejoin="round"/>
<path id="Vector_94" d="M18.8449 19.9138L13.8952 25.592C13.817 25.6858 13.7582 25.7941 13.7219 25.9106C13.6856 26.0272 13.6727 26.1498 13.6838 26.2713C13.6949 26.3929 13.7298 26.5111 13.7866 26.6192C13.8434 26.7272 13.9209 26.823 14.0147 26.9012C14.1085 26.9793 14.2168 27.0381 14.3333 27.0744C14.4499 27.1107 14.5724 27.1236 14.694 27.1125C14.8156 27.1014 14.9338 27.0665 15.0418 27.0097C15.1499 26.9529 15.2457 26.8754 15.3238 26.7816L20.0064 20.825L18.8449 19.9138Z" fill="white" stroke="#263238" stroke-linejoin="round"/>
<path id="Vector_95" d="M26.2612 12.115C25.6135 11.5786 24.8213 11.2463 23.9847 11.1601C23.1481 11.0739 22.3048 11.2377 21.5613 11.6308C20.8178 12.024 20.2076 12.6287 19.8078 13.3686C19.408 14.1085 19.2366 14.9504 19.3153 15.7877C19.3939 16.625 19.7191 17.4202 20.2497 18.0728C20.7803 18.7253 21.4925 19.2058 22.2961 19.4536C23.0998 19.7014 23.9589 19.7053 24.7648 19.4648C25.5707 19.2243 26.2872 18.7502 26.8237 18.1026C27.18 17.6725 27.448 17.1765 27.6125 16.6428C27.777 16.1091 27.8348 15.5483 27.7826 14.9923C27.7304 14.4363 27.5691 13.896 27.3081 13.4023C27.0471 12.9087 26.6913 12.4712 26.2612 12.115ZM21.2299 18.1926C20.6756 17.7334 20.27 17.1202 20.0642 16.4304C19.8584 15.7407 19.8618 15.0055 20.0739 14.3177C20.286 13.6298 20.6973 13.0204 21.2558 12.5663C21.8143 12.1123 22.4949 11.834 23.2115 11.7668C23.9281 11.6995 24.6486 11.8463 25.2818 12.1885C25.915 12.5307 26.4325 13.053 26.7689 13.6893C27.1052 14.3256 27.2454 15.0474 27.1715 15.7634C27.0977 16.4794 26.8132 17.1574 26.3541 17.7116C26.0492 18.0797 25.6748 18.3841 25.2523 18.6074C24.8298 18.8308 24.3674 18.9687 23.8916 19.0134C23.4158 19.058 22.9358 19.0085 22.4791 18.8677C22.0224 18.7268 21.5979 18.4974 21.2299 18.1926Z" fill="#263238" stroke="#263238" stroke-linejoin="round"/>
</g>
<g id="Outline">
<path id="Vector_96" d="M29.3882 53.2771H30.0913" stroke="#263238" stroke-miterlimit="10"/>
<path id="Vector_97" d="M31.5029 53.2771H56.159" stroke="#263238" stroke-miterlimit="10" stroke-dasharray="5.01 5.01"/>
<path id="Vector_98" d="M56.865 53.2771H57.5681" stroke="#263238" stroke-miterlimit="10"/>
<path id="Vector_99" d="M17.8208 42.8123H33.7191" stroke="#263238" stroke-linecap="round" stroke-linejoin="round"/>
<path id="Vector_100" d="M25.7712 50.6447V42.8123" stroke="#263238" stroke-linecap="round" stroke-linejoin="round"/>
<path id="Vector_101" d="M13.1719 44.7612V54.6692" stroke="#263238" stroke-linecap="round" stroke-linejoin="round"/>
<path id="Vector_102" d="M28.4714 55.7097H42.868V64.4168" stroke="#263238" stroke-linecap="round" stroke-linejoin="round"/>
<path id="Vector_103" d="M33.7192 55.8589V64.2594" stroke="#263238" stroke-linecap="round" stroke-linejoin="round"/>
<path id="Vector_104" d="M20.6698 39.5105H10.3203V46.5611H20.6698V39.5105Z" fill="#263238" stroke="#263238" stroke-miterlimit="10"/>
<path id="Vector_105" d="M40.2438 39.5105H29.8943V46.5611H40.2438V39.5105Z" fill="#525ECC" stroke="#263238" stroke-linecap="round" stroke-linejoin="round"/>
<path id="Vector_106" d="M37.1247 62.1587H30.4932V66.6754H37.1247V62.1587Z" fill="#525ECC" stroke="#263238" stroke-linecap="round" stroke-linejoin="round"/>
<path id="Vector_107" d="M16.8786 52.4109H10.2471V56.9276H16.8786V52.4109Z" fill="white" stroke="#263238" stroke-linecap="round" stroke-linejoin="round"/>
<path id="Vector_108" d="M45.8264 62.1587H39.1948V66.6754H45.8264V62.1587Z" fill="#263238" stroke="#263238" stroke-miterlimit="10"/>
<path id="Vector_109" d="M25.769 50.6434L20.5527 55.8596L25.769 61.0758L30.9852 55.8596L25.769 50.6434Z" fill="#525ECC" stroke="#263238" stroke-linecap="round" stroke-linejoin="round"/>
</g>
<g id="Design">
<path id="Vector_110" d="M44.9546 86.6821L45.6211 86.4543" stroke="#263238" stroke-miterlimit="10"/>
<path id="Vector_111" d="M46.9568 85.9988L56.9688 82.5818" stroke="#263238" stroke-miterlimit="10" stroke-dasharray="5.02 5.02"/>
<path id="Vector_112" d="M57.6353 82.354L58.3018 82.1262" stroke="#263238" stroke-miterlimit="10"/>
<path id="Vector_113" d="M43.3767 82.3091H11.6785V89.7534H43.3767V82.3091Z" fill="white" stroke="#263238" stroke-linecap="round" stroke-linejoin="round"/>
<path id="Vector_114" d="M43.2696 91.5364H26.7019V101.394H43.2696V91.5364Z" fill="white" stroke="#263238" stroke-linecap="round" stroke-linejoin="round"/>
<path id="Vector_115" d="M26.7019 101.394L32.4701 96.7814L34.8803 98.5644L39.9144 94.6833L43.1655 97.8304V101.394H26.7019Z" fill="#263238" stroke="#263238" stroke-linecap="round" stroke-linejoin="round"/>
<path id="Vector_116" d="M29.5344 95.2065C30.1712 95.2065 30.6875 94.6903 30.6875 94.0535C30.6875 93.4166 30.1712 92.9004 29.5344 92.9004C28.8976 92.9004 28.3813 93.4166 28.3813 94.0535C28.3813 94.6903 28.8976 95.2065 29.5344 95.2065Z" fill="#263238" stroke="#263238" stroke-linecap="round" stroke-linejoin="round"/>
<path id="Vector_117" d="M43.2696 102.758H26.7019V112.615H43.2696V102.758Z" fill="white" stroke="#263238" stroke-linecap="round" stroke-linejoin="round"/>
<path id="Vector_118" d="M26.7019 112.615L32.4701 108L34.8803 109.783L39.9144 105.902L43.1655 109.049V112.615H26.7019Z" fill="#263238" stroke="#263238" stroke-linecap="round" stroke-linejoin="round"/>
<path id="Vector_119" d="M29.5344 106.428C30.1712 106.428 30.6875 105.912 30.6875 105.275C30.6875 104.638 30.1712 104.122 29.5344 104.122C28.8976 104.122 28.3813 104.638 28.3813 105.275C28.3813 105.912 28.8976 106.428 29.5344 106.428Z" fill="#263238" stroke="#263238" stroke-linecap="round" stroke-linejoin="round"/>
<path id="Vector_120" d="M12.1594 92.2788H24.7532" stroke="#263238" stroke-miterlimit="10"/>
<path id="Vector_121" d="M12.1594 95.0771H24.7532" stroke="#263238" stroke-miterlimit="10"/>
<path id="Vector_122" d="M12.1594 97.8755H24.7532" stroke="#263238" stroke-miterlimit="10"/>
<path id="Vector_123" d="M12.1594 100.674H24.7532" stroke="#263238" stroke-miterlimit="10"/>
<path id="Vector_124" d="M12.1594 103.472H24.7532" stroke="#263238" stroke-miterlimit="10"/>
<path id="Vector_125" d="M12.1594 106.271H24.7532" stroke="#263238" stroke-miterlimit="10"/>
<path id="Vector_126" d="M12.1594 109.069H24.7532" stroke="#263238" stroke-miterlimit="10"/>
<path id="Vector_127" d="M12.1594 111.867H24.7532" stroke="#263238" stroke-miterlimit="10"/>
</g>
<g id="Table">
<path id="Vector_128" d="M18.9685 122.864H197.563" stroke="#263238" stroke-miterlimit="10"/>
<path id="Vector_129" d="M9.69604 122.864H14.5024" stroke="#263238" stroke-miterlimit="10"/>
</g>
</g>
</svg>
