<svg width="173" height="129" viewBox="0 0 173 129" fill="none" xmlns="http://www.w3.org/2000/svg">
<g id="instruction-manual/rafiki">
<g id="Shadow">
<path id="path" d="M86.4994 128.5C123.344 128.5 153.212 126.756 153.212 124.605C153.212 122.454 123.344 120.71 86.4994 120.71C49.6548 120.71 19.7864 122.454 19.7864 124.605C19.7864 126.756 49.6548 128.5 86.4994 128.5Z" fill="#F5F5F5"/>
</g>
<g id="instruction-manual">
<path id="Vector" d="M85.4675 14.153L132.503 4.86291C132.8 4.80116 133.106 4.8019 133.403 4.86506C133.699 4.92823 133.98 5.05244 134.226 5.2298C134.472 5.40716 134.678 5.63377 134.831 5.89523C134.985 6.15668 135.083 6.44726 135.118 6.74845L143.5 88.1261C143.527 88.4252 143.491 88.7266 143.396 89.0114C143.3 89.2961 143.146 89.5577 142.944 89.7797C142.742 90.0018 142.495 90.1792 142.221 90.3009C141.946 90.4226 141.649 90.4857 141.349 90.4864L85.4675 91.2537V14.153Z" fill="#525ECC"/>
<path id="Vector_2" d="M85.2988 14.3766C85.2988 14.3766 117.147 7.19916 131.003 8.03183L137.719 86.6465C137.719 86.6465 127.176 83.8939 117.074 85.8207C106.687 87.7991 85.2954 91.2537 85.2954 91.2537L85.2988 14.3766Z" fill="#525ECC"/>
<path id="Vector_3" opacity="0.7" d="M85.2988 14.3766C85.2988 14.3766 117.147 7.19916 131.003 8.03183L137.719 86.6465C137.719 86.6465 127.176 83.8939 117.074 85.8207C106.687 87.7991 85.2954 91.2537 85.2954 91.2537L85.2988 14.3766Z" fill="white"/>
<path id="Vector_4" d="M89.4999 12.663C89.4999 12.663 106.817 5.48899 117.783 4.86621L128.821 4.23999L135.1 83.9282C135.1 83.9282 124.816 79.7511 114.27 82.3385C103.724 84.926 90.164 89.4231 85.5293 91.0919V14.1253L89.4999 12.663Z" fill="#525ECC"/>
<path id="Vector_5" opacity="0.8" d="M89.5585 12.663C89.5585 12.663 106.879 5.48899 117.845 4.86621L128.886 4.23999L135.166 83.9282C135.166 83.9282 124.878 79.7511 114.335 82.3385C103.793 84.926 90.2294 89.4231 85.5947 91.0919V14.1253L89.5585 12.663Z" fill="white"/>
<path id="Vector_6" d="M85.5329 14.1529L39.5402 4.86286C39.2466 4.80372 38.944 4.80662 38.6517 4.87137C38.3594 4.93613 38.0838 5.06131 37.8427 5.23887C37.6017 5.41644 37.4004 5.64247 37.2519 5.90243C37.1033 6.1624 37.0108 6.45056 36.9802 6.7484L28.7878 88.1329C28.7582 88.4285 28.7903 88.727 28.8821 89.0096C28.9738 89.2922 29.1232 89.5526 29.3208 89.7745C29.5184 89.9963 29.7599 90.1748 30.03 90.2985C30.3002 90.4222 30.593 90.4885 30.8901 90.4932L85.5363 91.2537L85.5329 14.1529Z" fill="#525ECC"/>
<path id="Vector_7" d="M85.5329 14.153C85.5329 14.153 55.8769 3.30081 42.1139 2.48535L35.136 86.2818C35.136 86.2818 45.8643 83.4294 55.8494 85.5524C65.8345 87.6753 85.5364 91.2537 85.5364 91.2537L85.5329 14.153Z" fill="#525ECC"/>
<path id="Vector_8" opacity="0.6" d="M85.5329 14.153C85.5329 14.153 55.8769 3.30081 42.1139 2.48535L35.136 86.2818C35.136 86.2818 45.8643 83.4294 55.8494 85.5524C65.8345 87.6753 85.5364 91.2537 85.5364 91.2537L85.5329 14.153Z" fill="white"/>
<path id="Vector_9" d="M82.1816 12.343C82.1816 12.343 65.7416 3.68607 55.3849 2.13772L44.9972 0.585938L39.1169 79.2006C39.1169 79.2006 48.7683 76.0488 58.7018 79.6548C68.6353 83.2607 81.5485 89.1169 85.963 91.2536V14.1529L82.1816 12.343Z" fill="#525ECC"/>
<path id="Vector_10" opacity="0.7" d="M82.1816 12.343C82.1816 12.343 65.7416 3.68607 55.3849 2.13772L44.9972 0.585938L39.1169 79.2006C39.1169 79.2006 48.7683 76.0488 58.7018 79.6548C68.6353 83.2607 81.5485 89.1169 85.963 91.2536V14.1529L82.1816 12.343Z" fill="white"/>
<path id="Vector_11" d="M93.4913 37.3162V37.0753C93.4913 34.7425 93.4329 32.3718 93.3709 30.0802C93.3159 28.0399 93.2574 25.9307 93.2505 23.8559V23.7355L93.364 23.6942C97.7738 22.0576 102.275 20.6789 106.845 19.5653L107.048 19.5171V19.727C107.172 22.2353 107.254 24.7849 107.33 27.2519C107.389 29.0859 107.447 30.9852 107.526 32.8501V32.9877L107.392 33.0221C102.372 34.2883 97.6581 35.8676 93.7115 37.2474L93.4913 37.3162ZM93.5946 23.9763C93.5946 26.0098 93.6599 28.0708 93.715 30.0699C93.7735 32.2858 93.8354 34.5739 93.8354 36.831C97.7097 35.4823 102.296 33.9511 107.182 32.7021C107.106 30.8819 107.051 29.0308 106.993 27.2416C106.917 24.8331 106.842 22.3695 106.721 19.93C102.272 21.0287 97.8889 22.382 93.5946 23.9832V23.9763Z" fill="#525ECC"/>
<path id="Vector_12" d="M101.295 26.7152C101.087 26.7833 100.905 26.9135 100.773 27.0882C100.642 27.2629 100.567 27.4738 100.559 27.6924C100.559 28.0778 100.579 28.2739 100.59 28.6627C100.837 28.5381 101.054 28.3593 101.223 28.1397C101.283 28.0351 101.316 27.9165 101.316 27.7956C101.32 27.7409 101.343 27.6892 101.38 27.6492C101.418 27.6091 101.468 27.5831 101.522 27.5754L102.317 27.4687C102.357 27.457 102.399 27.4547 102.44 27.462C102.48 27.4692 102.519 27.4858 102.552 27.5105C102.586 27.5352 102.613 27.5672 102.632 27.6041C102.651 27.6411 102.661 27.6819 102.661 27.7234C102.661 27.9504 102.661 28.0674 102.661 28.2911C102.651 28.4086 102.603 28.5196 102.525 28.6081C102.447 28.6966 102.343 28.7579 102.228 28.7831C101.512 28.9379 101.195 29.0068 100.559 29.1478C100.547 29.3607 100.621 29.5693 100.762 29.7285C100.904 29.8876 101.103 29.9844 101.316 29.9977C102.19 30.0631 102.692 30.0872 103.69 30.1491C105.138 29.9805 105.926 29.8876 107.244 29.8429C107.213 28.8795 107.199 28.4081 107.172 27.4791C106.415 26.1234 106.009 25.5109 105.19 24.2654C105.082 24.0784 104.929 23.921 104.745 23.807C104.562 23.693 104.353 23.6259 104.137 23.6116C103.77 23.2684 103.287 23.0766 102.785 23.0749H102.737C102.263 22.9147 101.755 22.8885 101.268 22.9992C101.216 23.0134 101.169 23.0404 101.132 23.0778C101.094 23.1151 101.066 23.1615 101.051 23.2125C101.023 23.2683 101.008 23.3292 101.005 23.3914C101.002 23.4536 101.013 23.5157 101.035 23.5737C101.058 23.6316 101.092 23.6842 101.137 23.7281C101.181 23.772 101.234 23.8061 101.292 23.8284C101.615 23.9454 102.231 24.6439 102.64 25.1153C102.893 25.4022 103.094 25.7304 103.236 26.0855C102.424 26.347 102.021 26.4778 101.295 26.7152Z" fill="#263238"/>
<path id="Vector_13" d="M99.1964 26.9251C99.1671 26.9382 99.1339 26.9394 99.1037 26.9285C99.0736 26.9176 99.0488 26.8954 99.0347 26.8666C98.9114 26.5203 98.735 26.1952 98.5117 25.9032C98.4927 25.8652 98.4881 25.8215 98.4989 25.7804C98.5096 25.7393 98.535 25.7034 98.5702 25.6796C98.5998 25.6499 98.64 25.6333 98.682 25.6333C98.7239 25.6333 98.7641 25.6499 98.7938 25.6796C99.0276 25.9938 99.2121 26.3419 99.3409 26.7118C99.3501 26.7537 99.3445 26.7975 99.325 26.8358C99.3056 26.8741 99.2735 26.9044 99.2342 26.9217L99.1964 26.9251Z" fill="#263238"/>
<path id="Vector_14" d="M99.2307 29.024C99.1814 29.3358 99.0123 29.6161 98.7593 29.805C98.3155 30.1491 97.7271 30.1835 97.4931 29.8567C97.4656 29.8169 97.4425 29.7742 97.4243 29.7293C97.3759 29.5212 97.3932 29.3032 97.474 29.1054C97.5547 28.9076 97.6949 28.7397 97.8751 28.6249C98.1032 28.4353 98.3942 28.3383 98.6905 28.353C98.7753 28.357 98.8582 28.3798 98.9331 28.4197C99.0081 28.4595 99.0733 28.5155 99.1241 28.5836C99.1409 28.6052 99.1559 28.6282 99.1688 28.6524C99.2236 28.7681 99.245 28.8968 99.2307 29.024Z" fill="white"/>
<path id="Vector_15" d="M99.2305 29.0239C99.1812 29.3357 99.012 29.616 98.7591 29.805C98.3152 30.149 97.7269 30.1834 97.4929 29.8566C97.4653 29.8168 97.4422 29.7741 97.4241 29.7293C97.4492 29.5716 97.5053 29.4205 97.5891 29.2847C97.673 29.1488 97.783 29.031 97.9127 28.9379C98.3668 28.5938 98.9242 28.5697 99.1617 28.8966C99.1899 28.9359 99.2131 28.9787 99.2305 29.0239Z" fill="#263238"/>
<path id="Vector_16" d="M101.051 28.8346C101.007 29.1319 100.854 29.4021 100.621 29.5915C100.232 29.9115 99.7122 29.9081 99.4817 29.5743C99.4552 29.5345 99.4333 29.4918 99.4163 29.447C99.3751 29.2976 99.3721 29.1402 99.4076 28.9893C99.4431 28.8384 99.5159 28.6988 99.6193 28.5834C99.7583 28.4051 99.9424 28.2673 100.153 28.1843C100.29 28.1135 100.448 28.0951 100.597 28.1324C100.746 28.1698 100.877 28.2604 100.965 28.3873C101.043 28.5223 101.074 28.68 101.051 28.8346Z" fill="white"/>
<path id="Vector_17" d="M101.051 28.8346C101.008 29.132 100.854 29.4022 100.621 29.5916C100.232 29.9116 99.7124 29.9081 99.4819 29.5744C99.4554 29.5345 99.4334 29.4918 99.4165 29.4471C99.4628 29.1404 99.627 28.8638 99.8741 28.6763C100.294 28.3323 100.782 28.3598 100.992 28.7039C101.017 28.7451 101.036 28.789 101.051 28.8346Z" fill="#263238"/>
<path id="Vector_18" d="M100.352 27.3379C100.327 27.4995 100.269 27.6543 100.182 27.7923C100.094 27.9303 99.9786 28.0486 99.8428 28.1396C99.4024 28.4459 98.8622 28.4183 98.6557 28.0674C98.6411 28.042 98.6284 28.0156 98.6179 27.9882C98.5676 27.771 98.589 27.5433 98.679 27.3392C98.7689 27.1352 98.9225 26.9657 99.1168 26.8562C99.5779 26.5397 100.097 26.5844 100.287 26.9457C100.347 27.0672 100.369 27.2036 100.352 27.3379Z" fill="white"/>
<path id="Vector_19" d="M99.8431 28.1328C99.4027 28.439 98.8625 28.4115 98.656 28.0606C98.6413 28.0352 98.6287 28.0087 98.6182 27.9814C98.6457 27.8151 98.7077 27.6563 98.8001 27.5153C98.8925 27.3743 99.0134 27.2541 99.1549 27.1625C99.6125 26.8494 100.129 26.8941 100.318 27.252C100.331 27.2777 100.342 27.3041 100.352 27.3311C100.328 27.4927 100.27 27.6474 100.182 27.7854C100.094 27.9234 99.9789 28.0417 99.8431 28.1328Z" fill="#263238"/>
<path id="Vector_20" d="M98.8381 26.7738C98.8397 26.7863 98.8397 26.799 98.8381 26.8116C98.7796 27.3312 97.8334 27.978 96.6739 28.3015C96.1081 28.4593 95.5042 28.4067 94.9742 28.1535C94.8406 28.0929 94.7147 28.0167 94.5991 27.9264C94.5991 27.9264 95.5625 26.6671 96.7427 26.354C96.9024 26.3108 97.0644 26.2763 97.2279 26.2508C97.3863 26.2276 97.546 26.2139 97.7061 26.2095C98.3908 26.1923 98.8485 26.4022 98.8381 26.7738Z" fill="#525ECC"/>
<g id="Group" opacity="0.2">
<path id="Vector_21" d="M96.6704 28.3013C96.1046 28.4591 95.5008 28.4066 94.9707 28.1534C95.4961 27.5238 96.1821 27.0482 96.956 26.777C97.7853 26.5534 98.4975 26.5844 98.8347 26.8011C98.7762 27.3379 97.83 27.9779 96.6704 28.3013Z" fill="black"/>
</g>
<path id="Vector_22" d="M102.468 23.0713C102.452 23.2452 102.424 23.4177 102.382 23.5874C102.237 24.2591 101.922 24.8822 101.467 25.3972C100.648 26.2746 99.7914 26.7323 99.375 26.5499C99.3446 26.5394 99.3166 26.523 99.2925 26.5017C99.0378 26.2953 99.1617 25.7482 99.5643 25.1254C99.6691 24.9526 99.784 24.786 99.9084 24.6265C100.008 24.5061 100.111 24.3822 100.225 24.2584C100.837 23.6474 101.619 23.2339 102.468 23.0713Z" fill="#525ECC"/>
<g id="Group_2" opacity="0.2">
<path id="Vector_23" d="M102.382 23.5874C102.237 24.2591 101.922 24.8822 101.467 25.3972C100.648 26.2746 99.7916 26.7323 99.3752 26.5499C99.3959 26.1026 99.795 25.3869 100.435 24.6953C100.97 24.1536 101.644 23.7702 102.382 23.5874Z" fill="black"/>
</g>
<path id="Vector_24" d="M98.5423 25.8033C98.4081 26.1474 97.7337 26.4055 97.0352 26.3573C96.8168 26.3254 96.61 26.2386 96.4343 26.105C96.2586 25.9714 96.1196 25.7954 96.0305 25.5935C96.0305 25.5935 96.8357 24.9672 97.5307 25.0326C98.2257 25.098 98.6833 25.4455 98.5423 25.8033Z" fill="#525ECC"/>
<path id="Vector_25" d="M98.7179 25.7001C99.0344 25.7861 99.5884 25.3078 99.9669 24.6025C100.188 24.134 100.234 23.6019 100.098 23.1023C99.5771 23.3605 99.1387 23.7584 98.8314 24.2515C98.4495 24.9775 98.3979 25.6175 98.7179 25.7001Z" fill="#525ECC"/>
<path id="Vector_26" d="M103.256 30.6926C103.106 30.8796 102.947 31.0588 102.778 31.2294C102.286 31.7351 101.44 32.468 100.714 32.6676C99.5748 32.9773 98.3258 32.8465 98.2432 32.1962C98.2415 32.1744 98.2415 32.1526 98.2432 32.1308C98.2432 31.422 99.4888 30.4517 100.724 30.1042C101.959 29.7567 103.256 30.6926 103.256 30.6926Z" fill="#525ECC"/>
<g id="Group_3" opacity="0.2">
<path id="Vector_27" d="M102.778 31.2295C102.286 31.7352 101.439 32.4681 100.713 32.6677C99.5745 32.9774 98.3255 32.8466 98.2429 32.1963C98.8389 31.4999 99.6279 30.9958 100.51 30.7478C101.443 30.4759 102.368 30.9645 102.778 31.2295Z" fill="black"/>
</g>
<path id="Vector_28" d="M97.7303 32.1824C97.7126 32.2111 97.6919 32.2376 97.6683 32.2616C97.135 32.8912 95.8241 32.9876 94.7712 32.4543C94.083 32.1102 93.8456 31.3395 93.739 30.8268C93.7026 30.6511 93.6807 30.4727 93.6736 30.2935C93.6736 30.2935 95.3768 29.5365 96.526 30.032C97.6752 30.5274 98.2223 31.484 97.7303 32.1824Z" fill="#525ECC"/>
<g id="Group_4" opacity="0.2">
<path id="Vector_29" d="M97.6684 32.2616C97.135 32.8912 95.8241 32.9876 94.7712 32.4543C94.0831 32.1102 93.8457 31.3395 93.739 30.8268C94.2551 30.6444 95.4319 30.3141 96.2817 30.6857C97.1316 31.0573 97.6477 31.6698 97.6684 32.2616Z" fill="black"/>
</g>
<path id="Vector_30" d="M93.6739 35.7266C93.5913 35.7506 93.5259 35.6921 93.5259 35.5958C93.5251 35.5497 93.5385 35.5044 93.5644 35.4662C93.5902 35.428 93.6273 35.3988 93.6704 35.3825C96.4643 34.5257 99.2204 31.023 99.2685 28.3427C99.2744 28.2993 99.2928 28.2585 99.3215 28.2255C99.3503 28.1925 99.3881 28.1686 99.4303 28.1569C99.5163 28.1328 99.5851 28.1809 99.5817 28.2601C99.4303 31.5391 96.7465 34.5429 93.6739 35.7266Z" fill="#263238"/>
<path id="Vector_31" d="M93.6462 52.2834V52.0494C93.6222 48.5708 93.5774 45.0337 93.5327 41.6136L93.4983 38.9332L93.6153 38.8919C98.9794 37.027 103.249 35.7333 107.43 34.6942L107.63 34.6426V34.8525C107.881 39.4631 108.053 44.1425 108.187 48.1269V48.2715L108.049 48.3024C103.249 49.4035 98.6044 50.6834 93.8527 52.2146L93.6462 52.2834ZM93.8458 39.1741L93.8768 41.6101C93.9181 44.9546 93.9628 48.4091 93.9869 51.8154C98.625 50.3256 103.167 49.0628 107.85 47.9996C107.719 44.1116 107.554 39.5663 107.31 35.0796C103.229 36.098 99.0586 37.3677 93.8458 39.1741Z" fill="#525ECC"/>
<path id="Vector_32" d="M95.2463 51.7193C96.3027 50.5254 96.8807 49.8854 98.0953 48.54C100.081 47.9586 101.01 47.7762 102.864 47.3289C103.576 46.4137 103.955 45.8872 104.677 44.9926C104.757 44.8959 104.864 44.8251 104.984 44.7896C105.328 44.6864 105.565 45.0029 105.376 45.347C104.75 46.479 104.423 47.1947 103.79 48.2854C102.29 48.836 101.663 49.0183 100.118 49.617L99.1344 50.3912C97.5104 50.9142 96.6811 51.2238 95.2463 51.7193Z" fill="#263238"/>
<path id="Vector_33" d="M103.514 40.5229C103.697 42.9074 103.759 44.1186 103.841 47.0604C101.598 47.6866 100.583 47.8793 98.2397 48.6191C98.1777 45.8011 98.2706 44.4213 98.2225 42.0472C100.483 41.2662 101.295 41.101 103.514 40.5229Z" fill="#525ECC"/>
<path id="Vector_34" d="M99.0895 44.5865C99.0897 44.7546 99.12 44.9212 99.179 45.0786L98.2568 45.371C98.2568 44.9375 98.2568 44.7276 98.2568 44.3113C98.625 44.1909 98.8108 44.1289 99.179 44.0154C99.1188 44.1998 99.0886 44.3926 99.0895 44.5865Z" fill="#263238"/>
<path id="Vector_35" d="M103.673 42.8008C103.697 43.2102 103.71 43.4201 103.731 43.833L102.867 44.0635C102.913 43.8885 102.931 43.7075 102.922 43.5268C102.913 43.3512 102.872 43.1788 102.802 43.0176L103.673 42.8008Z" fill="#263238"/>
<path id="Vector_36" opacity="0.2" d="M102.923 43.5404C102.932 43.7211 102.913 43.9021 102.867 44.0772C102.768 44.5025 102.556 44.8932 102.253 45.2081C101.95 45.523 101.568 45.7504 101.147 45.8664C100.242 46.1004 99.4267 45.7563 99.1755 45.0784C99.1149 44.9216 99.0845 44.7546 99.0861 44.5864C99.0837 44.3926 99.1128 44.1997 99.1721 44.0152C99.3168 43.5999 99.5578 43.2246 99.8753 42.9202C100.193 42.6158 100.578 42.3909 100.999 42.2639C101.341 42.1462 101.714 42.1595 102.047 42.3012C102.379 42.443 102.647 42.7031 102.799 43.0312C102.872 43.1916 102.914 43.3644 102.923 43.5404Z" fill="black"/>
<path id="Vector_37" d="M100.135 43.5095C100.166 43.4716 100.201 43.4372 100.235 43.4028C100.243 43.4156 100.254 43.4262 100.266 43.4338C100.544 43.5934 100.767 43.8333 100.906 44.122L100.951 44.208C101.106 44.5181 101.324 44.7923 101.591 45.0131C101.4 45.0734 101.199 45.0907 101.001 45.064C100.803 45.0372 100.613 44.967 100.445 44.8583C99.9187 44.5417 99.7845 43.9396 100.135 43.5095Z" fill="white"/>
<path id="Vector_38" d="M101.983 44.7516C101.956 44.7899 101.923 44.8246 101.887 44.8548C101.885 44.8416 101.88 44.829 101.873 44.8178C101.866 44.8065 101.857 44.7969 101.846 44.7894C101.596 44.5879 101.397 44.3311 101.264 44.0393L101.223 43.9533C101.078 43.6525 100.85 43.3994 100.566 43.2239C100.746 43.1545 100.94 43.1314 101.131 43.1567C101.322 43.1819 101.504 43.2547 101.66 43.3684C101.773 43.4367 101.872 43.527 101.95 43.6341C102.028 43.7412 102.083 43.8627 102.114 43.9917C102.144 44.1206 102.148 44.2543 102.125 44.3848C102.103 44.5153 102.055 44.64 101.983 44.7516Z" fill="white"/>
<path id="Vector_39" d="M103.476 40.5331C103.132 39.845 102.977 39.5009 102.657 38.8127C101.054 39.236 100.504 39.3529 98.8898 39.9035C98.6318 40.7637 98.4976 41.1834 98.2223 42.0402C98.2139 42.0591 98.207 42.0787 98.2017 42.0987C100.466 41.3348 101.281 41.1731 103.497 40.5916C103.49 40.5641 103.483 40.5538 103.476 40.5331Z" fill="#525ECC"/>
<path id="Vector_40" d="M103.191 38.6614C101.127 39.2119 100.438 39.3496 98.3533 40.0756C98.3533 39.8588 98.3533 39.7315 98.3533 39.525C100.418 38.8025 101.085 38.658 103.17 38.104C103.167 38.3277 103.177 38.4378 103.191 38.6614Z" fill="#263238"/>
<path id="Vector_41" d="M109.625 32.6125V32.4061C109.57 31.3153 109.519 30.2212 109.464 29.1304C109.309 25.8996 109.147 22.562 108.951 19.2795V19.135L109.092 19.1006C113.416 18.053 117.837 17.4592 122.284 17.3286H122.452V17.4938C122.666 21.141 122.965 24.8329 123.251 28.401L123.457 30.9816H123.278C118.755 31.0473 114.25 31.5788 109.835 32.5678L109.625 32.6125ZM109.281 19.4034C109.474 22.6412 109.625 25.9409 109.787 29.1132C109.839 30.1455 109.887 31.1777 109.938 32.1858C114.252 31.2303 118.651 30.7127 123.068 30.6409L122.893 28.4251C122.607 24.9086 122.315 21.2717 122.102 17.6796C117.784 17.8159 113.492 18.3935 109.292 19.4034H109.281Z" fill="#525ECC"/>
<path id="Vector_42" d="M114.449 28.1535C114.322 28.4028 114.141 28.6211 113.92 28.793C113.698 28.9648 113.442 29.0859 113.169 29.1479C113.034 29.1659 112.896 29.1431 112.773 29.0825C112.285 28.8417 112.247 28.0228 112.677 27.2796C112.86 26.9536 113.124 26.6808 113.444 26.4882C113.574 26.4 113.724 26.3451 113.88 26.3283C114.036 26.3115 114.193 26.3333 114.339 26.3918C114.838 26.6499 114.886 27.4103 114.449 28.1535Z" fill="#525ECC"/>
<g id="Group_5" opacity="0.2">
<path id="Vector_43" d="M114.449 28.1534C114.321 28.4027 114.14 28.621 113.919 28.7928C113.698 28.9647 113.442 29.0858 113.169 29.1478C113.035 29.1661 112.898 29.1446 112.777 29.0858C112.724 29.0598 112.675 29.0262 112.632 28.9861L112.611 28.9654C112.591 28.9452 112.573 28.9234 112.556 28.9C112.52 28.854 112.489 28.8031 112.467 28.7486L112.436 28.673C112.426 28.6463 112.419 28.6186 112.415 28.5904C112.406 28.5673 112.4 28.5429 112.398 28.5181C112.398 28.4837 112.398 28.4459 112.398 28.408C112.388 28.2237 112.408 28.039 112.457 27.8609C112.497 27.713 112.551 27.569 112.618 27.4308C112.641 27.3813 112.666 27.333 112.694 27.2863C112.877 26.9603 113.141 26.6876 113.461 26.4949C113.591 26.4076 113.741 26.3532 113.897 26.3364C114.052 26.3196 114.21 26.3409 114.356 26.3986C114.408 26.423 114.455 26.4555 114.497 26.4949C114.582 26.5665 114.648 26.6574 114.69 26.7599C114.755 26.9955 114.767 27.2427 114.726 27.4837C114.684 27.7247 114.59 27.9534 114.449 28.1534Z" fill="black"/>
</g>
<path id="Vector_44" d="M114.239 27.3034C114.235 27.6673 114.134 28.0234 113.947 28.3357C113.759 28.6704 113.492 28.9539 113.169 29.1614C113.035 29.1786 112.899 29.1571 112.777 29.0995C112.724 29.0735 112.676 29.0399 112.632 28.9997L112.612 28.9791C112.592 28.9589 112.573 28.937 112.557 28.9137C112.52 28.8677 112.49 28.8167 112.467 28.7623L112.436 28.6866C112.426 28.66 112.419 28.6323 112.416 28.604C112.406 28.581 112.401 28.5566 112.399 28.5318C112.399 28.4974 112.399 28.4595 112.399 28.4217C112.389 28.2374 112.408 28.0526 112.457 27.8746C112.495 27.7258 112.55 27.5816 112.619 27.4445C112.641 27.395 112.667 27.3467 112.694 27.3C112.877 26.974 113.142 26.7013 113.462 26.5086C113.597 26.4932 113.734 26.5158 113.857 26.574C114.014 26.648 114.137 26.7782 114.201 26.9387C114.236 27.0571 114.249 27.1806 114.239 27.3034Z" fill="#525ECC"/>
<path id="Vector_45" d="M114.673 26.7529C114.546 26.9497 114.401 27.134 114.239 27.3035C114.083 27.4743 113.911 27.6309 113.727 27.7714C113.693 27.8008 113.657 27.8284 113.62 27.854C113.256 28.1422 112.952 28.4987 112.725 28.9034C112.703 28.9395 112.671 28.9683 112.632 28.986L112.612 28.9653C112.592 28.9452 112.573 28.9233 112.557 28.9C112.52 28.854 112.49 28.803 112.467 28.7486C112.713 28.3083 113.046 27.9221 113.444 27.6131L113.551 27.5271C113.779 27.3497 113.987 27.1477 114.17 26.925C114.272 26.8025 114.364 26.6725 114.446 26.5362C114.455 26.52 114.468 26.506 114.484 26.4949C114.567 26.5639 114.632 26.6526 114.673 26.7529Z" fill="#263238"/>
<path id="Vector_46" d="M115.918 24.3822C115.846 24.3908 115.773 24.3908 115.701 24.3822H115.636C115.526 24.3581 115.412 24.3203 115.292 24.2859C114.967 24.1617 114.679 23.9554 114.457 23.6871C114.235 23.4188 114.087 23.0976 114.026 22.7547C113.816 21.8498 114.126 20.938 114.752 20.5871C114.851 20.5335 114.958 20.4952 115.068 20.4735C115.181 20.4421 115.3 20.4421 115.412 20.4735C115.509 20.4964 115.6 20.5348 115.684 20.5871C116.287 21.0171 116.701 21.6628 116.84 22.39C117.088 23.4911 116.692 24.3478 115.918 24.3822Z" fill="#525ECC"/>
<g id="Group_6" opacity="0.2">
<path id="Vector_47" d="M115.918 24.3825C115.846 24.391 115.773 24.391 115.701 24.3825H115.636C115.526 24.3584 115.412 24.3205 115.292 24.2861C114.966 24.162 114.679 23.9557 114.457 23.6873C114.235 23.419 114.086 23.0978 114.026 22.755C113.816 21.8501 114.125 20.9383 114.752 20.5873C114.851 20.5338 114.958 20.4955 115.068 20.4738C115.181 20.4423 115.3 20.4423 115.412 20.4738C115.508 20.4967 115.6 20.535 115.684 20.5873C116.287 21.0173 116.701 21.663 116.84 22.3903C117.088 23.4913 116.692 24.3481 115.918 24.3825Z" fill="black"/>
</g>
<path id="Vector_48" d="M115.702 24.3684H115.636C115.526 24.3443 115.413 24.3065 115.292 24.2721C114.967 24.1479 114.679 23.9416 114.457 23.6733C114.236 23.405 114.087 23.0838 114.026 22.7409C113.816 21.836 114.112 20.9208 114.752 20.5733C114.988 20.5723 115.218 20.6524 115.402 20.8003C115.53 20.908 115.645 21.0291 115.746 21.1616C116.032 21.5448 116.233 21.9847 116.335 22.4519C116.558 23.3878 116.29 24.1551 115.702 24.3684Z" fill="#525ECC"/>
<path id="Vector_49" d="M115.746 21.1445C115.746 21.1445 115.746 21.172 115.746 21.2236C115.746 21.2752 115.746 21.289 115.746 21.3337C115.757 21.6202 115.74 21.907 115.698 22.1904C115.698 22.2283 115.698 22.2696 115.674 22.3109C115.65 22.3522 115.674 22.335 115.674 22.3453C115.67 22.3765 115.664 22.4075 115.657 22.4382C115.657 22.5036 115.636 22.5345 115.619 22.5965C115.49 23.1429 115.49 23.7119 115.619 24.2583C115.626 24.2843 115.626 24.3116 115.619 24.3375C115.509 24.3134 115.395 24.2756 115.275 24.2411C115.147 23.6635 115.154 23.0643 115.295 22.4898C115.313 22.4244 115.319 22.3935 115.333 22.3315C115.347 22.2696 115.354 22.2421 115.364 22.1973C115.364 22.1664 115.364 22.1285 115.385 22.0941C115.406 22.0597 115.409 21.9289 115.416 21.8532C115.433 21.6714 115.439 21.4887 115.433 21.3062C115.433 21.2718 115.433 21.2546 115.433 21.2201C115.43 21.0798 115.42 20.9397 115.402 20.8004C115.402 20.7384 115.402 20.6731 115.375 20.6111C115.366 20.5851 115.364 20.5573 115.369 20.5302C115.373 20.5032 115.385 20.4778 115.402 20.4563C115.498 20.4792 115.59 20.5176 115.674 20.5698C115.71 20.7597 115.734 20.9516 115.746 21.1445Z" fill="#263238"/>
<path id="Vector_50" d="M119.996 28.3941C119.879 28.5436 119.729 28.6648 119.559 28.7488C119.389 28.8328 119.202 28.8773 119.012 28.8792C118.477 28.902 117.948 28.7629 117.494 28.4801C116.49 27.8883 116.001 26.8664 116.417 26.2883C116.544 26.1216 116.722 26.0007 116.923 25.9443C117.624 25.8086 118.349 25.9545 118.943 26.3503C119.93 26.9352 120.398 27.8023 119.996 28.3941Z" fill="#525ECC"/>
<g id="Group_7" opacity="0.2">
<path id="Vector_51" d="M119.995 28.3943C119.944 28.4648 119.885 28.5295 119.82 28.5869C119.737 28.6528 119.645 28.7072 119.548 28.7487C119.378 28.8243 119.197 28.8686 119.011 28.8794C118.477 28.9005 117.949 28.7615 117.494 28.4803C116.493 27.8919 115.997 26.8597 116.417 26.2885C116.479 26.201 116.559 26.1272 116.651 26.0717C116.732 26.0198 116.82 25.9804 116.912 25.9548C117.613 25.8191 118.338 25.965 118.932 26.3608C119.926 26.9354 120.401 27.8025 119.995 28.3943Z" fill="black"/>
</g>
<path id="Vector_52" d="M119.5 28.4905C119.38 28.6662 119.21 28.8017 119.012 28.8793C118.477 28.9021 117.948 28.763 117.494 28.4802C116.49 27.8884 116.001 26.8665 116.417 26.2884C116.544 26.1216 116.722 26.0008 116.923 25.9443C117.463 25.9687 117.988 26.131 118.447 26.4157C119.431 26.9938 119.899 27.8815 119.5 28.4905Z" fill="#525ECC"/>
<path id="Vector_53" d="M117.553 26.4193L117.449 26.3333L117.529 26.3952C117.538 26.4014 117.546 26.4096 117.553 26.4193Z" fill="white"/>
<path id="Vector_54" d="M119.82 28.5868C119.737 28.6526 119.646 28.707 119.548 28.7485C119.49 28.7141 119.428 28.6797 119.373 28.6418C118.912 28.3396 118.508 27.9587 118.179 27.5167L118.076 27.3791L118 27.2896C117.797 27.041 117.573 26.8107 117.329 26.6015L117.14 26.4569C117.013 26.3572 116.875 26.2677 116.734 26.1782C116.714 26.1671 116.697 26.1518 116.683 26.1334C116.669 26.115 116.66 26.0939 116.655 26.0716L116.916 25.9546C117.044 26.0303 117.164 26.1129 117.281 26.1989L117.343 26.2436C117.349 26.2451 117.354 26.2451 117.36 26.2436L117.453 26.3193L117.556 26.4053L117.746 26.567C118.06 26.856 118.343 27.1778 118.588 27.527C118.865 27.852 119.187 28.1348 119.545 28.3666L119.755 28.4939C119.772 28.5041 119.786 28.5177 119.797 28.5336C119.808 28.5496 119.816 28.5677 119.82 28.5868Z" fill="#263238"/>
<path id="Vector_55" d="M110.024 47.8793V47.6694C109.901 44.8204 109.846 41.9302 109.79 39.1329C109.763 37.5501 109.73 35.9685 109.691 34.388V34.2504L109.825 34.216C114.272 33.0815 118.851 32.5469 123.44 32.6264H123.598V32.7812C123.973 37.3815 124.238 42.0437 124.479 46.4238V46.6234L124.28 46.6028C118.895 46.0316 114.907 46.6475 110.221 47.8242L110.024 47.8793ZM110.024 34.5153C110.063 36.0522 110.096 37.5891 110.121 39.126C110.176 41.8511 110.231 44.6691 110.344 47.4423C114.8 46.3344 118.878 45.7219 124.107 46.2449C123.874 41.9749 123.612 37.4469 123.251 32.9704C118.795 32.9103 114.35 33.4296 110.028 34.5153H110.024Z" fill="#525ECC"/>
<g id="coffee-machine">
<path id="Vector_56" d="M119.631 42.6046C118.043 42.6311 116.461 42.7911 114.9 43.0829C114.477 40.984 114.27 40.1858 113.868 38.6099C116.417 37.9458 117.653 37.9217 120.061 37.9596C119.903 39.618 119.81 40.4541 119.631 42.6046Z" fill="#525ECC"/>
<g id="Group_8" opacity="0.2">
<path id="Vector_57" d="M120.072 38.0869C119.432 38.0869 119.115 38.0869 118.458 38.0869C118.458 39.6903 118.458 40.523 118.441 42.6425C118.926 42.615 119.16 42.6081 119.631 42.5909C119.807 40.5195 119.896 39.6972 120.072 38.0869Z" fill="black"/>
</g>
<path id="Vector_58" d="M121.427 36.5213C121.442 36.7214 121.414 36.9224 121.343 37.1102C121.272 37.2981 121.161 37.4681 121.018 37.6086C121.018 37.6086 121.018 37.6086 120.997 37.6086C120.787 37.8051 120.528 37.9417 120.247 38.0042C120.19 38.021 120.131 38.0325 120.072 38.0387H119.982H119.803C117.646 38.0387 116.517 38.018 114.274 38.5892C114.151 38.6226 114.026 38.6434 113.899 38.6511C113.076 38.6993 112.402 38.2485 112.375 37.4916C112.38 37.0286 112.554 36.5834 112.863 36.2391C113.182 35.8623 113.612 35.5961 114.091 35.4787C116.263 34.9695 117.453 34.9695 119.597 34.9179C120.049 34.9018 120.49 35.0587 120.83 35.3567C121.17 35.6546 121.384 36.0712 121.427 36.5213Z" fill="#525ECC"/>
<g id="Group_9" opacity="0.2">
<path id="Vector_59" d="M121.427 36.5212C121.442 36.7214 121.413 36.9224 121.343 37.1102C121.272 37.298 121.161 37.4681 121.018 37.6085C121.018 37.6085 121.018 37.6085 120.997 37.6085C120.769 37.7827 120.514 37.9197 120.244 38.0145C120.187 38.0363 120.128 38.0513 120.068 38.0593C120.058 38.0624 120.047 38.0624 120.037 38.0593C119.349 38.0593 119.005 38.0593 118.296 38.0593C118.514 38.0602 118.731 38.0181 118.933 37.9354C119.154 37.843 119.338 37.6813 119.459 37.4746C119.58 37.2679 119.631 37.0275 119.604 36.7896C119.604 36.5419 119.579 36.418 119.562 36.1703C119.525 35.8442 119.37 35.543 119.126 35.3236C118.882 35.1042 118.566 34.9819 118.238 34.9798C118.788 34.9557 119.056 34.9488 119.59 34.9351C120.04 34.9168 120.481 35.0706 120.822 35.3651C121.163 35.6597 121.379 36.073 121.427 36.5212Z" fill="black"/>
</g>
<path id="Vector_60" d="M117.918 39.1912C117.942 39.5663 117.952 39.7555 117.976 40.1547C117.383 40.1408 116.79 40.1799 116.204 40.2717C116.177 39.8691 116.166 39.6764 116.142 39.2979C116.729 39.2031 117.324 39.1674 117.918 39.1912Z" fill="#525ECC"/>
<path id="Vector_61" d="M117.918 39.1912C117.942 39.5663 117.952 39.7555 117.976 40.1547C117.383 40.1408 116.79 40.1799 116.204 40.2717C116.177 39.8691 116.166 39.6764 116.142 39.2979C116.729 39.2031 117.324 39.1674 117.918 39.1912Z" fill="#525ECC"/>
<g id="Group_10" opacity="0.5">
<path id="Vector_62" d="M117.918 39.1912C117.942 39.5663 117.952 39.7555 117.977 40.1547C117.384 40.1408 116.791 40.1799 116.205 40.2717C116.177 39.8691 116.167 39.6764 116.143 39.2979C116.729 39.2031 117.324 39.1674 117.918 39.1912Z" fill="white"/>
</g>
<path id="Vector_63" d="M117.174 39.2153C117.198 39.5904 117.209 39.7831 117.233 40.1856C116.887 40.1855 116.542 40.2143 116.201 40.2717C116.173 39.8691 116.163 39.6764 116.139 39.2979C116.481 39.2384 116.827 39.2107 117.174 39.2153Z" fill="white"/>
<path id="Vector_64" d="M121.802 43.2479C121.815 43.4218 121.763 43.5943 121.658 43.733C121.61 43.793 121.549 43.8414 121.48 43.8747C121.411 43.9081 121.335 43.9255 121.258 43.9257C118.162 43.9016 116.758 44.0152 113.231 44.7068C113.151 44.7288 113.067 44.7323 112.985 44.7168C112.904 44.7014 112.827 44.6674 112.76 44.6176C112.694 44.5678 112.64 44.5034 112.602 44.4294C112.564 44.3554 112.544 44.2737 112.543 44.1906C112.538 44.0063 112.6 43.8264 112.718 43.6849C112.832 43.5405 112.993 43.4407 113.173 43.4027C116.689 42.7318 118.079 42.601 121.186 42.5735C121.356 42.585 121.515 42.6615 121.629 42.7871C121.744 42.9127 121.806 43.0778 121.802 43.2479Z" fill="#525ECC"/>
<path id="Vector_65" d="M117.79 36.5489C117.787 36.6601 117.761 36.7695 117.714 36.8705C117.668 36.9714 117.601 37.0619 117.518 37.1365C117.436 37.211 117.339 37.2681 117.234 37.3043C117.129 37.3405 117.017 37.3551 116.906 37.3472C116.815 37.3507 116.724 37.3438 116.634 37.3265C116.46 37.3131 116.295 37.239 116.17 37.1171C116.044 36.9952 115.965 36.8331 115.946 36.659C115.938 36.4778 115.994 36.2995 116.104 36.1554C116.214 36.0112 116.371 35.9106 116.548 35.8711C116.636 35.8474 116.726 35.8324 116.817 35.8264C117.041 35.7983 117.267 35.8578 117.448 35.9924C117.63 36.127 117.752 36.3263 117.79 36.5489Z" fill="#525ECC"/>
<path id="Vector_66" d="M117.79 36.5489C117.787 36.6601 117.761 36.7695 117.714 36.8705C117.668 36.9714 117.601 37.0619 117.518 37.1365C117.436 37.211 117.339 37.2681 117.234 37.3043C117.129 37.3405 117.017 37.3551 116.906 37.3472C116.815 37.3507 116.724 37.3438 116.634 37.3265C116.46 37.3131 116.295 37.239 116.17 37.1171C116.044 36.9952 115.965 36.8331 115.946 36.659C115.938 36.4778 115.994 36.2995 116.104 36.1554C116.214 36.0112 116.371 35.9106 116.548 35.8711C116.636 35.8474 116.726 35.8324 116.817 35.8264C117.041 35.7983 117.267 35.8578 117.448 35.9924C117.63 36.127 117.752 36.3263 117.79 36.5489Z" fill="white"/>
<path id="Vector_67" d="M117.274 36.5661C117.272 36.7473 117.207 36.922 117.09 37.0606C116.973 37.1992 116.812 37.2932 116.634 37.3265C116.46 37.3131 116.295 37.239 116.17 37.1171C116.044 36.9952 115.965 36.8331 115.946 36.659C115.938 36.4778 115.994 36.2995 116.104 36.1554C116.214 36.0112 116.371 35.9106 116.548 35.8711C116.73 35.8892 116.9 35.9675 117.031 36.0935C117.163 36.2194 117.248 36.3858 117.274 36.5661Z" fill="white"/>
<path id="Vector_68" d="M118.409 38.1006C118.437 38.5135 118.451 38.7268 118.475 39.1604C117.511 39.1264 116.547 39.2073 115.602 39.4012C115.574 38.9608 115.56 38.7509 115.533 38.338C116.479 38.1433 117.445 38.0636 118.409 38.1006Z" fill="#525ECC"/>
<g id="Group_11" opacity="0.5">
<path id="Vector_69" d="M118.409 38.1006C118.437 38.5135 118.45 38.7268 118.475 39.1604C117.511 39.1264 116.546 39.2073 115.602 39.4012C115.574 38.9608 115.56 38.7509 115.533 38.338C116.478 38.1433 117.444 38.0636 118.409 38.1006Z" fill="white"/>
</g>
<path id="Vector_70" d="M117.518 38.1247C117.546 38.5341 117.56 38.7475 117.587 39.1845C116.919 39.1788 116.253 39.2516 115.602 39.4012C115.574 38.9608 115.56 38.7509 115.533 38.338C116.184 38.1896 116.85 38.118 117.518 38.1247Z" fill="white"/>
<path id="Vector_71" d="M119.187 36.5143C119.187 36.6056 119.151 36.6931 119.086 36.7576C119.022 36.8222 118.934 36.8584 118.843 36.8584C118.75 36.8645 118.659 36.8353 118.587 36.7766C118.514 36.7178 118.467 36.634 118.454 36.5419C118.454 36.4506 118.491 36.3631 118.555 36.2986C118.62 36.234 118.707 36.1978 118.798 36.1978C118.891 36.1908 118.984 36.2198 119.056 36.2787C119.128 36.3375 119.175 36.4219 119.187 36.5143Z" fill="#525ECC"/>
<path id="Vector_72" d="M120.429 36.511C120.434 36.5572 120.428 36.6038 120.412 36.6475C120.396 36.6911 120.371 36.7308 120.338 36.7636C120.305 36.7965 120.265 36.8217 120.222 36.8375C120.178 36.8533 120.132 36.8593 120.085 36.855C119.99 36.8564 119.897 36.8217 119.826 36.758C119.754 36.6943 119.709 36.6061 119.7 36.511C119.698 36.4661 119.706 36.4214 119.723 36.3799C119.74 36.3383 119.766 36.3008 119.798 36.2699C119.831 36.239 119.87 36.2154 119.912 36.2006C119.954 36.1858 119.999 36.1801 120.044 36.1841C120.138 36.1799 120.229 36.2113 120.301 36.2719C120.372 36.3325 120.418 36.4179 120.429 36.511Z" fill="#525ECC"/>
<path id="Vector_73" d="M114.174 37.0649C114.17 37.163 114.134 37.2571 114.072 37.3333C114.01 37.4096 113.925 37.4638 113.83 37.4881C113.624 37.5397 113.445 37.4399 113.434 37.2576C113.441 37.1576 113.48 37.0626 113.545 36.9864C113.61 36.9102 113.698 36.8569 113.796 36.8343C113.988 36.7827 114.164 36.886 114.174 37.0649Z" fill="#525ECC"/>
<path id="Vector_74" d="M119.401 39.9277C118.843 39.9277 118.561 39.9277 117.98 39.9552C117.98 39.7763 117.962 39.6903 117.952 39.5148C118.534 39.5148 118.816 39.4942 119.373 39.4907C119.384 39.6628 119.39 39.7522 119.401 39.9277Z" fill="#263238"/>
</g>
<path id="Vector_75" d="M118.42 38.2175C117.457 38.1795 116.494 38.258 115.55 38.4515C115.534 38.4596 115.515 38.4631 115.497 38.4616C115.478 38.4602 115.461 38.4539 115.446 38.4434C115.431 38.4328 115.419 38.4185 115.411 38.4018C115.403 38.385 115.4 38.3666 115.402 38.3483C115.402 38.314 115.414 38.2807 115.435 38.2538C115.456 38.227 115.486 38.2081 115.519 38.2003C116.464 38.0069 117.429 37.9283 118.392 37.9663C118.426 37.9652 118.46 37.9769 118.486 37.9992C118.512 38.0215 118.529 38.0527 118.533 38.0868C118.535 38.1029 118.533 38.1191 118.528 38.1344C118.523 38.1498 118.515 38.164 118.504 38.1762C118.494 38.1884 118.481 38.1984 118.466 38.2055C118.452 38.2126 118.436 38.2167 118.42 38.2175Z" fill="#263238"/>
<path id="Vector_76" d="M118.843 36.9722C118.717 36.9788 118.593 36.9384 118.495 36.859C118.398 36.7795 118.333 36.6666 118.313 36.5421C118.314 36.4814 118.326 36.4214 118.35 36.3657C118.375 36.3101 118.41 36.2598 118.454 36.2181C118.498 36.1763 118.55 36.1438 118.607 36.1226C118.663 36.1015 118.724 36.092 118.785 36.0948C118.911 36.0858 119.035 36.1253 119.133 36.2053C119.231 36.2852 119.295 36.3995 119.311 36.5248C119.312 36.5855 119.3 36.6456 119.276 36.7015C119.253 36.7574 119.218 36.8079 119.174 36.8498C119.13 36.8917 119.078 36.9242 119.021 36.9452C118.964 36.9663 118.904 36.9754 118.843 36.9722ZM118.802 36.3218C118.773 36.3204 118.744 36.3249 118.717 36.335C118.69 36.3451 118.665 36.3606 118.644 36.3806C118.623 36.4005 118.607 36.4245 118.595 36.4511C118.584 36.4777 118.578 36.5063 118.578 36.5352C118.587 36.5945 118.617 36.6483 118.664 36.686C118.711 36.7236 118.77 36.7423 118.829 36.7382C118.858 36.7401 118.887 36.736 118.913 36.7263C118.94 36.7166 118.965 36.7014 118.986 36.6816C119.006 36.6619 119.023 36.6381 119.034 36.6117C119.045 36.5853 119.05 36.5569 119.05 36.5283C119.044 36.4684 119.017 36.4127 118.972 36.3724C118.927 36.3322 118.869 36.3104 118.809 36.3115L118.802 36.3218Z" fill="white"/>
<path id="Vector_77" d="M120.099 36.9721C119.972 36.9751 119.849 36.9315 119.753 36.8497C119.656 36.7678 119.593 36.6535 119.576 36.5283C119.575 36.4682 119.586 36.4086 119.609 36.3531C119.632 36.2977 119.666 36.2476 119.71 36.2059C119.753 36.1643 119.804 36.132 119.861 36.1111C119.917 36.0902 119.977 36.0811 120.037 36.0844C120.164 36.0799 120.288 36.123 120.384 36.2051C120.481 36.2872 120.544 36.4024 120.56 36.5283C120.562 36.5886 120.551 36.6487 120.529 36.7046C120.506 36.7606 120.472 36.8111 120.428 36.853C120.385 36.8949 120.333 36.9271 120.276 36.9476C120.219 36.9682 120.159 36.9765 120.099 36.9721ZM120.054 36.3149C120.025 36.3135 119.997 36.318 119.97 36.3282C119.943 36.3383 119.919 36.3539 119.899 36.374C119.878 36.394 119.862 36.4181 119.852 36.4447C119.841 36.4712 119.836 36.4997 119.837 36.5283C119.845 36.5872 119.874 36.6413 119.919 36.68C119.964 36.7188 120.022 36.7395 120.082 36.7382C120.11 36.7401 120.139 36.736 120.166 36.7263C120.192 36.7166 120.217 36.7013 120.238 36.6816C120.258 36.6619 120.275 36.6381 120.286 36.6117C120.297 36.5853 120.302 36.5569 120.302 36.5283C120.301 36.4632 120.274 36.401 120.228 36.3553C120.182 36.3096 120.119 36.284 120.054 36.284V36.3149Z" fill="white"/>
<path id="Vector_78" d="M113.823 37.6051C113.541 37.6773 113.296 37.5397 113.286 37.292C113.295 37.1565 113.348 37.0274 113.436 36.924C113.524 36.8205 113.642 36.7481 113.775 36.7174C114.057 36.6486 114.291 36.7896 114.305 37.0339C114.297 37.1686 114.247 37.2972 114.16 37.4003C114.073 37.5034 113.954 37.5753 113.823 37.6051ZM113.788 36.9513C113.725 36.9649 113.669 36.9989 113.627 37.0481C113.585 37.0972 113.561 37.1588 113.558 37.2232C113.561 37.2513 113.571 37.2782 113.586 37.302C113.602 37.3257 113.622 37.3455 113.647 37.3598C113.671 37.3742 113.698 37.3827 113.727 37.3846C113.755 37.3866 113.783 37.382 113.809 37.3711C113.872 37.357 113.928 37.3229 113.97 37.2738C114.012 37.2248 114.036 37.1635 114.04 37.0993C114.026 36.972 113.923 36.9169 113.788 36.9513Z" fill="white"/>
<path id="Vector_79" d="M116.827 36.3355C116.793 36.3405 116.759 36.3322 116.731 36.3122C116.704 36.2923 116.685 36.2624 116.679 36.2288C116.679 36.0774 116.679 36.0052 116.655 35.8538C116.655 35.7919 116.71 35.7403 116.789 35.7368C116.823 35.7317 116.858 35.74 116.886 35.7598C116.914 35.7797 116.934 35.8097 116.94 35.8435C116.94 35.9914 116.94 36.0671 116.964 36.2185C116.968 36.2839 116.909 36.3321 116.827 36.3355Z" fill="#263238"/>
<path id="Vector_80" d="M118.251 40.7568H118.076C118.076 40.7259 118.076 40.7087 118.076 40.6743C117.451 40.6675 116.828 40.7123 116.211 40.8084C116.238 41.2179 116.249 41.4312 116.276 41.8716C116.273 41.9917 116.294 42.1111 116.338 42.2227C116.383 42.3342 116.45 42.4354 116.535 42.5202C116.62 42.6049 116.721 42.6714 116.833 42.7155C116.945 42.7596 117.064 42.7804 117.184 42.7766H117.315C117.49 42.7556 117.655 42.6842 117.79 42.5712C117.925 42.4582 118.024 42.3084 118.076 42.14C118.117 42.1239 118.153 42.0965 118.179 42.0609L118.492 41.6755C118.538 41.6169 118.56 41.5432 118.554 41.4691C118.554 41.2902 118.554 41.2007 118.53 41.0252C118.528 40.9528 118.498 40.884 118.446 40.8338C118.393 40.7836 118.323 40.7559 118.251 40.7568ZM118.344 41.4725C118.349 41.4858 118.349 41.5006 118.344 41.5138L118.144 41.7581V41.7271C118.127 41.4243 118.12 41.2764 118.103 40.9839H118.279C118.292 40.9846 118.305 40.9902 118.316 40.9997C118.326 41.0091 118.332 41.0218 118.334 41.0355C118.33 41.2076 118.334 41.297 118.344 41.476V41.4725Z" fill="#263238"/>
<path id="Vector_81" d="M115.949 43.107C116.814 42.9768 117.684 42.8907 118.557 42.849C118.618 42.8372 118.675 42.8135 118.726 42.7792C118.776 42.745 118.82 42.7008 118.853 42.6494C117.78 42.6867 116.71 42.7924 115.65 42.966C115.687 43.0099 115.732 43.0452 115.784 43.0696C115.836 43.094 115.892 43.1068 115.949 43.107Z" fill="#263238"/>
<path id="Vector_82" d="M102.045 63.9579C102.068 64.1529 102.124 64.3426 102.21 64.5187C102.319 64.7824 102.466 65.0282 102.647 65.2482C102.917 65.5463 103.239 65.7924 103.597 65.9742C103.597 65.9742 103.834 66.0843 103.848 66.098C104.077 66.2169 104.315 66.3159 104.56 66.394C105.044 66.5752 105.555 66.674 106.071 66.6864C106.115 66.6855 106.16 66.6957 106.199 66.7162C106.239 66.7366 106.273 66.7666 106.298 66.8034C106.361 66.9021 106.428 66.9975 106.501 67.089C106.559 67.1681 106.612 67.2509 106.659 67.3367C106.688 67.4007 106.73 67.4583 106.781 67.5061C106.832 67.554 106.893 67.5911 106.959 67.6154C107.225 67.7056 107.504 67.7521 107.784 67.7531C108.465 67.7733 109.145 67.7214 109.814 67.5982C110.124 67.5397 110.568 67.4571 110.957 67.3505C111.393 67.2362 111.823 67.0972 112.244 66.9342C112.593 66.812 112.928 66.6516 113.241 66.4559C113.373 66.3823 113.484 66.2755 113.561 66.1462C113.596 66.074 113.613 66.012 113.651 65.9432C113.754 65.754 113.854 65.5613 113.95 65.372C114.098 65.083 114.222 64.7871 114.343 64.4981C114.468 64.2166 114.577 63.9282 114.669 63.6345C114.752 63.3386 114.841 63.0392 114.907 62.733C115.017 62.2203 115.11 61.6835 115.185 61.1261C115.22 60.8681 115.223 60.5584 115.244 60.2797C115.258 60.0487 115.238 59.8169 115.185 59.5916C115.146 59.4367 115.069 59.2938 114.962 59.1752C114.666 58.8675 114.303 58.6321 113.902 58.4871C113.524 58.3479 113.127 58.2678 112.725 58.2497C112.553 58.2497 112.381 58.2049 112.216 58.2015C110.445 58.1243 108.683 58.491 107.089 59.2681C106.727 59.4364 106.375 59.6272 106.036 59.8393C105.723 60.0393 105.43 60.2698 105.163 60.5274C104.955 60.7134 104.78 60.9333 104.646 61.1778C104.601 61.265 104.566 61.3574 104.543 61.453C104.509 61.5666 104.509 61.57 104.395 61.5769C104.056 61.5902 103.723 61.6718 103.417 61.8166C103.11 61.9614 102.835 62.1666 102.609 62.4199C102.436 62.6172 102.299 62.8446 102.207 63.0908C102.084 63.3626 102.028 63.66 102.045 63.9579ZM106.99 61.7042C106.626 61.7095 106.263 61.6783 105.906 61.6113C105.819 61.6045 105.734 61.5787 105.658 61.5356C105.777 61.3012 105.942 61.093 106.143 60.9231C106.275 60.812 106.413 60.7086 106.556 60.6135C106.798 60.4519 107.051 60.3082 107.313 60.1834C107.683 60.0067 108.062 59.8505 108.448 59.7154C109.102 59.4817 109.786 59.3415 110.479 59.2991C110.95 59.2546 111.423 59.2408 111.896 59.2578C112.362 59.268 112.825 59.3385 113.272 59.4677C113.647 59.5626 113.986 59.7633 114.25 60.0457C114.241 60.0558 114.232 60.065 114.222 60.0733C114.188 60.1008 114.153 60.1318 114.119 60.1558C114.026 60.2264 113.928 60.2907 113.826 60.3485C113.442 60.5621 113.036 60.735 112.615 60.8646L112.33 60.9541C112.277 60.9726 112.223 60.9876 112.168 60.9988C111.858 61.0952 111.545 61.164 111.232 61.2328C110.919 61.3016 110.616 61.3532 110.31 61.3945C110.073 61.422 109.794 61.4668 109.622 61.4977C109.608 61.501 109.594 61.501 109.58 61.4977C109.58 61.4977 109.58 61.4977 109.563 61.4977L109.46 61.5184L108.679 61.6113C108.438 61.6354 108.184 61.6732 107.922 61.6904C107.661 61.7076 107.306 61.7076 106.99 61.7042ZM103.741 63.3386C103.789 63.1931 103.87 63.0609 103.978 62.9527C104.087 62.8445 104.219 62.7633 104.364 62.7158C104.438 62.6879 104.514 62.666 104.591 62.6504C104.674 63.0599 104.794 63.4349 104.898 63.8099C105.038 64.2935 105.208 64.7681 105.407 65.231C105.493 65.4627 105.621 65.6762 105.785 65.8606C105.734 65.8331 105.503 65.7299 105.441 65.7024C105.108 65.5337 104.801 65.3157 104.533 65.0555C104.251 64.8192 104.017 64.5306 103.845 64.2056C103.771 64.0753 103.723 63.9314 103.706 63.7825C103.688 63.6336 103.7 63.4827 103.741 63.3386Z" fill="#525ECC"/>
<path id="Vector_83" opacity="0.7" d="M105.307 61.8419C106.071 62.2548 107.292 62.1551 109.845 61.8213C112.398 61.4875 113.923 60.9405 114.576 60.2454C115.01 59.7878 114.807 59.1616 114.487 58.79C114.301 58.6674 114.103 58.5659 113.895 58.4872C113.517 58.3477 113.121 58.2676 112.718 58.2498C112.55 58.2498 112.374 58.2051 112.213 58.1982C110.439 58.1087 108.672 58.4784 107.082 59.2717C106.721 59.4388 106.371 59.6285 106.033 59.8394C105.846 59.9604 105.667 60.0925 105.496 60.2351C104.939 60.7719 104.736 61.5392 105.307 61.8419ZM105.651 61.5357C105.768 61.3018 105.932 61.0944 106.133 60.9267C106.267 60.8166 106.401 60.7099 106.546 60.6136C106.788 60.4529 107.041 60.3081 107.303 60.1801C107.672 60.0041 108.051 59.8501 108.438 59.719C108.764 59.606 109.096 59.5129 109.432 59.4403C109.774 59.3749 110.118 59.329 110.465 59.3027C110.936 59.2571 111.409 59.2422 111.882 59.2579C112.348 59.269 112.811 59.3407 113.259 59.4713C113.633 59.5655 113.974 59.7649 114.239 60.0459L114.212 60.0734C114.179 60.1041 114.144 60.1328 114.108 60.1594C114.017 60.23 113.921 60.2933 113.819 60.3487C113.435 60.5633 113.029 60.7374 112.608 60.8682L112.319 60.9577L112.161 61.0024C111.851 61.0884 111.538 61.1676 111.225 61.2329C110.912 61.2983 110.609 61.3568 110.299 61.3946C110.062 61.4256 109.783 61.4669 109.611 61.4979H109.573H109.553H109.467H109.446C109.198 61.5323 108.94 61.5598 108.665 61.5942C108.39 61.6286 108.17 61.6527 107.912 61.6699C107.654 61.6871 107.303 61.6699 106.986 61.6699C106.623 61.6735 106.26 61.6423 105.902 61.577C105.817 61.5834 105.732 61.5693 105.654 61.5357H105.651Z" fill="white"/>
<path id="Vector_84" d="M105.658 61.5357C105.734 61.5789 105.819 61.6047 105.906 61.6114C106.263 61.6785 106.626 61.7096 106.99 61.7043C107.306 61.7043 107.612 61.7215 107.912 61.7043C108.211 61.6871 108.428 61.6493 108.669 61.6252L109.45 61.5323L109.553 61.5117C109.553 61.5117 109.553 61.5117 109.57 61.5117C109.584 61.5149 109.598 61.5149 109.611 61.5117C109.794 61.4807 110.072 61.436 110.3 61.4084C110.606 61.3671 110.919 61.3087 111.222 61.2467C111.524 61.1848 111.848 61.1091 112.158 61.0127C112.212 61.0015 112.266 60.9865 112.319 60.968L112.605 60.8786C113.025 60.749 113.431 60.576 113.816 60.3624C113.918 60.3047 114.015 60.2403 114.108 60.1698C114.143 60.1457 114.177 60.1147 114.212 60.0872C114.222 60.0789 114.231 60.0697 114.239 60.0597C113.976 59.7772 113.637 59.5765 113.262 59.4816C112.814 59.3525 112.352 59.2819 111.886 59.2717C111.413 59.2547 110.939 59.2685 110.468 59.313C109.775 59.3554 109.092 59.4956 108.438 59.7293C108.051 59.8644 107.672 60.0206 107.303 60.1973C107.041 60.3234 106.788 60.4671 106.546 60.6274C106.402 60.7225 106.264 60.8259 106.133 60.937C105.936 61.1031 105.775 61.3066 105.658 61.5357Z" fill="#263238"/>
<path id="Vector_85" opacity="0.3" d="M105.637 60.7684C105.728 60.6523 105.827 60.5431 105.933 60.4415C106.826 59.7035 107.86 59.1555 108.971 58.8312C109.56 58.6539 110.168 58.5498 110.781 58.5216C112.474 58.4252 113.534 58.7486 113.947 59.0067C114.053 59.0744 114.152 59.1528 114.243 59.2407C114.342 59.3454 114.4 59.4828 114.406 59.6271C114.412 59.7714 114.365 59.9129 114.274 60.0252C114.239 60.0631 114.201 60.0977 114.16 60.1284C113.214 59.2269 110.647 59.4161 109.777 59.5125C108.906 59.6742 106.728 60.3692 105.792 61.5769C105.747 61.5633 105.704 61.5461 105.661 61.5253C105.607 61.4793 105.563 61.4223 105.531 61.358C105.5 61.2937 105.483 61.2236 105.481 61.1522C105.478 61.0808 105.491 61.0098 105.518 60.9436C105.545 60.8775 105.586 60.8178 105.637 60.7684Z" fill="black"/>
<path id="Vector_86" d="M117.649 49.5892C116.641 48.8013 115.327 49.0594 113.999 49.3897C113.496 49.4849 113.017 49.6741 112.584 49.9471C112.175 50.2464 111.927 50.7488 112.175 51.0412C112.423 51.3337 113.07 51.4197 112.956 51.8257C111.872 52.4864 110.547 52.6171 109.405 53.0128C108.566 53.3173 107.822 53.837 107.248 54.5199C107.049 54.6973 106.908 54.9296 106.842 55.1874C106.783 55.6037 107.186 55.8273 107.564 55.9581C107.633 55.9822 107.626 56.0957 107.564 56.137C107.287 56.2902 107.034 56.4838 106.814 56.7116C106.673 56.863 106.776 57.0867 106.955 57.0351L107.021 57.0179C107.506 56.9009 107.884 57.1039 107.898 57.4824C107.878 57.6986 107.785 57.9018 107.636 58.0591C107.486 58.2164 107.287 58.3187 107.072 58.3494C106.955 58.377 107.041 58.5215 107.21 58.5318C107.544 58.5241 107.874 58.4467 108.177 58.3047C108.377 58.2533 108.564 58.1599 108.726 58.0305C108.887 57.9012 109.019 57.739 109.113 57.5546C109.305 57.1142 109.199 56.4432 108.855 56.4364C109.66 56.2211 110.451 55.958 111.225 55.6484C111.604 55.5324 111.931 55.2893 112.151 54.9603C112.326 54.6162 112.092 54.1379 111.724 54.2446C112.798 53.7319 113.926 53.3844 114.983 52.9371C116.031 52.5244 116.988 51.9081 117.797 51.1238C117.968 50.9682 118.088 50.7642 118.141 50.5389C118.149 50.3514 118.108 50.1651 118.022 49.9984C117.936 49.8318 117.807 49.6907 117.649 49.5892Z" fill="white"/>
<path id="Vector_87" d="M93.9283 74.9238V74.6898C93.871 71.1275 93.8056 67.5663 93.7322 64.0062C93.668 60.6825 93.606 57.3564 93.5464 54.028V53.9007L94.4754 53.6048C104.161 50.5356 114.177 47.3598 124.462 48.2441H124.606V48.3886C125.243 56.0856 125.638 62.8226 125.852 68.9816V69.1674H125.666C114.311 68.6995 103.356 71.7721 94.1382 74.8378L93.9283 74.9238ZM93.887 54.176C93.9421 57.4562 94.004 60.7364 94.0728 64.0166C94.1371 67.5009 94.2013 70.9841 94.2655 74.4662C103.415 71.4349 114.256 68.4207 125.508 68.8474C125.308 62.7813 124.906 56.1544 124.283 48.5985C114.112 47.7624 104.182 50.9107 94.5717 53.9592L93.887 54.176Z" fill="#525ECC"/>
<path id="Vector_88" d="M52.5669 28.1533L53.1691 28.2325C53.1966 29.7877 53.1175 29.9012 53.0624 31.1537L52.3743 31.0849C52.4915 30.1119 52.5558 29.1333 52.5669 28.1533Z" fill="#525ECC"/>
<path id="Vector_89" d="M56.4239 28.8106C56.5065 30.2935 56.4789 30.4621 56.4962 31.6767L55.9319 31.5735C55.3332 30.7271 55.0373 30.3279 54.4695 29.5675C54.4695 30.2316 54.4695 30.5998 54.4489 31.3326L53.7607 31.2397C53.7883 29.9942 53.8502 29.8634 53.802 28.3289L54.3285 28.4183C54.9237 29.4505 55.2265 29.4505 55.7942 30.5069C55.8127 29.8963 55.7978 29.2853 55.7495 28.6764L56.4239 28.8106Z" fill="#525ECC"/>
<path id="Vector_90" d="M56.9607 31.4874C57.0502 31.3154 57.0949 31.2362 57.1809 31.0883C57.4696 31.3108 57.8011 31.4713 58.1546 31.5596C58.5538 31.6491 58.712 31.5596 58.712 31.422C58.712 30.9678 57.0295 30.7648 56.9917 29.7945C56.9917 29.3507 57.3357 28.9412 58.1959 29.1408C58.5792 29.237 58.9334 29.4247 59.2282 29.6879C59.1722 29.8438 59.1079 29.9965 59.0355 30.1455C58.7934 29.9524 58.5131 29.8128 58.2131 29.736C57.8071 29.6397 57.6557 29.736 57.6626 29.915C57.6798 30.4001 59.3555 30.6582 59.3624 31.539C59.3624 31.9416 58.977 32.2547 58.1478 32.0723C57.7124 31.9711 57.3062 31.7709 56.9607 31.4874Z" fill="#525ECC"/>
<path id="Vector_91" d="M60.3947 30.3314C60.03 30.2316 59.8442 30.1835 59.4691 30.0906C59.4691 29.8807 59.4691 29.7706 59.4519 29.5022C60.4841 29.7603 60.9899 29.8979 61.9568 30.1904C61.9568 30.4484 61.9568 30.5585 61.9568 30.7753C61.6127 30.6721 61.4269 30.6239 61.0656 30.5241C61.0656 31.4428 61.0347 31.7938 61.0071 32.7434L60.374 32.5714C60.3809 31.6011 60.4016 31.2432 60.3947 30.3314Z" fill="#525ECC"/>
<path id="Vector_92" d="M64.0419 33.6552C63.8752 33.3377 63.6891 33.0309 63.4845 32.7365H63.4466L62.8239 32.5438C62.8067 32.8191 62.7998 32.9395 62.7826 33.2629C62.5039 33.1769 62.4179 33.1494 62.177 33.0805C62.2389 31.921 62.2768 31.6526 62.3009 30.2832C62.7723 30.4208 62.9168 30.4621 63.5533 30.6617C64.5339 30.9679 64.9915 31.5976 64.9296 32.2169C64.9257 32.3079 64.9037 32.3972 64.8649 32.4797C64.8262 32.5621 64.7715 32.6361 64.7039 32.6972C64.6364 32.7583 64.5574 32.8054 64.4715 32.8358C64.3856 32.8662 64.2946 32.8792 64.2036 32.8741C64.419 33.2062 64.6143 33.5509 64.7885 33.9063L64.0419 33.6552ZM63.4845 31.2225L62.9064 31.0402C62.8892 31.4427 62.8789 31.6079 62.8548 32.0208L63.4329 32.2032C63.918 32.358 64.1589 32.2513 64.1864 31.9485C64.2139 31.6457 63.9937 31.3808 63.4845 31.2225Z" fill="#525ECC"/>
<path id="Vector_93" d="M65.3632 32.9292C65.4389 32.303 65.4767 32.0381 65.5421 31.3052L66.1305 31.5082C66.0686 32.2307 66.0342 32.5094 65.9653 33.1185C65.9034 33.6449 66.0961 33.903 66.4023 34.0199C66.7085 34.1369 66.9356 34.0199 66.9632 33.4729C66.9976 32.8535 67.0148 32.5335 67.0457 31.8006L67.7132 32.0174C67.6754 32.7572 67.6582 33.0737 67.6203 33.7137C67.5687 34.5567 67.001 34.7872 66.3507 34.5395C66.0203 34.4342 65.7387 34.2137 65.5574 33.918C65.3761 33.6224 65.3072 33.2715 65.3632 32.9292Z" fill="#525ECC"/>
<path id="Vector_94" d="M68.1054 33.7067C68.0989 33.5163 68.1425 33.3276 68.2316 33.1592C68.3208 32.9909 68.4525 32.8489 68.6136 32.7473C68.7747 32.6456 68.9597 32.588 69.15 32.58C69.3403 32.5721 69.5294 32.6142 69.6984 32.702C70.1652 32.8881 70.5448 33.2431 70.7616 33.6964C70.6383 33.8021 70.5032 33.8933 70.3591 33.9682C70.2114 33.6946 69.9815 33.4744 69.7019 33.3385C69.602 33.2837 69.4891 33.2569 69.3752 33.2609C69.2613 33.2648 69.1506 33.2995 69.0548 33.3612C68.9589 33.4228 68.8815 33.5092 68.8307 33.6112C68.7799 33.7132 68.7575 33.827 68.766 33.9407C68.7542 34.2172 68.8274 34.4907 68.9756 34.7244C69.1238 34.9582 69.3401 35.1409 69.5952 35.2482C69.7056 35.3041 69.8303 35.3255 69.9531 35.3096C70.0758 35.2936 70.1909 35.241 70.2834 35.1587L70.6619 35.7608C70.3935 36.0258 69.9909 36.043 69.5092 35.8331C69.0913 35.657 68.7349 35.3611 68.4851 34.9826C68.2352 34.6042 68.1031 34.1602 68.1054 33.7067Z" fill="#525ECC"/>
<path id="Vector_95" d="M71.6528 34.1541L70.8477 33.8272C70.8477 33.5726 70.8477 33.4659 70.8649 33.2319C71.7526 33.6001 72.1724 33.7618 73.1805 34.1885C73.1805 34.4121 73.1805 34.5085 73.1564 34.77C72.7951 34.6151 72.6128 34.5394 72.2343 34.388C72.2343 35.5063 72.2068 35.8469 72.1689 36.9583L71.5771 36.6899C71.6184 35.5957 71.6459 35.2517 71.6528 34.1541Z" fill="#525ECC"/>
<path id="Vector_96" d="M73.5382 34.3433C73.7997 34.4568 73.9305 34.5119 74.1885 34.6288C74.0991 35.7574 74.0681 36.3836 73.958 37.7771L73.3352 37.4881C73.4247 36.1049 73.4591 35.4994 73.5382 34.3433Z" fill="#525ECC"/>
<path id="Vector_97" d="M74.5672 36.246C74.6464 35.3376 75.3139 35.0795 76.1362 35.4649C76.5457 35.625 76.8968 35.9059 77.1426 36.2704C77.3885 36.6349 77.5175 37.0657 77.5125 37.5053C77.4678 38.4309 76.8037 39.1569 75.947 38.7577C75.0902 38.3586 74.4915 37.1509 74.5672 36.246ZM76.876 37.2369C76.8948 36.9803 76.8308 36.7245 76.6933 36.5071C76.5557 36.2896 76.352 36.1221 76.1121 36.0292C75.6408 35.8193 75.2554 35.9363 75.2072 36.5178C75.1832 36.8154 75.2422 37.1138 75.3776 37.3799C75.5131 37.6459 75.7197 37.8692 75.9745 38.0248C76.4597 38.2451 76.8416 37.8218 76.8657 37.2369H76.876Z" fill="#525ECC"/>
<path id="Vector_98" d="M80.1827 37.4193C80.1827 38.3827 80.2274 39.2257 80.2136 40.8222C80.1654 40.7947 80.0313 40.7018 79.9074 40.6364C79.5358 39.4768 79.2192 38.5719 78.6377 37.7255C78.6825 38.3173 78.6997 39.1018 78.7341 40.0411C78.4485 39.8932 78.2937 39.814 77.9874 39.6661C77.9874 38.1556 77.9874 37.3986 77.9668 36.3767L78.4416 36.6038C78.9715 37.464 79.3741 37.8012 79.8386 38.9642C79.7801 37.9904 79.8042 37.8838 79.7319 37.261C79.9624 37.3642 79.9624 37.316 80.1827 37.4193Z" fill="#525ECC"/>
<path id="Vector_99" d="M60.7216 38.0559C60.756 37.299 60.7697 36.979 60.7973 36.2254C60.4532 36.7622 60.2571 36.9962 59.8648 37.5157L59.5483 37.44C59.2386 36.776 59.0872 36.4663 58.7913 35.7885C58.7294 36.5213 58.695 36.8448 58.6261 37.557L57.938 37.4091C58.0722 36.2082 58.1307 35.6439 58.2545 34.4053L58.8085 34.5291C59.1732 35.3997 59.3659 35.8126 59.7582 36.6624C60.2399 36.0156 60.467 35.7231 60.9005 35.0453L61.4132 35.1829C61.3788 36.4491 61.3719 36.9411 61.334 38.2176C61.1035 38.1523 60.9762 38.1179 60.7216 38.0559Z" fill="#525ECC"/>
<path id="Vector_100" d="M64.0179 38.3175C63.4226 38.1248 63.0373 38.0078 62.5487 37.8702C62.4558 38.1041 62.4076 38.2142 62.3044 38.4757C62.0498 38.4035 61.919 38.3656 61.6506 38.2968C62.1874 37.1476 62.356 36.7244 62.9065 35.6165C63.1783 35.699 63.3401 35.7506 63.6222 35.8435C64.1727 37.299 64.4962 37.8117 65.0329 39.3531C64.7576 39.2533 64.6131 39.1983 64.3069 39.0951C64.1934 38.7682 64.1349 38.6168 64.0179 38.3175ZM63.777 37.7119C63.5637 37.1854 63.457 36.8242 63.2575 36.3803C63.0589 36.7083 62.8907 37.0539 62.7551 37.4125C63.1026 37.502 63.3676 37.5811 63.7908 37.7119H63.777Z" fill="#525ECC"/>
<path id="Vector_101" d="M67.5755 37.3162C67.5549 38.6306 67.5755 38.9609 67.5549 40.3338L67.0559 40.1273C66.533 39.0779 66.3678 38.7304 65.8345 37.7704C65.862 38.5446 65.8758 38.8336 65.893 39.6697L65.3115 39.4461C65.2805 38.0698 65.2392 37.6844 65.2083 36.3838L65.7072 36.573C66.2302 37.5537 66.4125 37.9184 66.9527 38.8577C66.9527 38.142 66.9527 37.8496 66.9527 37.0582C67.2073 37.1717 67.3346 37.2233 67.5755 37.3162Z" fill="#525ECC"/>
<path id="Vector_102" d="M68.1915 39.2704C68.1915 38.627 68.1915 38.3414 68.2225 37.5947L68.8625 37.87C68.8384 38.6132 68.8281 38.9022 68.8178 39.5284C68.7886 39.7391 68.8285 39.9535 68.9315 40.1396C69.0345 40.3257 69.195 40.4734 69.3889 40.5607C69.7674 40.7293 69.9945 40.6054 70.0117 40.0858C70.0358 39.4803 70.0496 39.1637 70.0874 38.4067L70.7033 38.682C70.662 39.4596 70.6448 39.7899 70.6207 40.4024C70.5829 41.1903 70.1149 41.5516 69.3648 41.2144C69.0007 41.0405 68.6954 40.7637 68.4869 40.4182C68.2784 40.0727 68.1757 39.6736 68.1915 39.2704Z" fill="#525ECC"/>
<path id="Vector_103" d="M72.9707 42.03L71.6564 41.4623C71.5482 41.6483 71.4528 41.8414 71.3708 42.0404L70.7549 41.772C71.2607 40.6331 71.5566 40.5127 72.0899 39.3015L72.6817 39.5699C73.1118 41.2249 73.3458 41.5759 73.9066 43.1311L73.2185 42.8352C73.1118 42.5049 73.0808 42.3431 72.9707 42.03ZM72.7712 41.4967C72.5923 41.0563 72.5131 40.695 72.3583 40.1789C72.2173 40.4943 72.0599 40.802 71.8869 41.101L72.7712 41.4967Z" fill="#525ECC"/>
<path id="Vector_104" d="M74.1613 40.2339L74.7978 40.5195C74.7978 41.7375 74.8391 41.8958 74.8322 42.928L76.1776 43.5095C76.1776 43.7469 76.1776 43.8708 76.1776 44.1151L74.1819 43.2652C74.1372 41.9199 74.1613 41.7203 74.1613 40.2339Z" fill="#525ECC"/>
</g>
<g id="Graphics">
<path id="Vector_105" d="M77.8567 26.8011L80.5577 25.2769L83.2449 31.8315L77.8567 26.8011Z" fill="#525ECC"/>
<path id="Vector_106" d="M92.5523 29.4507L90.1163 27.5308L86.4587 33.5968L92.5523 29.4507Z" fill="#525ECC"/>
<path id="Vector_107" d="M83.675 23.4775L87.3051 23.8216L85.4952 31.959L83.675 23.4775Z" fill="#525ECC"/>
<path id="Vector_108" d="M110.585 4.25037C110.545 4.24958 110.507 4.23516 110.476 4.20951C110.445 4.18386 110.424 4.1485 110.417 4.1093C110.412 4.08713 110.412 4.06428 110.417 4.04213C110.421 4.01997 110.43 3.99895 110.443 3.98033C110.456 3.96171 110.472 3.94587 110.492 3.93374C110.511 3.92161 110.532 3.91345 110.554 3.90974C111.683 3.68953 112.822 3.50029 113.937 3.34201C113.982 3.33562 114.028 3.34762 114.065 3.37537C114.102 3.40312 114.126 3.44434 114.133 3.48996C114.139 3.53559 114.127 3.58189 114.099 3.61867C114.072 3.65545 114.03 3.6797 113.985 3.68609C112.877 3.84436 111.745 4.03017 110.62 4.25037H110.585Z" fill="#525ECC"/>
<path id="Vector_109" d="M96.1033 8.55824C96.0577 8.56691 96.0105 8.5571 95.9721 8.53096C95.9337 8.50483 95.9073 8.46452 95.8986 8.41889C95.8899 8.37326 95.8997 8.32606 95.9259 8.28766C95.952 8.24927 95.9923 8.22283 96.0379 8.21416C100.249 6.51838 104.595 5.17867 109.03 4.20911C109.075 4.1999 109.122 4.20881 109.161 4.23392C109.2 4.25902 109.227 4.29831 109.237 4.3433C109.242 4.36523 109.242 4.38795 109.238 4.41012C109.235 4.43228 109.226 4.45345 109.214 4.47237C109.202 4.49129 109.186 4.50758 109.168 4.52028C109.149 4.53297 109.128 4.54182 109.106 4.5463C104.69 5.51113 100.362 6.84391 96.1687 8.53071C96.1493 8.54471 96.1269 8.55413 96.1033 8.55824Z" fill="#525ECC"/>
<path id="Vector_110" d="M64.9297 93.1839H61.1139C61.0683 93.1839 61.0245 93.1658 60.9923 93.1335C60.96 93.1013 60.9419 93.0575 60.9419 93.0119C60.9419 92.9663 60.96 92.9225 60.9923 92.8902C61.0245 92.858 61.0683 92.8398 61.1139 92.8398H64.9297C64.9754 92.8398 65.0191 92.858 65.0514 92.8902C65.0837 92.9225 65.1018 92.9663 65.1018 93.0119C65.1018 93.0575 65.0837 93.1013 65.0514 93.1335C65.0191 93.1658 64.9754 93.1839 64.9297 93.1839Z" fill="#525ECC"/>
<path id="Vector_111" d="M59.0702 93.1839H45.3725C45.3269 93.1839 45.2831 93.1658 45.2508 93.1335C45.2186 93.1013 45.2004 93.0575 45.2004 93.0119C45.2004 92.9663 45.2186 92.9225 45.2508 92.8902C45.2831 92.858 45.3269 92.8398 45.3725 92.8398H59.0702C59.1155 92.8407 59.1588 92.8591 59.1908 92.8912C59.2229 92.9233 59.2413 92.9665 59.2422 93.0119C59.2422 93.0575 59.2241 93.1013 59.1918 93.1335C59.1596 93.1658 59.1158 93.1839 59.0702 93.1839Z" fill="#525ECC"/>
</g>
<g id="Character">
<g id="group">
<path id="Vector_112" d="M76.4461 48.3576C76.5471 48.1554 76.6869 47.9751 76.8576 47.8269C77.0282 47.6787 77.2264 47.5656 77.4408 47.4941C77.6552 47.4225 77.8816 47.3939 78.1071 47.4098C78.3325 47.4257 78.5526 47.4859 78.7548 47.5869C78.957 47.6879 79.1374 47.8277 79.2855 47.9984C79.4337 48.169 79.5468 48.3672 79.6183 48.5816C79.6899 48.796 79.7186 49.0224 79.7026 49.2479C79.6867 49.4733 79.6265 49.6934 79.5256 49.8956V49.9232C78.9097 51.1962 78.3006 52.5347 77.7226 53.8491C77.1445 55.1634 76.5906 56.4916 76.1433 57.8128C76.0263 58.1569 75.9265 58.47 75.8302 58.8003L75.7751 58.9793C75.7619 59.0074 75.7537 59.0377 75.751 59.0687C75.734 59.1641 75.7271 59.2609 75.7304 59.3577C75.7768 59.9472 75.909 60.5268 76.1226 61.0781C76.6298 62.3912 77.2276 63.6673 77.9118 64.8974L77.9325 64.9352C78.0359 65.1184 78.0687 65.3331 78.0245 65.5388C77.9804 65.7444 77.8624 65.9268 77.6929 66.0514C77.5234 66.176 77.3142 66.2341 77.1047 66.2148C76.8952 66.1956 76.7001 66.1002 76.5562 65.9468C75.4275 64.8357 74.4583 63.5736 73.6762 62.1964C73.2262 61.4194 72.9087 60.5728 72.7369 59.6915C72.6938 59.4185 72.6766 59.142 72.6853 58.8657C72.6927 58.5885 72.7296 58.3128 72.7954 58.0434C72.8814 57.6546 72.9675 57.2623 73.0707 56.8873C73.4702 55.3963 73.9608 53.9312 74.5399 52.5003C75.1179 51.0861 75.7304 49.7167 76.4495 48.337L76.4461 48.3576Z" fill="#CB7A63"/>
<path id="Vector_113" d="M76.945 64.8872L76.7042 65.0661C76.5864 65.1487 76.4975 65.2662 76.45 65.402C76.4025 65.5378 76.3987 65.685 76.4392 65.8231C76.6172 66.3619 76.9299 66.8463 77.3476 67.2303L79.0336 65.2175L77.585 64.7771C77.4772 64.7434 77.363 64.7358 77.2517 64.7549C77.1404 64.7741 77.0353 64.8194 76.945 64.8872Z" fill="#CB7A63"/>
<path id="Vector_114" d="M79.0405 65.2173L77.3545 67.2301L79.24 67.8976L81.0499 66.425L79.0405 65.2173Z" fill="#CB7A63"/>
<path id="Vector_115" d="M87.1263 37.7051C87.2433 37.6811 87.3706 37.8049 87.4084 37.9838C87.4463 38.1628 87.3843 38.3279 87.2674 38.352C87.1504 38.3761 87.0231 38.2522 86.9852 38.0733C86.9474 37.8944 87.0093 37.7258 87.1263 37.7051Z" fill="#263238"/>
<path id="Vector_116" d="M87.4943 40.0688C87.6484 40.0766 87.8023 40.0497 87.9446 39.9901C88.0869 39.9306 88.214 39.8399 88.3167 39.7248C87.8625 39.3312 87.4643 38.8774 87.1331 38.376L87.4943 40.0688Z" fill="#B74D3C"/>
<path id="Vector_117" d="M86.1905 37.1992C86.2771 37.094 86.3874 37.0107 86.5124 36.9563C86.6374 36.9019 86.7735 36.8778 86.9096 36.8861H86.944C86.9732 36.8861 87.0012 36.8745 87.0218 36.8538C87.0425 36.8332 87.0541 36.8052 87.0541 36.776C87.0541 36.7468 87.0425 36.7188 87.0218 36.6981C87.0012 36.6775 86.9732 36.6659 86.944 36.6659C86.775 36.6503 86.6048 36.6753 86.4474 36.7387C86.29 36.8021 86.15 36.9022 86.0391 37.0306C86.0214 37.0506 86.0117 37.0762 86.0115 37.1029C86.0111 37.1172 86.0135 37.1314 86.0186 37.1447C86.0238 37.1581 86.0316 37.1702 86.0415 37.1805C86.0515 37.1908 86.0634 37.1989 86.0766 37.2045C86.0897 37.2101 86.1039 37.213 86.1182 37.213C86.1432 37.2177 86.169 37.2128 86.1905 37.1992Z" fill="#263238"/>
<path id="Vector_118" d="M85.0033 48.1271C81.9066 48.1581 81.4456 46.479 81.4456 46.479C82.3642 45.5844 82.409 43.9362 82.2128 42.467C82.4594 42.8162 82.7714 43.1142 83.1315 43.3444C83.4588 43.5668 83.8292 43.7179 84.2186 43.7879C84.6081 43.8578 85.0079 43.8451 85.3921 43.7504C85.4045 43.7542 85.4176 43.7542 85.43 43.7504C85.4267 43.7802 85.4267 43.8102 85.43 43.8399C85.2442 45.0167 85.4093 46.276 86.6446 46.6441C86.6274 46.6304 88.4028 48.0893 85.0033 48.1271Z" fill="#CB7A63"/>
<path id="Vector_119" d="M85.5158 43.3032C85.4778 43.4457 85.4491 43.5906 85.4298 43.7368C85.4174 43.7405 85.4042 43.7405 85.3919 43.7368C85.0077 43.8314 84.6079 43.8441 84.2184 43.7742C83.829 43.7042 83.4586 43.5532 83.1313 43.3308C82.7712 43.1005 82.4592 42.8025 82.2126 42.4534C82.1679 42.0818 82.0991 41.717 82.0303 41.3867L85.3885 43.2206L85.5158 43.3032Z" fill="#CB7A63"/>
<path id="Vector_120" d="M80.5063 46.7645C80.5063 46.7645 80.9949 45.2575 81.7313 44.7827C82.4676 44.3078 85.6985 44.7999 86.2043 44.9994C86.7101 45.199 87.2365 46.3757 87.2365 46.3757L80.5063 46.7645Z" fill="#525ECC"/>
<path id="Vector_121" d="M80.1003 51.4888C79.7339 53.0752 78.8095 54.4771 77.4957 55.4388L73.9104 52.7997C73.9104 52.7997 76.0265 46.9814 78.146 46.4687C80.3068 45.9561 80.7919 48.633 80.1003 51.4888Z" fill="#263238"/>
<path id="Vector_122" opacity="0.2" d="M80.1967 50.9797C80.1691 51.1483 80.1313 51.3237 80.09 51.4889C79.7253 53.0743 78.8035 54.476 77.4922 55.4389L77.303 55.2944C77.3528 53.5185 78.0419 51.8203 79.2436 50.5117L80.1967 50.9797Z" fill="black"/>
<path id="Vector_123" d="M73.4493 51.5095L72.9951 53.3262L77.4784 56.2234L78.2354 54.792L73.4493 51.5095Z" fill="#525ECC"/>
<path id="Vector_124" d="M88.2203 46.1212C87.7214 46.0386 87.164 45.9629 86.5929 45.9181C84.8729 45.8368 83.1496 45.8552 81.4317 45.9732C80.3238 46.0548 79.224 46.2227 78.1423 46.4756C79.0232 58.6043 78.4864 64.5499 78.2937 66.2841L90.4396 66.1533C91.6955 56.1544 91.348 51.1137 90.8594 48.6673C90.7299 48.0253 90.408 47.4378 89.9366 46.983C89.4652 46.5282 88.8666 46.2276 88.2203 46.1212Z" fill="#263238"/>
<path id="Vector_125" opacity="0.2" d="M90.3469 66.1534H90.4535C91.2311 59.8912 91.3894 55.5765 91.2759 52.6243L85.9358 49.5276C86.7547 57.8611 88.9293 61.6666 90.3469 66.1534Z" fill="black"/>
<path id="Vector_126" d="M87.725 40.7844C87.7154 41.3152 87.5708 41.8347 87.3047 42.2941C87.0386 42.7534 86.6599 43.1374 86.2042 43.4097C85.9702 43.5554 85.7148 43.6634 85.4472 43.7297C85.4349 43.7334 85.4217 43.7334 85.4094 43.7297C85.0252 43.8243 84.6254 43.8371 84.2359 43.7671C83.8465 43.6972 83.4761 43.5461 83.1488 43.3237C82.7887 43.0934 82.4767 42.7954 82.2301 42.4463C81.6245 41.6171 81.3734 40.5126 80.9398 38.9539C80.7988 38.4526 80.7871 37.9237 80.906 37.4167C81.0249 36.9097 81.2705 36.4411 81.6197 36.0548C81.9689 35.6684 82.4104 35.377 82.9029 35.2076C83.3953 35.0383 83.9227 34.9966 84.4357 35.0865C86.7719 35.4994 87.7698 38.6924 87.725 40.7844Z" fill="#CB7A63"/>
<path id="Vector_127" opacity="0.2" d="M86.1869 43.4167C85.9529 43.5624 85.6975 43.6704 85.4299 43.7367L85.5125 42.3604C85.5125 42.3604 86.0252 43.4167 86.1869 43.4167Z" fill="black"/>
<path id="Vector_128" d="M86.376 39.5974C86.3309 40.0784 86.1851 40.5445 85.948 40.9654C85.7108 41.3863 85.3877 41.7526 84.9997 42.0403C84.896 42.1143 84.7793 42.1681 84.6556 42.1986C84.2634 42.2881 83.8952 41.9509 83.7163 41.5896C83.5117 41.1066 83.4098 40.5864 83.4169 40.0619C83.3722 38.8335 83.5236 37.4848 84.3907 36.6211C84.582 36.3995 84.8498 36.2582 85.1408 36.2254C86.2521 36.1704 86.4517 38.892 86.376 39.5974Z" fill="#263238"/>
<path id="Vector_129" d="M86.4245 35.2071C86.08 34.8718 85.6525 34.6343 85.1858 34.5189C84.5276 34.2975 83.8423 34.1667 83.1489 34.1301C82.4477 34.0987 81.7588 34.321 81.2083 34.7563C80.6233 35.2587 80.3446 36.0191 80.0866 36.7451L79.6186 38.0457C79.4924 38.2764 79.438 38.5396 79.4625 38.8014C79.4871 39.0632 79.5894 39.3117 79.7563 39.5149C80.1829 40.2031 80.6107 40.8912 81.0397 41.5794C81.2393 41.8687 81.3882 42.1898 81.4801 42.529C81.5227 42.6991 81.5203 42.8773 81.4733 43.0462C81.4262 43.2151 81.3361 43.3689 81.2117 43.4925C81.428 43.465 81.6363 43.393 81.8234 43.2811C82.0106 43.1692 82.1725 43.0197 82.299 42.8421C82.3162 43.0451 82.2805 43.2491 82.1955 43.4342C82.1105 43.6193 81.979 43.7792 81.8139 43.8985C82.3141 43.7153 82.7577 43.4045 83.1007 42.997C83.0295 43.2203 82.8958 43.4186 82.7153 43.5682C83.4035 43.6714 83.9678 43.052 84.36 42.4774C84.8452 41.7686 85.2993 40.874 84.9553 40.0895C84.8417 39.8315 84.649 39.6113 84.5355 39.3498C84.4361 39.0597 84.4133 38.7489 84.4693 38.4475C84.5254 38.1461 84.6584 37.8643 84.8555 37.6294C85.2529 37.1624 85.7292 36.7687 86.2628 36.4664C86.2628 36.4664 86.9475 35.7817 86.4245 35.2071Z" fill="#263238"/>
<path id="Vector_130" d="M85.8118 37.9631C86.4586 38.1558 86.7993 39.1123 86.844 39.7179C86.875 40.4061 86.4277 40.8121 85.8427 40.3648C85.4012 40.0163 85.0858 39.533 84.9447 38.9885C84.7795 38.3485 85.1649 37.7739 85.8118 37.9631Z" fill="#CB7A63"/>
<path id="Vector_131" d="M84.6696 123.869C84.6582 123.867 84.6476 123.862 84.6396 123.854C84.6315 123.846 84.6263 123.835 84.6248 123.824C84.6211 123.813 84.6215 123.801 84.6259 123.79C84.6304 123.78 84.6385 123.771 84.6489 123.766C84.6937 123.745 85.5263 123.249 85.9289 123.349C85.9675 123.356 86.0042 123.371 86.0363 123.394C86.0684 123.417 86.0952 123.446 86.1147 123.48C86.1405 123.516 86.1543 123.559 86.1543 123.604C86.1543 123.648 86.1405 123.692 86.1147 123.728C86.0184 123.869 85.7328 123.917 85.4265 123.924C85.1731 123.928 84.9197 123.91 84.6696 123.869ZM85.7878 123.442C85.4567 123.49 85.1378 123.601 84.8485 123.769C85.2992 123.824 85.9083 123.807 86.0184 123.652C86.0424 123.628 86.0562 123.597 86.0184 123.525C86.0054 123.504 85.9883 123.486 85.9682 123.473C85.948 123.459 85.9253 123.45 85.9014 123.446C85.8648 123.44 85.8278 123.44 85.7913 123.446L85.7878 123.442Z" fill="#525ECC"/>
<path id="Vector_132" d="M84.6454 123.858C84.6381 123.852 84.6322 123.844 84.6281 123.835C84.6239 123.826 84.6216 123.817 84.6213 123.807C84.6257 123.465 84.7471 123.134 84.9654 122.871C85.0082 122.832 85.0589 122.802 85.1141 122.784C85.1694 122.767 85.2278 122.761 85.2854 122.768C85.4437 122.768 85.4987 122.861 85.5022 122.923C85.5538 123.201 84.9929 123.724 84.7005 123.862H84.6798C84.6683 123.864 84.6563 123.863 84.6454 123.858ZM85.2544 122.878C85.1792 122.879 85.1075 122.91 85.0549 122.964C84.8811 123.178 84.7756 123.439 84.7521 123.714C85.048 123.528 85.4402 123.112 85.3955 122.947C85.3955 122.947 85.3955 122.885 85.282 122.885H85.251L85.2544 122.878Z" fill="#525ECC"/>
<path id="Vector_133" d="M82.1269 118.302L84.532 118.257L84.4425 123.81L82.0271 123.858L82.1269 118.302Z" fill="#CB7A63"/>
<path id="Vector_134" d="M85.0067 123.71C86.672 124.684 87.1778 124.719 89.0874 125.087C89.5038 125.169 89.2595 126.177 88.2651 126.198C86.6204 126.229 86.4484 126.157 85.0445 126.181C83.8437 126.205 82.4674 126.288 81.5109 126.322C81.4823 126.325 81.4534 126.325 81.4248 126.322C81.3792 126.313 81.3357 126.296 81.2971 126.27C81.2584 126.244 81.2254 126.211 81.2 126.172C81.1746 126.133 81.1574 126.089 81.1493 126.044C81.1412 125.998 81.1425 125.951 81.153 125.906L81.5762 123.748C81.5868 123.702 81.6124 123.66 81.6491 123.63C81.6858 123.599 81.7316 123.582 81.7792 123.58L84.4218 123.531C84.6297 123.535 84.8324 123.597 85.0067 123.71Z" fill="#263238"/>
<path id="Vector_135" opacity="0.2" d="M82.1234 118.305L82.0752 121.161L84.4872 121.113L84.5319 118.26L82.1234 118.305Z" fill="black"/>
<path id="Vector_136" d="M64.5102 124.23C64.5084 124.242 64.5032 124.252 64.4952 124.261C64.4873 124.27 64.4769 124.276 64.4655 124.278C64.4536 124.281 64.4413 124.279 64.4306 124.273C64.4199 124.268 64.4115 124.258 64.407 124.247C64.3829 124.206 63.9046 123.37 64.0147 122.967C64.0343 122.892 64.0809 122.828 64.1455 122.785C64.1822 122.759 64.2261 122.745 64.2711 122.745C64.3161 122.745 64.36 122.759 64.3967 122.785C64.5377 122.885 64.5756 123.17 64.579 123.494C64.5781 123.741 64.5551 123.987 64.5102 124.23ZM64.1076 123.112C64.147 123.442 64.2498 123.761 64.4104 124.051C64.4724 123.604 64.4689 122.995 64.3141 122.885C64.2934 122.861 64.259 122.847 64.1868 122.885C64.1658 122.896 64.1478 122.913 64.1341 122.932C64.1204 122.952 64.1114 122.975 64.1076 122.998C64.1042 123.035 64.1042 123.072 64.1076 123.108V123.112Z" fill="#525ECC"/>
<path id="Vector_137" d="M64.5065 124.254C64.5007 124.262 64.4929 124.269 64.4838 124.273C64.4748 124.277 64.4648 124.279 64.4549 124.278C64.4308 124.278 63.7667 124.233 63.5259 123.913C63.4878 123.87 63.4592 123.819 63.4421 123.764C63.4249 123.709 63.4194 123.651 63.4261 123.593C63.4433 123.439 63.5224 123.383 63.5878 123.383C63.8631 123.335 64.3826 123.903 64.5134 124.192V124.216C64.5161 124.229 64.5136 124.243 64.5065 124.254ZM63.5293 123.642C63.5334 123.714 63.5626 123.784 63.6119 123.838C63.8234 124.015 64.0839 124.123 64.3585 124.147C64.1762 123.851 63.7702 123.459 63.605 123.494C63.605 123.494 63.5396 123.494 63.5396 123.604V123.642H63.5293Z" fill="#525ECC"/>
<path id="Vector_138" d="M65.7556 118.608L68.1022 118.728L66.836 124.354L64.4756 124.23L65.7556 118.608Z" fill="#CB7A63"/>
<path id="Vector_139" d="M63.9046 123.934C63.2715 124.698 62.9377 125.09 61.09 125.706C60.684 125.84 61.0522 126.811 62.0431 126.704C63.6809 126.529 62.776 126.549 64.173 126.398C65.3669 126.267 66.7432 126.178 67.6963 126.092C67.7278 126.089 67.7589 126.083 67.7892 126.074C67.834 126.061 67.8756 126.038 67.9114 126.008C67.9472 125.978 67.9764 125.941 67.9974 125.899C68.0183 125.857 68.0305 125.811 68.0331 125.765C68.0358 125.718 68.0289 125.671 68.0129 125.627L67.3247 123.542C67.3093 123.496 67.2786 123.457 67.2379 123.432C67.1972 123.406 67.1489 123.395 67.101 123.401L64.4792 123.68C64.3713 123.682 64.2649 123.705 64.1662 123.749C64.0676 123.793 63.9786 123.856 63.9046 123.934Z" fill="#263238"/>
<path id="Vector_140" opacity="0.2" d="M65.7521 118.611L65.0984 121.502L67.4484 121.622L68.1022 118.728L65.7521 118.611Z" fill="black"/>
<path id="Vector_141" d="M78.2973 66.284C77.5048 67.7917 76.8218 69.3544 76.2535 70.96C75.3623 73.4364 74.7304 75.9986 74.3679 78.6054C73.6798 82.7687 73.3357 85.8723 72.5994 89.0378C70.3216 98.9404 64.5996 119.86 64.5996 119.86L68.8558 120.703C68.8558 120.703 77.1137 96.3632 79.2022 89.2718C81.0809 82.8892 85.8876 66.1223 85.8876 66.1223L78.2973 66.284Z" fill="#525ECC"/>
<path id="Vector_142" opacity="0.5" d="M78.2973 66.284C77.5048 67.7917 76.8218 69.3544 76.2535 70.96C75.3623 73.4364 74.7304 75.9986 74.3679 78.6054C73.6798 82.7687 73.3357 85.8723 72.5994 89.0378C70.3216 98.9404 64.5996 119.86 64.5996 119.86L68.8558 120.703C68.8558 120.703 77.1137 96.3632 79.2022 89.2718C81.0809 82.8892 85.8876 66.1223 85.8876 66.1223L78.2973 66.284Z" fill="black"/>
<path id="Vector_143" d="M64.0869 119.076V120.583L69.1999 121.027C69.1999 121.027 69.6197 119.372 69.599 119.372L64.0869 119.076Z" fill="#525ECC"/>
<path id="Vector_144" opacity="0.3" d="M83.6649 73.8367C82.151 79.101 80.2242 85.7589 79.1919 89.2548C79.1438 89.4233 79.0887 89.5988 79.0371 89.7846C79.3468 83.9766 80.2827 74.2324 83.1901 73.8126C83.3482 73.7857 83.5103 73.7939 83.6649 73.8367Z" fill="black"/>
<path id="Vector_145" d="M82.2024 66.1808C82.2024 66.1808 81.2975 82.1873 81.3147 89.7432C81.3147 96.7899 81.4282 120.617 81.4282 120.617L85.5124 120.538C85.5124 120.538 87.8694 96.2291 88.444 89.0654C88.991 82.2802 90.4431 66.1533 90.4431 66.1533L82.2024 66.1808Z" fill="#525ECC"/>
<path id="Vector_146" opacity="0.5" d="M82.2024 66.1808C82.2024 66.1808 81.2975 82.1873 81.3147 89.7432C81.3147 96.7899 81.4282 120.617 81.4282 120.617L85.5124 120.538C85.5124 120.538 87.8694 96.2291 88.444 89.0654C88.991 82.2802 90.4431 66.1533 90.4431 66.1533L82.2024 66.1808Z" fill="black"/>
<path id="Vector_147" d="M80.7952 119.206L80.9638 120.7L85.9288 120.603C85.9288 120.603 86.1284 118.921 86.1077 118.921L80.7952 119.206Z" fill="#525ECC"/>
<path id="Vector_148" d="M94.018 57.672C95.1845 57.8027 96.2373 56.2509 96.4679 55.1017C96.8635 53.137 95.7797 51.2068 94.7199 49.5001L90.9076 43.3068C90.7252 43.0109 91.8882 44.9033 91.2517 43.7713C90.9076 43.1382 89.6586 43.1313 89.1597 44.1807C90.4947 46.6271 90.7355 48.6537 91.5235 51.3272C91.7552 51.9343 91.8228 52.5918 91.7196 53.2334C91.434 54.3998 89.0736 53.4364 89.6551 54.5684C90.0749 55.4011 91.5338 57.3864 94.018 57.672Z" fill="#CB7A63"/>
<path id="Vector_149" d="M90.3365 47.3529C92.401 49.2797 93.4332 53.154 93.4332 53.154L89.7653 55.1325C89.7653 55.1325 85.3921 51.5403 85.9805 48.4643C86.4175 46.1074 87.811 44.9616 90.3365 47.3529Z" fill="#263238"/>
<path id="Vector_150" d="M87.811 54.2346L88.9603 55.6419L94.0113 52.8755L93.3748 51.2927L87.811 54.2346Z" fill="#525ECC"/>
<path id="Vector_151" d="M91.4479 44.1978C91.1038 43.5097 90.34 42.0714 90.0028 41.3661C89.9561 41.2463 89.879 41.1408 89.7791 41.0599C89.6931 41.0106 89.5986 40.9779 89.5004 40.9635C88.74 40.8224 87.9487 40.6779 87.2055 40.8878C87.1489 40.8997 87.0973 40.9285 87.0575 40.9704C87.0319 41.0121 87.0166 41.0593 87.0128 41.108C86.9577 41.5312 86.8992 41.9544 86.8407 42.3742C86.8184 42.4669 86.8184 42.5636 86.8407 42.6564C86.881 42.7416 86.9412 42.816 87.0162 42.8731C87.3809 43.1897 87.7422 43.5097 88.1035 43.8297C88.275 44.0074 88.4895 44.1378 88.7263 44.2082C89.0944 44.2873 89.4488 44.0705 89.7963 43.9226C90.1439 43.7746 91.4479 44.1978 91.4479 44.1978Z" fill="#CB7A63"/>
</g>
</g>
</g>
</svg>
