<svg width="212" height="160" viewBox="0 0 212 160" fill="none" xmlns="http://www.w3.org/2000/svg">
<path d="M104.418 157.915C149.13 157.915 185.376 155.767 185.376 153.117C185.376 150.467 149.13 148.319 104.418 148.319C59.7054 148.319 23.459 150.467 23.459 153.117C23.459 155.767 59.7054 157.915 104.418 157.915Z" fill="#F5F5F5"/>
<path d="M185.426 15.9417V101.244C185.403 102.254 185.001 103.218 184.303 103.938C183.605 104.657 182.662 105.08 181.668 105.118H60.7411C58.7327 105.118 57.2379 103.287 57.2379 101.244V15.9417C57.2239 15.4664 57.3042 14.9932 57.4742 14.5501C57.6441 14.107 57.9001 13.7032 58.227 13.3627C58.5539 13.0222 58.9449 12.7519 59.3769 12.568C59.8088 12.3841 60.2728 12.2903 60.7411 12.2922H181.668C182.639 12.2817 183.577 12.6576 184.279 13.3397C184.981 14.0217 185.393 14.9556 185.426 15.9417Z" fill="#525ECC"/>
<path opacity="0.1" d="M185.426 26.5723V101.244C185.403 102.254 185.002 103.218 184.304 103.938C183.605 104.658 182.663 105.08 181.668 105.118H60.7415C58.7331 105.118 57.2383 103.287 57.2383 101.244V72.18C67.8774 51.4107 93.2394 48.0452 122.931 60.1889C164.966 77.3808 182.891 54.0471 185.426 26.5723Z" fill="white"/>
<path opacity="0.2" d="M152.407 95.3695H91.0604C90.5067 95.3695 89.9757 95.1462 89.5841 94.7488C89.1926 94.3513 88.9727 93.8123 88.9727 93.2502C88.9727 92.6881 89.1926 92.149 89.5841 91.7516C89.9757 91.3541 90.5067 91.1309 91.0604 91.1309H152.407C152.96 91.1309 153.492 91.3541 153.883 91.7516C154.275 92.149 154.495 92.6881 154.495 93.2502C154.495 93.8123 154.275 94.3513 153.883 94.7488C153.492 95.1462 152.96 95.3695 152.407 95.3695Z" fill="black"/>
<path d="M91.0589 94.9451C90.6159 94.9451 90.1911 94.7665 89.8779 94.4485C89.5646 94.1306 89.3887 93.6993 89.3887 93.2497C89.3887 92.8 89.5646 92.3687 89.8779 92.0508C90.1911 91.7328 90.6159 91.5542 91.0589 91.5542H127.319C127.762 91.5542 128.187 91.7328 128.5 92.0508C128.813 92.3687 128.989 92.8 128.989 93.2497C128.989 93.6993 128.813 94.1306 128.5 94.4485C128.187 94.7665 127.762 94.9451 127.319 94.9451H91.0589Z" fill="#525ECC"/>
<path opacity="0.7" d="M91.0589 94.9451C90.6159 94.9451 90.1911 94.7665 89.8779 94.4485C89.5646 94.1306 89.3887 93.6993 89.3887 93.2497C89.3887 92.8 89.5646 92.3687 89.8779 92.0508C90.1911 91.7328 90.6159 91.5542 91.0589 91.5542H127.319C127.762 91.5542 128.187 91.7328 128.5 92.0508C128.813 92.3687 128.989 92.8 128.989 93.2497C128.989 93.6993 128.813 94.1306 128.5 94.4485C128.187 94.7665 127.762 94.9451 127.319 94.9451H91.0589Z" fill="white"/>
<path d="M66.8061 98.4465C70.6976 101.621 69.3406 116.774 70.0713 119.106C70.802 121.437 73.9337 123.344 73.9337 123.344L69.5661 128.537C69.5661 128.537 65.9125 127.892 63.1358 121.852C60.3591 115.812 66.8061 98.4465 66.8061 98.4465Z" fill="#263238"/>
<path opacity="0.2" d="M66.8061 98.4465C70.6976 101.621 69.3406 116.774 70.0713 119.106C70.802 121.437 73.9337 123.344 73.9337 123.344L69.5661 128.537C69.5661 128.537 65.9125 127.892 63.1358 121.852C60.3591 115.812 66.8061 98.4465 66.8061 98.4465Z" fill="black"/>
<path d="M62.6627 131.715C62.6627 131.715 90.6385 123.793 94.1376 133.758C97.6366 143.723 72.2663 151.662 58.2241 152.166C44.1819 152.671 38.4448 142.634 42.5869 133.126L62.6627 131.715Z" fill="#525ECC"/>
<path opacity="0.2" d="M62.6627 131.715C62.6627 131.715 90.6385 123.793 94.1376 133.758C97.6366 143.723 72.2663 151.662 58.2241 152.166C44.1819 152.671 38.4448 142.634 42.5869 133.126L62.6627 131.715Z" fill="black"/>
<path d="M90.0829 147.844C90.0673 147.854 90.0492 147.859 90.0307 147.859C90.0121 147.859 89.994 147.854 89.9785 147.844C89.9647 147.834 89.9546 147.82 89.95 147.804C89.9454 147.787 89.9466 147.77 89.9534 147.755C89.9993 147.598 90.467 146.224 90.9347 146.08C90.9852 146.069 91.0377 146.071 91.0873 146.086C91.1369 146.101 91.182 146.128 91.2186 146.165C91.2835 146.221 91.3328 146.293 91.3615 146.374C91.3901 146.455 91.397 146.542 91.3814 146.627C91.3057 146.883 91.1523 147.109 90.943 147.271C90.6749 147.489 90.3868 147.681 90.0829 147.844ZM90.2039 147.577C90.6417 147.383 90.9959 147.035 91.2019 146.597C91.2142 146.539 91.2097 146.479 91.1889 146.423C91.1682 146.368 91.1321 146.319 91.085 146.284C91.0727 146.267 91.0553 146.256 91.0357 146.25C91.016 146.245 90.9952 146.246 90.9764 146.254C90.9356 146.266 90.8983 146.288 90.8678 146.318C90.5778 146.693 90.3584 147.12 90.2206 147.577H90.2039Z" fill="#525ECC"/>
<path d="M90.0576 147.86C90.0421 147.865 90.0256 147.865 90.01 147.861C89.9944 147.856 89.9805 147.847 89.9699 147.835C89.9239 147.797 89.2767 146.962 89.3853 146.402C89.3979 146.333 89.4239 146.267 89.4619 146.208C89.4999 146.149 89.5491 146.098 89.6066 146.059C89.656 146.01 89.7202 145.981 89.7886 145.975C89.857 145.968 89.9254 145.986 89.9824 146.025C90.3206 146.267 90.2789 147.377 90.1118 147.801V147.843L90.0576 147.86ZM89.6859 146.228C89.6287 146.281 89.5905 146.351 89.5774 146.428C89.5064 146.784 89.8321 147.318 89.9949 147.572C90.0993 147.097 90.0659 146.3 89.8655 146.178C89.8446 146.178 89.8028 146.131 89.7026 146.203L89.6692 146.228H89.6859Z" fill="#525ECC"/>
<path d="M61.5767 152.883C61.5816 152.865 61.5912 152.849 61.6044 152.837C61.6177 152.824 61.6341 152.815 61.6519 152.811C61.6683 152.809 61.685 152.812 61.6993 152.821C61.7137 152.829 61.7249 152.842 61.7312 152.858C61.8147 153.002 62.4536 154.299 62.2239 154.74C62.1982 154.785 62.161 154.822 62.1162 154.848C62.0713 154.873 62.0205 154.886 61.9692 154.884C61.8852 154.894 61.8001 154.881 61.7229 154.846C61.6457 154.811 61.5793 154.755 61.5308 154.685C61.4031 154.45 61.3519 154.18 61.3846 153.913C61.4155 153.564 61.4798 153.219 61.5767 152.883ZM61.6769 153.155C61.5121 153.61 61.5121 154.11 61.6769 154.566C61.7097 154.616 61.7558 154.655 61.8098 154.679C61.8638 154.703 61.9235 154.711 61.9817 154.702C62.0023 154.703 62.0229 154.698 62.0407 154.687C62.0585 154.677 62.0729 154.661 62.0819 154.642C62.0977 154.603 62.1075 154.562 62.1112 154.519C62.0483 154.042 61.9012 153.579 61.6769 153.155Z" fill="#525ECC"/>
<path d="M68.3531 143.296L63.4052 146.979L61.0293 148.747L62.5784 151.497L64.9918 150.158L70.8835 146.886L68.3531 143.296Z" fill="#EBB376"/>
<path d="M63.3494 151.412L61.8546 148.068C61.8349 148.024 61.8067 147.985 61.7717 147.952C61.7367 147.919 61.6956 147.894 61.6508 147.878C61.606 147.862 61.5584 147.855 61.511 147.858C61.4635 147.86 61.4171 147.873 61.3744 147.894L59.7627 148.695C59.7627 148.695 57.5204 149.615 57.2574 150.353C56.4223 152.514 59.5497 159.995 60.5226 160C60.8775 160 61.0905 159.44 61.1406 159.084C61.2951 157.948 61.3243 155.1 61.4663 154.155C61.6333 153.053 62.7189 152.205 63.2409 151.866C63.3084 151.815 63.3562 151.742 63.376 151.659C63.3959 151.576 63.3865 151.489 63.3494 151.412Z" fill="#263238"/>
<path d="M61.5795 152.854C61.5872 152.839 61.5987 152.827 61.6127 152.819C61.6267 152.811 61.6426 152.807 61.6588 152.807C61.7173 152.807 62.757 152.913 63.0785 153.384C63.1573 153.501 63.1873 153.646 63.162 153.786C63.1616 153.856 63.1378 153.923 63.0945 153.977C63.0512 154.031 62.991 154.068 62.924 154.083C62.5064 154.159 61.7632 153.354 61.5836 152.939V152.9C61.5782 152.886 61.5767 152.869 61.5795 152.854ZM62.9866 153.727C62.9916 153.648 62.9694 153.57 62.924 153.507C62.7236 153.21 62.1181 153.083 61.8175 153.019C62.0764 153.443 62.6526 153.952 62.8864 153.905C62.9115 153.905 62.9616 153.905 62.9824 153.769V153.727H62.9866Z" fill="#525ECC"/>
<path opacity="0.2" d="M68.3523 143.296L63.4043 146.979L64.991 150.158L70.8826 146.886L68.3523 143.296Z" fill="black"/>
<path d="M66.1178 150.366L67.7463 149.997L65.0447 144.758L63.5332 146.322L66.1178 150.366Z" fill="#525ECC"/>
<path opacity="0.6" d="M66.1178 150.366L67.7463 149.997L65.0447 144.758L63.5332 146.322L66.1178 150.366Z" fill="white"/>
<path d="M78.5918 149.637L84.6463 150.65L87.5566 151.137L88.4042 148.085L85.7737 147.276L79.3517 145.292L78.5918 149.637Z" fill="#EBB376"/>
<path d="M87.8107 147.589L86.4996 151.01C86.4829 151.055 86.4751 151.103 86.4768 151.152C86.4784 151.2 86.4894 151.248 86.5092 151.292C86.529 151.336 86.5571 151.376 86.592 151.409C86.6269 151.442 86.6679 151.467 86.7126 151.484L88.4037 152.091C88.4037 152.091 90.6208 153.074 91.3265 152.76C93.4143 151.845 96.5125 144.351 95.8319 143.643C95.5813 143.384 95.0427 143.622 94.7546 143.838C93.8485 144.516 91.8317 146.491 91.0593 147.047C90.1657 147.699 88.8003 147.496 88.2074 147.364C88.1258 147.348 88.0411 147.362 87.9684 147.403C87.8957 147.444 87.8399 147.51 87.8107 147.589Z" fill="#263238"/>
<path opacity="0.2" d="M78.5918 149.637L84.6463 150.65L85.7737 147.276L79.3517 145.292L78.5918 149.637Z" fill="black"/>
<path d="M84.7309 146.657C84.7309 146.657 59.561 131.584 51.043 131.987C42.525 132.389 41.7859 140.977 45.2975 145.745C48.8091 150.514 55.3187 151.679 55.3187 151.679C55.3187 151.679 50.901 145.321 51.5399 143.558C52.1787 141.795 54.613 147.771 54.613 147.771C54.613 147.771 70.2085 149.844 83.7956 151.014L84.7309 146.657Z" fill="#525ECC"/>
<path d="M85.1278 146.249L83.7291 145.296L81.9336 150.895H84.0882L85.1278 146.249Z" fill="#525ECC"/>
<path opacity="0.6" d="M85.1278 146.249L83.7291 145.296L81.9336 150.895H84.0882L85.1278 146.249Z" fill="white"/>
<path d="M65.9575 134.365C61.402 125.463 62.8509 111.921 66.7926 98.4464C64.0368 96.1109 53.0427 94.5341 44.6625 97.0095C44.6625 97.0095 39.3429 117.02 39.9692 138.879L65.9575 134.365Z" fill="#263238"/>
<path d="M56.2883 100.633C52.6264 100.633 50.2422 96.7338 50.2422 96.7338C55.044 95.0383 55.0607 89.8799 55.0607 89.8799L56.9105 91.7152L59.5452 94.3347C57.3531 95.9115 58.3886 97.2763 59.0859 97.8824C59.2285 98.012 59.3822 98.1283 59.5452 98.23C59.5452 98.23 59.9502 100.633 56.2883 100.633Z" fill="#EBB376"/>
<path opacity="0.2" d="M59.0847 97.8825C54.5918 98.3953 54.9092 91.5669 54.9092 91.5669C55.583 91.556 56.2565 91.6057 56.9218 91.7152L59.5565 94.3347C57.3518 95.9115 58.3873 97.2763 59.0847 97.8825Z" fill="black"/>
<path d="M62.5918 84.7726C60.8923 85.4847 61.218 87.3709 64.0406 90.8085C65.7777 89.2868 66.7213 85.8281 65.8069 84.7175C64.8924 83.607 64.0782 84.1411 62.5918 84.7726Z" fill="#263238"/>
<path d="M65.1041 92.402C64.9501 92.8619 64.7688 93.3121 64.5612 93.7498C62.891 97.2213 58.0558 97.8952 55.918 94.4619L55.8929 94.428C54.4816 92.118 55.0119 89.9605 55.6006 86.222C55.7318 85.3555 56.0778 84.537 56.6062 83.8435C57.1346 83.1501 57.828 82.6043 58.6213 82.2577C59.4145 81.911 60.2816 81.7747 61.141 81.8617C62.0004 81.9487 62.8238 82.256 63.5341 82.7548C66.3484 84.7427 66.1813 89.2103 65.1041 92.402Z" fill="#EBB376"/>
<path d="M60.7995 88.481C60.7327 88.782 60.8371 89.0617 61.0292 89.1041C61.2212 89.1465 61.4467 88.9431 61.4968 88.6421C61.5469 88.3412 61.4592 88.0657 61.2714 88.019C61.0835 87.9724 60.883 88.1886 60.7995 88.481Z" fill="#263238"/>
<path d="M64.1569 89.2527C64.0901 89.5495 64.1945 89.8292 64.3907 89.8716C64.587 89.914 64.8083 89.7148 64.8626 89.4096C64.9168 89.1044 64.8208 88.8289 64.6287 88.7865C64.4367 88.7441 64.2237 88.9518 64.1569 89.2527Z" fill="#263238"/>
<path d="M63.0295 89.1426C63.1756 90.1406 63.4566 91.1133 63.8646 92.0333C63.2215 92.4063 62.3906 91.9782 62.3906 91.9782L63.0295 89.1426Z" fill="#D58745"/>
<path d="M60.118 87.197C60.078 87.1945 60.0406 87.1762 60.0136 87.1462C59.9969 87.1296 59.9837 87.1098 59.9746 87.088C59.9656 87.0662 59.9609 87.0427 59.9609 87.019C59.9609 86.9953 59.9656 86.9719 59.9746 86.9501C59.9837 86.9282 59.9969 86.9084 60.0136 86.8919C60.2228 86.6976 60.4753 86.5575 60.7494 86.4837C61.0235 86.4099 61.3111 86.4045 61.5877 86.468C61.6314 86.4799 61.6686 86.5089 61.6913 86.5486C61.714 86.5883 61.7203 86.6355 61.7088 86.6799C61.6935 86.7246 61.6624 86.762 61.6215 86.7847C61.5806 86.8074 61.5329 86.8139 61.4875 86.8029C61.2676 86.752 61.0388 86.7559 60.8207 86.8142C60.6026 86.8725 60.4016 86.9835 60.2349 87.1377C60.2044 87.1714 60.1628 87.1925 60.118 87.197Z" fill="#263238"/>
<path d="M65.94 88.4515C65.9074 88.4425 65.8778 88.4248 65.8543 88.4002C65.8308 88.3756 65.8142 88.345 65.8064 88.3116C65.7612 88.09 65.665 87.8823 65.5257 87.7055C65.3863 87.5287 65.2078 87.3878 65.0047 87.2944C64.9605 87.2772 64.9246 87.2433 64.9043 87.1999C64.8841 87.1565 64.8812 87.1068 64.8961 87.0612C64.9122 87.0167 64.9448 86.9803 64.9869 86.9597C65.029 86.9391 65.0773 86.936 65.1216 86.951C65.3803 87.0644 65.6086 87.239 65.7873 87.4602C65.966 87.6814 66.0899 87.9429 66.1488 88.2226C66.1544 88.2455 66.1555 88.2692 66.152 88.2924C66.1485 88.3157 66.1405 88.338 66.1285 88.3581C66.1164 88.3782 66.1006 88.3957 66.0819 88.4095C66.0631 88.4234 66.0419 88.4333 66.0193 88.4388H65.94V88.4515Z" fill="#263238"/>
<path d="M57.7683 83.2974C59.3341 84.2765 58.7162 86.0864 55.3925 89.0195C53.9102 87.2393 53.5218 83.6661 54.6033 82.7252C55.6847 81.7842 56.3988 82.4454 57.7683 83.2974Z" fill="#263238"/>
<path d="M53.2177 88.7905C53.2445 89.2617 53.3626 89.723 53.5654 90.1477C53.7682 90.5725 54.0516 90.9525 54.3994 91.2658C55.3347 92.1136 56.3326 91.376 56.5205 90.1977C56.6917 89.1338 56.4036 87.4214 55.2679 87.0484C54.1321 86.6754 53.1551 87.6248 53.2177 88.7905Z" fill="#EBB376"/>
<path d="M59.541 92.0164C59.541 92.0164 59.9252 93.3643 61.7039 93.6779" stroke="#263238" stroke-width="0.557248" stroke-linecap="round" stroke-linejoin="round"/>
<path d="M62.7416 89.1678C62.7416 89.4193 62.6682 89.6652 62.5305 89.8743C62.3929 90.0834 62.1972 90.2464 61.9683 90.3426C61.7394 90.4389 61.4876 90.4641 61.2446 90.415C61.0016 90.3659 60.7784 90.2448 60.6032 90.067C60.428 89.8892 60.3087 89.6626 60.2604 89.4159C60.2121 89.1692 60.2369 88.9136 60.3317 88.6812C60.4265 88.4489 60.587 88.2503 60.793 88.1105C60.999 87.9708 61.2412 87.8962 61.489 87.8962C61.8212 87.8962 62.1398 88.0302 62.3747 88.2687C62.6096 88.5072 62.7416 88.8306 62.7416 89.1678Z" stroke="#263238" stroke-width="0.557248" stroke-linecap="round" stroke-linejoin="round"/>
<path d="M66.1518 89.88C66.1518 90.1315 66.0783 90.3773 65.9407 90.5865C65.803 90.7956 65.6074 90.9585 65.3785 91.0548C65.1496 91.151 64.8977 91.1762 64.6548 91.1272C64.4118 91.0781 64.1886 90.957 64.0134 90.7791C63.8382 90.6013 63.7189 90.3747 63.6706 90.1281C63.6222 89.8814 63.647 89.6257 63.7418 89.3934C63.8366 89.161 63.9972 88.9624 64.2032 88.8227C64.4092 88.683 64.6514 88.6084 64.8991 88.6084C65.2314 88.6084 65.55 88.7424 65.7849 88.9808C66.0198 89.2193 66.1518 89.5427 66.1518 89.88Z" stroke="#263238" stroke-width="0.557248" stroke-linecap="round" stroke-linejoin="round"/>
<path d="M62.7422 89.5155C62.8914 89.4345 63.0653 89.4139 63.2288 89.458C63.3923 89.5021 63.5333 89.6074 63.6232 89.7529" stroke="#263238" stroke-width="0.557248" stroke-linecap="round" stroke-linejoin="round"/>
<path d="M60.2366 88.9052C60.2366 88.9052 56.6081 87.3538 55.9316 87.2097" stroke="#263238" stroke-width="0.557248" stroke-linecap="round" stroke-linejoin="round"/>
<path d="M54.5638 82.776C54.5638 82.776 54.188 79.7835 57.1986 79.2876C60.2091 78.7917 64.1466 79.5589 65.3658 79.0291C65.3181 79.2942 65.2167 79.5465 65.0679 79.7697C64.9191 79.993 64.7262 80.1825 64.5015 80.3261C64.5015 80.3261 66.798 81.1738 68.606 80.4448C68.606 80.4448 67.821 82.6531 66.8064 83.5008H67.6707C67.6707 83.5008 65.9588 85.1624 63.8752 85.1963C61.7916 85.2302 59.8291 82.3182 57.7664 83.2974C55.7037 84.2765 54.5638 82.776 54.5638 82.776Z" fill="#263238"/>
<path opacity="0.4" d="M65.1057 92.4023C64.9517 92.8623 64.7704 93.3124 64.5629 93.7502C62.8927 97.2216 58.0575 97.8955 55.9196 94.4622L55.8945 94.4283C54.7922 92.4404 55.6732 90.2702 55.6732 90.2702L56.3163 88.1509L56.7839 87.6804C56.7839 87.6804 56.8925 89.8294 57.2224 90.4355C57.5522 91.0417 59.4312 91.2197 59.8153 91.3257C60.1995 91.4316 61.1097 92.5337 61.5607 92.8304C62.0116 93.1271 63.6484 92.8812 63.8614 93.1271C64.0743 93.3729 65.1057 92.4023 65.1057 92.4023Z" fill="black"/>
<path opacity="0.2" d="M46.332 126.523L54.992 136.272C54.992 136.272 64.5622 136.056 76.1868 141.824C76.1868 141.824 88.659 136.594 89.8073 132.249C90.9555 127.905 63.6228 130.978 63.6228 130.978L46.332 126.523Z" fill="black"/>
<path d="M48.7776 123.662L62.6611 128.274C62.6611 128.274 67.6216 127.159 68.5068 127.159C69.392 127.159 72.8201 129.986 70.8827 130.974C68.9453 131.961 63.6549 132.089 63.0787 131.771C62.5025 131.453 47.1074 127.795 47.1074 127.795L48.7776 123.662Z" fill="#EBB376"/>
<path d="M44.6611 97.0093C47.8011 96.3905 42.3521 115.82 43.6882 118.681C45.0244 121.543 50.2396 123.344 50.2396 123.344L47.8387 128.723C47.8387 128.723 40.7403 127.362 36.878 122.365C33.0157 117.368 39.5336 98.0181 44.6611 97.0093Z" fill="#263238"/>
<path opacity="0.2" d="M44.6611 97.0093C47.8011 96.3905 42.3521 115.82 43.6882 118.681C45.0244 121.543 50.2396 123.344 50.2396 123.344L47.8387 128.723C47.8387 128.723 40.7403 127.362 36.878 122.365C33.0157 117.368 39.5336 98.0181 44.6611 97.0093Z" fill="black"/>
<path d="M50.2412 122.92L47.3184 128.731L49.8237 129.278L52.1202 123.929L50.2412 122.92Z" fill="#263238"/>
<path opacity="0.2" d="M50.2412 122.92L47.3184 128.731L49.8237 129.278L52.1202 123.929L50.2412 122.92Z" fill="white"/>
<path d="M55.9785 130.974V131.898C55.9793 132.206 56.0968 132.502 56.3067 132.724C56.5165 132.947 56.8027 133.079 57.1059 133.093H90.6727C90.9858 133.084 91.2842 132.956 91.5091 132.735C91.734 132.514 91.8691 132.215 91.8878 131.898V130.974H55.9785Z" fill="#263238"/>
<path opacity="0.2" d="M55.9785 130.974V131.898C55.9793 132.206 56.0968 132.502 56.3067 132.724C56.5165 132.947 56.8027 133.079 57.1059 133.093H90.6727C90.9858 133.084 91.2842 132.956 91.5091 132.735C91.734 132.514 91.8691 132.215 91.8878 131.898V130.974H55.9785Z" fill="white"/>
<path opacity="0.2" d="M68.5059 130.974V131.898C68.5077 132.206 68.6261 132.502 68.8367 132.725C69.0472 132.947 69.3339 133.079 69.6374 133.093H90.6736C90.9866 133.084 91.285 132.956 91.5099 132.735C91.7349 132.514 91.87 132.215 91.8886 131.898V130.974H68.5059Z" fill="white"/>
<path d="M69.6397 132.245H91.8157C92.1718 132.228 92.5147 132.104 92.8015 131.889C93.0883 131.674 93.306 131.378 93.4275 131.037L98.5132 114.841C98.5715 114.703 98.5945 114.553 98.5803 114.403C98.5661 114.254 98.515 114.11 98.4318 113.986C98.3486 113.862 98.236 113.761 98.1042 113.693C97.9725 113.625 97.826 113.591 97.6781 113.595H75.4854C75.1266 113.622 74.7832 113.754 74.497 113.975C74.2108 114.196 73.9942 114.497 73.8736 114.841L68.7879 131.016C68.729 131.155 68.7061 131.306 68.7214 131.456C68.7366 131.606 68.7895 131.749 68.8749 131.873C68.9604 131.996 69.0756 132.095 69.2094 132.16C69.3433 132.225 69.4915 132.255 69.6397 132.245Z" fill="#263238"/>
<path opacity="0.2" d="M69.6397 132.245H91.8157C92.1718 132.228 92.5147 132.104 92.8015 131.889C93.0883 131.674 93.306 131.378 93.4275 131.037L98.5132 114.841C98.5715 114.703 98.5945 114.553 98.5803 114.403C98.5661 114.254 98.515 114.11 98.4318 113.986C98.3486 113.862 98.236 113.761 98.1042 113.693C97.9725 113.625 97.826 113.591 97.6781 113.595H75.4854C75.1266 113.622 74.7832 113.754 74.497 113.975C74.2108 114.196 73.9942 114.497 73.8736 114.841L68.7879 131.016C68.729 131.155 68.7061 131.306 68.7214 131.456C68.7366 131.606 68.7895 131.749 68.8749 131.873C68.9604 131.996 69.0756 132.095 69.2094 132.16C69.3433 132.225 69.4915 132.255 69.6397 132.245Z" fill="white"/>
<path opacity="0.2" d="M70.4737 132.245H91.8146C92.1707 132.228 92.5136 132.104 92.8004 131.889C93.0871 131.674 93.3049 131.378 93.4263 131.037L98.5121 114.841C98.5703 114.703 98.5934 114.553 98.5792 114.403C98.565 114.254 98.5139 114.11 98.4307 113.986C98.3475 113.862 98.2349 113.761 98.1031 113.693C97.9714 113.625 97.8249 113.591 97.677 113.595H76.3194C75.9606 113.622 75.6171 113.754 75.331 113.975C75.0448 114.196 74.8282 114.497 74.7076 114.841L69.6219 131.016C69.563 131.155 69.5401 131.306 69.5554 131.456C69.5706 131.606 69.6235 131.749 69.7089 131.873C69.7944 131.996 69.9095 132.095 70.0434 132.16C70.1773 132.225 70.3254 132.255 70.4737 132.245Z" fill="white"/>
<path opacity="0.2" d="M85.7604 121.144L82.6914 123.353L84.0192 125.557L87.0882 123.353L85.7604 121.144Z" fill="white"/>
<path opacity="0.2" d="M101.124 16.4033H73.0439C71.0284 16.4033 69.3945 18.0619 69.3945 20.1079V48.6127C69.3945 50.6587 71.0284 52.3173 73.0439 52.3173H101.124C103.14 52.3173 104.774 50.6587 104.774 48.6127V20.1079C104.774 18.0619 103.14 16.4033 101.124 16.4033Z" fill="black"/>
<path d="M105.902 12.4614H82.377C80.6867 12.4614 79.3164 13.8524 79.3164 15.5683V39.4488C79.3164 41.1647 80.6867 42.5558 82.377 42.5558H105.902C107.592 42.5558 108.962 41.1647 108.962 39.4488V15.5683C108.962 13.8524 107.592 12.4614 105.902 12.4614Z" fill="#525ECC"/>
<path opacity="0.3" d="M105.902 12.4614H82.377C80.6867 12.4614 79.3164 13.8524 79.3164 15.5683V39.4488C79.3164 41.1647 80.6867 42.5558 82.377 42.5558H105.902C107.592 42.5558 108.962 41.1647 108.962 39.4488V15.5683C108.962 13.8524 107.592 12.4614 105.902 12.4614Z" fill="white"/>
<path d="M96.4242 24.0328V22.2145L95.5014 22.1254C95.3805 21.5208 95.1467 20.9453 94.8125 20.43L95.4054 19.7009L94.1528 18.4294L93.4387 19.0312C92.9305 18.6932 92.3638 18.4559 91.7685 18.3319L91.6767 17.3782H89.8854L89.8061 18.3319C89.2108 18.4559 88.6441 18.6932 88.1359 19.0312L87.4219 18.4294L86.1692 19.7009L86.7621 20.43C86.428 20.9453 86.1941 21.5208 86.0732 22.1254L85.1504 22.2145V24.0328L86.0732 24.1218C86.1954 24.7261 86.4291 25.3014 86.7621 25.8173L86.1692 26.5463L87.4219 27.8179L88.1359 27.2161C88.6441 27.5541 89.2108 27.7914 89.8061 27.9154L89.8938 28.8522H91.685L91.7727 27.9154C92.3679 27.7914 92.9347 27.5541 93.4429 27.2161L94.1569 27.8179L95.4096 26.5463L94.8167 25.8046C95.1497 25.2886 95.3834 24.7134 95.5056 24.1091L96.4242 24.0328ZM90.7831 25.5884C90.3021 25.5893 89.8317 25.4452 89.4315 25.1744C89.0312 24.9037 88.7191 24.5185 88.5346 24.0675C88.3502 23.6166 88.3017 23.1202 88.3953 22.6413C88.4889 22.1624 88.7205 21.7224 89.0606 21.3772C89.4007 21.0319 89.8341 20.7969 90.3059 20.7018C90.7777 20.6068 91.2666 20.656 91.7109 20.8432C92.1551 21.0305 92.5346 21.3473 92.8013 21.7536C93.068 22.16 93.2099 22.6375 93.2091 23.1258C93.208 23.7786 92.952 24.4043 92.4973 24.8659C92.0426 25.3275 91.4262 25.5873 90.7831 25.5884Z" fill="white"/>
<path d="M103.689 29.1743V27.7459L102.967 27.678C102.871 27.2079 102.688 26.7605 102.428 26.3598L102.891 25.7919L101.914 24.7831L101.355 25.2535C100.96 24.9893 100.519 24.8037 100.056 24.7068L99.9894 23.9692H98.5739L98.5071 24.7068C98.0439 24.8037 97.6032 24.9893 97.2085 25.2535L96.649 24.7831L95.651 25.7919L96.1145 26.3598C95.8542 26.7605 95.6714 27.2079 95.5759 27.678L94.8535 27.7459V29.1743L95.5759 29.2421C95.6714 29.7122 95.8542 30.1596 96.1145 30.5603L95.651 31.1283L96.6448 32.1371L97.2043 31.6666C97.5991 31.9309 98.0398 32.1165 98.5029 32.2134L98.5697 32.9467H99.9768L100.044 32.2134C100.507 32.1165 100.947 31.9309 101.342 31.6666L101.902 32.1371L102.896 31.1283L102.432 30.5603C102.692 30.1596 102.875 29.7122 102.971 29.2421L103.689 29.1743ZM99.267 30.3908C98.8904 30.3908 98.5223 30.2774 98.2092 30.065C97.8961 29.8527 97.652 29.5508 97.5079 29.1976C97.3638 28.8444 97.3261 28.4558 97.3996 28.0809C97.473 27.706 97.6544 27.3616 97.9207 27.0912C98.1869 26.8209 98.5262 26.6369 98.8956 26.5623C99.2649 26.4877 99.6477 26.526 99.9957 26.6723C100.344 26.8186 100.641 27.0663 100.85 27.3841C101.059 27.702 101.171 28.0757 101.171 28.458C101.171 28.9706 100.97 29.4622 100.613 29.8247C100.256 30.1871 99.772 30.3908 99.267 30.3908Z" fill="white"/>
<path d="M96.4229 33.2223V32.0228L95.8133 31.9677C95.7339 31.5731 95.5808 31.1976 95.3623 30.8614L95.7506 30.3824L94.9155 29.5347L94.4437 29.9289C94.1118 29.7085 93.7422 29.5533 93.3539 29.4711L93.2954 28.8523H92.1138L92.0553 29.4711C91.6671 29.5533 91.2974 29.7085 90.9655 29.9289L90.4937 29.5347L89.6586 30.3824L90.0469 30.8614C89.8284 31.1976 89.6753 31.5731 89.596 31.9677L88.9863 32.0228V33.2223L89.596 33.2817C89.6769 33.6758 89.8298 34.051 90.0469 34.388L89.6586 34.8669L90.4937 35.7146L90.9655 35.3205C91.2981 35.5404 91.6674 35.697 92.0553 35.7825L92.1138 36.3971H93.2954L93.3539 35.7825C93.7418 35.697 94.1111 35.5404 94.4437 35.3205L94.9155 35.7146L95.7506 34.8669L95.3623 34.388C95.5794 34.051 95.7324 33.6758 95.8133 33.2817L96.4229 33.2223ZM92.7276 34.2438C92.4109 34.2447 92.1012 34.1501 91.8375 33.972C91.5739 33.794 91.3683 33.5405 91.2467 33.2437C91.1252 32.9468 91.0931 32.6201 91.1547 32.3048C91.2163 31.9895 91.3687 31.6998 91.5926 31.4725C91.8165 31.2452 92.1018 31.0905 92.4124 31.028C92.723 30.9655 93.0449 30.998 93.3373 31.1214C93.6297 31.2448 93.8794 31.4536 94.0548 31.7212C94.2302 31.9888 94.3234 32.3032 94.3226 32.6247C94.3226 33.0541 94.1546 33.4659 93.8554 33.7696C93.5563 34.0733 93.1506 34.2438 92.7276 34.2438Z" fill="white"/>
<path opacity="0.2" d="M107.156 12.4614H83.631C81.9406 12.4614 80.5703 13.8524 80.5703 15.5683V39.4488C80.5703 41.1647 81.9406 42.5558 83.631 42.5558H107.156C108.846 42.5558 110.216 41.1647 110.216 39.4488V15.5683C110.216 13.8524 108.846 12.4614 107.156 12.4614Z" fill="white"/>
<path opacity="0.2" d="M152.122 51.262H126.163C124.3 51.262 122.789 52.7953 122.789 54.6868V81.0384C122.789 82.9299 124.3 84.4632 126.163 84.4632H152.122C153.985 84.4632 155.496 82.9299 155.496 81.0384V54.6868C155.496 52.7953 153.985 51.262 152.122 51.262Z" fill="black"/>
<path d="M155.587 49.4858H133.837C132.275 49.4858 131.01 50.7706 131.01 52.3554V74.4345C131.01 76.0193 132.275 77.304 133.837 77.304H155.587C157.148 77.304 158.414 76.0193 158.414 74.4345V52.3554C158.414 50.7706 157.148 49.4858 155.587 49.4858Z" fill="#525ECC"/>
<path opacity="0.2" d="M155.587 49.4858H133.837C132.275 49.4858 131.01 50.7706 131.01 52.3554V74.4345C131.01 76.0193 132.275 77.304 133.837 77.304H155.587C157.148 77.304 158.414 76.0193 158.414 74.4345V52.3554C158.414 50.7706 157.148 49.4858 155.587 49.4858Z" fill="white"/>
<path d="M145.755 67.8649C145.755 68.0638 145.696 68.2582 145.588 68.4235C145.479 68.5887 145.324 68.7175 145.143 68.7934C144.962 68.8693 144.762 68.889 144.57 68.8498C144.378 68.8107 144.202 68.7146 144.064 68.5737C143.926 68.4328 143.832 68.2534 143.794 68.0583C143.756 67.8631 143.776 67.661 143.852 67.4775C143.927 67.2941 144.055 67.1375 144.218 67.0276C144.382 66.9177 144.573 66.8595 144.769 66.8604C145.031 66.8615 145.282 66.9678 145.466 67.1561C145.651 67.3444 145.755 67.5992 145.755 67.8649Z" fill="white"/>
<path d="M144.684 57.8445C143.394 57.8439 142.116 58.1015 140.924 58.6026C139.732 59.1036 138.648 59.8382 137.736 60.7644C136.823 61.6907 136.1 62.7904 135.606 64.0007C135.113 65.211 134.859 66.5081 134.859 67.818H142.705C142.692 67.5526 142.735 67.2874 142.83 67.0399C142.925 66.7924 143.072 66.5683 143.259 66.3824C143.446 66.1965 143.67 66.053 143.915 65.9615C144.161 65.8699 144.423 65.8324 144.684 65.8513C144.885 65.8611 145.083 65.8996 145.273 65.9657L148.952 61.6296L146.355 66.7584C146.558 67.0729 146.664 67.4419 146.659 67.818H154.526C154.526 66.5068 154.271 65.2085 153.776 63.9974C153.282 62.7862 152.556 61.686 151.642 60.7597C150.728 59.8333 149.643 59.099 148.449 58.5988C147.255 58.0986 145.976 57.8423 144.684 57.8445Z" fill="white"/>
<path opacity="0.2" d="M156.741 49.4858H134.991C133.43 49.4858 132.164 50.7706 132.164 52.3554V74.4345C132.164 76.0193 133.43 77.304 134.991 77.304H156.741C158.302 77.304 159.568 76.0193 159.568 74.4345V52.3554C159.568 50.7706 158.302 49.4858 156.741 49.4858Z" fill="white"/>
<path opacity="0.2" d="M160.093 24.728H137.316C135.681 24.728 134.355 26.0735 134.355 27.7332V50.855C134.355 52.5147 135.681 53.8602 137.316 53.8602H160.093C161.728 53.8602 163.054 52.5147 163.054 50.855V27.7332C163.054 26.0735 161.728 24.728 160.093 24.728Z" fill="black"/>
<path d="M163.621 22.1594H144.535C143.165 22.1594 142.055 23.2867 142.055 24.6772V44.052C142.055 45.4425 143.165 46.5697 144.535 46.5697H163.621C164.991 46.5697 166.101 45.4425 166.101 44.052V24.6772C166.101 23.2867 164.991 22.1594 163.621 22.1594Z" fill="#525ECC"/>
<path opacity="0.1" d="M163.621 22.1594H144.535C143.165 22.1594 142.055 23.2867 142.055 24.6772V44.052C142.055 45.4425 143.165 46.5697 144.535 46.5697H163.621C164.991 46.5697 166.101 45.4425 166.101 44.052V24.6772C166.101 23.2867 164.991 22.1594 163.621 22.1594Z" fill="white"/>
<path d="M160.789 28.3521C160.789 28.1397 160.706 27.9359 160.558 27.7857C160.41 27.6354 160.209 27.551 160 27.551H148.217C148.008 27.551 147.807 27.6354 147.659 27.7857C147.511 27.9359 147.428 28.1397 147.428 28.3521V30.9886C147.428 31.201 147.511 31.4048 147.659 31.555C147.807 31.7053 148.008 31.7897 148.217 31.7897H160C160.209 31.7897 160.41 31.7053 160.558 31.555C160.706 31.4048 160.789 31.201 160.789 30.9886V28.3521ZM156.898 29.7806H156.221V29.0939H156.898V29.7806ZM158.706 30.1239C158.571 30.1247 158.439 30.0848 158.326 30.0092C158.213 29.9336 158.126 29.8258 158.074 29.6993C158.022 29.5729 158.008 29.4337 158.034 29.2992C158.06 29.1648 158.125 29.0413 158.22 28.9445C158.316 28.8476 158.437 28.7817 158.57 28.7552C158.702 28.7286 158.839 28.7427 158.964 28.7955C159.088 28.8483 159.195 28.9375 159.269 29.0518C159.344 29.1661 159.383 29.3002 159.382 29.4372C159.382 29.5277 159.365 29.6174 159.33 29.701C159.296 29.7846 159.246 29.8604 159.183 29.9243C159.119 29.9881 159.044 30.0386 158.962 30.0728C158.879 30.1071 158.791 30.1244 158.702 30.1239H158.706Z" fill="white"/>
<path d="M160.789 33.0147C160.789 32.8023 160.706 32.5985 160.558 32.4483C160.41 32.298 160.209 32.2136 160 32.2136H148.217C148.008 32.2136 147.807 32.298 147.659 32.4483C147.511 32.5985 147.428 32.8023 147.428 33.0147V35.6512C147.428 35.8636 147.511 36.0674 147.659 36.2176C147.807 36.3679 148.008 36.4523 148.217 36.4523H160C160.209 36.4523 160.41 36.3679 160.558 36.2176C160.706 36.0674 160.789 35.8636 160.789 35.6512V33.0147ZM156.898 34.7102H156.221V34.0235H156.898V34.7102ZM158.706 35.0535C158.572 35.0535 158.441 35.0132 158.33 34.9378C158.219 34.8623 158.132 34.7551 158.081 34.6296C158.03 34.5042 158.016 34.3661 158.042 34.2329C158.068 34.0997 158.133 33.9773 158.227 33.8813C158.322 33.7853 158.443 33.7199 158.574 33.6934C158.705 33.6669 158.841 33.6805 158.965 33.7325C159.088 33.7844 159.194 33.8724 159.268 33.9854C159.343 34.0983 159.382 34.231 159.382 34.3669C159.382 34.4572 159.365 34.5466 159.33 34.63C159.296 34.7133 159.246 34.7889 159.182 34.8524C159.119 34.9159 159.044 34.966 158.961 34.9998C158.879 35.0336 158.791 35.0504 158.702 35.0493L158.706 35.0535Z" fill="white"/>
<path d="M160.789 37.6771C160.789 37.4646 160.706 37.2609 160.558 37.1106C160.41 36.9604 160.209 36.876 160 36.876H148.217C148.008 36.876 147.807 36.9604 147.659 37.1106C147.511 37.2609 147.428 37.4646 147.428 37.6771V40.3135C147.428 40.526 147.511 40.7297 147.659 40.88C147.807 41.0302 148.008 41.1146 148.217 41.1146H160C160.209 41.1146 160.41 41.0302 160.558 40.88C160.706 40.7297 160.789 40.526 160.789 40.3135V37.6771ZM156.898 39.6353H156.221V38.9487H156.898V39.6353ZM158.706 39.9787C158.572 39.9787 158.441 39.9384 158.33 39.8629C158.219 39.7875 158.132 39.6802 158.081 39.5548C158.03 39.4293 158.016 39.2912 158.042 39.158C158.068 39.0248 158.133 38.9025 158.227 38.8065C158.322 38.7104 158.443 38.645 158.574 38.6185C158.705 38.592 158.841 38.6056 158.965 38.6576C159.088 38.7096 159.194 38.7976 159.268 38.9105C159.343 39.0234 159.382 39.1562 159.382 39.292C159.382 39.3825 159.365 39.4722 159.33 39.5558C159.296 39.6393 159.246 39.7152 159.183 39.779C159.119 39.8429 159.044 39.8934 158.962 39.9276C158.879 39.9619 158.791 39.9792 158.702 39.9787H158.706Z" fill="white"/>
<path opacity="0.2" d="M164.639 22.1594H145.553C144.183 22.1594 143.072 23.2867 143.072 24.6772V44.052C143.072 45.4425 144.183 46.5697 145.553 46.5697H164.639C166.008 46.5697 167.119 45.4425 167.119 44.052V24.6772C167.119 23.2867 166.008 22.1594 164.639 22.1594Z" fill="white"/>
<path opacity="0.2" d="M119.284 47.2861H91.2041C89.1886 47.2861 87.5547 48.9447 87.5547 50.9907V79.4956C87.5547 81.5415 89.1886 83.2001 91.2041 83.2001H119.284C121.3 83.2001 122.934 81.5415 122.934 79.4956V50.9907C122.934 48.9447 121.3 47.2861 119.284 47.2861Z" fill="black"/>
<path d="M122.439 44.7471H98.9142C97.2238 44.7471 95.8535 46.1381 95.8535 47.854V71.7345C95.8535 73.4504 97.2238 74.8414 98.9142 74.8414H122.439C124.129 74.8414 125.5 73.4504 125.5 71.7345V47.854C125.5 46.1381 124.129 44.7471 122.439 44.7471Z" fill="#525ECC"/>
<path opacity="0.5" d="M122.439 44.7471H98.9142C97.2238 44.7471 95.8535 46.1381 95.8535 47.854V71.7345C95.8535 73.4504 97.2238 74.8414 98.9142 74.8414H122.439C124.129 74.8414 125.5 73.4504 125.5 71.7345V47.854C125.5 46.1381 124.129 44.7471 122.439 44.7471Z" fill="white"/>
<path d="M102.476 68.0554C102.261 67.837 102.09 67.5776 101.973 67.2921C101.857 67.0067 101.797 66.7007 101.797 66.3917C101.797 66.0828 101.857 65.7768 101.973 65.4913C102.09 65.2059 102.261 64.9465 102.476 64.7281L107.904 59.2433C108.025 59.1195 108.168 59.0212 108.327 58.9541C108.485 58.8871 108.655 58.8525 108.827 58.8525C108.998 58.8525 109.168 58.8871 109.327 58.9541C109.485 59.0212 109.629 59.1195 109.75 59.2433L111.178 60.6887C111.3 60.8116 111.397 60.9578 111.463 61.119C111.529 61.2801 111.563 61.453 111.563 61.6275C111.563 61.8021 111.529 61.9749 111.463 62.136C111.397 62.2972 111.3 62.4434 111.178 62.5664L105.77 68.0554C105.555 68.2775 105.299 68.4539 105.016 68.5743C104.733 68.6948 104.43 68.7568 104.123 68.7568C103.816 68.7568 103.513 68.6948 103.23 68.5743C102.947 68.4539 102.691 68.2775 102.476 68.0554Z" fill="white"/>
<path d="M112.438 59.0227L111.373 57.9419L117.482 51.7408L118.814 51.4695L118.547 52.8216L112.438 59.0227Z" fill="white"/>
<path d="M111.837 60.4595L109.958 58.5479C109.917 58.5083 109.884 58.4606 109.862 58.4078C109.84 58.3549 109.828 58.298 109.828 58.2405C109.828 58.1831 109.84 58.1262 109.862 58.0733C109.884 58.0205 109.917 57.9728 109.958 57.9332C109.997 57.8909 110.044 57.8571 110.097 57.8341C110.149 57.811 110.206 57.7991 110.263 57.7991C110.32 57.7991 110.377 57.811 110.429 57.8341C110.481 57.8571 110.529 57.8909 110.568 57.9332L112.447 59.8406C112.488 59.8803 112.522 59.9282 112.544 59.9814C112.567 60.0346 112.579 60.092 112.579 60.1501C112.579 60.2081 112.567 60.2655 112.544 60.3187C112.522 60.3719 112.488 60.4198 112.447 60.4595C112.408 60.5018 112.36 60.5356 112.308 60.5587C112.256 60.5817 112.199 60.5937 112.142 60.5937C112.085 60.5937 112.028 60.5817 111.976 60.5587C111.923 60.5356 111.876 60.5018 111.837 60.4595Z" fill="white"/>
<path d="M109.308 56.7976L106.731 54.1739C107.212 52.8641 106.239 51.2535 105.182 50.8296L105.161 52.8472C105.161 53.072 105.073 53.2876 104.917 53.4466C104.76 53.6056 104.548 53.6949 104.326 53.6949C104.105 53.6949 103.892 53.6056 103.736 53.4466C103.579 53.2876 103.491 53.072 103.491 52.8472V50.8635C103.007 51.0629 102.588 51.3985 102.285 51.831C101.982 52.2635 101.806 52.7748 101.779 53.305C101.785 53.9308 102.015 54.5332 102.425 55.0007C102.835 55.4683 103.397 55.7693 104.009 55.8481C104.435 55.9145 104.87 55.8526 105.262 55.6701L107.859 58.315L109.308 56.7976Z" fill="white"/>
<path d="M117.883 66.7499V68.7547C118.368 68.5554 118.787 68.2197 119.09 67.7873C119.393 67.3548 119.568 66.8434 119.595 66.3133C119.599 65.69 119.382 65.0861 118.983 64.6121C118.585 64.1381 118.031 63.8256 117.424 63.732C117.025 63.648 116.61 63.6893 116.234 63.8506L113.537 61.104L112.059 62.6045L114.739 65.3299C113.963 66.9406 115.157 68.297 116.23 68.7208V66.7287C116.23 66.5038 116.318 66.2882 116.475 66.1292C116.631 65.9703 116.844 65.8809 117.065 65.8809C117.175 65.8831 117.284 65.9074 117.384 65.9523C117.485 65.9972 117.576 66.0619 117.652 66.1427C117.728 66.2234 117.788 66.3186 117.827 66.4228C117.867 66.527 117.886 66.6382 117.883 66.7499Z" fill="white"/>
<path opacity="0.2" d="M123.691 44.7471H100.166C98.4758 44.7471 97.1055 46.1381 97.1055 47.854V71.7345C97.1055 73.4504 98.4758 74.8414 100.166 74.8414H123.691C125.381 74.8414 126.751 73.4504 126.751 71.7345V47.854C126.751 46.1381 125.381 44.7471 123.691 44.7471Z" fill="white"/>
<path d="M116.213 39.3003L144.573 39.3003C146.609 39.3003 148.26 37.6246 148.26 35.5576V6.76875C148.26 4.7017 146.609 3.02603 144.573 3.02603L116.213 3.02603C114.177 3.02603 112.526 4.7017 112.526 6.76875V35.5576C112.526 37.6246 114.177 39.3003 116.213 39.3003Z" fill="#525ECC"/>
<path opacity="0.2" d="M142.527 8.78613H108.68C106.25 8.78613 104.279 10.7863 104.279 13.2537V47.6121C104.279 50.0794 106.25 52.0796 108.68 52.0796H142.527C144.957 52.0796 146.928 50.0794 146.928 47.6121V13.2537C146.928 10.7863 144.957 8.78613 142.527 8.78613Z" fill="black"/>
<path opacity="0.5" d="M116.213 39.3003L144.573 39.3003C146.609 39.3003 148.26 37.6246 148.26 35.5576V6.76875C148.26 4.7017 146.609 3.02603 144.573 3.02603L116.213 3.02603C114.177 3.02603 112.526 4.7017 112.526 6.76875V35.5576C112.526 37.6246 114.177 39.3003 116.213 39.3003Z" fill="white"/>
<path d="M130.383 9.92261L119.451 14.2799C119.451 14.2799 120.833 29.539 130.395 32.4001C139.961 29.539 141.343 14.2799 141.343 14.2799L130.383 9.92261ZM130.107 24.6985C130.036 24.7934 129.944 24.8706 129.84 24.9242C129.735 24.9778 129.619 25.0065 129.502 25.0079C129.383 25.006 129.266 24.9758 129.161 24.9199C129.056 24.8639 128.965 24.7838 128.896 24.6858L125.059 19.3154C125 19.2339 124.958 19.1415 124.935 19.0434C124.912 18.9454 124.908 18.8437 124.924 18.7441C124.939 18.6445 124.974 18.549 125.026 18.4631C125.078 18.3771 125.146 18.3023 125.226 18.2431C125.306 18.1838 125.397 18.1411 125.494 18.1176C125.59 18.094 125.691 18.09 125.789 18.1057C125.887 18.1215 125.981 18.1567 126.066 18.2093C126.15 18.262 126.224 18.3311 126.282 18.4126L129.522 22.9395L134.817 15.844C134.938 15.6825 135.117 15.5762 135.315 15.5484C135.513 15.5206 135.714 15.5735 135.873 15.6956C136.03 15.8316 136.131 16.0215 136.158 16.2288C136.185 16.4362 136.136 16.6463 136.02 16.8189L130.107 24.6985Z" fill="white"/>
<path opacity="0.2" d="M117.723 39.3003L146.083 39.3003C148.119 39.3003 149.77 37.6246 149.77 35.5576V6.76875C149.77 4.7017 148.119 3.02603 146.083 3.02603L117.723 3.02603C115.686 3.02603 114.036 4.7017 114.036 6.76875V35.5576C114.036 37.6246 115.686 39.3003 117.723 39.3003Z" fill="white"/>
<path d="M180.854 97.459H145.258V121.844H180.854V97.459Z" fill="#525ECC"/>
<path opacity="0.7" d="M180.854 97.459H145.258V121.844H180.854V97.459Z" fill="white"/>
<path d="M180.103 99.3367H145.918V121.03H180.103V99.3367Z" fill="#263238"/>
<path d="M175.59 102.698H147.484V103.334H175.59V102.698Z" fill="#E0E0E0"/>
<path d="M171.41 104.499H147.484V105.135H171.41V104.499Z" fill="#E0E0E0"/>
<path d="M175.59 106.301H147.484V106.936H175.59V106.301Z" fill="#E0E0E0"/>
<path d="M171.41 108.102H147.484V108.738H171.41V108.102Z" fill="#E0E0E0"/>
<path d="M150.52 109.903H147.484V110.539H150.52V109.903Z" fill="#E0E0E0"/>
<path d="M163.055 111.705H147.484V112.341H163.055V111.705Z" fill="#E0E0E0"/>
<path d="M171.41 113.507H147.484V114.142H171.41V113.507Z" fill="#E0E0E0"/>
<path d="M150.52 115.308H147.484V115.943H150.52V115.308Z" fill="#E0E0E0"/>
<path d="M150.52 117.109H147.484V117.745H150.52V117.109Z" fill="#E0E0E0"/>
<path d="M78.2113 46.7268H42.6152V71.1117H78.2113V46.7268Z" fill="#525ECC"/>
<path opacity="0.7" d="M78.2113 46.7268H42.6152V71.1117H78.2113V46.7268Z" fill="white"/>
<path d="M77.4641 48.6047H43.2793V70.2981H77.4641V48.6047Z" fill="#263238"/>
<path d="M72.949 51.9661H44.8438V52.6019H72.949V51.9661Z" fill="#E0E0E0"/>
<path d="M68.7693 53.7671H44.8438V54.4029H68.7693V53.7671Z" fill="#E0E0E0"/>
<path d="M72.949 55.5686H44.8438V56.2044H72.949V55.5686Z" fill="#E0E0E0"/>
<path d="M68.7693 57.3704H44.8438V58.0062H68.7693V57.3704Z" fill="#E0E0E0"/>
<path d="M47.8793 59.1714H44.8438V59.8072H47.8793V59.1714Z" fill="#E0E0E0"/>
<path d="M60.4142 60.9731H44.8438V61.6089H60.4142V60.9731Z" fill="#E0E0E0"/>
<path d="M68.7693 62.7747H44.8438V63.4105H68.7693V62.7747Z" fill="#E0E0E0"/>
<path d="M47.8793 64.5757H44.8438V65.2115H47.8793V64.5757Z" fill="#E0E0E0"/>
<path d="M47.8793 66.377H44.8438V67.0127H47.8793V66.377Z" fill="#E0E0E0"/>
</svg>
