<svg width="250" height="184" viewBox="0 0 250 184" fill="none" xmlns="http://www.w3.org/2000/svg">
<rect width="250" height="184" fill="#1E1E1E"/>
<g id="For Neeraj">
<path d="M-7227 -1789C-7227 -1790.1 -7226.1 -1791 -7225 -1791H1283C1284.1 -1791 1285 -1790.1 1285 -1789V2650C1285 2651.1 1284.1 2652 1283 2652H-7225C-7226.1 2652 -7227 2651.1 -7227 2650V-1789Z" fill="#444444"/>
<path d="M-7225 -1790H1283V-1792H-7225V-1790ZM1284 -1789V2650H1286V-1789H1284ZM1283 2651H-7225V2653H1283V2651ZM-7226 2650V-1789H-7228V2650H-7226ZM-7225 2651C-7225.55 2651 -7226 2650.55 -7226 2650H-7228C-7228 2651.66 -7226.66 2653 -7225 2653V2651ZM1284 2650C1284 2650.55 1283.55 2651 1283 2651V2653C1284.66 2653 1286 2651.66 1286 2650H1284ZM1283 -1790C1283.55 -1790 1284 -1789.55 1284 -1789H1286C1286 -1790.66 1284.66 -1792 1283 -1792V-1790ZM-7225 -1792C-7226.66 -1792 -7228 -1790.66 -7228 -1789H-7226C-7226 -1789.55 -7225.55 -1790 -7225 -1790V-1792Z" fill="#FCFFFE" fill-opacity="0.1"/>
<g id="For RIA" clip-path="url(#clip0_0_1)">
<rect width="1280" height="3897.99" transform="translate(-75.5 -1711)" fill="#FCFFFE"/>
<g id="Who we serve">
<g id="Frame 2534" clip-path="url(#clip1_0_1)">
<g id="Frame 2531" filter="url(#filter0_d_0_1)">
<rect x="-15.5" y="-129" width="277" height="369.989" rx="8" fill="#FCFFFE" shape-rendering="crispEdges"/>
<rect x="-15" y="-128.5" width="276" height="368.989" rx="7.5" stroke="#525ECC" shape-rendering="crispEdges"/>
<g id="financial-data/rafiki">
<g id="background-complete">
<path id="Vector" d="M224.55 171.058H208.056V171.182H224.55V171.058Z" fill="#EBEBEB"/>
<path id="Vector_2" d="M165.447 172.413H161.12V172.537H165.447V172.413Z" fill="#EBEBEB"/>
<path id="Vector_3" d="M207.558 166.437H198.002V166.561H207.558V166.437Z" fill="#EBEBEB"/>
<path id="Vector_4" d="M48.1336 167.273H26.625V167.398H48.1336V167.273Z" fill="#EBEBEB"/>
<path id="Vector_5" d="M55.7231 167.273H52.5708V167.398H55.7231V167.273Z" fill="#EBEBEB"/>
<path id="Vector_6" d="M112.625 169.375H65.9722V169.499H112.625V169.375Z" fill="#EBEBEB"/>
<path id="Vector_7" d="M118.526 140.834H22.3721C21.618 140.834 20.8947 140.535 20.3614 140.002C19.8282 139.468 19.5286 138.745 19.5286 137.991V2.81868C19.5351 2.06884 19.8376 1.35194 20.3702 0.824043C20.9027 0.296142 21.6223 -2.87475e-05 22.3721 2.09287e-09H118.526C119.28 2.09288e-09 120.003 0.299591 120.537 0.832865C121.07 1.36614 121.37 2.08942 121.37 2.84358V137.991C121.37 138.745 121.07 139.468 120.537 140.002C120.003 140.535 119.28 140.834 118.526 140.834ZM22.3721 0.0996004C21.6514 0.100917 20.9606 0.387813 20.4509 0.897454C19.9413 1.4071 19.6544 2.09794 19.6531 2.81868V137.991C19.6544 138.712 19.9413 139.402 20.4509 139.912C20.9606 140.422 21.6514 140.709 22.3721 140.71H118.526C119.247 140.709 119.938 140.422 120.447 139.912C120.957 139.402 121.244 138.712 121.245 137.991V2.81868C121.244 2.09794 120.957 1.4071 120.447 0.897454C119.938 0.387813 119.247 0.100917 118.526 0.0996004H22.3721Z" fill="#EBEBEB"/>
<path id="Vector_8" d="M226.248 140.834H130.085C129.331 140.833 128.608 140.533 128.075 140C127.542 139.467 127.242 138.745 127.241 137.991V2.81868C127.249 2.06925 127.552 1.3531 128.084 0.825481C128.616 0.297858 129.335 0.00126905 130.085 0H226.248C226.996 0.00259184 227.713 0.29992 228.244 0.82754C228.774 1.35516 229.075 2.07056 229.082 2.81868V137.991C229.082 138.743 228.784 139.465 228.253 139.998C227.721 140.531 227.001 140.832 226.248 140.834ZM130.085 0.0996004C129.364 0.100917 128.673 0.387813 128.163 0.897454C127.654 1.4071 127.367 2.09794 127.365 2.81868V137.991C127.367 138.712 127.654 139.402 128.163 139.912C128.673 140.422 129.364 140.709 130.085 140.71H226.248C226.969 140.709 227.66 140.422 228.17 139.912C228.679 139.402 228.966 138.712 228.967 137.991V2.81868C228.966 2.09794 228.679 1.4071 228.17 0.897454C227.66 0.387813 226.969 0.100917 226.248 0.0996004H130.085Z" fill="#EBEBEB"/>
<path id="Vector_9" d="M249.5 163.045H0.5V163.17H249.5V163.045Z" fill="#EBEBEB"/>
<path id="Vector_10" d="M194.551 24.9548H55.4492V103.639H194.551V24.9548Z" fill="#E0E0E0"/>
<path id="Vector_11" d="M195.273 102.269H54.7271C54.2761 102.269 53.9104 102.635 53.9104 103.086V104.739C53.9104 105.19 54.2761 105.556 54.7271 105.556H195.273C195.724 105.556 196.089 105.19 196.089 104.739V103.086C196.089 102.635 195.724 102.269 195.273 102.269Z" fill="#EBEBEB"/>
<path id="Vector_12" d="M191.354 24.9548H58.6416V100.626H191.354V24.9548Z" fill="#FAFAFA"/>
<path id="Vector_13" d="M132.306 117.095L125.747 109.879V105.576C125.747 105.378 125.668 105.188 125.528 105.048C125.388 104.908 125.198 104.829 125 104.829C124.802 104.829 124.612 104.908 124.472 105.048C124.332 105.188 124.253 105.378 124.253 105.576V109.894L117.694 117.11C117.012 117.862 118.068 119.022 118.75 118.275C120.583 116.253 122.417 114.235 124.253 112.219V117.633C124.253 117.831 124.332 118.021 124.472 118.161C124.612 118.301 124.802 118.38 125 118.38C125.198 118.38 125.388 118.301 125.528 118.161C125.668 118.021 125.747 117.831 125.747 117.633V112.204C127.58 114.22 129.414 116.238 131.25 118.26C131.932 119.022 132.968 117.847 132.306 117.095Z" fill="#E6E6E6"/>
<path id="Vector_14" d="M197.708 21.3442H52.2971C51.1584 21.3442 50.2354 22.2673 50.2354 23.406V26.5035C50.2354 27.6422 51.1584 28.5652 52.2971 28.5652H197.708C198.847 28.5652 199.77 27.6422 199.77 26.5035V23.406C199.77 22.2673 198.847 21.3442 197.708 21.3442Z" fill="#F0F0F0"/>
<path id="Vector_15" d="M93.5563 118.753H34.7625V139.047H93.5563V118.753Z" fill="#EBEBEB"/>
<path id="Vector_16" d="M93.5563 139.047H34.7625V159.34H93.5563V139.047Z" fill="#EBEBEB"/>
<path id="Vector_17" d="M57.1028 139.047L64.4134 118.753H53.1586L45.843 139.047H57.1028Z" fill="#F0F0F0"/>
<path id="Vector_18" d="M69.8664 118.753H67.3913L60.0757 139.047H62.5507L69.8664 118.753Z" fill="#F0F0F0"/>
<path id="Vector_19" d="M49.7871 159.34L57.1027 139.047H45.843L38.5273 159.34H49.7871Z" fill="#F0F0F0"/>
<path id="Vector_20" d="M62.5507 139.047H60.0756L52.76 159.34H55.2351L62.5507 139.047Z" fill="#F0F0F0"/>
<path id="Vector_21" d="M93.5513 121.871V119.819H34.7574V121.871H93.5513Z" fill="#E0E0E0"/>
<path id="Vector_22" d="M93.5513 142.005V139.953H34.7574V142.005H93.5513Z" fill="#E0E0E0"/>
<path id="Vector_23" d="M65.6583 131.497C65.8921 131.497 66.1163 131.404 66.2816 131.239C66.4469 131.073 66.5397 130.849 66.5397 130.615C66.5397 130.382 66.4469 130.157 66.2816 129.992C66.1163 129.827 65.8921 129.734 65.6583 129.734H62.6703C62.4365 129.734 62.2123 129.827 62.047 129.992C61.8817 130.157 61.7888 130.382 61.7888 130.615C61.7888 130.849 61.8817 131.073 62.047 131.239C62.2123 131.404 62.4365 131.497 62.6703 131.497H65.6583Z" fill="#E0E0E0"/>
<path id="Vector_24" d="M65.6583 131.183C65.8921 131.183 66.1163 131.09 66.2816 130.925C66.4469 130.76 66.5397 130.536 66.5397 130.302C66.5397 130.068 66.4469 129.844 66.2816 129.678C66.1163 129.513 65.8921 129.42 65.6583 129.42H62.6703C62.4365 129.42 62.2123 129.513 62.047 129.678C61.8817 129.844 61.7888 130.068 61.7888 130.302C61.7888 130.536 61.8817 130.76 62.047 130.925C62.2123 131.09 62.4365 131.183 62.6703 131.183H65.6583Z" fill="#F5F5F5"/>
<path id="Vector_25" d="M65.6584 150.232C65.8814 150.215 66.0898 150.114 66.2419 149.951C66.3939 149.787 66.4784 149.571 66.4784 149.348C66.4784 149.124 66.3939 148.909 66.2419 148.745C66.0898 148.581 65.8814 148.48 65.6584 148.464H62.6704C62.4474 148.48 62.239 148.581 62.0869 148.745C61.9348 148.909 61.8503 149.124 61.8503 149.348C61.8503 149.571 61.9348 149.787 62.0869 149.951C62.239 150.114 62.4474 150.215 62.6704 150.232H65.6584Z" fill="#E0E0E0"/>
<path id="Vector_26" d="M65.6583 149.898C65.8921 149.898 66.1163 149.805 66.2816 149.64C66.4469 149.474 66.5397 149.25 66.5397 149.016C66.5397 148.783 66.4469 148.558 66.2816 148.393C66.1163 148.228 65.8921 148.135 65.6583 148.135H62.6703C62.4365 148.135 62.2123 148.228 62.047 148.393C61.8817 148.558 61.7888 148.783 61.7888 149.016C61.7888 149.25 61.8817 149.474 62.047 149.64C62.2123 149.805 62.4365 149.898 62.6703 149.898H65.6583Z" fill="#F5F5F5"/>
<path id="Vector_27" d="M33.7314 117.842V160.227H94.5771V117.842H33.7314ZM92.5253 158.18H35.7882V140.117H92.5253V158.18ZM92.5253 138.071H35.7882V120.018H92.5253V138.071Z" fill="#F5F5F5"/>
<path id="Vector_28" d="M154.397 118.753H95.603V139.047H154.397V118.753Z" fill="#EBEBEB"/>
<path id="Vector_29" d="M154.397 139.047H95.603V159.34H154.397V139.047Z" fill="#EBEBEB"/>
<path id="Vector_30" d="M141.185 139.047L148.501 118.753H137.246L129.93 139.047H141.185Z" fill="#F0F0F0"/>
<path id="Vector_31" d="M153.949 118.753H151.479L144.163 139.047H146.633L153.949 118.753Z" fill="#F0F0F0"/>
<path id="Vector_32" d="M133.874 159.34L141.185 139.047H129.93L122.615 159.34H133.874Z" fill="#F0F0F0"/>
<path id="Vector_33" d="M146.633 139.047H144.163L136.847 159.34H139.322L146.633 139.047Z" fill="#F0F0F0"/>
<path id="Vector_34" d="M154.397 121.871V119.819H95.6031V121.871H154.397Z" fill="#E0E0E0"/>
<path id="Vector_35" d="M154.397 142.005V139.953H95.6031V142.005H154.397Z" fill="#E0E0E0"/>
<path id="Vector_36" d="M126.494 131.497C126.728 131.497 126.952 131.404 127.117 131.239C127.283 131.073 127.375 130.849 127.375 130.615C127.375 130.382 127.283 130.157 127.117 129.992C126.952 129.827 126.728 129.734 126.494 129.734H123.506C123.272 129.734 123.048 129.827 122.883 129.992C122.717 130.157 122.625 130.382 122.625 130.615C122.625 130.849 122.717 131.073 122.883 131.239C123.048 131.404 123.272 131.497 123.506 131.497H126.494Z" fill="#E0E0E0"/>
<path id="Vector_37" d="M126.494 131.183C126.728 131.183 126.952 131.09 127.117 130.925C127.283 130.76 127.375 130.536 127.375 130.302C127.375 130.068 127.283 129.844 127.117 129.678C126.952 129.513 126.728 129.42 126.494 129.42H123.506C123.272 129.42 123.048 129.513 122.883 129.678C122.717 129.844 122.625 130.068 122.625 130.302C122.625 130.536 122.717 130.76 122.883 130.925C123.048 131.09 123.272 131.183 123.506 131.183H126.494Z" fill="#F5F5F5"/>
<path id="Vector_38" d="M126.494 150.232C126.717 150.215 126.925 150.114 127.078 149.951C127.23 149.787 127.314 149.571 127.314 149.348C127.314 149.124 127.23 148.909 127.078 148.745C126.925 148.581 126.717 148.48 126.494 148.464H123.506C123.283 148.48 123.075 148.581 122.923 148.745C122.771 148.909 122.686 149.124 122.686 149.348C122.686 149.571 122.771 149.787 122.923 149.951C123.075 150.114 123.283 150.215 123.506 150.232H126.494Z" fill="#E0E0E0"/>
<path id="Vector_39" d="M126.494 149.898C126.728 149.898 126.952 149.805 127.117 149.64C127.283 149.474 127.375 149.25 127.375 149.016C127.375 148.783 127.283 148.558 127.117 148.393C126.952 148.228 126.728 148.135 126.494 148.135H123.506C123.272 148.135 123.048 148.228 122.883 148.393C122.717 148.558 122.625 148.783 122.625 149.016C122.625 149.25 122.717 149.474 122.883 149.64C123.048 149.805 123.272 149.898 123.506 149.898H126.494Z" fill="#F5F5F5"/>
<path id="Vector_40" d="M94.5771 117.842V160.227H155.423V117.842H94.5771ZM153.371 158.18H96.614V140.117H153.386L153.371 158.18ZM153.371 138.071H96.614V120.018H153.386L153.371 138.071Z" fill="#F5F5F5"/>
<path id="Vector_41" d="M215.243 118.753H156.449V139.047H215.243V118.753Z" fill="#EBEBEB"/>
<path id="Vector_42" d="M215.243 139.047H156.449V159.34H215.243V139.047Z" fill="#EBEBEB"/>
<path id="Vector_43" d="M193.679 139.047L200.995 118.753H189.735L182.419 139.047H193.679Z" fill="#F0F0F0"/>
<path id="Vector_44" d="M206.443 118.753H203.968L196.652 139.047H199.127L206.443 118.753Z" fill="#F0F0F0"/>
<path id="Vector_45" d="M186.364 159.34L193.679 139.047H182.419L175.104 159.34H186.364Z" fill="#F0F0F0"/>
<path id="Vector_46" d="M199.127 139.047H196.652L189.337 159.34H191.812L199.127 139.047Z" fill="#F0F0F0"/>
<path id="Vector_47" d="M215.243 121.875V119.824H156.449V121.875H215.243Z" fill="#E0E0E0"/>
<path id="Vector_48" d="M215.238 142.01V139.958H156.444V142.01H215.238Z" fill="#E0E0E0"/>
<path id="Vector_49" d="M187.35 131.497C187.583 131.497 187.808 131.404 187.973 131.239C188.138 131.073 188.231 130.849 188.231 130.615C188.231 130.382 188.138 130.157 187.973 129.992C187.808 129.827 187.583 129.734 187.35 129.734H184.362C184.128 129.734 183.904 129.827 183.738 129.992C183.573 130.157 183.48 130.382 183.48 130.615C183.48 130.849 183.573 131.073 183.738 131.239C183.904 131.404 184.128 131.497 184.362 131.497H187.35Z" fill="#E0E0E0"/>
<path id="Vector_50" d="M187.35 131.183C187.583 131.183 187.808 131.09 187.973 130.925C188.138 130.76 188.231 130.536 188.231 130.302C188.231 130.068 188.138 129.844 187.973 129.678C187.808 129.513 187.583 129.42 187.35 129.42H184.362C184.128 129.42 183.904 129.513 183.738 129.678C183.573 129.844 183.48 130.068 183.48 130.302C183.48 130.536 183.573 130.76 183.738 130.925C183.904 131.09 184.128 131.183 184.362 131.183H187.35Z" fill="#F5F5F5"/>
<path id="Vector_51" d="M187.35 150.232C187.573 150.215 187.781 150.114 187.933 149.951C188.085 149.787 188.17 149.571 188.17 149.348C188.17 149.124 188.085 148.909 187.933 148.745C187.781 148.581 187.573 148.48 187.35 148.464H184.362C184.139 148.48 183.93 148.581 183.778 148.745C183.626 148.909 183.542 149.124 183.542 149.348C183.542 149.571 183.626 149.787 183.778 149.951C183.93 150.114 184.139 150.215 184.362 150.232H187.35Z" fill="#E0E0E0"/>
<path id="Vector_52" d="M187.35 149.898C187.583 149.898 187.808 149.805 187.973 149.64C188.138 149.474 188.231 149.25 188.231 149.016C188.231 148.783 188.138 148.558 187.973 148.393C187.808 148.228 187.583 148.135 187.35 148.135H184.362C184.128 148.135 183.904 148.228 183.738 148.393C183.573 148.558 183.48 148.783 183.48 149.016C183.48 149.25 183.573 149.474 183.738 149.64C183.904 149.805 184.128 149.898 184.362 149.898H187.35Z" fill="#F5F5F5"/>
<path id="Vector_53" d="M155.423 117.842V160.227H216.268V117.842H155.423ZM214.212 158.18H157.475V140.117H214.212V158.18ZM214.212 138.071H157.475V120.018H214.212V138.071Z" fill="#F5F5F5"/>
<path id="Vector_54" d="M210.382 163.279H39.618L38.7266 160.227H211.274L210.382 163.279Z" fill="#E0E0E0"/>
</g>
<g id="Shadow">
<path id="path" d="M122.6 183.618C175.927 183.618 219.157 181.094 219.157 177.98C219.157 174.867 175.927 172.343 122.6 172.343C69.2726 172.343 26.0425 174.867 26.0425 177.98C26.0425 181.094 69.2726 183.618 122.6 183.618Z" fill="#F5F5F5"/>
</g>
<g id="Data">
<path id="Vector_55" d="M129.357 33.5354L127.525 68.5199C127.496 68.9602 127.558 69.4017 127.708 69.8167C127.858 70.2317 128.092 70.6113 128.395 70.9316C128.699 71.2519 129.065 71.506 129.472 71.678C129.878 71.85 130.315 71.9362 130.757 71.9312H177.006C177.924 71.9215 178.805 71.5642 179.47 70.9312C180.135 70.2982 180.536 69.4365 180.592 68.5199L182.429 33.5354C182.457 33.0952 182.394 32.654 182.244 32.2394C182.094 31.8247 181.86 31.4454 181.557 31.1252C181.253 30.8051 180.887 30.551 180.481 30.3787C180.075 30.2064 179.638 30.1197 179.197 30.1241H132.968C132.046 30.1286 131.159 30.4835 130.489 31.1169C129.819 31.7503 129.414 32.6148 129.357 33.5354Z" fill="#525ECC"/>
<path id="Vector_56" opacity="0.5" d="M129.357 33.5354L127.525 68.5199C127.496 68.9602 127.558 69.4017 127.708 69.8167C127.858 70.2317 128.092 70.6113 128.395 70.9316C128.699 71.2519 129.065 71.506 129.472 71.678C129.878 71.85 130.315 71.9362 130.757 71.9312H177.006C177.924 71.9215 178.805 71.5642 179.47 70.9312C180.135 70.2982 180.536 69.4365 180.592 68.5199L182.429 33.5354C182.457 33.0952 182.394 32.654 182.244 32.2394C182.094 31.8247 181.86 31.4454 181.557 31.1252C181.253 30.8051 180.887 30.551 180.481 30.3787C180.075 30.2064 179.638 30.1197 179.197 30.1241H132.968C132.046 30.1286 131.159 30.4835 130.489 31.1169C129.819 31.7503 129.414 32.6148 129.357 33.5354Z" fill="white"/>
<path id="Vector_57" d="M180.343 30.1241H179.197C179.638 30.1197 180.075 30.2064 180.481 30.3787C180.887 30.551 181.254 30.8051 181.557 31.1252C181.86 31.4454 182.094 31.8247 182.244 32.2394C182.394 32.654 182.457 33.0952 182.429 33.5354L180.592 68.5199C180.536 69.4365 180.136 70.2982 179.47 70.9312C178.805 71.5642 177.924 71.9215 177.006 71.9312H178.152C179.07 71.9215 179.95 71.5642 180.616 70.9312C181.281 70.2982 181.682 69.4365 181.737 68.5199L183.575 33.5354C183.603 33.0952 183.54 32.654 183.39 32.2394C183.24 31.8247 183.006 31.4454 182.702 31.1252C182.399 30.8051 182.033 30.551 181.627 30.3787C181.221 30.2064 180.784 30.1197 180.343 30.1241Z" fill="#525ECC"/>
<path id="Vector_58" d="M133.197 33.9885L131.414 68.0667H176.732L178.52 33.9885H133.197ZM177.962 39.4665H172.763L173.032 34.2624H178.236L177.962 39.4665ZM154.676 51.294L154.407 56.3537H149.352L149.616 51.294H154.676ZM149.646 50.7213L149.91 45.6616H154.969L154.706 50.7213H149.646ZM155.248 51.294H160.303L160.039 56.3537H154.979L155.248 51.294ZM155.278 50.7213L155.542 45.6616H160.602L160.358 50.7412L155.278 50.7213ZM161.175 45.6616H166.234L165.965 50.7213H160.906L161.175 45.6616ZM161.204 45.0889L161.468 40.0342H166.528L166.264 45.0889H161.204ZM160.632 45.0889H155.572L155.836 40.0342H160.896L160.632 45.0889ZM154.999 45.0889H149.94L150.204 40.0342H155.263L154.999 45.0889ZM149.367 45.0889H144.307L144.571 40.0342H149.631L149.367 45.0889ZM149.337 45.6616L149.073 50.7213H144.013L144.277 45.6616H149.337ZM143.426 50.7412H138.381L138.645 45.6816H143.705L143.426 50.7412ZM143.426 51.294L143.162 56.3537H138.087L138.351 51.294H143.426ZM143.999 51.294H149.058L148.794 56.3537H143.72L143.999 51.294ZM148.764 56.9264L148.495 61.9861H143.426L143.695 56.9264H148.764ZM149.337 56.9264H154.382L154.118 61.9861H149.053L149.337 56.9264ZM154.964 56.9264H160.009L159.745 61.9861H154.686L154.964 56.9264ZM160.597 56.9264H165.657L165.393 61.9861H160.318L160.597 56.9264ZM160.627 56.3537L160.856 51.294H165.935L165.671 56.3537H160.627ZM166.508 51.294H171.568L171.314 56.3736H166.244L166.508 51.294ZM166.538 50.7213L166.807 45.6616H171.862L171.598 50.7213H166.538ZM166.837 45.0889L167.101 40.0342H172.16L171.891 45.0889H166.837ZM167.131 39.4615L167.405 34.2574H172.459L172.19 39.4615H167.131ZM166.558 39.4615H161.498L161.772 34.2574H166.832L166.558 39.4615ZM160.926 39.4615H155.876L156.15 34.2574H161.209L160.926 39.4615ZM155.293 39.4615H150.233L150.507 34.2574H155.567L155.293 39.4615ZM149.661 39.4615H144.606L144.875 34.2574H149.935L149.661 39.4615ZM144.033 39.4615H138.974L139.243 34.2574H144.302L144.033 39.4615ZM143.999 40.0342L143.735 45.0889H138.675L138.944 40.0342H143.999ZM138.102 45.0889H132.903L133.167 40.0342H138.371L138.102 45.0889ZM138.072 45.6616L137.808 50.7213H132.609L132.873 45.6616H138.072ZM137.779 51.294L137.515 56.3537H132.31L132.579 51.294H137.779ZM137.485 56.9264L137.221 61.9861H132.017L132.281 56.9264H137.485ZM138.057 56.9264H143.117L142.848 61.9861H137.793L138.057 56.9264ZM142.818 62.5588L142.549 67.7579H137.49L137.764 62.5588H142.818ZM143.391 62.5588H148.451L148.182 67.7579H143.122L143.391 62.5588ZM149.023 62.5588H154.083L153.809 67.7579H148.754L149.023 62.5588ZM154.656 62.5588H159.715L159.441 67.7579H154.382L154.656 62.5588ZM160.288 62.5588H165.338L165.064 67.7579H160.014L160.288 62.5588ZM165.92 62.5588H170.98L170.706 67.7579H165.647L165.92 62.5588ZM165.95 61.9861L166.214 56.9264H171.274L171.01 61.9861H165.95ZM171.847 56.9264H177.046L176.792 62.006H171.583L171.847 56.9264ZM171.877 56.3537L172.14 51.294H177.345L177.076 56.3537H171.877ZM172.17 50.7213L172.434 45.6616H177.638L177.374 50.7213H172.17ZM172.464 45.0889L172.733 40.0342H177.932L177.668 45.0889H172.464ZM138.67 34.2574L138.401 39.4615H133.197L133.471 34.2574H138.67ZM131.972 62.5787H137.176L136.902 67.7778H131.713L131.972 62.5787ZM171.264 67.7778L171.538 62.5787H176.737L176.463 67.7778H171.264Z" fill="#525ECC"/>
<path id="Vector_59" opacity="0.25" d="M133.197 33.9885L131.414 68.0667H176.732L178.52 33.9885H133.197ZM177.962 39.4665H172.763L173.032 34.2624H178.236L177.962 39.4665ZM154.676 51.294L154.407 56.3537H149.352L149.616 51.294H154.676ZM149.646 50.7213L149.91 45.6616H154.969L154.706 50.7213H149.646ZM155.248 51.294H160.303L160.039 56.3537H154.979L155.248 51.294ZM155.278 50.7213L155.542 45.6616H160.602L160.358 50.7412L155.278 50.7213ZM161.175 45.6616H166.234L165.965 50.7213H160.906L161.175 45.6616ZM161.204 45.0889L161.468 40.0342H166.528L166.264 45.0889H161.204ZM160.632 45.0889H155.572L155.836 40.0342H160.896L160.632 45.0889ZM154.999 45.0889H149.94L150.204 40.0342H155.263L154.999 45.0889ZM149.367 45.0889H144.307L144.571 40.0342H149.631L149.367 45.0889ZM149.337 45.6616L149.073 50.7213H144.013L144.277 45.6616H149.337ZM143.426 50.7412H138.381L138.645 45.6816H143.705L143.426 50.7412ZM143.426 51.294L143.162 56.3537H138.087L138.351 51.294H143.426ZM143.999 51.294H149.058L148.794 56.3537H143.72L143.999 51.294ZM148.764 56.9264L148.495 61.9861H143.426L143.695 56.9264H148.764ZM149.337 56.9264H154.382L154.118 61.9861H149.053L149.337 56.9264ZM154.964 56.9264H160.009L159.745 61.9861H154.686L154.964 56.9264ZM160.597 56.9264H165.657L165.393 61.9861H160.318L160.597 56.9264ZM160.627 56.3537L160.856 51.294H165.935L165.671 56.3537H160.627ZM166.508 51.294H171.568L171.314 56.3736H166.244L166.508 51.294ZM166.538 50.7213L166.807 45.6616H171.862L171.598 50.7213H166.538ZM166.837 45.0889L167.101 40.0342H172.16L171.891 45.0889H166.837ZM167.131 39.4615L167.405 34.2574H172.459L172.19 39.4615H167.131ZM166.558 39.4615H161.498L161.772 34.2574H166.832L166.558 39.4615ZM160.926 39.4615H155.876L156.15 34.2574H161.209L160.926 39.4615ZM155.293 39.4615H150.233L150.507 34.2574H155.567L155.293 39.4615ZM149.661 39.4615H144.606L144.875 34.2574H149.935L149.661 39.4615ZM144.033 39.4615H138.974L139.243 34.2574H144.302L144.033 39.4615ZM143.999 40.0342L143.735 45.0889H138.675L138.944 40.0342H143.999ZM138.102 45.0889H132.903L133.167 40.0342H138.371L138.102 45.0889ZM138.072 45.6616L137.808 50.7213H132.609L132.873 45.6616H138.072ZM137.779 51.294L137.515 56.3537H132.31L132.579 51.294H137.779ZM137.485 56.9264L137.221 61.9861H132.017L132.281 56.9264H137.485ZM138.057 56.9264H143.117L142.848 61.9861H137.793L138.057 56.9264ZM142.818 62.5588L142.549 67.7579H137.49L137.764 62.5588H142.818ZM143.391 62.5588H148.451L148.182 67.7579H143.122L143.391 62.5588ZM149.023 62.5588H154.083L153.809 67.7579H148.754L149.023 62.5588ZM154.656 62.5588H159.715L159.441 67.7579H154.382L154.656 62.5588ZM160.288 62.5588H165.338L165.064 67.7579H160.014L160.288 62.5588ZM165.92 62.5588H170.98L170.706 67.7579H165.647L165.92 62.5588ZM165.95 61.9861L166.214 56.9264H171.274L171.01 61.9861H165.95ZM171.847 56.9264H177.046L176.792 62.006H171.583L171.847 56.9264ZM171.877 56.3537L172.14 51.294H177.345L177.076 56.3537H171.877ZM172.17 50.7213L172.434 45.6616H177.638L177.374 50.7213H172.17ZM172.464 45.0889L172.733 40.0342H177.932L177.668 45.0889H172.464ZM138.67 34.2574L138.401 39.4615H133.197L133.471 34.2574H138.67ZM131.972 62.5787H137.176L136.902 67.7778H131.713L131.972 62.5787ZM171.264 67.7778L171.538 62.5787H176.737L176.463 67.7778H171.264Z" fill="white"/>
<path id="Vector_60" opacity="0.1" d="M169.287 53.7342L155.876 52.3548L168.431 47.6935L168.57 45.074C166.08 41.3739 160.886 38.849 154.726 38.849C145.901 38.849 138.471 44.0382 138.137 50.4375C138.137 50.6217 138.137 50.806 138.137 50.9902C138.137 51.1745 138.018 52.8727 138.008 53.0569C137.674 59.4612 144.556 64.6454 153.386 64.6454C160.632 64.6454 166.932 61.1594 169.143 56.3587L169.287 53.7342Z" fill="black"/>
<path id="Vector_61" opacity="0.1" d="M163.316 50.1037L178.465 53.4005C178.952 52.365 179.236 51.2459 179.302 50.1037C179.302 49.78 179.302 49.4663 179.302 49.1475C179.359 48.8181 179.395 48.4855 179.411 48.1515C179.501 46.244 178.962 44.3597 177.877 42.7881L163.435 48.1515L163.316 50.1037Z" fill="black"/>
<path id="Vector_62" d="M168.201 52.5888L154.805 51.2094L167.36 46.5481L167.499 43.9286C165.009 40.2285 159.815 37.7036 153.655 37.7036C144.83 37.7036 137.4 42.8928 137.066 49.2921C137.066 49.4763 137.066 49.6606 137.066 49.8448C137.066 50.0291 136.947 51.7273 136.937 51.9116C136.603 58.3158 143.486 63.5 152.315 63.5C159.561 63.5 165.861 60.014 168.072 55.2133L168.201 52.5888Z" fill="#525ECC"/>
<path id="Vector_63" d="M153.047 49.302L167.489 43.9385C164.999 40.2384 159.805 37.7135 153.645 37.7135C144.82 37.7135 137.39 42.9027 137.057 49.302C136.723 55.7013 143.605 60.8904 152.43 60.8904C159.681 60.8904 165.98 57.4044 168.192 52.5987L153.047 49.302Z" fill="white"/>
<path id="Vector_64" d="M162.23 48.9583L177.38 52.2551C177.866 51.2196 178.15 50.1006 178.216 48.9583C178.216 48.6346 178.216 48.3209 178.216 48.0022C178.273 47.6727 178.31 47.3401 178.326 47.0062C178.415 45.1003 177.876 43.218 176.792 41.6477L162.35 47.0112L162.23 48.9583Z" fill="#525ECC"/>
<path id="Vector_65" d="M177.484 50.298C177.97 49.2625 178.252 48.1433 178.316 47.0012C178.406 45.0981 177.871 43.2178 176.792 41.6477L162.35 47.0112L177.484 50.298Z" fill="white"/>
<path id="Vector_66" opacity="0.1" d="M135.254 55.7212L136.598 30.124H132.968C132.049 30.1336 131.168 30.4908 130.502 31.1237C129.836 31.7565 129.434 32.6182 129.377 33.5353L127.545 68.5198C127.516 68.9601 127.578 69.4016 127.728 69.8166C127.878 70.2317 128.112 70.6112 128.415 70.9315C128.719 71.2519 129.085 71.506 129.492 71.678C129.898 71.85 130.336 71.9362 130.777 71.9311H152.689L153.022 65.6115C153.065 64.8909 152.96 64.1691 152.713 63.4909C152.465 62.8127 152.081 62.1925 151.585 61.6687C151.088 61.1449 150.489 60.7287 149.825 60.4457C149.161 60.1628 148.446 60.0193 147.724 60.0239H133.087C133.723 59.4923 134.243 58.8364 134.615 58.0965C134.988 57.3565 135.205 56.5482 135.254 55.7212Z" fill="black"/>
<path id="Vector_67" d="M80.3891 20.6023L78.5514 55.5918C78.5233 56.0319 78.5863 56.4731 78.7364 56.8878C78.8866 57.3024 79.1206 57.6817 79.4239 58.0019C79.7272 58.322 80.0933 58.5762 80.4993 58.7484C80.9053 58.9207 81.3425 59.0074 81.7835 59.0031H128.033C128.952 58.9935 129.833 58.6363 130.499 58.0034C131.165 57.3705 131.567 56.5089 131.623 55.5918L133.466 20.6023C133.495 20.1622 133.432 19.7209 133.282 19.3062C133.133 18.8914 132.898 18.5121 132.595 18.1922C132.291 17.8723 131.925 17.6186 131.519 17.4472C131.112 17.2757 130.675 17.1902 130.234 17.196H83.9747C83.0568 17.2044 82.1763 17.5606 81.5109 18.1928C80.8454 18.825 80.4445 19.6861 80.3891 20.6023Z" fill="#525ECC"/>
<path id="Vector_68" opacity="0.5" d="M80.3891 20.6023L78.5514 55.5918C78.5233 56.0319 78.5863 56.4731 78.7364 56.8878C78.8866 57.3024 79.1206 57.6817 79.4239 58.0019C79.7272 58.322 80.0933 58.5762 80.4993 58.7484C80.9053 58.9207 81.3425 59.0074 81.7835 59.0031H128.033C128.952 58.9935 129.833 58.6363 130.499 58.0034C131.165 57.3705 131.567 56.5089 131.623 55.5918L133.466 20.6023C133.495 20.1622 133.432 19.7209 133.282 19.3062C133.133 18.8914 132.898 18.5121 132.595 18.1922C132.291 17.8723 131.925 17.6186 131.519 17.4472C131.112 17.2757 130.675 17.1902 130.234 17.196H83.9747C83.0568 17.2044 82.1763 17.5606 81.5109 18.1928C80.8454 18.825 80.4445 19.6861 80.3891 20.6023Z" fill="white"/>
<path id="Vector_69" d="M131.369 17.196H130.224C130.666 17.1888 131.104 17.2733 131.512 17.4442C131.919 17.615 132.287 17.8685 132.592 18.1885C132.896 18.5086 133.131 18.8884 133.282 19.3038C133.432 19.7192 133.495 20.1614 133.466 20.6023L131.633 55.5918C131.577 56.5089 131.175 57.3706 130.509 58.0034C129.843 58.6363 128.962 58.9935 128.043 59.0031H129.188C130.107 58.9935 130.988 58.6363 131.654 58.0034C132.32 57.3706 132.722 56.5089 132.779 55.5918L134.611 20.6023C134.64 20.1614 134.578 19.7192 134.427 19.3038C134.277 18.8884 134.042 18.5086 133.737 18.1885C133.432 17.8685 133.065 17.615 132.657 17.4442C132.25 17.2733 131.811 17.1888 131.369 17.196Z" fill="#525ECC"/>
<path id="Vector_70" d="M84.2287 21.0604L82.4409 55.1336H127.784L129.567 21.0604H84.2287ZM128.994 26.5384H123.79L124.064 21.3343H129.268L128.994 26.5384ZM105.702 38.3759L105.439 43.4306H100.379L100.643 38.3759H105.702ZM100.678 37.8032L100.942 32.7435H106.001L105.732 37.8032H100.678ZM106.275 38.3759H111.335L111.056 43.4405H106.011L106.275 38.3759ZM106.305 37.8032L106.574 32.7435H111.629L111.365 37.8032H106.305ZM112.201 32.7435H117.261L116.997 37.8032H111.937L112.201 32.7435ZM112.231 32.1708L112.5 27.1111H117.56L117.291 32.1708H112.231ZM111.659 32.1708H106.604L106.868 27.1111H111.927L111.659 32.1708ZM106.031 32.1708H100.972L101.235 27.1111H106.295L106.031 32.1708ZM100.399 32.1708H95.3391L95.6031 27.1111H100.663L100.399 32.1708ZM100.369 32.7435L100.1 37.8131H95.0453L95.3092 32.7535L100.369 32.7435ZM94.4726 37.8131H89.4129L89.6769 32.7535H94.7365L94.4726 37.8131ZM94.4427 38.3858L94.1738 43.4405H89.144L89.4079 38.3858H94.4427ZM95.0154 38.3858H100.07L99.8062 43.4405H94.7465L95.0154 38.3858ZM99.7763 44.0132L99.5124 49.0729H94.4527L94.7166 44.0132H99.7763ZM100.349 44.0132H105.409L105.145 49.0729H100.1L100.349 44.0132ZM105.981 44.0132H111.056L110.792 49.0729H105.717L105.981 44.0132ZM111.614 44.0132H116.673L116.405 49.0729H111.35L111.614 44.0132ZM111.644 43.4405L111.908 38.3858H116.967L116.703 43.4405H111.644ZM117.53 38.3858H122.59L122.326 43.4405H117.276L117.53 38.3858ZM117.56 37.8131L117.824 32.7535H122.883L122.62 37.8131H117.56ZM117.854 32.1808L118.123 27.1211H123.177L122.913 32.1808H117.854ZM118.153 26.5484L118.421 21.3443H123.506L123.232 26.5484H118.153ZM117.58 26.5484H112.55L112.819 21.3443H117.879L117.58 26.5484ZM111.947 26.5484H106.898L107.172 21.3443H112.226L111.947 26.5484ZM106.315 26.5484H101.265L101.539 21.3443H106.599L106.315 26.5484ZM100.683 26.5484H95.618L95.8919 21.3443H100.952L100.683 26.5484ZM95.0503 26.5484H90.0006L90.2745 21.3443H95.3341L95.0503 26.5484ZM95.0204 27.1211L94.7565 32.1808H89.7067L89.9707 27.1211H95.0204ZM89.144 32.1808H83.9349L84.1989 27.1211H89.398L89.144 32.1808ZM89.1141 32.7535L88.8502 37.8131H83.6361L83.9001 32.7535H89.1141ZM88.8203 38.3858L88.5564 43.4405H83.3423L83.6062 38.3858H88.8203ZM88.5265 44.0132L88.2576 49.0729H83.0485L83.3124 44.0132H88.5265ZM89.0992 44.0132H94.124L93.8601 49.0729H88.8203L89.0992 44.0132ZM93.8601 49.6456L93.5862 54.8497H88.5215L88.7904 49.6456H93.8601ZM94.4328 49.6456H99.4924L99.2185 54.8497H94.1489L94.4328 49.6456ZM100.065 49.6456H105.125L104.851 54.8497H99.7813L100.065 49.6456ZM105.698 49.6456H110.757L110.483 54.8497H105.414L105.698 49.6456ZM111.33 49.6456H116.385L116.116 54.8497H111.056L111.33 49.6456ZM116.957 49.6456H122.012L121.743 54.8497H116.678L116.957 49.6456ZM116.987 49.0729L117.256 44.0132H122.316L122.047 49.0729H116.987ZM122.888 44.0132H128.088L127.824 49.0729H122.61L122.888 44.0132ZM122.918 43.4405L123.182 38.3858H128.381L128.117 43.4405H122.918ZM123.212 37.8131L123.476 32.7535H128.68L128.411 37.8131H123.212ZM123.506 32.1808L123.77 27.1211H128.984L128.72 32.1808H123.506ZM89.7018 21.3443L89.4279 26.5484H84.2287L84.5026 21.3443H89.7018ZM83.0186 49.6456H88.2177L87.9488 54.8497H82.7447L83.0186 49.6456ZM122.311 54.8497L122.58 49.6456H127.784L127.49 54.8497H122.311Z" fill="#525ECC"/>
<path id="Vector_71" opacity="0.25" d="M84.2287 21.0604L82.4409 55.1336H127.784L129.567 21.0604H84.2287ZM128.994 26.5384H123.79L124.064 21.3343H129.268L128.994 26.5384ZM105.702 38.3759L105.439 43.4306H100.379L100.643 38.3759H105.702ZM100.678 37.8032L100.942 32.7435H106.001L105.732 37.8032H100.678ZM106.275 38.3759H111.335L111.056 43.4405H106.011L106.275 38.3759ZM106.305 37.8032L106.574 32.7435H111.629L111.365 37.8032H106.305ZM112.201 32.7435H117.261L116.997 37.8032H111.937L112.201 32.7435ZM112.231 32.1708L112.5 27.1111H117.56L117.291 32.1708H112.231ZM111.659 32.1708H106.604L106.868 27.1111H111.927L111.659 32.1708ZM106.031 32.1708H100.972L101.235 27.1111H106.295L106.031 32.1708ZM100.399 32.1708H95.3391L95.6031 27.1111H100.663L100.399 32.1708ZM100.369 32.7435L100.1 37.8131H95.0453L95.3092 32.7535L100.369 32.7435ZM94.4726 37.8131H89.4129L89.6769 32.7535H94.7365L94.4726 37.8131ZM94.4427 38.3858L94.1738 43.4405H89.144L89.4079 38.3858H94.4427ZM95.0154 38.3858H100.07L99.8062 43.4405H94.7465L95.0154 38.3858ZM99.7763 44.0132L99.5124 49.0729H94.4527L94.7166 44.0132H99.7763ZM100.349 44.0132H105.409L105.145 49.0729H100.1L100.349 44.0132ZM105.981 44.0132H111.056L110.792 49.0729H105.717L105.981 44.0132ZM111.614 44.0132H116.673L116.405 49.0729H111.35L111.614 44.0132ZM111.644 43.4405L111.908 38.3858H116.967L116.703 43.4405H111.644ZM117.53 38.3858H122.59L122.326 43.4405H117.276L117.53 38.3858ZM117.56 37.8131L117.824 32.7535H122.883L122.62 37.8131H117.56ZM117.854 32.1808L118.123 27.1211H123.177L122.913 32.1808H117.854ZM118.153 26.5484L118.421 21.3443H123.506L123.232 26.5484H118.153ZM117.58 26.5484H112.55L112.819 21.3443H117.879L117.58 26.5484ZM111.947 26.5484H106.898L107.172 21.3443H112.226L111.947 26.5484ZM106.315 26.5484H101.265L101.539 21.3443H106.599L106.315 26.5484ZM100.683 26.5484H95.618L95.8919 21.3443H100.952L100.683 26.5484ZM95.0503 26.5484H90.0006L90.2745 21.3443H95.3341L95.0503 26.5484ZM95.0204 27.1211L94.7565 32.1808H89.7067L89.9707 27.1211H95.0204ZM89.144 32.1808H83.9349L84.1989 27.1211H89.398L89.144 32.1808ZM89.1141 32.7535L88.8502 37.8131H83.6361L83.9001 32.7535H89.1141ZM88.8203 38.3858L88.5564 43.4405H83.3423L83.6062 38.3858H88.8203ZM88.5265 44.0132L88.2576 49.0729H83.0485L83.3124 44.0132H88.5265ZM89.0992 44.0132H94.124L93.8601 49.0729H88.8203L89.0992 44.0132ZM93.8601 49.6456L93.5862 54.8497H88.5215L88.7904 49.6456H93.8601ZM94.4328 49.6456H99.4924L99.2185 54.8497H94.1489L94.4328 49.6456ZM100.065 49.6456H105.125L104.851 54.8497H99.7813L100.065 49.6456ZM105.698 49.6456H110.757L110.483 54.8497H105.414L105.698 49.6456ZM111.33 49.6456H116.385L116.116 54.8497H111.056L111.33 49.6456ZM116.957 49.6456H122.012L121.743 54.8497H116.678L116.957 49.6456ZM116.987 49.0729L117.256 44.0132H122.316L122.047 49.0729H116.987ZM122.888 44.0132H128.088L127.824 49.0729H122.61L122.888 44.0132ZM122.918 43.4405L123.182 38.3858H128.381L128.117 43.4405H122.918ZM123.212 37.8131L123.476 32.7535H128.68L128.411 37.8131H123.212ZM123.506 32.1808L123.77 27.1211H128.984L128.72 32.1808H123.506ZM89.7018 21.3443L89.4279 26.5484H84.2287L84.5026 21.3443H89.7018ZM83.0186 49.6456H88.2177L87.9488 54.8497H82.7447L83.0186 49.6456ZM122.311 54.8497L122.58 49.6456H127.784L127.49 54.8497H122.311Z" fill="white"/>
<path id="Vector_72" opacity="0.1" d="M119.801 27.9777L120.752 28.9836L111.663 37.6239L106.325 31.9915L99.4076 38.5651L93.8798 48.57L88.5413 42.9376L82.6699 53.5749L82.5354 56.1346H83.8153L88.9696 46.807L94.3031 52.4394L101.22 39.9197L106.156 35.2335L111.494 40.8609L122.291 30.6021L123.242 31.6081L123.431 27.9777H119.801Z" fill="black"/>
<path id="Vector_73" d="M119.866 26.8323L120.812 27.8382L111.723 36.4785L106.385 30.8462L99.4674 37.4198L93.9397 47.4246L88.6011 41.7972L82.7297 52.4295L82.5952 54.9942H83.8751L89.0294 45.6617L94.3629 51.294L101.28 38.7743L106.215 34.0832L111.554 39.7155L122.351 29.4567L123.302 30.4627L123.491 26.8323H119.866Z" fill="white"/>
<path id="Vector_74" d="M103.392 65.4771L101.798 95.9049C101.773 96.2873 101.828 96.6708 101.958 97.0312C102.089 97.3916 102.292 97.7213 102.556 97.9994C102.819 98.2776 103.138 98.4983 103.491 98.6478C103.843 98.7972 104.223 98.8722 104.607 98.868H144.825C145.623 98.8594 146.388 98.5491 146.967 97.9993C147.545 97.4496 147.894 96.7013 147.943 95.9049L149.541 65.4771C149.565 65.0943 149.51 64.7108 149.379 64.3503C149.248 63.9899 149.044 63.6603 148.78 63.3823C148.516 63.1042 148.198 62.8835 147.844 62.7341C147.491 62.5847 147.111 62.5098 146.728 62.514H106.514C105.716 62.5224 104.95 62.8326 104.371 63.3822C103.792 63.9318 103.442 64.6802 103.392 65.4771Z" fill="#525ECC"/>
<path id="Vector_75" opacity="0.5" d="M103.392 65.4771L101.798 95.9049C101.773 96.2873 101.828 96.6708 101.958 97.0312C102.089 97.3916 102.292 97.7213 102.556 97.9994C102.819 98.2776 103.138 98.4983 103.491 98.6478C103.843 98.7972 104.223 98.8722 104.607 98.868H144.825C145.623 98.8594 146.388 98.5491 146.967 97.9993C147.545 97.4496 147.894 96.7013 147.943 95.9049L149.541 65.4771C149.565 65.0943 149.51 64.7108 149.379 64.3503C149.248 63.9899 149.044 63.6603 148.78 63.3823C148.516 63.1042 148.198 62.8835 147.844 62.7341C147.491 62.5847 147.111 62.5098 146.728 62.514H106.514C105.716 62.5224 104.95 62.8326 104.371 63.3822C103.792 63.9318 103.442 64.6802 103.392 65.4771Z" fill="white"/>
<path id="Vector_76" d="M147.724 62.514H146.728C147.111 62.5098 147.491 62.5847 147.844 62.7341C148.198 62.8835 148.516 63.1042 148.78 63.3823C149.044 63.6603 149.248 63.9899 149.379 64.3503C149.51 64.7108 149.565 65.0943 149.541 65.4771L147.943 95.9049C147.894 96.7013 147.545 97.4496 146.966 97.9993C146.388 98.5491 145.623 98.8594 144.825 98.868H145.821C146.619 98.8594 147.384 98.5491 147.962 97.9993C148.541 97.4496 148.89 96.7013 148.939 95.9049L150.537 65.4771C150.561 65.0943 150.506 64.7108 150.375 64.3503C150.244 63.9899 150.04 63.6603 149.776 63.3823C149.512 63.1042 149.194 62.8835 148.84 62.7341C148.487 62.5847 148.107 62.5098 147.724 62.514Z" fill="#525ECC"/>
<path id="Vector_77" d="M106.733 65.8754L105.179 95.5064H144.606L146.155 65.8754H106.733ZM145.657 70.6462H141.135L141.369 66.1244H145.916L145.657 70.6462ZM125.408 80.9399L125.174 85.3372H120.777L121.006 80.9399H125.408ZM121.031 80.4419L121.265 76.0445H125.662L125.433 80.4419H121.031ZM125.906 80.9399H130.304L130.074 85.3372H125.672L125.906 80.9399ZM125.931 80.4419L126.16 76.0445H130.558L130.328 80.4419H125.931ZM131.056 76.0445H135.458L135.224 80.4419H130.826L131.056 76.0445ZM131.085 75.5465L131.314 71.1442H135.712L135.483 75.5465H131.085ZM130.587 75.5465H126.185L126.419 71.1442H130.816L130.587 75.5465ZM125.687 75.5465H121.29L121.519 71.1442H125.921L125.687 75.5465ZM120.792 75.5465H116.394L116.623 71.1442H121.016L120.792 75.5465ZM120.767 76.0445L120.533 80.4419H116.135L116.365 76.0445H120.767ZM115.637 80.4419H111.24L111.469 76.0445H115.867L115.637 80.4419ZM115.637 80.9399L115.408 85.3372H111.006L111.24 80.9399H115.637ZM116.135 80.9399H120.518L120.289 85.3372H115.891L116.135 80.9399ZM120.279 85.8352L120.02 90.2375H115.623L115.852 85.8352H120.279ZM120.777 85.8352H125.174L124.945 90.2375H120.518L120.777 85.8352ZM125.672 85.8352H130.069L129.84 90.2375H125.443L125.672 85.8352ZM130.567 85.8352H134.96L134.726 90.2375H130.328L130.567 85.8352ZM130.597 85.3372L130.826 80.9399H135.224L134.995 85.3372H130.597ZM135.722 80.9399H140.124L139.89 85.3372H135.458L135.722 80.9399ZM135.722 80.4419L135.956 76.0445H140.353L140.124 80.4419H135.722ZM135.981 75.5465L136.21 71.1442H140.612L140.378 75.5465H135.981ZM136.24 70.6462L136.474 66.1244H140.871L140.637 70.6462H136.24ZM135.742 70.6462H131.339L131.578 66.1244H135.956L135.742 70.6462ZM130.841 70.6462H126.444L126.678 66.1244H131.08L130.841 70.6462ZM125.946 70.6462H121.549L121.783 66.1244H126.18L125.946 70.6462ZM121.051 70.6462H116.648L116.887 66.1244H121.285L121.051 70.6462ZM116.15 70.6462H111.753L111.987 66.1244H116.389L116.15 70.6462ZM116.15 71.1442L115.921 75.5465H111.519L111.753 71.1442H116.15ZM111.021 75.5465H106.474L106.703 71.1442H111.23L111.021 75.5465ZM111.021 76.0445L110.792 80.4419H106.265L106.499 76.0445H111.021ZM110.767 80.9399L110.533 85.3372H106.011L106.24 80.9399H110.767ZM110.508 85.8352L110.279 90.2375H105.752L105.986 85.8352H110.508ZM111.006 85.8352H115.403L115.174 90.2375H110.777L111.006 85.8352ZM115.149 90.7355L114.91 95.2574H110.513L110.747 90.7355H115.149ZM115.647 90.7355H120.02L119.786 95.2574H115.383L115.647 90.7355ZM120.543 90.7355H124.94L124.706 95.2574H120.309L120.543 90.7355ZM125.438 90.7355H129.84L129.601 95.2574H125.204L125.438 90.7355ZM130.338 90.7355H134.736L134.502 95.2574H130.099L130.338 90.7355ZM135.234 90.7355H139.631L139.397 95.2574H134.96L135.234 90.7355ZM135.259 90.2375L135.493 85.8352H139.89L139.661 90.2375H135.259ZM140.388 85.8352H144.91L144.681 90.2375H140.159L140.388 85.8352ZM140.413 85.3372L140.647 80.9399H145.169L144.94 85.3372H140.413ZM140.672 80.4419L140.901 76.0445H145.423L145.194 80.4419H140.672ZM140.926 75.5465L141.16 71.1442H145.682L145.418 75.5465H140.926ZM111.544 66.1244L111.31 70.6462H106.788L107.022 66.1244H111.544ZM105.677 90.7355H110.199L109.965 95.2574H105.443L105.677 90.7355ZM139.845 95.2574L140.079 90.7355H144.606L144.367 95.2574H139.845Z" fill="#525ECC"/>
<path id="Vector_78" opacity="0.25" d="M106.733 65.8754L105.179 95.5064H144.606L146.155 65.8754H106.733ZM145.657 70.6462H141.135L141.369 66.1244H145.916L145.657 70.6462ZM125.408 80.9399L125.174 85.3372H120.777L121.006 80.9399H125.408ZM121.031 80.4419L121.265 76.0445H125.662L125.433 80.4419H121.031ZM125.906 80.9399H130.304L130.074 85.3372H125.672L125.906 80.9399ZM125.931 80.4419L126.16 76.0445H130.558L130.328 80.4419H125.931ZM131.056 76.0445H135.458L135.224 80.4419H130.826L131.056 76.0445ZM131.085 75.5465L131.314 71.1442H135.712L135.483 75.5465H131.085ZM130.587 75.5465H126.185L126.419 71.1442H130.816L130.587 75.5465ZM125.687 75.5465H121.29L121.519 71.1442H125.921L125.687 75.5465ZM120.792 75.5465H116.394L116.623 71.1442H121.016L120.792 75.5465ZM120.767 76.0445L120.533 80.4419H116.135L116.365 76.0445H120.767ZM115.637 80.4419H111.24L111.469 76.0445H115.867L115.637 80.4419ZM115.637 80.9399L115.408 85.3372H111.006L111.24 80.9399H115.637ZM116.135 80.9399H120.518L120.289 85.3372H115.891L116.135 80.9399ZM120.279 85.8352L120.02 90.2375H115.623L115.852 85.8352H120.279ZM120.777 85.8352H125.174L124.945 90.2375H120.518L120.777 85.8352ZM125.672 85.8352H130.069L129.84 90.2375H125.443L125.672 85.8352ZM130.567 85.8352H134.96L134.726 90.2375H130.328L130.567 85.8352ZM130.597 85.3372L130.826 80.9399H135.224L134.995 85.3372H130.597ZM135.722 80.9399H140.124L139.89 85.3372H135.458L135.722 80.9399ZM135.722 80.4419L135.956 76.0445H140.353L140.124 80.4419H135.722ZM135.981 75.5465L136.21 71.1442H140.612L140.378 75.5465H135.981ZM136.24 70.6462L136.474 66.1244H140.871L140.637 70.6462H136.24ZM135.742 70.6462H131.339L131.578 66.1244H135.956L135.742 70.6462ZM130.841 70.6462H126.444L126.678 66.1244H131.08L130.841 70.6462ZM125.946 70.6462H121.549L121.783 66.1244H126.18L125.946 70.6462ZM121.051 70.6462H116.648L116.887 66.1244H121.285L121.051 70.6462ZM116.15 70.6462H111.753L111.987 66.1244H116.389L116.15 70.6462ZM116.15 71.1442L115.921 75.5465H111.519L111.753 71.1442H116.15ZM111.021 75.5465H106.474L106.703 71.1442H111.23L111.021 75.5465ZM111.021 76.0445L110.792 80.4419H106.265L106.499 76.0445H111.021ZM110.767 80.9399L110.533 85.3372H106.011L106.24 80.9399H110.767ZM110.508 85.8352L110.279 90.2375H105.752L105.986 85.8352H110.508ZM111.006 85.8352H115.403L115.174 90.2375H110.777L111.006 85.8352ZM115.149 90.7355L114.91 95.2574H110.513L110.747 90.7355H115.149ZM115.647 90.7355H120.02L119.786 95.2574H115.383L115.647 90.7355ZM120.543 90.7355H124.94L124.706 95.2574H120.309L120.543 90.7355ZM125.438 90.7355H129.84L129.601 95.2574H125.204L125.438 90.7355ZM130.338 90.7355H134.736L134.502 95.2574H130.099L130.338 90.7355ZM135.234 90.7355H139.631L139.397 95.2574H134.96L135.234 90.7355ZM135.259 90.2375L135.493 85.8352H139.89L139.661 90.2375H135.259ZM140.388 85.8352H144.91L144.681 90.2375H140.159L140.388 85.8352ZM140.413 85.3372L140.647 80.9399H145.169L144.94 85.3372H140.413ZM140.672 80.4419L140.901 76.0445H145.423L145.194 80.4419H140.672ZM140.926 75.5465L141.16 71.1442H145.682L145.418 75.5465H140.926ZM111.544 66.1244L111.31 70.6462H106.788L107.022 66.1244H111.544ZM105.677 90.7355H110.199L109.965 95.2574H105.443L105.677 90.7355ZM139.845 95.2574L140.079 90.7355H144.606L144.367 95.2574H139.845Z" fill="white"/>
<g id="Group" opacity="0.1">
<path id="Vector_79" d="M110.408 96.2535H108.073L108.596 86.2537H110.936L110.408 96.2535Z" fill="black"/>
<path id="Vector_80" d="M115.533 92.3542H113.192L113.919 78.5347H116.255L115.533 92.3542Z" fill="black"/>
<path id="Vector_81" d="M120.692 87.7775H118.352L119.024 74.9241H121.364L120.692 87.7775Z" fill="black"/>
<path id="Vector_82" d="M125.498 89.8641H123.162L123.879 76.1691H126.215L125.498 89.8641Z" fill="black"/>
<path id="Vector_83" d="M130.597 86.4379H128.257L128.989 72.4889H131.324L130.597 86.4379Z" fill="black"/>
<path id="Vector_84" d="M135.368 89.1818H133.032L133.779 74.9241H136.115L135.368 89.1818Z" fill="black"/>
<path id="Vector_85" d="M140.483 85.4418H138.147L138.954 70.0586H141.289L140.483 85.4418Z" fill="black"/>
<path id="Vector_86" d="M145.527 83.0166H143.192L144.038 66.8715H146.374L145.527 83.0166Z" fill="black"/>
</g>
<path id="Vector_87" d="M109.965 95.2574H107.625L108.153 85.2576H110.488L109.965 95.2574Z" fill="white"/>
<path id="Vector_88" d="M115.085 91.3581H112.749L113.471 77.5386H115.812L115.085 91.3581Z" fill="white"/>
<path id="Vector_89" d="M120.244 86.7815H117.908L118.581 73.9281H120.916L120.244 86.7815Z" fill="white"/>
<path id="Vector_90" d="M125.055 88.8681H122.714L123.431 75.1731H125.772L125.055 88.8681Z" fill="white"/>
<path id="Vector_91" d="M130.149 85.4418H127.813L128.546 71.4928H130.881L130.149 85.4418Z" fill="white"/>
<path id="Vector_92" d="M134.925 88.1858H132.584L133.331 73.9281H135.672L134.925 88.1858Z" fill="white"/>
<path id="Vector_93" d="M140.04 84.4458H137.699L138.506 69.0626H140.846L140.04 84.4458Z" fill="white"/>
<path id="Vector_94" d="M145.084 82.0205H142.744L143.59 65.8754H145.931L145.084 82.0205Z" fill="white"/>
<path id="Vector_95" d="M165.781 24.7157L165.243 34.9994C165.236 35.1284 165.255 35.2575 165.299 35.3788C165.344 35.5 165.413 35.6109 165.502 35.7043C165.591 35.7977 165.699 35.8718 165.818 35.9219C165.937 35.9719 166.065 35.997 166.194 35.9954H177.091C177.36 35.9923 177.618 35.8881 177.813 35.7036C178.009 35.519 178.128 35.2676 178.146 34.9994L178.684 24.7157C178.693 24.587 178.674 24.4579 178.63 24.3367C178.586 24.2154 178.518 24.1045 178.429 24.011C178.34 23.9175 178.233 23.8433 178.114 23.7932C177.995 23.7431 177.867 23.718 177.738 23.7197H166.832C166.564 23.724 166.307 23.8287 166.113 24.0132C165.918 24.1976 165.8 24.4483 165.781 24.7157Z" fill="#525ECC"/>
<path id="Vector_96" opacity="0.6" d="M165.781 24.7157L165.243 34.9994C165.236 35.1284 165.255 35.2575 165.299 35.3788C165.344 35.5 165.413 35.6109 165.502 35.7043C165.591 35.7977 165.699 35.8718 165.818 35.9219C165.937 35.9719 166.065 35.997 166.194 35.9954H177.091C177.36 35.9923 177.618 35.8881 177.813 35.7036C178.009 35.519 178.128 35.2676 178.146 34.9994L178.684 24.7157C178.693 24.587 178.674 24.4579 178.63 24.3367C178.586 24.2154 178.518 24.1045 178.429 24.011C178.34 23.9175 178.233 23.8433 178.114 23.7932C177.995 23.7431 177.867 23.718 177.738 23.7197H166.832C166.564 23.724 166.307 23.8287 166.113 24.0132C165.918 24.1976 165.8 24.4483 165.781 24.7157Z" fill="white"/>
<path id="Vector_97" d="M178.535 23.7148H177.738C177.867 23.7132 177.995 23.7382 178.114 23.7883C178.233 23.8385 178.34 23.9126 178.429 24.0061C178.518 24.0996 178.586 24.2105 178.63 24.3318C178.674 24.453 178.693 24.5821 178.684 24.7108L178.147 34.9945C178.128 35.2628 178.009 35.5141 177.813 35.6987C177.618 35.8832 177.36 35.9874 177.091 35.9905H177.888C178.157 35.9874 178.414 35.8832 178.61 35.6987C178.806 35.5141 178.925 35.2628 178.943 34.9945L179.481 24.7108C179.489 24.5821 179.471 24.453 179.427 24.3318C179.383 24.2105 179.315 24.0996 179.226 24.0061C179.137 23.9126 179.03 23.8385 178.911 23.7883C178.792 23.7382 178.664 23.7132 178.535 23.7148Z" fill="#525ECC"/>
<path id="Vector_98" opacity="0.2" d="M178.535 23.7148H177.738C177.867 23.7132 177.995 23.7382 178.114 23.7883C178.233 23.8385 178.34 23.9126 178.429 24.0061C178.518 24.0996 178.586 24.2105 178.63 24.3318C178.674 24.453 178.693 24.5821 178.684 24.7108L178.147 34.9945C178.128 35.2628 178.009 35.5141 177.813 35.6987C177.618 35.8832 177.36 35.9874 177.091 35.9905H177.888C178.157 35.9874 178.414 35.8832 178.61 35.6987C178.806 35.5141 178.925 35.2628 178.943 34.9945L179.481 24.7108C179.489 24.5821 179.471 24.453 179.427 24.3318C179.383 24.2105 179.315 24.0996 179.226 24.0061C179.137 23.9126 179.03 23.8385 178.911 23.7883C178.792 23.7382 178.664 23.7132 178.535 23.7148Z" fill="white"/>
<path id="Vector_99" d="M168.261 27.8283C168.26 27.5895 168.308 27.353 168.4 27.1328C168.492 26.9126 168.628 26.7132 168.799 26.5464C168.97 26.3797 169.173 26.249 169.395 26.162C169.618 26.0751 169.855 26.0338 170.094 26.0405C170.332 26.0323 170.57 26.0728 170.792 26.1593C171.014 26.2459 171.217 26.3768 171.387 26.5441C171.557 26.7113 171.691 26.9114 171.781 27.1322C171.871 27.353 171.916 27.5898 171.912 27.8283C171.887 28.2958 171.684 28.7362 171.345 29.0585C171.005 29.3809 170.555 29.5606 170.086 29.5606C169.618 29.5606 169.168 29.3809 168.828 29.0585C168.489 28.7362 168.286 28.2958 168.261 27.8283ZM173.889 27.1361L174.586 27.5345L169.82 32.8033L169.123 32.3949L173.889 27.1361ZM170.652 27.8283C170.649 27.7179 170.613 27.6108 170.55 27.5203C170.487 27.4299 170.398 27.3601 170.295 27.3196C170.192 27.2792 170.08 27.2698 169.972 27.2928C169.864 27.3158 169.765 27.37 169.688 27.4488C169.61 27.5276 169.558 27.6274 169.537 27.7358C169.516 27.8442 169.527 27.9564 169.569 28.0585C169.611 28.1605 169.683 28.2479 169.774 28.3097C169.866 28.3714 169.973 28.4049 170.084 28.406C170.159 28.406 170.234 28.391 170.303 28.3618C170.373 28.3327 170.436 28.2899 170.489 28.2362C170.542 28.1824 170.583 28.1186 170.611 28.0486C170.639 27.9786 170.653 27.9037 170.652 27.8283ZM172.016 31.892C172.008 31.5291 172.109 31.1721 172.304 30.8665C172.5 30.5608 172.782 30.3204 173.115 30.1758C173.448 30.0312 173.817 29.989 174.174 30.0545C174.53 30.1201 174.86 30.2904 175.12 30.5439C175.379 30.7973 175.558 31.1224 175.632 31.4776C175.707 31.8329 175.674 32.2022 175.537 32.5386C175.401 32.8749 175.168 33.1631 174.867 33.3663C174.566 33.5696 174.212 33.6787 173.849 33.6798C173.609 33.6858 173.37 33.6434 173.146 33.555C172.923 33.4666 172.719 33.3341 172.548 33.1653C172.377 32.9966 172.242 32.7951 172.151 32.5729C172.059 32.3507 172.013 32.1123 172.016 31.872V31.892ZM174.407 31.892C174.407 31.7427 174.347 31.5996 174.242 31.494C174.136 31.3885 173.993 31.3292 173.844 31.3292C173.695 31.3292 173.551 31.3885 173.446 31.494C173.34 31.5996 173.281 31.7427 173.281 31.892C173.278 31.967 173.29 32.042 173.316 32.1123C173.343 32.1826 173.383 32.2468 173.436 32.3008C173.488 32.3549 173.551 32.3978 173.62 32.4268C173.689 32.4558 173.764 32.4704 173.839 32.4696C173.916 32.4697 173.992 32.4541 174.063 32.4237C174.134 32.3934 174.198 32.3489 174.251 32.2929C174.304 32.237 174.346 32.1708 174.372 32.0985C174.399 32.0261 174.411 31.9491 174.407 31.872V31.892Z" fill="#525ECC"/>
<path id="Vector_100" d="M137.106 19.3472L136.703 26.9915C136.697 27.0879 136.71 27.1845 136.743 27.2752C136.776 27.366 136.827 27.449 136.894 27.5191C136.96 27.5892 137.04 27.6449 137.129 27.6826C137.218 27.7204 137.313 27.7394 137.41 27.7385H145.517C145.718 27.7363 145.911 27.658 146.056 27.5193C146.201 27.3806 146.288 27.192 146.299 26.9915L146.703 19.3472C146.709 19.2509 146.695 19.1543 146.662 19.0636C146.629 18.9728 146.578 18.8898 146.512 18.8197C146.446 18.7496 146.365 18.6939 146.277 18.6562C146.188 18.6184 146.092 18.5994 145.996 18.6002H137.888C137.687 18.6025 137.495 18.6808 137.35 18.8195C137.205 18.9582 137.118 19.1468 137.106 19.3472Z" fill="#525ECC"/>
<path id="Vector_101" opacity="0.6" d="M137.106 19.3472L136.703 26.9915C136.697 27.0879 136.71 27.1845 136.743 27.2752C136.776 27.366 136.827 27.449 136.894 27.5191C136.96 27.5892 137.04 27.6449 137.129 27.6826C137.218 27.7204 137.313 27.7394 137.41 27.7385H145.517C145.718 27.7363 145.911 27.658 146.056 27.5193C146.201 27.3806 146.288 27.192 146.299 26.9915L146.703 19.3472C146.709 19.2509 146.695 19.1543 146.662 19.0636C146.629 18.9728 146.578 18.8898 146.512 18.8197C146.446 18.7496 146.365 18.6939 146.277 18.6562C146.188 18.6184 146.092 18.5994 145.996 18.6002H137.888C137.687 18.6025 137.495 18.6808 137.35 18.8195C137.205 18.9582 137.118 19.1468 137.106 19.3472Z" fill="white"/>
<path id="Vector_102" d="M146.588 18.6002H145.996C146.092 18.5994 146.188 18.6184 146.277 18.6562C146.366 18.6939 146.446 18.7496 146.512 18.8197C146.578 18.8898 146.63 18.9728 146.662 19.0636C146.695 19.1543 146.709 19.2509 146.703 19.3472L146.299 26.9915C146.288 27.192 146.201 27.3806 146.056 27.5193C145.911 27.658 145.718 27.7363 145.518 27.7385H146.11C146.311 27.7363 146.503 27.658 146.648 27.5193C146.794 27.3806 146.881 27.192 146.892 26.9915L147.295 19.3472C147.302 19.2509 147.288 19.1543 147.255 19.0636C147.222 18.9728 147.171 18.8898 147.105 18.8197C147.038 18.7496 146.958 18.6939 146.869 18.6562C146.78 18.6184 146.685 18.5994 146.588 18.6002Z" fill="#525ECC"/>
<path id="Vector_103" opacity="0.2" d="M146.588 18.6002H145.996C146.092 18.5994 146.188 18.6184 146.277 18.6562C146.366 18.6939 146.446 18.7496 146.512 18.8197C146.578 18.8898 146.63 18.9728 146.662 19.0636C146.695 19.1543 146.709 19.2509 146.703 19.3472L146.299 26.9915C146.288 27.192 146.201 27.3806 146.056 27.5193C145.911 27.658 145.718 27.7363 145.518 27.7385H146.11C146.311 27.7363 146.503 27.658 146.648 27.5193C146.794 27.3806 146.881 27.192 146.892 26.9915L147.295 19.3472C147.302 19.2509 147.288 19.1543 147.255 19.0636C147.222 18.9728 147.171 18.8898 147.105 18.8197C147.038 18.7496 146.958 18.6939 146.869 18.6562C146.78 18.6184 146.685 18.5994 146.588 18.6002Z" fill="white"/>
<path id="Vector_104" d="M144.561 24.0385H142.569V26.0305H140.826V24.0385H138.834V22.3005H140.826V20.3085H142.569V22.3005H144.561V24.0385Z" fill="#525ECC"/>
<path id="Vector_105" d="M152.758 75.2876L152.36 82.9368C152.355 83.0328 152.369 83.1288 152.402 83.219C152.435 83.3092 152.486 83.3916 152.553 83.4611C152.619 83.5307 152.699 83.5859 152.787 83.6234C152.876 83.6608 152.971 83.6797 153.067 83.6789H161.175C161.375 83.6767 161.566 83.5991 161.711 83.4614C161.856 83.3238 161.944 83.1364 161.956 82.9368L162.36 75.2876C162.366 75.1912 162.352 75.0947 162.319 75.0039C162.287 74.9131 162.235 74.8301 162.169 74.76C162.103 74.6899 162.023 74.6342 161.934 74.5965C161.845 74.5587 161.749 74.5397 161.653 74.5406H153.545C153.344 74.5427 153.151 74.6209 153.005 74.7595C152.859 74.898 152.771 75.0867 152.758 75.2876Z" fill="#525ECC"/>
<path id="Vector_106" opacity="0.6" d="M152.758 75.2876L152.36 82.9368C152.355 83.0328 152.369 83.1288 152.402 83.219C152.435 83.3092 152.486 83.3916 152.553 83.4611C152.619 83.5307 152.699 83.5859 152.787 83.6234C152.876 83.6608 152.971 83.6797 153.067 83.6789H161.175C161.375 83.6767 161.566 83.5991 161.711 83.4614C161.856 83.3238 161.944 83.1364 161.956 82.9368L162.36 75.2876C162.366 75.1912 162.352 75.0947 162.319 75.0039C162.287 74.9131 162.235 74.8301 162.169 74.76C162.103 74.6899 162.023 74.6342 161.934 74.5965C161.845 74.5587 161.749 74.5397 161.653 74.5406H153.545C153.344 74.5427 153.151 74.6209 153.005 74.7595C152.859 74.898 152.771 75.0867 152.758 75.2876Z" fill="white"/>
<path id="Vector_107" d="M162.245 74.5406H161.653C161.749 74.5397 161.845 74.5587 161.934 74.5965C162.023 74.6342 162.103 74.6899 162.169 74.76C162.235 74.8301 162.287 74.9131 162.319 75.0039C162.352 75.0947 162.366 75.1912 162.36 75.2876L161.956 82.9368C161.944 83.1364 161.856 83.3238 161.711 83.4614C161.566 83.5991 161.374 83.6767 161.175 83.6789H161.767C161.967 83.6767 162.159 83.5991 162.304 83.4614C162.449 83.3238 162.536 83.1364 162.549 82.9368L162.952 75.2876C162.959 75.1912 162.945 75.0947 162.912 75.0039C162.879 74.9131 162.828 74.8301 162.762 74.76C162.695 74.6899 162.615 74.6342 162.526 74.5965C162.437 74.5587 162.342 74.5397 162.245 74.5406Z" fill="#525ECC"/>
<path id="Vector_108" opacity="0.2" d="M162.245 74.5406H161.653C161.749 74.5397 161.845 74.5587 161.934 74.5965C162.023 74.6342 162.103 74.6899 162.169 74.76C162.235 74.8301 162.287 74.9131 162.319 75.0039C162.352 75.0947 162.366 75.1912 162.36 75.2876L161.956 82.9368C161.944 83.1364 161.856 83.3238 161.711 83.4614C161.566 83.5991 161.374 83.6767 161.175 83.6789H161.767C161.967 83.6767 162.159 83.5991 162.304 83.4614C162.449 83.3238 162.536 83.1364 162.549 82.9368L162.952 75.2876C162.959 75.1912 162.945 75.0947 162.912 75.0039C162.879 74.9131 162.828 74.8301 162.762 74.76C162.695 74.6899 162.615 74.6342 162.526 74.5965C162.437 74.5587 162.342 74.5397 162.245 74.5406Z" fill="white"/>
<path id="Vector_109" d="M159.92 79.9787H154.795V78.2407H159.92V79.9787Z" fill="#525ECC"/>
<path id="Vector_110" d="M100.319 71.1442L99.7762 81.4279C99.7694 81.5567 99.789 81.6855 99.8339 81.8065C99.8787 81.9274 99.9477 82.0379 100.037 82.1312C100.126 82.2245 100.233 82.2986 100.352 82.3489C100.471 82.3993 100.598 82.4248 100.727 82.4239H111.629C111.897 82.4219 112.155 82.3179 112.35 82.1331C112.545 81.9482 112.663 81.6962 112.679 81.4279L113.222 71.1442C113.229 71.0154 113.209 70.8866 113.165 70.7656C113.12 70.6447 113.051 70.5342 112.962 70.4409C112.873 70.3476 112.765 70.2735 112.647 70.2232C112.528 70.1729 112.4 70.1474 112.271 70.1482H101.37C101.101 70.1502 100.843 70.2542 100.648 70.4391C100.453 70.6239 100.335 70.876 100.319 71.1442Z" fill="#525ECC"/>
<path id="Vector_111" opacity="0.6" d="M100.319 71.1442L99.7762 81.4279C99.7694 81.5567 99.789 81.6855 99.8339 81.8065C99.8787 81.9274 99.9477 82.0379 100.037 82.1312C100.126 82.2245 100.233 82.2986 100.352 82.3489C100.471 82.3993 100.598 82.4248 100.727 82.4239H111.629C111.897 82.4219 112.155 82.3179 112.35 82.1331C112.545 81.9482 112.663 81.6962 112.679 81.4279L113.222 71.1442C113.229 71.0154 113.209 70.8866 113.165 70.7656C113.12 70.6447 113.051 70.5342 112.962 70.4409C112.873 70.3476 112.765 70.2735 112.647 70.2232C112.528 70.1729 112.4 70.1474 112.271 70.1482H101.37C101.101 70.1502 100.843 70.2542 100.648 70.4391C100.453 70.6239 100.335 70.876 100.319 71.1442Z" fill="white"/>
<path id="Vector_112" d="M113.048 70.1432H112.251C112.38 70.1424 112.508 70.1679 112.627 70.2182C112.745 70.2686 112.853 70.3427 112.942 70.4359C113.031 70.5292 113.1 70.6397 113.145 70.7607C113.189 70.8816 113.209 71.0104 113.202 71.1392L112.659 81.4229C112.643 81.6912 112.525 81.9432 112.33 82.1281C112.135 82.313 111.877 82.4169 111.609 82.4189H112.405C112.674 82.4169 112.932 82.313 113.127 82.1281C113.322 81.9432 113.44 81.6912 113.456 81.4229L114.044 71.1442C114.052 71.0111 114.031 70.8779 113.984 70.7532C113.937 70.6285 113.864 70.5152 113.77 70.4207C113.676 70.3261 113.563 70.2526 113.439 70.2048C113.314 70.157 113.181 70.136 113.048 70.1432Z" fill="#525ECC"/>
<path id="Vector_113" opacity="0.2" d="M113.048 70.1432H112.251C112.38 70.1424 112.508 70.1679 112.627 70.2182C112.745 70.2686 112.853 70.3427 112.942 70.4359C113.031 70.5292 113.1 70.6397 113.145 70.7607C113.189 70.8816 113.209 71.0104 113.202 71.1392L112.659 81.4229C112.643 81.6912 112.525 81.9432 112.33 82.1281C112.135 82.313 111.877 82.4169 111.609 82.4189H112.405C112.674 82.4169 112.932 82.313 113.127 82.1281C113.322 81.9432 113.44 81.6912 113.456 81.4229L114.044 71.1442C114.052 71.0111 114.031 70.8779 113.984 70.7532C113.937 70.6285 113.864 70.5152 113.77 70.4207C113.676 70.3261 113.563 70.2526 113.439 70.2048C113.314 70.157 113.181 70.136 113.048 70.1432Z" fill="white"/>
<path id="Vector_114" d="M106.972 79.7646V80.6112H106.295V79.7746C105.809 79.7704 105.336 79.62 104.937 79.3428C104.538 79.0656 104.232 78.6746 104.059 78.2208L105.384 77.4489C105.45 77.6521 105.57 77.834 105.73 77.9758C105.89 78.1176 106.085 78.2142 106.295 78.2557V76.931C106.26 76.931 106.21 76.9011 106.171 76.8812C105.334 76.5475 104.338 76.0744 104.338 74.7896C104.338 74.2672 104.543 73.7658 104.909 73.3932C105.275 73.0206 105.773 72.8067 106.295 72.7976V71.9609H106.972V72.8175C107.385 72.8568 107.778 73.0072 108.112 73.2528C108.445 73.4984 108.705 73.8299 108.865 74.2119L107.57 74.9689C107.528 74.8255 107.452 74.6943 107.349 74.586C107.246 74.4778 107.118 74.3956 106.977 74.3464V75.6412C107.814 75.9997 108.944 76.3184 108.944 77.7178C108.939 78.923 108.113 79.6301 106.972 79.7646ZM106.295 75.3274V74.3314C106.177 74.3505 106.07 74.4113 105.993 74.5027C105.917 74.5941 105.875 74.71 105.877 74.8294C105.877 74.9788 105.961 75.1332 106.295 75.3274ZM107.401 77.7377C107.401 77.4987 107.261 77.3543 106.972 77.2099V78.2357C107.092 78.2188 107.201 78.159 107.28 78.0674C107.359 77.9757 107.402 77.8586 107.401 77.7377Z" fill="#525ECC"/>
<path id="Vector_115" d="M111.768 15.2039H119.577C119.96 15.2039 120.015 14.6063 119.627 14.6063H111.818C111.434 14.6063 111.38 15.2039 111.768 15.2039Z" fill="#525ECC"/>
<path id="Vector_116" d="M122.435 15.2039H124.681C125.065 15.2039 125.119 14.6063 124.731 14.6063H122.51C122.121 14.6063 122.072 15.2039 122.455 15.2039H122.435Z" fill="#525ECC"/>
<path id="Vector_117" d="M137.823 101.224H130.015C129.626 101.224 129.576 101.821 129.96 101.821H137.769C138.152 101.821 138.207 101.224 137.823 101.224Z" fill="#525ECC"/>
<path id="Vector_118" d="M127.151 101.224H124.91C124.522 101.224 124.472 101.821 124.855 101.821H127.101C127.485 101.821 127.535 101.224 127.151 101.224Z" fill="#525ECC"/>
</g>
<g id="character-2">
<path id="Vector_119" d="M160.985 171.531L160.443 175.665L155.98 175.43L156.269 170.869L160.985 171.531Z" fill="#FAB27B"/>
<path id="Vector_120" d="M153.735 175.605C153.157 175.605 152.559 175.475 152.37 175.226C152.317 175.154 152.288 175.067 152.288 174.977C152.288 174.888 152.317 174.8 152.37 174.728C152.452 174.602 152.578 174.512 152.724 174.474C153.505 174.28 155.114 175.241 155.214 175.281C155.234 175.293 155.249 175.311 155.258 175.333C155.267 175.354 155.269 175.378 155.263 175.401C155.259 175.422 155.248 175.442 155.232 175.458C155.216 175.473 155.196 175.483 155.174 175.485C154.699 175.57 154.217 175.61 153.735 175.605ZM153.012 174.684C152.94 174.682 152.868 174.69 152.798 174.708C152.753 174.716 152.711 174.734 152.673 174.76C152.635 174.785 152.603 174.819 152.579 174.858C152.495 174.992 152.524 175.062 152.554 175.097C152.763 175.406 153.944 175.436 154.81 175.346C154.259 175.013 153.648 174.788 153.012 174.684Z" fill="#525ECC"/>
<path id="Vector_121" d="M155.149 175.5C155.142 175.504 155.134 175.506 155.127 175.506C155.119 175.506 155.111 175.504 155.104 175.5C154.551 175.241 153.451 174.205 153.56 173.682C153.56 173.558 153.67 173.404 153.974 173.384C154.084 173.373 154.195 173.385 154.301 173.419C154.406 173.453 154.503 173.509 154.586 173.583C155.174 174.081 155.273 175.346 155.278 175.401C155.278 175.42 155.274 175.439 155.265 175.456C155.257 175.474 155.244 175.489 155.229 175.5C155.203 175.51 155.175 175.51 155.149 175.5ZM154.043 173.588H153.984C153.784 173.588 153.77 173.677 153.76 173.707C153.725 174.021 154.447 174.828 155.014 175.201C154.969 174.672 154.764 174.168 154.427 173.757C154.321 173.665 154.184 173.613 154.043 173.613V173.588Z" fill="#525ECC"/>
<path id="Vector_122" d="M155.657 174.858L160.751 174.957C160.845 174.958 160.935 174.991 161.007 175.051C161.079 175.111 161.127 175.194 161.145 175.286L161.986 179.449C162.007 179.549 162.005 179.652 161.981 179.751C161.957 179.85 161.911 179.942 161.847 180.021C161.782 180.1 161.701 180.163 161.609 180.206C161.517 180.25 161.416 180.272 161.314 180.271C159.482 180.201 157.828 180.072 155.562 180.032C152.863 179.977 153.54 180.316 150.368 180.296C148.456 180.296 148.147 178.105 148.959 178.015C152.679 177.622 153.087 176.521 154.541 175.206C154.858 174.957 155.255 174.833 155.657 174.858Z" fill="#263238"/>
<path id="Vector_123" opacity="0.2" d="M156.12 173.269H160.761L160.986 171.531L156.27 170.869L156.12 173.269Z" fill="black"/>
<path id="Vector_124" d="M157.116 137.981L155.268 170.341H162.081L167.474 137.981H157.116Z" fill="#263238"/>
<path id="Vector_125" opacity="0.3" d="M157.116 137.981L155.268 170.341H162.081L167.474 137.981H157.116Z" fill="black"/>
<path id="Vector_126" d="M162.664 169.818H154.457C154.289 170.134 154.22 170.493 154.26 170.849C154.3 171.204 154.447 171.539 154.681 171.81L162.614 171.9C162.614 171.9 163.346 171.412 162.664 169.818Z" fill="#525ECC"/>
<path id="Vector_127" d="M183.142 87.5235L182.843 91.0891L188.341 90.875L187.997 86.5773L183.142 87.5235Z" fill="#FAB27B"/>
<path id="Vector_128" d="M192.539 91.9358C192.539 91.9358 196.239 91.9358 199.67 103.33C200.213 105.123 202.205 110.382 202.205 110.382L193.794 109.386L192.982 100.098L192.539 91.9358Z" fill="#263238"/>
<path id="Vector_129" d="M167.44 88.6889C167.32 88.3453 164.656 88.9628 161.493 90.0733C158.331 91.1839 155.866 92.3591 155.986 92.7028C156.105 93.0464 158.769 92.4289 161.932 91.3233C165.094 90.2177 167.559 89.0375 167.44 88.6889Z" fill="#525ECC"/>
<path id="Vector_130" d="M163.485 89.4159L164.332 89.1669L164.715 90.2575L163.899 90.5912L163.485 89.4159Z" fill="#525ECC"/>
<path id="Vector_131" opacity="0.5" d="M163.485 89.4159L164.332 89.1669L164.715 90.2575L163.899 90.5912L163.485 89.4159Z" fill="white"/>
<path id="Vector_132" d="M166.543 88.4747C166.772 87.8174 163.939 88.664 163.774 88.7237C163.61 88.7835 163.485 88.4747 163.685 88.41C163.884 88.3453 167.33 87.2048 166.857 88.5594C166.792 88.7536 166.473 88.6739 166.543 88.4747Z" fill="#525ECC"/>
<g id="Group_2" opacity="0.2">
<path id="Vector_133" d="M166.543 88.4747C166.772 87.8174 163.939 88.664 163.774 88.7237C163.61 88.7835 163.485 88.4747 163.685 88.41C163.884 88.3453 167.33 87.2048 166.857 88.5594C166.792 88.7536 166.473 88.6739 166.543 88.4747Z" fill="black"/>
</g>
<path id="Vector_134" d="M163.037 102.503L161.882 97.379L163.52 94.635C163.661 94.4 163.722 94.1257 163.695 93.8531L163.595 92.9269C163.574 92.7279 163.6 92.5268 163.67 92.3392L163.884 91.7864C163.978 91.5414 163.994 91.2731 163.928 91.0188C163.863 90.7645 163.721 90.5367 163.52 90.3671L163.207 90.1032C163.051 89.9691 162.864 89.8754 162.664 89.8302C162.463 89.785 162.254 89.7899 162.056 89.8442C160.841 90.1879 158.326 91.2287 157.679 94.0474L158.675 97.4636L159.97 103.554L163.037 102.503Z" fill="#FAB27B"/>
<path id="Vector_135" d="M163.102 101.383V99.0323C161.381 99.3688 159.84 100.317 158.764 101.702L159.487 104.007L163.102 101.383Z" fill="#525ECC"/>
<path id="Vector_136" d="M179.521 92.6579C179.933 91.9273 180.519 91.3099 181.227 90.8607C181.935 90.4115 182.743 90.1444 183.58 90.0832C186.383 89.9487 190.313 90.0832 190.313 90.0832L190.995 93.4746L179.521 92.6579Z" fill="#263238"/>
<path id="Vector_137" d="M169.023 128.599C169.023 128.599 170.921 105.815 173.505 98.0862C176.09 90.3572 180.975 91.3034 186.951 91.4379C192.927 91.5723 194.949 91.9807 195.766 95.2376C196.583 98.4945 192.917 124.799 192.917 124.799L192.091 131.308L169.023 128.599Z" fill="#263238"/>
<path id="Vector_138" opacity="0.1" d="M169.023 128.599C169.023 128.599 170.921 105.815 173.505 98.0862C176.09 90.3572 180.975 91.3034 186.951 91.4379C192.927 91.5723 194.949 91.9807 195.766 95.2376C196.583 98.4945 192.917 124.799 192.917 124.799L192.091 131.308L169.023 128.599Z" fill="white"/>
<path id="Vector_139" d="M179.167 91.7466C177.071 91.7466 174.825 92.0802 169.835 102.787C168.909 104.779 168.042 106.388 166.947 106.627C165.851 106.866 163.734 100.795 163.734 100.795C163.734 100.795 161.16 100.616 158.989 103.509C158.989 103.509 160.164 114.176 165.906 114.176C171.648 114.176 176.653 106.856 178.396 103.146C180.139 99.4357 183.998 91.7715 179.167 91.7466Z" fill="#263238"/>
<path id="Vector_140" opacity="0.1" d="M179.167 91.7466C177.071 91.7466 174.825 92.0802 169.835 102.787C168.909 104.779 168.042 106.388 166.947 106.627C165.851 106.866 163.734 100.795 163.734 100.795C163.734 100.795 161.16 100.616 158.989 103.509C158.989 103.509 160.164 114.176 165.906 114.176C171.648 114.176 176.653 106.856 178.396 103.146C180.139 99.4357 183.998 91.7715 179.167 91.7466Z" fill="#263238"/>
<path id="Vector_141" opacity="0.2" d="M182.992 89.2964C183.419 89.2072 183.821 89.0277 184.172 88.77C184.524 88.5123 184.816 88.1824 185.029 87.8024L184.277 87.3044L183.142 87.5236L182.992 89.2964Z" fill="black"/>
<path id="Vector_142" d="M180.153 77.3743C180.039 77.6681 180.099 77.9619 180.293 78.0366C180.487 78.1113 180.761 77.932 180.866 77.6432C180.97 77.3543 180.925 77.0555 180.726 76.9808C180.527 76.9061 180.278 77.0854 180.153 77.3743Z" fill="#263238"/>
<path id="Vector_143" d="M180.452 78.4799L178.082 80.2029C178.292 80.4747 178.563 80.6943 178.872 80.8446C179.181 80.9948 179.521 81.0718 179.865 81.0695L180.452 78.4799Z" fill="#ED893E"/>
<path id="Vector_144" d="M192.195 80.676C190.811 84.6152 190.308 86.3184 187.648 87.8174C183.883 89.0624 178.978 87.5534 179.128 83.2806C179.262 79.436 181.503 73.6493 185.995 73.1114C187.512 72.9231 189.043 73.3402 190.254 74.2724C191.466 75.2045 192.262 76.5767 192.469 78.0914C192.583 78.9625 192.489 79.8481 192.195 80.676Z" fill="#FAB27B"/>
<path id="Vector_145" d="M181.388 74.8394C181.412 74.8524 181.432 74.871 181.447 74.8936C181.462 74.9162 181.471 74.942 181.473 74.9689C181.484 75.1752 181.543 75.3759 181.647 75.5544C181.751 75.7328 181.896 75.8838 182.071 75.9948C182.109 76.0149 182.137 76.0492 182.15 76.0901C182.163 76.1311 182.16 76.1755 182.14 76.2139C182.117 76.253 182.08 76.2817 182.037 76.2937C181.993 76.3058 181.946 76.3004 181.906 76.2786C181.684 76.1438 181.498 75.9567 181.364 75.7337C181.231 75.5106 181.154 75.2584 181.139 74.9988C181.137 74.9767 181.139 74.9542 181.145 74.9328C181.151 74.9115 181.162 74.8917 181.177 74.8748C181.191 74.8579 181.209 74.8443 181.229 74.8347C181.25 74.8252 181.272 74.82 181.294 74.8195C181.326 74.8188 181.359 74.8257 181.388 74.8394Z" fill="#263238"/>
<path id="Vector_146" d="M182.843 81.0943L181.647 79.9838C182.41 78.7683 182.872 77.3892 182.997 75.96C182.997 75.96 179.357 72.0308 182.579 71.3634C182.579 71.3634 182.838 66.8316 185.831 69.5756C185.831 69.5756 188.321 66.0896 189.058 70.1334C189.058 70.1334 191.214 69.3615 189.944 71.3784C189.944 71.3784 194.695 71.2389 192.793 73.4202C192.793 73.4202 198.599 78.201 193.584 82.0206C193.584 82.0206 195.462 82.8174 194.755 83.6242C194.048 84.4309 193.111 82.8822 193.111 82.8822C193.111 82.8822 194.72 86.2038 191.08 86.4279C191.08 86.4279 190.98 88.5544 188.091 87.7924C188.091 87.7924 187.374 86.7964 185.492 87.3293C185.492 87.3293 185.811 84.1321 182.843 81.0943Z" fill="#263238"/>
<path id="Vector_147" d="M183.644 79.2766C183.258 79.4582 182.912 79.7146 182.626 80.0308C182.339 80.3471 182.119 80.7171 181.976 81.1192C181.608 82.1899 182.579 82.7925 183.644 82.5535C184.611 82.3343 185.955 81.5077 185.861 80.4021C185.766 79.2965 184.611 78.8334 183.644 79.2766Z" fill="#FAB27B"/>
<path id="Vector_148" d="M176.234 128.484C176.234 128.484 151.439 124.5 148.316 134.46C145.194 144.42 140.348 158.728 140.348 158.728L146.165 161.566C146.165 161.566 155.677 143.967 156.384 140.844L169.87 140.989L174.695 135.013L176.234 128.484Z" fill="#263238"/>
<path id="Vector_149" d="M144.78 161.95L142.883 165.665L138.755 163.952L140.552 159.748L144.78 161.95Z" fill="#FAB27B"/>
<path id="Vector_150" d="M136.584 163.344C136.041 163.135 135.513 162.846 135.423 162.522C135.403 162.439 135.41 162.352 135.442 162.272C135.474 162.193 135.53 162.125 135.603 162.079C135.66 162.033 135.726 161.998 135.797 161.978C135.868 161.957 135.942 161.951 136.016 161.96C136.823 162.034 138.008 163.478 138.073 163.543C138.085 163.562 138.091 163.583 138.091 163.605C138.091 163.628 138.085 163.649 138.073 163.668C138.06 163.687 138.042 163.702 138.021 163.712C138 163.722 137.976 163.725 137.953 163.723C137.487 163.636 137.028 163.509 136.584 163.344ZM136.21 162.229C136.142 162.205 136.072 162.188 136.001 162.179C135.955 162.171 135.908 162.173 135.864 162.185C135.819 162.197 135.777 162.219 135.742 162.248C135.617 162.348 135.622 162.423 135.637 162.468C135.732 162.826 136.833 163.249 137.684 163.464C137.272 162.971 136.772 162.559 136.21 162.248V162.229Z" fill="#525ECC"/>
<path id="Vector_151" d="M137.948 163.737C137.932 163.734 137.918 163.725 137.908 163.713C137.475 163.284 136.783 161.945 137.056 161.486C137.116 161.372 137.256 161.262 137.554 161.342C137.659 161.371 137.757 161.421 137.843 161.489C137.928 161.556 138 161.64 138.052 161.735C138.436 162.403 138.107 163.623 138.092 163.683C138.087 163.701 138.076 163.718 138.062 163.731C138.048 163.744 138.031 163.753 138.013 163.757C137.99 163.757 137.967 163.75 137.948 163.737ZM137.549 161.561L137.49 161.536C137.3 161.481 137.261 161.536 137.241 161.576C137.101 161.86 137.51 162.861 137.933 163.384C138.068 162.87 138.042 162.328 137.858 161.83C137.79 161.707 137.681 161.612 137.549 161.561Z" fill="#525ECC"/>
<path id="Vector_152" d="M138.64 163.299L143.411 165.102C143.499 165.133 143.572 165.194 143.62 165.274C143.667 165.354 143.685 165.448 143.67 165.54L143.067 169.748C143.043 169.927 142.948 170.089 142.804 170.198C142.661 170.307 142.479 170.355 142.301 170.331C142.253 170.325 142.206 170.313 142.161 170.296C140.453 169.619 138.959 168.947 136.818 168.14C134.293 167.189 134.826 167.731 131.838 166.646C130.04 165.998 130.483 163.837 131.28 164.026C134.915 164.898 135.672 163.986 137.48 163.249C137.86 163.122 138.273 163.14 138.64 163.299Z" fill="#263238"/>
<path id="Vector_153" opacity="0.2" d="M143.814 163.837L144.781 161.95L140.553 159.748L139.686 161.78L143.814 163.837Z" fill="black"/>
<path id="Vector_154" d="M147.096 161.775L139.855 157.911C139.553 158.111 139.319 158.398 139.185 158.734C139.05 159.071 139.022 159.44 139.103 159.793L146.075 163.598C146.075 163.598 146.962 163.498 147.096 161.775Z" fill="#525ECC"/>
<path id="Vector_155" d="M198.047 179.688L194.914 145.202C194.891 145.05 194.812 144.912 194.692 144.815C194.572 144.718 194.42 144.67 194.267 144.679H193.012C192.927 144.673 192.841 144.684 192.761 144.713C192.681 144.742 192.608 144.788 192.547 144.847C192.486 144.906 192.438 144.978 192.406 145.057C192.375 145.136 192.361 145.221 192.364 145.306L196.747 179.793C196.777 179.94 196.858 180.071 196.977 180.163C197.096 180.254 197.244 180.3 197.394 180.291C197.477 180.298 197.561 180.287 197.64 180.26C197.719 180.233 197.791 180.19 197.853 180.133C197.914 180.076 197.963 180.008 197.996 179.931C198.03 179.855 198.047 179.772 198.047 179.688Z" fill="#525ECC"/>
<path id="Vector_156" d="M176.189 179.778L180.572 145.292C180.576 145.206 180.561 145.121 180.53 145.042C180.498 144.963 180.45 144.892 180.389 144.832C180.328 144.773 180.255 144.727 180.175 144.698C180.095 144.669 180.009 144.658 179.924 144.664H178.674C178.52 144.654 178.367 144.701 178.246 144.798C178.126 144.895 178.045 145.034 178.022 145.187L174.89 179.673C174.889 179.757 174.905 179.841 174.938 179.918C174.971 179.995 175.02 180.064 175.082 180.121C175.143 180.179 175.216 180.222 175.295 180.25C175.374 180.277 175.458 180.288 175.542 180.281C175.693 180.29 175.841 180.244 175.96 180.151C176.079 180.059 176.161 179.926 176.189 179.778Z" fill="#525ECC"/>
<path id="Vector_157" d="M183.898 179.688L180.776 145.202C180.753 145.049 180.673 144.91 180.552 144.813C180.431 144.716 180.278 144.668 180.124 144.679H178.874C178.789 144.673 178.703 144.684 178.623 144.713C178.543 144.742 178.47 144.788 178.409 144.847C178.348 144.906 178.3 144.978 178.268 145.057C178.237 145.136 178.222 145.221 178.226 145.306L182.594 179.778C182.624 179.926 182.707 180.057 182.827 180.148C182.947 180.24 183.096 180.285 183.246 180.276C183.328 180.283 183.41 180.273 183.488 180.247C183.566 180.22 183.638 180.178 183.699 180.123C183.76 180.068 183.81 180.001 183.844 179.926C183.878 179.852 183.897 179.771 183.898 179.688Z" fill="#525ECC"/>
<path id="Vector_158" opacity="0.3" d="M183.898 179.688L180.776 145.202C180.753 145.049 180.673 144.91 180.552 144.813C180.431 144.716 180.278 144.668 180.124 144.679H178.874C178.789 144.673 178.703 144.684 178.623 144.713C178.543 144.742 178.47 144.788 178.409 144.847C178.348 144.906 178.3 144.978 178.268 145.057C178.237 145.136 178.222 145.221 178.226 145.306L182.594 179.778C182.624 179.926 182.707 180.057 182.827 180.148C182.947 180.24 183.096 180.285 183.246 180.276C183.328 180.283 183.41 180.273 183.488 180.247C183.566 180.22 183.638 180.178 183.699 180.123C183.76 180.068 183.81 180.001 183.844 179.926C183.878 179.852 183.897 179.771 183.898 179.688Z" fill="white"/>
<path id="Vector_159" d="M162.041 179.778L166.424 145.292C166.427 145.206 166.413 145.121 166.382 145.042C166.35 144.963 166.302 144.892 166.241 144.832C166.18 144.773 166.107 144.727 166.027 144.698C165.947 144.669 165.861 144.658 165.776 144.664H164.521C164.368 144.655 164.216 144.703 164.096 144.8C163.977 144.897 163.897 145.035 163.874 145.187L160.741 179.673C160.741 179.757 160.757 179.841 160.79 179.918C160.823 179.995 160.872 180.064 160.933 180.121C160.995 180.179 161.067 180.222 161.147 180.25C161.226 180.277 161.31 180.288 161.394 180.281C161.544 180.29 161.693 180.244 161.812 180.151C161.931 180.059 162.013 179.926 162.041 179.778Z" fill="#525ECC"/>
<path id="Vector_160" opacity="0.3" d="M162.041 179.778L166.424 145.292C166.427 145.206 166.413 145.121 166.382 145.042C166.35 144.963 166.302 144.892 166.241 144.832C166.18 144.773 166.107 144.727 166.027 144.698C165.947 144.669 165.861 144.658 165.776 144.664H164.521C164.368 144.655 164.216 144.703 164.096 144.8C163.977 144.897 163.897 145.035 163.874 145.187L160.741 179.673C160.741 179.757 160.757 179.841 160.79 179.918C160.823 179.995 160.872 180.064 160.933 180.121C160.995 180.179 161.067 180.222 161.147 180.25C161.226 180.277 161.31 180.288 161.394 180.281C161.544 180.29 161.693 180.244 161.812 180.151C161.931 180.059 162.013 179.926 162.041 179.778Z" fill="white"/>
<path id="Vector_161" d="M161.289 142.876H197.499V143.021C197.499 143.46 197.324 143.882 197.013 144.193C196.702 144.504 196.28 144.679 195.841 144.679H162.973C162.533 144.679 162.111 144.504 161.8 144.193C161.489 143.882 161.314 143.46 161.314 143.021V142.876H161.289Z" fill="#525ECC"/>
<path id="Vector_162" opacity="0.3" d="M161.289 142.876H197.499V143.021C197.499 143.46 197.324 143.882 197.013 144.193C196.702 144.504 196.28 144.679 195.841 144.679H162.973C162.533 144.679 162.111 144.504 161.8 144.193C161.489 143.882 161.314 143.46 161.314 143.021V142.876H161.289Z" fill="black"/>
<path id="Vector_163" d="M195.113 106.617H191.911C189.306 106.617 186.768 107.44 184.658 108.968C182.549 110.497 180.976 112.652 180.163 115.128L173.689 134.834C173.163 136.439 172.143 137.837 170.775 138.828C169.406 139.819 167.76 140.352 166.07 140.351H155.791C155.123 140.353 154.482 140.619 154.009 141.093C153.537 141.566 153.271 142.207 153.271 142.876H197.833C200.065 142.875 202.212 142.022 203.836 140.491C205.461 138.96 206.439 136.867 206.572 134.639L207.459 119.699C207.557 118.018 207.31 116.334 206.733 114.751C206.157 113.169 205.264 111.721 204.108 110.496C202.952 109.271 201.558 108.295 200.011 107.628C198.464 106.961 196.798 106.617 195.113 106.617Z" fill="#525ECC"/>
</g>
<g id="character-1">
<path id="Vector_164" d="M53.9054 118.927L54.4034 125.765C54.4034 125.765 50.8178 137.249 50.4194 149.808C50.016 161.96 49.9214 171.337 49.9214 171.337L54.3536 171.621L61.1762 128.046L62.5606 118.559L53.9054 118.927Z" fill="#FFC3BD"/>
<path id="Vector_165" d="M65.1005 40.069C65.1005 40.069 68.0486 38.9436 69.5377 41.7224C69.5377 41.7224 66.0517 40.9156 64.9561 42.574L65.1005 40.069Z" fill="#263238"/>
<path id="Vector_166" opacity="0.1" d="M65.1005 40.069C65.1005 40.069 68.0486 38.9436 69.5377 41.7224C69.5377 41.7224 66.0517 40.9156 64.9561 42.574L65.1005 40.069Z" fill="white"/>
<path id="Vector_167" d="M97.8788 62.6932L95.9565 64.6554C94.2533 64.9641 93.9645 67.4093 93.9645 67.4093C93.5761 67.6434 90.7026 70.0238 89.8411 70.6065L91.4895 72.4939C92.6072 71.3357 93.8018 70.2543 95.0651 69.2569C95.0651 69.2569 99.4027 67.2948 100.175 66.498C100.946 65.7012 100.175 62.9422 100.175 62.9422L97.8788 62.6932Z" fill="#FFC3BD"/>
<path id="Vector_168" d="M92.2215 68.0267C89.3331 69.7697 85.0603 72.454 85.0603 72.454C83.132 69.9031 81.076 67.4515 78.9 65.1085C77.556 63.5866 75.9794 62.2873 74.2288 61.2589V69.4759C76.2208 71.5127 82.4707 77.683 85.125 77.683C87.3112 77.683 91.7384 73.3703 94.2882 70.6861L92.2215 68.0267Z" fill="#263238"/>
<path id="Vector_169" opacity="0.4" d="M78.6859 73.704C77.4558 71.1592 75.8324 65.9302 75.8324 65.9302L74.7019 67.972L75.1302 70.3723C76.0515 71.2936 77.3164 72.5137 78.6859 73.704Z" fill="black"/>
<path id="Vector_170" d="M68.6912 120.446L69.9362 126.173C69.9362 126.173 68.5667 139.868 70.8077 151.82C73.0487 163.772 73.4222 171.118 73.4222 171.118L78.4022 170.62L76.9082 127.418L77.0327 117.832L68.6912 120.446Z" fill="#FFC3BD"/>
<path id="Vector_171" d="M54.1394 64.6553C54.7203 72.1518 55.7967 79.6015 57.3615 86.9558C57.3615 86.9558 49.767 101.024 50.6385 121.318C50.6385 121.318 58.3575 124.306 78.9 121.318L76.2855 86.8313C76.2855 86.8313 77.157 64.5458 74.7915 62.0558C72.6949 59.8496 63.5616 56.9612 56.5697 60.4024C55.7885 60.7904 55.1403 61.4019 54.7076 62.1592C54.2748 62.9165 54.0771 63.7854 54.1394 64.6553Z" fill="#525ECC"/>
<path id="Vector_172" d="M63.8354 86.2087C63.8354 86.2087 69.936 87.2695 74.2287 86.2087V88.8232C74.2287 88.8232 71.0365 89.2864 63.8354 88.8232V86.2087Z" fill="#525ECC"/>
<path id="Vector_173" opacity="0.5" d="M63.8354 86.2087C63.8354 86.2087 69.936 87.2695 74.2287 86.2087V88.8232C74.2287 88.8232 71.0365 89.2864 63.8354 88.8232V86.2087Z" fill="black"/>
<path id="Vector_174" d="M67.9441 86.8661C67.9538 86.5728 68.0681 86.2926 68.2663 86.0762C68.4645 85.8598 68.7335 85.7213 69.0248 85.6858C69.7718 85.5464 71.8335 85.5862 71.8634 87.1798C71.8933 88.7734 72.207 89.9188 70.6532 90.0134C69.0995 90.1081 67.8844 90.2226 67.9292 89.0174H70.7429L70.718 86.6519L67.9441 86.8661Z" fill="white"/>
<path id="Vector_175" d="M60.26 50.8308C61.0668 53.1366 62.1225 57.1803 61.256 59.5159C61.1534 59.7879 61.1468 60.0869 61.2374 60.3631C61.328 60.6394 61.5103 60.8764 61.754 61.0348C63.5119 62.3047 66.3705 63.3306 68.5218 63.1015C71.2857 62.8027 70.5636 60.8456 69.8614 59.7749C69.6722 59.486 69.3635 59.0827 69.0398 59.0229C66.3257 58.5647 65.8127 56.5329 66.0219 54.4662L60.26 50.8308Z" fill="#FFC3BD"/>
<path id="Vector_176" opacity="0.2" d="M62.6256 52.3248L66.0418 54.4563C65.997 54.9616 65.997 55.4699 66.0418 55.9752C65.3572 55.9547 64.6879 55.767 64.0924 55.4285C63.4969 55.0899 62.9933 54.6108 62.6256 54.033C62.2521 53.286 62.3467 52.4593 62.6256 52.3248Z" fill="black"/>
<path id="Vector_177" d="M59.2092 47.1008C60.2052 50.6465 60.6086 52.773 62.8197 54.2222C66.1514 56.4134 70.235 53.7989 70.2897 50.034C70.3595 46.6227 68.721 41.4086 64.8914 40.7363C64.0484 40.5852 63.1807 40.6521 62.3708 40.9306C61.5609 41.2091 60.8356 41.69 60.2638 42.3277C59.692 42.9653 59.2927 43.7385 59.1037 44.5739C58.9148 45.4093 58.9426 46.2791 59.1843 47.1008H59.2092Z" fill="#FFC3BD"/>
<path id="Vector_178" d="M67.1621 46.5879C67.7046 47.4064 68.3583 48.1455 69.1043 48.7841C68.9345 48.9703 68.7264 49.1174 68.4943 49.2154C68.2622 49.3135 68.0115 49.36 67.7597 49.3518L67.1621 46.5879Z" fill="#ED847E"/>
<path id="Vector_179" d="M63.6264 45.8159C63.5973 45.8258 63.5658 45.8258 63.5367 45.8159C63.4942 45.7963 63.461 45.7609 63.4442 45.7172C63.4275 45.6734 63.4285 45.6248 63.4471 45.5819C63.5623 45.3291 63.7355 45.1071 63.9527 44.9341C64.17 44.761 64.425 44.6417 64.6971 44.5859C64.7432 44.5801 64.7897 44.5925 64.8269 44.6203C64.864 44.6482 64.8889 44.6894 64.8963 44.7353C64.8998 44.7582 64.8987 44.7816 64.8931 44.8041C64.8874 44.8266 64.8773 44.8477 64.8634 44.8662C64.8495 44.8848 64.8321 44.9004 64.812 44.9121C64.792 44.9238 64.7699 44.9314 64.7469 44.9345C64.5281 44.9804 64.3235 45.078 64.1502 45.2192C63.9769 45.3605 63.84 45.5412 63.7509 45.7462C63.7365 45.7662 63.7178 45.7828 63.6963 45.7948C63.6748 45.8069 63.651 45.8141 63.6264 45.8159Z" fill="#263238"/>
<path id="Vector_180" d="M69.224 44.1228C69.1987 44.1387 69.1693 44.1472 69.1394 44.1472C69.1094 44.1472 69.0801 44.1387 69.0547 44.1228C68.8676 44.0098 68.6565 43.9423 68.4385 43.9259C68.2205 43.9094 68.0017 43.9445 67.7998 44.0282C67.7575 44.049 67.7086 44.0524 67.6639 44.0374C67.6191 44.0225 67.5821 43.9906 67.5607 43.9485C67.5498 43.9281 67.5432 43.9056 67.5413 43.8825C67.5394 43.8594 67.5423 43.8362 67.5498 43.8142C67.5573 43.7923 67.5692 43.7721 67.5848 43.7549C67.6003 43.7378 67.6193 43.724 67.6404 43.7145C67.8942 43.606 68.1701 43.5595 68.4454 43.5785C68.7207 43.5975 68.9876 43.6817 69.224 43.824C69.2437 43.8344 69.2611 43.8487 69.2751 43.866C69.2891 43.8833 69.2995 43.9033 69.3055 43.9247C69.3116 43.9461 69.3132 43.9685 69.3103 43.9906C69.3075 44.0127 69.3001 44.034 69.2888 44.0531C69.2741 44.0819 69.2517 44.106 69.224 44.1228Z" fill="#263238"/>
<path id="Vector_181" d="M61.4054 58.3656L68.4421 62.9273V58.8138L69.6174 59.0827C69.7386 59.111 69.8495 59.1727 69.9375 59.2607C70.0255 59.3487 70.0871 59.4595 70.1154 59.5807C70.531 61.4384 70.7513 63.3345 70.7728 65.238C70.7728 65.238 70.1851 62.6833 68.5666 63.6793C68.5666 63.6793 66.8386 62.25 65.4691 64.6753C65.4691 64.6753 62.1524 63.246 61.4054 61.503C60.6584 59.76 60.1604 58.8188 60.1604 58.8188L61.4054 58.3656Z" fill="white"/>
<path id="Vector_182" d="M60.8874 58.3656C62.6508 65.9579 63.8542 73.6694 64.4879 81.4379C65.2897 92.9766 65.454 96.4626 60.8874 95.9646C56.3207 95.4666 52.5907 94.8839 53.253 93.2256C53.9154 91.5673 56.4054 87.8273 56.241 85.9199C56.0767 84.0126 54.498 69.1573 54.3187 66.9063C54.1395 64.6553 52.755 59.76 60.8874 58.3656Z" fill="#263238"/>
<path id="Vector_183" opacity="0.3" d="M64.488 81.4379C64.4183 80.417 64.3286 79.3961 64.229 78.3851L55.7332 80.8751C55.8676 82.155 55.9871 83.3054 56.0768 84.1918L61.754 82.6679L61.6892 82.2397L64.5229 81.8164C64.5029 81.6719 64.498 81.5624 64.488 81.4379Z" fill="black"/>
<path id="Vector_184" d="M69.0247 58.8137C69.0247 58.8137 72.675 65.96 72.924 77.6829C73.173 89.4059 72.6551 95.6458 74.8313 96.0093C77.0076 96.3729 77.4907 94.8839 77.4907 94.8839C77.4907 94.8839 76.8433 88.5144 76.8433 86.9557C76.8433 85.397 77.5305 75.9997 76.8433 69.2767C76.156 62.5537 76.8433 62.972 75.7128 62.22C73.6298 60.8177 71.3839 59.6738 69.0247 58.8137Z" fill="#263238"/>
<path id="Vector_185" opacity="0.4" d="M55.5987 79.5704L57.8447 66.7319C57.8447 66.7319 55.9922 68.6144 54.6177 70.0536C54.8816 72.6581 55.28 76.3682 55.5987 79.5704Z" fill="black"/>
<path id="Vector_186" d="M67.0029 74.3662C66.2111 74.5356 61.993 77.2297 61.993 77.2297C61.993 77.2297 59.7022 77.922 58.6465 78.1162L59.762 80.6759C60.6783 80.2675 62.6653 79.6799 62.6653 79.6799C62.6653 79.6799 64.3536 79.6251 64.9163 79.5106C64.9163 79.5106 66.5448 79.9588 67.5009 79.3413C68.4571 78.7238 68.9949 77.2048 68.9949 77.2048C68.9949 77.2048 67.7898 74.2019 67.0029 74.3662Z" fill="#FFC3BD"/>
<path id="Vector_187" d="M59.6623 77.5834C57.4113 78.0017 54.6225 78.0515 54.6225 77.683C54.6225 77.1202 56.7589 70.0636 57.9193 67.474C58.6613 65.8156 60.972 61.6822 58.4173 60.2331C57.0627 59.4612 52.8247 59.999 50.8327 68.7787C48.8407 77.5585 49.757 80.7307 51.6843 82.1002C53.7112 83.5395 58.2878 81.8363 60.7728 80.7307L59.6623 77.5834Z" fill="#263238"/>
<path id="Vector_188" d="M64.9112 46.6774C64.9709 46.9762 65.1751 47.1755 65.3693 47.1456C65.5636 47.1157 65.6731 46.8368 65.6134 46.538C65.5536 46.2392 65.3494 46.04 65.1602 46.0749C64.9709 46.1097 64.8564 46.3786 64.9112 46.6774Z" fill="#263238"/>
<path id="Vector_189" d="M68.2627 46.0202C68.3225 46.314 68.5267 46.5182 68.7159 46.4883C68.9052 46.4584 69.0197 46.1795 68.9649 45.8807C68.9101 45.5819 68.701 45.3827 68.5117 45.4126C68.3225 45.4425 68.2279 45.7214 68.2627 46.0202Z" fill="#263238"/>
<path id="Vector_190" d="M68.4272 45.4475L69.0995 45.1039C69.0995 45.1039 68.8406 45.7314 68.4272 45.4475Z" fill="#263238"/>
<path id="Vector_191" d="M65.0757 46.1049L65.748 45.7612C65.748 45.7612 65.489 46.3887 65.0757 46.1049Z" fill="#263238"/>
<path id="Vector_192" d="M66.9531 51.03C67.1634 51.029 67.3732 51.0107 67.5805 50.9752C67.6092 50.9692 67.6345 50.9524 67.6511 50.9283C67.6678 50.9042 67.6746 50.8747 67.6702 50.8457C67.6642 50.818 67.6481 50.7935 67.6252 50.777C67.6022 50.7604 67.5738 50.753 67.5457 50.7561C67.0884 50.8456 66.6165 50.8269 66.1677 50.7015C65.719 50.5761 65.3057 50.3475 64.9611 50.034C64.9397 50.0133 64.9111 50.0017 64.8814 50.0017C64.8516 50.0017 64.8231 50.0133 64.8017 50.034C64.7908 50.0442 64.7822 50.0566 64.7763 50.0703C64.7704 50.084 64.7673 50.0987 64.7673 50.1136C64.7673 50.1286 64.7704 50.1433 64.7763 50.157C64.7822 50.1707 64.7908 50.1831 64.8017 50.1933C65.3851 50.7376 66.1552 51.0371 66.9531 51.03Z" fill="#263238"/>
<path id="Vector_193" d="M60.4691 50.298C60.4691 50.298 61.3207 49.8846 61.3007 47.9922C61.7949 47.175 62.0669 46.2427 62.0896 45.2879C62.1123 44.3331 61.885 43.3889 61.4302 42.5491C61.4302 42.5491 65.5387 42.2304 66.4102 40.6617C67.2817 39.093 69.458 39.0282 69.458 39.0282C69.458 39.0282 68.96 37.1607 65.2648 37.9525C66.1166 37.3851 67.1103 37.0677 68.1333 37.0362C68.1333 37.0362 65.8973 34.9645 62.5657 36.8071C62.7159 36.4828 62.9379 36.1969 63.2148 35.9708C63.4918 35.7448 63.8164 35.5846 64.1642 35.5024C64.1642 35.5024 59.7619 34.4616 56.2759 38.6846C53.5369 42.0013 55.7779 43.3011 55.7779 43.3011C55.7779 43.3011 53.5469 42.9574 54.015 45.9703L54.9164 44.551C54.9164 44.551 54.1993 46.4634 56.3158 48.5799C58.4323 50.6964 60.4691 50.298 60.4691 50.298Z" fill="#263238"/>
<path id="Vector_194" d="M58.1782 50.8309C58.4983 51.1588 58.8799 51.4204 59.3012 51.6007C59.7225 51.781 60.1752 51.8765 60.6334 51.8817C61.8634 51.8817 62.1274 50.7064 61.5397 49.7203C60.987 48.8289 59.6822 47.7582 58.5816 48.2263C57.481 48.6945 57.3864 50.0092 58.1782 50.8309Z" fill="#FFC3BD"/>
<path id="Vector_195" d="M54.7819 170.431L49.5031 170.535C49.4067 170.537 49.3136 170.571 49.2393 170.633C49.1651 170.694 49.1141 170.779 49.0948 170.874L48.2282 175.191C48.1898 175.374 48.2254 175.565 48.3271 175.722C48.4288 175.878 48.5884 175.989 48.7711 176.028H48.9205C50.8228 175.958 52.516 175.819 54.8965 175.774C57.6903 175.724 56.9881 176.073 60.2749 176.053C62.2669 176.053 62.5756 173.782 61.734 173.687C57.8795 173.279 57.4562 172.129 55.9472 170.779C55.6156 170.522 55.2002 170.398 54.7819 170.431Z" fill="#263238"/>
<path id="Vector_196" d="M78.4967 170.43L73.2179 170.535C73.1214 170.537 73.0283 170.571 72.9541 170.632C72.8798 170.694 72.8288 170.779 72.8095 170.874L71.938 175.191C71.8997 175.375 71.9359 175.566 72.0386 175.723C72.1414 175.88 72.3022 175.99 72.4858 176.028H72.6352C74.5376 175.958 76.2308 175.819 78.6112 175.774C81.41 175.724 80.7078 176.073 83.9946 176.053C85.9866 176.053 86.2953 173.782 85.4537 173.687C81.5992 173.279 81.1759 172.129 79.667 170.779C79.3336 170.522 78.9165 170.398 78.4967 170.43Z" fill="#263238"/>
</g>
</g>
</g>
</g>
</g>
</g>
</g>
<defs>
<filter id="filter0_d_0_1" x="-39.5" y="-149" width="325" height="417.989" filterUnits="userSpaceOnUse" color-interpolation-filters="sRGB">
<feFlood flood-opacity="0" result="BackgroundImageFix"/>
<feColorMatrix in="SourceAlpha" type="matrix" values="0 0 0 0 0 0 0 0 0 0 0 0 0 0 0 0 0 0 127 0" result="hardAlpha"/>
<feOffset dy="4"/>
<feGaussianBlur stdDeviation="12"/>
<feComposite in2="hardAlpha" operator="out"/>
<feColorMatrix type="matrix" values="0 0 0 0 0 0 0 0 0 0 0 0 0 0 0 0 0 0 0.08 0"/>
<feBlend mode="normal" in2="BackgroundImageFix" result="effect1_dropShadow_0_1"/>
<feBlend mode="normal" in="SourceGraphic" in2="effect1_dropShadow_0_1" result="shape"/>
</filter>
<clipPath id="clip0_0_1">
<rect width="1280" height="3897.99" fill="white" transform="translate(-75.5 -1711)"/>
</clipPath>
<clipPath id="clip1_0_1">
<rect width="1160" height="369.989" fill="white" transform="translate(-15.5 -129)"/>
</clipPath>
</defs>
</svg>
