<svg width="66" height="65" viewBox="0 0 66 65" fill="none" xmlns="http://www.w3.org/2000/svg">
<g id="logos:linkedin-icon">
<g clip-path="url(#clip0_331_2168)">
<rect x="0.5" y="0.103516" width="65" height="64" rx="5" fill="white"/>
<path id="Vector" d="M55.883 54.6354H46.2521V39.7847C46.2521 36.2434 46.1879 31.6847 41.2431 31.6847C36.2269 31.6847 35.4593 35.5432 35.4593 39.5269V54.6344H25.8287V24.0954H35.0742V28.2689H35.2037C36.1289 26.7112 37.466 25.4297 39.0724 24.561C40.6788 23.6922 42.4945 23.2688 44.326 23.3357C54.0874 23.3357 55.8871 29.6577 55.8871 37.8822L55.883 54.6354ZM14.9615 19.9212C11.8747 19.9217 9.37199 17.4582 9.37148 14.4189C9.37098 11.3797 11.8727 8.91542 14.9595 8.91492C18.0462 8.91417 20.5489 11.3777 20.5495 14.4169C20.5497 15.8764 19.9612 17.2763 18.9132 18.3085C17.8653 19.3408 16.4438 19.9208 14.9615 19.9212ZM19.7771 54.6357H10.136V24.0954H19.7768L19.7771 54.6357ZM60.6844 0.108174H5.29654C2.67877 0.0791736 0.531992 2.14392 0.5 4.72142V59.4847C0.530977 62.0634 2.6775 64.1302 5.29629 64.1032H60.6844C63.3088 64.1352 65.4637 62.0684 65.5 59.4847V4.71717C65.4627 2.13467 63.3075 0.0701736 60.6844 0.103924" fill="#0A66C2"/>
</g>
</g>
<defs>
<clipPath id="clip0_331_2168">
<rect x="0.5" y="0.103516" width="65" height="64" rx="5" fill="white"/>
</clipPath>
</defs>
</svg>
