<svg width="207" height="35" viewBox="0 0 207 35" fill="none" xmlns="http://www.w3.org/2000/svg">
<rect width="207" height="35" fill="#1E1E1E"/>
<g id="For Neeraj">
<path d="M-140 -97.9999C-140 -99.1044 -139.105 -100 -138 -100H16140C16141.1 -100 16142 -99.1046 16142 -98V7400C16142 7401.1 16141.1 7402 16140 7402H-138C-139.104 7402 -140 7401.1 -140 7400V-97.9999Z" fill="#444444"/>
<path d="M-138 -99H16140V-101H-138V-99ZM16141 -98V7400H16143V-98H16141ZM16140 7401H-138V7403H16140V7401ZM-139 7400V-97.9999H-141V7400H-139ZM-138 7401C-138.552 7401 -139 7400.55 -139 7400H-141C-141 7401.66 -139.657 7403 -138 7403V7401ZM16141 7400C16141 7400.55 16140.6 7401 16140 7401V7403C16141.7 7403 16143 7401.66 16143 7400H16141ZM16140 -99C16140.6 -99 16141 -98.5522 16141 -98H16143C16143 -99.657 16141.7 -101 16140 -101V-99ZM-138 -101C-139.657 -101 -141 -99.6567 -141 -97.9999H-139C-139 -98.5522 -138.552 -99 -138 -99V-101Z" fill="#FCFFFE" fill-opacity="0.1"/>
<g id="Header" filter="url(#filter0_d_0_1)">
<rect width="1280" height="74" transform="translate(-59.5 -19.5)" fill="#FCFFFE"/>
<g id="logo" clip-path="url(#clip0_0_1)">
<path id="Exclude" fill-rule="evenodd" clip-rule="evenodd" d="M5.69722 0.5H29.9509C32.8213 0.5 35.1482 2.78335 35.1482 5.6V29.4C35.1482 32.2167 32.8213 34.5 29.9509 34.5H5.69722C2.82688 34.5 0.5 32.2167 0.5 29.4V5.6C0.5 2.78335 2.82688 0.5 5.69722 0.5ZM12.4959 7.1935H10.721C10.721 8.89719 11.4163 10.4405 12.5411 11.5574C13.6659 12.6743 15.2202 13.3648 16.9359 13.3648V17.2264H13.7176C13.625 17.2264 13.5421 17.2627 13.4819 17.3226C13.4216 17.3824 13.3839 17.4658 13.3839 17.5566V18.7901C13.3839 18.8809 13.4216 18.9632 13.4819 19.023C13.5421 19.0828 13.625 19.1202 13.7176 19.1202H16.0834C16.4623 19.1202 16.797 19.1886 17.0812 19.3169C17.3653 19.4451 17.5989 19.6333 17.7754 19.8706H13.7176C13.625 19.8706 13.5421 19.908 13.4819 19.9679C13.4216 20.0277 13.3839 20.11 13.3839 20.2019V21.3039C13.3839 21.3947 13.4216 21.4781 13.4819 21.538C13.5421 21.5978 13.625 21.634 13.7176 21.634H18.122C18.0359 22.1311 17.8077 22.535 17.4558 22.8152C17.1038 23.0942 16.628 23.25 16.0479 23.25H13.7176C13.625 23.25 13.5421 23.2864 13.4819 23.3463C13.4216 23.4061 13.3839 23.4896 13.3839 23.5804V25.0415C13.3839 25.0874 13.3936 25.1323 13.4119 25.1739C13.4302 25.2156 13.4571 25.2532 13.4916 25.2841L18.0714 29.4822C18.1016 29.5101 18.1371 29.5326 18.1759 29.5465C18.2147 29.5615 18.2556 29.57 18.2975 29.57H20.5879C20.7397 29.57 20.8516 29.477 20.898 29.3593C20.9443 29.2419 20.9249 29.0975 20.814 28.996L16.627 25.159C17.6883 25.1258 18.5977 24.7581 19.2673 24.1425C19.9367 23.526 20.3651 22.6612 20.4653 21.634H21.9302C22.0227 21.634 22.1057 21.5978 22.166 21.538C22.2263 21.4781 22.2638 21.3947 22.2638 21.3039V20.2019C22.2638 20.11 22.2263 20.0277 22.166 19.9679C22.1057 19.908 22.0227 19.8706 21.9302 19.8706H20.3017C20.2532 19.7123 20.1962 19.5585 20.1306 19.4121C20.0639 19.2646 19.9895 19.1235 19.9067 18.9898H21.9302C22.0227 18.9898 22.1057 18.9524 22.166 18.8926C22.2263 18.8328 22.2638 18.7505 22.2638 18.6585V17.5566C22.2638 17.4658 22.2263 17.3824 22.166 17.3226C22.1057 17.2627 22.0227 17.2264 21.9302 17.2264H18.7119V13.3648C18.7119 11.6611 18.0165 10.1178 16.8918 9.00086C15.767 7.88394 14.2127 7.1935 12.4959 7.1935ZM23.1519 5.42997C21.9829 5.42997 20.8915 5.75061 19.9582 6.30746C19.0262 6.86431 18.2523 7.65736 17.7217 8.60432C18.1059 9.0201 18.4396 9.48073 18.7163 9.97773C18.9917 10.4747 19.2081 11.0081 19.3588 11.5692C20.9216 11.4078 22.3145 10.6714 23.3155 9.57587C24.3165 8.48141 24.9268 7.02677 24.9268 5.42997H23.1519Z" fill="#30AB84"/>
<path id="Vector" d="M51.0916 25.6483C49.9089 25.6483 48.849 25.4599 47.9119 25.083C46.9748 24.7061 46.2223 24.1485 45.6539 23.4099C45.1009 22.6712 44.809 21.782 44.7783 20.7419H48.9718C49.0333 21.3298 49.2407 21.782 49.5939 22.0985C49.9471 22.3999 50.408 22.5507 50.9764 22.5507C51.56 22.5507 52.0208 22.4225 52.3588 22.1663C52.6968 21.895 52.8657 21.5258 52.8657 21.0584C52.8657 20.6666 52.7275 20.3424 52.451 20.0862C52.1899 19.83 51.8595 19.6189 51.4602 19.4531C51.0761 19.2874 50.5232 19.0989 49.8013 18.8879C48.7568 18.5713 47.9043 18.2548 47.2437 17.9383C46.5831 17.6217 46.0149 17.1544 45.5387 16.5364C45.0624 15.9184 44.8244 15.112 44.8244 14.1172C44.8244 12.64 45.3698 11.4869 46.4603 10.6578C47.5509 9.81374 48.9718 9.39169 50.7229 9.39169C52.5047 9.39169 53.941 9.81374 55.0316 10.6578C56.1221 11.4869 56.706 12.6475 56.7827 14.1398H52.5201C52.4894 13.6273 52.2973 13.2279 51.9441 12.9415C51.5908 12.64 51.1376 12.4893 50.5847 12.4893C50.1084 12.4893 49.7245 12.6174 49.4326 12.8736C49.1407 13.1148 48.9948 13.469 48.9948 13.9363C48.9948 14.4488 49.2407 14.8482 49.7321 15.1346C50.2236 15.421 50.9918 15.73 52.0362 16.0616C53.0807 16.4083 53.9256 16.7399 54.5708 17.0565C55.2313 17.373 55.7996 17.8327 56.2758 18.4357C56.752 19.0387 56.9901 19.8149 56.9901 20.7645C56.9901 21.6689 56.752 22.4904 56.2758 23.229C55.815 23.9677 55.1392 24.5555 54.2482 24.9926C53.3572 25.4297 52.3051 25.6483 51.0916 25.6483ZM63.3548 14.6598C63.7388 14.072 64.2688 13.5971 64.9446 13.2354C65.6206 12.8736 66.4116 12.6927 67.3178 12.6927C68.3777 12.6927 69.3378 12.9565 70.198 13.4841C71.0583 14.0117 71.7341 14.7653 72.2256 15.7451C72.7325 16.7249 72.9859 17.863 72.9859 19.1592C72.9859 20.4555 72.7325 21.6011 72.2256 22.5959C71.7341 23.5756 71.0583 24.3369 70.198 24.8795C69.3378 25.407 68.3777 25.6709 67.3178 25.6709C66.427 25.6709 65.6358 25.49 64.9446 25.1283C64.2688 24.7665 63.7388 24.2992 63.3548 23.7264V31.5043H59.4147V12.8736H63.3548V14.6598ZM68.9768 19.1592C68.9768 18.1945 68.7003 17.4408 68.1473 16.8982C67.6097 16.3405 66.9415 16.0616 66.1427 16.0616C65.3593 16.0616 64.6911 16.3405 64.1382 16.8982C63.6006 17.4559 63.3317 18.2171 63.3317 19.1818C63.3317 20.1466 63.6006 20.9077 64.1382 21.4654C64.6911 22.0232 65.3593 22.302 66.1427 22.302C66.9261 22.302 67.5943 22.0232 68.1473 21.4654C68.7003 20.8927 68.9768 20.124 68.9768 19.1592ZM78.993 14.9764C79.4539 14.283 80.0299 13.7403 80.7211 13.3484C81.4123 12.9415 82.1803 12.738 83.0252 12.738V16.8304H81.9423C80.9592 16.8304 80.2218 17.0414 79.7304 17.4635C79.2387 17.8704 78.993 18.594 78.993 19.634V25.49H75.053V12.8736H78.993V14.9764ZM86.8899 11.5622C86.1987 11.5622 85.6304 11.3663 85.1848 10.9744C84.7549 10.5674 84.5397 10.07 84.5397 9.48213C84.5397 8.87919 84.7549 8.38177 85.1848 7.98986C85.6304 7.58288 86.1987 7.37939 86.8899 7.37939C87.5659 7.37939 88.1189 7.58288 88.5488 7.98986C88.9944 8.38177 89.217 8.87919 89.217 9.48213C89.217 10.07 88.9944 10.5674 88.5488 10.9744C88.1189 11.3663 87.5659 11.5622 86.8899 11.5622ZM88.8484 12.8736V25.49H84.9084V12.8736H88.8484ZM99.5377 12.738C101.043 12.738 102.241 13.2203 103.132 14.185C104.038 15.1346 104.491 16.446 104.491 18.1191V25.49H100.575V18.6392C100.575 17.7951 100.352 17.1394 99.9063 16.6721C99.4609 16.2048 98.8619 15.9712 98.1091 15.9712C97.3564 15.9712 96.7573 16.2048 96.3119 16.6721C95.8665 17.1394 95.6437 17.7951 95.6437 18.6392V25.49H91.7037V12.8736H95.6437V14.5468C96.0431 13.989 96.5808 13.5519 97.2566 13.2354C97.9324 12.9038 98.6928 12.738 99.5377 12.738ZM112.114 12.6927C113.02 12.6927 113.812 12.8736 114.487 13.2354C115.179 13.5971 115.709 14.072 116.077 14.6598V12.8736H120.017V25.4674C120.017 26.628 119.779 27.6757 119.303 28.6102C118.842 29.5598 118.128 30.3134 117.16 30.8712C116.208 31.429 115.017 31.7078 113.589 31.7078C111.684 31.7078 110.14 31.263 108.957 30.3738C107.775 29.4995 107.099 28.3088 106.93 26.8014H110.824C110.947 27.2837 111.239 27.6606 111.699 27.9319C112.16 28.2183 112.729 28.3615 113.404 28.3615C114.218 28.3615 114.864 28.1279 115.34 27.6606C115.831 27.2084 116.077 26.4774 116.077 25.4674V23.6812C115.693 24.2691 115.163 24.7514 114.487 25.1283C113.812 25.49 113.02 25.6709 112.114 25.6709C111.054 25.6709 110.094 25.407 109.234 24.8795C108.374 24.3369 107.69 23.5756 107.183 22.5959C106.692 21.6011 106.446 20.4555 106.446 19.1592C106.446 17.863 106.692 16.7249 107.183 15.7451C107.69 14.7653 108.374 14.0117 109.234 13.4841C110.094 12.9565 111.054 12.6927 112.114 12.6927ZM116.077 19.1818C116.077 18.2171 115.801 17.4559 115.248 16.8982C114.71 16.3405 114.05 16.0616 113.266 16.0616C112.483 16.0616 111.815 16.3405 111.262 16.8982C110.724 17.4408 110.455 18.1945 110.455 19.1592C110.455 20.124 110.724 20.8927 111.262 21.4654C111.815 22.0232 112.483 22.302 113.266 22.302C114.05 22.302 114.71 22.0232 115.248 21.4654C115.801 20.9077 116.077 20.1466 116.077 19.1818ZM146.068 9.61779V25.49H142.128V15.9712L138.51 25.49H135.331L131.69 15.9486V25.49H127.75V9.61779H132.405L136.944 20.6062L141.437 9.61779H146.068ZM154.754 25.6709C153.494 25.6709 152.357 25.407 151.344 24.8795C150.345 24.352 149.554 23.5982 148.97 22.6185C148.402 21.6388 148.118 20.4932 148.118 19.1818C148.118 17.8856 148.41 16.7475 148.993 15.7677C149.577 14.7729 150.376 14.0117 151.39 13.4841C152.404 12.9565 153.54 12.6927 154.8 12.6927C156.059 12.6927 157.196 12.9565 158.21 13.4841C159.224 14.0117 160.022 14.7729 160.606 15.7677C161.19 16.7475 161.482 17.8856 161.482 19.1818C161.482 20.4781 161.182 21.6237 160.583 22.6185C159.999 23.5982 159.193 24.352 158.164 24.8795C157.15 25.407 156.013 25.6709 154.754 25.6709ZM154.754 22.3246C155.506 22.3246 156.144 22.0533 156.666 21.5106C157.204 20.968 157.473 20.1918 157.473 19.1818C157.473 18.1718 157.211 17.3956 156.689 16.853C156.182 16.3103 155.553 16.039 154.8 16.039C154.032 16.039 153.394 16.3103 152.887 16.853C152.38 17.3805 152.127 18.1569 152.127 19.1818C152.127 20.1918 152.373 20.968 152.864 21.5106C153.371 22.0533 154.001 22.3246 154.754 22.3246ZM171.406 12.738C172.911 12.738 174.11 13.2203 175.001 14.185C175.907 15.1346 176.359 16.446 176.359 18.1191V25.49H172.443V18.6392C172.443 17.7951 172.22 17.1394 171.775 16.6721C171.329 16.2048 170.73 15.9712 169.977 15.9712C169.225 15.9712 168.626 16.2048 168.18 16.6721C167.735 17.1394 167.512 17.7951 167.512 18.6392V25.49H163.572V12.8736H167.512V14.5468C167.911 13.989 168.449 13.5519 169.125 13.2354C169.801 12.9038 170.561 12.738 171.406 12.738ZM191.218 18.9783C191.218 19.3401 191.194 19.717 191.148 20.1088H182.232C182.292 20.8927 182.545 21.4955 182.992 21.9176C183.453 22.3246 184.013 22.5281 184.673 22.5281C185.657 22.5281 186.341 22.1211 186.724 21.3072H190.918C190.703 22.1362 190.312 22.8824 189.742 23.5455C189.189 24.2087 188.491 24.7288 187.646 25.1056C186.802 25.4825 185.856 25.6709 184.811 25.6709C183.552 25.6709 182.431 25.407 181.447 24.8795C180.465 24.352 179.697 23.5982 179.143 22.6185C178.59 21.6388 178.315 20.4932 178.315 19.1818C178.315 17.8704 178.583 16.7249 179.12 15.7451C179.673 14.7653 180.442 14.0117 181.424 13.4841C182.408 12.9565 183.536 12.6927 184.811 12.6927C186.055 12.6927 187.162 12.949 188.129 13.4615C189.097 13.974 189.851 14.705 190.388 15.6547C190.941 16.6043 191.218 17.7122 191.218 18.9783ZM187.185 17.9609C187.185 17.2977 186.954 16.7701 186.493 16.3782C186.033 15.9863 185.458 15.7903 184.766 15.7903C184.105 15.7903 183.545 15.9787 183.084 16.3556C182.639 16.7324 182.362 17.2675 182.254 17.9609H187.185ZM206.428 12.8736L198.364 31.4817H194.125L197.075 25.0604L191.845 12.8736H196.245L199.218 20.7645L202.167 12.8736H206.428Z" fill="#272B2A"/>
</g>
</g>
</g>
<defs>
<filter id="filter0_d_0_1" x="-67.5" y="-27.5" width="1296" height="90" filterUnits="userSpaceOnUse" color-interpolation-filters="sRGB">
<feFlood flood-opacity="0" result="BackgroundImageFix"/>
<feColorMatrix in="SourceAlpha" type="matrix" values="0 0 0 0 0 0 0 0 0 0 0 0 0 0 0 0 0 0 127 0" result="hardAlpha"/>
<feOffset/>
<feGaussianBlur stdDeviation="4"/>
<feComposite in2="hardAlpha" operator="out"/>
<feColorMatrix type="matrix" values="0 0 0 0 0 0 0 0 0 0 0 0 0 0 0 0 0 0 0.12 0"/>
<feBlend mode="normal" in2="BackgroundImageFix" result="effect1_dropShadow_0_1"/>
<feBlend mode="normal" in="SourceGraphic" in2="effect1_dropShadow_0_1" result="shape"/>
</filter>
<clipPath id="clip0_0_1">
<rect width="205.983" height="34" fill="white" transform="translate(0.5 0.5)"/>
</clipPath>
</defs>
</svg>
