<svg width="284" height="48" viewBox="0 0 284 48" fill="none" xmlns="http://www.w3.org/2000/svg">
<g clip-path="url(#clip0_283_6537)">
<path fill-rule="evenodd" clip-rule="evenodd" d="M7.16568 0H40.6055C44.563 0 47.7712 3.22355 47.7712 7.2V40.8C47.7712 44.7764 44.563 48 40.6055 48H7.16568C3.20819 48 0 44.7764 0 40.8V7.2C0 3.22355 3.20819 0 7.16568 0ZM16.5391 9.44965H14.0919C14.0919 11.8549 15.0506 14.0337 16.6014 15.6105C18.1522 17.1873 20.2951 18.162 22.6607 18.162V23.6133H18.225C18.0974 23.6133 17.9831 23.6646 17.9 23.7491C17.8169 23.8336 17.7649 23.9513 17.7649 24.0795V25.8209C17.7649 25.9491 17.8169 26.0652 17.9 26.1497C17.9831 26.2342 18.0974 26.287 18.225 26.287H21.4869C22.0092 26.287 22.4708 26.3835 22.8626 26.5647C23.2543 26.7456 23.5764 27.0113 23.8197 27.3464H18.225C18.0974 27.3464 17.9831 27.3992 17.9 27.4836C17.8169 27.5681 17.7649 27.6843 17.7649 27.8141V29.3698C17.7649 29.498 17.8169 29.6158 17.9 29.7003C17.9831 29.7848 18.0974 29.8359 18.225 29.8359H24.2976C24.1789 30.5376 23.8643 31.1079 23.379 31.5034C22.8938 31.8972 22.2378 32.1173 21.4379 32.1173H18.225C18.0974 32.1173 17.9831 32.1687 17.9 32.2532C17.8169 32.3376 17.7649 32.4555 17.7649 32.5836V34.6464C17.7649 34.7112 17.7783 34.7746 17.8035 34.8334C17.8288 34.8922 17.8659 34.9452 17.9133 34.9889L24.2278 40.9157C24.2694 40.9551 24.3184 40.9868 24.3719 41.0065C24.4254 41.0276 24.4817 41.0396 24.5395 41.0396H27.6975C27.9067 41.0396 28.061 40.9083 28.125 40.7422C28.1888 40.5764 28.162 40.3726 28.0092 40.2293L22.2363 34.8123C23.6996 34.7655 24.9535 34.2464 25.8767 33.3773C26.7996 32.5068 27.3903 31.286 27.5284 29.8359H29.5481C29.6757 29.8359 29.7901 29.7848 29.8732 29.7003C29.9563 29.6158 30.0082 29.498 30.0082 29.3698V27.8141C30.0082 27.6843 29.9563 27.5681 29.8732 27.4836C29.7901 27.3992 29.6757 27.3464 29.5481 27.3464H27.3029C27.236 27.1229 27.1574 26.9057 27.0669 26.6991C26.9749 26.4908 26.8725 26.2916 26.7583 26.1029H29.5481C29.6757 26.1029 29.7901 26.0501 29.8732 25.9656C29.9563 25.8812 30.0082 25.765 30.0082 25.6352V24.0795C30.0082 23.9513 29.9563 23.8336 29.8732 23.7491C29.7901 23.6646 29.6757 23.6133 29.5481 23.6133H25.1094V18.162C25.1094 15.7568 24.1506 13.578 22.5999 12.0012C21.049 10.4244 18.9061 9.44965 16.5391 9.44965ZM31.2311 6.95996C29.6192 6.95996 28.1145 7.41263 26.8277 8.19877C25.5427 8.98491 24.4757 10.1045 23.7441 11.4414C24.2739 12.0284 24.7339 12.6787 25.1154 13.3803C25.4952 14.0819 25.7935 14.8349 26.0013 15.6271C28.156 15.3992 30.0764 14.3596 31.4565 12.813C32.8366 11.2679 33.6781 9.21426 33.6781 6.95996H31.2311Z" fill="#FCFFFE"/>
<path d="M69.8509 35.3913C68.2202 35.3913 66.7589 35.1254 65.4669 34.5933C64.1749 34.0612 63.1374 33.274 62.3537 32.2313C61.5912 31.1885 61.1888 29.933 61.1465 28.4647H66.9282C67.013 29.2946 67.2989 29.933 67.786 30.3799C68.273 30.8054 68.9084 31.0183 69.692 31.0183C70.4967 31.0183 71.1321 30.8373 71.5981 30.4756C72.0641 30.0926 72.297 29.5713 72.297 28.9116C72.297 28.3584 72.1064 27.9007 71.7252 27.539C71.3652 27.1773 70.9097 26.8793 70.3592 26.6453C69.8296 26.4113 69.0672 26.1451 68.0719 25.8473C66.6318 25.4004 65.4564 24.9535 64.5456 24.5066C63.6349 24.0597 62.8514 23.4 62.1948 22.5276C61.5382 21.6551 61.21 20.5166 61.21 19.1121C61.21 17.0267 61.9619 15.3988 63.4655 14.2284C64.9691 13.0367 66.9282 12.4409 69.3426 12.4409C71.7992 12.4409 73.7796 13.0367 75.2832 14.2284C76.7868 15.3988 77.5917 17.0373 77.6975 19.1441H71.8205C71.7782 18.4205 71.5133 17.8566 71.0263 17.4523C70.5393 17.0267 69.9144 16.8139 69.152 16.8139C68.4954 16.8139 67.9661 16.9948 67.5636 17.3565C67.1611 17.697 66.96 18.1971 66.96 18.8568C66.96 19.5803 67.2989 20.1442 67.9766 20.5485C68.6542 20.9529 69.7133 21.3891 71.1534 21.8573C72.5934 22.3467 73.7583 22.8149 74.6478 23.2617C75.5586 23.7086 76.342 24.3576 76.9986 25.2089C77.6553 26.0601 77.9834 27.156 77.9834 28.4966C77.9834 29.7734 77.6553 30.9331 76.9986 31.9759C76.3633 33.0187 75.4315 33.8486 74.2031 34.4657C72.9746 35.0827 71.5241 35.3913 69.8509 35.3913ZM86.7588 19.8782C87.2883 19.0483 88.019 18.378 88.9508 17.8673C89.8828 17.3565 90.9734 17.1012 92.2229 17.1012C93.6842 17.1012 95.0079 17.4736 96.1938 18.2184C97.38 18.9632 98.3118 20.0272 98.9894 21.4104C99.6883 22.7936 100.038 24.4003 100.038 26.2303C100.038 28.0603 99.6883 29.6776 98.9894 31.0821C98.3118 32.4652 97.38 33.54 96.1938 34.306C95.0079 35.0508 93.6842 35.4232 92.2229 35.4232C90.9947 35.4232 89.9038 35.1679 88.9508 34.6572C88.019 34.1464 87.2883 33.4867 86.7588 32.6781V43.6586H81.3265V17.3565H86.7588V19.8782ZM94.5101 26.2303C94.5101 24.8683 94.1289 23.8044 93.3665 23.0383C92.6253 22.2509 91.7041 21.8573 90.6027 21.8573C89.5226 21.8573 88.6013 22.2509 87.8389 23.0383C87.0977 23.8257 86.727 24.9002 86.727 26.2622C86.727 27.6242 87.0977 28.6987 87.8389 29.4861C88.6013 30.2736 89.5226 30.6672 90.6027 30.6672C91.6828 30.6672 92.6041 30.2736 93.3665 29.4861C94.1289 28.6776 94.5101 27.5923 94.5101 26.2303ZM108.32 20.3251C108.955 19.3462 109.75 18.5801 110.703 18.0269C111.656 17.4523 112.715 17.165 113.879 17.165V22.9425H112.386C111.031 22.9425 110.014 23.2404 109.337 23.8363C108.659 24.4109 108.32 25.4323 108.32 26.9006V35.1679H102.888V17.3565H108.32V20.3251ZM119.208 15.5052C118.255 15.5052 117.471 15.2285 116.857 14.6753C116.264 14.1007 115.968 13.3985 115.968 12.5685C115.968 11.7173 116.264 11.0151 116.857 10.4618C117.471 9.88726 118.255 9.59998 119.208 9.59998C120.14 9.59998 120.902 9.88726 121.495 10.4618C122.109 11.0151 122.416 11.7173 122.416 12.5685C122.416 13.3985 122.109 14.1007 121.495 14.6753C120.902 15.2285 120.14 15.5052 119.208 15.5052ZM121.908 17.3565V35.1679H116.476V17.3565H121.908ZM136.646 17.165C138.721 17.165 140.373 17.846 141.602 19.2079C142.851 20.5485 143.476 22.3999 143.476 24.762V35.1679H138.076V25.4961C138.076 24.3045 137.768 23.3788 137.154 22.7191C136.54 22.0594 135.714 21.7296 134.676 21.7296C133.639 21.7296 132.813 22.0594 132.199 22.7191C131.584 23.3788 131.277 24.3045 131.277 25.4961V35.1679H125.845V17.3565H131.277V19.7186C131.828 18.9312 132.569 18.3141 133.501 17.8673C134.433 17.3991 135.481 17.165 136.646 17.165ZM153.986 17.1012C155.235 17.1012 156.326 17.3565 157.258 17.8673C158.211 18.378 158.942 19.0483 159.45 19.8782V17.3565H164.882V35.136C164.882 36.7744 164.554 38.2536 163.897 39.5728C163.262 40.9135 162.277 41.9774 160.943 42.7648C159.63 43.5523 157.989 43.9459 156.019 43.9459C153.393 43.9459 151.264 43.318 149.634 42.0626C148.003 40.8283 147.071 39.1473 146.838 37.0192H152.207C152.376 37.7001 152.779 38.2322 153.414 38.6152C154.049 39.0196 154.833 39.2217 155.765 39.2217C156.887 39.2217 157.777 38.892 158.433 38.2322C159.111 37.5938 159.45 36.5618 159.45 35.136V32.6143C158.92 33.4442 158.19 34.1251 157.258 34.6572C156.326 35.1679 155.235 35.4232 153.986 35.4232C152.524 35.4232 151.201 35.0508 150.015 34.306C148.829 33.54 147.886 32.4652 147.187 31.0821C146.51 29.6776 146.171 28.0603 146.171 26.2303C146.171 24.4003 146.51 22.7936 147.187 21.4104C147.886 20.0272 148.829 18.9632 150.015 18.2184C151.201 17.4736 152.524 17.1012 153.986 17.1012ZM159.45 26.2622C159.45 24.9002 159.069 23.8257 158.306 23.0383C157.565 22.2509 156.654 21.8573 155.574 21.8573C154.494 21.8573 153.573 22.2509 152.81 23.0383C152.069 23.8044 151.699 24.8683 151.699 26.2303C151.699 27.5923 152.069 28.6776 152.81 29.4861C153.573 30.2736 154.494 30.6672 155.574 30.6672C156.654 30.6672 157.565 30.2736 158.306 29.4861C159.069 28.6987 159.45 27.6242 159.45 26.2622ZM200.8 12.7601V35.1679H195.367V21.7296L190.38 35.1679H185.996L180.977 21.6977V35.1679H175.544V12.7601H181.961L188.22 28.2732L194.414 12.7601H200.8ZM212.775 35.4232C211.038 35.4232 209.471 35.0508 208.074 34.306C206.697 33.5613 205.606 32.4972 204.801 31.114C204.018 29.7309 203.626 28.1136 203.626 26.2622C203.626 24.4322 204.029 22.8255 204.833 21.4423C205.638 20.0378 206.739 18.9632 208.137 18.2184C209.535 17.4736 211.102 17.1012 212.839 17.1012C214.575 17.1012 216.143 17.4736 217.54 18.2184C218.938 18.9632 220.04 20.0378 220.844 21.4423C221.649 22.8255 222.051 24.4322 222.051 26.2622C222.051 28.0922 221.638 29.7096 220.812 31.114C220.008 32.4972 218.896 33.5613 217.477 34.306C216.079 35.0508 214.512 35.4232 212.775 35.4232ZM212.775 30.6991C213.813 30.6991 214.692 30.316 215.412 29.55C216.153 28.7839 216.524 27.688 216.524 26.2622C216.524 24.8364 216.164 23.7405 215.444 22.9745C214.745 22.2084 213.877 21.8253 212.839 21.8253C211.78 21.8253 210.901 22.2084 210.202 22.9745C209.503 23.7192 209.154 24.8152 209.154 26.2622C209.154 27.688 209.493 28.7839 210.17 29.55C210.869 30.316 211.737 30.6991 212.775 30.6991ZM235.735 17.165C237.81 17.165 239.463 17.846 240.691 19.2079C241.94 20.5485 242.563 22.3999 242.563 24.762V35.1679H237.164V25.4961C237.164 24.3045 236.857 23.3788 236.243 22.7191C235.628 22.0594 234.803 21.7296 233.765 21.7296C232.727 21.7296 231.901 22.0594 231.287 22.7191C230.673 23.3788 230.366 24.3045 230.366 25.4961V35.1679H224.933V17.3565H230.366V19.7186C230.916 18.9312 231.658 18.3141 232.59 17.8673C233.521 17.3991 234.57 17.165 235.735 17.165ZM263.05 25.9749C263.05 26.4857 263.017 27.0177 262.955 27.5709H250.661C250.744 28.6776 251.093 29.5286 251.709 30.1245C252.345 30.6991 253.116 30.9864 254.026 30.9864C255.383 30.9864 256.326 30.4118 256.854 29.2627H262.637C262.341 30.4332 261.801 31.4865 261.015 32.4228C260.253 33.359 259.291 34.0932 258.125 34.6252C256.962 35.1573 255.658 35.4232 254.217 35.4232C252.481 35.4232 250.935 35.0508 249.579 34.306C248.224 33.5613 247.166 32.4972 246.402 31.114C245.64 29.7309 245.26 28.1136 245.26 26.2622C245.26 24.4108 245.63 22.7936 246.371 21.4104C247.133 20.0272 248.193 18.9632 249.548 18.2184C250.904 17.4736 252.459 17.1012 254.217 17.1012C255.932 17.1012 257.459 17.4629 258.791 18.1865C260.127 18.91 261.166 19.9421 261.906 21.2827C262.668 22.6233 263.05 24.1874 263.05 25.9749ZM257.49 24.5385C257.49 23.6022 257.172 22.8574 256.537 22.3041C255.901 21.7509 255.108 21.4742 254.155 21.4742C253.243 21.4742 252.471 21.7402 251.836 22.2722C251.222 22.8042 250.84 23.5596 250.692 24.5385H257.49ZM284.022 17.3565L272.903 43.6267H267.058L271.126 34.5614L263.915 17.3565H269.982L274.081 28.4966L278.146 17.3565H284.022Z" fill="#FCFFFE"/>
</g>
<defs>
<clipPath id="clip0_283_6537">
<rect width="284" height="48" fill="white"/>
</clipPath>
</defs>
</svg>
