<svg xmlns="http://www.w3.org/2000/svg" width="64" height="64" viewBox="0 0 64 64" fill="none">
  <g clip-path="url(#clip0_496_6601)">
    <g opacity="0.2">
      <path d="M31.2497 29.8049C30.9709 29.1877 30.95 28.5691 30.95 27.9362L30.926 25.9963C30.908 24.9899 30.9095 23.9665 30.911 22.9773V22.122C30.923 19.8029 30.959 17.4439 30.9949 15.1633L31.0069 14.3636C31.0229 13.4514 31.0389 12.5387 31.0549 11.6255C31.0819 9.97914 31.1103 8.27723 31.1508 6.60382L31.2452 2.72391C31.2602 2.28489 31.2737 1.84492 31.2857 1.404C31.2992 0.976378 31.3127 0.548761 31.3262 0.109741C31.3397 0.544485 31.3531 0.977804 31.3666 1.404C31.3801 1.83019 31.3921 2.28489 31.4071 2.72533L31.5015 6.60382C31.542 8.27723 31.5705 9.97915 31.5975 11.624C31.6134 12.5372 31.6294 13.4504 31.6454 14.3636L31.6574 15.1647C31.6934 17.4453 31.7293 19.8029 31.7413 22.1235V22.9858C31.7413 23.9751 31.7413 24.9971 31.7263 26.0005L31.7009 27.9376C31.7009 28.5705 31.6784 29.1891 31.4011 29.8063L31.2497 29.8049Z" fill="#108E66"/>
      <path d="M31.2399 29.8192C30.8532 29.2561 30.7169 28.6503 30.6014 28.0289L30.2237 26.1203C30.0214 25.1296 29.8355 24.1247 29.6557 23.1412L29.5058 22.3031C29.0951 20.0225 28.7009 17.6962 28.3187 15.447L28.1823 14.6459C28.0335 13.746 27.8836 12.8461 27.7327 11.9462C27.4524 10.3198 27.1691 8.63786 26.9038 6.98441L26.2893 3.14726C26.2234 2.71394 26.1564 2.28062 26.0885 1.8473C26.0225 1.41969 25.9566 0.99207 25.8906 0.564453C25.9836 0.984943 26.0735 1.40401 26.1634 1.81737L26.4467 3.12588L27.2501 6.93025C27.5933 8.56232 27.929 10.2243 28.2558 11.8322C28.4386 12.7378 28.6225 13.6405 28.8073 14.5404L28.9692 15.3415C29.4189 17.5765 29.8835 19.8885 30.3182 22.1662L30.468 23.0044C30.6509 23.9808 30.8398 24.9914 31.0061 25.9877L31.3374 27.9034C31.4528 28.5263 31.5427 29.1392 31.3823 29.7935L31.2399 29.8192Z" fill="#108E66"/>
      <path d="M31.2283 29.8348C30.7442 29.3445 30.4999 28.7701 30.2721 28.1757L29.5526 26.3597C29.1719 25.4161 28.8032 24.4511 28.448 23.5175L28.1482 22.7193C27.3269 20.5413 26.5145 18.3177 25.7276 16.1625L25.4473 15.3928C25.1326 14.5233 24.8168 13.6538 24.5001 12.7843C23.9365 11.2363 23.3535 9.63419 22.7914 8.05486L21.4859 4.37878L21.0498 3.12301L20.6211 1.89575C20.789 2.29629 20.9568 2.6954 21.1202 3.0888C21.2836 3.48221 21.4634 3.9141 21.6373 4.32604L23.1226 7.94083C23.7596 9.49736 24.3966 11.0767 25.0142 12.6161C25.3579 13.4713 25.7026 14.3266 26.0484 15.1818L26.3481 15.9244C27.2025 18.0625 28.0853 20.2647 28.9306 22.4413L29.2409 23.2495C29.5976 24.1789 29.9678 25.1396 30.3125 26.0903L30.9795 27.9376C31.2073 28.532 31.4082 29.1207 31.3692 29.7906L31.2283 29.8348Z" fill="#108E66"/>
      <path d="M31.2207 29.8505C30.6557 29.4486 30.3094 28.9226 29.9782 28.3752L28.929 26.7061C28.3834 25.8423 27.8469 24.9543 27.3268 24.0962L26.8771 23.3536C25.6676 21.3381 24.458 19.2756 23.2874 17.2814L22.8812 16.5887C22.4166 15.7905 21.9505 14.9927 21.4828 14.1955C20.642 12.7572 19.7712 11.2691 18.9258 9.80099L16.9759 6.39574C16.757 6.00708 16.5372 5.6189 16.3164 5.23119L15.6719 4.09088L16.3823 5.18558C16.6251 5.56568 16.8694 5.94246 17.1152 6.31591L19.2376 9.63137C20.1504 11.0568 21.0677 12.5164 21.9565 13.9261C22.4561 14.711 22.9512 15.4964 23.4418 16.2822L23.872 16.9679C25.101 18.9263 26.3735 20.9589 27.604 22.9545L28.0537 23.6943C28.5753 24.5495 29.1164 25.4389 29.6305 26.3213L30.6302 28.0132C30.9629 28.5605 31.2687 29.1079 31.3526 29.775L31.2207 29.8505Z" fill="#108E66"/>
      <path d="M31.22 29.8676C30.5905 29.5654 30.1543 29.105 29.7212 28.6204L28.3902 27.148C27.6962 26.3882 27.0053 25.6028 26.3368 24.8431L25.7583 24.186C24.2055 22.4085 22.6452 20.5883 21.1374 18.8265L20.5858 18.1837C19.9803 17.471 19.3727 16.7583 18.7632 16.0456C17.6751 14.7713 16.5494 13.4542 15.4523 12.15L12.9088 9.12248L12.0365 8.0734L11.2031 7.07562L12.1024 8.03919L13.0287 9.03696L15.7266 11.9505C16.8867 13.2048 18.0558 14.4877 19.1874 15.7292C19.8179 16.4219 20.4494 17.1142 21.0819 17.806L21.6455 18.426C23.2087 20.1464 24.826 21.9268 26.3998 23.6914L26.9753 24.3428C27.6468 25.1025 28.3422 25.8879 29.0092 26.6719L30.3027 28.1728C30.7314 28.6575 31.1316 29.1464 31.3354 29.7892L31.22 29.8676Z" fill="#108E66"/>
      <path d="M31.2183 29.8862C30.5423 29.6909 30.0282 29.316 29.5201 28.9041L27.9418 27.6739C27.119 27.0396 26.2931 26.3811 25.4988 25.744L24.8078 25.1909C22.9447 23.69 21.0607 22.1463 19.2501 20.6539L18.6191 20.1336C17.8937 19.534 17.1673 18.9349 16.4398 18.3362C15.1328 17.2601 13.7824 16.1454 12.4604 15.0421L9.39683 12.4764L8.34765 11.5941L7.33594 10.7389C7.69116 11.0054 8.04488 11.2706 8.38512 11.5328L9.48676 12.3596L12.6733 14.7827C14.0432 15.8261 15.4296 16.8966 16.7696 17.9314L19.0343 19.6704L19.6893 20.1778C21.5478 21.6175 23.4693 23.107 25.3459 24.588L26.0413 25.1425C26.8372 25.7768 27.6616 26.4324 28.4604 27.091L30.0072 28.3567C30.5183 28.7629 31.001 29.1777 31.3202 29.7821L31.2183 29.8862Z" fill="#108E66"/>
      <path d="M31.2222 29.9032C30.5223 29.8234 29.9467 29.5326 29.3712 29.2162L27.5921 28.2655C26.6658 27.778 25.7335 27.2677 24.8327 26.7674L24.0518 26.3398C21.9415 25.1681 19.8087 23.9565 17.7463 22.7863L17.0343 22.3786L14.5643 20.9703C13.0789 20.1265 11.5411 19.2527 10.0423 18.3875L6.55452 16.3634L5.37644 15.6793L4.21484 14.9979L5.41391 15.6123L6.63695 16.2394L10.2162 18.0996C11.7584 18.9021 13.3202 19.7288 14.831 20.5227C15.6724 20.9675 16.5137 21.4117 17.3551 21.8555L18.1135 22.2589C20.1999 23.3664 22.3582 24.511 24.4685 25.657L25.2434 26.0846C26.1427 26.5792 27.084 27.0909 27.9923 27.6098L29.7474 28.6076C30.3244 28.924 30.876 29.2518 31.3002 29.7906L31.2222 29.9032Z" fill="#108E66"/>
      <path d="M31.054 29.9246C30.4155 29.9246 29.8549 29.7465 29.2809 29.5497L27.3549 28.9069C26.3537 28.5791 25.3419 28.227 24.3647 27.8877L23.5179 27.5927C21.2247 26.7873 18.9015 25.9464 16.6547 25.1339L15.8828 24.8488L13.1849 23.8667C11.5692 23.2809 9.89951 22.6737 8.26278 22.0665L4.46175 20.6539L3.16077 20.1621L1.90625 19.6889L3.19524 20.098L4.52021 20.5156L8.38569 21.7571C10.0464 22.2917 11.7311 22.8461 13.3603 23.3821C14.2746 23.6824 15.1884 23.9822 16.1017 24.2815L16.9065 24.5481C19.1698 25.2964 21.5094 26.0689 23.8011 26.8501L24.651 27.1437C25.6297 27.4815 26.6414 27.8293 27.6292 28.1899L29.5372 28.8755C30.1637 29.0908 30.7677 29.3231 31.2818 29.7835L31.2308 29.9189L31.054 29.9246Z" fill="#108E66"/>
      <path d="M30.4523 30.0173C30.0496 30.0084 29.6485 29.9669 29.2532 29.8932L27.2388 29.5782C26.1971 29.42 25.1404 29.2418 24.1182 29.0694L23.2189 28.9183C20.8208 28.5035 18.3852 28.063 16.032 27.6354L15.2002 27.4843L12.3524 26.9612C10.6587 26.6505 8.90512 26.3283 7.18596 26.0019L3.18408 25.2394C2.73444 25.1481 2.2743 25.0598 1.82015 24.9714L0.492188 24.7091L1.82615 24.8958L3.21556 25.0868L7.24891 25.6712C8.98605 25.9235 10.7502 26.1915 12.4543 26.4509C13.4066 26.5963 14.3584 26.7389 15.3096 26.8785L16.134 27.0054C18.5051 27.3689 20.9557 27.7452 23.3613 28.1357L24.2516 28.2854C25.2768 28.455 26.3365 28.6318 27.3752 28.8228L29.3761 29.1863C30.0311 29.296 30.6681 29.4257 31.2602 29.7935L31.2332 29.936C30.977 29.9915 30.715 30.0188 30.4523 30.0173Z" fill="#108E66"/>
      <path d="M23.1654 30.271C20.7223 30.2596 18.2387 30.2254 15.8361 30.1926L15.0072 30.1812C14.043 30.1641 13.0797 30.1489 12.1175 30.1356C10.3908 30.1085 8.60423 30.0814 6.84761 30.0429L2.76779 29.9531C2.30316 29.9389 1.83852 29.9274 1.37238 29.9146L0.0234375 29.8761L1.37238 29.8391L2.76779 29.8006L6.84761 29.7094C8.60423 29.6709 10.3908 29.6438 12.1175 29.6181C13.0817 29.6039 14.045 29.5887 15.0072 29.5725L15.8661 29.5611C18.2642 29.5283 20.7328 29.4941 23.1654 29.4827H24.9385C25.6174 29.4827 26.4208 29.4827 27.2437 29.4984L29.2836 29.5212C29.9536 29.5212 30.601 29.544 31.25 29.8063V29.9488C30.601 30.2125 29.9521 30.2339 29.2881 30.2339L27.2437 30.2553C26.4223 30.2695 25.6189 30.271 24.943 30.271H23.1654Z" fill="#108E66"/>
      <path d="M0.496094 35.0461L1.81356 34.7881L3.18799 34.5172L7.19436 33.7547C8.91801 33.4268 10.6731 33.1047 12.3698 32.7939C13.3161 32.62 14.2608 32.4461 15.2041 32.2722L16.036 32.1212C18.3891 31.6935 20.8247 31.2488 23.2228 30.8383L24.1131 30.6886C25.1383 30.5147 26.1965 30.3366 27.2412 30.1783L29.2541 29.8633C29.6494 29.7893 30.0505 29.7473 30.4532 29.7379C30.7175 29.7365 30.981 29.7642 31.2386 29.8206L31.2656 29.9631C30.6735 30.3294 30.0365 30.4592 29.3815 30.5689L27.3761 30.931C26.3359 31.1234 25.2777 31.3001 24.248 31.4712L23.3622 31.6137C20.9521 32.0071 18.4955 32.3834 16.1214 32.754L15.3105 32.878L12.4627 33.3057C10.7556 33.5665 8.98846 33.8345 7.24832 34.0882L3.21497 34.6726C2.75483 34.7353 2.29319 34.7995 1.83305 34.865L0.496094 35.0461Z" fill="#108E66"/>
      <path d="M1.90625 40.0534L3.16227 39.5788C3.59693 39.4148 4.03009 39.2523 4.46325 39.087L8.26428 37.6759C9.904 37.0672 11.5767 36.46 13.1939 35.8713L15.8873 34.8992L16.6457 34.6241C18.894 33.8102 21.2247 32.9678 23.5224 32.1596L24.3662 31.8674C25.3449 31.5267 26.3566 31.1747 27.3639 30.8468L29.2899 30.204C29.8609 30.0058 30.4245 29.8291 31.063 29.8291H31.2398L31.2908 29.9645C30.7767 30.4235 30.1727 30.6558 29.5477 30.8725L27.6381 31.5581C26.6504 31.9173 25.6387 32.2708 24.6615 32.6029L23.8101 32.8965C21.5214 33.6777 19.1862 34.4488 16.9275 35.1957L16.1107 35.4651L13.3708 36.3659C11.7416 36.9019 10.0554 37.4564 8.39468 37.9909L4.5277 39.2324L3.19524 39.66L1.90625 40.0534Z" fill="#108E66"/>
      <path d="M4.21094 44.7572L5.36803 44.0788L6.55211 43.3832L10.0399 41.3705C11.5387 40.5025 13.0735 39.6301 14.5544 38.7863C15.3817 38.3112 16.2086 37.8398 17.0349 37.3723L17.7663 36.9575C19.8227 35.7901 21.9496 34.5828 24.0524 33.4154L24.8363 32.9878C25.7356 32.4918 26.6664 31.9801 27.5912 31.4911L29.3748 30.5361C29.9518 30.2197 30.5274 29.9303 31.2273 29.8505L31.3038 29.9745C30.8796 30.5119 30.328 30.8412 29.7525 31.1562L27.9974 32.1468C27.0981 32.6642 26.1598 33.1731 25.2605 33.6663L24.4721 34.0939C22.3737 35.2342 20.2199 36.3745 18.1411 37.4792L17.3587 37.8954C16.5133 38.3401 15.669 38.7863 14.8256 39.2339C13.3178 40.0307 11.759 40.8545 10.2197 41.657L6.63155 43.5214L5.40401 44.1515L4.21094 44.7572Z" fill="#108E66"/>
      <path d="M7.34375 49.0135L8.35096 48.1582C8.70069 47.8627 9.05042 47.5672 9.40014 47.2716L12.4638 44.7059C13.7872 43.5998 15.1407 42.4852 16.4491 41.4076L18.6194 39.6258L19.2519 39.1056C21.0685 37.6132 22.9466 36.0709 24.8081 34.57L25.4916 34.0226C26.2904 33.3841 27.1163 32.7227 27.9407 32.0869L29.5264 30.8497C30.0375 30.4435 30.5501 30.0615 31.2261 29.8676L31.3235 29.9774C31.0043 30.5775 30.5216 30.9922 30.012 31.4028L28.4638 32.6671C27.6649 33.327 26.8405 33.9827 26.0431 34.617L25.3477 35.1715C23.4697 36.6553 21.5437 38.1477 19.6821 39.5902L19.0376 40.0891C18.2882 40.6649 17.5388 41.2418 16.7894 41.8195C15.4479 42.8558 14.0615 43.9277 12.6901 44.9711L9.50356 47.3942L8.39293 48.2238L7.34375 49.0135Z" fill="#108E66"/>
      <path d="M11.2031 52.6838C11.4834 52.3445 11.7637 52.0096 12.038 51.6789L12.9088 50.6312L15.4568 47.6009C16.5554 46.298 17.6811 44.9796 18.7692 43.7038C19.3777 42.9921 19.9848 42.2794 20.5903 41.5658L21.1464 40.9186C22.6452 39.1597 24.2115 37.3395 25.7628 35.5649L26.3413 34.9063C27.0098 34.148 27.7007 33.3626 28.3947 32.6015L29.7242 31.1305C30.1528 30.6458 30.589 30.1854 31.223 29.8818L31.3384 29.9745C31.1346 30.6173 30.7389 31.1062 30.3072 31.5895L29.0137 33.0918C28.3452 33.8758 27.6498 34.6597 26.9783 35.4209L26.4028 36.0723C24.826 37.8398 23.2087 39.6258 21.6455 41.3363L21.0819 41.9563C20.4494 42.6462 19.8179 43.338 19.1874 44.0317C18.0558 45.2732 16.8867 46.5575 15.7266 47.8118L13.0287 50.7253L12.1069 51.7103C11.8116 52.0338 11.5089 52.3588 11.2031 52.6838Z" fill="#108E66"/>
      <path d="M15.6719 55.66L16.3149 54.5197C16.5367 54.131 16.757 53.7424 16.9759 53.3537L18.9333 49.9485C19.7787 48.4803 20.648 46.9922 21.4903 45.5554L22.8887 43.1593L23.2949 42.4652C24.4655 40.4696 25.6751 38.4114 26.8921 36.3944L27.3418 35.6547C27.8618 34.7994 28.3984 33.9071 28.944 33.0434L29.9932 31.3742C30.3244 30.8255 30.6707 30.3009 31.2357 29.8975L31.3676 29.9702C31.2837 30.6373 30.9779 31.1832 30.6452 31.732L29.6455 33.4239C29.1314 34.3048 28.5963 35.19 28.0702 36.0467L27.6205 36.7893C26.387 38.7977 25.113 40.8274 23.8735 42.7902L23.4418 43.4744C22.9422 44.2602 22.4466 45.0461 21.955 45.832C21.0677 47.2417 20.1564 48.6984 19.2376 50.1252L17.1152 53.435C16.8709 53.8084 16.6281 54.1847 16.3853 54.5596L15.6719 55.66Z" fill="#108E66"/>
      <path d="M20.6172 57.8537L21.0444 56.6279C21.1912 56.2088 21.3371 55.7898 21.482 55.3707L22.7875 51.6932C23.3511 50.1139 23.9341 48.5103 24.4977 46.9609C24.8144 46.0933 25.1297 45.2248 25.4434 44.3553L25.7267 43.5785C26.5121 41.4304 27.3244 39.2096 28.1443 37.0331L28.4441 36.232C28.7993 35.2998 29.1665 34.3348 29.5472 33.394L30.2666 31.5781C30.4945 30.9823 30.7388 30.4093 31.2229 29.9189L31.3638 29.9688C31.4028 30.6388 31.2019 31.2289 30.9756 31.8218L30.3056 33.6535C29.9609 34.6056 29.5907 35.5678 29.2325 36.5042L28.9267 37.3039C28.0799 39.4819 27.197 41.6898 26.3427 43.825L26.0429 44.5634C25.6962 45.4186 25.351 46.2739 25.0073 47.1291C24.3912 48.6628 23.7542 50.2479 23.1172 51.8044L21.6319 55.4192L21.1148 56.655C20.9529 57.0527 20.7866 57.4518 20.6172 57.8537Z" fill="#108E66"/>
      <path d="M25.8906 59.1964C25.9566 58.7688 26.0225 58.3327 26.0885 57.9136C26.1544 57.4945 26.2234 57.047 26.2893 56.6122L26.9038 52.7765C27.1706 51.1202 27.4524 49.4368 27.7267 47.8104C27.8786 46.9105 28.0285 46.0106 28.1763 45.1108L28.3127 44.3154C28.6934 42.0647 29.0891 39.7385 29.4998 37.4536L29.6497 36.6154C29.8295 35.639 30.0154 34.6199 30.2177 33.6378L30.5954 31.7306C30.7109 31.1063 30.8473 30.5005 31.234 29.9389L31.3838 29.9631C31.5442 30.6174 31.4543 31.2303 31.3389 31.8532L31.0076 33.7689C30.8413 34.7667 30.6524 35.7759 30.4695 36.7537L30.3197 37.5918C29.885 39.8724 29.4204 42.1844 28.9707 44.4223L28.8103 45.2162C28.6265 46.1218 28.4426 47.0274 28.2588 47.933C27.932 49.5409 27.5948 51.2014 27.2531 52.8349L26.4497 56.6393L26.1664 57.9478C26.081 58.3555 25.9836 58.7745 25.8906 59.1964Z" fill="#108E66"/>
      <path d="M31.3253 59.6497C31.3123 59.2135 31.2989 58.7821 31.2849 58.3555C31.2709 57.9288 31.2574 57.4883 31.2444 57.0341L31.15 53.1542C31.1095 51.4808 31.081 49.7803 31.054 48.134C31.0381 47.2217 31.0221 46.309 31.0061 45.3958L30.9941 44.5947C30.9581 42.3141 30.9221 39.9551 30.9102 37.636V36.7807C30.9102 35.7915 30.9102 34.7695 30.9251 33.7632L30.9491 31.8232C30.9491 31.1904 30.9716 30.5717 31.2489 29.9531H31.3988C31.6776 30.5717 31.6985 31.1904 31.6985 31.8218L31.7225 33.7632C31.7405 34.7681 31.739 35.7901 31.7375 36.7779V37.6303C31.7255 39.9494 31.6895 42.3084 31.6536 44.589L31.6416 45.3901C31.6256 46.3024 31.6096 47.2151 31.5936 48.1283C31.5666 49.7746 31.5382 51.4751 31.4977 53.1485L31.4033 57.0284C31.3883 57.4693 31.3748 57.9098 31.3628 58.3498C31.3508 58.7897 31.3383 59.223 31.3253 59.6497Z" fill="#108E66"/>
      <path d="M36.7606 59.1964C36.6676 58.7688 36.5777 58.3554 36.4878 57.9435L36.2045 56.635L35.4011 52.8306C35.0594 51.1971 34.7222 49.5365 34.3954 47.9287C34.2126 47.0231 34.0287 46.1175 33.8438 45.2119L33.6835 44.418C33.2338 42.1801 32.7677 39.8667 32.3345 37.5875L32.1846 36.7494C32.0018 35.7715 31.8129 34.7624 31.6466 33.7646L31.3153 31.8503C31.1999 31.226 31.11 30.6131 31.2704 29.9588L31.4202 29.9346C31.8069 30.4962 31.9433 31.102 32.0587 31.7249L32.4275 33.6392C32.6298 34.6298 32.8156 35.6418 32.9955 36.6182L33.1454 37.4578C33.5561 39.7384 33.9518 42.0675 34.3325 44.3182L34.4689 45.1136C34.6177 46.0125 34.7676 46.9124 34.9185 47.8132C35.1928 49.4396 35.4746 51.123 35.7414 52.7793L36.3559 56.6165C36.4218 57.0498 36.4888 57.4831 36.5567 57.9164C36.6287 58.3326 36.6946 58.7631 36.7606 59.1964Z" fill="#108E66"/>
      <path d="M42.0327 57.8537C41.8634 57.4517 41.697 57.0526 41.5336 56.6592L41.0165 55.422L39.5312 51.8086C38.8942 50.2521 38.2572 48.6727 37.6412 47.1333C37.2964 46.2781 36.9512 45.4229 36.6055 44.5676L36.3057 43.8293C35.4514 41.6912 34.5686 39.4861 33.7217 37.3081L33.4234 36.4985C33.0652 35.5677 32.695 34.6056 32.3503 33.6477L31.6758 31.8175C31.448 31.2231 31.2472 30.633 31.2861 29.9645L31.427 29.9146C31.9111 30.4049 32.1554 30.978 32.3833 31.5723L33.1027 33.3883C33.4834 34.3305 33.8521 35.2955 34.2058 36.2277L34.5056 37.0287C35.3255 39.2053 36.1378 41.4261 36.9232 43.5741L37.2065 44.351C37.5192 45.2185 37.8345 46.0861 38.1523 46.9537C38.7158 48.5045 39.2989 50.1081 39.8624 51.6889L41.1679 55.3664C41.3128 55.7854 41.4587 56.2045 41.6056 56.6236L42.0327 57.8537Z" fill="#108E66"/>
      <path d="M46.9776 55.66L46.2582 54.5496L45.5342 53.4335L43.4119 50.1195C42.4991 48.6941 41.5818 47.236 40.6945 45.8262C40.1949 45.0394 39.6993 44.2536 39.2077 43.4687L38.785 42.7944C37.553 40.8317 36.279 38.8034 35.0454 36.7936L34.5853 36.0381C34.0667 35.1829 33.5361 34.3034 33.019 33.4282L32.0193 31.7363C31.6866 31.1875 31.3808 30.6416 31.2969 29.9745L31.4288 29.9018C31.9938 30.3052 32.3401 30.8297 32.6713 31.3771L33.7205 33.0476C34.2661 33.9114 34.8026 34.7994 35.3227 35.6589L35.7724 36.4001C36.9819 38.4156 38.1915 40.4768 39.3606 42.4695L39.7683 43.165L41.1667 45.5583C42.009 46.9965 42.8783 48.4846 43.7237 49.9528L45.6811 53.358C45.903 53.7505 46.1253 54.1424 46.3481 54.534C46.5505 54.9046 46.7633 55.2809 46.9776 55.66Z" fill="#108E66"/>
      <path d="M51.4469 52.6838L50.5326 51.7074C50.2328 51.3815 49.928 51.0555 49.6183 50.7296L46.9204 47.8161C45.7603 46.5618 44.5912 45.2775 43.4596 44.036C42.8281 43.3432 42.1966 42.6514 41.5651 41.9606L41.0045 41.3363C39.4412 39.6144 37.824 37.8355 36.2502 36.0695L35.6702 35.4238C34.9987 34.664 34.3033 33.8786 33.6363 33.0947L32.3428 31.5937C31.9141 31.1091 31.5139 30.6202 31.3086 29.9774L31.4255 29.8847C32.055 30.1883 32.4912 30.6487 32.9243 31.1319L34.2553 32.6043C34.9492 33.3655 35.6402 34.1509 36.3087 34.9092L36.8872 35.5677C38.4385 37.3423 39.9973 39.1626 41.5051 40.9215L42.0597 41.5686C42.6652 42.2813 43.2722 42.994 43.8808 43.7067C44.9689 44.9824 46.0945 46.3009 47.1932 47.6037L49.7412 50.6341L50.6105 51.6818C50.8863 52.0096 51.1666 52.3446 51.4469 52.6838Z" fill="#108E66"/>
      <path d="M55.3049 49.0134L54.2557 48.2238L53.1481 47.3913L49.9616 44.9682C48.5901 43.9248 47.2037 42.8529 45.8623 41.8166C45.1139 41.2389 44.3644 40.6621 43.614 40.0862L42.971 39.5873C41.108 38.1448 39.182 36.6525 37.3025 35.1686L36.6085 34.6141C35.8111 33.9798 34.9868 33.3242 34.1879 32.6642L32.6411 31.3999C32.13 30.9937 31.6474 30.5789 31.3281 29.9745L31.4255 29.8647C32.1015 30.0586 32.6141 30.4349 33.1237 30.8468L34.702 32.0769C35.5278 32.7127 36.3507 33.3741 37.1526 34.0126L37.836 34.56C39.6976 36.0609 41.5831 37.6032 43.3922 39.097L44.0247 39.6158L46.198 41.409C47.5065 42.488 48.8599 43.6027 50.1834 44.7088L53.247 47.2745C53.5947 47.5709 53.9444 47.8665 54.2962 48.1611L55.3049 49.0134Z" fill="#108E66"/>
      <path d="M58.4369 44.7572L57.2378 44.1457L56.0088 43.5157L52.4296 41.6541C50.8903 40.8531 49.3315 40.0292 47.8237 39.231C46.9804 38.7853 46.136 38.3396 45.2907 37.894L44.5248 37.4877C42.4429 36.383 40.2891 35.2399 38.1832 34.0967L37.3948 33.6691C36.4955 33.1759 35.5648 32.6713 34.6595 32.1496L32.9044 31.1604C32.3273 30.844 31.7757 30.5147 31.3516 29.9773L31.4265 29.8533C32.128 29.9332 32.7035 30.2225 33.2791 30.5389L35.0582 31.4897C35.9844 31.9786 36.9137 32.4875 37.8145 32.9863L38.5984 33.414C40.6968 34.5814 42.8281 35.7887 44.8845 36.956L45.6159 37.3708C46.4413 37.846 47.2681 38.3173 48.0965 38.7848C49.5773 39.6287 51.1091 40.4953 52.611 41.3691L56.0957 43.3874L57.2798 44.083L58.4369 44.7572Z" fill="#108E66"/>
      <path d="M60.7451 40.0534L59.4666 39.6515L58.1327 39.2239L54.2672 37.9823C52.6065 37.4478 50.9203 36.8933 49.2911 36.3574L46.5512 35.4566L45.7344 35.2071C43.4756 34.4602 41.1405 33.6891 38.8517 32.908L38.0004 32.6143C37.0232 32.2779 36.0115 31.9287 35.0237 31.5695L33.1157 30.8839C32.4892 30.6672 31.8852 30.4349 31.3711 29.9759L31.4221 29.8405H31.5989C32.2374 29.8405 32.798 30.0173 33.372 30.2154L35.298 30.8568C36.3007 31.1861 37.3125 31.5382 38.2957 31.8788L39.1395 32.171C41.4327 32.9678 43.7664 33.8102 46.0147 34.6241L46.7731 34.8992L49.462 35.877C51.0792 36.4657 52.7519 37.0729 54.3916 37.6816L58.1926 39.0927C58.6258 39.2581 59.059 39.4206 59.4936 39.5845L60.7451 40.0534Z" fill="#108E66"/>
      <path d="M62.1556 35.046L60.8171 34.8607C60.357 34.7952 59.8954 34.731 59.4352 34.6683L55.4019 34.0839C53.6617 33.8302 51.8946 33.5622 50.1874 33.3014L47.3397 32.8737L46.5288 32.7497C44.1547 32.3848 41.6981 32.0085 39.288 31.6094L38.4021 31.4669C37.3754 31.2958 36.3143 31.1191 35.2741 30.9267L33.2747 30.566C32.6197 30.4563 31.9827 30.3266 31.3906 29.9602L31.4176 29.8177C31.6752 29.7614 31.9387 29.7336 32.203 29.735C32.6057 29.7443 33.0069 29.7863 33.4021 29.8605L35.4165 30.1755C36.4657 30.3337 37.5223 30.5133 38.5475 30.6858L39.4348 30.8354C41.833 31.2502 44.2761 31.6907 46.6292 32.1183L47.4491 32.2608C48.3933 32.4357 49.3381 32.6096 50.2834 32.7825C51.98 33.0933 53.7307 33.4154 55.4588 33.7432L59.4607 34.5058L60.8351 34.7766L62.1556 35.046Z" fill="#108E66"/>
      <path d="M37.7055 30.2724C37.0295 30.2724 36.2262 30.2724 35.4048 30.2568L33.3649 30.2354C32.6964 30.2354 32.0474 30.2126 31.3984 29.9503V29.8078C32.0474 29.5441 32.6949 29.5227 33.3574 29.5227L35.4048 29.4999C36.2277 29.487 37.031 29.4842 37.71 29.4842H39.4831C41.9157 29.4956 44.3903 29.5298 46.7824 29.5626L47.6412 29.574C48.6045 29.5911 49.5677 29.6063 50.531 29.6196C52.2576 29.6453 54.0442 29.6723 55.8009 29.7108L59.8807 29.8021L61.2761 29.8405L62.625 29.8776L61.2761 29.9161C60.81 29.9289 60.3453 29.9403 59.8807 29.9546L55.8009 30.0444C54.0442 30.0829 52.2576 30.1099 50.531 30.137C49.5677 30.1513 48.6045 30.1665 47.6412 30.1826L46.8124 30.194C44.4143 30.2268 41.9262 30.261 39.4831 30.2724H37.7055Z" fill="#108E66"/>
      <path d="M32.1991 30.0172C31.9348 30.0186 31.6713 29.9909 31.4137 29.9346L31.3867 29.792C31.9788 29.4243 32.6158 29.2946 33.2707 29.1848L35.2762 28.8256C36.3149 28.6346 37.3745 28.4579 38.3997 28.2882L39.29 28.1386C41.6957 27.748 44.1463 27.3717 46.5174 27.0082L47.3418 26.8814C48.293 26.7388 49.2423 26.5963 50.1895 26.4538C51.8937 26.1943 53.6578 25.9264 55.395 25.6741L59.4283 25.0897L60.8147 24.8972L62.1487 24.7105L60.8207 24.9728C60.3711 25.0612 59.9109 25.1495 59.4568 25.2408L55.4579 25.9991C53.7373 26.3255 51.9851 26.6476 50.2914 26.9584L47.4437 27.4815L46.6238 27.624C44.2662 28.0516 41.8276 28.4978 39.4294 28.9069L38.5301 29.0565C37.5079 29.2304 36.4498 29.4086 35.4066 29.5668L33.3937 29.8804C33.0004 29.9587 32.6007 30.0045 32.1991 30.0172Z" fill="#108E66"/>
      <path d="M31.5989 29.9246H31.4221L31.3711 29.7892C31.8852 29.3288 32.4892 29.0964 33.1142 28.8812L35.0237 28.1956C36.0115 27.835 37.0232 27.4829 38.0019 27.1494L38.8517 26.8557C41.1435 26.0746 43.4831 25.3021 45.7464 24.5537L46.5512 24.2872C47.4655 23.9898 48.3793 23.6899 49.2926 23.3878C50.9218 22.8518 52.6065 22.2973 54.2672 21.7628L58.1342 20.5199L59.4577 20.1037L60.7436 19.6989L59.4891 20.1721L58.1881 20.6638L54.3871 22.0764C52.7489 22.6836 51.0807 23.2908 49.465 23.8767L46.7671 24.8588L45.9952 25.1438C43.7469 25.9563 41.4252 26.7973 39.132 27.6026L38.2852 27.8977C37.308 28.2369 36.2962 28.589 35.295 28.9169L33.369 29.5597C32.801 29.7464 32.2374 29.9246 31.5989 29.9246Z" fill="#108E66"/>
      <path d="M31.3516 29.7792C31.7757 29.2404 32.3273 28.9126 32.9029 28.5961L34.658 27.6069C35.5678 27.0867 36.503 26.5749 37.4083 26.0803L38.1832 25.6527C40.2966 24.5053 42.4579 23.3578 44.5488 22.2489L45.2982 21.8512C46.1405 21.4084 46.9819 20.9641 47.8222 20.5185C49.333 19.7188 50.8948 18.8921 52.4371 18.0953L56.0178 16.2337C56.4255 16.0256 56.8327 15.8171 57.2393 15.608L58.4384 14.9937L57.2738 15.6793L56.0957 16.3706L52.608 18.3875C51.1091 19.2584 49.5683 20.1322 48.083 20.9774L45.6159 22.3786L44.904 22.7834C42.8416 23.9537 40.7073 25.1652 38.5984 26.3369L37.8175 26.7645C36.9182 27.262 35.9844 27.7751 35.0597 28.2626L33.2806 29.2205C32.7035 29.5369 32.128 29.8277 31.4265 29.9075L31.3516 29.7792Z" fill="#108E66"/>
      <path d="M31.332 29.7764C31.6513 29.1763 32.1339 28.7615 32.6435 28.351L34.1918 27.0867C34.9907 26.4267 35.815 25.7711 36.6124 25.1353L37.3079 24.5823C39.1829 23.1013 41.1044 21.6118 42.9644 20.1636L43.6134 19.6704L45.8617 17.9357C47.2016 16.9008 48.5881 15.8304 49.958 14.787L53.1445 12.3638L54.2461 11.5371C54.5924 11.2748 54.9461 11.0097 55.2953 10.7432L54.2836 11.5984L53.2419 12.4821L50.1783 15.0478C48.8563 16.1511 47.5044 17.2657 46.1989 18.3419C45.4715 18.9406 44.7451 19.5402 44.0196 20.1408L43.3886 20.6582C41.572 22.152 39.694 23.6957 37.831 25.1966L37.14 25.7497C36.3441 26.3868 35.5198 27.0454 34.6984 27.6796L33.1201 28.9098C32.6105 29.316 32.0964 29.6966 31.4205 29.8919L31.332 29.7764Z" fill="#108E66"/>
      <path d="M31.3164 29.7764C31.5217 29.1335 31.9159 28.6446 32.3491 28.16L33.6426 26.6548C34.3111 25.8708 35.0065 25.0869 35.678 24.3257L36.2536 23.6743C37.8273 21.9097 39.4446 20.1294 41.0078 18.4089L41.5714 17.7889C42.2039 17.0971 42.8354 16.4048 43.4659 15.7121C44.5975 14.4706 45.7666 13.1877 46.9267 11.9334L49.6246 9.01846C49.9314 8.69252 50.2376 8.36515 50.5434 8.03636L51.4532 7.06567L50.6198 8.06345L49.7445 9.12251L47.1965 12.1515C46.0994 13.4557 44.9737 14.7728 43.8856 16.0471C43.2771 16.7578 42.6695 17.4705 42.063 18.1851L41.5114 18.828C40.0036 20.5898 38.4433 22.41 36.8906 24.1874L36.312 24.8446C35.6435 25.6043 34.9526 26.3897 34.2586 27.1494L32.9291 28.6218C32.5005 29.1065 32.0643 29.5669 31.4303 29.8691L31.3164 29.7764Z" fill="#108E66"/>
      <path d="M31.2969 29.7792C31.3808 29.1121 31.6866 28.5648 32.0193 28.0174L33.019 26.3255C33.5301 25.4475 34.0682 24.5651 34.5883 23.7113L35.0454 22.9587C36.276 20.9632 37.5485 18.9291 38.7775 16.9721L39.2077 16.2865C39.7073 15.5016 40.2024 14.7162 40.693 13.9303C41.5818 12.5206 42.4991 11.0624 43.4119 9.6356L45.5342 6.31872C45.7771 5.9467 46.0199 5.57182 46.2612 5.19837C46.5025 4.82491 46.7363 4.46429 46.9776 4.09369L46.3391 5.22117C46.1173 5.61173 45.8895 6.00371 45.6736 6.39569L43.7162 9.80095C42.8708 11.2691 42 12.7572 41.1592 14.1969C40.6915 14.9941 40.2254 15.7914 39.7608 16.5887L39.3546 17.2814C38.184 19.2769 36.9744 21.3381 35.7574 23.3536L35.3077 24.0962C34.7876 24.9514 34.2511 25.8423 33.7055 26.7061L32.6563 28.3752C32.3251 28.9226 31.9788 29.4485 31.4138 29.8505L31.2969 29.7792Z" fill="#108E66"/>
      <path d="M31.2783 29.7906C31.2393 29.1193 31.4402 28.5306 31.6665 27.9376L32.3425 26.1074C32.6872 25.1553 33.0574 24.1945 33.4141 23.2652L33.7214 22.4499C34.5667 20.2733 35.4496 18.0668 36.3039 15.933L36.6037 15.1904C36.9504 14.3351 37.2951 13.4799 37.6378 12.6247C38.2554 11.0909 38.8924 9.5059 39.5294 7.94938L41.0147 4.33459C41.1886 3.92265 41.3594 3.50929 41.5318 3.09735C41.7042 2.68541 41.8615 2.30483 42.0309 1.9043L41.6022 3.13156L41.1661 4.38733L39.8666 8.05913C39.3045 9.63846 38.7215 11.242 38.1579 12.7914C37.8412 13.66 37.5254 14.529 37.2107 15.3985L36.9304 16.1667C36.1435 18.3177 35.3311 20.5413 34.5098 22.7235L34.21 23.5218C33.8548 24.4554 33.4861 25.4204 33.1054 26.364L32.3725 28.1757C32.1446 28.77 31.9003 29.3445 31.4162 29.8348L31.2783 29.7906Z" fill="#108E66"/>
      <path d="M31.2625 29.7906C31.1022 29.1364 31.1921 28.5235 31.3075 27.9006L31.6388 25.9863C31.8051 24.9885 31.994 23.9779 32.1768 23.0015L32.3267 22.1634C32.7614 19.8827 33.226 17.5736 33.6757 15.3386L33.8375 14.5375C34.0224 13.6338 34.2062 12.7311 34.3891 11.8293C34.7158 10.2214 35.0516 8.55944 35.3948 6.92737L36.1982 3.12158L36.4815 1.8145C36.5714 1.40114 36.6613 0.982074 36.7543 0.561584C36.6883 0.989201 36.6224 1.42537 36.5564 1.84443C36.4905 2.2635 36.4215 2.71107 36.3556 3.14439L35.747 6.98439C35.4817 8.64069 35.1985 10.3227 34.9242 11.949C34.7733 12.8499 34.6234 13.7502 34.4745 14.6501L34.3381 15.4498C33.9559 17.699 33.5617 20.0239 33.1511 22.3059L33.0012 23.144C32.8213 24.1218 32.6355 25.1396 32.4331 26.1231L32.0554 28.0303C31.94 28.6532 31.8036 29.259 31.4169 29.822L31.2625 29.7906Z" fill="#108E66"/>
    </g>
    <path d="M11.3048 5.60179L12.1502 6.21756L13.1649 5.90397C13.1881 5.89675 13.2129 5.89585 13.2366 5.90139C13.2603 5.90694 13.2819 5.91869 13.2989 5.93533C13.3159 5.95196 13.3277 5.9728 13.3329 5.99548C13.3381 6.01816 13.3365 6.04177 13.3282 6.06362L12.973 7.01863L13.601 7.83965C13.6153 7.85841 13.6238 7.8806 13.6255 7.90371C13.6272 7.92681 13.6221 7.94991 13.6107 7.97039C13.5993 7.99086 13.5821 8.00789 13.5611 8.01955C13.54 8.03121 13.516 8.03703 13.4916 8.03636L12.4259 8.0107L11.7994 8.83743C11.7851 8.85622 11.7655 8.87081 11.7428 8.87952C11.7202 8.88824 11.6954 8.89074 11.6714 8.88672C11.6473 8.88271 11.6249 8.87236 11.6068 8.85684C11.5886 8.84132 11.5754 8.82126 11.5686 8.79894L11.2688 7.82825L10.2541 7.51466C10.2311 7.50754 10.2106 7.49444 10.1949 7.47684C10.1793 7.45925 10.1691 7.43785 10.1655 7.41505C10.1619 7.39225 10.1651 7.36896 10.1747 7.34778C10.1842 7.3266 10.1998 7.30838 10.2197 7.29515L11.098 6.725V5.70157C11.0981 5.67878 11.1048 5.65646 11.1174 5.63707C11.13 5.61768 11.148 5.60197 11.1694 5.59166C11.1908 5.58135 11.2147 5.57684 11.2386 5.57863C11.2625 5.58042 11.2854 5.58843 11.3048 5.60179Z" fill="#E0E0E0"/>
    <path d="M51.3304 34.694L51.2764 35.706L52.1217 36.3232C52.141 36.3373 52.1558 36.3562 52.1644 36.3778C52.173 36.3994 52.1751 36.4229 52.1704 36.4455C52.1657 36.4682 52.1545 36.4892 52.138 36.5061C52.1214 36.523 52.1002 36.5352 52.0768 36.5413L51.0456 36.805L50.6904 37.76C50.6824 37.7819 50.6681 37.8012 50.6491 37.8158C50.6301 37.8303 50.6073 37.8395 50.5831 37.8424C50.5589 37.8452 50.5344 37.8415 50.5123 37.8317C50.4902 37.822 50.4714 37.8065 50.458 37.7871L49.8765 36.9319L48.8108 36.9048C48.7865 36.9045 48.7627 36.8976 48.7423 36.885C48.7219 36.8724 48.7056 36.8546 48.6954 36.8335C48.6852 36.8125 48.6815 36.7892 48.6847 36.7662C48.6879 36.7432 48.6978 36.7216 48.7134 36.7038L49.3834 35.9156L49.0836 34.9434C49.0766 34.9212 49.0763 34.8975 49.0828 34.8751C49.0892 34.8527 49.1022 34.8324 49.1202 34.8167C49.1381 34.8009 49.1604 34.7903 49.1844 34.786C49.2084 34.7817 49.2332 34.7839 49.256 34.7924L50.2512 35.1558L51.1295 34.5857C51.1495 34.5734 51.1727 34.5667 51.1964 34.566C51.2202 34.5654 51.2437 34.571 51.2644 34.5821C51.285 34.5933 51.3021 34.6096 51.3138 34.6293C51.3254 34.649 51.3311 34.6714 51.3304 34.694Z" fill="#E0E0E0"/>
    <path d="M52.1296 9.61567L52.0757 10.6277L52.921 11.2449C52.9403 11.2589 52.9551 11.2778 52.9637 11.2994C52.9723 11.3211 52.9744 11.3445 52.9697 11.3672C52.965 11.3899 52.9538 11.4109 52.9372 11.4278C52.9207 11.4447 52.8995 11.4569 52.8761 11.463L51.8464 11.7267L51.4896 12.6817C51.4816 12.7036 51.4673 12.7229 51.4484 12.7374C51.4294 12.752 51.4065 12.7612 51.3824 12.764C51.3582 12.7668 51.3336 12.7632 51.3115 12.7534C51.2894 12.7436 51.2707 12.7282 51.2573 12.7088L50.6758 11.8535L49.6116 11.8307C49.5873 11.8304 49.5635 11.8236 49.5431 11.811C49.5227 11.7984 49.5064 11.7805 49.4962 11.7595C49.486 11.7384 49.4823 11.7151 49.4855 11.6921C49.4887 11.6692 49.4986 11.6475 49.5142 11.6297L50.1842 10.8415L49.8844 9.86939C49.8774 9.84712 49.8771 9.82344 49.8836 9.80102C49.89 9.77861 49.903 9.75837 49.9209 9.74262C49.9389 9.72687 49.9612 9.71624 49.9852 9.71194C50.0092 9.70763 50.034 9.70984 50.0568 9.7183L51.052 10.0818L51.9303 9.51162C51.95 9.49997 51.9725 9.49351 51.9957 9.49291C52.0188 9.4923 52.0417 9.49756 52.062 9.50816C52.0823 9.51875 52.0993 9.5343 52.1111 9.55319C52.123 9.57209 52.1294 9.59365 52.1296 9.61567Z" fill="#E0E0E0"/>
    <path d="M2.75574 46.4349L3.77195 46.7428L4.61429 46.1199C4.63349 46.1059 4.65643 46.0972 4.68052 46.0949C4.70462 46.0925 4.72892 46.0966 4.75071 46.1067C4.77249 46.1168 4.7909 46.1324 4.80387 46.1518C4.81683 46.1713 4.82385 46.1938 4.82412 46.2168V47.2317L5.70693 47.8019C5.72685 47.8149 5.74257 47.8329 5.75235 47.8539C5.76213 47.8749 5.76558 47.8981 5.76231 47.9208C5.75905 47.9436 5.7492 47.9651 5.73386 47.9828C5.71853 48.0006 5.69831 48.0139 5.67546 48.0214L4.66375 48.3421L4.36398 49.3156C4.35722 49.338 4.34399 49.358 4.32582 49.3735C4.30765 49.3891 4.28527 49.3994 4.26121 49.4034C4.23715 49.4074 4.2124 49.4049 4.18976 49.3962C4.16712 49.3875 4.14751 49.3729 4.13316 49.3541L3.50066 48.5388L2.43499 48.5716C2.41064 48.5723 2.38659 48.5664 2.36554 48.5548C2.34449 48.5431 2.3273 48.5261 2.31592 48.5056C2.30453 48.4851 2.29939 48.462 2.3011 48.4389C2.30281 48.4158 2.31129 48.3936 2.32558 48.3749L2.94609 47.551L2.58338 46.5974C2.57382 46.5746 2.57154 46.5495 2.57682 46.5255C2.5821 46.5014 2.59471 46.4793 2.61308 46.462C2.63145 46.4447 2.65477 46.4329 2.68013 46.4281C2.7055 46.4232 2.73179 46.4256 2.75574 46.4349Z" fill="#E0E0E0"/>
    <path d="M58.4869 57.5986L59.5046 57.905L60.3455 57.2821C60.3647 57.2681 60.3876 57.2594 60.4117 57.2571C60.4358 57.2548 60.4601 57.2589 60.4819 57.2689C60.5037 57.279 60.5221 57.2946 60.5351 57.3141C60.548 57.3335 60.555 57.356 60.5553 57.3791L60.5628 58.3939L61.4456 58.9641C61.4661 58.9768 61.4823 58.9947 61.4924 59.0158C61.5026 59.0369 61.5062 59.0603 61.5029 59.0833C61.4996 59.1063 61.4895 59.1279 61.4738 59.1457C61.4581 59.1635 61.4374 59.1766 61.4142 59.1836L60.4009 59.5029L60.1012 60.4764C60.0946 60.4989 60.0815 60.5191 60.0634 60.5347C60.0453 60.5504 60.023 60.561 59.9989 60.5651C59.9748 60.5693 59.95 60.5669 59.9273 60.5583C59.9045 60.5497 59.8848 60.5351 59.8704 60.5164L59.2379 59.6996L58.1722 59.7324C58.1481 59.7329 58.1243 59.727 58.1035 59.7154C58.0827 59.7038 58.0657 59.687 58.0544 59.6667C58.043 59.6465 58.0378 59.6237 58.0393 59.6008C58.0408 59.5779 58.0489 59.5559 58.0628 59.5371L58.6833 58.7118L58.3206 57.7582C58.312 57.7361 58.3102 57.7121 58.3155 57.689C58.3207 57.6659 58.3328 57.6448 58.3503 57.628C58.3678 57.6112 58.3899 57.5996 58.4141 57.5944C58.4383 57.5891 58.4636 57.5906 58.4869 57.5986Z" fill="#E0E0E0"/>
    <path d="M32.1662 57.6869L32.1107 58.6989L32.9561 59.3161C32.9754 59.3302 32.9901 59.3491 32.9987 59.3707C33.0073 59.3923 33.0094 59.4158 33.0047 59.4385C33.0001 59.4611 32.9888 59.4821 32.9723 59.499C32.9557 59.516 32.9345 59.5281 32.9111 59.5342L31.8814 59.7979L31.5247 60.7529C31.5167 60.7748 31.5024 60.7941 31.4834 60.8087C31.4644 60.8232 31.4416 60.8325 31.4174 60.8353C31.3932 60.8381 31.3687 60.8344 31.3466 60.8246C31.3245 60.8149 31.3057 60.7994 31.2924 60.78L30.7123 59.9248L29.6466 59.8977C29.6224 59.8971 29.5988 59.8901 29.5786 59.8775C29.5583 59.8649 29.5421 59.8472 29.5318 59.8263C29.5216 59.8054 29.5176 59.7823 29.5204 59.7594C29.5232 59.7365 29.5327 59.7148 29.5477 59.6967L30.2192 58.9085L29.9194 57.9364C29.9126 57.9143 29.9124 57.8908 29.9188 57.8686C29.9252 57.8463 29.938 57.8263 29.9557 57.8106C29.9735 57.7949 29.9955 57.7842 30.0192 57.7797C30.043 57.7753 30.0676 57.7772 30.0903 57.7853L31.0855 58.1488L31.9653 57.5786C31.9853 57.5664 32.0085 57.5596 32.0322 57.5589C32.056 57.5583 32.0795 57.5639 32.1002 57.575C32.1209 57.5862 32.1379 57.6025 32.1496 57.6222C32.1612 57.642 32.1669 57.6643 32.1662 57.6869Z" fill="#E0E0E0"/>
    <path d="M5.0363 27.778C5.0363 27.8395 5.0171 27.8997 4.98113 27.9508C4.94516 28.0019 4.89404 28.0418 4.83425 28.0652C4.77446 28.0887 4.70868 28.0948 4.64526 28.0827C4.58184 28.0706 4.52362 28.0408 4.47798 27.9972C4.43235 27.9536 4.40135 27.8981 4.38891 27.8378C4.37647 27.7774 4.38316 27.7149 4.40812 27.6581C4.43308 27.6014 4.47519 27.5529 4.52912 27.519C4.58305 27.485 4.64637 27.467 4.71106 27.4673C4.75389 27.4673 4.79631 27.4753 4.83587 27.491C4.87543 27.5066 4.91135 27.5295 4.94157 27.5584C4.97179 27.5873 4.99572 27.6215 5.01198 27.6592C5.02823 27.6969 5.0365 27.7373 5.0363 27.778Z" fill="#E0E0E0"/>
    <path d="M0.668996 17.7304C0.848624 17.7304 0.994242 17.592 0.994242 17.4211C0.994242 17.2503 0.848624 17.1118 0.668996 17.1118C0.489368 17.1118 0.34375 17.2503 0.34375 17.4211C0.34375 17.592 0.489368 17.7304 0.668996 17.7304Z" fill="#E0E0E0"/>
    <path d="M21.381 43.8863C21.381 43.9475 21.3619 44.0073 21.3261 44.0582C21.2904 44.109 21.2396 44.1487 21.1802 44.1721C21.1207 44.1955 21.0554 44.2016 20.9923 44.1897C20.9292 44.1778 20.8712 44.1483 20.8257 44.105C20.7802 44.0618 20.7493 44.0067 20.7367 43.9467C20.7242 43.8867 20.7306 43.8245 20.7552 43.768C20.7798 43.7114 20.8215 43.6631 20.875 43.6292C20.9285 43.5952 20.9914 43.577 21.0557 43.577C21.0984 43.577 21.1407 43.585 21.1802 43.6006C21.2196 43.6161 21.2555 43.6389 21.2857 43.6676C21.3159 43.6963 21.3399 43.7304 21.3562 43.768C21.3725 43.8055 21.381 43.8457 21.381 43.8863Z" fill="#E0E0E0"/>
    <path d="M43.6466 54.6865C43.6466 54.7477 43.6275 54.8075 43.5918 54.8584C43.556 54.9092 43.5052 54.9489 43.4458 54.9723C43.3864 54.9957 43.321 55.0018 43.2579 54.9899C43.1948 54.9779 43.1368 54.9485 43.0914 54.9052C43.0459 54.862 43.0149 54.8069 43.0023 54.7469C42.9898 54.6869 42.9962 54.6247 43.0209 54.5681C43.0455 54.5116 43.0872 54.4633 43.1406 54.4293C43.1941 54.3953 43.257 54.3772 43.3213 54.3772C43.3641 54.3772 43.4063 54.3852 43.4458 54.4007C43.4853 54.4163 43.5211 54.4391 43.5513 54.4678C43.5815 54.4965 43.6055 54.5306 43.6218 54.5681C43.6382 54.6057 43.6466 54.6459 43.6466 54.6865Z" fill="#E0E0E0"/>
    <path d="M62.9268 27.091C63.1064 27.091 63.2521 26.9525 63.2521 26.7817C63.2521 26.6108 63.1064 26.4724 62.9268 26.4724C62.7472 26.4724 62.6016 26.6108 62.6016 26.7817C62.6016 26.9525 62.7472 27.091 62.9268 27.091Z" fill="#E0E0E0"/>
    <path d="M60.3799 13.2148C60.5596 13.2148 60.7052 13.0763 60.7052 12.9055C60.7052 12.7347 60.5596 12.5962 60.3799 12.5962C60.2003 12.5962 60.0547 12.7347 60.0547 12.9055C60.0547 13.0763 60.2003 13.2148 60.3799 13.2148Z" fill="#E0E0E0"/>
    <path d="M38.3019 7.49756C38.3019 7.55902 38.2828 7.6191 38.2469 7.6702C38.211 7.7213 38.1599 7.76113 38.1002 7.78465C38.0405 7.80816 37.9748 7.81432 37.9114 7.80233C37.8481 7.79034 37.7898 7.76074 37.7441 7.71729C37.6984 7.67383 37.6673 7.61846 37.6547 7.55819C37.6421 7.49791 37.6486 7.43543 37.6733 7.37865C37.698 7.32187 37.7399 7.27334 37.7937 7.2392C37.8474 7.20505 37.9106 7.18683 37.9752 7.18683C38.0181 7.18683 38.0606 7.19487 38.1002 7.21048C38.1399 7.2261 38.1759 7.24899 38.2062 7.27784C38.2366 7.3067 38.2606 7.34095 38.2771 7.37865C38.2935 7.41635 38.3019 7.45676 38.3019 7.49756Z" fill="#E0E0E0"/>
    <path d="M20.8409 7.86386C21.0205 7.86386 21.1661 7.72538 21.1661 7.55455C21.1661 7.38372 21.0205 7.24524 20.8409 7.24524C20.6612 7.24524 20.5156 7.38372 20.5156 7.55455C20.5156 7.72538 20.6612 7.86386 20.8409 7.86386Z" fill="#E0E0E0"/>
    <path d="M48.5506 26.3697L53.4368 22.1805L54.0873 21.5619L58.9135 16.5345L58.9915 16.4533C59.1728 16.2823 59.4711 16.2238 59.8473 16.3193C60.5967 16.5117 61.3731 17.2487 61.574 17.9642C61.6759 18.3234 61.6144 18.6071 61.4331 18.7795L56.0568 23.4377L55.4093 24.0535L50.9608 28.7174C50.7794 28.8827 50.4811 28.9397 50.1109 28.8442C49.3615 28.6518 48.5866 27.9163 48.3828 27.1993C48.2838 26.8415 48.3453 26.5565 48.5326 26.3854L48.5581 26.3612L48.5506 26.3697Z" fill="#108E66"/>
    <path opacity="0.4" d="M48.5506 26.3697L53.4368 22.1805L54.0873 21.5619L58.9135 16.5345L58.9915 16.4533C59.1728 16.2823 59.4711 16.2238 59.8473 16.3193C60.5967 16.5117 61.3731 17.2487 61.574 17.9642C61.6759 18.3234 61.6144 18.6071 61.4331 18.7795L56.0568 23.4377L55.4093 24.0535L50.9608 28.7174C50.7794 28.8827 50.4811 28.9397 50.1109 28.8442C49.3615 28.6518 48.5866 27.9163 48.3828 27.1993C48.2838 26.8415 48.3453 26.5565 48.5326 26.3854L48.5581 26.3612L48.5506 26.3697Z" fill="white"/>
    <path opacity="0.3" d="M59.165 16.3407C59.1004 16.368 59.0415 16.4061 58.9912 16.4533L58.9132 16.5346L54.087 21.5605L53.4365 22.1791L48.5503 26.3697L48.5249 26.394C48.3435 26.565 48.282 26.8501 48.375 27.2079C48.5579 27.7466 48.9231 28.2127 49.4137 28.5335L59.6642 18.8023C59.6642 18.8023 58.6315 17.4767 59.165 16.3407Z" fill="#108E66"/>
    <path d="M59.8467 16.3193C59.4705 16.2238 59.1708 16.2823 58.9909 16.4533C58.811 16.6243 58.7481 16.9094 58.8485 17.2686C59.0494 17.9813 59.8228 18.7211 60.5752 18.9135C60.9529 19.009 61.2526 18.9506 61.4325 18.7795C61.6124 18.6085 61.6753 18.322 61.5749 17.9642C61.3726 17.2472 60.6007 16.5117 59.8467 16.3193Z" fill="#108E66"/>
    <path d="M48.4678 26.4439L48.5487 26.3669L53.4349 22.1777L54.0854 21.559L58.9131 16.5345C58.1982 17.357 59.1395 18.6327 59.1395 18.6327L48.6162 28.6247C48.6162 28.6247 47.609 27.2592 48.4678 26.4439Z" fill="#108E66"/>
    <path opacity="0.6" d="M48.4678 26.4439L48.5487 26.3669L53.4349 22.1777L54.0854 21.559L58.9131 16.5345C58.1982 17.357 59.1395 18.6327 59.1395 18.6327L48.6162 28.6247C48.6162 28.6247 47.609 27.2592 48.4678 26.4439Z" fill="white"/>
    <path opacity="0.25" d="M59.8467 16.3193C59.4705 16.2238 59.1708 16.2823 58.9909 16.4533C58.811 16.6243 58.7481 16.9094 58.8485 17.2686C59.0494 17.9813 59.8228 18.7211 60.5752 18.9135C60.9529 19.009 61.2526 18.9506 61.4325 18.7795C61.6124 18.6085 61.6753 18.322 61.5749 17.9642C61.3726 17.2472 60.6007 16.5117 59.8467 16.3193Z" fill="white"/>
    <path opacity="0.5" d="M60.4912 17.9214C61.3126 18.0811 61.0908 17.1104 60.2739 16.4846C60.1384 16.415 59.9951 16.36 59.8467 16.3207C59.4705 16.2252 59.1708 16.2837 58.9909 16.4547C58.811 16.6257 58.7481 16.9108 58.8485 17.27C59.0224 17.786 59.3654 18.2356 59.8273 18.5529L60.4912 17.9214Z" fill="#108E66"/>
    <path d="M60.9118 17.8587L60.0395 18.6883C59.9654 18.6458 59.8948 18.5982 59.8281 18.5457L60.4921 17.9157C60.5623 17.9352 60.636 17.9402 60.7084 17.9304C60.7808 17.9206 60.8502 17.8961 60.9118 17.8587Z" fill="#108E66"/>
    <path opacity="0.1" d="M60.9118 17.8587L60.0395 18.6883C59.9654 18.6458 59.8948 18.5982 59.8281 18.5457L60.4921 17.9157C60.5623 17.9352 60.636 17.9402 60.7084 17.9304C60.7808 17.9206 60.8502 17.8961 60.9118 17.8587Z" fill="#272B2A"/>
    <path d="M55.4727 23.995C56.5353 24.4412 57.3402 25.295 57.9907 26.394C58.0374 26.0656 58.0211 25.7319 57.9427 25.409C58.2239 25.4608 58.4966 25.5481 58.7536 25.6684C58.0776 24.6507 57.2638 23.824 56.2461 23.2795L56.0557 23.4377L55.4727 23.995Z" fill="#108E66"/>
    <path opacity="0.2" d="M55.9364 24.2317L56.1043 23.911L56.6348 23.5133C56.5074 23.4335 56.3785 23.3565 56.2451 23.2852L56.0548 23.4377L55.4688 23.9951C55.6299 24.0641 55.7861 24.1431 55.9364 24.2317Z" fill="#272B2A"/>
    <path d="M53.4382 22.1791C53.2958 22.3216 53.2478 22.5469 53.3273 22.8334C53.434 23.1432 53.6159 23.4248 53.8584 23.6553C54.1008 23.8859 54.3969 24.0589 54.7227 24.1604C55.0225 24.2374 55.2593 24.1932 55.4062 24.0606L55.4136 24.0535L56.0611 23.4377C55.9113 23.5803 55.6729 23.623 55.3702 23.5461C55.0442 23.4445 54.7479 23.2713 54.5055 23.0405C54.263 22.8097 54.0812 22.5277 53.9748 22.2176C53.8938 21.9325 53.9433 21.6987 54.0902 21.5605L53.4427 22.1748L53.4382 22.1791Z" fill="#108E66"/>
    <path opacity="0.15" d="M54.3637 22.8932C54.2328 22.7456 54.1248 22.581 54.043 22.4043L53.3955 23.0187C53.4773 23.1953 53.5853 23.36 53.7162 23.5076L54.3637 22.8932ZM53.3265 22.8334L53.974 22.219C53.9486 22.1293 53.936 22.0368 53.9366 21.9439L53.2891 22.5583C53.2887 22.6511 53.3013 22.7436 53.3265 22.8334Z" fill="white"/>
    <path opacity="0.1" d="M54.2852 23.9765C54.4211 24.0574 54.5684 24.1193 54.7228 24.1604C55.0226 24.2374 55.2594 24.1932 55.4063 24.0606L55.4138 24.0535L56.0613 23.4377C55.9114 23.5803 55.6731 23.623 55.3703 23.5461C55.2159 23.505 55.0685 23.4431 54.9326 23.3622L54.2852 23.9765Z" fill="#272B2A"/>
    <path d="M2.43276 30.6317L8.5195 33.8901L9.39332 34.302L16.3449 37.2198L16.4573 37.2683C16.7001 37.3837 16.862 37.6503 16.889 38.0423C16.9399 38.8277 16.4228 39.8169 15.7319 40.2516C15.3871 40.4697 15.0649 40.5068 14.8236 40.3942L8.07884 36.8307L7.20802 36.4187L0.76306 33.7419H0.754067C0.517252 33.6236 0.356877 33.3584 0.331397 32.9707C0.281936 32.1853 0.799032 31.1975 1.48849 30.7614C1.83322 30.5447 2.15547 30.5077 2.39828 30.6188L2.43276 30.6345V30.6317Z" fill="#108E66"/>
    <path opacity="0.4" d="M2.43276 30.6317L8.5195 33.8901L9.39332 34.302L16.3449 37.2198L16.4573 37.2683C16.7001 37.3837 16.862 37.6503 16.889 38.0423C16.9399 38.8277 16.4228 39.8169 15.7319 40.2516C15.3871 40.4697 15.0649 40.5068 14.8236 40.3942L8.07884 36.8307L7.20802 36.4187L0.76306 33.7419H0.754067C0.517252 33.6236 0.356877 33.3584 0.331397 32.9707C0.281936 32.1853 0.799032 31.1975 1.48849 30.7614C1.83322 30.5447 2.15547 30.5077 2.39828 30.6188L2.43276 30.6345V30.6317Z" fill="white"/>
    <path opacity="0.3" d="M16.6363 37.3952C16.5851 37.3433 16.5247 37.3003 16.4579 37.2683L16.3455 37.2198L9.39391 34.3021L8.52009 33.8901L2.43485 30.6317L2.40038 30.616C2.15906 30.5005 1.83532 30.5376 1.49059 30.7585C0.982781 31.1158 0.613818 31.6231 0.441406 32.201L14.2066 38.7179C14.2066 38.7179 15.2543 37.2697 16.6363 37.3952Z" fill="#108E66"/>
    <path d="M16.8887 38.0422C16.8632 37.6503 16.6999 37.3823 16.4571 37.2668C16.2143 37.1514 15.892 37.1899 15.5473 37.4094C14.8578 37.8441 14.3392 38.8348 14.3902 39.6187C14.4172 40.0107 14.579 40.2787 14.8218 40.3927C15.0646 40.5067 15.3869 40.4711 15.7316 40.2502C16.4211 39.8169 16.9337 38.8276 16.8887 38.0422Z" fill="#108E66"/>
    <path d="M2.32605 30.5775L2.43546 30.6288L8.52221 33.8873L9.39603 34.2992L16.3476 37.217C15.2355 36.8122 14.2043 38.1449 14.2043 38.1449L0.0703125 31.457C0.0703125 31.457 1.17345 30.0316 2.32605 30.5775Z" fill="#108E66"/>
    <path opacity="0.6" d="M2.32605 30.5775L2.43546 30.6288L8.52221 33.8873L9.39603 34.2992L16.3476 37.217C15.2355 36.8122 14.2043 38.1449 14.2043 38.1449L0.0703125 31.457C0.0703125 31.457 1.17345 30.0316 2.32605 30.5775Z" fill="white"/>
    <path opacity="0.25" d="M16.8887 38.0422C16.8632 37.6503 16.6999 37.3823 16.4571 37.2668C16.2143 37.1514 15.892 37.1899 15.5473 37.4094C14.8578 37.8441 14.3392 38.8348 14.3902 39.6187C14.4172 40.0107 14.579 40.2787 14.8218 40.3927C15.0646 40.5067 15.3869 40.4711 15.7316 40.2502C16.4211 39.8169 16.9337 38.8276 16.8887 38.0422Z" fill="white"/>
    <path opacity="0.5" d="M15.4137 39.1983C15.5232 40.0392 16.4764 39.499 16.8616 38.5041C16.89 38.3512 16.9 38.1958 16.8916 38.0408C16.8661 37.6489 16.7027 37.3809 16.4599 37.2654C16.2171 37.15 15.8949 37.1885 15.5501 37.408C15.0621 37.7484 14.7021 38.2292 14.5234 38.7792L15.4137 39.1983Z" fill="#108E66"/>
    <path d="M15.6213 39.5817L14.4492 39.0258C14.4675 38.942 14.4921 38.8596 14.5227 38.7792L15.413 39.1997C15.4168 39.2738 15.4374 39.3463 15.4734 39.4122C15.5093 39.4782 15.5598 39.5359 15.6213 39.5817Z" fill="#108E66"/>
    <path opacity="0.1" d="M15.6213 39.5817L14.4492 39.0258C14.4675 38.942 14.4921 38.8596 14.5227 38.7792L15.413 39.1997C15.4168 39.2738 15.4374 39.3463 15.4734 39.4122C15.5093 39.4782 15.5598 39.5359 15.6213 39.5817Z" fill="#272B2A"/>
    <path d="M7.28775 36.4529C7.17533 37.6203 6.53833 38.6808 5.60156 39.6743C5.96463 39.6081 6.31201 39.4796 6.62676 39.2952C6.66804 39.5822 6.66804 39.8733 6.62676 40.1604C7.4736 39.1626 8.07463 38.1092 8.30545 36.9504L8.07463 36.8264L7.28775 36.4529Z" fill="#108E66"/>
    <path opacity="0.2" d="M7.19922 36.9761L7.59641 37.0274L8.19594 37.4008C8.23791 37.2583 8.27538 37.1029 8.30535 36.9504L8.07453 36.8264L7.28765 36.4529C7.26963 36.6289 7.24009 36.8036 7.19922 36.9761Z" fill="#272B2A"/>
    <path d="M8.52166 33.8901C8.32681 33.8003 8.07201 33.8317 7.79173 34.0056C7.49979 34.2121 7.26321 34.4812 7.10122 34.7911C6.93923 35.1009 6.8564 35.4427 6.85946 35.7887C6.87894 36.0995 7.00934 36.3133 7.19669 36.4088H7.20569L8.07651 36.8222C7.88016 36.7295 7.74976 36.5128 7.72878 36.1964C7.72565 35.8502 7.80861 35.5083 7.97088 35.1984C8.13316 34.8885 8.37016 34.6195 8.66255 34.4132C8.93983 34.2365 9.20063 34.2066 9.39697 34.2992L8.52765 33.8873L8.52166 33.8901Z" fill="#108E66"/>
    <path opacity="0.15" d="M8.08026 35.0176C8.19142 34.842 8.32931 34.683 8.48944 34.5458L7.62012 34.1338C7.45999 34.2711 7.3221 34.43 7.21094 34.6057L8.08026 35.0176ZM7.79398 34.0056L8.6633 34.4175C8.74922 34.3618 8.8431 34.3181 8.94209 34.2878L8.07276 33.8759C7.97382 33.9063 7.87995 33.9499 7.79398 34.0056Z" fill="white"/>
    <path opacity="0.1" d="M6.90425 35.3083C6.86478 35.4655 6.84913 35.6273 6.85778 35.7887C6.87727 36.0994 7.00767 36.3132 7.19502 36.4088H7.20401L8.07483 36.8221C7.87849 36.7295 7.74809 36.5128 7.7271 36.1964C7.71845 36.035 7.7341 35.8732 7.77357 35.716L6.90425 35.3083Z" fill="#272B2A"/>
    <path d="M29.6195 41.6827L34.5492 45.0566L35.2641 45.4928L40.9747 48.6514L41.0676 48.7042C41.2654 48.8253 41.3779 49.0705 41.3674 49.4169C41.327 49.7877 41.1952 50.1442 40.9827 50.4576C40.7701 50.7709 40.4829 51.0321 40.1443 51.22C39.8236 51.3768 39.5448 51.3796 39.3439 51.2585L33.8732 47.5524L33.1628 47.1163L27.8704 44.2128H27.8629C27.6696 44.0887 27.5631 43.8436 27.5751 43.5072C27.6166 43.1366 27.7488 42.7805 27.9612 42.4673C28.1736 42.1542 28.4603 41.8928 28.7982 41.7041C29.1189 41.5487 29.3977 41.5459 29.6001 41.667L29.627 41.6841L29.6195 41.6827Z" fill="#108E66"/>
    <path opacity="0.4" d="M29.6195 41.6827L34.5492 45.0566L35.2641 45.4928L40.9747 48.6514L41.0676 48.7042C41.2654 48.8253 41.3779 49.0705 41.3674 49.4169C41.327 49.7877 41.1952 50.1442 40.9827 50.4576C40.7701 50.7709 40.4829 51.0321 40.1443 51.22C39.8236 51.3768 39.5448 51.3796 39.3439 51.2585L33.8732 47.5524L33.1628 47.1163L27.8704 44.2128H27.8629C27.6696 44.0887 27.5631 43.8436 27.5751 43.5072C27.6166 43.1366 27.7488 42.7805 27.9612 42.4673C28.1736 42.1542 28.4603 41.8928 28.7982 41.7041C29.1189 41.5487 29.3977 41.5459 29.6001 41.667L29.627 41.6841L29.6195 41.6827Z" fill="white"/>
    <path opacity="0.3" d="M41.2155 48.8296C41.1765 48.7804 41.1288 48.7379 41.0746 48.7042L40.9817 48.6514L35.2711 45.4928L34.5562 45.0566L29.6265 41.6827L29.5996 41.6656C29.4017 41.5444 29.1184 41.5473 28.7992 41.7027C28.3256 41.9655 27.9567 42.3699 27.75 42.853L38.9912 49.7461C38.9912 49.7461 40.0284 48.5944 41.2155 48.8296Z" fill="#108E66"/>
    <path d="M41.3653 49.4126C41.3833 49.0705 41.2694 48.8239 41.0656 48.6999C40.8617 48.5759 40.5844 48.5816 40.2637 48.7384C39.9251 48.9263 39.6379 49.1875 39.4254 49.5008C39.2128 49.8141 39.081 50.1706 39.0407 50.5415C39.0242 50.8821 39.1366 51.1287 39.3404 51.2542C39.5443 51.3796 39.82 51.3725 40.1408 51.2171C40.4797 51.0291 40.7672 50.7676 40.98 50.4541C41.1928 50.1406 41.3248 49.7837 41.3653 49.4126Z" fill="#108E66"/>
    <path d="M29.5342 41.6214L29.6226 41.6756L34.5523 45.0495L35.2672 45.4856L40.9777 48.6443C40.0575 48.1924 39.0293 49.2501 39.0293 49.2501L27.4883 42.1716C27.4883 42.1716 28.5929 41.0512 29.5342 41.6214Z" fill="#108E66"/>
    <path opacity="0.6" d="M29.5342 41.6214L29.6226 41.6756L34.5523 45.0495L35.2672 45.4856L40.9777 48.6443C40.0575 48.1924 39.0293 49.2501 39.0293 49.2501L27.4883 42.1716C27.4883 42.1716 28.5929 41.0512 29.5342 41.6214Z" fill="white"/>
    <path opacity="0.25" d="M41.3653 49.4126C41.3833 49.0705 41.2694 48.8239 41.0656 48.6999C40.8617 48.5759 40.5844 48.5816 40.2637 48.7384C39.9251 48.9263 39.6379 49.1875 39.4254 49.5008C39.2128 49.8141 39.081 50.1706 39.0407 50.5415C39.0242 50.8821 39.1366 51.1287 39.3404 51.2542C39.5443 51.3796 39.82 51.3725 40.1408 51.2171C40.4797 51.0291 40.7672 50.7676 40.98 50.4541C41.1928 50.1406 41.3248 49.7837 41.3653 49.4126Z" fill="white"/>
    <path opacity="0.5" d="M39.9673 50.2764C39.9763 51.0133 40.8546 50.6341 41.2878 49.8103C41.3285 49.6809 41.3532 49.5474 41.3612 49.4126C41.3792 49.0705 41.2653 48.8239 41.0614 48.6999C40.8576 48.5759 40.5803 48.5816 40.2596 48.7384C39.804 48.9882 39.4447 49.3704 39.2344 49.8288L39.9673 50.2764Z" fill="#108E66"/>
    <path d="M40.1086 50.6256L39.1523 50.0383C39.1762 49.9674 39.2058 49.8983 39.2408 49.8317L39.9677 50.2764C39.9636 50.3408 39.9741 50.4053 39.9984 50.4655C40.0227 50.5257 40.0603 50.5803 40.1086 50.6256Z" fill="#108E66"/>
    <path opacity="0.1" d="M40.1086 50.6256L39.1523 50.0383C39.1762 49.9674 39.2058 49.8983 39.2408 49.8317L39.9677 50.2764C39.9636 50.3408 39.9741 50.4053 39.9984 50.4655C40.0227 50.5257 40.0603 50.5803 40.1086 50.6256Z" fill="#272B2A"/>
    <path d="M33.225 47.1591C33.0107 48.1568 32.3572 49.0121 31.4414 49.7875C31.762 49.7637 32.0754 49.6844 32.3662 49.5537C32.3726 49.8053 32.3433 50.0565 32.2793 50.3006C33.1111 49.5224 33.7376 48.6628 34.0554 47.6822L33.868 47.5525L33.225 47.1591Z" fill="#108E66"/>
    <path opacity="0.2" d="M33.0977 47.608L33.4349 47.6893L33.916 48.067C33.9685 47.9416 34.0149 47.8161 34.0569 47.6878L33.8696 47.5581L33.2266 47.1647C33.1943 47.3151 33.1513 47.4633 33.0977 47.608Z" fill="#272B2A"/>
    <path d="M34.5525 45.0566C34.3936 44.9611 34.1673 44.964 33.911 45.0894C33.6375 45.241 33.4056 45.4518 33.2339 45.7047C33.0623 45.9575 32.9559 46.2454 32.9232 46.5447C32.9097 46.8156 32.9982 47.0123 33.1525 47.1149H33.16L33.8705 47.5511C33.7101 47.4527 33.6187 47.2546 33.6337 46.9809C33.6661 46.6813 33.7724 46.3932 33.9441 46.14C34.1157 45.8869 34.3478 45.6759 34.6214 45.5242C34.8792 45.3987 35.107 45.3959 35.2674 45.4942L34.5569 45.0595L34.5525 45.0566Z" fill="#108E66"/>
    <path opacity="0.15" d="M34.0542 45.9902C34.1681 45.8485 34.3034 45.7236 34.4559 45.6196L33.7454 45.1849C33.5927 45.2885 33.4572 45.4134 33.3438 45.5555L34.0542 45.9902ZM33.9043 45.0894L34.6193 45.527C34.699 45.4873 34.7843 45.4585 34.8726 45.4415L34.1696 45.0024C34.0787 45.0192 33.9908 45.0485 33.9088 45.0894H33.9043Z" fill="white"/>
    <path opacity="0.1" d="M33.0132 46.1342C32.9629 46.2663 32.9327 46.4045 32.9232 46.5447C32.9097 46.8156 32.9982 47.0123 33.1525 47.1149H33.16L33.8705 47.5511C33.7101 47.4527 33.6187 47.2546 33.6337 46.9809C33.6418 46.8402 33.6716 46.7014 33.7221 46.569L33.0132 46.1342Z" fill="#272B2A"/>
    <path d="M57.2625 54.7692C56.7799 55.5688 55.7442 56.072 54.2648 56.0905C51.2806 56.1276 47.6235 54.1805 46.0962 51.7416C45.3468 50.5429 45.2509 49.4496 45.7005 48.6428C45.708 48.63 45.714 48.6158 45.7215 48.6029L48.4748 43.9248C47.9967 44.7359 48.0836 45.8477 48.8466 47.0607C50.3739 49.5009 54.031 51.448 57.0167 51.4095C58.5155 51.3896 59.5497 50.8793 60.0278 50.0682L57.2775 54.7407C57.273 54.7563 57.267 54.762 57.2625 54.7692Z" fill="#37474F"/>
    <path d="M58.2715 53.0602C57.7873 53.8598 56.7516 54.363 55.2738 54.3815C52.2881 54.4186 48.631 52.4715 47.1037 50.0327C46.3543 48.8339 46.2583 47.7406 46.7095 46.9339C46.7151 46.9202 46.7216 46.9068 46.729 46.8939L47.0197 46.4008C46.5416 47.2118 46.6286 48.3236 47.3915 49.5437C48.9188 51.9826 52.5759 53.9297 55.5616 53.8912C57.0604 53.8726 58.0946 53.3609 58.5727 52.5499L58.2849 53.0388L58.2715 53.0602Z" fill="#108E66"/>
    <path opacity="0.2" d="M48.5753 50.0825C47.3552 49.5309 46.4005 50.761 46.9086 52.7908C46.6039 52.4665 46.3319 52.1157 46.0962 51.7431C45.3468 50.5444 45.2509 49.4511 45.7005 48.6443C45.708 48.6315 45.714 48.6172 45.7215 48.6044L48.4748 43.9263C47.9967 44.7373 48.0836 45.8491 48.8465 47.0621C50.3739 49.5024 54.031 51.4495 57.0167 51.411C53.4105 51.7103 50.2075 50.818 48.5753 50.0825Z" fill="#272B2A"/>
    <path d="M60.0299 50.0773C61.0609 48.3257 59.3104 45.5288 56.12 43.8304C52.9296 42.1319 49.5074 42.175 48.4763 43.9266C47.4452 45.6782 49.1957 48.4751 52.3862 50.1736C55.5766 51.8721 58.9988 51.829 60.0299 50.0773Z" fill="#272B2A"/>
    <path d="M63.8904 52.1921L57.3465 41.744L44.56 41.9022L44.1328 42.6263L50.6752 53.0787L63.4647 52.9162L63.8904 52.1921Z" fill="#37474F"/>
    <path opacity="0.2" d="M50.6758 53.0787L51.1015 52.3546L63.891 52.1921L63.4653 52.9162L50.6758 53.0787Z" fill="white"/>
    <path opacity="0.2" d="M51.1016 52.3546L63.6273 52.3332L63.4654 52.9162L63.8911 52.1921L51.1016 52.3546Z" fill="white"/>
    <path d="M57.3451 41.744L44.5586 41.9022L51.0995 52.3546L63.889 52.1921L57.3451 41.744Z" fill="#455A64"/>
    <path d="M58.1899 36.0039C58.1899 35.8928 58.016 35.7673 57.941 35.8956C57.7244 36.306 57.5323 36.7276 57.3655 37.1585C57.1788 37.577 56.963 37.9832 56.7195 38.3744C56.2564 39.1199 55.6703 39.7413 55.0483 40.3699C54.4263 40.9985 53.8957 41.6528 53.584 42.4752C53.3078 43.2002 53.199 43.9731 53.2647 44.7416C53.3039 45.1908 53.3995 45.6339 53.5495 46.0615C53.6929 46.5189 53.9529 46.9356 54.3064 47.2745C54.3918 47.3472 54.5477 47.3386 54.5162 47.1947C54.4633 47.0146 54.3957 46.8387 54.3139 46.6687C54.2419 46.4834 54.173 46.2938 54.107 46.1057C53.9754 45.7275 53.8929 45.3355 53.8612 44.9383C53.7979 44.199 53.8974 43.4552 54.1535 42.7546C54.4483 42.0172 54.9086 41.3498 55.5025 40.799C56.1499 40.159 56.769 39.5161 57.2516 38.7535C57.5118 38.3464 57.7311 37.9169 57.9066 37.4707C57.9985 37.238 58.0746 37 58.1344 36.758C58.1909 36.5105 58.2096 36.2565 58.1899 36.0039Z" fill="#108E66"/>
    <path d="M56.016 30.4093C56.4777 31.2983 56.8651 32.2205 57.1746 33.1674C57.7846 35.0204 57.4548 35.8628 57.9959 35.9084C58.489 35.9484 59.1275 34.3861 59.3524 32.5659C59.4828 31.6055 59.3538 30.6293 58.9776 29.7294C58.9596 29.688 58.9265 29.6543 58.8843 29.6344C58.8422 29.6144 58.7939 29.6097 58.7483 29.621C58.7119 29.6299 58.6799 29.6506 58.6578 29.6794C58.6356 29.7083 58.6247 29.7436 58.6269 29.7793C58.564 29.6367 58.522 29.5313 58.3586 29.5569C58.3336 29.5623 58.31 29.5725 58.2893 29.587C58.2687 29.6015 58.2514 29.6199 58.2386 29.6411C58.2257 29.6623 58.2177 29.6857 58.2149 29.71C58.2121 29.7343 58.2146 29.7588 58.2222 29.7821C58.3616 30.2767 58.6509 31.484 58.4665 32.4504C58.4201 31.2545 57.9569 30.1285 57.7051 29.5826C57.6866 29.5417 57.6532 29.5086 57.6111 29.4893C57.569 29.4699 57.521 29.4656 57.4758 29.4771C57.4492 29.484 57.4243 29.4962 57.403 29.513C57.3817 29.5297 57.3644 29.5505 57.3522 29.5741C57.34 29.5977 57.3332 29.6235 57.3323 29.6498C57.3314 29.6761 57.3364 29.7022 57.3469 29.7265C57.5867 30.2739 58.2462 31.7221 58.1233 33.4881C58.0469 31.9416 57.3934 30.519 57.1656 30.0772C57.1444 30.0261 57.1032 29.9848 57.0505 29.9622C56.9979 29.9396 56.9381 29.9374 56.8838 29.956C56.8566 29.9675 56.8323 29.9843 56.8126 30.0055C56.7928 30.0266 56.778 30.0515 56.7692 30.0785C56.7604 30.1055 56.7578 30.134 56.7615 30.162C56.7653 30.1901 56.7753 30.217 56.7909 30.2411C57.0082 30.6687 57.5403 31.8846 57.6317 32.9622C57.6002 32.8752 56.8823 31.1605 56.4042 30.2368C56.3846 30.1975 56.3509 30.1661 56.3091 30.1483C56.2673 30.1305 56.2202 30.1275 56.1763 30.1399L56.1419 30.1484C56.1139 30.1554 56.0879 30.1681 56.0658 30.1858C56.0436 30.2034 56.0259 30.2255 56.0139 30.2505C56.0018 30.2754 55.9957 30.3026 55.9961 30.3301C55.9965 30.3576 56.0033 30.3846 56.016 30.4093ZM58.7258 33.7176C58.8757 32.8752 59.105 31.457 58.7258 30.1413C59.2774 31.7435 58.9986 32.7669 58.7258 33.7176Z" fill="#108E66"/>
    <path d="M57.5363 36.222C57.6144 36.3231 57.7223 36.3999 57.8463 36.4427C57.9704 36.4855 58.1049 36.4924 58.2331 36.4624C58.3612 36.4325 58.4771 36.3671 58.5661 36.2745C58.6551 36.1819 58.7132 36.0662 58.7332 35.9422C58.7531 35.8182 58.7339 35.6913 58.678 35.5777C58.6221 35.4641 58.532 35.3687 58.4191 35.3038C58.3063 35.2388 58.1757 35.2072 58.0439 35.2128C57.9121 35.2184 57.785 35.2611 57.6787 35.3354C57.608 35.3846 57.5482 35.4466 57.5028 35.5179C57.4573 35.5891 57.4271 35.6682 57.4139 35.7506C57.4006 35.833 57.4047 35.917 57.4257 35.9979C57.4467 36.0788 57.4843 36.155 57.5363 36.222Z" fill="#108E66"/>
    <path opacity="0.2" d="M57.5363 36.222C57.6144 36.3231 57.7223 36.3999 57.8463 36.4427C57.9704 36.4855 58.1049 36.4924 58.2331 36.4624C58.3612 36.4325 58.4771 36.3671 58.5661 36.2745C58.6551 36.1819 58.7132 36.0662 58.7332 35.9422C58.7531 35.8182 58.7339 35.6913 58.678 35.5777C58.6221 35.4641 58.532 35.3687 58.4191 35.3038C58.3063 35.2388 58.1757 35.2072 58.0439 35.2128C57.9121 35.2184 57.785 35.2611 57.6787 35.3354C57.608 35.3846 57.5482 35.4466 57.5028 35.5179C57.4573 35.5891 57.4271 35.6682 57.4139 35.7506C57.4006 35.833 57.4047 35.917 57.4257 35.9979C57.4467 36.0788 57.4843 36.155 57.5363 36.222Z" fill="#272B2A"/>
    <path d="M53.5305 46.5989C53.572 46.541 53.629 46.4947 53.6957 46.4648C53.7624 46.435 53.8363 46.4227 53.9097 46.4293C54.1151 46.437 54.3157 46.4907 54.4951 46.586C54.6746 46.6814 54.8278 46.8157 54.9424 46.978C54.9864 47.0342 55.0139 47.1005 55.0221 47.1702C55.0302 47.2398 55.0188 47.3103 54.9888 47.3743L54.8539 47.6081C54.812 47.6659 54.7546 47.7121 54.6877 47.7419C54.6208 47.7717 54.5468 47.784 54.4732 47.7777C54.2681 47.7696 54.0679 47.7156 53.8888 47.6203C53.7096 47.525 53.5566 47.3909 53.442 47.2289C53.3977 47.1726 53.3701 47.106 53.3619 47.0361C53.3537 46.9662 53.3654 46.8954 53.3956 46.8312L53.5305 46.5989Z" fill="#272B2A"/>
    <path d="M54.6079 47.5439C54.9856 47.5439 55.134 47.2859 54.9421 46.9738C54.8276 46.8114 54.6743 46.6771 54.4949 46.5817C54.3154 46.4864 54.1148 46.4327 53.9094 46.425C53.5332 46.425 53.3833 46.683 53.5767 46.9951C53.6911 47.1573 53.8441 47.2915 54.0233 47.3868C54.2024 47.4822 54.4027 47.536 54.6079 47.5439Z" fill="#37474F"/>
    <path d="M11.2847 57.5857C11.5694 58.4681 12.4597 59.1779 13.8971 59.51C16.7989 60.18 20.8202 59.0568 22.8811 57.0028C23.8928 55.995 24.242 54.9488 23.9932 54.0665C23.9932 54.0522 23.9932 54.0365 23.9827 54.0237L22.3955 48.8909C22.6713 49.7832 22.325 50.8479 21.2953 51.8756C19.2344 53.9296 15.2131 55.0514 12.3129 54.3815C10.862 54.0465 9.96569 53.3267 9.69141 52.4344L11.2757 57.5743C11.2789 57.578 11.2819 57.5818 11.2847 57.5857Z" fill="#37474F"/>
    <path d="M10.7027 55.7114C10.986 56.5923 11.8763 57.3021 13.3137 57.6342C16.2154 58.3042 20.2368 57.1824 22.2976 55.1284C23.3094 54.1192 23.6586 53.073 23.4098 52.1907C23.4098 52.1764 23.4098 52.1622 23.3993 52.1479L23.2314 51.5991C23.5072 52.4914 23.1625 53.5562 22.1313 54.5839C20.0719 56.6393 16.049 57.7611 13.1488 57.0911C11.6979 56.7548 10.8031 56.0364 10.5273 55.1441L10.6937 55.6814C10.6957 55.6917 10.6987 55.7017 10.7027 55.7114Z" fill="#108E66"/>
    <path opacity="0.2" d="M20.8528 54.8647C22.1703 54.5796 22.8133 55.9879 21.8436 57.858C22.2166 57.6043 22.5638 57.318 22.8807 57.0028C23.8925 55.995 24.2417 54.9488 23.9929 54.0665C23.9929 54.0522 23.9929 54.0365 23.9824 54.0237L22.3951 48.8909C22.6709 49.7832 22.3247 50.8479 21.295 51.8756C19.2341 53.9296 15.2127 55.0514 12.3125 54.3815C15.7568 55.4249 19.0962 55.2353 20.8528 54.8647Z" fill="#272B2A"/>
    <path d="M17.1177 54.1437C20.6262 53.1649 22.9886 50.8099 22.3944 48.8836C21.8002 46.9574 18.4743 46.1894 14.9659 47.1682C11.4574 48.147 9.09498 50.5021 9.68919 52.4283C10.2834 54.3545 13.6093 55.1226 17.1177 54.1437Z" fill="#272B2A"/>
    <path d="M5.42969 53.6731L14.2593 44.8755L26.6876 47.742L26.9334 48.5374L18.1053 57.3392L5.6755 54.4684L5.42969 53.6731Z" fill="#37474F"/>
    <path opacity="0.2" d="M18.1053 57.3391L17.8595 56.5438L5.42969 53.673L5.6755 54.4684L18.1053 57.3391Z" fill="white"/>
    <path opacity="0.2" d="M17.8595 56.5438L5.65451 53.8669L5.6755 54.4684L5.42969 53.673L17.8595 56.5438Z" fill="white"/>
    <path d="M14.2593 44.8755L26.6876 47.742L17.8595 56.5438L5.42969 53.6731L14.2593 44.8755Z" fill="#455A64"/>
    <path d="M8.36462 58.2713C8.4274 58.0578 8.50449 57.8483 8.59544 57.6442C8.67771 57.4185 8.74283 57.1874 8.79029 56.9529C8.8655 56.4754 8.90108 55.9931 8.89671 55.5104C8.92784 54.6808 9.14394 53.867 9.53071 53.1228C9.89375 52.4238 10.4135 51.809 11.0534 51.3216C11.6933 50.8342 12.4377 50.4862 13.2343 50.302C13.6983 50.1991 14.1746 50.1555 14.6507 50.1723C14.8777 50.1782 15.1038 50.202 15.3267 50.2435C15.559 50.2877 15.8348 50.3248 16.0281 50.4659C16.1361 50.5443 16.0401 50.7638 15.9142 50.7652C15.6962 50.7529 15.479 50.7291 15.2637 50.694C15.0569 50.6726 14.8501 50.6598 14.6417 50.6569C14.2528 50.6538 13.8648 50.6915 13.4846 50.7695C12.7325 50.9159 12.0292 51.2344 11.4357 51.6974C10.8608 52.1608 10.3925 52.732 10.0604 53.3753C9.72819 54.0187 9.5392 54.7203 9.50523 55.4362C9.45277 56.434 9.4138 57.5743 8.66139 58.3455C8.57596 58.441 8.31966 58.4638 8.36462 58.2713Z" fill="#108E66"/>
    <path d="M3.74836 62.1869L3.77084 62.2111C3.80178 62.2434 3.8437 62.2642 3.88922 62.27C3.93475 62.2757 3.98093 62.266 4.01964 62.2425C4.93093 61.6909 6.49121 60.5905 6.56765 60.532C5.89318 61.4044 4.76756 62.1798 4.34789 62.4321C4.32225 62.4451 4.29975 62.4632 4.28182 62.4849C4.26389 62.5067 4.25092 62.5318 4.24373 62.5586C4.23655 62.5854 4.2353 62.6134 4.24007 62.6407C4.24484 62.6679 4.25552 62.694 4.27145 62.7172C4.30723 62.7582 4.35805 62.7849 4.41366 62.7918C4.46928 62.7986 4.52558 62.7852 4.57121 62.7542C5.00887 62.4919 6.34882 61.6053 7.2691 60.3311C6.40428 61.899 5.04035 62.8012 4.53524 63.1476C4.51295 63.1631 4.49437 63.1829 4.48075 63.2058C4.46712 63.2286 4.45876 63.254 4.45621 63.2801C4.45366 63.3062 4.45698 63.3326 4.46595 63.3574C4.47493 63.3823 4.48935 63.405 4.50826 63.4241C4.54022 63.4566 4.58339 63.4771 4.62989 63.4818C4.6764 63.4865 4.72313 63.4751 4.76156 63.4498C5.27716 63.1091 6.29187 62.3822 6.99032 61.3873C6.61412 62.3009 5.70283 63.1847 5.31163 63.5368C5.2928 63.5534 5.27777 63.5736 5.2675 63.596C5.25723 63.6185 5.25193 63.6427 5.25193 63.6672C5.25193 63.6916 5.25723 63.7159 5.2675 63.7383C5.27777 63.7607 5.2928 63.7809 5.31163 63.7976C5.43604 63.9002 5.52896 63.8318 5.66236 63.7406C5.64084 63.7699 5.63072 63.8054 5.63373 63.841C5.63673 63.8767 5.65269 63.9102 5.67885 63.9359C5.71127 63.9683 5.75493 63.9884 5.80176 63.9926C5.84859 63.9968 5.89544 63.9848 5.93365 63.9587C6.74939 63.379 7.39711 62.612 7.81618 61.7294C8.62704 60.0659 8.9433 58.4168 8.50114 58.2058C8.01552 57.9763 7.83117 58.8586 6.29187 60.1329C5.50594 60.7842 4.66808 61.3766 3.78583 61.9047C3.76159 61.9192 3.74104 61.9386 3.72565 61.9615C3.71026 61.9844 3.70042 62.0104 3.69684 62.0374C3.69325 62.0644 3.69601 62.0918 3.70492 62.1176C3.71383 62.1435 3.72867 62.1672 3.74836 62.1869ZM5.94414 63.4812C6.99332 62.5518 7.58236 61.229 7.9196 60.438C7.62733 61.383 7.30208 62.3936 5.94414 63.4812Z" fill="#108E66"/>
    <path d="M8.28789 57.7126C8.41011 57.6655 8.54428 57.6539 8.67345 57.6792C8.80261 57.7046 8.92096 57.7658 9.01355 57.8552C9.10613 57.9445 9.16879 58.0579 9.1936 58.1811C9.21841 58.3043 9.20426 58.4317 9.15294 58.5473C9.10162 58.6628 9.01543 58.7613 8.90527 58.8302C8.79511 58.8992 8.66592 58.9356 8.53403 58.9347C8.40215 58.9339 8.27349 58.8959 8.16431 58.8255C8.05514 58.7551 7.97035 58.6555 7.92067 58.5394C7.88746 58.4622 7.87061 58.3795 7.8711 58.2961C7.8716 58.2127 7.88942 58.1302 7.92354 58.0534C7.95767 57.9766 8.00742 57.9069 8.06995 57.8484C8.13248 57.7899 8.20654 57.7438 8.28789 57.7126Z" fill="#108E66"/>
    <path opacity="0.2" d="M8.28789 57.7126C8.41011 57.6655 8.54428 57.6539 8.67345 57.6792C8.80261 57.7046 8.92096 57.7658 9.01355 57.8552C9.10613 57.9445 9.16879 58.0579 9.1936 58.1811C9.21841 58.3043 9.20426 58.4317 9.15294 58.5473C9.10162 58.6628 9.01543 58.7613 8.90527 58.8302C8.79511 58.8992 8.66592 58.9356 8.53403 58.9347C8.40215 58.9339 8.27349 58.8959 8.16431 58.8255C8.05514 58.7551 7.97035 58.6555 7.92067 58.5394C7.88746 58.4622 7.87061 58.3795 7.8711 58.2961C7.8716 58.2127 7.88942 58.1302 7.92354 58.0534C7.95767 57.9766 8.00742 57.9069 8.06995 57.8484C8.13248 57.7899 8.20654 57.7438 8.28789 57.7126Z" fill="#272B2A"/>
    <path d="M16.8383 50.4175C16.8112 50.352 16.7662 50.2947 16.708 50.2513C16.6497 50.208 16.5804 50.1802 16.5071 50.1709C16.3051 50.1353 16.0972 50.1455 15.9001 50.2004C15.703 50.2554 15.5223 50.3537 15.3725 50.4873C15.3162 50.5329 15.2738 50.5919 15.2495 50.6584C15.2253 50.7248 15.2201 50.7961 15.2346 50.865C15.2466 50.9064 15.2975 51.0717 15.311 51.1131C15.3384 51.1783 15.3835 51.2355 15.4417 51.2789C15.4998 51.3222 15.5691 51.35 15.6423 51.3597C15.8442 51.3952 16.0521 51.3851 16.2492 51.3301C16.4463 51.2751 16.6271 51.1769 16.7769 51.0432C16.8328 50.9974 16.8749 50.9383 16.8991 50.872C16.9234 50.8056 16.9287 50.7344 16.9148 50.6655C16.9028 50.6242 16.8518 50.4588 16.8383 50.4175Z" fill="#272B2A"/>
    <path d="M15.5638 51.1102C15.198 51.0261 15.1141 50.7467 15.3719 50.4873C15.5217 50.3537 15.7024 50.2554 15.8995 50.2004C16.0966 50.1455 16.3046 50.1353 16.5065 50.1709C16.8722 50.255 16.9562 50.5344 16.6984 50.7938C16.5487 50.9276 16.368 51.026 16.1708 51.081C15.9737 51.136 15.7657 51.146 15.5638 51.1102Z" fill="#37474F"/>
    <path d="M6.19392 10.6306H6.14146C6.07273 10.6379 6.00878 10.6675 5.96043 10.7145C5.91208 10.7616 5.88231 10.823 5.87617 10.8885C5.75027 12.4408 5.72628 15.2431 5.73977 15.3828C5.24066 13.8149 5.27514 11.8093 5.33359 11.1066C5.34085 11.0646 5.33862 11.0215 5.32705 10.9803C5.31549 10.9391 5.29485 10.9008 5.2665 10.8677C5.23815 10.8347 5.20275 10.8078 5.16264 10.7888C5.12252 10.7698 5.07862 10.7591 5.03383 10.7574C4.9466 10.7603 4.86393 10.7952 4.80305 10.8547C4.74218 10.9142 4.7078 10.9937 4.70708 11.0767C4.64413 11.8193 4.5572 14.1726 5.35308 16.392C4.14352 13.9688 4.22895 11.5756 4.24544 10.6776C4.24559 10.638 4.23708 10.5989 4.22045 10.5626C4.20382 10.5263 4.17943 10.4937 4.14883 10.4669C4.11824 10.4401 4.08211 10.4197 4.04275 10.4068C4.00339 10.394 3.96165 10.3891 3.9202 10.3925H3.9127C3.84234 10.4005 3.77724 10.432 3.72895 10.4813C3.68066 10.5306 3.6523 10.5946 3.64891 10.6619C3.61444 11.5656 3.61893 13.3987 4.24844 15.1091C3.42408 13.8448 3.12582 11.9889 3.03289 11.2164C3.02921 11.1803 3.01789 11.1452 2.99961 11.1133C2.98132 11.0815 2.95645 11.0534 2.9265 11.0309C2.89654 11.0084 2.86211 10.9919 2.82527 10.9824C2.78843 10.9729 2.74995 10.9705 2.71214 10.9755C2.46783 11.0268 2.47083 11.195 2.46483 11.4302C2.44662 11.3791 2.41041 11.3356 2.36233 11.3071C2.31426 11.2785 2.25728 11.2666 2.20104 11.2734C2.13237 11.284 2.0697 11.3169 2.02376 11.3666C1.97782 11.4162 1.95148 11.4795 1.94924 11.5457C1.94623 13.0138 2.33508 14.4586 3.07935 15.7448C4.46277 18.1922 6.27935 20.0581 6.95083 19.7359C7.68526 19.3839 6.7275 18.369 6.50118 15.4341C6.38513 13.9354 6.39164 12.4305 6.52066 10.9327C6.52345 10.8916 6.51683 10.8504 6.50126 10.812C6.4857 10.7735 6.46156 10.7388 6.43051 10.71C6.39945 10.6813 6.36222 10.6593 6.32138 10.6456C6.28054 10.6319 6.23705 10.6268 6.19392 10.6306ZM2.54877 11.9875C2.77809 14.0458 3.93219 15.9259 4.63364 17.0334C3.68938 15.8375 2.69865 14.539 2.54877 11.9875Z" fill="#108E66"/>
    <path d="M32.3194 24.5709C31.7417 23.6609 31.0169 22.8432 30.1716 22.1477C29.4164 21.5024 28.5879 20.9392 27.7015 20.4686C25.9457 19.5325 23.9679 19.0375 21.955 19.0304C20.9434 19.031 19.9376 19.1751 18.9708 19.458C18.0674 19.7475 17.1967 20.1224 16.3718 20.5769C15.6104 20.9761 14.858 21.3965 14.0651 21.7372C13.8598 21.827 13.7804 21.8584 13.599 21.9239C13.3847 22.0023 13.1688 22.0665 12.95 22.1306C12.5792 22.2357 12.1971 22.3008 11.8109 22.3245C10.9285 22.3739 10.0503 22.1756 9.28538 21.7543C8.85252 21.5231 8.45596 21.2352 8.1073 20.8991C7.91529 20.7231 7.73883 20.5324 7.57971 20.3289C7.51976 20.2477 7.4598 20.1664 7.39535 20.088C7.33864 20.0172 7.27322 19.9531 7.20051 19.897C7.08055 19.8164 6.98911 19.7031 6.93821 19.572C6.85278 19.421 6.568 19.4295 6.61446 19.6362C6.66093 19.8429 6.63095 20.0638 6.6924 20.2648C6.74301 20.4063 6.81092 20.5417 6.89475 20.6682C7.01635 20.8773 7.15202 21.0787 7.30093 21.2711C7.60283 21.6416 7.96155 21.9669 8.3651 22.2361C9.06898 22.7207 9.88645 23.0348 10.7467 23.1512C12.5648 23.3835 14.2465 22.6851 15.8083 21.8755C16.5772 21.4778 17.3341 21.0587 18.1255 20.6995C18.9704 20.3136 19.8728 20.0535 20.8009 19.9284C22.7776 19.6871 24.7857 19.9836 26.5924 20.7836C27.5839 21.214 28.5187 21.7542 29.3772 22.3929C30.3529 23.1184 31.2312 23.9608 32.1095 24.7875C32.2669 24.9329 32.4033 24.7063 32.3194 24.5709Z" fill="#108E66"/>
    <path d="M7.77185 19.937C7.72132 20.121 7.61458 20.2867 7.46509 20.413C7.3156 20.5394 7.13008 20.6208 6.93198 20.6469C6.73387 20.673 6.53206 20.6427 6.35205 20.5599C6.17204 20.477 6.0219 20.3452 5.92061 20.1812C5.81931 20.0172 5.7714 19.8283 5.78293 19.6384C5.79447 19.4485 5.86492 19.2662 5.9854 19.1143C6.10587 18.9625 6.27096 18.848 6.45981 18.7854C6.64866 18.7228 6.85279 18.7148 7.04642 18.7624C7.17522 18.7941 7.29618 18.8497 7.40238 18.9259C7.50858 19.0021 7.59793 19.0975 7.66531 19.2066C7.7327 19.3157 7.77679 19.4364 7.79507 19.5617C7.81335 19.687 7.80546 19.8145 7.77185 19.937Z" fill="#108E66"/>
    <path opacity="0.2" d="M7.77185 19.937C7.72132 20.121 7.61458 20.2867 7.46509 20.413C7.3156 20.5394 7.13008 20.6208 6.93198 20.6469C6.73387 20.673 6.53206 20.6427 6.35205 20.5599C6.17204 20.477 6.0219 20.3452 5.92061 20.1812C5.81931 20.0172 5.7714 19.8283 5.78293 19.6384C5.79447 19.4485 5.86492 19.2662 5.9854 19.1143C6.10587 18.9625 6.27096 18.848 6.45981 18.7854C6.64866 18.7228 6.85279 18.7148 7.04642 18.7624C7.17522 18.7941 7.29618 18.8497 7.40238 18.9259C7.50858 19.0021 7.59793 19.0975 7.66531 19.2066C7.7327 19.3157 7.77679 19.4364 7.79507 19.5617C7.81335 19.687 7.80546 19.8145 7.77185 19.937Z" fill="#272B2A"/>
    <path d="M47.1696 19.4665L32.9052 33.0177L13.4294 28.0545L13.0742 26.7916L27.3386 13.2347L46.8144 18.2037L47.1696 19.4665Z" fill="#37474F"/>
    <path opacity="0.2" d="M27.3398 13.2347L27.6951 14.4976L47.1709 19.4665L46.8156 18.2037L27.3398 13.2347Z" fill="white"/>
    <path opacity="0.2" d="M27.6914 14.4976L46.8195 19.1544L46.812 18.2036L47.1672 19.4665L27.6914 14.4976Z" fill="white"/>
    <path d="M32.904 33.0177L13.4297 28.0545L27.6925 14.4976L47.1683 19.4665L32.904 33.0177Z" fill="#455A64"/>
    <path d="M40.5986 21.9738C40.1864 20.5741 38.8105 19.4238 36.5517 18.8494C32.0058 17.6891 25.6223 19.314 22.2934 22.4784C20.6581 24.0321 20.0676 25.667 20.4243 27.0682C20.4243 27.0895 20.4333 27.1138 20.4393 27.1352L22.3608 33.9628C21.9621 32.5474 22.5482 30.8811 24.2134 29.2975C27.5423 26.1331 33.9243 24.5096 38.4702 25.6699C40.7439 26.25 42.1259 27.416 42.5246 28.8314L40.6195 22.0123L40.5986 21.9738Z" fill="#37474F"/>
    <path d="M41.4375 24.9572C41.0253 23.5574 39.6494 22.4071 37.3906 21.8327C32.8447 20.6724 26.4612 22.2974 23.1323 25.4617C21.4986 27.0154 20.9065 28.6503 21.2647 30.0501C21.2647 30.0729 21.2722 30.0957 21.2782 30.1185L21.521 30.9737C21.1223 29.5583 21.7084 27.892 23.3721 26.3099C26.701 23.1455 33.0845 21.5205 37.6305 22.6808C39.9042 23.2609 41.2861 24.4269 41.6773 25.8423L41.4375 24.9871V24.9572Z" fill="#108E66"/>
    <path opacity="0.2" d="M25.4088 25.9278C23.321 26.3198 22.3632 24.0876 23.9655 21.177C23.3683 21.5609 22.8099 21.9965 22.2973 22.4784C20.6621 24.0321 20.0715 25.667 20.4282 27.0681C20.4282 27.0895 20.4372 27.1137 20.4432 27.1351L22.3647 33.9627C21.966 32.5473 22.5521 30.8811 24.2173 29.2974C27.5462 26.1331 33.9282 24.5096 38.4741 25.6698C33.0858 23.8909 28.1922 25.4061 25.4088 25.9278Z" fill="#272B2A"/>
    <path d="M34.0051 36.9352C39.5731 35.5183 43.3895 31.8915 42.5294 28.8344C41.6692 25.7773 36.4582 24.4477 30.8903 25.8645C25.3223 27.2813 21.5059 30.9082 22.366 33.9653C23.2262 37.0224 28.4372 38.352 34.0051 36.9352Z" fill="#272B2A"/>
    <path d="M33.8984 36.5579C39.2529 35.1954 42.9438 31.7815 42.1422 28.9328C41.3407 26.0841 36.3503 24.8793 30.9959 26.2418C25.6414 27.6043 21.9505 31.0182 22.7521 33.8669C23.5536 36.7156 28.544 37.9204 33.8984 36.5579Z" fill="#37474F"/>
    <path opacity="0.2" d="M31.7742 35.1458C28.4767 34.0796 28.0271 29.4714 30.749 27.1066L26.1611 28.2754C25.5893 28.6353 25.053 29.0436 24.5588 29.4956C21.3393 32.4732 22.2581 35.7388 26.6122 36.7893C30.7999 37.7999 36.6394 36.3916 39.9428 33.6321C37.4517 34.875 34.0224 35.8699 31.7742 35.1458Z" fill="#272B2A"/>
    <path d="M24.5668 29.4956C24.405 29.6381 24.2566 29.7963 24.1172 29.9474C24.318 30.0101 24.5264 30.07 24.7452 30.1227C29.0918 31.1732 35.237 29.611 38.4565 26.6334C38.6184 26.4908 38.7667 26.3326 38.9061 26.183C38.7038 26.1188 38.497 26.0589 38.2766 26.0062C33.9255 24.9557 27.7863 26.5122 24.5668 29.4956Z" fill="#272B2A"/>
  </g>
  <defs>
    <clipPath id="clip0_496_6601">
      <rect width="64" height="64" fill="white"/>
    </clipPath>
  </defs>
</svg>