<svg xmlns="http://www.w3.org/2000/svg" width="64" height="64" viewBox="0 0 64 64" fill="none">
  <path d="M60.2764 35.8477C58.3923 40.8947 54.542 46.3578 49.1238 47.9744C40.9318 50.4192 39.959 57.0189 25.2953 56.407C23.1542 56.3272 21.028 56.0152 18.9542 55.4765C17.9402 55.2103 16.9444 54.8789 15.9731 54.4845C7.40602 51.0157 2.94266 43.3792 2.56634 35.3882C2.0761 24.8794 9.40922 19.8707 14.1747 16.937C18.9401 14.0032 24.6835 2.63936 39.1039 3.12832C41.3059 3.19341 43.493 3.51253 45.6217 4.07936C50.4742 5.39264 55.406 8.30336 58.2719 12.544C58.487 12.8623 58.6926 13.1883 58.8889 13.5219C62.7251 20.0294 62.8467 28.9664 60.2764 35.8477Z" fill="#108E66"/>
  <path opacity="0.7" d="M60.2764 35.8477C58.3923 40.8947 54.542 46.3578 49.1238 47.9744C40.9318 50.4192 39.959 57.0189 25.2953 56.407C23.1542 56.3272 21.028 56.0152 18.9542 55.4765C17.9402 55.2103 16.9444 54.8789 15.9731 54.4845C7.40602 51.0157 2.94266 43.3792 2.56634 35.3882C2.0761 24.8794 9.40922 19.8707 14.1747 16.937C18.9401 14.0032 24.6835 2.63936 39.1039 3.12832C41.3059 3.19341 43.493 3.51253 45.6217 4.07936C50.4742 5.39264 55.406 8.30336 58.2719 12.544C58.487 12.8623 58.6926 13.1883 58.8889 13.5219C62.7251 20.0294 62.8467 28.9664 60.2764 35.8477Z" fill="white"/>
  <path d="M32.0646 40.4122C30.576 37.033 30.7961 31.4983 31.4861 31.0375C32.2451 30.5319 33.447 33.1264 34.6502 32.3674C35.8534 31.6083 36.6752 29.9623 35.6627 27.3677C34.6502 24.7731 33.3216 26.4819 32.3718 27.1117C31.4221 27.7415 30.663 27.1757 30.8537 24.8973C30.9933 23.2167 31.6486 20.128 31.984 18.6253C32.135 18.6906 32.2861 18.7533 32.4345 18.8263C29.4611 17.4336 26.1702 16.9907 24.7789 17.4336C23.3875 17.8765 23.6397 18.0032 24.3347 19.648C25.7875 23.0797 20.2873 24.256 18.7027 21.6128C17.7542 20.0307 19.1494 19.1424 18.7693 18.0032C18.3891 16.864 11.3657 18.1927 10.48 18.6995C10.48 18.6995 12.1875 23.8195 11.9353 25.6602C11.6832 27.5008 10.7961 28.3187 9.46749 26.9888C8.13885 25.6589 6.43005 26.8608 6.36605 29.0778C6.30205 31.2947 6.68221 33.0637 8.20157 32.5581C9.72093 32.0525 10.9229 30.217 11.4285 32.5581C11.9341 34.8992 11.0445 37.9341 10.5427 40.0883C10.5427 40.0883 14.5299 41.7971 16.3641 41.6704C18.1984 41.5437 19.3389 41.481 18.7693 40.3418C18.1997 39.2026 17.2499 38.4435 17.9462 37.1776C18.6425 35.9117 21.4265 36.0384 22.8819 36.3546C24.3373 36.6707 24.9709 37.7472 24.528 38.9491C24.0851 40.1511 23.3248 41.3543 24.7174 41.6064C26.0294 41.8458 29.3664 41.2967 32.6534 40.2266C32.4589 40.2893 32.2566 40.3507 32.0646 40.4122Z" stroke="#263238" stroke-width="0.5" stroke-miterlimit="10"/>
  <path d="M33.2568 40.0243C33.0623 40.0909 32.8664 40.1523 32.6719 40.2202C32.8664 40.1562 33.0623 40.0909 33.2568 40.0243Z" stroke="#263238" stroke-width="0.5" stroke-miterlimit="10"/>
  <path d="M56.354 26.4179C55.1521 26.4179 55.0881 27.3677 53.8221 27.1782C52.5562 26.9888 52.4308 24.0768 53.7594 18.9517C53.7594 18.9517 52.3041 20.0269 49.0132 20.0909C45.7223 20.1549 44.3937 19.7734 45.2167 18.5715C46.0397 17.3696 46.6721 16.4198 45.9757 15.4714C45.2794 14.5229 41.9258 14.6483 40.8557 15.4714C39.7857 16.2944 40.5396 17.2429 41.2986 18.3181C42.0577 19.3933 41.1706 20.0269 39.906 20.0909C38.6413 20.1549 35.4132 20.2189 32.4385 18.825C32.29 18.7546 32.1389 18.6893 31.9879 18.624C31.6525 20.1306 30.9972 23.2192 30.8577 24.896C30.6669 27.1744 31.426 27.744 32.3757 27.1104C33.3255 26.4768 34.6541 24.7693 35.6666 27.3664C36.6791 29.9635 35.8561 31.6058 34.6541 32.3661C33.4522 33.1264 32.2439 30.5318 31.4874 31.0374C30.7975 31.4982 30.5773 37.033 32.066 40.4122C32.4641 40.2842 32.8621 40.1562 33.2589 40.0282C36.7393 38.825 40.2196 38.2554 40.8532 39.0784C41.4868 39.9014 41.2372 39.7747 40.4103 41.0406C39.5834 42.3066 39.65 43.3818 41.0426 44.0141C42.4353 44.6464 45.8516 44.5261 46.1626 43.0656C46.4737 41.6051 44.7073 40.7872 45.5303 39.3946C46.3533 38.0019 53.6314 40.0243 53.6314 40.0243C53.6314 40.0243 51.9866 34.455 52.6189 32.6195C53.2513 30.784 53.7594 31.232 54.7719 31.9232C55.7844 32.6144 57.113 32.5568 57.6199 30.5318C58.1268 28.5069 57.5559 26.4179 56.354 26.4179Z" stroke="#263238" stroke-width="0.5" stroke-miterlimit="10"/>
  <path d="M52.5927 12.9966C54.2037 12.2361 54.8932 10.3137 54.1327 8.70269C53.3722 7.09171 51.4498 6.40224 49.8388 7.16272C48.2278 7.92319 47.5384 9.84563 48.2988 11.4566C49.0593 13.0676 50.9817 13.757 52.5927 12.9966Z" fill="#108E66" stroke="#263238" stroke-width="0.4" stroke-miterlimit="10"/>
  <path d="M51.4885 12.723C52.9455 12.5735 54.0055 11.2711 53.856 9.81396C53.7064 8.35687 52.404 7.2969 50.9469 7.44644C49.4898 7.59599 48.4298 8.89843 48.5794 10.3555C48.7289 11.8126 50.0314 12.8726 51.4885 12.723Z" fill="white" stroke="#263238" stroke-width="0.4" stroke-miterlimit="10"/>
  <path d="M52.0443 11.8286C53.0076 11.3704 53.417 10.218 52.9588 9.25469C52.5006 8.29138 51.3482 7.88194 50.3849 8.34018C49.4215 8.79842 49.0121 9.95081 49.4703 10.9141C49.9286 11.8774 51.081 12.2869 52.0443 11.8286Z" fill="#108E66" stroke="#263238" stroke-width="0.4" stroke-miterlimit="10"/>
  <path d="M52.4358 10.0826C52.4358 9.84131 52.3642 9.60547 52.2302 9.40487C52.0962 9.20426 51.9056 9.04791 51.6827 8.95559C51.4598 8.86326 51.2146 8.8391 50.978 8.88617C50.7413 8.93324 50.524 9.04942 50.3534 9.22002C50.1828 9.39061 50.0666 9.60797 50.0195 9.84459C49.9725 10.0812 49.9966 10.3265 50.0889 10.5494C50.1813 10.7723 50.3376 10.9628 50.5382 11.0968C50.7388 11.2309 50.9747 11.3024 51.2159 11.3024C51.3762 11.3026 51.5349 11.2711 51.6829 11.2099C51.831 11.1487 51.9656 11.0588 52.0789 10.9455C52.1922 10.8322 52.282 10.6977 52.3433 10.5496C52.4045 10.4015 52.4359 10.2428 52.4358 10.0826Z" fill="white" stroke="#263238" stroke-width="0.4" stroke-miterlimit="10"/>
  <path d="M51.78 10.0826C51.7802 9.97062 51.7472 9.86111 51.6852 9.76791C51.6232 9.6747 51.535 9.60199 51.4316 9.55897C51.3282 9.51595 51.2144 9.50456 51.1046 9.52625C50.9948 9.54793 50.8938 9.60172 50.8146 9.68079C50.7353 9.75986 50.6813 9.86067 50.6594 9.97045C50.6375 10.0802 50.6486 10.1941 50.6914 10.2975C50.7342 10.401 50.8067 10.4894 50.8997 10.5516C50.9928 10.6138 51.1022 10.6471 51.2142 10.6471C51.364 10.6471 51.5077 10.5876 51.6138 10.4818C51.7199 10.376 51.7796 10.2324 51.78 10.0826Z" fill="#108E66" stroke="#263238" stroke-width="0.4" stroke-miterlimit="10"/>
  <path d="M51.4478 9.19809L51.2148 10.0826L52.0494 10.2656L51.4478 9.19809Z" fill="#263238" stroke="#263238" stroke-width="0.4" stroke-miterlimit="10"/>
  <path d="M51.8047 9.69089L55.4744 7.69153" stroke="#263238" stroke-width="0.4" stroke-miterlimit="10"/>
  <path d="M54.2969 8.34944L54.3519 7.39072L56.0761 6.40512V7.49952L54.2969 8.34944Z" fill="#263238" stroke="#263238" stroke-width="0.4" stroke-miterlimit="10"/>
  <path d="M56.8158 8.02048L56.0606 7.46368L54.2891 8.39424L55.1428 8.88832L56.8158 8.02048Z" fill="#263238" stroke="#263238" stroke-width="0.4" stroke-miterlimit="10"/>
  <path d="M34.306 10.2784H33.0234V13.3325H34.306V10.2784Z" fill="#108E66" stroke="#263238" stroke-width="0.4" stroke-miterlimit="10"/>
  <path d="M36.1966 9.35297H34.9141V13.3325H36.1966V9.35297Z" fill="#108E66" stroke="#263238" stroke-width="0.4" stroke-miterlimit="10"/>
  <path d="M38.0872 10.2784H36.8047V13.3325H38.0872V10.2784Z" fill="#108E66" stroke="#263238" stroke-width="0.4" stroke-miterlimit="10"/>
  <path d="M39.9779 9.15201H38.6953V13.3325H39.9779V9.15201Z" fill="#108E66" stroke="#263238" stroke-width="0.4" stroke-miterlimit="10"/>
  <path d="M41.8685 7.62241H40.5859V13.3325H41.8685V7.62241Z" fill="#108E66" stroke="#263238" stroke-width="0.4" stroke-miterlimit="10"/>
  <path d="M40.1665 5.20319L40.667 5.41695L37.2635 8.68351L35.6379 7.79647L33.0625 9.36191V9.83423L35.6481 8.26239L37.33 9.18015L40.946 5.70879L41.1393 6.21695L41.8548 4.55679L40.1665 5.20319Z" fill="#263238" stroke="#263238" stroke-width="0.4" stroke-linecap="round" stroke-linejoin="round"/>
  <path d="M25.2356 13.2043C26.9699 12.7972 28.0458 11.0612 27.6387 9.32693C27.2316 7.59262 25.4957 6.5167 23.7613 6.9238C22.027 7.3309 20.9511 9.06686 21.3582 10.8012C21.7653 12.5355 23.5013 13.6114 25.2356 13.2043Z" fill="white" stroke="#263238" stroke-width="0.4" stroke-miterlimit="10"/>
  <path d="M25.138 12.8602C26.6818 12.5078 27.6476 10.9706 27.2951 9.42682C26.9427 7.88302 25.4055 6.91724 23.8617 7.26969C22.3179 7.62213 21.3521 9.15933 21.7046 10.7031C22.057 12.2469 23.5942 13.2127 25.138 12.8602Z" fill="#108E66" stroke="#263238" stroke-width="0.4" stroke-miterlimit="10"/>
  <path d="M24.8917 12.6367C26.3036 12.4178 27.2707 11.0959 27.0519 9.68409C26.8331 8.27225 25.5112 7.30512 24.0993 7.52393C22.6875 7.74275 21.7204 9.06466 21.9392 10.4765C22.158 11.8883 23.4799 12.8555 24.8917 12.6367Z" fill="white" stroke="#263238" stroke-width="0.4" stroke-miterlimit="10"/>
  <path d="M24.9698 8.94435C25.0538 9.05546 25.1063 9.19435 25.1273 9.36102H25.5V9.80546H25.1273C25.0853 10.061 24.9803 10.2758 24.8123 10.4499C24.6479 10.6203 24.4344 10.7221 24.1719 10.7555L25.227 11.9999H24.5026L23.5 10.7666V10.1888H24.0459C24.2979 10.1888 24.4519 10.061 24.5079 9.80546H23.5V9.36102H24.5131C24.4641 9.10546 24.3154 8.97769 24.0669 8.97769H23.5V8.49991H25.5V8.94435H24.9698Z" fill="#263238"/>
  <path d="M14.0438 7.56735H8.05469V13.1981H14.0438V7.56735Z" fill="white" stroke="#263238" stroke-width="0.4" stroke-miterlimit="10"/>
  <path d="M14.0438 7.56735H8.05469V9.01503H14.0438V7.56735Z" fill="#108E66" stroke="#263238" stroke-width="0.4" stroke-linecap="round" stroke-linejoin="round"/>
  <path d="M9.25977 9.81888H8.54297V10.5357H9.25977V9.81888Z" fill="#108E66" stroke="#263238" stroke-width="0.4" stroke-linecap="round" stroke-linejoin="round"/>
  <path d="M10.334 9.81888H9.61719V10.5357H10.334V9.81888Z" fill="#108E66" stroke="#263238" stroke-width="0.4" stroke-linecap="round" stroke-linejoin="round"/>
  <path d="M11.4082 9.81888H10.6914V10.5357H11.4082V9.81888Z" fill="#108E66" stroke="#263238" stroke-width="0.4" stroke-linecap="round" stroke-linejoin="round"/>
  <path d="M12.4824 9.81888H11.7656V10.5357H12.4824V9.81888Z" fill="#108E66" stroke="#263238" stroke-width="0.4" stroke-linecap="round" stroke-linejoin="round"/>
  <path d="M13.5566 9.81888H12.8398V10.5357H13.5566V9.81888Z" fill="#108E66" stroke="#263238" stroke-width="0.4" stroke-linecap="round" stroke-linejoin="round"/>
  <path d="M9.25977 10.9453H8.54297V11.6621H9.25977V10.9453Z" fill="#108E66" stroke="#263238" stroke-width="0.4" stroke-linecap="round" stroke-linejoin="round"/>
  <path d="M10.334 10.9453H9.61719V11.6621H10.334V10.9453Z" fill="#108E66" stroke="#263238" stroke-width="0.4" stroke-linecap="round" stroke-linejoin="round"/>
  <path d="M11.4082 10.9453H10.6914V11.6621H11.4082V10.9453Z" fill="#108E66" stroke="#263238" stroke-width="0.4" stroke-linecap="round" stroke-linejoin="round"/>
  <path d="M12.4824 10.9453H11.7656V11.6621H12.4824V10.9453Z" fill="#108E66" stroke="#263238" stroke-width="0.4" stroke-linecap="round" stroke-linejoin="round"/>
  <path d="M13.5566 10.9453H12.8398V11.6621H13.5566V10.9453Z" fill="#108E66" stroke="#263238" stroke-width="0.4" stroke-linecap="round" stroke-linejoin="round"/>
  <path d="M9.25977 12.0717H8.54297V12.7885H9.25977V12.0717Z" fill="#108E66" stroke="#263238" stroke-width="0.4" stroke-linecap="round" stroke-linejoin="round"/>
  <path d="M10.334 12.0717H9.61719V12.7885H10.334V12.0717Z" fill="#108E66" stroke="#263238" stroke-width="0.4" stroke-linecap="round" stroke-linejoin="round"/>
  <path d="M11.4082 12.0717H10.6914V12.7885H11.4082V12.0717Z" fill="#108E66" stroke="#263238" stroke-width="0.4" stroke-linecap="round" stroke-linejoin="round"/>
  <path d="M12.4824 12.0717H11.7656V12.7885H12.4824V12.0717Z" fill="#108E66" stroke="#263238" stroke-width="0.4" stroke-linecap="round" stroke-linejoin="round"/>
  <path d="M13.5566 12.0717H12.8398V12.7885H13.5566V12.0717Z" fill="#108E66" stroke="#263238" stroke-width="0.4" stroke-linecap="round" stroke-linejoin="round"/>
  <path d="M9.387 6.64575H8.875V8.02815H9.387V6.64575Z" fill="#263238"/>
  <path d="M10.6643 6.64575H10.1523V8.02815H10.6643V6.64575Z" fill="#263238"/>
  <path d="M11.9456 6.64575H11.4336V8.02815H11.9456V6.64575Z" fill="#263238"/>
  <path d="M13.2229 6.64575H12.7109V8.02815H13.2229V6.64575Z" fill="#263238"/>
  <path d="M2.84403 49.6282C3.12179 49.7498 3.80147 49.7344 3.80147 49.7344C3.80147 49.7344 3.65555 49.2902 3.64275 49.2634C3.49299 48.951 3.02195 48.4365 2.63795 48.4877C2.57445 48.4981 2.51386 48.5218 2.46012 48.5572C2.40638 48.5926 2.3607 48.6389 2.32604 48.6931C2.29139 48.7473 2.26854 48.8082 2.25899 48.8718C2.24943 48.9355 2.25339 49.0004 2.27059 49.0624C2.33459 49.3274 2.60723 49.5258 2.84403 49.6282Z" fill="#108E66"/>
  <path d="M3.0776 51.5981C3.3656 51.639 3.9736 51.4637 4.02096 51.4496C4.12042 51.7967 4.24315 52.1366 4.38832 52.4672C4.47152 52.6605 4.5624 52.8512 4.65456 53.0445C4.59952 52.9626 4.5496 52.8909 4.54064 52.8819C4.31536 52.6195 3.724 52.2419 3.36816 52.3994C3.3096 52.4259 3.25731 52.4646 3.21471 52.5128C3.17211 52.561 3.14017 52.6176 3.12095 52.679C3.10174 52.7403 3.09571 52.8051 3.10323 52.8689C3.11076 52.9328 3.13169 52.9944 3.16464 53.0496C3.29264 53.289 3.61136 53.408 3.86736 53.4451C4.12336 53.4822 4.64688 53.344 4.78384 53.3043C4.81968 53.3773 4.85552 53.4515 4.89264 53.5245C5.068 53.8739 5.24464 54.2221 5.40464 54.569C5.46224 54.6906 5.51472 54.8134 5.5672 54.9363C5.51728 54.8634 5.47632 54.8083 5.46864 54.7955C5.24208 54.5395 4.65072 54.1619 4.29488 54.313C4.23664 54.3401 4.18472 54.3791 4.1425 54.4275C4.10027 54.476 4.06867 54.5327 4.04973 54.5941C4.0308 54.6555 4.02495 54.7202 4.03256 54.784C4.04017 54.8478 4.06107 54.9093 4.09392 54.9645C4.22192 55.2038 4.54192 55.3216 4.79664 55.3587C5.05136 55.3958 5.52624 55.2704 5.69264 55.2307C5.74256 55.3587 5.79248 55.4867 5.836 55.6147C5.86288 55.7005 5.89616 55.7824 5.91792 55.8707C5.93968 55.959 5.96656 56.0422 5.9896 56.1267C6.02928 56.2918 6.07152 56.4621 6.10608 56.6246C6.13168 56.7373 6.15344 56.8461 6.1752 56.9536C6.11888 56.832 6.00496 56.5952 5.99344 56.576C5.80912 56.2829 5.28176 55.8259 4.90672 55.9206C4.84588 55.9384 4.78937 55.9686 4.74074 56.0092C4.69212 56.0499 4.65243 56.1002 4.62418 56.1569C4.59593 56.2137 4.57972 56.2756 4.57658 56.339C4.57344 56.4023 4.58343 56.4655 4.60592 56.5248C4.69936 56.7808 4.98992 56.9472 5.24592 57.0227C5.51728 57.1046 6.11888 57.0291 6.1944 57.0227C6.23024 57.2032 6.26352 57.3786 6.29296 57.5437C6.35696 57.911 6.4056 58.2387 6.44272 58.5165H6.69872C6.65392 58.2285 6.59632 57.8867 6.51952 57.5027C6.48368 57.3197 6.44144 57.1251 6.39152 56.9254C6.57297 56.8529 6.74993 56.7695 6.92144 56.6758C7.11984 56.8909 7.62672 57.1418 7.68944 57.1738C7.62032 57.344 7.5512 57.5091 7.48336 57.6627C7.34256 57.9866 7.20944 58.2733 7.09168 58.5165H7.36688C7.468 58.2912 7.57936 58.0352 7.69456 57.7485C7.76624 57.5757 7.83792 57.3901 7.91088 57.1994C7.98384 57.2147 8.57904 57.335 8.8568 57.2723C9.1128 57.216 9.4136 57.0739 9.52752 56.8243C9.55581 56.7664 9.5716 56.7032 9.57387 56.6388C9.57613 56.5744 9.56483 56.5102 9.54069 56.4505C9.51655 56.3907 9.48011 56.3367 9.43373 56.292C9.38736 56.2472 9.33209 56.2127 9.27152 56.1907C8.90416 56.0627 8.3448 56.4851 8.13872 56.7629C8.1272 56.7795 8.01072 56.9715 7.94672 57.0944C7.97616 57.0163 8.0056 56.9408 8.03376 56.8602C8.09264 56.7002 8.1464 56.5389 8.20528 56.3661L8.28208 56.1101C8.30896 56.0243 8.32688 55.9322 8.3512 55.8413C8.40112 55.6326 8.4408 55.4176 8.4792 55.2013C8.62 55.2525 9.1192 55.4266 9.3752 55.4074C9.6312 55.3882 9.95632 55.2947 10.1048 55.0656C10.1419 55.013 10.1675 54.9532 10.1799 54.89C10.1923 54.8268 10.1913 54.7618 10.1768 54.699C10.1623 54.6363 10.1347 54.5774 10.0958 54.5261C10.0569 54.4747 10.0077 54.4322 9.9512 54.4013C9.60688 54.2246 8.98992 54.551 8.74544 54.7955C8.73008 54.8109 8.57392 55.0054 8.48944 55.1142C8.50992 54.9862 8.53168 54.8582 8.54832 54.72C8.59568 54.336 8.63152 53.9456 8.67632 53.5565C8.68784 53.4374 8.70064 53.3184 8.71344 53.1994C8.76336 53.2186 9.35344 53.4374 9.64272 53.4182C9.89872 53.399 10.2226 53.3056 10.3723 53.0765C10.4093 53.0238 10.4347 52.964 10.447 52.9009C10.4593 52.8377 10.4581 52.7727 10.4437 52.7101C10.4292 52.6474 10.4017 52.5885 10.3629 52.5372C10.3241 52.4858 10.275 52.4433 10.2187 52.4122C9.8744 52.2342 9.25744 52.5606 9.01168 52.8051C8.99376 52.823 8.76976 53.1046 8.716 53.1789C8.74288 52.9165 8.7736 52.6566 8.81328 52.4006C8.86593 52.055 8.94032 51.713 9.036 51.3766C9.05904 51.3856 9.676 51.6173 9.9704 51.5968C10.2264 51.5789 10.5515 51.4842 10.7 51.255C10.7369 51.2024 10.7624 51.1426 10.7747 51.0794C10.787 51.0163 10.7858 50.9513 10.7713 50.8886C10.7569 50.826 10.7293 50.7671 10.6906 50.7157C10.6518 50.6644 10.6027 50.6218 10.5464 50.5907C10.2021 50.4128 9.58512 50.7405 9.34064 50.9837C9.32144 51.0029 9.08464 51.305 9.03984 51.3677C9.03984 51.3485 9.05008 51.328 9.0552 51.3088C9.16122 50.9747 9.29702 50.6509 9.46096 50.3411C9.548 50.1683 9.64272 50.0083 9.73744 49.856C9.84752 49.911 10.3518 50.1555 10.6219 50.167C10.892 50.1786 11.2107 50.1184 11.3899 49.911C11.4326 49.8628 11.4645 49.8061 11.4837 49.7446C11.5029 49.6832 11.5089 49.6184 11.5012 49.5544C11.4936 49.4905 11.4726 49.4289 11.4395 49.3737C11.4064 49.3184 11.3621 49.2708 11.3093 49.2339C10.9867 49.0189 10.3378 49.2774 10.0677 49.4899C10.0523 49.5014 9.91664 49.6371 9.81936 49.737C9.86288 49.6691 9.9064 49.5974 9.94736 49.5322C10.1086 49.289 10.2725 49.0752 10.4184 48.8922C10.5029 48.7859 10.581 48.6925 10.6552 48.6042C10.7909 48.6042 11.3387 48.585 11.5781 48.4762C11.8174 48.3674 12.0798 48.1626 12.1362 47.895C12.1517 47.8325 12.1538 47.7674 12.1425 47.704C12.1311 47.6406 12.1065 47.5803 12.0703 47.527C12.034 47.4737 11.987 47.4287 11.9322 47.3949C11.8774 47.361 11.816 47.3391 11.7522 47.3306C11.3682 47.2896 10.9099 47.817 10.7691 48.1331C10.7576 48.16 10.6168 48.6093 10.6232 48.6093H10.6219C10.549 48.6925 10.4709 48.7821 10.389 48.8819C10.2379 49.0662 10.0702 49.2774 9.90256 49.5219C9.71579 49.7797 9.54481 50.0486 9.39056 50.327C9.21813 50.6369 9.07376 50.9617 8.9592 51.2973V51.3101C8.9592 51.1962 8.9592 50.8787 8.9592 50.8544C8.9144 50.5114 8.6264 49.8752 8.24624 49.8048C8.18265 49.7948 8.11766 49.7984 8.05553 49.8152C7.9934 49.8321 7.93551 49.8618 7.88564 49.9025C7.83576 49.9432 7.79502 49.9939 7.76607 50.0514C7.73712 50.1089 7.7206 50.1719 7.7176 50.2362C7.69584 50.5088 7.89296 50.7814 8.08496 50.953C8.30256 51.1475 8.90544 51.337 8.95408 51.3498C8.84535 51.6944 8.75983 52.0459 8.69808 52.4019C8.66096 52.6093 8.63024 52.8192 8.60208 53.0291C8.60208 52.9318 8.60208 52.8435 8.60208 52.832C8.55728 52.489 8.26928 51.8528 7.88912 51.7824C7.82563 51.7724 7.76075 51.776 7.6987 51.7927C7.63666 51.8095 7.57883 51.8391 7.52897 51.8797C7.47912 51.9202 7.43835 51.9708 7.40933 52.0281C7.3803 52.0855 7.36366 52.1483 7.36048 52.2125C7.33872 52.4851 7.53584 52.7578 7.72784 52.9306C7.91984 53.1034 8.4344 53.2749 8.57008 53.3146L8.53936 53.5578C8.49328 53.9418 8.44848 54.3334 8.39344 54.7098C8.37424 54.8378 8.34992 54.9734 8.3256 55.1053C8.3256 55.0182 8.3256 54.944 8.3256 54.9338C8.2808 54.5907 7.99408 53.9533 7.61264 53.8829C7.54907 53.8731 7.48417 53.8768 7.42212 53.8937C7.36007 53.9106 7.30227 53.9404 7.25244 53.9811C7.20261 54.0217 7.16187 54.0724 7.13286 54.1298C7.10384 54.1872 7.0872 54.25 7.084 54.3142C7.06224 54.5869 7.25936 54.8595 7.45264 55.031C7.64592 55.2026 8.108 55.36 8.26928 55.415C8.24112 55.543 8.21296 55.6813 8.17968 55.8106C8.15536 55.8963 8.13744 55.9821 8.108 56.0666C8.07856 56.151 8.05296 56.2381 8.02608 56.3226C7.9672 56.4826 7.90832 56.6477 7.84816 56.8026L7.72016 57.1149C7.74064 56.9869 7.77648 56.7219 7.77648 56.6989C7.7718 56.3949 7.68987 56.0972 7.5384 55.8336C7.54095 55.7999 7.54095 55.7661 7.5384 55.7325C7.5296 55.6691 7.50766 55.6083 7.474 55.5539C7.44034 55.4995 7.3957 55.4528 7.34292 55.4166C7.29015 55.3805 7.23041 55.3557 7.16753 55.344C7.10465 55.3323 7.04002 55.3338 6.97776 55.3485C6.604 55.4483 6.36592 56.105 6.348 56.4506C6.348 56.471 6.3608 56.6938 6.37104 56.8346C6.35312 56.7526 6.3352 56.6746 6.31472 56.5901C6.27504 56.425 6.23152 56.2611 6.18672 56.0845C6.16112 56 6.13424 55.9142 6.10864 55.8285C6.08304 55.7427 6.04848 55.6544 6.01776 55.5661C5.9448 55.3638 5.85904 55.1629 5.76944 54.9619C5.91408 54.9274 6.42736 54.7968 6.63216 54.6381C6.83696 54.4794 7.05456 54.2234 7.05328 53.9507C7.05491 53.8864 7.04301 53.8224 7.01835 53.763C6.99368 53.7035 6.95681 53.6499 6.91011 53.6056C6.86341 53.5614 6.80793 53.5274 6.74726 53.5059C6.68659 53.4844 6.62208 53.4759 6.55792 53.481C6.17392 53.5232 5.83856 54.1363 5.76944 54.4755C5.76944 54.496 5.74256 54.7443 5.73232 54.8813C5.67728 54.761 5.62224 54.6406 5.56336 54.5203C5.39056 54.1747 5.20624 53.8291 5.0232 53.4835L4.8568 53.1661C4.90928 53.1533 5.52112 53.0112 5.7528 52.8346C5.95888 52.6771 6.1752 52.4198 6.17392 52.1472C6.17555 52.0829 6.16365 52.0189 6.13899 51.9595C6.11432 51.9 6.07745 51.8464 6.03075 51.8021C5.98405 51.7578 5.92857 51.7238 5.8679 51.7024C5.80723 51.6809 5.74272 51.6724 5.67856 51.6774C5.29456 51.7197 4.9592 52.3328 4.89008 52.672C4.89008 52.6976 4.85168 53.056 4.84912 53.1469C4.72112 52.9126 4.60848 52.6797 4.50096 52.4442C4.35146 52.1275 4.22318 51.8012 4.11696 51.4675C4.14128 51.4675 4.78128 51.3165 5.01296 51.136C5.21776 50.9786 5.43536 50.7213 5.4328 50.4486C5.43462 50.3844 5.42288 50.3204 5.39837 50.261C5.37385 50.2015 5.33709 50.1479 5.29049 50.1036C5.24389 50.0593 5.18849 50.0253 5.12788 50.0038C5.06728 49.9823 5.00282 49.9738 4.93872 49.9789C4.55472 50.0211 4.21936 50.6342 4.14896 50.9722C4.14896 50.999 4.10928 51.3843 4.108 51.4547L4.08752 51.3958C3.99237 51.0587 3.92684 50.714 3.89168 50.3654C3.86992 50.1734 3.86096 49.9878 3.85456 49.8086C3.98256 49.7933 4.53424 49.719 4.76464 49.5795C4.99504 49.44 5.22928 49.2134 5.25744 48.9395C5.26628 48.8758 5.26159 48.8109 5.24368 48.7491C5.22578 48.6873 5.19506 48.6299 5.15352 48.5808C5.11198 48.5317 5.06056 48.4918 5.0026 48.4639C4.94464 48.4359 4.88144 48.4205 4.81712 48.4186C4.43312 48.4186 4.0312 48.9907 3.92112 49.3146C3.92112 49.3325 3.87632 49.5206 3.85072 49.6589C3.85072 49.577 3.85072 49.4938 3.85072 49.4157C3.85072 49.1226 3.86992 48.8538 3.88784 48.617C3.89936 48.489 3.91216 48.361 3.92624 48.247C4.0376 48.1702 4.4856 47.8541 4.62384 47.6275C4.76208 47.401 4.86832 47.0886 4.7672 46.8352C4.74546 46.7749 4.71127 46.7198 4.66686 46.6736C4.62244 46.6273 4.56879 46.591 4.50939 46.5668C4.44999 46.5427 4.38618 46.5313 4.3221 46.5334C4.25802 46.5356 4.1951 46.5512 4.13744 46.5792C3.79312 46.7571 3.70224 47.4496 3.75344 47.7901C3.75344 47.8195 3.88912 48.2726 3.89424 48.2688H3.90192C3.88656 48.3776 3.8712 48.4954 3.8584 48.6234C3.83408 48.8614 3.80976 49.129 3.80336 49.4234C3.79252 49.7401 3.79978 50.0572 3.82512 50.3731C3.85319 50.7266 3.9123 51.077 4.00176 51.4202V51.433C3.94032 51.337 3.76112 51.0758 3.74576 51.0566C3.5192 50.8006 2.92784 50.423 2.572 50.5741C2.51741 50.6016 2.46889 50.6399 2.4293 50.6865C2.38971 50.7331 2.35985 50.7871 2.34147 50.8455C2.3231 50.9038 2.3166 50.9652 2.32233 51.0261C2.32807 51.087 2.34594 51.1461 2.37488 51.2C2.50672 51.4419 2.8216 51.5597 3.0776 51.5981Z" fill="#108E66"/>
  <path d="M9.71963 49.7779C9.71963 49.7779 9.84763 49.3261 9.84763 49.2966C9.89627 48.9549 9.78619 48.265 9.43803 48.096C9.37937 48.0695 9.31576 48.0556 9.25138 48.0554C9.18699 48.0552 9.12328 48.0685 9.06443 48.0946C9.00557 48.1207 8.9529 48.159 8.90986 48.2069C8.86681 48.2547 8.83438 48.3112 8.81467 48.3725C8.72123 48.6285 8.83899 48.9446 8.97979 49.161C9.14363 49.4157 9.71835 49.7779 9.71963 49.7779Z" fill="#108E66"/>
  <path d="M50.0901 49.6282C50.3679 49.7498 51.0476 49.7344 51.0476 49.7344C51.0476 49.7344 50.9016 49.2902 50.8888 49.2634C50.7391 48.951 50.268 48.4365 49.884 48.4877C49.8205 48.4981 49.76 48.5218 49.7062 48.5572C49.6525 48.5926 49.6068 48.6389 49.5721 48.6931C49.5375 48.7473 49.5146 48.8082 49.5051 48.8718C49.4955 48.9355 49.4995 49.0004 49.5167 49.0624C49.5807 49.3274 49.8533 49.5258 50.0901 49.6282Z" fill="#108E66"/>
  <path d="M50.3234 51.5981C50.6114 51.6391 51.2194 51.4637 51.2668 51.4496C51.3668 51.7965 51.4895 52.1364 51.6341 52.4672C51.7173 52.6605 51.8082 52.8512 51.9004 53.0445C51.8453 52.9626 51.7954 52.8909 51.7865 52.8819C51.5612 52.6195 50.9698 52.2419 50.614 52.3994C50.5554 52.426 50.5031 52.4646 50.4605 52.5128C50.4179 52.561 50.386 52.6176 50.3668 52.679C50.3476 52.7403 50.3415 52.8051 50.3491 52.869C50.3566 52.9328 50.3775 52.9944 50.4105 53.0496C50.5385 53.289 50.8572 53.408 51.1132 53.4451C51.3692 53.4823 51.8927 53.344 52.0297 53.3043C52.0655 53.3773 52.1013 53.4515 52.1385 53.5245C52.3138 53.8739 52.4905 54.2221 52.6505 54.569C52.7081 54.6906 52.7605 54.8135 52.813 54.9363C52.7631 54.8634 52.7221 54.8083 52.7145 54.7955C52.4879 54.5395 51.8978 54.1619 51.5407 54.313C51.4822 54.3399 51.4301 54.3787 51.3876 54.427C51.3451 54.4753 51.3132 54.532 51.294 54.5935C51.2748 54.6549 51.2688 54.7196 51.2762 54.7836C51.2836 54.8475 51.3044 54.9091 51.3372 54.9645C51.4652 55.2039 51.7852 55.3216 52.0399 55.3587C52.2946 55.3959 52.7695 55.2704 52.9359 55.2307C52.9858 55.3587 53.037 55.4867 53.0793 55.6147C53.1061 55.7005 53.1394 55.7824 53.1612 55.8707C53.1829 55.9591 53.2098 56.0423 53.2329 56.1267C53.2725 56.2919 53.3148 56.4621 53.3493 56.6247C53.3749 56.7373 53.3967 56.8461 53.4185 56.9536C53.3621 56.832 53.2482 56.5952 53.2367 56.576C53.0524 56.2829 52.525 55.8259 52.15 55.9207C52.0882 55.9384 52.0307 55.9689 51.9815 56.0103C51.9322 56.0516 51.8921 56.1028 51.8639 56.1606C51.8357 56.2184 51.8199 56.2815 51.8176 56.3458C51.8153 56.41 51.8265 56.4741 51.8505 56.5338C51.9439 56.7898 52.2345 56.9562 52.4905 57.0317C52.7618 57.1136 53.3634 57.0381 53.4389 57.0317C53.4748 57.2122 53.5081 57.3875 53.5375 57.5527C53.6015 57.92 53.6501 58.2477 53.6873 58.5255H53.9433C53.8985 58.2375 53.8409 57.8957 53.7641 57.5117C53.7282 57.3287 53.686 57.1341 53.6361 56.9344C53.8175 56.8618 53.9945 56.7785 54.166 56.6848C54.3644 56.8999 54.8713 57.1507 54.934 57.1827C54.8649 57.353 54.7957 57.5181 54.7279 57.6717C54.5871 57.9955 54.454 58.2823 54.3362 58.5255H54.6114C54.7125 58.3002 54.8239 58.0442 54.9391 57.7575C55.0108 57.5847 55.0825 57.3991 55.1554 57.2083C55.2284 57.2237 55.8236 57.344 56.1013 57.2813C56.3573 57.225 56.6581 57.0829 56.7721 56.8333C56.8003 56.7754 56.8161 56.7122 56.8184 56.6478C56.8207 56.5834 56.8094 56.5192 56.7852 56.4595C56.7611 56.3997 56.7246 56.3457 56.6783 56.3009C56.6319 56.2562 56.5766 56.2217 56.5161 56.1997C56.1487 56.0717 55.5893 56.4941 55.3833 56.7719C55.3717 56.7885 55.2553 56.9805 55.1913 57.1034C55.2207 57.0253 55.2501 56.9498 55.2796 56.8691C55.3372 56.7091 55.3909 56.5479 55.4498 56.3751L55.5266 56.1191C55.5535 56.0333 55.5714 55.9411 55.5957 55.8502C55.6457 55.6416 55.6853 55.4266 55.7237 55.2102C55.8645 55.2614 56.3637 55.4355 56.6197 55.4163C56.8757 55.3971 57.2009 55.3037 57.3493 55.0746C57.3865 55.022 57.4121 54.9622 57.4245 54.899C57.4369 54.8358 57.4358 54.7707 57.4213 54.708C57.4068 54.6453 57.3792 54.5863 57.3403 54.535C57.3015 54.4837 57.2522 54.4412 57.1957 54.4103C56.8514 54.2336 56.2345 54.56 55.99 54.8045C55.9746 54.8199 55.8185 55.0144 55.734 55.1232C55.7545 54.9952 55.7762 54.8672 55.7929 54.729C55.8402 54.345 55.8761 53.9546 55.9145 53.5655C55.926 53.4464 55.9388 53.3274 55.9516 53.2083C56.0015 53.2275 56.5916 53.4464 56.8809 53.4272C57.1369 53.408 57.4607 53.3146 57.6105 53.0855C57.6474 53.0328 57.6728 52.973 57.6851 52.9098C57.6974 52.8467 57.6963 52.7817 57.6818 52.719C57.6673 52.6564 57.6398 52.5975 57.601 52.5461C57.5623 52.4948 57.5132 52.4522 57.4569 52.4211C57.1125 52.2432 56.4956 52.5696 56.2498 52.8141C56.2319 52.832 56.0079 53.1136 55.9541 53.1879C55.981 52.9255 56.0117 52.6656 56.0514 52.4096C56.1041 52.0639 56.1785 51.7219 56.2741 51.3856C56.2972 51.3946 56.9141 51.6263 57.2085 51.6058C57.4645 51.5879 57.7897 51.4931 57.9381 51.264C57.9751 51.2114 58.0005 51.1515 58.0128 51.0884C58.0251 51.0253 58.024 50.9603 58.0095 50.8976C57.995 50.8349 57.9675 50.776 57.9287 50.7247C57.89 50.6734 57.8408 50.6308 57.7845 50.5997C57.4402 50.4218 56.8233 50.7495 56.5788 50.9927C56.5596 51.0119 56.3228 51.3139 56.278 51.3767C56.278 51.3575 56.2882 51.337 56.2933 51.3178C56.3994 50.9837 56.5352 50.6599 56.6991 50.3501C56.7861 50.1773 56.8809 50.0173 56.9756 49.865C57.0857 49.92 57.59 50.1645 57.8601 50.176C58.1301 50.1875 58.4489 50.1274 58.6281 49.92C58.6707 49.8718 58.7026 49.8151 58.7218 49.7536C58.741 49.6921 58.747 49.6273 58.7394 49.5634C58.7318 49.4995 58.7107 49.4379 58.6776 49.3826C58.6446 49.3274 58.6002 49.2798 58.5474 49.2429C58.2249 49.0279 57.5759 49.2864 57.3058 49.4989C57.2917 49.5104 57.1548 49.6461 57.0575 49.7459C57.101 49.6781 57.1445 49.6064 57.1855 49.5411C57.3481 49.2979 57.5106 49.0842 57.6565 48.9011C57.741 48.7949 57.8191 48.7015 57.8933 48.6131C58.029 48.6131 58.5769 48.5939 58.8162 48.4851C59.0556 48.3763 59.318 48.1715 59.3743 47.904C59.3898 47.8415 59.3919 47.7764 59.3806 47.713C59.3692 47.6496 59.3446 47.5892 59.3084 47.536C59.2722 47.4827 59.2251 47.4377 59.1703 47.4038C59.1155 47.37 59.0542 47.3481 58.9903 47.3395C58.6063 47.2986 58.1468 47.8259 58.006 48.1421C57.9945 48.169 57.8537 48.6182 57.8601 48.6182H57.869C57.7961 48.7014 57.718 48.7911 57.6361 48.8909C57.485 49.0752 57.3173 49.2864 57.1497 49.5309C56.9651 49.7888 56.7962 50.0577 56.6441 50.336C56.4716 50.6459 56.3273 50.9706 56.2127 51.3063C56.2133 51.3105 56.2133 51.3148 56.2127 51.3191C56.2127 51.2051 56.2127 50.8877 56.2127 50.8634C56.1679 50.5203 55.8799 49.8842 55.4997 49.8138C55.4361 49.8038 55.3712 49.8074 55.309 49.8242C55.2469 49.841 55.189 49.8708 55.1391 49.9115C55.0893 49.9521 55.0485 50.0029 55.0196 50.0604C54.9906 50.1179 54.9741 50.1808 54.9711 50.2451C54.9493 50.5178 55.1465 50.7904 55.3385 50.9619C55.5561 51.1565 56.1589 51.3459 56.2076 51.3587C56.0989 51.7033 56.0133 52.0548 55.9516 52.4109C55.9145 52.6183 55.8837 52.8282 55.8556 53.0381C55.8556 52.9408 55.8556 52.8525 55.8556 52.841C55.8108 52.4979 55.5228 51.8618 55.1426 51.7914C55.0791 51.7814 55.0142 51.7849 54.9522 51.8017C54.8902 51.8184 54.8323 51.8481 54.7825 51.8886C54.7326 51.9292 54.6919 51.9798 54.6628 52.0371C54.6338 52.0945 54.6172 52.1573 54.614 52.2215C54.5922 52.4941 54.7893 52.7667 54.9813 52.9395C55.1733 53.1123 55.6879 53.2839 55.8236 53.3235C55.8146 53.4042 55.8031 53.4848 55.7929 53.5667C55.7468 53.9507 55.702 54.3424 55.6469 54.7187C55.6277 54.8467 55.6034 54.9824 55.5791 55.1142C55.5791 55.0272 55.5791 54.953 55.5791 54.9427C55.5343 54.5997 55.2476 53.9623 54.8661 53.8919C54.8026 53.8821 54.7377 53.8858 54.6756 53.9027C54.6136 53.9196 54.5558 53.9494 54.5059 53.99C54.4561 54.0307 54.4154 54.0813 54.3864 54.1387C54.3573 54.1961 54.3407 54.259 54.3375 54.3232C54.3157 54.5959 54.5129 54.8685 54.7061 55.04C54.8994 55.2115 55.3628 55.369 55.5228 55.424C55.4946 55.552 55.4665 55.6903 55.4332 55.8195C55.4089 55.9053 55.3909 55.9911 55.3615 56.0755C55.3321 56.16 55.3065 56.2471 55.2796 56.3315C55.2207 56.4915 55.1618 56.6567 55.1017 56.8115L54.9737 57.1239C54.9941 56.9959 55.03 56.7309 55.03 56.7079C55.0259 56.4038 54.9439 56.1059 54.7919 55.8426C54.7923 55.8088 54.7902 55.775 54.7855 55.7415C54.7767 55.6781 54.7548 55.6173 54.7211 55.5629C54.6874 55.5085 54.6428 55.4617 54.59 55.4256C54.5372 55.3894 54.4775 55.3647 54.4146 55.353C54.3518 55.3412 54.2871 55.3428 54.2249 55.3575C53.8511 55.4573 53.613 56.1139 53.5951 56.4595C53.5951 56.48 53.6079 56.7027 53.6181 56.8435C53.6002 56.7616 53.5823 56.6835 53.5618 56.5991C53.5221 56.4339 53.4786 56.2701 53.4338 56.0935C53.4082 56.009 53.3813 55.9232 53.3557 55.8375C53.3301 55.7517 53.2956 55.6634 53.2649 55.5751C53.1919 55.3728 53.1061 55.1719 53.0165 54.9709C53.1612 54.9363 53.6745 54.8058 53.8793 54.6471C54.0841 54.4883 54.3017 54.2323 54.3004 53.9597C54.302 53.8954 54.2901 53.8314 54.2654 53.7719C54.2408 53.7125 54.2039 53.6589 54.1572 53.6146C54.1105 53.5703 54.055 53.5363 53.9944 53.5149C53.9337 53.4934 53.8692 53.4849 53.805 53.4899C53.421 53.5322 53.0857 54.1453 53.0165 54.4845C53.0165 54.505 52.9897 54.7533 52.9794 54.8902C52.9244 54.7699 52.8693 54.6496 52.8105 54.5293C52.6377 54.1837 52.4533 53.8381 52.2703 53.4925L52.1039 53.1751C52.1564 53.1623 52.7682 53.0202 52.9999 52.8435C53.206 52.6861 53.4223 52.4288 53.421 52.1562C53.4226 52.0918 53.4107 52.0279 53.3861 51.9684C53.3614 51.909 53.3245 51.8554 53.2778 51.8111C53.2311 51.7668 53.1757 51.7328 53.115 51.7113C53.0543 51.6899 52.9898 51.6814 52.9257 51.6864C52.5417 51.7287 52.2063 52.3418 52.1372 52.681C52.1372 52.7066 52.0988 53.065 52.0962 53.1559C51.9746 52.9216 51.8556 52.6887 51.7481 52.4531C51.6007 52.1363 51.4746 51.81 51.3705 51.4765C51.3948 51.4765 52.0348 51.3255 52.2665 51.145C52.4713 50.9875 52.6889 50.7303 52.6863 50.4576C52.6881 50.3933 52.6764 50.3294 52.6519 50.2699C52.6273 50.2105 52.5906 50.1569 52.544 50.1126C52.4974 50.0683 52.442 50.0343 52.3814 50.0128C52.3208 49.9913 52.2563 49.9828 52.1922 49.9879C51.8082 50.0301 51.4729 50.6432 51.4025 50.9811C51.4025 51.008 51.3628 51.3933 51.3615 51.4637L51.341 51.4048C51.2459 51.0677 51.1803 50.7229 51.1452 50.3744C51.1247 50.1824 51.1145 49.9968 51.1081 49.8176C51.2361 49.8023 51.7877 49.728 52.0181 49.5885C52.2485 49.449 52.4828 49.2224 52.5109 48.9485C52.5198 48.8848 52.5151 48.8199 52.4972 48.7581C52.4793 48.6963 52.4486 48.6389 52.407 48.5898C52.3655 48.5406 52.3141 48.5008 52.2561 48.4728C52.1981 48.4449 52.1349 48.4294 52.0706 48.4275C51.6866 48.4275 51.2847 48.9997 51.1746 49.3235C51.1746 49.3415 51.1298 49.5296 51.1042 49.6679C51.1042 49.5859 51.1042 49.5027 51.1042 49.4247C51.1042 49.1315 51.1234 48.8627 51.1413 48.6259C51.1529 48.4979 51.1657 48.3699 51.1797 48.256C51.2911 48.1792 51.7391 47.8631 51.8773 47.6365C52.0156 47.4099 52.1218 47.0976 52.0207 46.8442C51.999 46.7839 51.9648 46.7288 51.9204 46.6825C51.8759 46.6363 51.8223 46.5999 51.7629 46.5758C51.7035 46.5516 51.6397 46.5403 51.5756 46.5424C51.5115 46.5445 51.4486 46.5601 51.3909 46.5882C51.0466 46.7661 50.9557 47.4586 51.0133 47.7991C51.0133 47.8285 51.1413 48.2816 51.1541 48.2778H51.1605C51.1452 48.3866 51.1298 48.5043 51.117 48.6323C51.0927 48.8704 51.0684 49.1379 51.062 49.4323C51.0511 49.7491 51.0584 50.0662 51.0837 50.3821C51.1118 50.7356 51.1709 51.086 51.2604 51.4291V51.4419C51.1989 51.3459 51.0197 51.0848 51.0044 51.0656C50.7778 50.8096 50.1865 50.432 49.8306 50.5831C49.772 50.6098 49.7197 50.6485 49.6771 50.6968C49.6345 50.7451 49.6025 50.8019 49.5833 50.8634C49.5641 50.9248 49.5581 50.9897 49.5656 51.0536C49.5732 51.1176 49.5941 51.1792 49.6271 51.2346C49.7525 51.4419 50.0674 51.5597 50.3234 51.5981Z" fill="#108E66"/>
  <path d="M56.9657 49.7779C56.9657 49.7779 57.0937 49.3261 57.0937 49.2966C57.1424 48.9549 57.0323 48.265 56.6841 48.096C56.6255 48.0695 56.5619 48.0556 56.4975 48.0554C56.4331 48.0552 56.3694 48.0685 56.3105 48.0946C56.2517 48.1207 56.199 48.159 56.1559 48.2069C56.1129 48.2547 56.0805 48.3112 56.0608 48.3725C55.9673 48.6285 56.0851 48.9446 56.2259 49.161C56.3897 49.4157 56.9593 49.7779 56.9657 49.7779Z" fill="#108E66"/>
  <path d="M44.715 22.985C44.715 22.985 44.7547 21.5398 45.5879 21.1302C46.4212 20.7206 46.4686 22.0736 46.4686 22.0736C46.4686 22.0736 48.3745 20.8627 48.788 21.7805C49.2014 22.6982 48.6241 23.1424 48.6241 23.1424C48.6241 23.1424 50.3163 23.0835 50.434 24.0115C50.5518 24.9395 49.6776 25.3939 49.6776 25.3939C49.6776 25.3939 50.7233 26.2477 50.3559 26.6419C49.9886 27.0362 49.1848 27.0643 49.1848 27.0643C49.1848 27.0643 49.6404 27.9795 48.8456 28.3046C48.0507 28.6298 47.1419 28.0243 47.1419 28.0243C47.1419 28.0243 47.2827 28.4442 46.6862 28.3379C46.0897 28.2317 45.4868 27.9539 45.1169 27.0784C44.747 26.2029 44.2695 23.7235 44.715 22.985Z" fill="#263238" stroke="#263238" stroke-width="0.4" stroke-linecap="round" stroke-linejoin="round"/>
  <path d="M35.9163 50.8954C35.9163 50.8954 35.4414 52.7079 35.4491 52.9088C35.4568 53.1098 35.2917 53.5655 35.4312 53.6947C35.6923 53.9077 35.9692 54.1007 36.2594 54.272C36.3776 54.2704 36.493 54.2354 36.5922 54.1709C36.6242 54.1421 36.65 54.107 36.6678 54.0678C36.6857 54.0286 36.6952 53.9861 36.6958 53.9431C36.6958 53.8752 36.5051 53.5911 36.4795 53.5245C36.4539 53.4579 36.829 52.5914 36.971 52.16C37.0774 51.7749 37.1536 51.382 37.1989 50.985L35.9163 50.8954Z" fill="#BDBDBD" stroke="#263238" stroke-width="0.4" stroke-miterlimit="10"/>
  <path d="M36.4325 52.1575C36.4325 52.1575 36.1624 52.7975 36.1445 52.9075C36.1266 53.0176 35.7605 53.3248 35.8091 53.5706C35.8578 53.8163 36.3979 53.7511 36.6642 53.024" fill="#BDBDBD"/>
  <path d="M36.4325 52.1575C36.4325 52.1575 36.1624 52.7975 36.1445 52.9075C36.1266 53.0176 35.7605 53.3248 35.8091 53.5706C35.8578 53.8163 36.3979 53.7511 36.6642 53.024" stroke="#263238" stroke-width="0.4" stroke-miterlimit="10"/>
  <path d="M37.6408 41.0496C37.6408 41.0496 37.4143 44.7463 37.3285 45.0727C37.2428 45.3991 36.2136 48.3802 35.9871 49.2967C35.8481 49.8641 35.7493 50.4407 35.6914 51.0221L37.0725 51.3127L37.8482 47.9053C37.8482 47.9053 38.862 44.8 38.6559 43.3447C38.5502 42.4966 38.1972 41.6984 37.6408 41.0496Z" fill="#108E66" stroke="#263238" stroke-width="0.4" stroke-miterlimit="10"/>
  <path d="M44.8349 58.5127C44.8515 57.7088 44.8848 56.6247 44.9629 56.0039C45.0909 54.9312 45.5491 54.2682 46.0202 52.9319C46.4912 51.5955 46.5322 49.8394 46.5322 49.8394L38.097 50.1338C38.097 50.1338 37.1191 53.76 36.5264 56.4275C36.3655 57.1118 36.2716 57.8102 36.2461 58.5127" fill="#108E66"/>
  <path d="M44.8349 58.5127C44.8515 57.7088 44.8848 56.6247 44.9629 56.0039C45.0909 54.9312 45.5491 54.2682 46.0202 52.9319C46.4912 51.5955 46.5322 49.8394 46.5322 49.8394L38.097 50.1338C38.097 50.1338 37.1191 53.76 36.5264 56.4275C36.3655 57.1118 36.2716 57.8102 36.2461 58.5127" stroke="#263238" stroke-width="0.4" stroke-miterlimit="10"/>
  <path d="M39.2031 51.4931L46.2214 51.6902L46.3698 51.1475L39.2031 51.4931Z" fill="#263238" stroke="#263238" stroke-width="0.4" stroke-linecap="round" stroke-linejoin="round"/>
  <path d="M38.8491 58.3847C38.8491 58.3847 38.7109 53.9955 38.707 51.6135L38.8491 58.3847Z" fill="white"/>
  <path d="M38.8491 58.3847C38.8491 58.3847 38.7109 53.9955 38.707 51.6135" stroke="#263238" stroke-width="0.4" stroke-miterlimit="10"/>
  <path d="M44.2282 31.7645L45.2522 32.4531C45.2522 32.4531 46.4644 33.536 46.7626 34.432C47.0608 35.328 46.8445 40.649 46.5437 42.368C46.2429 44.0871 46.9943 46.2285 47.2618 47.4368C47.5293 48.6451 47.6458 50.8928 47.6458 50.8928C47.6458 50.8928 47.8352 51.1565 44.5482 51.2704C41.2612 51.3843 38.9687 51.5559 38.6999 51.6096C38.5374 51.6429 38.3727 51.6639 38.2071 51.6723L38.0791 50.505L37.7604 51.4663L37.0781 51.3101C37.0781 51.3101 37.5018 49.2211 37.608 48.4071C37.7143 47.593 38.385 44.8231 38.394 43.7811C38.4029 42.7392 37.5325 41.0624 37.3623 40.0307C37.192 38.9991 37.5351 37.2301 38.3863 35.8938C39.2375 34.5575 39.8084 34.0403 41.4724 32.6759C43.1364 31.3114 44.2282 31.7645 44.2282 31.7645Z" fill="#108E66" stroke="#263238" stroke-width="0.4" stroke-miterlimit="10"/>
  <path d="M41.5586 47.3613L44.9928 47.7504L44.7996 46.8519L42.6568 46.6675" stroke="#263238" stroke-width="0.4" stroke-miterlimit="10"/>
  <path d="M40.3577 46.6176L40.1836 47.2064L41.045 47.3037" stroke="#263238" stroke-width="0.4" stroke-miterlimit="10"/>
  <path d="M41.6499 40.7335C41.4885 40.584 41.3403 40.4208 41.207 40.2458" stroke="#263238" stroke-width="0.4" stroke-miterlimit="10"/>
  <path d="M42.8411 41.7421C42.8411 41.7421 42.4788 41.4682 42.082 41.1277" stroke="#263238" stroke-width="0.4" stroke-miterlimit="10"/>
  <path d="M44.2257 31.7645C44.2257 31.7645 43.1339 31.3101 41.4699 32.6759C39.8059 34.0416 39.2363 34.56 38.3812 35.8938C37.8704 36.7183 37.5309 37.6373 37.3828 38.5959C37.4033 38.6957 37.4251 38.7968 37.4494 38.9005C37.9255 40.9127 38.4555 41.8855 38.4555 41.8855C38.4555 41.8855 39.3771 37.3005 40.9809 35.4419C42.5847 33.5834 45.2484 32.4531 45.2484 32.4531L44.2257 31.7645Z" fill="#108E66" stroke="#263238" stroke-width="0.4" stroke-miterlimit="10"/>
  <path d="M40.2242 22.8211C40.2242 22.8211 39.0223 23.9437 38.9327 24.8282C38.8431 25.7127 38.7497 26.4755 38.5999 26.761C38.4502 27.0464 37.695 27.2333 37.951 27.6647C38.207 28.096 38.4463 28.0871 38.4463 28.0871C38.4463 28.0871 38.8303 29.9955 39.1222 30.2631C39.414 30.5306 40.447 30.377 40.447 30.377L40.767 32.6912C40.767 32.6912 38.6178 34.5971 38.1993 37.2531C37.7807 39.9091 38.2594 41.4247 38.2594 41.4247C38.2594 41.4247 38.5398 37.2403 39.5074 35.6736C40.4751 34.1069 42.7228 32.6234 43.0543 32.3559C43.3858 32.0883 44.2268 31.7619 44.2268 31.7619C44.2268 31.7619 43.8274 30.8659 43.7737 30.4615C43.7199 30.057 43.7378 29.4618 43.8134 29.2992C43.8889 29.1367 45.2316 28.649 45.7334 27.1104C46.2351 25.5719 45.4966 23.7555 44.7094 22.9824C43.9222 22.2093 41.2303 21.8253 40.2242 22.8211Z" fill="#BDBDBD" stroke="#263238" stroke-width="0.4" stroke-miterlimit="10"/>
  <path d="M45.7393 27.113C46.2513 25.577 45.5025 23.7581 44.7153 22.985C43.9281 22.2119 41.2324 21.8253 40.2263 22.8211C40.2263 22.8211 40.1623 22.8813 40.0625 22.985C40.4449 22.8894 40.8433 22.8763 41.2311 22.9466C42.0363 23.0746 42.0183 23.7146 41.7995 24.3277C41.5806 24.9408 41.7457 25.0496 42.1566 25.3517C42.5675 25.6538 42.1463 26.2336 42.4356 26.464C42.7249 26.6944 42.9604 25.44 43.5876 26.3437C44.2148 27.2474 43.7937 27.657 43.402 27.9104C43.1827 28.0569 42.9446 28.1732 42.6942 28.256C42.6942 28.256 43.2868 28.9511 43.8718 29.2378C44.1521 29.0291 45.2836 28.4954 45.7393 27.113Z" fill="#263238" stroke="#263238" stroke-width="0.4" stroke-linecap="round" stroke-linejoin="round"/>
  <path d="M39.0977 28.425C39.0977 28.425 39.9361 28.3558 40.3239 27.9821" stroke="#263238" stroke-width="0.4" stroke-miterlimit="10"/>
  <path d="M39.631 26.4448C39.6374 26.6432 39.5619 26.8071 39.4633 26.8109C39.3648 26.8147 39.2777 26.656 39.2701 26.4576C39.2624 26.2592 39.3392 26.0954 39.4377 26.0915C39.5363 26.0877 39.6233 26.2464 39.631 26.4448Z" fill="#263238"/>
  <path d="M39.2695 25.6346C39.2695 25.6346 39.5396 25.2711 39.9262 25.6999" stroke="#263238" stroke-width="0.4" stroke-miterlimit="10"/>
  <path d="M40.4492 30.3795L41.4489 30.0032L40.7526 31.2538L40.4492 30.3795Z" fill="#263238" stroke="#263238" stroke-width="0.4" stroke-miterlimit="10"/>
  <path d="M37.5685 48.7514L36.2578 54.272L37.4341 54.5459L38.0818 50.5088L37.5685 48.7514Z" fill="white" stroke="#263238" stroke-width="0.4" stroke-miterlimit="10"/>
  <path d="M38.7263 35.5341C38.4746 36.0819 38.2973 36.6609 38.199 37.2557C37.7804 39.9104 38.2591 41.4272 38.2591 41.4272C38.2591 41.4272 38.5369 37.2992 39.4879 35.7095C39.2282 35.6801 38.9727 35.6213 38.7263 35.5341Z" fill="white" stroke="#263238" stroke-width="0.4" stroke-miterlimit="10"/>
  <path d="M42.7763 37.257L42.6867 41.9418L34.4883 43.2934L34.6675 45.5014C34.6675 45.5014 39.2179 45.591 41.335 45.4106C43.4521 45.2301 45.303 45.0957 45.5692 44.8704C45.8355 44.6451 46.6073 40.2906 46.9222 37.2275C47.2371 34.1645 46.6073 33.1315 45.3465 33.3082" fill="#108E66"/>
  <path d="M42.7763 37.257L42.6867 41.9418L34.4883 43.2934L34.6675 45.5014C34.6675 45.5014 39.2179 45.591 41.335 45.4106C43.4521 45.2301 45.303 45.0957 45.5692 44.8704C45.8355 44.6451 46.6073 40.2906 46.9222 37.2275C47.2371 34.1645 46.6073 33.1315 45.3465 33.3082" stroke="#263238" stroke-width="0.4" stroke-miterlimit="10"/>
  <path d="M29.5824 43.095L28.9258 45.0867L29.5658 45.4349C29.5658 45.4349 30.3786 46.0647 30.824 46.4051C31.2695 46.7456 31.6112 46.7456 31.848 46.6407C32.0848 46.5357 33.1587 45.015 33.2893 44.727C33.4199 44.439 32.7914 43.575 32.1629 43.2064C31.5344 42.8378 31.0109 42.8403 30.6423 42.9504C30.2933 43.0263 29.9389 43.0747 29.5824 43.095Z" fill="white" stroke="#263238" stroke-width="0.4" stroke-miterlimit="10"/>
  <path d="M34.4892 43.2935L33.4524 43.2039C33.1272 43.119 32.796 43.0587 32.4617 43.0234C32.1916 43.0234 31.8307 43.2935 31.6502 43.4291C31.4697 43.5648 29.4883 45.7267 29.4883 45.7267C29.4883 45.7267 29.6688 46.0864 29.9388 45.9968C30.2089 45.9072 30.7068 45.6807 30.7068 45.6807C30.7068 45.6807 30.1667 46.2221 30.4368 46.4922C30.7068 46.7623 31.1574 46.7623 31.1574 46.7623L31.4736 46.5818C31.6065 46.6866 31.7593 46.7633 31.9228 46.8071C32.1481 46.8519 32.5091 46.7623 32.8188 46.5818C33.1286 46.4013 33.9337 45.4618 33.9337 45.4618L34.6249 45.1943L34.4892 43.2935Z" fill="#BDBDBD" stroke="#263238" stroke-width="0.4" stroke-miterlimit="10"/>
  <path d="M29.9414 43.1808C29.9414 43.1808 31.2521 42.4205 31.8281 42.6304C32.4041 42.8403 33.1657 44.1242 32.9558 44.3085C32.7459 44.4928 32.4054 44.4122 32.2224 44.2291C32.0693 44.0901 31.9024 43.967 31.7244 43.8618C31.3793 44.0557 30.9925 44.1637 30.5968 44.1766" fill="white"/>
  <path d="M29.9414 43.1808C29.9414 43.1808 31.2521 42.4205 31.8281 42.6304C32.4041 42.8403 33.1657 44.1242 32.9558 44.3085C32.7459 44.4928 32.4054 44.4122 32.2224 44.2291C32.0693 44.0901 31.9024 43.967 31.7244 43.8618C31.3793 44.0557 30.9925 44.1637 30.5968 44.1766" stroke="#263238" stroke-width="0.4" stroke-miterlimit="10"/>
  <path d="M33.8504 46.1568L33.4344 45.9341C33.4009 45.9163 33.3712 45.8921 33.3471 45.8629C33.3229 45.8336 33.3048 45.7999 33.2938 45.7636C33.2827 45.7273 33.2789 45.6892 33.2826 45.6515C33.2863 45.6138 33.2974 45.5771 33.3153 45.5437C33.3332 45.5103 33.3575 45.4807 33.3868 45.4567C33.4161 45.4327 33.4499 45.4147 33.4861 45.4038C33.5224 45.3929 33.5604 45.3892 33.5981 45.393C33.6358 45.3968 33.6724 45.408 33.7057 45.4259L34.1217 45.6474C34.1892 45.6835 34.2395 45.7448 34.2619 45.818C34.2842 45.8912 34.2766 45.9702 34.2408 46.0378C34.2047 46.1052 34.1433 46.1556 34.0702 46.1779C33.997 46.2002 33.918 46.1926 33.8504 46.1568Z" fill="white" stroke="#263238" stroke-width="0.4" stroke-miterlimit="10"/>
  <path d="M33.4841 46.6023L33.0681 46.3795C33.0023 46.3434 32.9532 46.2832 32.9309 46.2116C32.9087 46.14 32.9152 46.0625 32.949 45.9955C32.9853 45.93 33.0456 45.8811 33.1173 45.8591C33.1889 45.8372 33.2662 45.8439 33.333 45.8778L33.749 46.0992C33.815 46.1351 33.8644 46.1953 33.8866 46.267C33.9089 46.3387 33.9022 46.4163 33.8681 46.4832C33.8322 46.5492 33.772 46.5986 33.7003 46.6208C33.6285 46.6431 33.551 46.6364 33.4841 46.6023Z" fill="white" stroke="#263238" stroke-width="0.4" stroke-miterlimit="10"/>
  <path d="M33.0647 46.9952L32.6487 46.7725C32.6152 46.7548 32.5855 46.7305 32.5614 46.7012C32.5373 46.672 32.5193 46.6382 32.5083 46.6019C32.4974 46.5656 32.4937 46.5274 32.4976 46.4897C32.5015 46.452 32.5128 46.4154 32.5309 46.3821C32.5488 46.3487 32.5731 46.3191 32.6024 46.2951C32.6317 46.2711 32.6654 46.2532 32.7017 46.2422C32.738 46.2313 32.776 46.2276 32.8137 46.2314C32.8514 46.2352 32.888 46.2464 32.9213 46.2643L33.3373 46.4871C33.3707 46.5049 33.4003 46.5292 33.4243 46.5585C33.4483 46.5878 33.4663 46.6216 33.4772 46.6578C33.4881 46.6941 33.4918 46.7322 33.488 46.7698C33.4842 46.8075 33.473 46.8441 33.4551 46.8775C33.4372 46.9109 33.4129 46.9404 33.3836 46.9644C33.3543 46.9884 33.3206 47.0064 33.2843 47.0173C33.2481 47.0283 33.21 47.0319 33.1723 47.0281C33.1346 47.0244 33.098 47.0132 33.0647 46.9952Z" fill="white" stroke="#263238" stroke-width="0.4" stroke-miterlimit="10"/>
  <path d="M32.1799 47.0144L32.0711 46.9568C32.0376 46.9391 32.0079 46.9149 31.9838 46.8856C31.9597 46.8563 31.9416 46.8226 31.9305 46.7863C31.9194 46.7501 31.9156 46.712 31.9193 46.6742C31.923 46.6365 31.9342 46.5998 31.9521 46.5664C31.9882 46.499 32.0495 46.4486 32.1227 46.4263C32.1959 46.404 32.2749 46.4116 32.3425 46.4474L32.4513 46.5063C32.4848 46.524 32.5144 46.5482 32.5386 46.5775C32.5627 46.6067 32.5808 46.6405 32.5919 46.6767C32.6029 46.713 32.6067 46.7511 32.603 46.7888C32.5993 46.8266 32.5882 46.8632 32.5703 46.8967C32.5524 46.9301 32.5282 46.9596 32.4989 46.9836C32.4695 47.0076 32.4358 47.0256 32.3995 47.0365C32.3633 47.0475 32.3252 47.0511 32.2875 47.0473C32.2498 47.0436 32.2133 47.0324 32.1799 47.0144Z" fill="white" stroke="#263238" stroke-width="0.4" stroke-miterlimit="10"/>
  <path d="M29.5835 43.095L24.082 40.7693L24.2856 44.4134L28.8283 45.4541L29.5835 43.095Z" fill="#263238" stroke="#263238" stroke-width="0.4" stroke-linecap="round" stroke-linejoin="round"/>
  <path d="M28.8272 45.4541L29.5824 43.0951L28.8131 42.7546L28.7978 42.8327L28.0938 45.2762L28.8272 45.4541Z" fill="white" stroke="#263238" stroke-width="0.4" stroke-miterlimit="10"/>
  <path d="M20.9922 28.5184L22.4002 29.1725C22.4002 29.1725 22.9915 30.848 22.7944 30.8966C22.5973 30.9453 21.1189 29.7638 21.1189 29.7638L20.9922 28.5184Z" fill="white" stroke="#263238" stroke-width="0.4" stroke-linecap="round" stroke-linejoin="round"/>
  <path d="M21.8092 28.1831L21.9077 27.6186C21.9077 27.6186 23.2133 27.7082 23.7356 27.7043C24.2578 27.7005 24.7135 27.6339 24.7097 27.0797C24.7058 26.5255 24.4012 24.6349 24.4012 24.6349C24.4012 24.6349 24.9874 24.5005 25.214 24.2381C25.4405 23.9757 25.1129 23.6519 24.8172 23.2615C24.5215 22.8711 24.2565 22.4499 24.222 21.993C24.1874 21.536 23.3938 20.041 23.3938 20.041C23.3938 20.041 23.5218 19.8119 23.0956 19.3255C22.6693 18.8391 20.4831 18.7546 19.0841 19.4535C17.685 20.1523 17.3663 21.161 17.3727 22.2695C17.3791 23.3779 18.0127 24.9408 18.0127 24.9408C18.0127 24.9408 17.5993 26.6394 17.5673 26.7328C17.5353 26.8263 17.1641 27.5546 17.1641 27.5546C17.1641 27.5546 18.9138 28.7744 19.5525 29.3223C20.1913 29.8701 21.6338 30.8071 21.6428 30.3002C21.6517 29.7933 21.7093 28.649 21.7093 28.649L21.8092 28.1831Z" fill="white" stroke="#263238" stroke-width="0.4" stroke-linecap="round" stroke-linejoin="round"/>
  <path d="M23.7389 22.889C23.7466 23.0784 23.7031 23.2333 23.6404 23.2359C23.5777 23.2384 23.5188 23.0887 23.5124 22.8992C23.506 22.7098 23.5469 22.5549 23.6109 22.5523C23.6749 22.5498 23.73 22.6995 23.7389 22.889Z" fill="#263238"/>
  <path d="M22.8203 22.2631C22.8203 22.2631 23.1109 21.7715 23.8635 22.0608" stroke="#263238" stroke-width="0.4" stroke-linecap="round" stroke-linejoin="round"/>
  <path d="M24.7081 27.0797C24.7081 26.5242 24.3997 24.6349 24.3997 24.6349C24.3997 24.6349 24.04 24.4416 23.3552 24.608C22.6704 24.7744 22.4835 25.888 22.3529 26.016C22.2224 26.144 21.3712 25.376 21.0409 24.8499C20.7107 24.3239 20.4777 23.424 20.4419 22.8979C20.4061 22.3719 21.6438 22.1069 21.8371 21.6179C22.0304 21.129 21.1177 20.608 21.4365 20.2816C21.7552 19.9552 22.4144 20.0807 22.7408 20.1434C22.9633 20.1735 23.1898 20.1379 23.3923 20.041C23.3923 20.041 23.5203 19.8119 23.0941 19.3255C22.6678 18.8391 20.4816 18.7546 19.0825 19.4535C17.6835 20.1523 17.3648 21.161 17.3712 22.2695C17.3776 23.1655 17.7923 24.3635 17.9485 24.7859C18.0806 24.8431 18.223 24.8727 18.367 24.873C18.495 24.8397 18.5923 24.448 18.655 24.0551C18.7177 23.6621 19.6611 23.2013 19.6611 23.2013C19.6611 23.2013 19.8313 24.3751 19.8326 24.6029C19.8339 24.8307 19.7046 25.9738 20.3344 26.5229C20.8275 26.9316 21.3532 27.2994 21.9062 27.6224C21.9062 27.6224 23.2118 27.712 23.7341 27.7082C24.2563 27.7043 24.712 27.6339 24.7081 27.0797Z" fill="#263238" stroke="#263238" stroke-width="0.4" stroke-linecap="round" stroke-linejoin="round"/>
  <path d="M19.8658 24.0102C19.8658 24.0102 19.5945 22.4461 19.1388 22.5139C18.6831 22.5818 18.4246 23.1706 18.6575 23.9219C18.8905 24.6733 19.3474 24.6029 19.6073 24.5363" fill="white"/>
  <path d="M19.8658 24.0102C19.8658 24.0102 19.5945 22.4461 19.1388 22.5139C18.6831 22.5818 18.4246 23.1706 18.6575 23.9219C18.8905 24.6733 19.3474 24.6029 19.6073 24.5363" stroke="#263238" stroke-width="0.4" stroke-linecap="round" stroke-linejoin="round"/>
  <path d="M23.0664 25.1968C23.0664 25.1968 23.3288 25.5219 24.0136 25.5181" stroke="white" stroke-width="0.4" stroke-linecap="round" stroke-linejoin="round"/>
  <path d="M15.7448 58.5127H22.6568C22.6798 58.1491 22.9486 56.7514 22.9486 55.8349C22.9486 54.7763 23.6769 47.9475 23.6769 47.9475L14.6875 47.8298L14.9819 52.009L15.7448 58.5127Z" fill="#263238" stroke="#263238" stroke-width="0.4" stroke-linecap="round" stroke-linejoin="round"/>
  <path d="M16.6397 27.7927C16.6397 27.7927 15.064 29.8138 14.6198 30.9466C14.1757 32.0794 13.8314 32.2765 13.9299 33.705C14.0285 35.1335 14.7197 40.8487 14.7197 40.8487L13.3398 48.2893C14.9684 48.8728 16.6851 49.1724 18.415 49.1751C21.272 49.1751 22.511 48.9293 22.7018 48.8307C22.8925 48.7322 24.6218 48.2893 24.6218 48.2893C24.6218 48.2893 24.6218 39.8643 24.079 36.9575C23.5363 34.0506 22.8477 31.8375 22.6019 31.2909C22.3562 30.7443 21.5664 28.9754 21.5664 28.9754L16.6397 27.7927Z" fill="#263238" stroke="#263238" stroke-width="0.4" stroke-linecap="round" stroke-linejoin="round"/>
  <path d="M22.6044 31.2909C22.3574 30.7495 21.5689 28.9754 21.5689 28.9754L16.6383 27.7927C16.6383 27.7927 16.3055 28.2202 15.9023 28.7923C16.9763 29.4157 19.6348 30.9568 19.7923 30.9952C19.9894 31.0451 20.975 30.9466 20.975 30.9466L20.5347 31.488C20.5347 31.488 21.7174 32.425 22.1116 32.8179C22.319 33.0253 22.9206 33.5731 23.4454 34.0467C23.0883 32.6311 22.758 31.6314 22.6044 31.2909Z" fill="#263238" stroke="#263238" stroke-width="0.4" stroke-linecap="round" stroke-linejoin="round"/>
  <path d="M20.3398 30.0595L22.0154 31.3895L23.3939 33.8535L22.5082 30.2567L20.6854 29.2224L20.3398 30.0595Z" fill="white" stroke="#263238" stroke-width="0.4" stroke-linecap="round" stroke-linejoin="round"/>
  <path d="M16.9898 26.857L22.1482 29.1814V31.0042L16.25 27.9898L16.9898 26.857Z" fill="white" stroke="#263238" stroke-width="0.4" stroke-linecap="round" stroke-linejoin="round"/>
  <path d="M23.8085 45.5027H14.8945V52.7155H23.8085V45.5027Z" fill="#108E66" stroke="#263238" stroke-width="0.4" stroke-miterlimit="10"/>
  <path d="M19.8982 48.9408C19.8982 48.9408 20.5613 49.8048 20.8211 49.8919C21.0399 49.9817 21.2208 50.1446 21.3331 50.3527C21.4483 50.5255 21.5891 51.8221 21.6787 51.9091C21.7683 51.9962 21.7657 52.1971 21.4483 52.0525C21.1309 51.9079 20.9363 51.4125 20.9363 51.4125L21.0515 52.5645C21.0515 52.5645 21.3075 52.6221 21.1091 52.7667C20.9107 52.9114 20.7341 53.1123 20.5613 53.0227C20.4075 52.9312 20.263 52.8249 20.1299 52.7053C19.924 52.7744 19.7048 52.7941 19.4899 52.7629C19.1737 52.7053 19.2339 52.8205 18.9433 52.6183C18.6528 52.416 18.6541 52.6477 18.5107 52.2727C18.2874 51.6015 18.1044 50.9177 17.9629 50.2247C17.9053 49.8496 17.8477 49.3287 17.8477 49.3287L19.8982 48.9408Z" fill="white" stroke="#263238" stroke-width="0.4" stroke-linecap="round" stroke-linejoin="round"/>
  <path d="M20.0173 48.393L20.2183 49.2864L17.7402 49.632L17.625 48.7386L20.0173 48.393Z" fill="white" stroke="#263238" stroke-width="0.4" stroke-linecap="round" stroke-linejoin="round"/>
  <path d="M16.841 29.568C16.841 29.568 15.1168 30.1095 15.0682 30.8979C15.0196 31.6864 14.4474 41.2493 14.6944 41.8893C14.9415 42.5293 17.3645 49.0151 17.3645 49.0151L20.1728 48.6707C20.1728 48.6707 18.7341 41.1495 18.688 41.001C18.642 40.8525 19.6532 32.4736 19.6532 32.4736" fill="#263238"/>
  <path d="M16.841 29.568C16.841 29.568 15.1168 30.1095 15.0682 30.8979C15.0196 31.6864 14.4474 41.2493 14.6944 41.8893C14.9415 42.5293 17.3645 49.0151 17.3645 49.0151L20.1728 48.6707C20.1728 48.6707 18.7341 41.1495 18.688 41.001C18.642 40.8525 19.6532 32.4736 19.6532 32.4736" stroke="#263238" stroke-width="0.4" stroke-linecap="round" stroke-linejoin="round"/>
  <path d="M19.3185 34.88L18.6836 41.001L19.289 44.8038" stroke="#878787" stroke-width="0.4" stroke-linecap="round" stroke-linejoin="round"/>
  <path d="M19.4161 33.9431L19.3828 34.2682" stroke="#878787" stroke-width="0.4" stroke-linecap="round" stroke-linejoin="round"/>
  <path d="M14.8691 32.9958L14.6797 38.743" stroke="#878787" stroke-width="0.4" stroke-linecap="round" stroke-linejoin="round"/>
  <path d="M21.3122 43.8003L23.2066 43.7312L23.3768 44.4134L20.2383 44.6144" stroke="#878787" stroke-width="0.4" stroke-linecap="round" stroke-linejoin="round"/>
  <path d="M19.7305 43.8566L20.7391 43.8208" stroke="#878787" stroke-width="0.4" stroke-linecap="round" stroke-linejoin="round"/>
  <path d="M16.3203 28.9549L19.7955 30.9952L20.9782 30.9466L20.5341 31.488L22.824 33.312" stroke="#878787" stroke-width="0.4" stroke-linecap="round" stroke-linejoin="round"/>
  <path d="M1.46875 58.5126H59.8995" stroke="#263238" stroke-width="0.5" stroke-miterlimit="10"/>
  <path d="M17.9844 5.76257V14.4141" stroke="#263238" stroke-width="0.5" stroke-miterlimit="10"/>
  <path d="M31.2734 5.76257V14.4141" stroke="#263238" stroke-width="0.5" stroke-miterlimit="10"/>
  <path d="M44.5625 5.76257V14.4141" stroke="#263238" stroke-width="0.5" stroke-miterlimit="10"/>
</svg>