<svg xmlns="http://www.w3.org/2000/svg" width="33" height="32" viewBox="0 0 33 32" fill="none">
<path d="M24.1255 28.4522C22.6145 29.8811 20.9648 29.6555 19.3767 28.9787C17.6962 28.2868 16.1544 28.2567 14.3813 28.9787C12.1611 29.9112 10.9893 29.6405 9.66337 28.4522C2.13938 20.8867 3.24948 9.36541 11.7911 8.94427C13.8725 9.04956 15.3218 10.0573 16.5398 10.1475C18.3591 9.78656 20.1014 8.74874 22.044 8.88411C24.3722 9.0646 26.1298 9.96705 27.2862 11.5915C22.4757 14.4041 23.6167 20.5859 28.0262 22.3156C27.1474 24.5717 26.0065 26.8128 24.11 28.4673L24.1255 28.4522ZM16.3856 8.85403C16.1544 5.49992 18.945 2.73241 22.152 2.46167C22.5991 6.34221 18.5441 9.23005 16.3856 8.85403Z" fill="white"/>
</svg>