<svg xmlns="http://www.w3.org/2000/svg" width="25" height="28" viewBox="0 0 25 28" fill="none">
  <path d="M20.1284 26.4522C18.6174 27.8811 16.9677 27.6555 15.3796 26.9787C13.6991 26.2868 12.1573 26.2567 10.3842 26.9787C8.16401 27.9112 6.99225 27.6405 5.6663 26.4522C-1.85769 18.8867 -0.747594 7.36541 7.79398 6.94427C9.87541 7.04956 11.3247 8.05729 12.5427 8.14754C14.3621 7.78656 16.1043 6.74874 18.047 6.88411C20.3751 7.0646 22.1327 7.96705 23.2891 9.59146C18.4787 12.4041 19.6196 18.5859 24.0291 20.3156C23.1503 22.5717 22.0094 24.8128 20.113 26.4673L20.1284 26.4522ZM12.3885 6.85403C12.1573 3.49992 14.9479 0.732405 18.1549 0.46167C18.602 4.34221 14.5471 7.23005 12.3885 6.85403Z" fill="#FCFFFE" fill-opacity="0.54"/>
</svg>