<svg xmlns="http://www.w3.org/2000/svg" width="32" height="32" viewBox="0 0 32 32" fill="none">
  <path d="M25.3333 14.6667H12L16.3867 10.2801C16.5116 10.1561 16.6108 10.0087 16.6785 9.84618C16.7462 9.6837 16.7811 9.50943 16.7811 9.33341C16.7811 9.1574 16.7462 8.98312 16.6785 8.82064C16.6108 8.65817 16.5116 8.5107 16.3867 8.38675C16.1369 8.13841 15.7989 7.99902 15.4467 7.99902C15.0944 7.99902 14.7565 8.13841 14.5067 8.38675L8.78667 14.1201C8.28588 14.6179 8.00298 15.294 8 16.0001C8.00649 16.7016 8.28913 17.3722 8.78667 17.8667L14.5067 23.6001C14.631 23.7235 14.7784 23.8213 14.9405 23.8877C15.1026 23.9542 15.2762 23.9881 15.4514 23.9875C15.6266 23.9869 15.7999 23.9517 15.9616 23.8841C16.1232 23.8165 16.2699 23.7177 16.3933 23.5934C16.5168 23.4691 16.6145 23.3217 16.681 23.1596C16.7475 22.9975 16.7814 22.8239 16.7807 22.6487C16.7801 22.4735 16.745 22.3002 16.6774 22.1385C16.6098 21.9769 16.511 21.8302 16.3867 21.7067L12 17.3334H25.3333C25.687 17.3334 26.0261 17.1929 26.2761 16.9429C26.5262 16.6928 26.6667 16.3537 26.6667 16.0001C26.6667 15.6465 26.5262 15.3073 26.2761 15.0573C26.0261 14.8072 25.687 14.6667 25.3333 14.6667Z" fill="#272B2A"/>
</svg>