<svg width="18" height="8" viewBox="0 0 18 8" fill="none" xmlns="http://www.w3.org/2000/svg">
<path id="Arrow 1" d="M1 3.75C0.723858 3.75 0.5 3.97386 0.5 4.25C0.5 4.52614 0.723858 4.75 1 4.75V3.75ZM17.3536 4.60355C17.5488 4.40829 17.5488 4.09171 17.3536 3.89645L14.1716 0.714466C13.9763 0.519204 13.6597 0.519204 13.4645 0.714466C13.2692 0.909728 13.2692 1.22631 13.4645 1.42157L16.2929 4.25L13.4645 7.07843C13.2692 7.27369 13.2692 7.59027 13.4645 7.78553C13.6597 7.9808 13.9763 7.9808 14.1716 7.78553L17.3536 4.60355ZM1 4.75H17V3.75H1V4.75Z" fill="#272B2A" fill-opacity="0.54"/>
</svg>
