<svg xmlns="http://www.w3.org/2000/svg" width="24" height="24" viewBox="0 0 24 24" fill="none">
  <circle cx="12" cy="12" r="12" fill="#EDF0EF"/>
  <path d="M18.25 12.7419C18.2457 12.2816 18.0603 11.8415 17.7337 11.5169L13.98 7.75444C13.8161 7.59147 13.5943 7.5 13.3631 7.5C13.132 7.5 12.9102 7.59147 12.7463 7.75444C12.6642 7.83579 12.5991 7.93256 12.5547 8.03919C12.5103 8.14582 12.4874 8.26018 12.4874 8.37569C12.4874 8.4912 12.5103 8.60557 12.5547 8.7122C12.5991 8.81883 12.6642 8.9156 12.7463 8.99694L15.625 11.8669H6.875C6.64294 11.8669 6.42038 11.9591 6.25628 12.1232C6.09219 12.2873 6 12.5099 6 12.7419C6 12.974 6.09219 13.1966 6.25628 13.3607C6.42038 13.5248 6.64294 13.6169 6.875 13.6169H15.625L12.7463 16.4957C12.5815 16.6593 12.4885 16.8817 12.4876 17.1139C12.4868 17.346 12.5783 17.5691 12.7419 17.7338C12.9055 17.8986 13.1278 17.9916 13.36 17.9924C13.5922 17.9933 13.8152 17.9018 13.98 17.7382L17.7337 13.9757C18.0624 13.649 18.248 13.2053 18.25 12.7419Z" fill="#2C733F"/>
</svg>