<svg width="40.000000" height="40.000000" viewBox="0 0 40 40" fill="none" xmlns="http://www.w3.org/2000/svg" xmlns:xlink="http://www.w3.org/1999/xlink">
	<desc>
			Created with Pixso.
	</desc>
	<defs/>
	<rect id="budget (2) 3" width="40.000000" height="40.000000" fill="#FFFFFF" fill-opacity="0"/>
	<path id="Vector" d="M31.8906 6.98486L31.8906 31.3293C31.8906 31.3779 31.8896 31.4265 31.8867 31.4751C31.8105 33.1423 30.4346 34.4717 28.7471 34.4717L11.0771 34.4717C9.34082 34.4717 7.93359 33.0645 7.93359 31.3293L7.93359 3.14331C7.93359 1.65112 8.97266 0.401855 10.3672 0.0800781C10.5957 0.0275879 10.833 0 11.0771 0L25.1123 0C25.5898 0 26.0557 0.108643 26.4775 0.312744C27.3271 0.721436 27.5664 1.23779 29.0918 2.7981C30.8477 4.70435 31.2666 4.89966 31.624 5.7251C31.7988 6.11865 31.8906 6.54639 31.8906 6.98486Z" fill="#FFC477" fill-opacity="1.000000" fill-rule="nonzero"/>
	<path id="Vector" d="M31.8906 6.98486L31.8906 31.3293C31.8906 31.3779 31.8896 31.4265 31.8877 31.4751C31.6592 31.5278 31.4219 31.5554 31.1777 31.5554L13.5078 31.5554C11.7715 31.5554 10.3643 30.1482 10.3643 28.4131L10.3643 0.226807C10.3643 0.177246 10.3652 0.128662 10.3672 0.0800781C10.5957 0.0275879 10.833 0 11.0771 0L25.1133 0C25.5898 0 26.0557 0.108643 26.4785 0.312744C26.8252 0.479492 27.1416 0.711426 27.4102 0.998047L29.0928 2.7981L31.0186 4.81372C31.2754 5.08179 31.4795 5.39062 31.625 5.7251C31.7988 6.11865 31.8906 6.54639 31.8906 6.98486Z" fill="#FFDAAA" fill-opacity="1.000000" fill-rule="nonzero"/>
	<path id="Vector" d="M39.9541 17.8865L39.9541 35.5581C39.9541 36.5408 39.6348 37.4497 39.0938 38.1853C38.2861 39.2854 36.9834 40 35.5127 40L23.9697 40C21.5166 40 19.5283 38.0112 19.5283 35.5583L19.5283 17.8865C19.5283 16.0532 20.6396 14.479 22.2256 13.801C22.7607 13.5718 23.3506 13.4446 23.9697 13.4446L35.5127 13.4446C37.9668 13.4446 39.9541 15.4336 39.9541 17.8865Z" fill="#4CBA68" fill-opacity="1.000000" fill-rule="nonzero"/>
	<path id="Vector" d="M39.9551 17.8865L39.9551 35.5581C39.9551 36.5408 39.6357 37.4497 39.0947 38.1853C38.5586 38.4146 37.9688 38.5417 37.3496 38.5417L25.8066 38.5417C23.3535 38.5417 21.3652 36.553 21.3652 34.1001L21.3652 16.4282C21.3652 15.4456 21.6846 14.5366 22.2256 13.801C22.7607 13.5718 23.3506 13.4446 23.9707 13.4446L35.5127 13.4446C37.9668 13.4446 39.9551 15.4336 39.9551 17.8865Z" fill="#7CCC92" fill-opacity="1.000000" fill-rule="nonzero"/>
	<path id="Vector" d="M31.4434 29.5051L31.4434 31.5806C31.4434 31.9475 31.1455 32.2449 30.7793 32.2449L28.7031 32.2449C28.3359 32.2449 28.0391 31.9475 28.0391 31.5806L28.0391 29.5051C28.0391 29.1382 28.3359 28.8408 28.7031 28.8408L30.7793 28.8408C31.1455 28.8408 31.4434 29.1382 31.4434 29.5051Z" fill="#2C733F" fill-opacity="1.000000" fill-rule="nonzero"/>
	<path id="Vector" d="M36.9023 17.47L36.9023 19.6936C36.9023 20.4844 36.2617 21.126 35.4697 21.126L24.0137 21.126C23.2227 21.126 22.5811 20.4841 22.5811 19.6936L22.5811 17.47C22.5811 16.6792 23.2227 16.0376 24.0137 16.0376L35.4697 16.0376C36.2617 16.0376 36.9023 16.6792 36.9023 17.47Z" fill="#1E81CE" fill-opacity="1.000000" fill-rule="nonzero"/>
	<path id="Vector" d="M36.9014 17.47L36.9014 19.6936C36.9014 20.4844 36.2607 21.126 35.4697 21.126L26.4434 21.126C25.6523 21.126 25.0107 20.4841 25.0107 19.6936L25.0107 17.47C25.0107 16.6792 25.6523 16.0376 26.4434 16.0376L35.4697 16.0376C36.2607 16.0376 36.9014 16.6792 36.9014 17.47Z" fill="#3D9AE2" fill-opacity="1.000000" fill-rule="nonzero"/>
	<path id="Vector" d="M25.9863 29.5051L25.9863 31.5806C25.9863 31.9475 25.6885 32.2449 25.3213 32.2449L23.2451 32.2449C22.8789 32.2449 22.5811 31.9475 22.5811 31.5806L22.5811 29.5051C22.5811 29.1382 22.8789 28.8408 23.2451 28.8408L25.3213 28.8408C25.6885 28.8408 25.9863 29.1382 25.9863 29.5051Z" fill="#2C733F" fill-opacity="1.000000" fill-rule="nonzero"/>
	<path id="Vector" d="M31.4443 24.0774L31.4443 26.1528C31.4443 26.5198 31.1465 26.8171 30.7803 26.8171L28.7041 26.8171C28.3369 26.8171 28.04 26.5198 28.04 26.1528L28.04 24.0774C28.04 23.7104 28.3369 23.4131 28.7041 23.4131L30.7803 23.4131C31.1465 23.4131 31.4443 23.7104 31.4443 24.0774Z" fill="#2C733F" fill-opacity="1.000000" fill-rule="nonzero"/>
	<path id="Vector" d="M36.9678 24.0774L36.9678 26.1528C36.9678 26.5198 36.6699 26.8171 36.3037 26.8171L34.2275 26.8171C33.8604 26.8171 33.5635 26.5198 33.5635 26.1528L33.5635 24.0774C33.5635 23.7104 33.8604 23.4131 34.2275 23.4131L36.3037 23.4131C36.6699 23.4131 36.9678 23.7104 36.9678 24.0774Z" fill="#EE8700" fill-opacity="1.000000" fill-rule="nonzero"/>
	<path id="Vector" d="M25.9863 24.0774L25.9863 26.1528C25.9863 26.5198 25.6885 26.8171 25.3213 26.8171L23.2451 26.8171C22.8789 26.8171 22.5811 26.5198 22.5811 26.1528L22.5811 24.0774C22.5811 23.7104 22.8789 23.4131 23.2451 23.4131L25.3213 23.4131C25.6885 23.4131 25.9863 23.7104 25.9863 24.0774Z" fill="#2C733F" fill-opacity="1.000000" fill-rule="nonzero"/>
	<path id="Vector" d="M31.4443 34.6663L31.4443 36.7424C31.4443 37.1094 31.1465 37.4067 30.7803 37.4067L28.7041 37.4067C28.3369 37.4067 28.04 37.1094 28.04 36.7424L28.04 34.6663C28.04 34.3 28.3369 34.0027 28.7041 34.0027L30.7803 34.0027C31.1465 34.0027 31.4443 34.3 31.4443 34.6663Z" fill="#2C733F" fill-opacity="1.000000" fill-rule="nonzero"/>
	<path id="Vector" d="M25.9863 34.6663L25.9863 36.7424C25.9863 37.1094 25.6885 37.4067 25.3213 37.4067L23.2451 37.4067C22.8789 37.4067 22.5811 37.1094 22.5811 36.7424L22.5811 34.6663C22.5811 34.3 22.8789 34.0027 23.2451 34.0027L25.3213 34.0027C25.6885 34.0027 25.9863 34.3 25.9863 34.6663Z" fill="#2C733F" fill-opacity="1.000000" fill-rule="nonzero"/>
	<path id="Vector" d="M36.9678 29.8276L36.9678 36.2734C36.9678 36.8999 36.46 37.407 35.835 37.407L34.6963 37.407C34.0703 37.407 33.5635 36.8999 33.5635 36.2734L33.5635 29.8276C33.5635 29.2822 34.0059 28.8408 34.5498 28.8408L35.9805 28.8408C36.5264 28.8408 36.9678 29.2825 36.9678 29.8276Z" fill="#EE8700" fill-opacity="1.000000" fill-rule="nonzero"/>
	<path id="Vector" d="M31.4443 29.5051L31.4443 30.1223C31.4443 30.4893 31.1465 30.7866 30.7803 30.7866L28.7041 30.7866C28.3369 30.7866 28.04 30.4893 28.04 30.1223L28.04 29.5051C28.04 29.1382 28.3369 28.8408 28.7041 28.8408L30.7803 28.8408C31.1465 28.8408 31.4443 29.1382 31.4443 29.5051Z" fill="#317F46" fill-opacity="1.000000" fill-rule="nonzero"/>
	<path id="Vector" d="M25.9863 29.5051L25.9863 30.1223C25.9863 30.4893 25.6885 30.7866 25.3213 30.7866L23.2451 30.7866C22.8789 30.7866 22.5811 30.4893 22.5811 30.1223L22.5811 29.5051C22.5811 29.1382 22.8789 28.8408 23.2451 28.8408L25.3213 28.8408C25.6885 28.8408 25.9863 29.1382 25.9863 29.5051Z" fill="#317F46" fill-opacity="1.000000" fill-rule="nonzero"/>
	<path id="Vector" d="M31.4443 24.0774L31.4443 24.6946C31.4443 25.0615 31.1465 25.3589 30.7803 25.3589L28.7041 25.3589C28.3369 25.3589 28.04 25.0615 28.04 24.6946L28.04 24.0774C28.04 23.7104 28.3369 23.4131 28.7041 23.4131L30.7803 23.4131C31.1465 23.4131 31.4443 23.7104 31.4443 24.0774Z" fill="#317F46" fill-opacity="1.000000" fill-rule="nonzero"/>
	<path id="Vector" d="M36.9678 24.0774L36.9678 24.6946C36.9678 25.0615 36.6699 25.3589 36.3037 25.3589L34.2275 25.3589C33.8604 25.3589 33.5635 25.0615 33.5635 24.6946L33.5635 24.0774C33.5635 23.7104 33.8604 23.4131 34.2275 23.4131L36.3037 23.4131C36.6699 23.4131 36.9678 23.7104 36.9678 24.0774Z" fill="#FF9811" fill-opacity="1.000000" fill-rule="nonzero"/>
	<path id="Vector" d="M25.9863 24.0774L25.9863 24.6946C25.9863 25.0615 25.6885 25.3589 25.3213 25.3589L23.2451 25.3589C22.8789 25.3589 22.5811 25.0615 22.5811 24.6946L22.5811 24.0774C22.5811 23.7104 22.8789 23.4131 23.2451 23.4131L25.3213 23.4131C25.6885 23.4131 25.9863 23.7104 25.9863 24.0774Z" fill="#317F46" fill-opacity="1.000000" fill-rule="nonzero"/>
	<path id="Vector" d="M31.4443 34.6663L31.4443 35.2844C31.4443 35.6514 31.1465 35.9487 30.7803 35.9487L28.7041 35.9487C28.3369 35.9487 28.04 35.6514 28.04 35.2844L28.04 34.6663C28.04 34.3 28.3369 34.0027 28.7041 34.0027L30.7803 34.0027C31.1465 34.0027 31.4443 34.3 31.4443 34.6663Z" fill="#317F46" fill-opacity="1.000000" fill-rule="nonzero"/>
	<path id="Vector" d="M25.9863 34.6663L25.9863 35.2844C25.9863 35.6514 25.6885 35.9487 25.3213 35.9487L23.2451 35.9487C22.8789 35.9487 22.5811 35.6514 22.5811 35.2844L22.5811 34.6663C22.5811 34.3 22.8789 34.0027 23.2451 34.0027L25.3213 34.0027C25.6885 34.0027 25.9863 34.3 25.9863 34.6663Z" fill="#317F46" fill-opacity="1.000000" fill-rule="nonzero"/>
	<path id="Vector" d="M36.9678 29.8276L36.9678 34.8154C36.9678 35.4417 36.46 35.9487 35.835 35.9487L34.6963 35.9487C34.0703 35.9487 33.5635 35.4417 33.5635 34.8154L33.5635 29.8276C33.5635 29.2822 34.0059 28.8408 34.5498 28.8408L35.9805 28.8408C36.5264 28.8408 36.9678 29.2825 36.9678 29.8276Z" fill="#FF9811" fill-opacity="1.000000" fill-rule="nonzero"/>
	<path id="Vector" d="M31.626 5.7251L27.6865 5.7251C27.0195 5.7251 26.4785 5.18408 26.4785 4.5166L26.4785 0.312744C26.8252 0.479492 27.1426 0.711182 27.4102 0.997559L29.0938 2.79785L31.0195 4.81372C31.2764 5.08179 31.4805 5.39038 31.626 5.7251Z" fill="#FFB655" fill-opacity="1.000000" fill-rule="nonzero"/>
	<path id="Vector" d="M15.0342 17.0007C14.2939 16.7285 13.7588 16.5317 13.7588 15.8455C13.7588 15.22 14.1738 14.9028 14.9932 14.9028C15.5439 14.9028 15.8545 15.0627 16.0605 15.1685C16.1826 15.2312 16.2881 15.2856 16.4033 15.2856C16.7373 15.2856 16.9209 14.9319 16.9209 14.687C16.9209 14.1809 16.0957 13.9299 15.3574 13.8638L15.3574 13.4072C15.3574 13.0898 15.0996 12.8315 14.7822 12.8315C14.4639 12.8315 14.2061 13.0898 14.2061 13.4072L14.2061 13.9363C13.1973 14.176 12.6426 14.873 12.6426 15.9058C12.6426 17.3201 13.6836 17.7112 14.5195 18.0256C15.3389 18.3335 15.9863 18.5767 15.9863 19.512C15.9863 20.2844 15.5576 20.6763 14.7109 20.6763C13.9453 20.6763 13.6396 20.3472 13.417 20.1069C13.2842 19.9636 13.1699 19.8401 12.9893 19.8401C12.6963 19.8401 12.4609 20.1675 12.4609 20.4385C12.4609 20.9172 13.1738 21.5466 14.2061 21.71L14.2061 22.1511C14.2061 22.4685 14.4648 22.7268 14.7822 22.7268C15.0996 22.7268 15.3574 22.4685 15.3574 22.1511L15.3574 21.6982C16.4678 21.4893 17.1025 20.6741 17.1025 19.4514C17.1025 17.7605 15.9561 17.3394 15.0342 17.0007Z" fill="#4E901E" fill-opacity="1.000000" fill-rule="nonzero"/>
	<path id="Vector" d="M25.7471 8.87012L27.2734 8.87012C27.6094 8.87012 27.8809 8.59814 27.8809 8.2627C27.8809 7.927 27.6094 7.65503 27.2734 7.65503L25.7471 7.65503C25.4121 7.65503 25.1396 7.927 25.1396 8.2627C25.1396 8.59814 25.4121 8.87012 25.7471 8.87012Z" fill="#4E901E" fill-opacity="1.000000" fill-rule="nonzero"/>
	<path id="Vector" d="M12.542 8.87012L23.3164 8.87012C23.6523 8.87012 23.9238 8.59814 23.9238 8.2627C23.9238 7.927 23.6523 7.65503 23.3164 7.65503L12.542 7.65503C12.207 7.65503 11.9346 7.927 11.9346 8.2627C11.9346 8.59814 12.207 8.87012 12.542 8.87012Z" fill="#4E901E" fill-opacity="1.000000" fill-rule="nonzero"/>
	<path id="Vector" d="M14.4736 11.886C14.8086 11.886 15.0811 11.614 15.0811 11.2786C15.0811 10.9429 14.8086 10.6709 14.4736 10.6709L12.542 10.6709C12.207 10.6709 11.9346 10.9429 11.9346 11.2786C11.9346 11.614 12.207 11.886 12.542 11.886L14.4736 11.886Z" fill="#4E901E" fill-opacity="1.000000" fill-rule="nonzero"/>
	<path id="Vector" d="M27.2725 10.6709L16.9033 10.6709C16.5684 10.6709 16.2959 10.9429 16.2959 11.2786C16.2959 11.614 16.5684 11.886 16.9033 11.886L27.2725 11.886C27.6084 11.886 27.8809 11.614 27.8809 11.2786C27.8809 10.9429 27.6084 10.6709 27.2725 10.6709Z" fill="#4E901E" fill-opacity="1.000000" fill-rule="nonzero"/>
	<path id="Vector" d="M17.4551 38.0898C17.4551 38.5134 17.2822 38.8975 17.0029 39.177C16.7236 39.4556 16.3398 39.6289 15.916 39.6289L6.48633 39.6289C5.63965 39.6289 4.94727 38.9363 4.94727 38.0898C4.94727 37.666 5.12109 37.282 5.39941 37.0027C5.67871 36.7239 6.0625 36.5505 6.48633 36.5505L15.916 36.5505C16.7627 36.5505 17.4551 37.2432 17.4551 38.0898Z" fill="#AA6100" fill-opacity="1.000000" fill-rule="nonzero"/>
	<path id="Vector" d="M17.4551 35.0115C17.4551 35.4351 17.2822 35.8191 17.0029 36.0986C16.7236 36.3772 16.3398 36.5505 15.916 36.5505L6.48633 36.5505C5.63965 36.5505 4.94727 35.8579 4.94727 35.0115C4.94727 34.5876 5.12109 34.2036 5.39941 33.9243C5.67871 33.6455 6.0625 33.4722 6.48633 33.4722L15.916 33.4722C16.7627 33.4722 17.4551 34.1648 17.4551 35.0115Z" fill="#CC7400" fill-opacity="1.000000" fill-rule="nonzero"/>
	<path id="Vector" d="M17.4551 31.9329C17.4551 32.3564 17.2822 32.7405 17.0029 33.02C16.7236 33.2986 16.3398 33.4719 15.916 33.4719L6.48633 33.4719C5.63965 33.4719 4.94727 32.7793 4.94727 31.9329C4.94727 31.509 5.12109 31.125 5.39941 30.8457C5.67871 30.5669 6.0625 30.3936 6.48633 30.3936L15.916 30.3936C16.7627 30.3936 17.4551 31.0862 17.4551 31.9329Z" fill="#EE8700" fill-opacity="1.000000" fill-rule="nonzero"/>
	<path id="Vector" d="M17.4551 28.8547C17.4551 29.2783 17.2822 29.6624 17.0029 29.9419C16.7236 30.2205 16.3398 30.3938 15.916 30.3938L6.48633 30.3938C5.63965 30.3938 4.94727 29.7012 4.94727 28.8547C4.94727 28.5532 5.03516 28.2715 5.1875 28.0332C5.24805 27.9368 5.31934 27.8477 5.39941 27.7676C5.67871 27.4888 6.0625 27.3154 6.48633 27.3154L15.916 27.3154C16.7627 27.3154 17.4551 28.0081 17.4551 28.8547Z" fill="#FF9811" fill-opacity="1.000000" fill-rule="nonzero"/>
	<path id="Vector" d="M15.916 27.3152L6.48633 27.3152C5.63965 27.3152 4.94727 26.6226 4.94727 25.7761C4.94727 24.9294 5.63965 24.2368 6.48633 24.2368L15.916 24.2368C16.7627 24.2368 17.4551 24.9294 17.4551 25.7761C17.4551 26.6226 16.7627 27.3152 15.916 27.3152Z" fill="#FFA733" fill-opacity="1.000000" fill-rule="nonzero"/>
	<path id="Vector" d="M6.82129 29.7837L6.82129 39.8042L5.28809 39.8042C3.93359 39.8623 2.68164 39.3767 1.74316 38.5422C-1.66406 35.5186 0.40918 29.9766 4.8584 29.7837L6.82129 29.7837Z" fill="#CC7400" fill-opacity="1.000000" fill-rule="nonzero"/>
	<path id="Vector" d="M12.041 34.9753C11.9512 37.5667 9.87793 39.6912 7.24512 39.804C4.47852 39.9224 2.13965 37.7751 2.02051 35.0085C2.02051 34.9973 2.01953 34.9866 2.01953 34.9753C1.91992 32.2224 4.06055 29.9021 6.81641 29.7842C9.58301 29.666 11.9219 31.813 12.04 34.5803C12.0459 34.7131 12.0459 34.8447 12.041 34.9753Z" fill="#FFC477" fill-opacity="1.000000" fill-rule="nonzero"/>
	<path id="Vector" d="M7.86035 38.4534C7.79883 38.467 7.73828 38.4792 7.67773 38.49C5.71973 38.8347 3.81543 37.5833 3.37109 35.6235C2.91309 33.6023 4.17969 31.593 6.20117 31.1345C6.7041 31.0208 7.20605 31.0132 7.68359 31.0977C9.12598 31.3538 10.3457 32.446 10.6895 33.9644C11.1484 35.9854 9.88184 37.9954 7.86035 38.4534Z" fill="#CC7400" fill-opacity="1.000000" fill-rule="nonzero"/>
	<path id="Vector" d="M7.85938 38.4536C7.79883 38.4673 7.7373 38.4795 7.67676 38.4902C6.23535 38.2341 5.01465 37.1414 4.6709 35.6235C4.21289 33.6025 5.47949 31.593 7.50098 31.1345C7.56152 31.1208 7.62305 31.1086 7.68359 31.0979C9.12598 31.354 10.3447 32.4463 10.6895 33.9646C11.1475 35.9856 9.88086 37.9956 7.85938 38.4536Z" fill="#EE8700" fill-opacity="1.000000" fill-rule="nonzero"/>
	<path id="Vector" d="M12.041 34.9753C11.9502 37.5667 9.87793 39.6912 7.24414 39.804C4.47754 39.9221 2.13867 37.7751 2.02051 35.0085C2.02051 34.9973 2.01953 34.9866 2.01953 34.9753L3.28125 34.9753C3.29199 35.1899 3.32129 35.4067 3.37012 35.6235C3.8291 37.6448 5.83887 38.9119 7.86035 38.4534C9.54102 38.0725 10.7002 36.6179 10.7783 34.9753L12.041 34.9753Z" fill="#FFA733" fill-opacity="1.000000" fill-rule="nonzero"/>
	<path id="Vector" d="M7.48047 34.032L7.38672 33.9973C6.85254 33.8013 6.79883 33.739 6.79883 33.5581C6.79883 33.406 6.85449 33.3621 6.90723 33.333C6.98926 33.2876 7.11816 33.2627 7.26953 33.2627C7.53418 33.2627 7.66699 33.3313 7.78613 33.3923C7.87695 33.4392 7.97949 33.4919 8.11426 33.4919C8.45996 33.4919 8.69336 33.1675 8.69336 32.8643C8.69336 32.4949 8.3623 32.2402 7.75684 32.136L7.75684 32.0979C7.75684 31.7593 7.48145 31.4839 7.14258 31.4839C6.80371 31.4839 6.52832 31.7593 6.52832 32.0979L6.52832 32.2144C5.93066 32.4314 5.5918 32.9248 5.5918 33.5942C5.5918 34.6277 6.34277 34.9097 6.8916 35.1157C7.41406 35.3123 7.59473 35.3984 7.59473 35.7542C7.59473 35.9763 7.53516 36.1821 7.10059 36.1821C6.75879 36.1821 6.63867 36.0525 6.52246 35.927C6.43164 35.8291 6.29395 35.6814 6.06934 35.6814C5.7334 35.6814 5.4834 36.0127 5.4834 36.3091C5.4834 36.7288 5.91992 37.1272 6.52832 37.2888L6.52832 37.3347C6.52832 37.6733 6.80371 37.9487 7.14258 37.9487C7.48145 37.9487 7.75684 37.6733 7.75684 37.3347L7.75684 37.2727C8.41504 37.061 8.80176 36.4939 8.80176 35.7178C8.80176 34.5247 7.94238 34.2041 7.48047 34.032Z" fill="#AA6100" fill-opacity="1.000000" fill-rule="nonzero"/>
	<path id="Vector" d="M2.8457 32.0305C2.59863 32.4031 2.40137 32.8101 2.26074 33.2424L0.303711 33.2424C0.443359 32.8035 0.654297 32.3823 0.887695 32.0305L2.8457 32.0305Z" fill="#AA6100" fill-opacity="1.000000" fill-rule="nonzero"/>
	<path id="Vector" d="M2.05469 35.4229L0.0966797 35.4229C0.0478516 35.0234 0.0439453 34.6238 0.0917969 34.2109L2.0498 34.2109C2.00293 34.6045 2.00391 35.0134 2.05469 35.4229Z" fill="#AA6100" fill-opacity="1.000000" fill-rule="nonzero"/>
	<path id="Vector" d="M2.91406 37.6584L0.956055 37.6584C0.69043 37.2786 0.482422 36.8655 0.336914 36.4465L2.29492 36.4465C2.44531 36.8821 2.65527 37.2883 2.91406 37.6584Z" fill="#AA6100" fill-opacity="1.000000" fill-rule="nonzero"/>
</svg>
