<svg xmlns="http://www.w3.org/2000/svg" width="18" height="18" viewBox="0 0 18 18" fill="none">
  <path d="M16.5 7.5H1.5M8.25 14.25L14.1 14.25C14.9401 14.25 15.3601 14.25 15.681 14.0865C15.9632 13.9427 16.1927 13.7132 16.3365 13.431C16.5 13.1101 16.5 12.6901 16.5 11.85V6.15C16.5 5.30992 16.5 4.88988 16.3365 4.56902C16.1927 4.28677 15.9632 4.0573 15.681 3.91349C15.3601 3.75 14.9401 3.75 14.1 3.75H12.75M8.25 14.25L9.75 15.75M8.25 14.25L9.75 12.75M5.25 14.25H3.9C3.05992 14.25 2.63988 14.25 2.31901 14.0865C2.03677 13.9427 1.8073 13.7132 1.66349 13.431C1.5 13.1101 1.5 12.6901 1.5 11.85V6.15C1.5 5.30992 1.5 4.88988 1.66349 4.56901C1.8073 4.28677 2.03677 4.0573 2.31901 3.91349C2.63988 3.75 3.05992 3.75 3.9 3.75H9.75M9.75 3.75L8.25 5.25M9.75 3.75L8.25 2.25" stroke="#108E66" stroke-width="1.5" stroke-linecap="round" stroke-linejoin="round"/>
</svg>