<svg width="14" height="14" viewBox="0 0 14 14" fill="none" xmlns="http://www.w3.org/2000/svg">
<g id="edit-05" clip-path="url(#clip0_2653_23716)">
<path id="Icon" d="M6.41699 2.33338H3.96699C2.9869 2.33338 2.49685 2.33338 2.12251 2.52412C1.79323 2.6919 1.52551 2.95962 1.35773 3.2889C1.16699 3.66325 1.16699 4.15329 1.16699 5.13338V10.0334C1.16699 11.0135 1.16699 11.5035 1.35773 11.8779C1.52551 12.2072 1.79323 12.4749 2.12251 12.6426C2.49685 12.8334 2.9869 12.8334 3.96699 12.8334H8.86699C9.84708 12.8334 10.3371 12.8334 10.7115 12.6426C11.0408 12.4749 11.3085 12.2072 11.4763 11.8779C11.667 11.5035 11.667 11.0135 11.667 10.0334V7.58338M4.66698 9.33338H5.64379C5.92915 9.33338 6.07183 9.33338 6.2061 9.30115C6.32514 9.27257 6.43894 9.22543 6.54332 9.16146C6.66106 9.08932 6.76195 8.98843 6.96373 8.78665L12.542 3.20839C13.0252 2.72514 13.0252 1.94163 12.542 1.45838C12.0587 0.975135 11.2752 0.975135 10.792 1.45838L5.21371 7.03665C5.01193 7.23843 4.91105 7.33932 4.8389 7.45705C4.77493 7.56144 4.72779 7.67524 4.69921 7.79428C4.66698 7.92855 4.66698 8.07123 4.66698 8.35658V9.33338Z" stroke="#108E66" stroke-width="1.5" stroke-linecap="round" stroke-linejoin="round"/>
</g>
<defs>
<clipPath id="clip0_2653_23716">
<rect width="14" height="14" fill="white"/>
</clipPath>
</defs>
</svg>
