<svg width="24.000000" height="24.000000" viewBox="0 0 24 24" fill="none" xmlns="http://www.w3.org/2000/svg" xmlns:xlink="http://www.w3.org/1999/xlink">
	<desc>
			Created with Pixso.
	</desc>
	<defs>
		<clipPath id="clip465_6880">
			<rect id="ep:success-filled" width="24.000000" height="24.000000" fill="white" fill-opacity="0"/>
		</clipPath>
	</defs>
	<rect id="ep:success-filled" width="24.000000" height="24.000000" fill="#FFFFFF" fill-opacity="0"/>
	<g clip-path="url(#clip465_6880)">
		<path id="Vector" d="M12 1.5C14.7847 1.5 17.4556 2.6062 19.4248 4.57544C21.3936 6.54456 22.5 9.21521 22.5 12C22.5 14.7848 21.3936 17.4554 19.4248 19.4246C17.4556 21.3938 14.7847 22.5 12 22.5C9.21533 22.5 6.54443 21.3938 4.5752 19.4246C2.60645 17.4554 1.5 14.7848 1.5 12C1.5 9.21521 2.60645 6.54456 4.5752 4.57544C6.54443 2.6062 9.21533 1.5 12 1.5ZM10.6919 14.0715L8.35938 11.7375C8.27588 11.6539 8.17676 11.5875 8.06738 11.5422C7.95801 11.4971 7.84082 11.4738 7.72266 11.4738C7.60449 11.4738 7.4873 11.4971 7.37793 11.5422C7.26904 11.5875 7.16943 11.6539 7.08594 11.7375C6.91699 11.9064 6.82227 12.1354 6.82227 12.3743C6.82227 12.613 6.91699 12.8422 7.08594 13.011L10.0562 15.981C10.1392 16.0651 10.2388 16.1317 10.3477 16.1772C10.457 16.2228 10.5742 16.2462 10.6929 16.2462C10.811 16.2462 10.9282 16.2228 11.0376 16.1772C11.147 16.1317 11.2461 16.0651 11.3296 15.981L17.4795 9.82947C17.5645 9.74622 17.6318 9.64697 17.6777 9.5376C17.7241 9.4281 17.748 9.31055 17.7485 9.19177C17.749 9.073 17.7261 8.9552 17.6812 8.84534C17.6357 8.73547 17.5693 8.63562 17.4854 8.55151C17.4014 8.46753 17.3018 8.40088 17.1919 8.35559C17.082 8.3103 16.9644 8.28723 16.8457 8.2876C16.7266 8.28796 16.6094 8.31189 16.4995 8.35803C16.3901 8.40405 16.291 8.47131 16.2075 8.55603L10.6919 14.0715Z" fill="#108E66" fill-opacity="1.000000" fill-rule="nonzero"/>
	</g>
</svg>
