<svg xmlns="http://www.w3.org/2000/svg" width="121" height="80" viewBox="0 0 121 80" fill="none">
  <path d="M102.072 22.4C102.072 22.4 85.5685 5.55523 64.1207 4.25443C42.6729 2.95363 30.1658 16.76 24.239 24.9936C18.3123 33.2272 3.52506 46.9456 5.26889 59.5072C7.01272 72.0688 24.109 81.6 48.5996 77.4128C73.0903 73.2256 80.1909 71.6368 91.3491 74.8144C102.507 77.992 116.999 73.2256 117.288 55.176C117.577 37.1264 102.072 22.4 102.072 22.4Z" fill="#108E66"/>
  <path opacity="0.7" d="M102.072 22.4C102.072 22.4 85.5685 5.55523 64.1207 4.25443C42.6729 2.95363 30.1658 16.76 24.239 24.9936C18.3123 33.2272 3.52506 46.9456 5.26889 59.5072C7.01272 72.0688 24.109 81.6 48.5996 77.4128C73.0903 73.2256 80.1909 71.6368 91.3491 74.8144C102.507 77.992 116.999 73.2256 117.288 55.176C117.577 37.1264 102.072 22.4 102.072 22.4Z" fill="white"/>
  <path d="M8.42578 73.064H113.107" stroke="#263238" stroke-width="0.6" stroke-miterlimit="10"/>
  <path d="M12.9863 46.3247L15.1043 66.5327" stroke="#263238" stroke-width="0.6" stroke-miterlimit="10"/>
  <path d="M14.7614 62.6656L13.8027 61.656" stroke="#263238" stroke-width="0.6" stroke-miterlimit="10"/>
  <path d="M14.0937 61.9582C14.0918 61.8036 14.0567 61.6513 13.9908 61.5114C13.9249 61.3715 13.8297 61.2472 13.7116 61.147C13.4659 60.9278 12.1701 60.3854 12.0464 60.8398C11.9132 61.3342 13.2395 62.307 14.0937 61.9582Z" fill="#108E66" stroke="#263238" stroke-width="0.6" stroke-miterlimit="10"/>
  <path d="M14.0945 61.9583L12.8613 61.1919" stroke="#263238" stroke-width="0.6" stroke-miterlimit="10"/>
  <path d="M15.0035 64.9647L14.0449 63.9551" stroke="#263238" stroke-width="0.6" stroke-miterlimit="10"/>
  <path d="M14.334 64.2576C14.3322 64.103 14.2971 63.9506 14.2312 63.8107C14.1652 63.6708 14.07 63.5465 13.9518 63.4464C13.7061 63.2272 12.4103 62.6832 12.2867 63.1376C12.1534 63.6336 13.4797 64.6048 14.334 64.2576Z" fill="#108E66" stroke="#263238" stroke-width="0.6" stroke-miterlimit="10"/>
  <path d="M14.3348 64.2576L13.1016 63.4912" stroke="#263238" stroke-width="0.6" stroke-miterlimit="10"/>
  <path d="M14.1735 57.0575L13.2148 56.0479" stroke="#263238" stroke-width="0.6" stroke-miterlimit="10"/>
  <path d="M13.5054 56.3503C13.5035 56.1959 13.4686 56.0436 13.4029 55.9038C13.3373 55.7639 13.2425 55.6396 13.1249 55.5391C12.8776 55.3199 11.5818 54.7759 11.4581 55.2319C11.3281 55.7263 12.6512 56.6975 13.5054 56.3503Z" fill="#108E66" stroke="#263238" stroke-width="0.6" stroke-miterlimit="10"/>
  <path d="M13.5066 56.3504L12.2734 55.584" stroke="#263238" stroke-width="0.6" stroke-miterlimit="10"/>
  <path d="M14.4157 59.3551L13.457 58.3455" stroke="#263238" stroke-width="0.6" stroke-miterlimit="10"/>
  <path d="M13.748 58.6479C13.7461 58.4933 13.711 58.341 13.6451 58.2011C13.5792 58.0612 13.484 57.9369 13.3659 57.8367C13.1202 57.6175 11.8244 57.0751 11.7007 57.5295C11.5674 58.0239 12.8938 58.9967 13.748 58.6479Z" fill="#108E66" stroke="#263238" stroke-width="0.6" stroke-miterlimit="10"/>
  <path d="M13.7469 58.648L12.5137 57.8816" stroke="#263238" stroke-width="0.6" stroke-miterlimit="10"/>
  <path d="M13.7844 53.3231L12.8242 52.3135" stroke="#263238" stroke-width="0.6" stroke-miterlimit="10"/>
  <path d="M13.1154 52.6159C13.1135 52.4613 13.0784 52.309 13.0125 52.1691C12.9466 52.0291 12.8514 51.9049 12.7333 51.8047C12.4876 51.5871 11.1902 51.0431 11.0681 51.4975C10.9332 51.9999 12.2612 52.9599 13.1154 52.6159Z" fill="#108E66" stroke="#263238" stroke-width="0.6" stroke-miterlimit="10"/>
  <path d="M13.1157 52.616L11.8809 51.8496" stroke="#263238" stroke-width="0.6" stroke-miterlimit="10"/>
  <path d="M13.3903 49.5743L12.4316 48.5647" stroke="#263238" stroke-width="0.6" stroke-miterlimit="10"/>
  <path d="M12.7226 48.8671C12.7207 48.7125 12.6856 48.5602 12.6197 48.4203C12.5538 48.2804 12.4586 48.1561 12.3405 48.0559C12.0948 47.8367 10.799 47.2927 10.6753 47.7487C10.5421 48.2431 11.8684 49.2143 12.7226 48.8671Z" fill="#108E66" stroke="#263238" stroke-width="0.6" stroke-miterlimit="10"/>
  <path d="M12.7234 48.867L11.4902 48.1006" stroke="#263238" stroke-width="0.6" stroke-miterlimit="10"/>
  <path d="M14.6016 61.3055L15.3306 60.1199" stroke="#263238" stroke-width="0.6" stroke-miterlimit="10"/>
  <path d="M15.1089 60.48C15.0785 60.3284 15.0811 60.1721 15.1166 60.0217C15.152 59.8713 15.2195 59.7302 15.3145 59.608C15.5088 59.3424 16.6649 58.544 16.8801 58.968C17.1097 59.4176 16.0162 60.64 15.1089 60.48Z" fill="#108E66" stroke="#263238" stroke-width="0.6" stroke-miterlimit="10"/>
  <path d="M15.1094 60.4767L16.2205 59.4175" stroke="#263238" stroke-width="0.6" stroke-miterlimit="10"/>
  <path d="M13.9668 55.2576L14.6974 54.072" stroke="#263238" stroke-width="0.6" stroke-miterlimit="10"/>
  <path d="M14.4737 54.4287C14.4437 54.2771 14.4465 54.121 14.482 53.9706C14.5174 53.8202 14.5847 53.6791 14.6793 53.5567C14.8752 53.2911 16.0313 52.4927 16.2449 52.9167C16.4793 53.3695 15.3826 54.5919 14.4737 54.4287Z" fill="#108E66" stroke="#263238" stroke-width="0.6" stroke-miterlimit="10"/>
  <path d="M14.4746 54.4286L15.5858 53.3694" stroke="#263238" stroke-width="0.6" stroke-miterlimit="10"/>
  <path d="M13.6895 52.5999L14.4185 51.4143" stroke="#263238" stroke-width="0.6" stroke-miterlimit="10"/>
  <path d="M14.1968 51.7695C14.1664 51.6179 14.169 51.4617 14.2044 51.3112C14.2399 51.1608 14.3074 51.0197 14.4024 50.8975C14.5983 50.6335 15.7528 49.8351 15.968 50.2575C16.2008 50.7103 15.1041 51.9343 14.1968 51.7695Z" fill="#108E66" stroke="#263238" stroke-width="0.6" stroke-miterlimit="10"/>
  <path d="M14.1973 51.7695L15.3084 50.7119" stroke="#263238" stroke-width="0.6" stroke-miterlimit="10"/>
  <path d="M13.2812 48.7039L14.0103 47.5183" stroke="#263238" stroke-width="0.6" stroke-miterlimit="10"/>
  <path d="M13.7886 47.8735C13.7582 47.722 13.7608 47.5657 13.7962 47.4153C13.8317 47.2648 13.8992 47.1237 13.9942 47.0015C14.1885 46.7359 15.3446 45.9375 15.5598 46.3615C15.7926 46.8143 14.7007 48.0383 13.7886 47.8735Z" fill="#108E66" stroke="#263238" stroke-width="0.6" stroke-miterlimit="10"/>
  <path d="M13.7891 47.8735L14.9002 46.8159" stroke="#263238" stroke-width="0.6" stroke-miterlimit="10"/>
  <path d="M12.9679 46.2111C12.9379 46.0596 12.9407 45.9034 12.9761 45.753C13.0116 45.6026 13.0788 45.4615 13.1734 45.3391C13.3693 45.0751 14.5254 44.2767 14.7406 44.6991C14.9734 45.1519 13.8767 46.3759 12.9679 46.2111Z" fill="#108E66" stroke="#263238" stroke-width="0.6" stroke-miterlimit="10"/>
  <path d="M12.9688 46.2112L14.0799 45.1536" stroke="#263238" stroke-width="0.6" stroke-miterlimit="10"/>
  <path d="M13.0342 46.2575C12.8796 46.2717 12.7238 46.2526 12.5772 46.2015C12.4307 46.1505 12.2969 46.0686 12.1848 45.9616C11.9407 45.7408 11.2647 44.512 11.7031 44.3424C12.1864 44.16 13.2928 45.3743 13.0342 46.2575Z" fill="#108E66" stroke="#263238" stroke-width="0.6" stroke-miterlimit="10"/>
  <path d="M13.0347 46.2575L12.0938 45.0447" stroke="#263238" stroke-width="0.6" stroke-miterlimit="10"/>
  <path d="M18.57 49.1072L16.4648 69.3184" stroke="#263238" stroke-width="0.6" stroke-miterlimit="10"/>
  <path d="M16.9298 65.4639L16.1992 64.2783" stroke="#263238" stroke-width="0.6" stroke-miterlimit="10"/>
  <path d="M16.4216 64.6398C16.4516 64.4883 16.4488 64.3321 16.4133 64.1817C16.3779 64.0313 16.3106 63.8902 16.216 63.7678C16.0201 63.5038 14.864 62.7054 14.6488 63.1278C14.416 63.5758 15.5143 64.7998 16.4216 64.6398Z" fill="#108E66" stroke="#263238" stroke-width="0.6" stroke-miterlimit="10"/>
  <path d="M16.4216 64.6336L15.373 63.6304" stroke="#263238" stroke-width="0.6" stroke-miterlimit="10"/>
  <path d="M17.5138 59.8543L16.7832 58.6687" stroke="#263238" stroke-width="0.6" stroke-miterlimit="10"/>
  <path d="M17.0075 59.0255C17.0376 58.8739 17.0348 58.7178 16.9993 58.5674C16.9639 58.417 16.8966 58.2759 16.802 58.1535C16.6061 57.8879 15.45 57.0911 15.2348 57.5135C15.002 57.9663 16.0987 59.1903 17.0075 59.0255Z" fill="#108E66" stroke="#263238" stroke-width="0.6" stroke-miterlimit="10"/>
  <path d="M17.0072 59.0254L15.957 58.0222" stroke="#263238" stroke-width="0.6" stroke-miterlimit="10"/>
  <path d="M17.2755 62.1536L16.5449 60.968" stroke="#263238" stroke-width="0.6" stroke-miterlimit="10"/>
  <path d="M16.7673 61.3232C16.7973 61.1716 16.7945 61.0154 16.7591 60.8651C16.7236 60.7147 16.6564 60.5736 16.5618 60.4512C16.3659 60.1872 15.2097 59.3888 14.9946 59.8112C14.7617 60.2656 15.8585 61.488 16.7673 61.3232Z" fill="#108E66" stroke="#263238" stroke-width="0.6" stroke-miterlimit="10"/>
  <path d="M16.7669 61.323L15.7168 60.3198" stroke="#263238" stroke-width="0.6" stroke-miterlimit="10"/>
  <path d="M17.9025 56.1198L17.1719 54.9358" stroke="#263238" stroke-width="0.6" stroke-miterlimit="10"/>
  <path d="M17.3962 55.2911C17.4262 55.1396 17.4234 54.9834 17.3879 54.833C17.3525 54.6826 17.2852 54.5415 17.1906 54.4191C16.9947 54.1535 15.8386 53.3567 15.6234 53.7791C15.3906 54.2399 16.4889 55.4559 17.3962 55.2911Z" fill="#108E66" stroke="#263238" stroke-width="0.6" stroke-miterlimit="10"/>
  <path d="M17.3962 55.291L16.3477 54.2878" stroke="#263238" stroke-width="0.6" stroke-miterlimit="10"/>
  <path d="M18.2935 52.3711L17.5645 51.1855" stroke="#263238" stroke-width="0.6" stroke-miterlimit="10"/>
  <path d="M17.7848 51.5407C17.8153 51.3892 17.8127 51.2329 17.7772 51.0824C17.7418 50.932 17.6743 50.7909 17.5793 50.6687C17.3834 50.4047 16.2273 49.6063 16.0121 50.0287C15.7793 50.4831 16.8776 51.7055 17.7848 51.5407Z" fill="#108E66" stroke="#263238" stroke-width="0.6" stroke-miterlimit="10"/>
  <path d="M17.7849 51.5408L16.7363 50.5376" stroke="#263238" stroke-width="0.6" stroke-miterlimit="10"/>
  <path d="M17.0527 64.0992L18.0114 63.0896" stroke="#263238" stroke-width="0.6" stroke-miterlimit="10"/>
  <path d="M17.7207 63.3919C17.7221 63.2374 17.7568 63.085 17.8225 62.945C17.8881 62.8051 17.9832 62.6808 18.1013 62.5807C18.3485 62.3615 19.6444 61.8175 19.7664 62.2719C19.9013 62.7663 18.575 63.7391 17.7207 63.3919Z" fill="#108E66" stroke="#263238" stroke-width="0.6" stroke-miterlimit="10"/>
  <path d="M17.7207 63.392L19.0262 62.584" stroke="#263238" stroke-width="0.6" stroke-miterlimit="10"/>
  <path d="M17.6836 58.051L18.6422 57.0398" stroke="#263238" stroke-width="0.6" stroke-miterlimit="10"/>
  <path d="M18.3516 57.3422C18.3535 57.1876 18.3886 57.0353 18.4545 56.8954C18.5204 56.7555 18.6156 56.6312 18.7337 56.531C18.9794 56.3118 20.2752 55.7678 20.3989 56.2238C20.5322 56.7182 19.2058 57.6894 18.3516 57.3422Z" fill="#108E66" stroke="#263238" stroke-width="0.6" stroke-miterlimit="10"/>
  <path d="M18.3516 57.3423L19.657 56.5359" stroke="#263238" stroke-width="0.6" stroke-miterlimit="10"/>
  <path d="M17.9609 55.3919L18.9196 54.3823" stroke="#263238" stroke-width="0.6" stroke-miterlimit="10"/>
  <path d="M18.627 54.6846C18.6289 54.53 18.664 54.3777 18.7299 54.2378C18.7958 54.0978 18.891 53.9736 19.0091 53.8734C19.2548 53.6542 20.5506 53.1102 20.6743 53.5646C20.8027 54.059 19.4828 55.0398 18.627 54.6846Z" fill="#108E66" stroke="#263238" stroke-width="0.6" stroke-miterlimit="10"/>
  <path d="M18.627 54.6847L19.934 53.8767" stroke="#263238" stroke-width="0.6" stroke-miterlimit="10"/>
  <path d="M18.3652 51.4958L19.3255 50.4846" stroke="#263238" stroke-width="0.6" stroke-miterlimit="10"/>
  <path d="M19.0371 50.7886C19.0389 50.634 19.074 50.4816 19.1399 50.3417C19.2058 50.2018 19.3011 50.0775 19.4193 49.9774C19.665 49.7566 20.9608 49.2126 21.0844 49.6686C21.2145 50.163 19.8881 51.1358 19.0371 50.7886Z" fill="#108E66" stroke="#263238" stroke-width="0.6" stroke-miterlimit="10"/>
  <path d="M19.0332 50.7887L20.3403 49.9807" stroke="#263238" stroke-width="0.6" stroke-miterlimit="10"/>
  <path d="M18.5762 48.9934C18.5781 48.839 18.6131 48.6868 18.6787 48.5469C18.7443 48.4071 18.8391 48.2827 18.9567 48.1822C19.204 47.963 20.4998 47.419 20.6219 47.8734C20.7568 48.3678 19.4304 49.3406 18.5762 48.9934Z" fill="#108E66" stroke="#263238" stroke-width="0.6" stroke-miterlimit="10"/>
  <path d="M18.5762 48.9935L19.8816 48.1855" stroke="#263238" stroke-width="0.6" stroke-miterlimit="10"/>
  <path d="M18.6282 49.0512C18.4743 49.0333 18.326 48.9827 18.1933 48.903C18.0607 48.8232 17.9467 48.7161 17.859 48.5888C17.6663 48.3216 17.2585 46.9808 17.7257 46.9056C18.2332 46.8256 19.0649 48.2416 18.6282 49.0512Z" fill="#108E66" stroke="#263238" stroke-width="0.6" stroke-miterlimit="10"/>
  <path d="M18.6286 49.0512L17.959 47.6736" stroke="#263238" stroke-width="0.6" stroke-miterlimit="10"/>
  <path d="M16.1582 40.8767V66.4351" stroke="#263238" stroke-width="0.6" stroke-miterlimit="10"/>
  <path d="M16.1776 62.5918L15.3281 61.4878" stroke="#263238" stroke-width="0.6" stroke-miterlimit="10"/>
  <path d="M15.5876 61.819C15.6019 61.6651 15.5828 61.5099 15.5319 61.3639C15.4809 61.2179 15.3992 61.0845 15.2922 60.9726C15.0706 60.7294 13.8374 60.0558 13.6672 60.4926C13.4825 60.9726 14.7013 62.0798 15.5876 61.819Z" fill="#108E66" stroke="#263238" stroke-width="0.6" stroke-miterlimit="10"/>
  <path d="M15.5876 61.819L14.4395 60.9294" stroke="#263238" stroke-width="0.6" stroke-miterlimit="10"/>
  <path d="M16.1776 57.7887L15.3281 56.6863" stroke="#263238" stroke-width="0.6" stroke-miterlimit="10"/>
  <path d="M15.5876 57.016C15.6018 56.8624 15.5828 56.7074 15.5318 56.5617C15.4809 56.416 15.3992 56.2828 15.2922 56.1712C15.0706 55.9264 13.8374 55.2528 13.6672 55.6912C13.4825 56.1712 14.7013 57.28 15.5876 57.016Z" fill="#108E66" stroke="#263238" stroke-width="0.6" stroke-miterlimit="10"/>
  <path d="M15.5876 57.0158L14.4395 56.1262" stroke="#263238" stroke-width="0.6" stroke-miterlimit="10"/>
  <path d="M16.1776 52.1504L15.3281 51.0464" stroke="#263238" stroke-width="0.6" stroke-miterlimit="10"/>
  <path d="M15.5876 51.3776C15.6019 51.2237 15.5828 51.0685 15.5319 50.9225C15.4809 50.7765 15.3992 50.6431 15.2922 50.5312C15.0706 50.288 13.8374 49.6144 13.6672 50.0512C13.4825 50.5312 14.7013 51.6352 15.5876 51.3776Z" fill="#108E66" stroke="#263238" stroke-width="0.6" stroke-miterlimit="10"/>
  <path d="M15.5876 51.3774L14.4395 50.4878" stroke="#263238" stroke-width="0.6" stroke-miterlimit="10"/>
  <path d="M16.1776 48.3967L15.3281 47.2927" stroke="#263238" stroke-width="0.6" stroke-miterlimit="10"/>
  <path d="M15.5876 47.6239C15.6019 47.47 15.5828 47.3148 15.5319 47.1688C15.4809 47.0228 15.3992 46.8894 15.2922 46.7775C15.0706 46.5343 13.8374 45.8591 13.6672 46.2975C13.4825 46.7775 14.7013 47.8815 15.5876 47.6239Z" fill="#108E66" stroke="#263238" stroke-width="0.6" stroke-miterlimit="10"/>
  <path d="M15.5876 47.624L14.4395 46.7344" stroke="#263238" stroke-width="0.6" stroke-miterlimit="10"/>
  <path d="M16.1776 44.6256L15.3281 43.5232" stroke="#263238" stroke-width="0.6" stroke-miterlimit="10"/>
  <path d="M15.5876 43.8543C15.6019 43.7004 15.5828 43.5453 15.5319 43.3993C15.4809 43.2533 15.3992 43.1198 15.2922 43.0079C15.0706 42.7647 13.8374 42.0895 13.6672 42.5279C13.4825 43.0079 14.7013 44.1119 15.5876 43.8543Z" fill="#108E66" stroke="#263238" stroke-width="0.6" stroke-miterlimit="10"/>
  <path d="M15.5876 43.8542L14.4395 42.9646" stroke="#263238" stroke-width="0.6" stroke-miterlimit="10"/>
  <path d="M16.1582 64.0591L17.0076 62.9551" stroke="#263238" stroke-width="0.6" stroke-miterlimit="10"/>
  <path d="M16.7507 63.2862C16.7365 63.1323 16.7555 62.9771 16.8064 62.8311C16.8574 62.6852 16.9391 62.5517 17.0461 62.4398C17.2677 62.1966 18.5009 61.5214 18.6711 61.9598C18.8558 62.4398 17.637 63.5438 16.7507 63.2862Z" fill="#108E66" stroke="#263238" stroke-width="0.6" stroke-miterlimit="10"/>
  <path d="M16.75 63.2862L17.9655 62.3486" stroke="#263238" stroke-width="0.6" stroke-miterlimit="10"/>
  <path d="M16.1582 56.4206L17.0076 55.3167" stroke="#263238" stroke-width="0.6" stroke-miterlimit="10"/>
  <path d="M16.7507 55.6478C16.7365 55.4939 16.7555 55.3387 16.8064 55.1927C16.8574 55.0467 16.9391 54.9133 17.0461 54.8014C17.2677 54.5582 18.5009 53.883 18.6711 54.3214C18.8558 54.8014 17.637 55.9054 16.7507 55.6478Z" fill="#108E66" stroke="#263238" stroke-width="0.6" stroke-miterlimit="10"/>
  <path d="M16.75 55.6478L17.9655 54.7102" stroke="#263238" stroke-width="0.6" stroke-miterlimit="10"/>
  <path d="M16.1582 52.6494L17.0076 51.5454" stroke="#263238" stroke-width="0.6" stroke-miterlimit="10"/>
  <path d="M16.7507 51.8766C16.7365 51.7227 16.7555 51.5675 16.8064 51.4216C16.8574 51.2756 16.9391 51.1421 17.0461 51.0302C17.2677 50.787 18.5009 50.1134 18.6711 50.5502C18.8558 51.0302 17.637 52.1342 16.7507 51.8766Z" fill="#108E66" stroke="#263238" stroke-width="0.6" stroke-miterlimit="10"/>
  <path d="M16.75 51.8768L17.9655 50.9392" stroke="#263238" stroke-width="0.6" stroke-miterlimit="10"/>
  <path d="M16.1582 47.667L17.0076 46.563" stroke="#263238" stroke-width="0.6" stroke-miterlimit="10"/>
  <path d="M16.7507 46.8944C16.7365 46.7405 16.7555 46.5853 16.8064 46.4393C16.8574 46.2933 16.9391 46.1599 17.0461 46.048C17.2677 45.8048 18.5009 45.1296 18.6711 45.568C18.8558 46.048 17.637 47.152 16.7507 46.8944Z" fill="#108E66" stroke="#263238" stroke-width="0.6" stroke-miterlimit="10"/>
  <path d="M16.75 46.8944L17.9655 45.9568" stroke="#263238" stroke-width="0.6" stroke-miterlimit="10"/>
  <path d="M16.1582 43.7488L17.0076 42.6448" stroke="#263238" stroke-width="0.6" stroke-miterlimit="10"/>
  <path d="M16.7507 42.976C16.7365 42.8221 16.7555 42.6669 16.8064 42.5209C16.8574 42.3749 16.9391 42.2415 17.0461 42.1296C17.2677 41.8864 18.5009 41.2128 18.6711 41.6496C18.8558 42.1296 17.637 43.2336 16.7507 42.976Z" fill="#108E66" stroke="#263238" stroke-width="0.6" stroke-miterlimit="10"/>
  <path d="M16.75 42.9759L17.9655 42.0383" stroke="#263238" stroke-width="0.6" stroke-miterlimit="10"/>
  <path d="M16.1082 41.2382C16.0939 41.0844 16.1127 40.9293 16.1633 40.7834C16.214 40.6374 16.2954 40.5039 16.402 40.3918C16.6252 40.1486 17.8568 39.475 18.027 39.9118C18.2117 40.3918 16.9929 41.4958 16.1082 41.2382Z" fill="#108E66" stroke="#263238" stroke-width="0.6" stroke-miterlimit="10"/>
  <path d="M16.1094 41.2384L17.3233 40.3008" stroke="#263238" stroke-width="0.6" stroke-miterlimit="10"/>
  <path d="M16.1662 41.2911C16.0112 41.2891 15.8584 41.2539 15.7182 41.1879C15.5781 41.1219 15.4537 41.0267 15.3537 40.9087C15.1337 40.6639 14.5894 39.3711 15.047 39.2495C15.5432 39.1167 16.5163 40.4399 16.1662 41.2911Z" fill="#108E66" stroke="#263238" stroke-width="0.6" stroke-miterlimit="10"/>
  <path d="M16.1671 41.2912L15.3594 39.9888" stroke="#263238" stroke-width="0.6" stroke-miterlimit="10"/>
  <path d="M17.212 73.0638H14.4967L14.1562 66.2271H17.5524L17.212 73.0638Z" fill="#263238" stroke="#263238" stroke-width="0.6" stroke-miterlimit="10"/>
  <path d="M103.998 46.3247L106.114 66.5327" stroke="#263238" stroke-width="0.6" stroke-miterlimit="10"/>
  <path d="M105.773 62.6656L104.812 61.656" stroke="#263238" stroke-width="0.6" stroke-miterlimit="10"/>
  <path d="M105.103 61.9582C105.102 61.8036 105.066 61.6513 105.001 61.5114C104.935 61.3715 104.839 61.2472 104.721 61.147C104.476 60.9278 103.178 60.3854 103.056 60.8398C102.923 61.3342 104.251 62.307 105.103 61.9582Z" fill="#108E66" stroke="#263238" stroke-width="0.6" stroke-miterlimit="10"/>
  <path d="M105.106 61.9583L103.871 61.1919" stroke="#263238" stroke-width="0.6" stroke-miterlimit="10"/>
  <path d="M106.015 64.9647L105.055 63.9551" stroke="#263238" stroke-width="0.6" stroke-miterlimit="10"/>
  <path d="M105.346 64.2576C105.344 64.103 105.309 63.9506 105.243 63.8107C105.177 63.6708 105.082 63.5465 104.964 63.4464C104.716 63.2272 103.421 62.6832 103.299 63.1376C103.164 63.6336 104.492 64.6048 105.346 64.2576Z" fill="#108E66" stroke="#263238" stroke-width="0.6" stroke-miterlimit="10"/>
  <path d="M105.346 64.2576L104.111 63.4912" stroke="#263238" stroke-width="0.6" stroke-miterlimit="10"/>
  <path d="M105.185 57.0575L104.225 56.0479" stroke="#263238" stroke-width="0.6" stroke-miterlimit="10"/>
  <path d="M104.518 56.3503C104.516 56.1957 104.481 56.0433 104.415 55.9034C104.349 55.7635 104.254 55.6393 104.135 55.5391C103.89 55.3199 102.592 54.7759 102.47 55.2319C102.337 55.7263 103.659 56.6975 104.518 56.3503Z" fill="#108E66" stroke="#263238" stroke-width="0.6" stroke-miterlimit="10"/>
  <path d="M104.518 56.3504L103.283 55.584" stroke="#263238" stroke-width="0.6" stroke-miterlimit="10"/>
  <path d="M105.427 59.3551L104.467 58.3455" stroke="#263238" stroke-width="0.6" stroke-miterlimit="10"/>
  <path d="M104.758 58.6479C104.756 58.4933 104.721 58.341 104.655 58.2011C104.589 58.0612 104.494 57.9369 104.376 57.8367C104.13 57.6175 102.833 57.0751 102.711 57.5295C102.576 58.0239 103.904 58.9967 104.758 58.6479Z" fill="#108E66" stroke="#263238" stroke-width="0.6" stroke-miterlimit="10"/>
  <path d="M104.758 58.648L103.523 57.8816" stroke="#263238" stroke-width="0.6" stroke-miterlimit="10"/>
  <path d="M104.795 53.3231L103.836 52.3135" stroke="#263238" stroke-width="0.6" stroke-miterlimit="10"/>
  <path d="M104.125 52.6159C104.123 52.4615 104.088 52.3093 104.022 52.1694C103.957 52.0295 103.862 51.9052 103.744 51.8047C103.497 51.5871 102.201 51.0431 102.078 51.4975C101.944 51.9999 103.271 52.9599 104.125 52.6159Z" fill="#108E66" stroke="#263238" stroke-width="0.6" stroke-miterlimit="10"/>
  <path d="M104.126 52.616L102.893 51.8496" stroke="#263238" stroke-width="0.6" stroke-miterlimit="10"/>
  <path d="M104.402 49.5743L103.441 48.5647" stroke="#263238" stroke-width="0.6" stroke-miterlimit="10"/>
  <path d="M103.735 48.8671C103.733 48.7125 103.698 48.5602 103.632 48.4203C103.566 48.2804 103.471 48.1561 103.352 48.0559C103.107 47.8367 101.809 47.2927 101.687 47.7487C101.552 48.2431 102.88 49.2143 103.735 48.8671Z" fill="#108E66" stroke="#263238" stroke-width="0.6" stroke-miterlimit="10"/>
  <path d="M103.735 48.867L102.5 48.1006" stroke="#263238" stroke-width="0.6" stroke-miterlimit="10"/>
  <path d="M105.611 61.3055L106.342 60.1199" stroke="#263238" stroke-width="0.6" stroke-miterlimit="10"/>
  <path d="M106.118 60.48C106.088 60.3284 106.091 60.1722 106.126 60.0218C106.162 59.8715 106.229 59.7304 106.324 59.608C106.52 59.3424 107.676 58.544 107.889 58.968C108.124 59.4176 107.03 60.64 106.118 60.48Z" fill="#108E66" stroke="#263238" stroke-width="0.6" stroke-miterlimit="10"/>
  <path d="M106.119 60.4767L107.23 59.4175" stroke="#263238" stroke-width="0.6" stroke-miterlimit="10"/>
  <path d="M104.979 55.2576L105.708 54.072" stroke="#263238" stroke-width="0.6" stroke-miterlimit="10"/>
  <path d="M105.486 54.4287C105.455 54.2772 105.458 54.1209 105.494 53.9704C105.529 53.82 105.596 53.6789 105.691 53.5567C105.886 53.2911 107.042 52.4927 107.257 52.9167C107.49 53.3695 106.388 54.5919 105.486 54.4287Z" fill="#108E66" stroke="#263238" stroke-width="0.6" stroke-miterlimit="10"/>
  <path d="M105.486 54.4286L106.597 53.3694" stroke="#263238" stroke-width="0.6" stroke-miterlimit="10"/>
  <path d="M104.699 52.5999L105.43 51.4143" stroke="#263238" stroke-width="0.6" stroke-miterlimit="10"/>
  <path d="M105.206 51.7695C105.176 51.6179 105.179 51.4617 105.214 51.3114C105.25 51.161 105.317 51.0199 105.412 50.8975C105.608 50.6335 106.764 49.8351 106.977 50.2575C107.212 50.7103 106.115 51.9343 105.206 51.7695Z" fill="#108E66" stroke="#263238" stroke-width="0.6" stroke-miterlimit="10"/>
  <path d="M105.207 51.7695L106.318 50.7119" stroke="#263238" stroke-width="0.6" stroke-miterlimit="10"/>
  <path d="M104.291 48.7039L105.022 47.5183" stroke="#263238" stroke-width="0.6" stroke-miterlimit="10"/>
  <path d="M104.798 47.8735C104.768 47.722 104.771 47.5658 104.806 47.4154C104.842 47.265 104.909 47.1239 105.003 47.0015C105.199 46.7359 106.356 45.9375 106.569 46.3615C106.804 46.8143 105.707 48.0383 104.798 47.8735Z" fill="#108E66" stroke="#263238" stroke-width="0.6" stroke-miterlimit="10"/>
  <path d="M104.799 47.8735L105.91 46.8159" stroke="#263238" stroke-width="0.6" stroke-miterlimit="10"/>
  <path d="M103.98 46.2111C103.95 46.0596 103.952 45.9034 103.988 45.753C104.023 45.6026 104.091 45.4615 104.185 45.3391C104.381 45.0751 105.537 44.2767 105.751 44.6991C105.985 45.1519 104.888 46.3759 103.98 46.2111Z" fill="#108E66" stroke="#263238" stroke-width="0.6" stroke-miterlimit="10"/>
  <path d="M103.98 46.2112L105.092 45.1536" stroke="#263238" stroke-width="0.6" stroke-miterlimit="10"/>
  <path d="M104.043 46.2575C103.889 46.2717 103.733 46.2526 103.586 46.2015C103.44 46.1505 103.306 46.0686 103.194 45.9616C102.95 45.7408 102.275 44.512 102.712 44.3424C103.197 44.16 104.3 45.3743 104.043 46.2575Z" fill="#108E66" stroke="#263238" stroke-width="0.6" stroke-miterlimit="10"/>
  <path d="M104.045 46.2575L103.105 45.0447" stroke="#263238" stroke-width="0.6" stroke-miterlimit="10"/>
  <path d="M109.58 49.1072L107.475 69.3184" stroke="#263238" stroke-width="0.6" stroke-miterlimit="10"/>
  <path d="M107.942 65.4639L107.211 64.2783" stroke="#263238" stroke-width="0.6" stroke-miterlimit="10"/>
  <path d="M107.434 64.6398C107.464 64.4882 107.461 64.3319 107.425 64.1815C107.39 64.0311 107.322 63.89 107.227 63.7678C107.031 63.5038 105.875 62.7054 105.661 63.1278C105.425 63.5758 106.525 64.7998 107.434 64.6398Z" fill="#108E66" stroke="#263238" stroke-width="0.6" stroke-miterlimit="10"/>
  <path d="M107.433 64.6336L106.383 63.6304" stroke="#263238" stroke-width="0.6" stroke-miterlimit="10"/>
  <path d="M108.526 59.8543L107.795 58.6687" stroke="#263238" stroke-width="0.6" stroke-miterlimit="10"/>
  <path d="M108.016 59.0255C108.047 58.874 108.044 58.7177 108.008 58.5672C107.973 58.4168 107.905 58.2757 107.811 58.1535C107.615 57.8879 106.459 57.0911 106.245 57.5135C106.011 57.9663 107.109 59.1903 108.016 59.0255Z" fill="#108E66" stroke="#263238" stroke-width="0.6" stroke-miterlimit="10"/>
  <path d="M108.017 59.0254L106.969 58.0222" stroke="#263238" stroke-width="0.6" stroke-miterlimit="10"/>
  <path d="M108.287 62.1536L107.557 60.968" stroke="#263238" stroke-width="0.6" stroke-miterlimit="10"/>
  <path d="M107.778 61.3232C107.808 61.1716 107.806 61.0154 107.77 60.8649C107.735 60.7145 107.667 60.5734 107.572 60.4512C107.376 60.1872 106.22 59.3888 106.007 59.8112C105.772 60.2656 106.871 61.488 107.778 61.3232Z" fill="#108E66" stroke="#263238" stroke-width="0.6" stroke-miterlimit="10"/>
  <path d="M107.777 61.323L106.729 60.3198" stroke="#263238" stroke-width="0.6" stroke-miterlimit="10"/>
  <path d="M108.914 56.1198L108.184 54.9358" stroke="#263238" stroke-width="0.6" stroke-miterlimit="10"/>
  <path d="M108.406 55.2911C108.436 55.1395 108.433 54.9832 108.397 54.8328C108.361 54.6824 108.294 54.5413 108.199 54.4191C108.003 54.1535 106.847 53.3567 106.633 53.7791C106.4 54.2399 107.497 55.4559 108.406 55.2911Z" fill="#108E66" stroke="#263238" stroke-width="0.6" stroke-miterlimit="10"/>
  <path d="M108.408 55.291L107.357 54.2878" stroke="#263238" stroke-width="0.6" stroke-miterlimit="10"/>
  <path d="M109.305 52.3711L108.574 51.1855" stroke="#263238" stroke-width="0.6" stroke-miterlimit="10"/>
  <path d="M108.797 51.5407C108.827 51.3891 108.823 51.2328 108.788 51.0824C108.752 50.932 108.684 50.7909 108.589 50.6687C108.395 50.4047 107.239 49.6063 107.024 50.0287C106.791 50.4831 107.888 51.7055 108.797 51.5407Z" fill="#108E66" stroke="#263238" stroke-width="0.6" stroke-miterlimit="10"/>
  <path d="M108.796 51.5408L107.746 50.5376" stroke="#263238" stroke-width="0.6" stroke-miterlimit="10"/>
  <path d="M108.064 64.0992L109.023 63.0896" stroke="#263238" stroke-width="0.6" stroke-miterlimit="10"/>
  <path d="M108.73 63.3919C108.732 63.2373 108.767 63.085 108.833 62.945C108.899 62.8051 108.995 62.6809 109.113 62.5807C109.358 62.3615 110.654 61.8175 110.778 62.2719C110.911 62.7663 109.586 63.7391 108.73 63.3919Z" fill="#108E66" stroke="#263238" stroke-width="0.6" stroke-miterlimit="10"/>
  <path d="M108.73 63.392L110.038 62.584" stroke="#263238" stroke-width="0.6" stroke-miterlimit="10"/>
  <path d="M108.693 58.051L109.652 57.0398" stroke="#263238" stroke-width="0.6" stroke-miterlimit="10"/>
  <path d="M109.361 57.3422C109.363 57.1877 109.397 57.0353 109.463 56.8954C109.529 56.7554 109.624 56.6312 109.742 56.531C109.988 56.3118 111.283 55.7678 111.407 56.2238C111.542 56.7182 110.216 57.6894 109.361 57.3422Z" fill="#108E66" stroke="#263238" stroke-width="0.6" stroke-miterlimit="10"/>
  <path d="M109.361 57.3423L110.667 56.5359" stroke="#263238" stroke-width="0.6" stroke-miterlimit="10"/>
  <path d="M108.971 55.3919L109.929 54.3823" stroke="#263238" stroke-width="0.6" stroke-miterlimit="10"/>
  <path d="M109.639 54.6846C109.641 54.53 109.676 54.3777 109.742 54.2378C109.808 54.0978 109.903 53.9736 110.021 53.8734C110.267 53.6542 111.562 53.1102 111.686 53.5646C111.819 54.059 110.493 55.0398 109.639 54.6846Z" fill="#108E66" stroke="#263238" stroke-width="0.6" stroke-miterlimit="10"/>
  <path d="M109.639 54.6847L110.944 53.8767" stroke="#263238" stroke-width="0.6" stroke-miterlimit="10"/>
  <path d="M109.377 51.4958L110.336 50.4846" stroke="#263238" stroke-width="0.6" stroke-miterlimit="10"/>
  <path d="M110.045 50.7886C110.046 50.6341 110.081 50.4817 110.147 50.3417C110.212 50.2017 110.307 50.0775 110.425 49.9774C110.673 49.7566 111.969 49.2126 112.091 49.6686C112.226 50.163 110.899 51.1358 110.045 50.7886Z" fill="#108E66" stroke="#263238" stroke-width="0.6" stroke-miterlimit="10"/>
  <path d="M110.045 50.7887L111.35 49.9807" stroke="#263238" stroke-width="0.6" stroke-miterlimit="10"/>
  <path d="M109.586 48.9934C109.588 48.8389 109.623 48.6865 109.689 48.5466C109.755 48.4067 109.85 48.2824 109.968 48.1822C110.214 47.963 111.51 47.419 111.633 47.8734C111.768 48.3678 110.442 49.3406 109.586 48.9934Z" fill="#108E66" stroke="#263238" stroke-width="0.6" stroke-miterlimit="10"/>
  <path d="M109.586 48.9935L110.893 48.1855" stroke="#263238" stroke-width="0.6" stroke-miterlimit="10"/>
  <path d="M109.641 49.0512C109.487 49.0333 109.338 48.9828 109.205 48.903C109.072 48.8233 108.958 48.7161 108.87 48.5888C108.677 48.3216 108.271 46.9808 108.737 46.9056C109.246 46.8256 110.082 48.2416 109.641 49.0512Z" fill="#108E66" stroke="#263238" stroke-width="0.6" stroke-miterlimit="10"/>
  <path d="M109.64 49.0512L108.971 47.6736" stroke="#263238" stroke-width="0.6" stroke-miterlimit="10"/>
  <path d="M107.168 40.8767V66.4351" stroke="#263238" stroke-width="0.6" stroke-miterlimit="10"/>
  <path d="M107.188 62.5918L106.34 61.4878" stroke="#263238" stroke-width="0.6" stroke-miterlimit="10"/>
  <path d="M106.599 61.819C106.614 61.6651 106.595 61.5099 106.544 61.3639C106.493 61.2179 106.411 61.0845 106.304 60.9726C106.081 60.7294 104.849 60.0558 104.679 60.4926C104.494 60.9726 105.713 62.0798 106.599 61.819Z" fill="#108E66" stroke="#263238" stroke-width="0.6" stroke-miterlimit="10"/>
  <path d="M106.599 61.819L105.451 60.9294" stroke="#263238" stroke-width="0.6" stroke-miterlimit="10"/>
  <path d="M107.188 57.7887L106.34 56.6863" stroke="#263238" stroke-width="0.6" stroke-miterlimit="10"/>
  <path d="M106.599 57.016C106.614 56.8624 106.595 56.7074 106.544 56.5617C106.493 56.416 106.411 56.2828 106.304 56.1712C106.081 55.9264 104.849 55.2528 104.679 55.6912C104.494 56.1712 105.713 57.28 106.599 57.016Z" fill="#108E66" stroke="#263238" stroke-width="0.6" stroke-miterlimit="10"/>
  <path d="M106.599 57.0158L105.451 56.1262" stroke="#263238" stroke-width="0.6" stroke-miterlimit="10"/>
  <path d="M107.188 52.1504L106.34 51.0464" stroke="#263238" stroke-width="0.6" stroke-miterlimit="10"/>
  <path d="M106.599 51.3776C106.614 51.2237 106.595 51.0685 106.544 50.9225C106.493 50.7765 106.411 50.6431 106.304 50.5312C106.081 50.288 104.849 49.6144 104.679 50.0512C104.494 50.5312 105.713 51.6352 106.599 51.3776Z" fill="#108E66" stroke="#263238" stroke-width="0.6" stroke-miterlimit="10"/>
  <path d="M106.599 51.3774L105.451 50.4878" stroke="#263238" stroke-width="0.6" stroke-miterlimit="10"/>
  <path d="M107.188 48.3967L106.34 47.2927" stroke="#263238" stroke-width="0.6" stroke-miterlimit="10"/>
  <path d="M106.599 47.6239C106.614 47.47 106.595 47.3148 106.544 47.1688C106.493 47.0228 106.411 46.8894 106.304 46.7775C106.081 46.5343 104.849 45.8591 104.679 46.2975C104.494 46.7775 105.713 47.8815 106.599 47.6239Z" fill="#108E66" stroke="#263238" stroke-width="0.6" stroke-miterlimit="10"/>
  <path d="M106.599 47.624L105.451 46.7344" stroke="#263238" stroke-width="0.6" stroke-miterlimit="10"/>
  <path d="M107.188 44.6256L106.34 43.5232" stroke="#263238" stroke-width="0.6" stroke-miterlimit="10"/>
  <path d="M106.599 43.8543C106.614 43.7004 106.595 43.5453 106.544 43.3993C106.493 43.2533 106.411 43.1198 106.304 43.0079C106.081 42.7647 104.849 42.0895 104.679 42.5279C104.494 43.0079 105.713 44.1119 106.599 43.8543Z" fill="#108E66" stroke="#263238" stroke-width="0.6" stroke-miterlimit="10"/>
  <path d="M106.599 43.8542L105.451 42.9646" stroke="#263238" stroke-width="0.6" stroke-miterlimit="10"/>
  <path d="M107.17 64.0591L108.019 62.9551" stroke="#263238" stroke-width="0.6" stroke-miterlimit="10"/>
  <path d="M107.76 63.2862C107.746 63.1323 107.765 62.9771 107.816 62.8311C107.867 62.6852 107.949 62.5517 108.056 62.4398C108.277 62.1966 109.511 61.5214 109.679 61.9598C109.864 62.4398 108.645 63.5438 107.76 63.2862Z" fill="#108E66" stroke="#263238" stroke-width="0.6" stroke-miterlimit="10"/>
  <path d="M107.762 63.2862L108.977 62.3486" stroke="#263238" stroke-width="0.6" stroke-miterlimit="10"/>
  <path d="M107.17 56.4206L108.019 55.3167" stroke="#263238" stroke-width="0.6" stroke-miterlimit="10"/>
  <path d="M107.76 55.6478C107.746 55.4939 107.765 55.3387 107.816 55.1927C107.867 55.0467 107.949 54.9133 108.056 54.8014C108.277 54.5582 109.511 53.883 109.679 54.3214C109.864 54.8014 108.645 55.9054 107.76 55.6478Z" fill="#108E66" stroke="#263238" stroke-width="0.6" stroke-miterlimit="10"/>
  <path d="M107.762 55.6478L108.977 54.7102" stroke="#263238" stroke-width="0.6" stroke-miterlimit="10"/>
  <path d="M107.17 52.6494L108.019 51.5454" stroke="#263238" stroke-width="0.6" stroke-miterlimit="10"/>
  <path d="M107.76 51.8766C107.746 51.7227 107.765 51.5675 107.816 51.4216C107.867 51.2756 107.949 51.1421 108.056 51.0302C108.277 50.787 109.511 50.1134 109.679 50.5502C109.864 51.0302 108.645 52.1342 107.76 51.8766Z" fill="#108E66" stroke="#263238" stroke-width="0.6" stroke-miterlimit="10"/>
  <path d="M107.762 51.8768L108.977 50.9392" stroke="#263238" stroke-width="0.6" stroke-miterlimit="10"/>
  <path d="M107.17 47.667L108.019 46.563" stroke="#263238" stroke-width="0.6" stroke-miterlimit="10"/>
  <path d="M107.76 46.8944C107.746 46.7405 107.765 46.5853 107.816 46.4393C107.867 46.2933 107.949 46.1599 108.056 46.048C108.277 45.8048 109.511 45.1296 109.679 45.568C109.864 46.048 108.645 47.152 107.76 46.8944Z" fill="#108E66" stroke="#263238" stroke-width="0.6" stroke-miterlimit="10"/>
  <path d="M107.762 46.8944L108.977 45.9568" stroke="#263238" stroke-width="0.6" stroke-miterlimit="10"/>
  <path d="M107.17 43.7488L108.019 42.6448" stroke="#263238" stroke-width="0.6" stroke-miterlimit="10"/>
  <path d="M107.76 42.976C107.746 42.8221 107.765 42.6669 107.816 42.5209C107.867 42.3749 107.949 42.2415 108.056 42.1296C108.277 41.8864 109.511 41.2128 109.679 41.6496C109.864 42.1296 108.645 43.2336 107.76 42.976Z" fill="#108E66" stroke="#263238" stroke-width="0.6" stroke-miterlimit="10"/>
  <path d="M107.762 42.9759L108.977 42.0383" stroke="#263238" stroke-width="0.6" stroke-miterlimit="10"/>
  <path d="M107.12 41.2382C107.106 41.0843 107.125 40.9291 107.176 40.7831C107.227 40.6371 107.308 40.5037 107.415 40.3918C107.637 40.1486 108.87 39.475 109.04 39.9118C109.225 40.3918 108.006 41.4958 107.12 41.2382Z" fill="#108E66" stroke="#263238" stroke-width="0.6" stroke-miterlimit="10"/>
  <path d="M107.119 41.2384L108.335 40.3008" stroke="#263238" stroke-width="0.6" stroke-miterlimit="10"/>
  <path d="M107.179 41.2911C107.023 41.2891 106.87 41.2539 106.73 41.1879C106.589 41.122 106.465 41.0268 106.364 40.9087C106.146 40.6639 105.602 39.3711 106.058 39.2495C106.549 39.1167 107.529 40.4399 107.179 41.2911Z" fill="#108E66" stroke="#263238" stroke-width="0.6" stroke-miterlimit="10"/>
  <path d="M107.179 41.2912L106.371 39.9888" stroke="#263238" stroke-width="0.6" stroke-miterlimit="10"/>
  <path d="M108.224 73.0638H105.507L105.168 66.2271H108.562L108.224 73.0638Z" fill="#263238" stroke="#263238" stroke-width="0.6" stroke-miterlimit="10"/>
  <path d="M109.279 19.0399C109.279 18.1308 109.06 17.235 108.639 16.4283C108.219 15.6216 107.609 14.9277 106.862 14.4054C106.116 13.8831 105.254 13.5477 104.349 13.4277C103.445 13.3077 102.525 13.4065 101.667 13.7158C100.809 14.0252 100.039 14.5359 99.4206 15.2048C98.8028 15.8737 98.3557 16.681 98.1173 17.5585C97.8789 18.436 97.8561 19.3578 98.0509 20.246C98.2458 21.1341 98.6525 21.9624 99.2366 22.6607C100.073 23.6597 100.531 24.9196 100.531 26.2207V26.9951H106.662V26.2207C106.658 24.9217 107.113 23.6628 107.946 22.6639C108.804 21.6497 109.276 20.3665 109.279 19.0399Z" fill="white" stroke="#263238" stroke-width="0.6" stroke-linecap="round" stroke-linejoin="round"/>
  <path d="M106.662 26.9968H100.523V28.5104H106.662V26.9968Z" fill="#108E66" stroke="#263238" stroke-width="0.6" stroke-linecap="round" stroke-linejoin="round"/>
  <path d="M100.523 28.5137H106.662V29.2705C106.662 29.4712 106.582 29.6637 106.439 29.8056C106.297 29.9475 106.104 30.0273 105.902 30.0273H101.281C101.08 30.0273 100.886 29.9475 100.744 29.8056C100.602 29.6637 100.521 29.4712 100.521 29.2705V28.5137H100.523Z" fill="#108E66" stroke="#263238" stroke-width="0.6" stroke-linecap="round" stroke-linejoin="round"/>
  <path d="M101.297 30.0256H105.886V30.5056C105.886 30.7776 105.778 31.0385 105.585 31.2308C105.392 31.4232 105.13 31.5312 104.857 31.5312H102.326C102.053 31.5312 101.791 31.4232 101.598 31.2308C101.405 31.0385 101.297 30.7776 101.297 30.5056V30.0256Z" fill="#263238" stroke="#263238" stroke-width="0.6" stroke-linecap="round" stroke-linejoin="round"/>
  <path d="M110.076 19.0703H112.677" stroke="#263238" stroke-width="0.6" stroke-linecap="round" stroke-linejoin="round"/>
  <path d="M94.2617 19.0703H96.8967" stroke="#263238" stroke-width="0.6" stroke-linecap="round" stroke-linejoin="round"/>
  <path d="M103.471 12.4944V9.896" stroke="#263238" stroke-width="0.6" stroke-linecap="round" stroke-linejoin="round"/>
  <path d="M108.186 14.3711L109.981 12.5823" stroke="#263238" stroke-width="0.6" stroke-linecap="round" stroke-linejoin="round"/>
  <path d="M96.959 25.5568L98.7799 23.7424" stroke="#263238" stroke-width="0.6" stroke-linecap="round" stroke-linejoin="round"/>
  <path d="M98.7028 14.3199L96.959 12.5823" stroke="#263238" stroke-width="0.6" stroke-linecap="round" stroke-linejoin="round"/>
  <path d="M109.98 25.5567L108.244 23.8271" stroke="#263238" stroke-width="0.6" stroke-linecap="round" stroke-linejoin="round"/>
  <path d="M70.0267 17.1393L62.5102 6.78247L54.9922 17.1393H58.0848V28.6449H66.9356V17.1393H70.0267Z" fill="#108E66" stroke="#263238" stroke-width="0.6" stroke-linecap="round" stroke-linejoin="round"/>
  <path d="M63.6929 34.8395C67.9179 34.1591 70.7894 30.1948 70.1067 25.9849C69.4239 21.775 65.4453 18.9137 61.2203 19.594C56.9953 20.2744 54.1238 24.2387 54.8066 28.4486C55.4894 32.6585 59.4679 35.5198 63.6929 34.8395Z" fill="white" stroke="#263238" stroke-width="0.6" stroke-linecap="round" stroke-linejoin="round"/>
  <path d="M68.3573 30.1814C70 26.9354 68.6908 22.9771 65.4332 21.3402C62.1755 19.7034 58.203 21.0079 56.5603 24.2539C54.9176 27.4999 56.2268 31.4583 59.4844 33.0951C62.7421 34.7319 66.7146 33.4274 68.3573 30.1814Z" fill="white" stroke="#263238" stroke-width="0.6" stroke-linecap="round" stroke-linejoin="round"/>
  <path d="M64.6637 28.2031C64.6637 26.4799 62.2133 26.4431 62.2133 25.7231C62.2133 25.3455 62.4124 25.2319 62.8219 25.2319C63.1735 25.2319 63.4642 25.3823 63.8094 25.6863L64.6123 24.7583C64.239 24.3375 63.7334 24.0555 63.1784 23.9583V22.9983H62.1186V23.9999C61.2033 24.1967 60.6558 24.8463 60.6558 25.8031C60.6558 27.4607 63.1061 27.5631 63.1061 28.3215C63.1061 28.6911 62.9166 28.8511 62.4413 28.8511C62.0431 28.8511 61.6385 28.7007 61.131 28.3215L60.4277 29.4191C60.9097 29.816 61.4972 30.0646 62.1186 30.1343V31.0847H63.1832V30.0671C64.1739 29.8271 64.6637 29.1199 64.6637 28.2031Z" fill="#108E66" stroke="#263238" stroke-width="0.6" stroke-linecap="round" stroke-linejoin="round"/>
  <path d="M24.1107 21.6541C26.8523 21.1586 28.6718 18.5423 28.1745 15.8104C27.6773 13.0785 25.0516 11.2656 22.3099 11.7611C19.5683 12.2565 17.7488 14.8728 18.2461 17.6047C18.7433 20.3366 21.369 22.1495 24.1107 21.6541Z" fill="white" stroke="#263238" stroke-width="0.6" stroke-linecap="round" stroke-linejoin="round"/>
  <path d="M24.6352 11.8896L23.2109 16.7088H28.2562C28.2557 15.6237 27.9027 14.5679 27.25 13.6992C26.5973 12.8306 25.68 12.1957 24.6352 11.8896Z" fill="#108E66" stroke="#263238" stroke-width="0.6" stroke-linecap="round" stroke-linejoin="round"/>
  <path d="M26.3438 13.5375L28.3461 11.1855H30.0642" stroke="#263238" stroke-width="0.6" stroke-linecap="round" stroke-linejoin="round"/>
  <path d="M31.2812 11.2561H33.8568" stroke="#263238" stroke-width="0.6" stroke-linecap="round" stroke-linejoin="round"/>
  <path d="M31.2812 11.8977H33.8568" stroke="#263238" stroke-width="0.6" stroke-linecap="round" stroke-linejoin="round"/>
  <path d="M31.2812 12.5393H33.8568" stroke="#263238" stroke-width="0.6" stroke-linecap="round" stroke-linejoin="round"/>
  <path d="M31.2812 13.1809H33.8568" stroke="#263238" stroke-width="0.6" stroke-linecap="round" stroke-linejoin="round"/>
  <path d="M18.3837 27.0513H16.916V31.4145H18.3837V27.0513Z" fill="#263238" stroke="#263238" stroke-width="0.6" stroke-linecap="round" stroke-linejoin="round"/>
  <path d="M20.6903 28.6208H19.2227V31.4144H20.6903V28.6208Z" fill="#108E66" stroke="#263238" stroke-width="0.6" stroke-linecap="round" stroke-linejoin="round"/>
  <path d="M22.9969 26.0959H21.5293V31.4143H22.9969V26.0959Z" fill="#263238" stroke="#263238" stroke-width="0.6" stroke-linecap="round" stroke-linejoin="round"/>
  <path d="M25.3036 27.1968H23.8359V31.416H25.3036V27.1968Z" fill="#108E66" stroke="#263238" stroke-width="0.6" stroke-linecap="round" stroke-linejoin="round"/>
  <path d="M27.6102 26.2319H26.1426V31.4143H27.6102V26.2319Z" fill="#263238" stroke="#263238" stroke-width="0.6" stroke-linecap="round" stroke-linejoin="round"/>
  <path d="M29.9169 23.1616H28.4492V31.416H29.9169V23.1616Z" fill="#108E66" stroke="#263238" stroke-width="0.6" stroke-linecap="round" stroke-linejoin="round"/>
  <path d="M31.5664 23.0752H32.4255" stroke="#263238" stroke-width="0.6" stroke-linecap="round" stroke-linejoin="round"/>
  <path d="M31.5664 24.7424H32.4255" stroke="#263238" stroke-width="0.6" stroke-linecap="round" stroke-linejoin="round"/>
  <path d="M31.5664 26.4111H32.4255" stroke="#263238" stroke-width="0.6" stroke-linecap="round" stroke-linejoin="round"/>
  <path d="M31.5664 28.0801H32.4255" stroke="#263238" stroke-width="0.6" stroke-linecap="round" stroke-linejoin="round"/>
  <path d="M31.5664 29.7488H32.4255" stroke="#263238" stroke-width="0.6" stroke-linecap="round" stroke-linejoin="round"/>
  <path d="M31.5664 31.416H32.4255" stroke="#263238" stroke-width="0.6" stroke-linecap="round" stroke-linejoin="round"/>
  <path d="M17.7559 25.4432L20.0039 26.7984L22.3434 24.3024L24.6541 24.496L26.8925 23.6112L29.4263 20.2896" stroke="#263238" stroke-width="0.6" stroke-linecap="round" stroke-linejoin="round"/>
  <path d="M18.0391 25.4399C18.0391 25.3839 18.0224 25.329 17.9911 25.2824C17.9598 25.2358 17.9153 25.1995 17.8633 25.1781C17.8113 25.1568 17.7541 25.1512 17.6989 25.1623C17.6437 25.1734 17.5931 25.2005 17.5534 25.2403C17.5137 25.28 17.4868 25.3306 17.476 25.3857C17.4652 25.4407 17.471 25.4977 17.4928 25.5494C17.5146 25.6011 17.5512 25.6453 17.5982 25.6762C17.6451 25.7071 17.7002 25.7235 17.7565 25.7231C17.7938 25.7231 17.8307 25.7158 17.865 25.7015C17.8994 25.6873 17.9307 25.6664 17.9569 25.6401C17.9832 25.6138 18.004 25.5825 18.0181 25.5482C18.0322 25.5138 18.0393 25.477 18.0391 25.4399Z" fill="#263238"/>
  <path d="M20.2872 26.7983C20.2872 26.7423 20.2705 26.6876 20.2393 26.641C20.2081 26.5944 20.1637 26.5581 20.1117 26.5367C20.0598 26.5153 20.0027 26.5097 19.9475 26.5206C19.8924 26.5315 19.8417 26.5585 19.802 26.5981C19.7622 26.6377 19.7352 26.6882 19.7242 26.7431C19.7132 26.798 19.7189 26.855 19.7404 26.9067C19.7619 26.9585 19.7983 27.0027 19.8451 27.0338C19.8918 27.0649 19.9468 27.0815 20.003 27.0815C20.0403 27.0817 20.0774 27.0746 20.112 27.0604C20.1466 27.0463 20.178 27.0254 20.2044 26.9991C20.2308 26.9727 20.2518 26.9414 20.266 26.907C20.2802 26.8725 20.2874 26.8356 20.2872 26.7983Z" fill="#263238"/>
  <path d="M22.6251 24.3025C22.6251 24.2464 22.6084 24.1916 22.5771 24.145C22.5458 24.0984 22.5013 24.0621 22.4492 24.0407C22.3972 24.0193 22.34 24.0138 22.2848 24.0248C22.2296 24.0359 22.179 24.063 22.1393 24.1028C22.0996 24.1426 22.0727 24.1932 22.0619 24.2482C22.0511 24.3033 22.057 24.3603 22.0787 24.412C22.1005 24.4637 22.1372 24.5078 22.1841 24.5387C22.2311 24.5697 22.2862 24.586 22.3425 24.5857C22.3797 24.5857 22.4166 24.5783 22.451 24.5641C22.4854 24.5498 22.5166 24.529 22.5429 24.5026C22.5691 24.4763 22.5899 24.4451 22.604 24.4107C22.6181 24.3764 22.6253 24.3396 22.6251 24.3025Z" fill="#263238"/>
  <path d="M24.9376 24.4961C24.9376 24.44 24.9209 24.3852 24.8896 24.3386C24.8583 24.292 24.8138 24.2557 24.7617 24.2343C24.7097 24.2129 24.6525 24.2074 24.5973 24.2185C24.5421 24.2295 24.4915 24.2566 24.4518 24.2964C24.4121 24.3362 24.3852 24.3868 24.3744 24.4418C24.3636 24.4969 24.3695 24.5539 24.3912 24.6056C24.413 24.6573 24.4497 24.7014 24.4966 24.7323C24.5436 24.7633 24.5987 24.7796 24.655 24.7793C24.6922 24.7793 24.7291 24.772 24.7635 24.7577C24.7979 24.7434 24.8291 24.7226 24.8554 24.6962C24.8816 24.6699 24.9024 24.6387 24.9165 24.6043C24.9306 24.57 24.9378 24.5332 24.9376 24.4961Z" fill="#263238"/>
  <path d="M27.1759 23.5664C27.1759 23.5104 27.1592 23.4556 27.128 23.4091C27.0967 23.3625 27.0523 23.3262 27.0004 23.3048C26.9485 23.2833 26.8913 23.2777 26.8362 23.2886C26.7811 23.2996 26.7304 23.3265 26.6907 23.3661C26.6509 23.4058 26.6238 23.4562 26.6129 23.5112C26.6019 23.5661 26.6075 23.623 26.6291 23.6748C26.6506 23.7265 26.687 23.7708 26.7337 23.8019C26.7805 23.833 26.8354 23.8496 26.8916 23.8496C26.967 23.8496 27.0393 23.8198 27.0926 23.7667C27.1459 23.7135 27.1759 23.6415 27.1759 23.5664Z" fill="#263238"/>
  <path d="M29.7091 20.2895C29.7091 20.2335 29.6923 20.1786 29.661 20.132C29.6297 20.0854 29.5853 20.0491 29.5332 20.0278C29.4812 20.0064 29.424 20.0008 29.3688 20.0119C29.3136 20.023 29.263 20.0501 29.2233 20.0899C29.1836 20.1296 29.1567 20.1802 29.1459 20.2353C29.1351 20.2903 29.141 20.3473 29.1627 20.399C29.1845 20.4508 29.2212 20.4949 29.2681 20.5258C29.3151 20.5567 29.3702 20.5731 29.4264 20.5727C29.5015 20.5723 29.5734 20.5423 29.6264 20.4892C29.6793 20.4362 29.7091 20.3644 29.7091 20.2895Z" fill="#263238"/>
  <path d="M85.6726 66.1472H86.5879V57.36H85.6726V66.1472Z" fill="#263238" stroke="#263238" stroke-width="0.6" stroke-linecap="round" stroke-linejoin="round"/>
  <path d="M90.2317 57.6684L91.8457 57.8564L92.87 49.1287L91.256 48.9406L90.2317 57.6684Z" fill="#263238" stroke="#263238" stroke-width="0.6" stroke-linecap="round" stroke-linejoin="round"/>
  <path d="M84.9688 66.5072V65.0256H87.2923V66.52L96.5862 70.2368V71.9904H95.952V70.6576L86.0976 68.4224L76.5033 70.6576V71.9904H75.8867V70.2368L84.9688 66.5072Z" fill="#8C8C8C" stroke="#263238" stroke-width="0.6" stroke-linecap="round" stroke-linejoin="round"/>
  <path d="M83.8436 60.1663H88.4199V57.3599H83.8436V60.1663Z" fill="#263238" stroke="#263238" stroke-width="0.6" stroke-linecap="round" stroke-linejoin="round"/>
  <path d="M96.5938 72.0608C96.5938 71.8664 96.6516 71.6764 96.76 71.5148C96.8684 71.3532 97.0225 71.2273 97.2028 71.153C97.383 71.0787 97.5813 71.0593 97.7726 71.0974C97.9639 71.1354 98.1396 71.2291 98.2774 71.3667C98.4152 71.5042 98.509 71.6794 98.5468 71.8701C98.5847 72.0608 98.565 72.2583 98.4901 72.4378C98.4152 72.6173 98.2886 72.7706 98.1263 72.8784C97.9639 72.9861 97.7731 73.0435 97.5781 73.0432C97.4487 73.0432 97.3205 73.0177 97.201 72.9684C97.0815 72.919 96.9729 72.8466 96.8815 72.7553C96.7901 72.6641 96.7176 72.5558 96.6682 72.4366C96.6188 72.3174 96.5935 72.1897 96.5938 72.0608Z" fill="#263238" stroke="#263238" stroke-width="0.6" stroke-linecap="round" stroke-linejoin="round"/>
  <path d="M97.1484 72.0607C97.1484 71.9775 97.1732 71.8961 97.2196 71.8269C97.266 71.7577 97.332 71.7038 97.4091 71.6719C97.4863 71.6401 97.5712 71.6317 97.6531 71.648C97.7351 71.6642 97.8103 71.7043 97.8694 71.7631C97.9284 71.822 97.9686 71.897 97.9849 71.9786C98.0012 72.0602 97.9929 72.1448 97.9609 72.2217C97.9289 72.2986 97.8748 72.3643 97.8054 72.4106C97.7359 72.4568 97.6543 72.4815 97.5707 72.4815C97.4587 72.4815 97.3513 72.4372 97.2721 72.3582C97.1929 72.2793 97.1484 72.1723 97.1484 72.0607Z" fill="white" stroke="#263238" stroke-width="0.6" stroke-linecap="round" stroke-linejoin="round"/>
  <path d="M73.8438 72.0608C73.8438 71.8665 73.9016 71.6765 74.0099 71.515C74.1182 71.3534 74.2722 71.2275 74.4524 71.1531C74.6325 71.0788 74.8308 71.0593 75.022 71.0972C75.2133 71.1352 75.3889 71.2287 75.5268 71.3661C75.6647 71.5035 75.7586 71.6785 75.7966 71.8691C75.8347 72.0597 75.8152 72.2572 75.7405 72.4367C75.6659 72.6162 75.5396 72.7697 75.3774 72.8776C75.2153 72.9856 75.0247 73.0432 74.8297 73.0432C74.5682 73.0432 74.3174 72.9397 74.1325 72.7554C73.9476 72.5712 73.8438 72.3213 73.8438 72.0608Z" fill="#263238" stroke="#263238" stroke-width="0.6" stroke-linecap="round" stroke-linejoin="round"/>
  <path d="M74.8305 72.4815C75.0637 72.4815 75.2528 72.2931 75.2528 72.0607C75.2528 71.8283 75.0637 71.6399 74.8305 71.6399C74.5973 71.6399 74.4082 71.8283 74.4082 72.0607C74.4082 72.2931 74.5973 72.4815 74.8305 72.4815Z" fill="white" stroke="#263238" stroke-width="0.6" stroke-linecap="round" stroke-linejoin="round"/>
  <path d="M85.7073 72.0415H86.4813L86.8699 66.7791H85.3203L85.7073 72.0415Z" fill="#8C8C8C" stroke="#263238" stroke-width="0.6" stroke-linecap="round" stroke-linejoin="round"/>
  <path d="M85.7436 73.0928H86.5176V70.9184H85.7436V73.0928Z" fill="#263238" stroke="#263238" stroke-width="0.6" stroke-linecap="round" stroke-linejoin="round"/>
  <path d="M92.2267 53.3214C92.6783 53.3649 93.1341 53.3193 93.568 53.1872C94.0019 53.0551 94.4054 52.8392 94.7555 52.5517C95.1057 52.2642 95.3955 51.9107 95.6085 51.5116C95.8215 51.1124 95.9535 50.6754 95.997 50.2254L97.076 39.0398C97.1637 38.1311 96.8857 37.2249 96.3031 36.5204C95.7204 35.816 94.8809 35.3709 93.969 35.283C93.0568 35.1961 92.1474 35.4735 91.4405 36.0543C90.7335 36.6351 90.2869 37.4718 90.1987 38.3806L89.118 49.5806C89.0344 50.487 89.3146 51.3895 89.8972 52.0906C90.4798 52.7917 91.3174 53.2342 92.2267 53.3214Z" fill="#8C8C8C" stroke="#263238" stroke-width="0.6" stroke-linecap="round" stroke-linejoin="round"/>
  <path d="M91.4081 53.2431C92.3201 53.3304 93.2295 53.0534 93.9365 52.4728C94.6435 51.8923 95.0902 51.0557 95.1784 50.1471L96.259 38.9471C96.344 38.0397 96.0645 37.1358 95.4818 36.4334C94.8991 35.731 94.0607 35.2874 93.1503 35.1999C92.6988 35.1566 92.2431 35.2024 91.8092 35.3347C91.3754 35.467 90.972 35.6831 90.622 35.9708C90.2721 36.2584 89.9824 36.612 89.7696 37.0112C89.5568 37.4104 89.425 37.8475 89.3817 38.2975L88.301 49.4879C88.2133 50.3964 88.4914 51.3024 89.0741 52.0066C89.6568 52.7108 90.4964 53.1556 91.4081 53.2431Z" fill="#8C8C8C" stroke="#263238" stroke-width="0.6" stroke-linecap="round" stroke-linejoin="round"/>
  <path d="M76.3758 58.24L92.491 58.6624C92.5804 58.6652 92.6695 58.6504 92.7532 58.6188C92.8368 58.5873 92.9134 58.5396 92.9786 58.4785C93.0438 58.4174 93.0962 58.3442 93.133 58.2629C93.1697 58.1816 93.19 58.0939 93.1927 58.0048L93.2746 55.4352C93.2774 55.3461 93.2625 55.2573 93.2308 55.174C93.1992 55.0906 93.1513 55.0143 93.09 54.9493C93.0287 54.8844 92.9552 54.8321 92.8736 54.7955C92.7921 54.7589 92.704 54.7387 92.6146 54.736L76.5011 54.3136C76.4117 54.3106 76.3227 54.3252 76.239 54.3566C76.1554 54.388 76.0787 54.4355 76.0135 54.4965C75.9484 54.5574 75.8959 54.6306 75.8591 54.7118C75.8224 54.793 75.8021 54.8806 75.7994 54.9696L75.7191 57.5408C75.7135 57.7202 75.7794 57.8945 75.9025 58.0256C76.0256 58.1567 76.1958 58.2338 76.3758 58.24Z" fill="#8C8C8C" stroke="#263238" stroke-width="0.6" stroke-linecap="round" stroke-linejoin="round"/>
  <path d="M83.1141 58.3641L92.4933 58.6595C92.8692 58.6713 93.1835 58.3773 93.1953 58.0028L93.2768 55.4329C93.2887 55.0584 92.9937 54.7453 92.6179 54.7334L83.2386 54.4381C82.8628 54.4263 82.5485 54.7203 82.5366 55.0947L82.4551 57.6647C82.4432 58.0391 82.7383 58.3523 83.1141 58.3641Z" fill="#8C8C8C" stroke="#263238" stroke-width="0.6" stroke-linecap="round" stroke-linejoin="round"/>
  <path d="M75.3012 69.235L75.2225 69.827C75.2225 69.827 74.5096 71.2478 74.2318 71.4846C73.954 71.7214 72.2118 72.4702 71.8954 72.5886C71.5791 72.707 72.1331 73.0686 72.8862 73.1022C73.6393 73.1358 75.025 73.1422 75.5003 73.0238C75.9756 72.9054 76.8861 72.2334 77.0852 72.195L77.2458 72.707C77.2458 72.707 78.1177 72.387 78.434 72.3134C78.7503 72.2398 79.2658 71.8334 79.2658 71.8334C79.0858 71.2822 78.8746 70.7416 78.6331 70.2142C78.4868 69.9496 78.2993 69.7098 78.0775 69.5038L77.485 68.7998L75.3012 69.235Z" fill="#263238" stroke="#263238" stroke-width="0.6" stroke-linecap="round" stroke-linejoin="round"/>
  <path d="M80.0952 46.688L78.7882 47.4768L75.9364 48.3056C75.9364 48.3056 66.9057 49.9632 66.3903 50.56C65.8748 51.1568 66.0691 51.6656 66.5091 52.416C66.9491 53.1664 74.5956 69.7872 74.5956 69.7872L77.7653 69.1552L72.4567 53.24C72.4567 53.24 82.4396 55.2528 84.1786 54.936C85.9176 54.6192 88.14 52.7664 88.535 51.3456C88.93 49.9248 87.1091 47.6656 87.1091 47.6656L80.0952 46.688Z" fill="#108E66" stroke="#263238" stroke-width="0.6" stroke-linecap="round" stroke-linejoin="round"/>
  <path d="M70.2109 51.6958C70.2109 51.6958 72.2069 52.6558 72.5649 53.7358" stroke="#263238" stroke-width="0.6" stroke-linecap="round" stroke-linejoin="round"/>
  <path d="M90.4337 33.5056L86.156 33.1104L79.8984 47.2399L84.0171 47.9503L90.4337 33.5056Z" fill="white" stroke="#263238" stroke-width="0.6" stroke-linecap="round" stroke-linejoin="round"/>
  <path d="M86.2344 34.4302C86.2344 34.4302 79.9768 47.0398 79.8949 47.2398C79.8131 47.4398 78.0339 47.9502 77.6373 48.0286C77.2407 48.107 75.9336 48.3054 75.9336 48.3054L78.1527 46.8062L79.7344 42.7406L77.8075 41.7598C77.8075 41.7598 81.3722 36.4318 82.1638 34.6158C82.9555 32.7998 83.267 32.3198 84.057 32.2814C84.847 32.243 87.1079 32.3998 87.1079 32.3998L86.2344 34.4302Z" fill="#108E66" stroke="#263238" stroke-width="0.6" stroke-linecap="round" stroke-linejoin="round"/>
  <path d="M85.3638 37.096L85.4425 38.0048C85.4425 38.0048 81.2836 45.424 81.2451 45.5824C81.2065 45.7408 81.5662 46.8448 81.5662 46.8448L83.0323 45.7792L85.8038 38.1632L86.5568 37.728V36.3184L85.3638 37.096Z" fill="#263238" stroke="#263238" stroke-width="0.6" stroke-linecap="round" stroke-linejoin="round"/>
  <path d="M87.017 23.4575C87.017 23.4575 85.5462 27.0063 85.2202 28.0815C84.8942 29.1567 84.6646 30.9135 84.7385 31.1087C84.8124 31.3039 85.2202 31.9871 85.9797 32.0207C86.7392 32.0543 87.3847 32.0527 87.3847 32.0527L86.2415 34.4303C86.2415 34.4303 86.3715 36.2863 86.5626 36.3183C86.7537 36.3503 89.6344 34.1375 89.7002 34.0383C89.7661 33.9391 91.595 30.0383 91.595 30.0383C91.595 30.0383 93.2296 29.2239 93.3276 28.5071C93.3595 28.3065 93.3369 28.1011 93.2621 27.9123C93.1872 27.7235 93.0629 27.5581 92.9021 27.4335V26.5535L93.6214 24.4047C93.6214 24.4047 91.8246 23.2335 89.8303 22.7439C87.836 22.2543 87.412 22.5839 87.412 22.5839L87.017 23.4575Z" fill="white" stroke="#263238" stroke-width="0.6" stroke-linecap="round" stroke-linejoin="round"/>
  <path d="M90.3176 21.4719C90.3176 21.4719 87.3775 20.6895 86.0704 21.8303C84.7633 22.9711 88.1611 24.7999 89.2722 24.9599C90.3834 25.1199 91.7563 24.8943 91.4287 25.1887C91.1012 25.4831 90.3834 25.9375 90.7431 26.2303C90.9688 26.411 91.2226 26.5536 91.4946 26.6527C91.4946 26.6527 89.9595 30.0127 89.6977 30.3967C89.436 30.7807 88.9463 30.7551 88.6524 30.6575C88.3586 30.5599 86.9535 29.6815 86.4959 29.5183C86.0383 29.3551 85.1888 28.8671 84.9929 29.3887C84.797 29.9103 84.3057 32.1231 85.0251 32.6111C85.7444 33.0991 89.2401 31.8623 89.7636 31.5039C90.2871 31.1455 90.4492 30.4943 90.5472 30.3647C90.6451 30.2351 92.0501 27.9231 92.1802 27.7599C92.3103 27.5967 92.8996 27.4399 92.8996 27.4399C92.8996 27.4399 94.0766 25.0943 94.1745 24.1839C94.2725 23.2735 91.2007 21.4399 90.3176 21.4719Z" fill="#263238" stroke="#263238" stroke-width="0.6" stroke-linecap="round" stroke-linejoin="round"/>
  <path d="M87.2474 25.9968L87.1816 27.4368C87.1816 27.4368 85.6465 29.1616 85.6465 29.3568C85.6465 29.552 87.4754 29.3248 87.4754 29.3248" stroke="#263238" stroke-width="0.6" stroke-linecap="round" stroke-linejoin="round"/>
  <path d="M87.0182 25.672C86.9622 25.5629 86.8693 25.477 86.756 25.4293C86.6426 25.3816 86.516 25.3752 86.3984 25.4112" stroke="#263238" stroke-width="0.6" stroke-linecap="round" stroke-linejoin="round"/>
  <path d="M88.3906 26.4847C88.3906 26.4847 89.338 26.3871 89.6319 27.1039" stroke="#263238" stroke-width="0.6" stroke-linecap="round" stroke-linejoin="round"/>
  <path d="M85.8359 30.0991C85.8359 30.0991 86.6854 30.6207 87.241 30.6207" stroke="white" stroke-width="0.6" stroke-linecap="round" stroke-linejoin="round"/>
  <path d="M88.7126 27.896C88.6227 28.0736 88.4589 28.1696 88.3465 28.1136C88.2341 28.0576 88.2148 27.8672 88.3048 27.6912C88.3947 27.5152 88.5585 27.4176 88.6709 27.4736C88.7833 27.5296 88.8025 27.72 88.7126 27.896Z" fill="#263238"/>
  <path d="M86.6677 27.1039C86.5794 27.2799 86.414 27.3775 86.3016 27.3199C86.1892 27.2623 86.1699 27.0751 86.2598 26.8975C86.3498 26.7199 86.5135 26.6239 86.6259 26.6815C86.7383 26.7391 86.7576 26.9263 86.6677 27.1039Z" fill="#263238"/>
  <path d="M72.4902 67.915L72.2124 69.5726L71.6183 69.7326C71.6183 69.7326 71.0627 70.3998 70.9455 70.5598C70.8282 70.7198 69.3606 71.7822 68.9656 71.9806C68.5706 72.179 67.5782 72.2558 67.6184 72.5326C67.6585 72.8094 69.7572 73.0462 71.1044 73.0846C72.4516 73.123 73.2031 72.691 73.2031 72.691L73.3219 72.9662L74.7077 72.8478C74.7077 72.8478 74.629 71.5454 74.6692 70.9934C74.6818 70.5445 74.6549 70.0953 74.5889 69.651L74.5102 68.507L72.4902 67.915Z" fill="#263238" stroke="#263238" stroke-width="0.6" stroke-linecap="round" stroke-linejoin="round"/>
  <path d="M83.6218 48.5422C83.6218 48.5422 72.372 49.923 72.1343 50.1998C71.8967 50.4766 72.0942 58.6462 72.0942 58.6462L70.7871 68.2078L74.8271 69.4398C74.8271 69.4398 76.0957 61.3774 76.5308 59.1998C76.8283 57.5806 77.0401 55.9469 77.1651 54.3054C77.1651 54.3054 83.3841 55.7262 85.5149 54.5422C87.6457 53.3582 87.217 51.8974 87.217 51.8974" fill="#108E66"/>
  <path d="M83.6218 48.5422C83.6218 48.5422 72.372 49.923 72.1343 50.1998C71.8967 50.4766 72.0942 58.6462 72.0942 58.6462L70.7871 68.2078L74.8271 69.4398C74.8271 69.4398 76.0957 61.3774 76.5308 59.1998C76.8283 57.5806 77.0401 55.9469 77.1651 54.3054C77.1651 54.3054 83.3841 55.7262 85.5149 54.5422C87.6457 53.3582 87.217 51.8974 87.217 51.8974" stroke="#263238" stroke-width="0.6" stroke-linecap="round" stroke-linejoin="round"/>
  <path d="M72.3086 58.3264C72.3086 58.3264 72.8208 56.032 72.922 54.8064" stroke="#263238" stroke-width="0.6" stroke-linecap="round" stroke-linejoin="round"/>
  <path d="M76.3277 52.9854C76.2058 52.8227 76.059 52.6801 75.8926 52.563" stroke="#263238" stroke-width="0.6" stroke-linecap="round" stroke-linejoin="round"/>
  <path d="M77.1654 54.3055C77.1654 54.3055 76.9373 53.8607 76.6387 53.4111" stroke="#263238" stroke-width="0.6" stroke-linecap="round" stroke-linejoin="round"/>
  <path d="M90.2758 32.7551C90.2758 32.7551 85.799 40.9599 84.8484 43.0559C83.8978 45.1519 82.6244 48.0687 82.6244 48.3839C82.6244 48.6991 81.7927 56.7919 82.0705 56.9487C82.3482 57.1055 86.5055 55.7647 88.4468 55.0159C90.3882 54.2671 90.4668 53.7135 90.6258 53.2783C90.7848 52.8431 90.7446 47.2399 90.7446 47.2399C90.7446 47.2399 94.7847 35.7935 94.7445 35.2815C94.7044 34.7695 90.2758 32.7551 90.2758 32.7551Z" fill="#108E66" stroke="#263238" stroke-width="0.6" stroke-linecap="round" stroke-linejoin="round"/>
  <path d="M86.8739 41.0559C86.14 41.7727 85.5234 42.3071 85.5234 42.3071" stroke="#263238" stroke-width="0.6" stroke-linecap="round" stroke-linejoin="round"/>
  <path d="M91.7012 33.6624C91.7012 33.6624 89.8401 37.2944 88.8879 38.7552C88.4181 39.4246 87.8882 40.0501 87.3047 40.624" stroke="#263238" stroke-width="0.6" stroke-linecap="round" stroke-linejoin="round"/>
  <path d="M85.7467 32.9006C85.7467 32.9006 83.8198 36.1102 83.2642 38.0046C82.7087 39.899 82.5898 40.8846 82.5898 40.8846" stroke="#263238" stroke-width="0.6" stroke-linecap="round" stroke-linejoin="round"/>
  <path d="M84.7285 37.4912L86.5591 36.3184L86.6297 39.0704" stroke="#263238" stroke-width="0.6" stroke-linecap="round" stroke-linejoin="round"/>
  <path d="M88.6348 49.8223L89.2466 49.7263" stroke="#263238" stroke-width="0.6" stroke-linecap="round" stroke-linejoin="round"/>
  <path d="M89.0463 49.0159L84.7285 49.5295V50.4367L87.8115 49.9519" stroke="#263238" stroke-width="0.6" stroke-linecap="round" stroke-linejoin="round"/>
  <path d="M83.0273 34.136C83.0273 34.136 83.7403 32.6368 84.0968 32.5968C84.4532 32.5568 85.2449 32.5968 85.2449 32.9168C85.2449 33.2368 84.8097 33.272 84.8097 33.272H84.2156L83.9378 33.9824L83.0273 34.136Z" fill="white" stroke="#263238" stroke-width="0.6" stroke-linecap="round" stroke-linejoin="round"/>
  <path d="M82.0372 36.9775L82.315 35.4383C82.315 35.4383 82.4338 34.0975 82.6361 34.0175C82.8385 33.9375 84.6562 33.9791 84.6562 33.9791C84.6562 33.9791 84.6963 35.5567 84.5373 35.9519C84.3784 36.3471 83.6654 36.5039 83.6654 36.5039C83.5997 36.75 83.5071 36.9882 83.3892 37.2143C83.2704 37.3743 82.8336 37.5695 82.8336 37.5695L82.7148 37.8895L81.6855 37.2175L82.0372 36.9775Z" fill="white" stroke="#263238" stroke-width="0.6" stroke-linecap="round" stroke-linejoin="round"/>
  <path d="M83.6604 36.5055L83.4629 35.7551L84.216 35.7151" fill="white"/>
  <path d="M83.6604 36.5055L83.4629 35.7551L84.216 35.7151" stroke="#263238" stroke-width="0.6" stroke-linecap="round" stroke-linejoin="round"/>
  <path d="M81.6392 36.8606L83.2642 38.0046L82.6299 38.675L81.2441 37.4126L81.6392 36.8606Z" fill="white" stroke="#263238" stroke-width="0.6" stroke-linecap="round" stroke-linejoin="round"/>
  <path d="M81.2445 37.4126L83.1055 38.7934L79.5408 44.2014C79.1191 44.2907 78.6809 44.263 78.2739 44.1214C77.5995 43.8846 76.9668 42.5438 76.9668 42.3854C76.9668 42.227 81.2445 37.4126 81.2445 37.4126Z" fill="#108E66" stroke="#263238" stroke-width="0.6" stroke-linecap="round" stroke-linejoin="round"/>
  <path d="M79.819 43.6879C79.819 43.6879 79.2249 42.5824 79.1848 42.2672C79.1446 41.952 79.1061 41.3199 78.907 41.0831C78.7079 40.8463 78.4718 40.688 78.3931 40.3328C78.3144 39.9776 77.9564 40.136 77.9114 40.4928C77.8664 40.8496 78.1876 41.2031 78.1876 41.2031C78.1876 41.2031 77.1985 40.8832 77.0395 40.9664C76.8805 41.0496 76.5578 41.1632 76.6429 41.4464C76.6958 41.6201 76.7629 41.7892 76.8436 41.952C76.8436 41.952 76.2109 42.7807 76.2109 43.1743C76.2109 43.5679 76.6461 44.2015 76.964 44.4383C77.282 44.6751 78.3899 44.9183 78.3899 44.9183L79.819 43.6879Z" fill="white" stroke="#263238" stroke-width="0.6" stroke-linecap="round" stroke-linejoin="round"/>
  <path d="M91.2468 35.5664L87.6612 42.9776L78.9067 43.4576C78.686 43.5109 78.4842 43.6238 78.3236 43.7838C78.163 43.9438 78.0498 44.1449 77.9963 44.3648C77.9043 44.7259 77.8643 45.0981 77.8775 45.4704C77.8775 45.4704 83.6998 46.1808 85.5224 46.2992C87.3449 46.4176 89.5624 46.6544 89.8402 46.3776C90.118 46.1008 93.4049 39.3136 93.4049 39.3136" fill="#108E66"/>
  <path d="M91.2468 35.5664L87.6612 42.9776L78.9067 43.4576C78.686 43.5109 78.4842 43.6238 78.3236 43.7838C78.163 43.9438 78.0498 44.1449 77.9963 44.3648C77.9043 44.7259 77.8643 45.0981 77.8775 45.4704C77.8775 45.4704 83.6998 46.1808 85.5224 46.2992C87.3449 46.4176 89.5624 46.6544 89.8402 46.3776C90.118 46.1008 93.4049 39.3136 93.4049 39.3136" stroke="#263238" stroke-width="0.6" stroke-linecap="round" stroke-linejoin="round"/>
  <path d="M38.845 57.3616H37.9297V66.1488H38.845V57.3616Z" fill="#263238" stroke="#263238" stroke-width="0.6" stroke-linecap="round" stroke-linejoin="round"/>
  <path d="M33.2683 48.9425L31.6543 49.1306L32.6786 57.8583L34.2926 57.6703L33.2683 48.9425Z" fill="#263238" stroke="#263238" stroke-width="0.6" stroke-linecap="round" stroke-linejoin="round"/>
  <path d="M39.5511 66.5072V65.0256H37.2276V66.52L27.9336 70.2368V71.9904H28.5679V70.6576L38.4223 68.4224L48.0165 70.6576V71.9904H48.6331V70.2368L39.5511 66.5072Z" fill="#8C8C8C" stroke="#263238" stroke-width="0.6" stroke-linecap="round" stroke-linejoin="round"/>
  <path d="M40.676 57.3616H36.0996V60.168H40.676V57.3616Z" fill="#263238" stroke="#263238" stroke-width="0.6" stroke-linecap="round" stroke-linejoin="round"/>
  <path d="M27.9328 72.0608C27.9328 71.8665 27.875 71.6765 27.7666 71.515C27.6583 71.3534 27.5043 71.2275 27.3242 71.1531C27.144 71.0788 26.9458 71.0593 26.7545 71.0972C26.5633 71.1352 26.3876 71.2287 26.2497 71.3661C26.1118 71.5035 26.0179 71.6785 25.9799 71.8691C25.9418 72.0597 25.9614 72.2572 26.036 72.4367C26.1106 72.6162 26.237 72.7697 26.3991 72.8776C26.5612 72.9856 26.7519 73.0432 26.9469 73.0432C27.2083 73.0432 27.4591 72.9397 27.644 72.7554C27.8289 72.5712 27.9328 72.3213 27.9328 72.0608Z" fill="#263238" stroke="#263238" stroke-width="0.6" stroke-linecap="round" stroke-linejoin="round"/>
  <path d="M27.37 72.0607C27.37 71.9775 27.3452 71.8961 27.2988 71.8269C27.2524 71.7577 27.1865 71.7038 27.1093 71.6719C27.0321 71.6401 26.9472 71.6317 26.8653 71.648C26.7834 71.6642 26.7081 71.7043 26.6491 71.7631C26.59 71.822 26.5498 71.897 26.5335 71.9786C26.5172 72.0602 26.5256 72.1448 26.5575 72.2217C26.5895 72.2986 26.6436 72.3643 26.7131 72.4106C26.7825 72.4568 26.8642 72.4815 26.9477 72.4815C27.0597 72.4815 27.1671 72.4372 27.2463 72.3582C27.3255 72.2793 27.37 72.1723 27.37 72.0607Z" fill="white" stroke="#263238" stroke-width="0.6" stroke-linecap="round" stroke-linejoin="round"/>
  <path d="M50.6691 72.0608C50.6691 71.8665 50.6113 71.6765 50.5029 71.515C50.3946 71.3534 50.2406 71.2275 50.0605 71.1531C49.8803 71.0788 49.6821 71.0593 49.4908 71.0972C49.2996 71.1352 49.1239 71.2287 48.986 71.3661C48.8482 71.5035 48.7543 71.6785 48.7162 71.8691C48.6782 72.0597 48.6977 72.2572 48.7723 72.4367C48.8469 72.6162 48.9733 72.7697 49.1354 72.8776C49.2976 72.9856 49.4882 73.0432 49.6832 73.0432C49.9447 73.0432 50.1954 72.9397 50.3803 72.7554C50.5652 72.5712 50.6691 72.3213 50.6691 72.0608Z" fill="#263238" stroke="#263238" stroke-width="0.6" stroke-linecap="round" stroke-linejoin="round"/>
  <path d="M49.6879 72.4815C49.9212 72.4815 50.1102 72.2931 50.1102 72.0607C50.1102 71.8283 49.9212 71.6399 49.6879 71.6399C49.4547 71.6399 49.2656 71.8283 49.2656 72.0607C49.2656 72.2931 49.4547 72.4815 49.6879 72.4815Z" fill="white" stroke="#263238" stroke-width="0.6" stroke-linecap="round" stroke-linejoin="round"/>
  <path d="M38.8094 72.0415H38.0354L37.6484 66.7791H39.198L38.8094 72.0415Z" fill="#8C8C8C" stroke="#263238" stroke-width="0.6" stroke-linecap="round" stroke-linejoin="round"/>
  <path d="M38.774 70.9185H38V73.0929H38.774V70.9185Z" fill="#263238" stroke="#263238" stroke-width="0.6" stroke-linecap="round" stroke-linejoin="round"/>
  <path d="M32.2927 53.3216C31.8411 53.3651 31.3854 53.3195 30.9515 53.1875C30.5176 53.0554 30.114 52.8394 29.7639 52.5519C29.4138 52.2644 29.1239 51.911 28.9109 51.5118C28.6979 51.1127 28.5659 50.6756 28.5225 50.2256L27.4418 39.0256C27.3982 38.5757 27.4439 38.1215 27.5765 37.6892C27.709 37.2568 27.9257 36.8547 28.2143 36.5059C28.5028 36.157 28.8575 35.8682 29.2581 35.6559C29.6587 35.4437 30.0973 35.3121 30.5489 35.2688C31.461 35.1819 32.3704 35.4593 33.0774 36.0401C33.7843 36.621 34.231 37.4577 34.3192 38.3664L35.3998 49.5664C35.4875 50.475 35.2094 51.381 34.6267 52.0852C34.044 52.7894 33.2045 53.2342 32.2927 53.3216Z" fill="#8C8C8C" stroke="#263238" stroke-width="0.6" stroke-linecap="round" stroke-linejoin="round"/>
  <path d="M33.112 53.2431C32.2 53.3305 31.2906 53.0534 30.5836 52.4729C29.8766 51.8923 29.4299 51.0557 29.3417 50.1471L28.2611 38.9471C28.1761 38.04 28.4554 37.1363 29.0377 36.4339C29.6201 35.7315 30.4581 35.2878 31.3682 35.1999C32.2804 35.1125 33.19 35.3898 33.8971 35.9707C34.6041 36.5516 35.0507 37.3886 35.1384 38.2975L36.2175 49.4863C36.3052 50.3947 36.0274 51.3007 35.4451 52.0051C34.8628 52.7096 34.0236 53.1548 33.112 53.2431Z" fill="#8C8C8C" stroke="#263238" stroke-width="0.6" stroke-linecap="round" stroke-linejoin="round"/>
  <path d="M48.6994 58.24L32.027 58.6624C31.9376 58.6652 31.8485 58.6504 31.7649 58.6188C31.6812 58.5873 31.6046 58.5396 31.5394 58.4785C31.4742 58.4174 31.4218 58.3442 31.3851 58.2629C31.3483 58.1816 31.328 58.0939 31.3253 58.0048L31.2386 55.4352C31.233 55.2555 31.2992 55.081 31.4226 54.9499C31.546 54.8188 31.7167 54.7419 31.897 54.736L48.5805 54.3136C48.6699 54.3106 48.7589 54.3252 48.8426 54.3566C48.9263 54.388 49.0029 54.4355 49.0681 54.4965C49.1333 54.5574 49.1857 54.6306 49.2225 54.7118C49.2593 54.793 49.2796 54.8806 49.2823 54.9696L49.3641 57.5408C49.3669 57.6303 49.3519 57.7195 49.3199 57.8031C49.288 57.8868 49.2397 57.9634 49.1779 58.0284C49.1161 58.0934 49.042 58.1455 48.9599 58.1819C48.8777 58.2182 48.7892 58.2379 48.6994 58.24Z" fill="#8C8C8C" stroke="#263238" stroke-width="0.6" stroke-linecap="round" stroke-linejoin="round"/>
  <path d="M41.2843 54.4398L31.9051 54.7352C31.5293 54.747 31.2342 55.0602 31.2461 55.4347L31.3276 58.0046C31.3395 58.3791 31.6538 58.673 32.0296 58.6612L41.4088 58.3659C41.7847 58.354 42.0797 58.0409 42.0678 57.6664L41.9863 55.0965C41.9745 54.722 41.6602 54.428 41.2843 54.4398Z" fill="#8C8C8C" stroke="#263238" stroke-width="0.6" stroke-linecap="round" stroke-linejoin="round"/>
  <path d="M50.8282 53.0063C50.8282 53.0063 50.9711 55.7519 51.3501 58.2111C51.729 60.6703 52.3569 68.1311 52.3569 68.1311C52.5543 68.8803 52.8232 69.6089 53.1597 70.3071C53.3844 70.7707 53.6719 71.2014 54.014 71.5871C54.014 71.5871 55.2488 72.8175 55.2006 73.0063C55.1525 73.1951 54.3785 73.1759 53.619 73.0335C52.8595 72.8911 52.7037 72.7135 52.2766 72.4271C51.8495 72.1407 50.878 71.7743 50.4509 71.6271C50.0237 71.4799 49.8824 71.1087 50.0254 70.6831C50.1683 70.2575 50.6436 69.2639 50.6436 68.6495C50.6436 68.0351 50.263 65.1199 49.2225 63.1791C48.182 61.2383 47.5605 57.8799 47.5605 57.8799L50.8282 53.0063Z" fill="white" stroke="#263238" stroke-width="0.6" stroke-linecap="round" stroke-linejoin="round"/>
  <path d="M51.0814 70.8255C50.7795 70.5919 50.4969 70.3455 50.256 70.1135C50.1661 70.3423 50.0826 70.5439 50.0361 70.6831C49.8932 71.1087 50.0361 71.4831 50.4616 71.6271C50.8871 71.7711 51.8602 72.1391 52.2873 72.4271C52.7144 72.7151 52.8702 72.8911 53.6297 73.0335C54.3892 73.1759 55.1648 73.1935 55.2113 73.0063C55.2579 72.8191 54.0247 71.5871 54.0247 71.5871L53.4081 71.8719C53.4081 71.8719 51.9356 71.4879 51.0814 70.8255Z" fill="#108E66" stroke="#263238" stroke-width="0.6" stroke-linecap="round" stroke-linejoin="round"/>
  <path d="M32.6134 47.3679C32.6134 47.3679 32.1862 49.0351 32.4191 50.0879C32.6519 51.1407 34.248 53.5759 37.0099 54.1583C39.7717 54.7407 46.7133 54.5503 46.7133 54.5503C46.7133 54.5503 45.0401 57.0831 44.4171 60.1327C44.0061 62.1519 42.7456 64.9775 42.5513 65.4047C42.357 65.8319 40.0608 66.6063 40.1427 66.9551C40.2245 67.3039 40.4927 69.4735 41.0756 70.3663C41.6585 71.2591 42.6315 71.6463 43.0201 71.7615C43.4087 71.8767 43.4874 71.8767 43.4874 71.4895C43.4874 71.1023 43.2144 70.5599 43.2144 70.2095C43.2144 69.8591 43.1759 67.4895 43.3316 67.1855C43.4874 66.8815 48.5808 58.8799 49.358 57.5679C50.1351 56.2559 51.3427 53.6911 51.6927 53.2655C52.0428 52.8399 52.4699 52.2575 52.1198 51.5215C51.7698 50.7855 43.7331 48.3215 43.7331 48.3215L43.3108 46.8319L39.2964 46.5999L32.6134 47.3679Z" fill="white" stroke="#263238" stroke-width="0.6" stroke-linecap="round" stroke-linejoin="round"/>
  <path d="M43.7332 48.32L43.3109 46.8304L39.2966 46.5984L32.6055 47.3728C32.6055 47.3728 32.1687 49.0416 32.4112 50.0928C32.7966 51.7552 34.2401 53.5808 37.002 54.1632C39.7638 54.7456 46.7054 54.5552 46.7054 54.5552C46.7054 54.5552 47.3638 51.2768 48.65 49.9984C47.1053 49.4736 43.7332 48.32 43.7332 48.32Z" fill="#263238" stroke="#263238" stroke-width="0.6" stroke-linecap="round" stroke-linejoin="round"/>
  <path d="M46.7129 54.5439C47.6393 54.2994 48.5383 53.9617 49.3961 53.5359L46.7129 54.5439Z" fill="white"/>
  <path d="M46.7129 54.5439C47.6393 54.2994 48.5383 53.9617 49.3961 53.5359" stroke="#263238" stroke-width="0.6" stroke-linecap="round" stroke-linejoin="round"/>
  <path d="M41.4603 68.8096C41.1841 68.1696 41.2018 66.8896 41.2371 66.2048C40.6494 66.4944 40.0986 66.7744 40.1388 66.9488C40.2159 67.2976 40.4888 69.4672 41.0717 70.36C41.6546 71.2528 42.6277 71.64 43.0163 71.7552C43.4049 71.8704 43.4835 71.8704 43.4835 71.4832C43.4835 71.096 43.2122 70.5552 43.2106 70.2032C42.8038 70.1516 42.4009 70.073 42.0046 69.968C42.0046 69.968 41.8489 69.7008 41.4603 68.8096Z" fill="#108E66" stroke="#263238" stroke-width="0.6" stroke-linecap="round" stroke-linejoin="round"/>
  <path d="M40.8993 32.019L39.6934 32.523C39.6934 32.523 40.6664 41.5998 40.6279 42.8798C40.5894 44.1598 40.5107 46.7198 40.5107 46.7198C40.5107 46.7198 42.1839 47.2238 43.3111 46.8366L43.234 42.4574C43.234 42.4574 44.0513 38.2702 43.7398 36.9134C43.4283 35.5566 42.4552 33.1534 42.4552 33.1534C42.4552 33.1534 41.9976 32.0574 40.8993 32.019Z" fill="white" stroke="#263238" stroke-width="0.6" stroke-linecap="round" stroke-linejoin="round"/>
  <path d="M40.5531 35.9343L41.7221 34.1599L43.1592 36.2399C43.1592 36.2399 42.5378 33.3327 42.4591 33.1391C42.2728 32.7743 41.9909 32.4663 41.6434 32.2479C41.1761 31.9375 40.6302 31.9279 40.3203 31.8991C40.0104 31.8703 39.6973 32.5199 39.6973 32.5199L40.5531 35.9343Z" fill="white" stroke="#263238" stroke-width="0.6" stroke-linecap="round" stroke-linejoin="round"/>
  <path d="M40.0057 31.8767C40.0057 31.8767 36.0957 32.7295 35.7601 32.9727C35.4245 33.2159 35.2784 34.0079 35.3619 34.3119C35.4454 34.6159 36.3398 41.1919 36.3398 41.1919L31.8438 47.7359C31.8438 47.7359 33.3114 48.9535 34.6859 49.1967C36.0604 49.4399 38.9925 49.0751 40.0314 48.6495L41.0703 48.2239C41.0703 48.2239 41.552 40.2783 41.0398 37.1423C40.5276 34.0063 40.0057 31.8767 40.0057 31.8767Z" fill="#108E66" stroke="#263238" stroke-width="0.6" stroke-linecap="round" stroke-linejoin="round"/>
  <path d="M52.0117 41.9824L53.5388 41.3136C53.5388 41.3136 53.998 40.3088 54.059 40.2176C54.12 40.1264 54.6387 39.9744 54.8828 39.76C55.1268 39.5456 55.464 39.1824 55.5556 39.152C55.6471 39.1216 55.7996 39.3952 55.5556 39.76C55.3706 40.0185 55.1549 40.2538 54.9133 40.4608L56.4114 39.9136C56.4114 39.9136 56.9911 38.9392 57.1436 39.3648C57.2962 39.7904 56.5014 41.1008 56.3199 41.5264C56.1385 41.952 55.9522 42.1664 55.6166 42.2272C55.281 42.288 54.2421 42.4704 54.0285 42.5008C53.815 42.5312 52.4999 43.2912 52.4999 43.2912L52.0117 41.9824Z" fill="white" stroke="#263238" stroke-width="0.6" stroke-linecap="round" stroke-linejoin="round"/>
  <path d="M54.1328 41.6784C54.4042 41.4496 54.7173 41.2224 54.8843 41.2224C55.2215 41.2224 55.9537 41.2832 55.9537 41.2832C55.9537 41.2832 56.3824 40.3088 56.596 40.1632C56.8096 40.0176 56.9926 40.224 56.8096 40.528" fill="white"/>
  <path d="M54.1328 41.6784C54.4042 41.4496 54.7173 41.2224 54.8843 41.2224C55.2215 41.2224 55.9537 41.2832 55.9537 41.2832C55.9537 41.2832 56.3824 40.3088 56.596 40.1632C56.8096 40.0176 56.9926 40.224 56.8096 40.528" stroke="#263238" stroke-width="0.6" stroke-linecap="round" stroke-linejoin="round"/>
  <path d="M42.0527 32.6079C42.0527 32.6079 43.0306 36.8383 43.0001 38.4207C42.9696 40.0031 42.4783 40.7999 42.5714 41.3439C42.6645 41.8879 42.8765 48.2847 42.8765 48.2847L43.7323 48.3151C43.7323 48.3151 43.5188 45.8799 43.5493 45.4223C43.5798 44.9647 43.8849 43.1391 43.8849 43.1391C43.8849 43.1391 45.4135 46.1535 45.6271 46.3055C45.8407 46.4575 52.9284 43.4447 52.9284 43.4447L52.4081 41.7087L47.0016 42.8047C47.0016 42.8047 45.9322 39.2735 45.7796 38.5119C45.6271 37.7503 45.5051 35.0735 45.0763 34.4031C44.6476 33.7327 42.0527 32.6079 42.0527 32.6079Z" fill="#108E66" stroke="#263238" stroke-width="0.6" stroke-linecap="round" stroke-linejoin="round"/>
  <path d="M43.8867 43.1391C43.8867 43.1391 44.0698 42.3791 44.3765 40.3695C44.5608 39.1697 44.571 37.9498 44.407 36.7471" stroke="#263238" stroke-width="0.6" stroke-linecap="round" stroke-linejoin="round"/>
  <path d="M43.5523 34.9775C43.6984 36.0735 43.8076 37.4271 43.6117 38.1775C43.3881 39.0293 43.1021 39.8635 42.7559 40.6735" stroke="#263238" stroke-width="0.6" stroke-linecap="round" stroke-linejoin="round"/>
  <path d="M43.2812 33.28C43.2812 33.28 43.3728 33.7392 43.4739 34.4" stroke="#263238" stroke-width="0.6" stroke-linecap="round" stroke-linejoin="round"/>
  <path d="M40.3594 39.2C40.756 40.1792 41.106 41.1344 41.106 41.1344" stroke="#263238" stroke-width="0.6" stroke-linecap="round" stroke-linejoin="round"/>
  <path d="M38.5098 32.363C38.5098 32.363 39.2115 36.6558 39.7622 37.8126C39.8746 38.0478 39.9967 38.3262 40.1203 38.6126" stroke="#263238" stroke-width="0.6" stroke-linecap="round" stroke-linejoin="round"/>
  <path d="M47.1855 41.0703L48.377 40.7343C48.377 40.7343 49.1413 39.7599 49.3244 39.5167C49.5074 39.2735 49.9346 39.2735 50.2413 39.0911C50.548 38.9087 50.943 38.2383 51.0955 38.3599C51.2481 38.4815 51.0955 39.0303 50.9349 39.1823C50.7304 39.3472 50.5159 39.4994 50.2926 39.6383C50.1706 39.7295 51.7282 39.3647 51.7282 39.3647C51.7282 39.3647 52.7366 38.4815 52.7976 38.7247C52.8586 38.9679 52.3383 39.8207 52.3383 39.8207C52.3383 39.8207 51.6061 40.5199 51.2384 40.8239C50.8707 41.1279 49.986 41.2511 49.7419 41.3039C49.4978 41.3567 49.0707 41.4255 49.0707 41.4255L47.2369 42.0943L47.1855 41.0703Z" fill="white" stroke="#263238" stroke-width="0.6" stroke-linecap="round" stroke-linejoin="round"/>
  <path d="M52.1048 40C52.1048 40 51.4626 40.304 51.127 40.456L52.1048 40Z" fill="white"/>
  <path d="M52.1048 40C52.1048 40 51.4626 40.304 51.127 40.456" stroke="#263238" stroke-width="0.6" stroke-linecap="round" stroke-linejoin="round"/>
  <path d="M50.3027 39.6384L49.752 39.76" stroke="#263238" stroke-width="0.6" stroke-linecap="round" stroke-linejoin="round"/>
  <path d="M36.4322 32.7295C36.4322 32.7295 34.6306 33.3375 34.3544 33.7951C34.0782 34.2527 35.0577 37.9951 35.7916 40.0655C36.5254 42.1359 38.4796 45.6047 38.7236 45.7263C38.9677 45.8479 45.3537 43.5967 46.8149 43.1391C48.2761 42.6815 48.525 42.4399 48.525 42.4399L47.8827 40.7951L40.5526 42.1039L38.3045 35.0735" fill="#108E66"/>
  <path d="M36.4322 32.7295C36.4322 32.7295 34.6306 33.3375 34.3544 33.7951C34.0782 34.2527 35.0577 37.9951 35.7916 40.0655C36.5254 42.1359 38.4796 45.6047 38.7236 45.7263C38.9677 45.8479 45.3537 43.5967 46.8149 43.1391C48.2761 42.6815 48.525 42.4399 48.525 42.4399L47.8827 40.7951L40.5526 42.1039L38.3045 35.0735" stroke="#263238" stroke-width="0.6" stroke-linecap="round" stroke-linejoin="round"/>
  <path d="M45.2844 23.4592C45.2844 23.4592 45.9974 23.9392 45.6361 24.456C45.2748 24.9728 44.5121 25.008 44.5121 25.008L43.8457 23.9616C43.8457 23.9616 44.6389 23.024 45.2844 23.4592Z" fill="#263238" stroke="#263238" stroke-width="0.6" stroke-linecap="round" stroke-linejoin="round"/>
  <path d="M44.536 24.0831C44.536 24.0831 45.6295 26.6687 45.5685 26.8911C45.5075 27.1135 44.9985 27.4607 45.2297 27.7983C45.4609 28.1359 46.1386 28.8111 46.1209 28.9055C46.1032 28.9999 45.2747 29.4815 45.2747 29.4815C45.2747 29.4815 44.695 31.5615 44.459 31.8655C44.2229 32.1695 42.2302 31.7999 42.2302 31.7999L41.8095 34.1295L39.4426 31.9311L38.5579 31.0991C38.5579 31.0991 37.7647 27.5503 39.4475 25.4175C41.1303 23.2847 44.536 24.0831 44.536 24.0831Z" fill="white" stroke="#263238" stroke-width="0.6" stroke-linecap="round" stroke-linejoin="round"/>
  <path d="M44.3858 27.7264C44.3858 27.944 44.2959 28.12 44.1948 28.1184C44.0936 28.1168 44.0149 27.9376 44.0197 27.7184C44.0246 27.4992 44.1081 27.3248 44.2092 27.3264C44.3104 27.328 44.3891 27.5072 44.3858 27.7264Z" fill="#263238"/>
  <path d="M44.3902 30.0015C44.2011 29.9926 44.0157 29.9454 43.8454 29.8629C43.6751 29.7804 43.5234 29.6642 43.3995 29.5215C43.3995 29.5215 43.3401 30.4575 43.6323 30.5119C43.9246 30.5663 44.3902 30.0015 44.3902 30.0015Z" fill="#263238" stroke="#263238" stroke-width="0.6" stroke-linecap="round" stroke-linejoin="round"/>
  <path d="M43.7754 26.8591C43.7754 26.8591 44.384 26.3455 44.9283 26.9471" stroke="#263238" stroke-width="0.6" stroke-linecap="round" stroke-linejoin="round"/>
  <path d="M42.2297 31.7999L41.2422 31.5647L41.9856 32.9391L42.2297 31.7999Z" fill="#263238" stroke="#263238" stroke-width="0.6" stroke-linecap="round" stroke-linejoin="round"/>
  <path d="M44.5354 24.0831C44.5354 24.0831 44.3202 24.7567 43.2684 25.6367C42.2167 26.5167 41.2757 27.0767 41.2789 27.3199C41.2822 27.5631 41.4395 27.7903 41.2276 27.8495C41.0548 27.8715 40.8793 27.842 40.7234 27.7647C40.7234 27.7647 40.2127 29.2159 40.1357 30.2399C40.1043 30.9158 40.2075 31.5912 40.4391 32.2271C40.4391 32.2271 38.1734 32.3487 36.8664 31.3599C35.5593 30.3711 35.1916 29.2511 35.3361 28.2799C35.4806 27.3087 35.8949 24.2415 37.9053 22.7391C39.9157 21.2367 42.7964 21.2991 43.7743 21.9119C44.7521 22.5247 45.4603 22.9743 45.2804 23.4591C45.1006 23.9439 44.5354 24.0831 44.5354 24.0831Z" fill="#263238" stroke="#263238" stroke-width="0.6" stroke-linecap="round" stroke-linejoin="round"/>
  <path d="M39.7878 54.6416C39.7278 54.6419 39.6686 54.6288 39.6144 54.6032C39.4998 54.5409 39.4119 54.4391 39.3673 54.3168C39.3227 54.1946 39.3243 54.0603 39.3719 53.9392C40.0977 51.9648 40.9295 48.4432 40.0768 47.392C39.8777 47.232 38.6782 46.912 32.2168 47.5776L31.7463 47.6256C31.2951 47.664 30.9097 48.3136 30.8101 48.5376C30.7889 48.5948 30.7557 48.6468 30.7126 48.6901C30.6695 48.7334 30.6176 48.767 30.5604 48.7887C30.5032 48.8104 30.4421 48.8196 30.381 48.8158C30.3199 48.8119 30.2604 48.7951 30.2064 48.7664C30.0959 48.6958 30.0146 48.5879 29.9774 48.4624C29.9402 48.3369 29.9497 48.2023 30.0041 48.0832C30.0667 47.9424 30.6464 46.7008 31.6772 46.6112L32.1349 46.5648C39.0203 45.8512 40.3402 46.2112 40.7416 46.704C42.2574 48.5728 40.4205 53.744 40.2037 54.328C40.1755 54.4167 40.1203 54.4946 40.0458 54.5507C39.9713 54.6069 39.8812 54.6387 39.7878 54.6416Z" fill="white" stroke="#263238" stroke-width="0.6" stroke-linecap="round" stroke-linejoin="round"/>
  <path d="M68.1736 39.6064H57.6224L55.1816 47.8448H65.7329L68.1736 39.6064Z" fill="#D9D9D9" stroke="#263238" stroke-width="0.6" stroke-linecap="round" stroke-linejoin="round"/>
  <path d="M47.4634 47.3936L47.3301 47.8448H65.7334L65.8683 47.3936H47.4634Z" fill="#D9D9D9" stroke="#263238" stroke-width="0.6" stroke-linecap="round" stroke-linejoin="round"/>
  <path d="M55.3344 47.3936L55.2012 47.8448H65.7332L65.8681 47.3936H55.3344Z" fill="#263238" stroke="#263238" stroke-width="0.6" stroke-linecap="round" stroke-linejoin="round"/>
  <path d="M65.5825 49.0815H63.7969V72.8703H65.5825V49.0815Z" fill="white" stroke="#263238" stroke-width="0.6" stroke-linecap="round" stroke-linejoin="round"/>
  <path d="M65.5825 49.0815H63.7969V53.0111H65.5825V49.0815Z" fill="#263238" stroke="#263238" stroke-width="0.6" stroke-linecap="round" stroke-linejoin="round"/>
  <path d="M87.2752 47.8496H41.9453V49.1712H87.2752V47.8496Z" fill="white" stroke="#263238" stroke-width="0.6" stroke-linecap="round" stroke-linejoin="round"/>
  <path d="M74.0078 73.064H55.2207C57.0793 72.193 59.108 71.7418 61.1619 71.7424H68.0875C70.1414 71.7414 72.1702 72.1927 74.0287 73.064H74.0078Z" fill="white" stroke="#263238" stroke-width="0.6" stroke-linecap="round" stroke-linejoin="round"/>
</svg>