<svg xmlns="http://www.w3.org/2000/svg" width="224" height="225" viewBox="0 0 224 225" fill="none">
  <path d="M199.623 64.4637C199.623 64.4637 163.604 12.6032 118.634 7.08834C78.9366 2.24546 42.111 21.2272 36.959 62.2506C35.1312 76.8643 31.8787 93.0327 26.0995 106.37C19.617 121.328 8.55584 133.774 17.023 162.544C25.4902 191.315 61.272 217.254 87.2784 217.2C113.285 217.147 137.719 193.456 157.874 171.952C178.03 150.448 242.215 130.288 199.623 64.4637Z" fill="#108E66"/>
  <path opacity="0.7" d="M199.623 64.4637C199.623 64.4637 163.604 12.6032 118.634 7.08834C78.9366 2.24546 42.111 21.2272 36.959 62.2506C35.1312 76.8643 31.8787 93.0327 26.0995 106.37C19.617 121.328 8.55584 133.774 17.023 162.544C25.4902 191.315 61.272 217.254 87.2784 217.2C113.285 217.147 137.719 193.456 157.874 171.952C178.03 150.448 242.215 130.288 199.623 64.4637Z" fill="white"/>
  <g opacity="0.3">
    <path d="M112.847 24.8467H35.8496V121.955H112.847V24.8467Z" stroke="black" stroke-width="0.7" stroke-miterlimit="10"/>
    <path d="M35.8398 101.468C42.5263 93.4861 50.2408 86.4255 58.7819 80.4701C77.1499 67.5767 98.0536 61.242 112.838 51.6548" stroke="black" stroke-width="0.7" stroke-miterlimit="10"/>
    <path d="M35.8398 77.0924C47.2728 70.6323 61.0578 61.7216 71.9845 51.2473C84.1432 39.5993 87.3867 30.6393 87.7496 24.8467" stroke="black" stroke-width="0.7" stroke-miterlimit="10"/>
    <path d="M56 121.955C63.616 104.972 78.0819 75.6142 81.7421 88.6465C84.5421 98.6369 80.3981 112.046 76.1958 121.955" stroke="black" stroke-width="0.7" stroke-miterlimit="10"/>
    <path d="M55.251 24.8467C49.1224 31.4771 42.9489 40.3923 49.0462 44.6438C57.2536 50.3648 68.0145 37.5878 73.5563 24.8467" stroke="black" stroke-width="0.7" stroke-miterlimit="10"/>
    <path d="M96.3461 51.243C101.814 51.243 106.247 46.8103 106.247 41.3422C106.247 35.8741 101.814 31.4414 96.3461 31.4414C90.878 31.4414 86.4453 35.8741 86.4453 41.3422C86.4453 46.8103 90.878 51.243 96.3461 51.243Z" stroke="black" stroke-width="0.7" stroke-miterlimit="10"/>
    <path d="M46.6912 62.8687C49.5539 62.8687 51.8745 60.548 51.8745 57.6853C51.8745 54.8226 49.5539 52.502 46.6912 52.502C43.8285 52.502 41.5078 54.8226 41.5078 57.6853C41.5078 60.548 43.8285 62.8687 46.6912 62.8687Z" stroke="black" stroke-width="0.7" stroke-miterlimit="10"/>
    <path d="M53.8466 110.695C58.1854 109.69 60.888 105.358 59.8832 101.019C58.8783 96.6805 54.5464 93.9779 50.2076 94.9828C45.8688 95.9876 43.1662 100.32 44.1711 104.658C45.1759 108.997 49.5078 111.7 53.8466 110.695Z" stroke="black" stroke-width="0.7" stroke-miterlimit="10"/>
  </g>
  <path d="M49.1638 192.771C46.4758 147.523 63.8223 116.23 63.9971 115.917L64.9603 116.49C64.7855 116.799 47.6003 147.828 50.2614 192.749L49.1638 192.771Z" fill="#9E9E9E"/>
  <path d="M48.8011 189.08C46.7985 155.287 52.282 110.621 52.3358 110.173L53.4379 110.353C53.3796 110.801 47.9095 155.368 49.9076 189.062L48.8011 189.08Z" fill="#9E9E9E"/>
  <path d="M46.6547 188.053C44.7238 170.16 45.0822 157.665 45.7274 150.336C46.4262 142.357 47.5686 138.688 47.6179 138.522L48.6752 138.894C48.6304 139.042 44.0877 153.974 47.7568 187.982L46.6547 188.053Z" fill="#9E9E9E"/>
  <path d="M50.7681 179.246L49.666 179.089C52.6318 150.041 49.8318 135.992 49.8004 135.853L50.8846 135.669C50.9159 135.808 53.7607 150 50.7681 179.246Z" fill="#9E9E9E"/>
  <path d="M52.116 186.387L51.0094 186.28C52.0936 167.267 48.2005 157.115 48.1602 157.016L49.1861 156.649C49.3518 157.066 53.2136 167.101 52.116 186.387Z" fill="#9E9E9E"/>
  <path d="M52.4562 115.213C49.6178 110.161 47.6162 104.683 46.5291 98.9911C44.8939 89.9281 48.1823 82.7645 52.4293 78.3383C56.6763 73.9121 63.4994 70.7537 67.5672 67.1741C71.6351 63.5946 77.9519 58.5322 77.9519 58.5322C77.9519 58.5322 75.5192 71.1748 75.5685 82.7645C75.6178 94.3543 68.9381 101.097 64.028 104.681C59.1179 108.265 52.4562 115.213 52.4562 115.213Z" fill="#108E66"/>
  <path d="M63.8951 117.256C63.8951 117.256 61.0682 104.752 69.5578 102.512C78.0474 100.272 80.1799 104.694 82.2855 104.999C84.3911 105.303 87.5808 105.653 89.9015 108.135C92.2221 110.616 91.8637 112.27 93.5079 113.748C95.1521 115.226 96.7245 116.046 97.41 119.008C98.0954 121.969 99.202 125.038 97.9476 126.879C97.9476 126.879 94.4397 117.632 86.3399 115.858C78.24 114.084 65.5527 116.593 63.8951 117.256Z" fill="#108E66"/>
  <path d="M49.7015 130.387C49.7015 130.387 48.3978 119.008 46.0503 113.108C43.7028 107.208 36.3153 101.729 31.3828 99.6229C26.4503 97.5173 22.817 96.2405 21.6836 94.3544C20.5501 92.4683 18.1489 90.3493 18.9956 95.1967C19.8423 100.044 20.7876 107.839 23.2292 111.213L25.6842 114.582C25.6842 114.582 34.5322 114.582 39.5722 119.64C44.6122 124.697 50.033 133.335 50.033 133.335L49.7015 130.387Z" fill="#108E66"/>
  <path d="M50.0331 133.335C50.0331 133.335 40.5713 123.434 36.0062 120.061C31.4411 116.687 25.5274 116.27 22.1406 115.849C18.7537 115.428 15.1562 109.949 15.1562 109.949C15.1562 109.949 17.7771 122.592 21.4283 129.334C25.0795 136.077 34.5502 135.866 39.6081 135.866C44.666 135.866 50.0331 133.335 50.0331 133.335Z" fill="#108E66"/>
  <path d="M46.9727 140.924C46.9727 140.924 47.4207 135.866 50.0325 133.335C52.6443 130.803 57.3304 131.44 60.3365 132.492C63.3426 133.545 64.7179 131.44 67.0565 132.071C69.3951 132.703 72.8805 135.024 75.0578 137.129C77.2351 139.235 80.2367 145.345 80.2815 146.403C80.3263 147.46 75.4744 142.187 71.8322 140.713C68.1899 139.239 61.4251 138.8 56.7883 138.8C52.1515 138.8 46.9727 140.924 46.9727 140.924Z" fill="#108E66"/>
  <path d="M49.2177 154.619C49.2177 154.619 47.9723 150.001 44.1195 148.509C40.2667 147.017 34.8145 147.666 33.1524 147.666C31.4903 147.666 28.4305 145.556 24.9764 148.719C22.9306 150.565 21.3614 152.878 20.4023 155.462C23.0782 153.202 26.4521 151.936 29.9537 151.878C35.6388 151.878 37.9415 151.457 40.9879 153.777C44.0343 156.098 50.266 159.677 50.266 159.677L49.2177 154.619Z" fill="#108E66"/>
  <path d="M50.9116 170.317C50.9116 170.317 51.7359 159.565 53.51 156.622C55.284 153.678 61.6143 148.611 64.71 146.716C67.8057 144.821 72.3618 143.132 72.3618 143.132C71.5161 147.265 70.0398 151.244 67.9849 154.928C64.6428 160.828 56.3861 165.044 55.4408 167.365C54.8922 168.659 54.4545 169.997 54.1327 171.365C54.1327 171.365 53.8191 168.839 59.4729 167.996C65.1266 167.154 70.0322 168.628 72.0168 170.734C74.0015 172.839 76.6223 175.16 77.254 175.16C77.8857 175.16 82.0028 177.897 82.0028 177.897C82.0028 177.897 78.8937 179.16 74.2031 177.897C69.5125 176.634 65.4357 174.761 62.4879 174.761C59.54 174.761 53.6802 175.814 53.6802 175.814C53.6802 175.814 63.0121 177.288 64.5218 178.13C66.0316 178.972 71.3986 181.504 71.3986 181.504C71.3986 181.504 64.6786 181.925 61.1618 183.609C57.645 185.294 56.0636 187.825 55.8978 188.878C55.732 189.93 55.5887 191.619 55.5887 191.619L55.7141 194.778H41.8261C41.8261 194.778 41.9202 186.772 37.7941 183.399C33.668 180.025 27.1138 179.815 27.1138 179.815L22.7458 181.288C22.7458 181.288 23.709 178.968 27.6335 177.073C31.558 175.178 34.4655 174.125 36.7861 174.125C38.068 174.106 39.3473 174.248 40.5941 174.546C40.5941 174.546 36.4188 170.33 31.9836 170.12C27.5484 169.909 21.6706 171.58 21.0568 172.001C20.4431 172.423 31.9477 165.259 35.7513 165.47C38.1265 165.642 40.4131 166.443 42.3772 167.79L40.3208 163.996C40.3208 163.996 42.1128 161.89 46.5212 166.101L50.9116 170.317Z" fill="#108E66"/>
  <g opacity="0.2">
    <path d="M68.6973 73.3926C70.0413 71.3587 71.0134 70.064 71.0134 70.064" stroke="black" stroke-width="0.7" stroke-miterlimit="10"/>
    <path d="M53.4375 110.353C53.4375 110.353 58.146 97.074 60.6861 88.8173C62.0301 84.3956 64.9108 79.3332 67.2762 75.5879" stroke="black" stroke-width="0.7" stroke-miterlimit="10"/>
    <path d="M64.817 99.3003C64.817 99.3003 61.6406 101.679 57.649 104.676C53.6573 107.673 54.3114 106.742 54.3114 106.742L50.6602 100.389" stroke="black" stroke-width="0.7" stroke-miterlimit="10"/>
    <path d="M54.6562 91.8325C55.6105 94.3772 57.1964 99.4485 57.1964 99.4485L67.3571 93.1048" stroke="black" stroke-width="0.7" stroke-miterlimit="10"/>
    <path d="M67.5938 84.7541L71.4869 82.4648" stroke="black" stroke-width="0.7" stroke-miterlimit="10"/>
    <path d="M58.3066 79.127L60.6855 88.8172L65.6538 85.8962" stroke="black" stroke-width="0.7" stroke-miterlimit="10"/>
    <path d="M86.957 110.165C87.5131 110.375 88.0296 110.678 88.4847 111.061C90.3887 112.651 89.439 112.808 92.2972 114.716C95.1554 116.625 98.9545 123.734 97.9285 126.929" stroke="black" stroke-width="0.7" stroke-miterlimit="10"/>
    <path d="M81.334 106.289C81.3605 106.833 81.5192 107.362 81.7964 107.83C82.0735 108.298 82.4607 108.692 82.9244 108.977C83.5022 109.296 84.1314 109.512 84.7836 109.613" stroke="black" stroke-width="0.7" stroke-miterlimit="10"/>
    <path d="M28.2246 105.201C26.2847 103.355 25.1289 102.154 25.1289 102.154" stroke="black" stroke-width="0.7" stroke-miterlimit="10"/>
    <path d="M43.2553 121.073C41.4633 118.282 38.6722 114.353 35.2764 111.531C33.2604 109.842 31.4281 108.207 29.9004 106.791" stroke="black" stroke-width="0.7" stroke-miterlimit="10"/>
    <path d="M45.2799 124.554C45.2799 124.554 44.9081 123.819 44.2227 122.659" stroke="black" stroke-width="0.7" stroke-miterlimit="10"/>
    <path d="M39.2447 115.343L33.0488 104.699" stroke="black" stroke-width="0.7" stroke-miterlimit="10"/>
    <path d="M32.1001 109.148L26.6973 107.557" stroke="black" stroke-width="0.7" stroke-miterlimit="10"/>
    <path d="M33.7393 129.111C32.683 128.729 31.6572 128.267 30.6705 127.731C26.858 125.491 22.2481 122.332 20.8145 120.424" stroke="black" stroke-width="0.7" stroke-miterlimit="10"/>
    <path d="M47.8248 133.447C47.8248 133.447 41.1048 131.682 35.8184 129.863" stroke="black" stroke-width="0.7" stroke-miterlimit="10"/>
    <path d="M23.5195 127.574L30.6651 127.731L27.332 122.807" stroke="black" stroke-width="0.7" stroke-miterlimit="10"/>
    <path d="M32.2559 131.543L39.8808 131.068L35.7503 125.347" stroke="black" stroke-width="0.7" stroke-miterlimit="10"/>
    <path d="M65.4746 135.028C65.8554 135.221 66.3168 135.436 66.8813 135.673C69.9008 136.941 70.0576 135.83 72.9159 137.739C75.7741 139.647 76.4103 141.547 77.8439 143.137" stroke="black" stroke-width="0.7" stroke-miterlimit="10"/>
    <path d="M63.7051 133.765C63.7051 133.765 63.7768 134.056 64.7624 134.639" stroke="black" stroke-width="0.7" stroke-miterlimit="10"/>
    <path d="M63.7109 152.214C64.5243 151.313 65.2658 150.35 65.9285 149.333" stroke="black" stroke-width="0.7" stroke-miterlimit="10"/>
    <path d="M52.416 165.376C52.416 165.376 56.896 158.544 60.5293 155.377C60.9101 155.045 61.273 154.714 61.6135 154.391" stroke="black" stroke-width="0.7" stroke-miterlimit="10"/>
  </g>
  <path d="M217.777 194.76H8.48438" stroke="#263238" stroke-width="0.7" stroke-linecap="round" stroke-linejoin="round"/>
  <path d="M203.127 125.88H151.5C150.918 125.86 150.347 126.041 149.882 126.392C149.418 126.742 149.087 127.241 148.946 127.806L134.848 194.76H191.788L205.676 128.702C205.99 127.237 204.763 125.88 203.127 125.88Z" fill="#949494" stroke="#263238" stroke-width="0.7" stroke-linecap="round" stroke-linejoin="round"/>
  <path d="M138.67 80.0317C138.67 80.0317 132.022 84.5117 132.398 87.8852C132.775 91.2586 136.385 94.0497 136.385 94.0497C136.385 94.0497 141.34 82.0881 141.703 81.9537C142.066 81.8193 138.67 80.0317 138.67 80.0317Z" fill="#263238" stroke="#263238" stroke-width="0.7" stroke-linecap="round" stroke-linejoin="round"/>
  <path d="M135.618 108.394C135.618 108.394 136.765 113.645 135.945 116.27L135.125 118.895C135.125 118.895 142.669 121.189 145.133 119.876C147.597 118.564 147.92 117.744 147.92 117.744C147.92 117.744 138.404 107.082 135.618 108.394Z" fill="#263238" stroke="#263238" stroke-width="0.7" stroke-linecap="round" stroke-linejoin="round"/>
  <path d="M134.356 134.15C134.356 134.15 147.375 133.254 153.885 134.15C160.394 135.046 161.178 135.216 161.178 135.216C161.178 135.216 155.448 155.134 151.801 162.948C148.155 170.761 139.826 177.396 139.826 177.396C139.826 177.396 126.933 155.242 134.356 134.15Z" fill="#263238" stroke="#263238" stroke-width="0.7" stroke-linecap="round" stroke-linejoin="round"/>
  <path d="M140.118 81.1201C140.118 81.1201 136.13 89.8203 135.767 91.7512C135.405 93.6821 135.647 97.4318 135.647 98.8833C135.647 100.335 134.441 105.527 134.441 106.858C134.441 108.188 139.513 118.698 140.843 119.178C142.174 119.657 143.863 118.94 143.863 118.94C143.863 118.94 144.468 123.42 144.347 124.401C144.226 125.383 141.211 126.7 141.211 126.7C141.211 126.7 137.223 134.553 138.075 137.331C138.926 140.108 142.062 142.769 147.738 142.044C153.414 141.318 156.075 139.503 157.648 134.795C159.22 130.087 160.425 125.387 160.425 125.387C160.425 125.387 158.633 125.602 158.633 123.546C158.633 121.489 158.754 111.705 158.754 111.705C158.754 111.705 160.443 94.7931 155.247 87.9029C150.05 81.0126 141.932 77.8721 140.118 81.1201Z" fill="white" stroke="#263238" stroke-width="0.7" stroke-linecap="round" stroke-linejoin="round"/>
  <path d="M137.822 79.7896C137.822 79.7896 148.09 90.3042 151.594 96.3432C155.097 102.382 151.957 119.42 153.287 119.42C154.618 119.42 159.111 119.29 169.518 114.335C179.925 109.38 179.67 99.7167 177.134 92.7099C174.599 85.7032 168.394 77.4779 162.839 74.7183C157.283 71.9586 141.93 70.852 137.822 79.7896Z" fill="#263238" stroke="#263238" stroke-width="0.7" stroke-linecap="round" stroke-linejoin="round"/>
  <path d="M154.43 99.5508C156.356 103.489 160.124 111.978 159.474 116.929" stroke="#B2B2B2" stroke-width="0.7" stroke-linecap="round" stroke-linejoin="round"/>
  <path d="M153.35 97.4316C153.35 97.4316 153.511 97.7318 153.798 98.2604" stroke="#B2B2B2" stroke-width="0.7" stroke-linecap="round" stroke-linejoin="round"/>
  <path d="M170.75 108.372C171.036 109.537 171.091 110.747 170.911 111.934" stroke="#B2B2B2" stroke-width="0.7" stroke-linecap="round" stroke-linejoin="round"/>
  <path d="M142.23 80.1929C142.23 80.1929 139.99 81.4786 156.566 92.4367C165.141 98.095 168.685 102.938 170.105 106.387" stroke="#B2B2B2" stroke-width="0.7" stroke-linecap="round" stroke-linejoin="round"/>
  <path d="M144.467 99.376C145.086 99.8828 145.839 100.198 146.635 100.284C147.43 100.37 148.234 100.223 148.947 99.8598" stroke="#263238" stroke-width="0.7" stroke-linecap="round" stroke-linejoin="round"/>
  <path d="M136.613 99.1206C136.613 99.1206 137.581 100.33 139.27 99.2416" stroke="#263238" stroke-width="0.7" stroke-linecap="round" stroke-linejoin="round"/>
  <path d="M139.033 94.7754C139.033 94.7754 140.238 97.674 140.238 99.0045C140.235 99.8081 140.027 100.598 139.634 101.298" stroke="#263238" stroke-width="0.7" stroke-linecap="round" stroke-linejoin="round"/>
  <path d="M138.307 107.095C138.883 107.567 139.536 107.935 140.238 108.184" stroke="#263238" stroke-width="0.7" stroke-linecap="round" stroke-linejoin="round"/>
  <path d="M139.512 110.128C139.512 110.128 143.499 111.92 146.281 109.765" stroke="#263238" stroke-width="0.7" stroke-linecap="round" stroke-linejoin="round"/>
  <path d="M143.02 94.775C143.02 94.775 148.091 93.2025 150.026 96.222" stroke="#263238" stroke-width="0.7" stroke-linecap="round" stroke-linejoin="round"/>
  <path d="M136.371 94.0493C136.371 94.0493 137.581 93.0817 138.306 93.9284" stroke="#263238" stroke-width="0.7" stroke-linecap="round" stroke-linejoin="round"/>
  <path d="M143.861 118.941L149.542 117.731L144.224 122.444L143.861 118.941Z" fill="#263238" stroke="#263238" stroke-width="0.7" stroke-linecap="round" stroke-linejoin="round"/>
  <path d="M144.288 125.069C144.288 125.246 144.236 125.419 144.137 125.567C144.039 125.714 143.899 125.829 143.735 125.897C143.571 125.964 143.391 125.982 143.217 125.948C143.043 125.913 142.884 125.828 142.759 125.702C142.633 125.577 142.548 125.417 142.513 125.244C142.479 125.07 142.496 124.89 142.564 124.726C142.632 124.562 142.747 124.422 142.894 124.324C143.042 124.225 143.215 124.173 143.392 124.173C143.63 124.173 143.858 124.267 144.026 124.435C144.194 124.603 144.288 124.831 144.288 125.069Z" fill="white" stroke="#263238" stroke-width="0.7" stroke-linecap="round" stroke-linejoin="round"/>
  <path d="M144.046 126.579C144.046 126.756 143.993 126.929 143.895 127.076C143.796 127.224 143.657 127.339 143.493 127.406C143.329 127.474 143.149 127.492 142.975 127.457C142.801 127.423 142.642 127.337 142.516 127.212C142.391 127.087 142.306 126.927 142.271 126.753C142.237 126.58 142.254 126.399 142.322 126.236C142.39 126.072 142.505 125.932 142.652 125.834C142.799 125.735 142.973 125.683 143.15 125.683C143.388 125.683 143.615 125.777 143.783 125.945C143.952 126.113 144.046 126.341 144.046 126.579Z" fill="white" stroke="#263238" stroke-width="0.7" stroke-linecap="round" stroke-linejoin="round"/>
  <path d="M143.808 128.088C143.808 128.266 143.755 128.439 143.657 128.586C143.558 128.734 143.418 128.848 143.255 128.916C143.091 128.984 142.911 129.002 142.737 128.967C142.563 128.933 142.403 128.847 142.278 128.722C142.153 128.597 142.067 128.437 142.033 128.263C141.998 128.089 142.016 127.909 142.084 127.746C142.152 127.582 142.266 127.442 142.414 127.343C142.561 127.245 142.734 127.192 142.912 127.192C143.149 127.192 143.377 127.287 143.545 127.455C143.713 127.623 143.808 127.851 143.808 128.088Z" fill="white" stroke="#263238" stroke-width="0.7" stroke-linecap="round" stroke-linejoin="round"/>
  <path d="M160.345 124.464C160.345 124.642 160.292 124.815 160.194 124.962C160.095 125.109 159.955 125.224 159.792 125.292C159.628 125.36 159.448 125.378 159.274 125.343C159.1 125.309 158.94 125.223 158.815 125.098C158.69 124.973 158.605 124.813 158.57 124.639C158.535 124.465 158.553 124.285 158.621 124.121C158.689 123.958 158.804 123.818 158.951 123.719C159.098 123.621 159.272 123.568 159.449 123.568C159.686 123.568 159.914 123.663 160.082 123.831C160.25 123.999 160.345 124.227 160.345 124.464Z" fill="white" stroke="#263238" stroke-width="0.7" stroke-linecap="round" stroke-linejoin="round"/>
  <path d="M159.487 125.36C159.487 125.538 159.435 125.711 159.336 125.858C159.238 126.005 159.098 126.12 158.934 126.188C158.77 126.256 158.59 126.274 158.417 126.239C158.243 126.205 158.083 126.119 157.958 125.994C157.832 125.869 157.747 125.709 157.713 125.535C157.678 125.361 157.696 125.181 157.764 125.017C157.831 124.854 157.946 124.714 158.094 124.615C158.241 124.517 158.414 124.464 158.591 124.464C158.829 124.464 159.057 124.559 159.225 124.727C159.393 124.895 159.487 125.123 159.487 125.36Z" fill="white" stroke="#263238" stroke-width="0.7" stroke-linecap="round" stroke-linejoin="round"/>
  <path d="M157.616 127.26C158.116 127.26 158.521 126.854 158.521 126.355C158.521 125.855 158.116 125.45 157.616 125.45C157.116 125.45 156.711 125.855 156.711 126.355C156.711 126.854 157.116 127.26 157.616 127.26Z" fill="white" stroke="#263238" stroke-width="0.7" stroke-linecap="round" stroke-linejoin="round"/>
  <path d="M157.444 127.332C157.444 127.509 157.392 127.682 157.293 127.829C157.195 127.977 157.055 128.092 156.891 128.159C156.727 128.227 156.547 128.245 156.374 128.21C156.2 128.176 156.04 128.09 155.915 127.965C155.789 127.84 155.704 127.68 155.67 127.506C155.635 127.333 155.653 127.152 155.721 126.989C155.788 126.825 155.903 126.685 156.051 126.587C156.198 126.488 156.371 126.436 156.548 126.436C156.786 126.436 157.014 126.53 157.182 126.698C157.35 126.866 157.444 127.094 157.444 127.332Z" fill="white" stroke="#263238" stroke-width="0.7" stroke-linecap="round" stroke-linejoin="round"/>
  <path d="M156.312 128.259C156.312 128.436 156.259 128.609 156.161 128.757C156.062 128.904 155.922 129.019 155.758 129.087C155.595 129.154 155.415 129.172 155.241 129.138C155.067 129.103 154.907 129.018 154.782 128.892C154.657 128.767 154.571 128.607 154.537 128.434C154.502 128.26 154.52 128.08 154.588 127.916C154.656 127.752 154.77 127.612 154.918 127.514C155.065 127.415 155.238 127.363 155.416 127.363C155.653 127.363 155.881 127.457 156.049 127.625C156.217 127.793 156.312 128.021 156.312 128.259Z" fill="white" stroke="#263238" stroke-width="0.7" stroke-linecap="round" stroke-linejoin="round"/>
  <path d="M154.071 130.244C154.571 130.244 154.976 129.838 154.976 129.339C154.976 128.839 154.571 128.434 154.071 128.434C153.571 128.434 153.166 128.839 153.166 129.339C153.166 129.838 153.571 130.244 154.071 130.244Z" fill="white" stroke="#263238" stroke-width="0.7" stroke-linecap="round" stroke-linejoin="round"/>
  <path d="M153.897 130.181C153.897 130.358 153.845 130.531 153.746 130.678C153.648 130.826 153.508 130.941 153.344 131.008C153.181 131.076 153 131.094 152.827 131.059C152.653 131.025 152.493 130.94 152.368 130.814C152.243 130.689 152.157 130.529 152.123 130.355C152.088 130.182 152.106 130.001 152.174 129.838C152.241 129.674 152.356 129.534 152.504 129.436C152.651 129.337 152.824 129.285 153.001 129.285C153.239 129.285 153.467 129.379 153.635 129.547C153.803 129.715 153.897 129.943 153.897 130.181Z" fill="white" stroke="#263238" stroke-width="0.7" stroke-linecap="round" stroke-linejoin="round"/>
  <path d="M152.612 131.395C152.612 131.572 152.56 131.745 152.461 131.892C152.363 132.04 152.223 132.155 152.059 132.222C151.895 132.29 151.715 132.308 151.542 132.273C151.368 132.239 151.208 132.153 151.083 132.028C150.957 131.903 150.872 131.743 150.838 131.569C150.803 131.396 150.821 131.215 150.889 131.052C150.956 130.888 151.071 130.748 151.219 130.65C151.366 130.551 151.539 130.499 151.716 130.499C151.954 130.499 152.182 130.593 152.35 130.761C152.518 130.929 152.612 131.157 152.612 131.395Z" fill="white" stroke="#263238" stroke-width="0.7" stroke-linecap="round" stroke-linejoin="round"/>
  <path d="M151.294 132.166C151.294 132.343 151.241 132.516 151.143 132.663C151.044 132.811 150.905 132.926 150.741 132.993C150.577 133.061 150.397 133.079 150.223 133.044C150.049 133.01 149.89 132.924 149.764 132.799C149.639 132.674 149.554 132.514 149.519 132.34C149.485 132.167 149.502 131.986 149.57 131.823C149.638 131.659 149.753 131.519 149.9 131.421C150.047 131.322 150.221 131.27 150.398 131.27C150.636 131.27 150.863 131.364 151.032 131.532C151.2 131.7 151.294 131.928 151.294 132.166Z" fill="white" stroke="#263238" stroke-width="0.7" stroke-linecap="round" stroke-linejoin="round"/>
  <path d="M149.856 132.976C149.856 133.153 149.804 133.327 149.705 133.474C149.607 133.621 149.467 133.736 149.303 133.804C149.14 133.872 148.959 133.889 148.786 133.855C148.612 133.82 148.452 133.735 148.327 133.61C148.202 133.484 148.116 133.325 148.082 133.151C148.047 132.977 148.065 132.797 148.133 132.633C148.2 132.469 148.315 132.33 148.463 132.231C148.61 132.133 148.783 132.08 148.96 132.08C149.198 132.08 149.426 132.174 149.594 132.343C149.762 132.511 149.856 132.738 149.856 132.976Z" fill="white" stroke="#263238" stroke-width="0.7" stroke-linecap="round" stroke-linejoin="round"/>
  <path d="M143.669 129.84C143.669 130.018 143.616 130.191 143.518 130.338C143.419 130.485 143.28 130.6 143.116 130.668C142.952 130.736 142.772 130.754 142.598 130.719C142.424 130.685 142.265 130.599 142.139 130.474C142.014 130.349 141.929 130.189 141.894 130.015C141.86 129.841 141.877 129.661 141.945 129.497C142.013 129.334 142.128 129.194 142.275 129.095C142.423 128.997 142.596 128.944 142.773 128.944C143.011 128.944 143.238 129.039 143.407 129.207C143.575 129.375 143.669 129.603 143.669 129.84Z" fill="white" stroke="#263238" stroke-width="0.7" stroke-linecap="round" stroke-linejoin="round"/>
  <path d="M142.917 132.246C143.416 132.246 143.822 131.841 143.822 131.341C143.822 130.841 143.416 130.436 142.917 130.436C142.417 130.436 142.012 130.841 142.012 131.341C142.012 131.841 142.417 132.246 142.917 132.246Z" fill="white" stroke="#263238" stroke-width="0.7" stroke-linecap="round" stroke-linejoin="round"/>
  <path d="M144.157 132.774C144.157 132.952 144.105 133.125 144.006 133.272C143.908 133.42 143.768 133.534 143.604 133.602C143.44 133.67 143.26 133.688 143.086 133.653C142.913 133.619 142.753 133.533 142.628 133.408C142.502 133.283 142.417 133.123 142.382 132.949C142.348 132.775 142.366 132.595 142.433 132.432C142.501 132.268 142.616 132.128 142.763 132.029C142.911 131.931 143.084 131.878 143.261 131.878C143.499 131.878 143.727 131.973 143.895 132.141C144.063 132.309 144.157 132.537 144.157 132.774Z" fill="white" stroke="#263238" stroke-width="0.7" stroke-linecap="round" stroke-linejoin="round"/>
  <path d="M144.409 134.611C144.909 134.611 145.314 134.206 145.314 133.706C145.314 133.206 144.909 132.801 144.409 132.801C143.909 132.801 143.504 133.206 143.504 133.706C143.504 134.206 143.909 134.611 144.409 134.611Z" fill="white" stroke="#263238" stroke-width="0.7" stroke-linecap="round" stroke-linejoin="round"/>
  <path d="M148.347 133.554C148.347 133.731 148.294 133.905 148.196 134.052C148.097 134.199 147.957 134.314 147.794 134.382C147.63 134.45 147.45 134.468 147.276 134.433C147.102 134.398 146.942 134.313 146.817 134.188C146.692 134.062 146.606 133.903 146.572 133.729C146.537 133.555 146.555 133.375 146.623 133.211C146.691 133.048 146.806 132.908 146.953 132.809C147.1 132.711 147.273 132.658 147.451 132.658C147.688 132.658 147.916 132.753 148.084 132.921C148.252 133.089 148.347 133.317 148.347 133.554Z" fill="white" stroke="#263238" stroke-width="0.7" stroke-linecap="round" stroke-linejoin="round"/>
  <path d="M146.944 134.016C146.944 134.193 146.892 134.366 146.793 134.513C146.695 134.661 146.555 134.776 146.391 134.843C146.228 134.911 146.047 134.929 145.874 134.894C145.7 134.86 145.54 134.775 145.415 134.649C145.289 134.524 145.204 134.364 145.17 134.19C145.135 134.017 145.153 133.836 145.221 133.673C145.288 133.509 145.403 133.369 145.551 133.271C145.698 133.172 145.871 133.12 146.048 133.12C146.286 133.12 146.514 133.214 146.682 133.382C146.85 133.55 146.944 133.778 146.944 134.016Z" fill="white" stroke="#263238" stroke-width="0.7" stroke-linecap="round" stroke-linejoin="round"/>
  <path d="M160.343 124.464C160.343 124.464 156.221 138.11 153.807 144.36C151.392 150.61 145.003 164.381 145.003 164.381C145.003 164.381 139.041 156.147 138.046 146.062C137.051 135.978 141.204 126.709 141.204 126.709C141.204 126.709 130.246 130.477 127.549 131.471C124.852 132.466 121.784 133.895 120.65 136.592C119.517 139.289 106.843 175.07 106.274 176.491C105.705 177.911 104.571 178.054 106.135 180.469C107.698 182.884 115.22 183.022 116.641 181.746C118.061 180.469 126.259 168.368 126.259 168.368L129.243 174.192L130.52 191.799L130.237 194.782H168.447L167.999 184.416C167.999 184.416 182.21 148.638 183.348 142.532C184.486 136.426 182.779 133.16 180.212 131.332C177.645 129.504 160.343 124.464 160.343 124.464Z" fill="#108E66" stroke="#263238" stroke-width="0.7" stroke-linecap="round" stroke-linejoin="round"/>
  <path d="M136.12 135.261C135.8 135.173 135.458 135.21 135.165 135.366C134.872 135.522 134.649 135.784 134.543 136.099C134.126 137.255 133.808 138.308 133.808 138.308C133.808 138.308 132.339 140.413 132.016 141.444C131.694 142.474 130.861 150.905 130.65 151.645C130.439 152.384 129.705 156.165 129.705 156.165L128.549 157.957L131.595 163.212C131.595 163.212 133.28 163.109 134.857 160.69C136.434 158.27 136.434 158.481 136.747 155.435C137.061 152.388 137.379 135.772 137.379 135.772C137.379 135.772 136.752 135.051 136.12 135.261Z" fill="white" stroke="#263238" stroke-width="0.7" stroke-linecap="round" stroke-linejoin="round"/>
  <path d="M142.325 161.648C142.325 161.648 142.011 159.439 142.536 158.705C143.06 157.97 144.113 157.862 144.328 155.448C144.543 153.033 143.803 150.712 144.225 148.087C144.646 145.462 145.802 145.981 145.694 144.826C145.586 143.67 143.902 143.459 143.382 144.301C142.863 145.144 142.33 146.192 142.33 146.192C142.33 146.192 141.908 139.472 141.698 137.254C141.487 135.037 140.018 134.419 140.018 134.419C140.018 134.419 139.386 132.627 138.544 133.052C137.702 133.478 137.599 133.997 137.599 133.997C137.012 134.292 136.506 134.726 136.125 135.261C135.863 135.855 135.756 136.505 135.811 137.151C135.189 137.728 134.719 138.45 134.445 139.253C134.131 140.413 132.868 147.876 132.76 150.82C132.653 153.763 132.76 158.915 133.289 159.861C133.818 160.806 135.179 162.804 135.179 162.804L136.022 165.331C136.022 165.331 140.013 162.069 142.325 161.648Z" fill="white" stroke="#263238" stroke-width="0.7" stroke-linecap="round" stroke-linejoin="round"/>
  <path d="M135.808 137.151C135.808 137.151 136.439 137.465 136.332 138.943C136.224 140.422 135.494 147.146 135.494 147.146" fill="white"/>
  <path d="M135.808 137.151C135.808 137.151 136.439 137.465 136.332 138.943C136.224 140.422 135.494 147.146 135.494 147.146" stroke="#263238" stroke-width="0.7" stroke-linecap="round" stroke-linejoin="round"/>
  <path d="M137.594 133.998C137.594 133.998 138.432 133.505 138.221 135.342C138.01 137.178 138.015 146.313 138.015 146.313" fill="white"/>
  <path d="M137.594 133.998C137.594 133.998 138.432 133.505 138.221 135.342C138.01 137.178 138.015 146.313 138.015 146.313" stroke="#263238" stroke-width="0.7" stroke-linecap="round" stroke-linejoin="round"/>
  <path d="M140.014 134.419C140.014 134.419 140.435 142.931 140.224 145.355L140.014 134.419Z" fill="white"/>
  <path d="M140.014 134.419C140.014 134.419 140.435 142.931 140.224 145.355" stroke="#263238" stroke-width="0.7" stroke-linecap="round" stroke-linejoin="round"/>
  <path d="M142.326 146.192C142.326 146.192 142.837 149.284 143.043 150.018L142.326 146.192Z" fill="white"/>
  <path d="M142.326 146.192C142.326 146.192 142.837 149.284 143.043 150.018" stroke="#263238" stroke-width="0.7" stroke-linecap="round" stroke-linejoin="round"/>
  <path d="M128.823 156.622L133.365 162.764C133.365 162.764 123.59 177.646 122.062 180.074C120.535 182.503 115.589 188.183 112.802 188.9C110.015 189.617 108.488 188.9 106.978 186.745C105.468 184.59 103.201 180.921 104.192 178.471C105.182 176.02 112.641 169.013 114.979 167.754C117.318 166.496 128.823 156.622 128.823 156.622Z" fill="#108E66" stroke="#263238" stroke-width="0.7" stroke-linecap="round" stroke-linejoin="round"/>
  <path d="M177.121 130.978C177.121 130.978 179.361 131.157 180.23 131.292C181.099 131.426 182.699 133.585 183.326 134.934C183.953 136.282 183.958 141.407 183.684 144.284C183.411 147.16 177.493 168.668 176.234 175.321C174.975 181.974 170.652 191.897 169.846 193.057C169.039 194.218 167.507 195.297 165.979 195.212C164.452 195.127 154.972 188.524 151.464 185.11C147.956 181.696 134.557 164.054 134.557 164.054C134.557 164.054 136.268 161.366 137.796 160.47C139.323 159.574 142.562 159.032 142.562 159.032C142.562 159.032 148.494 164.157 153.081 167.92C155.941 170.261 158.982 172.37 162.176 174.228C162.176 174.228 164.156 162.768 164.416 161.42C164.676 160.071 166.813 148.477 166.813 148.477" fill="#108E66"/>
  <path d="M177.121 130.978C177.121 130.978 179.361 131.157 180.23 131.292C181.099 131.426 182.699 133.585 183.326 134.934C183.953 136.282 183.958 141.407 183.684 144.284C183.411 147.16 177.493 168.668 176.234 175.321C174.975 181.974 170.652 191.897 169.846 193.057C169.039 194.218 167.507 195.297 165.979 195.212C164.452 195.127 154.972 188.524 151.464 185.11C147.956 181.696 134.557 164.054 134.557 164.054C134.557 164.054 136.268 161.366 137.796 160.47C139.323 159.574 142.562 159.032 142.562 159.032C142.562 159.032 148.494 164.157 153.081 167.92C155.941 170.261 158.982 172.37 162.176 174.228C162.176 174.228 164.156 162.768 164.416 161.42C164.676 160.071 166.813 148.477 166.813 148.477" stroke="#263238" stroke-width="0.7" stroke-linecap="round" stroke-linejoin="round"/>
  <path d="M162.176 174.228C162.176 174.228 165.415 175.487 166.208 180.254" stroke="#263238" stroke-width="0.7" stroke-linecap="round" stroke-linejoin="round"/>
  <path d="M162.342 175.397C162.342 175.397 164.232 176.741 163.784 179.712" stroke="#263238" stroke-width="0.7" stroke-linecap="round" stroke-linejoin="round"/>
  <path d="M124.038 160.201C123.578 158.044 123.734 155.801 124.486 153.728C125.745 150.309 128.518 140.776 128.518 140.776" stroke="#263238" stroke-width="0.7" stroke-linecap="round" stroke-linejoin="round"/>
  <g opacity="0.3">
    <path d="M196.112 80.8604C203.728 85.7302 199.777 89.6771 194.907 82.0656C190.042 89.6816 186.095 85.7302 193.707 80.8604C186.091 75.9952 190.042 72.0483 194.907 79.6598C199.777 72.0483 203.719 75.9952 196.112 80.8604Z" stroke="black" stroke-width="0.7" stroke-miterlimit="10"/>
    <path d="M195.776 80.0137C204.597 78.0739 204.597 83.6515 195.776 81.7117C197.716 90.5373 192.138 90.5373 194.078 81.7117C185.253 83.6515 185.253 78.0739 194.078 80.0137C192.12 71.1881 197.698 71.1881 195.776 80.0137Z" stroke="black" stroke-width="0.7" stroke-miterlimit="10"/>
  </g>
  <g opacity="0.3">
    <path d="M135.933 57.7124C140.973 60.9335 138.357 63.5364 135.136 58.5098C131.915 63.5498 129.312 60.9335 134.338 57.7124C129.298 54.4913 131.915 51.8884 135.136 56.915C138.357 51.8884 140.973 54.4958 135.933 57.7124Z" stroke="black" stroke-width="0.7" stroke-miterlimit="10"/>
    <path d="M135.135 58.5143C135.576 58.5143 135.933 58.1573 135.933 57.7169C135.933 57.2765 135.576 56.9194 135.135 56.9194C134.695 56.9194 134.338 57.2765 134.338 57.7169C134.338 58.1573 134.695 58.5143 135.135 58.5143Z" stroke="black" stroke-width="0.7" stroke-miterlimit="10"/>
  </g>
  <g opacity="0.3">
    <path d="M106.981 145.803C107.421 145.803 107.778 145.446 107.778 145.005C107.778 144.565 107.421 144.208 106.981 144.208C106.541 144.208 106.184 144.565 106.184 145.005C106.184 145.446 106.541 145.803 106.981 145.803Z" stroke="black" stroke-width="0.7" stroke-miterlimit="10"/>
    <path d="M107.546 144.445C113.37 143.16 113.37 146.856 107.546 145.57C108.832 151.394 105.136 151.394 106.422 145.57C100.576 146.856 100.576 143.16 106.422 144.445C105.136 138.603 108.832 138.603 107.546 144.445Z" stroke="black" stroke-width="0.7" stroke-miterlimit="10"/>
  </g>
  <g opacity="0.3">
    <path d="M181.669 115.608C182.109 115.608 182.466 115.251 182.466 114.81C182.466 114.37 182.109 114.013 181.669 114.013C181.228 114.013 180.871 114.37 180.871 114.81C180.871 115.251 181.228 115.608 181.669 115.608Z" stroke="black" stroke-width="0.7" stroke-miterlimit="10"/>
    <path d="M181.669 115.608C182.109 115.608 182.466 115.251 182.466 114.81C182.466 114.37 182.109 114.013 181.669 114.013C181.228 114.013 180.871 114.37 180.871 114.81C180.871 115.251 181.228 115.608 181.669 115.608Z" stroke="black" stroke-width="0.7" stroke-miterlimit="10"/>
  </g>
  <g opacity="0.3">
    <path d="M106.678 82.2628C114.773 87.4417 110.576 91.635 105.397 83.5396C100.218 91.635 96.02 87.4417 104.12 82.2628C96.02 77.0839 100.218 72.8862 105.397 80.9815C110.576 72.8862 114.773 77.0839 106.678 82.2628Z" stroke="black" stroke-width="0.7" stroke-miterlimit="10"/>
    <path d="M105.396 83.5394C106.101 83.5394 106.673 82.9678 106.673 82.2626C106.673 81.5575 106.101 80.9858 105.396 80.9858C104.691 80.9858 104.119 81.5575 104.119 82.2626C104.119 82.9678 104.691 83.5394 105.396 83.5394Z" stroke="black" stroke-width="0.7" stroke-miterlimit="10"/>
  </g>
  <g opacity="0.3">
    <path d="M199.535 53.4367C202.694 41.9214 195.92 30.0257 184.405 26.8669C172.889 23.708 160.994 30.4822 157.835 41.9974C154.676 53.5127 161.45 65.4084 172.965 68.5673C184.481 71.7261 196.376 64.9519 199.535 53.4367Z" stroke="black" stroke-width="0.7" stroke-linecap="round" stroke-linejoin="round"/>
    <path d="M185.786 65.3736C195.54 61.4523 200.269 50.3661 196.348 40.6117C192.426 30.8573 181.34 26.1287 171.586 30.0499C161.831 33.9711 157.103 45.0574 161.024 54.8117C164.945 64.5661 176.031 69.2948 185.786 65.3736Z" stroke="black" stroke-width="0.7" stroke-linecap="round" stroke-linejoin="round"/>
    <path d="M180.012 47.7175C180.012 47.9834 179.933 48.2432 179.786 48.4642C179.638 48.6852 179.428 48.8575 179.183 48.9592C178.937 49.061 178.667 49.0876 178.406 49.0357C178.145 48.9839 177.906 48.8558 177.718 48.6679C177.53 48.4799 177.402 48.2404 177.35 47.9797C177.298 47.719 177.325 47.4488 177.427 47.2032C177.528 46.9576 177.701 46.7477 177.922 46.6C178.143 46.4524 178.402 46.3735 178.668 46.3735C179.025 46.3735 179.367 46.5151 179.619 46.7672C179.871 47.0192 180.012 47.3611 180.012 47.7175Z" stroke="black" stroke-width="0.7" stroke-linecap="round" stroke-linejoin="round"/>
    <path d="M180.098 47.3233L184.703 45.8853" stroke="black" stroke-width="0.7" stroke-linecap="round" stroke-linejoin="round"/>
    <path d="M178.686 49.0435V62.8687" stroke="black" stroke-width="0.7" stroke-linecap="round" stroke-linejoin="round"/>
  </g>
  <path d="M197.084 184.003C197.084 184.003 199.49 182.735 200.668 183.645C201.846 184.554 202.679 186.996 202.679 189.205C202.679 191.413 201.783 193.622 200.211 194.666C198.638 195.709 195.789 194.925 195.789 194.925L195.919 192.712C195.919 192.712 198.132 193.608 199.431 191.933C200.731 190.257 199.951 187.005 199.171 186.216C198.392 185.428 196.573 187.256 196.573 187.256L197.084 184.003Z" fill="white" stroke="#263238" stroke-width="0.7" stroke-linecap="round" stroke-linejoin="round"/>
  <path d="M198.218 180.253H181.342L183.031 201.112H196.533L198.218 180.253Z" fill="white" stroke="#263238" stroke-width="0.7" stroke-linecap="round" stroke-linejoin="round"/>
  <path d="M185.423 165.64C185.423 168.906 183.631 168.906 183.631 172.171C183.631 175.437 185.423 175.442 185.423 178.708" stroke="#263238" stroke-width="0.7" stroke-linecap="round" stroke-linejoin="round"/>
  <path d="M188.883 169.515C188.479 170.341 188.282 171.252 188.309 172.171C188.309 175.442 190.101 175.442 190.101 178.708" stroke="#263238" stroke-width="0.7" stroke-linecap="round" stroke-linejoin="round"/>
  <path d="M190.1 165.64C190.121 166.426 189.981 167.208 189.688 167.938" stroke="#263238" stroke-width="0.7" stroke-linecap="round" stroke-linejoin="round"/>
  <path d="M193.42 174.523C193.953 175.778 194.764 176.486 194.764 178.708" stroke="#263238" stroke-width="0.7" stroke-linecap="round" stroke-linejoin="round"/>
  <path d="M194.782 165.64C194.782 168.906 192.99 168.906 192.99 172.171" stroke="#263238" stroke-width="0.7" stroke-linecap="round" stroke-linejoin="round"/>
</svg>