<svg width="224" height="225" viewBox="0 0 224 225" fill="none" xmlns="http://www.w3.org/2000/svg">
<g id="Service 24_7-bro 1">
<g id="freepik--background-simple--inject-282">
<path id="Vector" d="M202.943 111.221C200.813 129.415 192.572 150.56 176.111 160.277C151.244 174.958 153.342 197.542 104.787 207.344C97.7084 208.812 90.4927 209.498 83.2671 209.392C79.7316 209.33 76.2037 209.04 72.7051 208.522C41.8549 203.998 21.0955 182.386 13.4808 156.299C3.45668 121.991 23.4693 99.5285 36.734 85.9989C49.9987 72.4693 59.716 30.299 107.356 20.2683C114.624 18.7099 122.046 18.0004 129.476 18.1537C146.425 18.5704 164.913 24.1793 177.707 35.8901C178.667 36.7861 179.601 37.6821 180.512 38.6184C198.293 57.0133 205.85 86.4245 202.943 111.221Z" fill="#108E66"/>
<path id="Vector_2" opacity="0.7" d="M202.943 111.221C200.813 129.415 192.572 150.56 176.111 160.277C151.244 174.958 153.342 197.542 104.787 207.344C97.7084 208.812 90.4927 209.498 83.2671 209.392C79.7316 209.33 76.2037 209.04 72.7051 208.522C41.8549 203.998 21.0955 182.386 13.4808 156.299C3.45668 121.991 23.4693 99.5285 36.734 85.9989C49.9987 72.4693 59.716 30.299 107.356 20.2683C114.624 18.7099 122.046 18.0004 129.476 18.1537C146.425 18.5704 164.913 24.1793 177.707 35.8901C178.667 36.7861 179.601 37.6821 180.512 38.6184C198.293 57.0133 205.85 86.4245 202.943 111.221Z" fill="white"/>
</g>
<g id="freepik--Plant--inject-282">
<path id="Vector_3" d="M188.91 189.693V139.136" stroke="#263238" stroke-width="0.7" stroke-linecap="round" stroke-linejoin="round"/>
<path id="Vector_4" d="M184.842 189.693V164.623" stroke="#263238" stroke-width="0.7" stroke-linecap="round" stroke-linejoin="round"/>
<path id="Vector_5" d="M190.181 147.424C190.181 147.424 186.083 146.954 184.402 143.684C182.722 140.413 182.562 131.977 188.945 122.628C195.329 113.278 198.676 113.179 199.787 120.809C200.899 128.438 200.739 139.517 198.125 143.715C195.511 147.913 190.181 147.424 190.181 147.424Z" fill="white" stroke="#263238" stroke-width="0.7" stroke-linecap="round" stroke-linejoin="round"/>
<path id="Vector_6" d="M191.635 129.813C192.39 127.215 193.293 124.885 194.342 123.291" stroke="#263238" stroke-width="0.7" stroke-linecap="round" stroke-linejoin="round"/>
<path id="Vector_7" d="M188.461 146.865C189.023 141.723 189.914 136.623 191.128 131.597" stroke="#263238" stroke-width="0.7" stroke-linecap="round" stroke-linejoin="round"/>
<path id="Vector_8" d="M192.622 163.835C192.622 163.835 189.99 161.778 190.204 158.821C190.417 155.865 193.795 149.973 202.068 146.237C210.341 142.501 212.701 143.827 210.301 149.552C207.9 155.278 203.188 162.853 199.632 164.645C196.076 166.437 192.622 163.835 192.622 163.835Z" fill="white" stroke="#263238" stroke-width="0.7" stroke-linecap="round" stroke-linejoin="round"/>
<path id="Vector_9" d="M200.938 152.303C202.538 150.834 204.129 149.615 205.512 148.952" stroke="#263238" stroke-width="0.7" stroke-linecap="round" stroke-linejoin="round"/>
<path id="Vector_10" d="M199.877 153.315C196.949 156.27 194.214 159.413 191.689 162.723C191.689 162.723 189.568 165.6 188.941 171.312" stroke="#263238" stroke-width="0.7" stroke-linecap="round" stroke-linejoin="round"/>
<path id="Vector_11" d="M191.128 180.912C191.128 180.912 189.603 179.721 189.728 178.009C189.852 176.298 191.808 172.884 196.605 170.716C201.401 168.547 202.761 169.323 201.37 172.642C199.979 175.962 197.249 180.348 195.196 181.383C193.142 182.418 191.128 180.912 191.128 180.912Z" fill="white" stroke="#263238" stroke-width="0.7" stroke-linecap="round" stroke-linejoin="round"/>
<path id="Vector_12" d="M195.934 174.25C196.726 173.479 197.624 172.826 198.601 172.311" stroke="#263238" stroke-width="0.7" stroke-linecap="round" stroke-linejoin="round"/>
<path id="Vector_13" d="M195.319 174.837C193.624 176.547 192.039 178.365 190.576 180.281C190.576 180.281 189.345 181.947 188.98 185.258" stroke="#263238" stroke-width="0.7" stroke-linecap="round" stroke-linejoin="round"/>
<path id="Vector_14" d="M185.193 156.998C185.193 156.998 187.82 154.942 187.611 151.985C187.403 149.028 184.02 143.137 175.743 139.401C167.466 135.664 165.114 136.99 167.514 142.716C169.915 148.441 174.627 156.017 178.183 157.809C181.739 159.601 185.193 156.998 185.193 156.998Z" fill="white" stroke="#263238" stroke-width="0.7" stroke-linecap="round" stroke-linejoin="round"/>
<path id="Vector_15" d="M176.875 145.467C175.513 144.139 173.972 143.01 172.297 142.116" stroke="#263238" stroke-width="0.7" stroke-linecap="round" stroke-linejoin="round"/>
<path id="Vector_16" d="M177.939 146.479C180.865 149.434 183.599 152.577 186.123 155.887C186.123 155.887 188.244 158.763 188.875 164.475" stroke="#263238" stroke-width="0.7" stroke-linecap="round" stroke-linejoin="round"/>
<path id="Vector_17" d="M183.9 179.833C183.9 179.833 186.567 179.918 187.901 178.301C189.234 176.683 190.034 172.167 186.7 166.653C183.366 161.138 181.237 160.752 179.904 164.784C178.57 168.816 177.792 174.726 179.126 177.194C180.459 179.662 183.9 179.833 183.9 179.833Z" fill="white" stroke="#263238" stroke-width="0.7" stroke-linecap="round" stroke-linejoin="round"/>
<path id="Vector_18" d="M184.318 175.72C184.358 176.271 184.385 176.822 184.398 177.369" stroke="#263238" stroke-width="0.7" stroke-linecap="round" stroke-linejoin="round"/>
<path id="Vector_19" d="M182.273 164.52C183.18 167.767 183.825 171.083 184.203 174.434" stroke="#263238" stroke-width="0.7" stroke-linecap="round" stroke-linejoin="round"/>
</g>
<g id="freepik--Window--inject-282">
<path id="Vector_20" d="M11.9336 147.178H73.4606V20.6177" stroke="#263238" stroke-width="0.7" stroke-linecap="round" stroke-linejoin="round"/>
<path id="Vector_21" d="M138.754 147.178H77.2266V20.6177" stroke="#263238" stroke-width="0.7" stroke-linecap="round" stroke-linejoin="round"/>
<path id="Vector_22" d="M102.338 147.178H163.865V20.6177" stroke="#263238" stroke-width="0.7" stroke-linecap="round" stroke-linejoin="round"/>
<path id="Vector_23" d="M151.311 50.3335L129.805 74.2836" stroke="#263238" stroke-width="0.7" stroke-linecap="round" stroke-linejoin="round"/>
<path id="Vector_24" d="M139.38 68.8628L133.414 75.5066" stroke="#263238" stroke-width="0.7" stroke-linecap="round" stroke-linejoin="round"/>
<path id="Vector_25" d="M91.9788 44.0435L80.3633 56.9772" stroke="#263238" stroke-width="0.7" stroke-linecap="round" stroke-linejoin="round"/>
<path id="Vector_26" d="M95.1172 40.8943L102.968 32.1538" stroke="#263238" stroke-width="0.7" stroke-linecap="round" stroke-linejoin="round"/>
<path id="Vector_27" d="M70.9488 120.956L63.4141 129.347" stroke="#263238" stroke-width="0.7" stroke-linecap="round" stroke-linejoin="round"/>
<path id="Vector_28" d="M68.4383 109.77L54.4668 125.329" stroke="#263238" stroke-width="0.7" stroke-linecap="round" stroke-linejoin="round"/>
</g>
<g id="freepik--Clock--inject-282">
<path id="Vector_29" d="M210.154 60.7963C214.719 49.286 209.162 36.2249 197.741 31.6235C186.32 27.0221 173.36 32.6228 168.794 44.133C164.229 55.6432 169.786 68.7043 181.207 73.3058C192.628 77.9072 205.588 72.3065 210.154 60.7963Z" stroke="#263238" stroke-width="0.7" stroke-linecap="round" stroke-linejoin="round"/>
<path id="Vector_30" d="M189.482 72.0615C200.218 72.0615 208.921 63.2903 208.921 52.4704C208.921 41.6506 200.218 32.8794 189.482 32.8794C178.746 32.8794 170.043 41.6506 170.043 52.4704C170.043 63.2903 178.746 72.0615 189.482 72.0615Z" stroke="#263238" stroke-width="0.7" stroke-linecap="round" stroke-linejoin="round"/>
<path id="Vector_31" d="M189.481 53.8099C190.216 53.8099 190.811 53.2102 190.811 52.4704C190.811 51.7306 190.216 51.1309 189.481 51.1309C188.747 51.1309 188.152 51.7306 188.152 52.4704C188.152 53.2102 188.747 53.8099 189.481 53.8099Z" stroke="#263238" stroke-width="0.7" stroke-linecap="round" stroke-linejoin="round"/>
<path id="Vector_32" d="M189.482 53.8101V60.3912" stroke="#263238" stroke-width="0.7" stroke-linecap="round" stroke-linejoin="round"/>
<path id="Vector_33" d="M188.153 52.4707H172.301" stroke="#263238" stroke-width="0.7" stroke-linecap="round" stroke-linejoin="round"/>
</g>
<g id="freepik--Character--inject-282">
<path id="Vector_34" d="M147.866 143.804H171.679C171.679 143.804 158.788 175.751 161.219 190.02H137.086C137.086 190.02 141.589 153.535 147.866 143.804Z" fill="#263238" stroke="#263238" stroke-width="0.7" stroke-linecap="round" stroke-linejoin="round"/>
<path id="Vector_35" d="M127.262 97.9469C127.262 97.9469 127.497 102.27 135.485 104.792C143.473 107.315 151.582 104.792 156.111 108.376C160.641 111.96 160.521 117.507 158.97 120.271C157.418 123.035 154.916 125.795 162.308 129.038C169.701 132.282 165.286 141.775 162.188 145.26C159.09 148.746 153.742 150.426 147.763 149.225C141.784 148.024 134.77 133.487 127.142 125.795C119.513 118.102 118.58 103.914 123.448 99.8465C128.315 95.7786 127.262 97.9469 127.262 97.9469Z" fill="#263238" stroke="#263238" stroke-width="0.7" stroke-linecap="round" stroke-linejoin="round"/>
<path id="Vector_36" d="M126.035 82.397C126.035 82.397 129.325 80.9499 130.169 83.741C131.014 86.532 131.263 94.2018 131.263 94.2018L129.485 93.7762C129.485 93.7762 129.907 85.1029 127.964 83.741C126.022 82.379 124.506 85.4434 124.506 85.4434L126.035 82.397Z" fill="#A6A6A6" stroke="#263238" stroke-width="0.7" stroke-linecap="round" stroke-linejoin="round"/>
<path id="Vector_37" d="M89.1074 175.706L100.345 169.649C100.345 169.649 99.5671 157.764 99.6783 157.316C99.7894 156.868 102.603 133.612 102.603 133.612L94.8952 156.644L89.1074 175.706Z" fill="#263238" stroke="#263238" stroke-width="0.7" stroke-linecap="round" stroke-linejoin="round"/>
<path id="Vector_38" d="M138.787 121.668C138.787 121.668 149.9 127.77 151.394 128.388C152.887 129.007 152.007 136.788 152.007 141.873C152.007 146.958 144.45 189.899 144.45 189.899H88.4844C88.4844 189.899 97.9395 175.29 98.1928 171.477C98.4462 167.665 96.8059 164.614 96.5525 160.931C96.2992 157.249 101.722 134.755 102.603 133.603C103.483 132.452 107.27 129.54 107.27 129.54L120.633 117.744L126.812 116.346L138.787 121.668Z" fill="#108E66" stroke="#263238" stroke-width="0.7" stroke-linecap="round" stroke-linejoin="round"/>
<path id="Vector_39" d="M101.697 175.608L99.8301 179.479" stroke="#263238" stroke-width="0.7" stroke-linecap="round" stroke-linejoin="round"/>
<path id="Vector_40" d="M103.488 164.488C103.488 164.488 100.714 166.392 102.101 167.409C103.488 168.426 104.119 170.586 104.119 170.586L102.341 174.075" stroke="#263238" stroke-width="0.7" stroke-linecap="round" stroke-linejoin="round"/>
<path id="Vector_41" d="M116.553 173.744C117.304 173.802 118.095 173.847 118.922 173.869" stroke="#263238" stroke-width="0.7" stroke-linecap="round" stroke-linejoin="round"/>
<path id="Vector_42" d="M104.617 170.608C104.617 170.608 107.636 172.642 114.21 173.511" stroke="#263238" stroke-width="0.7" stroke-linecap="round" stroke-linejoin="round"/>
<path id="Vector_43" d="M97.0954 89.368C96.5639 89.6295 96.1207 90.043 95.821 90.557C95.5214 91.0709 95.3787 91.6624 95.4107 92.2576C95.4107 94.4707 97.1888 98.8029 97.1888 98.8029L98.2023 98.4669C98.2023 98.4669 96.3486 93.96 96.602 92.3427C96.6841 91.8712 96.8935 91.4315 97.2071 91.072C97.5208 90.7124 97.9266 90.4468 98.3801 90.3043L98.0423 89.1978L97.0954 89.368Z" fill="#A6A6A6" stroke="#263238" stroke-width="0.7" stroke-linecap="round" stroke-linejoin="round"/>
<path id="Vector_44" d="M101.439 100.752C101.884 102.992 101.124 105.012 99.7725 105.276C98.4211 105.541 96.9808 103.932 96.5541 101.692C96.1273 99.4525 96.8697 97.4275 98.221 97.1677C99.5724 96.9078 101.013 98.5162 101.439 100.752Z" fill="white" stroke="#263238" stroke-width="0.7" stroke-linecap="round" stroke-linejoin="round"/>
<path id="Vector_45" d="M105.541 100.03C106.381 102.888 105.398 105.706 103.345 106.302C101.291 106.898 98.9437 105.097 98.0991 102.239C97.2545 99.3806 98.2414 96.5627 100.295 95.9668C102.349 95.371 104.7 97.172 105.541 100.03Z" fill="#263238" stroke="#263238" stroke-width="0.7" stroke-linecap="round" stroke-linejoin="round"/>
<path id="Vector_46" d="M113.156 115.611L115.151 122.152L108.59 130.485L107.497 136.923C107.497 136.923 106.408 155.291 107.03 158.122C107.652 160.954 107.652 161.733 107.652 161.733C107.652 161.733 121.21 145.874 127.909 136.139C134.608 126.404 136.164 120.432 136.164 120.432L129.621 116.848L126.509 102.243L113.156 115.611Z" fill="white" stroke="#263238" stroke-width="0.7" stroke-linecap="round" stroke-linejoin="round"/>
<path id="Vector_47" d="M123.504 109.281L115.152 122.152L112.822 114.577L123.504 109.281Z" fill="#263238" stroke="#263238" stroke-width="0.7" stroke-linecap="round" stroke-linejoin="round"/>
<path id="Vector_48" d="M107.555 136.56L107.493 136.923C107.493 136.923 106.404 155.291 107.026 158.122C107.648 160.954 107.648 161.733 107.648 161.733C107.648 161.733 121.206 145.874 127.906 136.139C128.43 135.377 128.919 134.638 129.386 133.921C120.998 136.815 112.445 136.865 107.555 136.56Z" fill="white" stroke="#263238" stroke-width="0.7" stroke-linecap="round" stroke-linejoin="round"/>
<path id="Vector_49" d="M104.269 75.5112C104.269 75.5112 98.0239 79.3371 97.3482 85.1163C96.6725 90.8955 99.0374 97.1048 99.9664 99.5688C100.896 102.033 104.101 111.642 105.785 113.515C107.47 115.388 112.956 118.188 113.885 118.698C114.814 119.209 116.498 119.039 117.934 118.017C119.37 116.996 125.273 109.774 126.202 108.072C127.132 106.369 127.296 102.629 127.296 102.629C127.296 102.629 127.127 95.147 126.794 90.3042C126.46 85.4613 126.709 80.7797 122.744 76.6984C118.779 72.6171 108.15 72.532 104.269 75.5112Z" fill="white" stroke="#263238" stroke-width="0.7" stroke-linecap="round" stroke-linejoin="round"/>
<path id="Vector_50" d="M126.795 90.3042C126.457 85.4568 126.71 80.7797 122.745 76.6984C118.78 72.6171 108.151 72.532 104.271 75.5112C104.271 75.5112 98.0249 79.3371 97.3493 85.1163C96.9581 88.4763 97.5937 91.9707 98.3717 94.8021C99.8075 93.9061 104.653 90.9134 110.089 87.0741C116.584 82.4821 118.695 75.341 118.695 75.341C118.695 75.341 119.451 74.9154 119.287 75.8517C119.122 76.788 116.584 82.3118 115.659 83.163L114.73 84.0098C114.73 84.0098 115.49 83.8395 118.949 88.0059C122.407 92.1723 124.345 93.8747 125.359 94.3854C125.897 94.5815 126.463 94.6918 127.035 94.7125C126.968 93.1848 126.888 91.6437 126.795 90.3042Z" fill="#263238" stroke="#263238" stroke-width="0.7" stroke-linecap="round" stroke-linejoin="round"/>
<path id="Vector_51" d="M116.406 99.3181C116.513 99.9409 116.286 100.505 115.895 100.573C115.504 100.64 115.104 100.192 115.006 99.569C114.908 98.9463 115.126 98.3818 115.517 98.3101C115.908 98.2385 116.295 98.6954 116.406 99.3181Z" fill="#263238" stroke="#263238" stroke-width="0.7" stroke-linecap="round" stroke-linejoin="round"/>
<path id="Vector_52" d="M106.955 100.676C107.066 101.303 106.839 101.863 106.448 101.934C106.057 102.006 105.653 101.554 105.559 100.926C105.466 100.299 105.675 99.7437 106.066 99.672C106.457 99.6003 106.848 100.053 106.955 100.676Z" fill="#263238" stroke="#263238" stroke-width="0.7" stroke-linecap="round" stroke-linejoin="round"/>
<path id="Vector_53" d="M112.533 95.4877C112.533 95.4877 115.32 93.2791 117.868 95.0621" stroke="#263238" stroke-width="0.7" stroke-linecap="round" stroke-linejoin="round"/>
<path id="Vector_54" d="M106.884 96.6883C106.884 96.6883 103.595 95.071 101.314 97.9651" stroke="#263238" stroke-width="0.7" stroke-linecap="round" stroke-linejoin="round"/>
<path id="Vector_55" d="M107.475 96.7642C107.475 96.7642 109.751 97.8707 109.92 99.9942" stroke="#263238" stroke-width="0.7" stroke-linecap="round" stroke-linejoin="round"/>
<path id="Vector_56" d="M110.004 105.863C110.004 105.863 110.933 106.54 112.533 106.034" stroke="#263238" stroke-width="0.7" stroke-linecap="round" stroke-linejoin="round"/>
<path id="Vector_57" d="M109.334 109.434C111.225 109.352 113.084 108.919 114.819 108.157C117.771 106.88 118.954 105.097 118.954 105.097" stroke="#263238" stroke-width="0.7" stroke-linecap="round" stroke-linejoin="round"/>
<path id="Vector_58" d="M110.766 109.349C111.44 109.95 112.31 110.281 113.211 110.28C114.731 110.28 116.078 107.561 116.078 107.561C116.078 107.561 112.197 109.263 110.766 109.349Z" stroke="#263238" stroke-width="0.7" stroke-linecap="round" stroke-linejoin="round"/>
<path id="Vector_59" d="M128.31 103.054C130.454 103.054 132.191 100.637 132.191 97.6557C132.191 94.6743 130.454 92.2573 128.31 92.2573C126.167 92.2573 124.43 94.6743 124.43 97.6557C124.43 100.637 126.167 103.054 128.31 103.054Z" fill="#263238" stroke="#263238" stroke-width="0.7" stroke-linecap="round" stroke-linejoin="round"/>
<path id="Vector_60" d="M129.954 100.846C131.329 100.846 132.444 99.0004 132.444 96.7241C132.444 94.4478 131.329 92.6025 129.954 92.6025C128.579 92.6025 127.465 94.4478 127.465 96.7241C127.465 99.0004 128.579 100.846 129.954 100.846Z" fill="white" stroke="#263238" stroke-width="0.7" stroke-linecap="round" stroke-linejoin="round"/>
<path id="Vector_61" d="M99.7715 103.408C99.7715 103.408 99.7982 112.243 102.074 113.009C104.35 113.775 110.596 112.243 110.596 112.243" stroke="#263238" stroke-width="0.7" stroke-linecap="round" stroke-linejoin="round"/>
<path id="Vector_62" d="M113.802 112.207C113.802 112.888 112.97 113.439 111.944 113.439C110.917 113.439 110.09 112.888 110.09 112.207C110.09 111.526 110.921 110.975 111.944 110.975C112.966 110.975 113.802 111.526 113.802 112.207Z" fill="#263238" stroke="#263238" stroke-width="0.7" stroke-linecap="round" stroke-linejoin="round"/>
<path id="Vector_63" d="M114.329 122.56C114.329 122.56 111.662 127.26 109.79 141.237C107.919 155.215 109.159 158.006 109.159 158.006L106.492 159.659C106.492 159.659 100.949 159.023 102.838 145.811C104.727 132.6 105.776 130.436 105.776 130.436L114.329 122.56Z" fill="#108E66" stroke="#263238" stroke-width="0.7" stroke-linecap="round" stroke-linejoin="round"/>
<path id="Vector_64" d="M131.221 117.744C131.221 117.744 125.171 132.228 118.867 141.251C112.564 150.273 103.998 163.216 103.998 163.216C103.998 163.216 108.537 161.057 118.121 153.808C127.705 146.56 137.409 129.921 138.418 128.272C139.427 126.624 140.938 122.811 140.938 122.811L131.221 117.744Z" fill="#108E66" stroke="#263238" stroke-width="0.7" stroke-linecap="round" stroke-linejoin="round"/>
<path id="Vector_65" d="M78.8521 182.095C77.3732 183.002 75.8225 183.784 74.2157 184.433C71.3796 185.603 71.104 185.397 72.0241 186.382C72.9443 187.368 77.6963 185.603 78.9854 185.083C80.2746 184.563 82.7239 183.784 82.7239 183.784C82.7239 183.784 85.6889 185.473 87.4937 185.992C89.2985 186.512 91.4944 185.733 91.4944 185.733C91.4944 185.733 91.6233 183.654 90.0764 182.485C88.5294 181.315 85.1866 178.587 84.0175 178.717C82.8484 178.847 78.8521 182.095 78.8521 182.095Z" fill="white" stroke="#263238" stroke-width="0.7" stroke-linecap="round" stroke-linejoin="round"/>
<path id="Vector_66" d="M78.0778 178.977C78.0778 178.977 76.5308 178.587 75.4995 179.367C74.4682 180.146 73.308 182.615 73.1791 183.264C73.0502 183.914 73.308 184.304 74.3393 183.394C75.3706 182.485 77.1754 181.185 77.1754 181.185L78.7223 180.666L78.0778 178.977Z" fill="white" stroke="#263238" stroke-width="0.7" stroke-linecap="round" stroke-linejoin="round"/>
<path id="Vector_67" d="M82.0739 177.808C82.0739 177.808 78.9623 176.768 78.3355 177.678C77.7087 178.587 75.4994 183.784 76.1439 184.174C76.7885 184.564 77.6909 183.784 78.8511 182.095C80.0113 180.406 80.6559 179.497 80.6559 179.497L82.2029 179.237L82.0739 177.808Z" fill="white" stroke="#263238" stroke-width="0.7" stroke-linecap="round" stroke-linejoin="round"/>
<path id="Vector_68" d="M87.5996 178.972C87.5996 178.972 83.5678 175.796 82.5587 176.557C81.5496 177.319 78.2735 182.274 77.8956 183.277C77.5178 184.281 79.2825 183.788 80.665 182.516C82.0475 181.243 83.6922 179.828 83.6922 179.828L86.8439 181.481L87.5996 178.972Z" fill="white" stroke="#263238" stroke-width="0.7" stroke-linecap="round" stroke-linejoin="round"/>
<path id="Vector_69" d="M102.101 181.387C102.101 181.387 96.8068 181.132 94.6642 180.37C92.5215 179.609 88.2319 177.956 86.9738 178.081C85.7158 178.206 80.9194 182.91 79.9103 183.927C78.9012 184.944 79.0213 185.218 80.0126 185.343C81.0038 185.469 83.4399 183.802 84.5778 182.91C85.2819 182.364 86.0419 181.896 86.8449 181.513C87.7498 182.825 88.7624 184.058 89.8722 185.2C91.1302 186.342 94.1574 187.229 95.291 187.104C96.0122 187.021 96.7277 186.894 97.4336 186.723L101.723 186.597L102.101 181.387Z" fill="white" stroke="#263238" stroke-width="0.7" stroke-linecap="round" stroke-linejoin="round"/>
<g id="Vector_70">
<path d="M138.912 144.664C138.912 144.664 134.249 150.125 134.502 152.034C134.755 153.942 134.88 155.842 134.88 155.842L131.475 176.553C131.475 176.553 128.577 175.155 128.577 176.298V177.444L101.332 180.24L101.078 189.894L144.446 190.02C144.446 190.02 146.589 187.61 146.842 186.718C147.096 185.826 151.883 170.456 153.146 154.319C154.408 138.182 153.777 130.942 153.146 129.679C152.514 128.415 145.077 125.996 145.077 125.996" fill="#108E66"/>
<path d="M138.912 144.664C138.912 144.664 134.249 150.125 134.502 152.034C134.755 153.942 134.88 155.842 134.88 155.842L131.475 176.553C131.475 176.553 128.577 175.155 128.577 176.298V177.444L101.332 180.24L101.078 189.894L144.446 190.02C144.446 190.02 146.589 187.61 146.842 186.718C147.096 185.826 151.883 170.456 153.146 154.319C154.408 138.182 153.777 130.942 153.146 129.679C152.514 128.415 145.077 125.996 145.077 125.996" stroke="#263238" stroke-width="0.7" stroke-linecap="round" stroke-linejoin="round"/>
</g>
<g id="Vector_71">
<path d="M132.484 176.432C132.484 176.432 136.516 179.098 138.912 179.734L132.484 176.432Z" fill="white"/>
<path d="M132.484 176.432C132.484 176.432 136.516 179.098 138.912 179.734" stroke="#263238" stroke-width="0.7" stroke-linecap="round" stroke-linejoin="round"/>
</g>
<path id="Vector_72" d="M94.663 150.659L97.7747 140.592C99.0365 139.346 100.141 137.948 101.064 136.43C102.398 134.159 102.398 129.898 102.189 129.141C101.98 128.384 104.914 124.979 105.745 123.765C106.576 122.551 107.056 120.356 105.932 118.748C104.807 117.139 104.243 119.791 103.491 121.019C102.74 122.246 100.109 123.478 100.109 123.478L97.3302 125.754C97.3302 125.754 92.7294 129.822 92.4404 130.391C92.1515 130.96 91.5958 132.757 91.5958 132.757L91.9737 138.245L89.5332 147.8L94.663 150.659Z" fill="white" stroke="#263238" stroke-width="0.7" stroke-linecap="round" stroke-linejoin="round"/>
<path id="Vector_73" d="M95.4336 122.444C95.4336 122.444 97.6873 118.86 98.3452 117.713C99.0031 116.566 100.034 112.037 100.692 112.337C101.35 112.637 102.026 114.129 101.821 116.123C101.617 118.116 99.2832 122.65 99.2832 122.65L95.4336 122.444Z" stroke="#263238" stroke-width="0.7" stroke-linecap="round" stroke-linejoin="round"/>
<g id="Vector_74">
<path d="M89.9883 144.965L91.962 138.245L91.1085 127.457L93.7356 122.35L100.964 121.404C100.964 121.404 105.378 123.77 105.756 123.77C106.134 123.77 105.756 124.809 104.911 124.997C104.066 125.185 102.466 124.715 102.466 124.715L105.191 126.507C105.191 126.507 105.004 127.358 104.347 127.546C103.697 127.678 103.036 127.743 102.373 127.739C102.373 127.739 104.72 129.253 104.151 129.531C103.594 129.789 102.986 129.917 102.373 129.907H100.595L99.1855 129.719L97.0251 130.57C97.0251 130.57 98.5276 134.45 98.4343 136.345C98.3409 138.24 95.9938 139.481 95.9938 139.481" fill="white"/>
<path d="M89.9883 144.965L91.962 138.245L91.1085 127.457L93.7356 122.35L100.964 121.404C100.964 121.404 105.378 123.77 105.756 123.77C106.134 123.77 105.756 124.809 104.911 124.997C104.066 125.185 102.466 124.715 102.466 124.715L105.191 126.507C105.191 126.507 105.004 127.358 104.347 127.546C103.697 127.678 103.036 127.743 102.373 127.739C102.373 127.739 104.72 129.253 104.151 129.531C103.594 129.789 102.986 129.917 102.373 129.907H100.595L99.1855 129.719L97.0251 130.57C97.0251 130.57 98.5276 134.45 98.4343 136.345C98.3409 138.24 95.9938 139.481 95.9938 139.481" stroke="#263238" stroke-width="0.7" stroke-linecap="round" stroke-linejoin="round"/>
</g>
<path id="Vector_75" d="M102.474 124.715C102.474 124.715 100.971 123.483 100.127 123.483C99.2821 123.483 94.1211 124.428 94.1211 124.428" stroke="#263238" stroke-width="0.7" stroke-linecap="round" stroke-linejoin="round"/>
<path id="Vector_76" d="M102.381 127.743C102.381 127.743 99.9406 126.399 99.1894 126.399C98.4381 126.399 92.5215 127.914 92.5215 127.914" stroke="#263238" stroke-width="0.7" stroke-linecap="round" stroke-linejoin="round"/>
<path id="Vector_77" d="M90.1071 142.854L97.7308 148.029C97.7308 148.029 94.3346 166.397 94.0012 167.969C93.6678 169.542 91.2229 173.686 90.0004 174.922C88.778 176.159 87.3333 175.93 83.9949 175.034C80.6565 174.138 77.7715 171.45 77.8737 167.969C77.976 164.488 90.1071 142.854 90.1071 142.854Z" fill="#108E66" stroke="#263238" stroke-width="0.7" stroke-linecap="round" stroke-linejoin="round"/>
</g>
<g id="freepik--Device--inject-282">
<path id="Vector_78" d="M50.704 187.373H48.4902V188.058H50.704V187.373Z" fill="white" stroke="#263238" stroke-width="0.7" stroke-linecap="round" stroke-linejoin="round"/>
<path id="Vector_79" d="M53.7723 187.373H51.5586V188.058H53.7723V187.373Z" fill="white" stroke="#263238" stroke-width="0.7" stroke-linecap="round" stroke-linejoin="round"/>
<path id="Vector_80" d="M56.8387 187.373H54.625V188.058H56.8387V187.373Z" fill="white" stroke="#263238" stroke-width="0.7" stroke-linecap="round" stroke-linejoin="round"/>
<path id="Vector_81" d="M59.911 187.373H57.6973V188.058H59.911V187.373Z" fill="white" stroke="#263238" stroke-width="0.7" stroke-linecap="round" stroke-linejoin="round"/>
<path id="Vector_82" d="M62.9774 187.373H60.7637V188.058H62.9774V187.373Z" fill="white" stroke="#263238" stroke-width="0.7" stroke-linecap="round" stroke-linejoin="round"/>
<path id="Vector_83" d="M66.0458 187.373H63.832V188.058H66.0458V187.373Z" fill="white" stroke="#263238" stroke-width="0.7" stroke-linecap="round" stroke-linejoin="round"/>
<path id="Vector_84" d="M69.1122 187.373H66.8984V188.058H69.1122V187.373Z" fill="white" stroke="#263238" stroke-width="0.7" stroke-linecap="round" stroke-linejoin="round"/>
<path id="Vector_85" d="M72.1805 187.373H69.9668V188.058H72.1805V187.373Z" fill="white" stroke="#263238" stroke-width="0.7" stroke-linecap="round" stroke-linejoin="round"/>
<path id="Vector_86" d="M75.247 187.373H73.0332V188.058H75.247V187.373Z" fill="white" stroke="#263238" stroke-width="0.7" stroke-linecap="round" stroke-linejoin="round"/>
<path id="Vector_87" d="M78.3134 187.373H76.0996V188.058H78.3134V187.373Z" fill="white" stroke="#263238" stroke-width="0.7" stroke-linecap="round" stroke-linejoin="round"/>
<path id="Vector_88" d="M81.3856 187.373H79.1719V188.058H81.3856V187.373Z" fill="white" stroke="#263238" stroke-width="0.7" stroke-linecap="round" stroke-linejoin="round"/>
<path id="Vector_89" d="M84.454 187.373H82.2402V188.058H84.454V187.373Z" fill="white" stroke="#263238" stroke-width="0.7" stroke-linecap="round" stroke-linejoin="round"/>
<path id="Vector_90" d="M87.5204 187.373H85.3066V188.058H87.5204V187.373Z" fill="white" stroke="#263238" stroke-width="0.7" stroke-linecap="round" stroke-linejoin="round"/>
<path id="Vector_91" d="M90.5868 187.373H88.373V188.058H90.5868V187.373Z" fill="white" stroke="#263238" stroke-width="0.7" stroke-linecap="round" stroke-linejoin="round"/>
<path id="Vector_92" d="M93.6551 187.373H91.4414V188.058H93.6551V187.373Z" fill="white" stroke="#263238" stroke-width="0.7" stroke-linecap="round" stroke-linejoin="round"/>
<path id="Vector_93" d="M96.7216 187.373H94.5078V188.058H96.7216V187.373Z" fill="white" stroke="#263238" stroke-width="0.7" stroke-linecap="round" stroke-linejoin="round"/>
<path id="Vector_94" d="M102.069 187.915H47.2188V189.859H102.069V187.915Z" fill="white" stroke="#263238" stroke-width="0.7" stroke-linecap="round" stroke-linejoin="round"/>
<path id="Vector_95" d="M102.065 187.915H81.0391V189.859H102.065V187.915Z" fill="white" stroke="#263238" stroke-width="0.7" stroke-linecap="round" stroke-linejoin="round"/>
<path id="Vector_96" d="M64.3337 170.886H21.2102L12.5508 124.67H55.6744L64.3337 170.886Z" fill="#263238" stroke="white" stroke-width="0.7" stroke-linecap="round" stroke-linejoin="round"/>
<path id="Vector_97" d="M63.0225 169.717H21.1881L12.9688 125.84H54.7988L63.0225 169.717Z" fill="#263238" stroke="white" stroke-width="0.7" stroke-linecap="round" stroke-linejoin="round"/>
<path id="Vector_98" d="M54.9678 166.222H23.8642L17.752 133.604H48.8555L54.9678 166.222Z" fill="#263238" stroke="white" stroke-width="0.7" stroke-linecap="round" stroke-linejoin="round"/>
<path id="Vector_99" d="M17.7519 133.604L12.9688 125.84" stroke="#263238" stroke-width="0.7" stroke-linecap="round" stroke-linejoin="round"/>
<path id="Vector_100" d="M48.8555 133.604L54.7988 125.84" stroke="white" stroke-width="0.7" stroke-linecap="round" stroke-linejoin="round"/>
<path id="Vector_101" d="M54.9668 166.222L63.0216 169.717" stroke="white" stroke-width="0.7" stroke-linecap="round" stroke-linejoin="round"/>
<path id="Vector_102" d="M23.8636 166.222L21.1875 169.717" stroke="#263238" stroke-width="0.7" stroke-linecap="round" stroke-linejoin="round"/>
<path id="Vector_103" d="M36.511 156.451H29.4297L33.9372 152.401H41.0185L36.511 156.451Z" fill="#263238" stroke="white" stroke-width="0.7" stroke-linecap="round" stroke-linejoin="round"/>
<path id="Vector_104" d="M60.0047 187.426H34.0977V190.02H60.0047V187.426Z" fill="#263238" stroke="white" stroke-width="0.7" stroke-linecap="round" stroke-linejoin="round"/>
<path id="Vector_105" d="M45.2015 190.02H38.1202L29.4297 180.07H36.511L45.2015 190.02Z" fill="#263238" stroke="white" stroke-width="0.7" stroke-linecap="round" stroke-linejoin="round"/>
<path id="Vector_106" d="M36.511 156.617H29.4297V179.967H36.511V156.617Z" fill="#263238" stroke="white" stroke-width="0.7" stroke-linecap="round" stroke-linejoin="round"/>
</g>
<g id="freepik--Table--inject-282">
<g id="Vector_107">
<path d="M140.188 185.58C141.199 187.431 142.736 188.935 144.602 189.899L140.188 185.58Z" fill="white"/>
<path d="M140.188 185.58C141.199 187.431 142.736 188.935 144.602 189.899" stroke="#263238" stroke-width="0.7" stroke-linecap="round" stroke-linejoin="round"/>
</g>
<path id="Vector_108" d="M7.11914 190.02H209.917" stroke="#263238" stroke-width="0.7" stroke-linecap="round" stroke-linejoin="round"/>
</g>
</g>
</svg>
