<svg xmlns="http://www.w3.org/2000/svg" width="32" height="32" viewBox="0 0 32 32" fill="none">
<path d="M7.90126 19.0347L6.88865 22.8149L3.18757 22.8932C2.08149 20.8416 1.4541 18.4944 1.4541 16.0001C1.4541 13.5881 2.04069 11.3136 3.08047 9.31079H3.08126L6.37626 9.91488L7.81967 13.1901C7.51757 14.0708 7.35291 15.0163 7.35291 16.0001C7.35302 17.0678 7.54643 18.0908 7.90126 19.0347Z" fill="#FBBB00"/>
<path d="M30.2909 13.2827C30.4579 14.1626 30.545 15.0713 30.545 16C30.545 17.0414 30.4355 18.0571 30.227 19.037C29.5189 22.3712 27.6687 25.2827 25.1057 27.3431L25.1049 27.3423L20.9547 27.1305L20.3673 23.4637C22.068 22.4664 23.3971 20.9055 24.0972 19.037H16.3193V13.2827H24.2106H30.2909Z" fill="#518EF8"/>
<path d="M25.1048 27.3423L25.1056 27.3431C22.6129 29.3467 19.4464 30.5455 15.9995 30.5455C10.4602 30.5455 5.64426 27.4494 3.1875 22.8932L7.90119 19.0347C9.12954 22.313 12.292 24.6467 15.9995 24.6467C17.5931 24.6467 19.086 24.2159 20.3671 23.4638L25.1048 27.3423Z" fill="#28B446"/>
<path d="M25.2837 4.80323L20.5716 8.66095C19.2457 7.8322 17.6784 7.35345 15.9994 7.35345C12.2079 7.35345 8.98634 9.79419 7.81952 13.19L3.08105 9.31073C5.50185 4.6434 10.3778 1.45459 15.9994 1.45459C19.5286 1.45459 22.7646 2.71175 25.2837 4.80323Z" fill="#F14336"/>
</svg>