<svg xmlns="http://www.w3.org/2000/svg" width="32" height="32" viewBox="0 0 32 32" fill="none">
  <path d="M7.90029 19.0346L6.88767 22.8148L3.18659 22.8931C2.08051 20.8416 1.45312 18.4944 1.45312 16C1.45312 13.5881 2.03972 11.3135 3.07949 9.31073H3.08028L6.37528 9.91482L7.81869 13.19C7.51659 14.0708 7.35193 15.0162 7.35193 16C7.35205 17.0678 7.54546 18.0908 7.90029 19.0346Z" fill="#FBBB00" fill-opacity="0.54"/>
  <path d="M30.2919 13.2827C30.4589 14.1625 30.546 15.0712 30.546 15.9999C30.546 17.0413 30.4365 18.0571 30.2279 19.0369C29.5199 22.3712 27.6697 25.2827 25.1067 27.343L25.1059 27.3422L20.9557 27.1304L20.3683 23.4637C22.069 22.4663 23.398 20.9054 24.0982 19.0369H16.3203V13.2827H24.2116H30.2919Z" fill="#518EF8" fill-opacity="0.54"/>
  <path d="M25.1048 27.3423L25.1056 27.3431C22.6129 29.3467 19.4464 30.5455 15.9995 30.5455C10.4602 30.5455 5.64426 27.4494 3.1875 22.8931L7.90119 19.0346C9.12954 22.3129 12.292 24.6466 15.9995 24.6466C17.5931 24.6466 19.086 24.2158 20.3671 23.4638L25.1048 27.3423Z" fill="#28B446" fill-opacity="0.54"/>
  <path d="M25.2846 4.80317L20.5725 8.66089C19.2467 7.83214 17.6794 7.35339 16.0003 7.35339C12.2089 7.35339 8.98732 9.79413 7.8205 13.19L3.08203 9.31067C5.50283 4.64334 10.3787 1.45453 16.0003 1.45453C19.5296 1.45453 22.7656 2.71169 25.2846 4.80317Z" fill="#F14336" fill-opacity="0.54"/>
</svg>