<svg width="20" height="35" viewBox="0 0 20 35" fill="none" xmlns="http://www.w3.org/2000/svg">
<path d="M2.49887 2.53635H0C0 4.98663 0.978933 7.20628 2.56253 8.81263C4.1461 10.419 6.3343 11.412 8.74988 11.412V17.1195C8.74988 17.2932 8.81956 17.4515 8.9332 17.5669C9.0469 17.6821 9.20298 17.753 9.37571 17.753H10.6259C10.7971 17.753 10.9532 17.6821 11.0669 17.5669C11.1806 17.4515 11.2503 17.2932 11.2503 17.1195V11.412C11.2503 8.96175 10.2713 6.74207 8.68773 5.13572C7.10414 3.52935 4.91593 2.53635 2.49887 2.53635ZM17.5013 0C15.8555 0 14.3189 0.461147 13.005 1.26202C11.6927 2.0629 10.6032 3.20348 9.8561 4.56541C10.3971 5.1634 10.8669 5.82589 11.2564 6.54068C11.6442 7.25545 11.9488 8.02256 12.161 8.82952C14.3613 8.59742 16.3223 7.53833 17.7316 5.96271C19.1408 4.38864 20.0001 2.29654 20.0001 0H17.5013Z" fill="#FCFFFE"/>
<path d="M15.7813 19.5021C15.9116 19.5021 16.0284 19.4483 16.1133 19.3622C16.1982 19.2762 16.2511 19.1578 16.2511 19.0256V17.4407C16.2511 17.3101 16.1982 17.1902 16.1133 17.1041C16.0284 17.018 15.9116 16.9658 15.7813 16.9658H4.2189C4.08859 16.9658 3.9719 17.018 3.88705 17.1041C3.80217 17.1902 3.74915 17.3101 3.74915 17.4407V19.2148C3.74915 19.3454 3.80217 19.4637 3.88705 19.5498C3.9719 19.6358 4.08859 19.6896 4.2189 19.6896H7.54975C8.08314 19.6896 8.55444 19.7879 8.95449 19.9725C9.35454 20.1569 9.6834 20.4275 9.93191 20.7688H4.2189C4.08859 20.7688 3.9719 20.8226 3.88705 20.9087C3.80217 20.9947 3.74915 21.1131 3.74915 21.2454V22.8302C3.74915 22.9608 3.80217 23.0808 3.88705 23.1669C3.9719 23.2529 4.08859 23.305 4.2189 23.305H10.4198C10.2986 24.0199 9.9774 24.6008 9.48183 25.0038C8.98634 25.405 8.31651 25.6292 7.49973 25.6292H4.2189C4.08859 25.6292 3.9719 25.6815 3.88705 25.7676C3.80217 25.8537 3.74915 25.9737 3.74915 26.1043V28.2057C3.74915 28.2717 3.76278 28.3363 3.78854 28.3962C3.81432 28.4561 3.85219 28.5101 3.90068 28.5546L10.3486 34.5925C10.3911 34.6326 10.4411 34.6649 10.4957 34.6849C10.5503 34.7064 10.6079 34.7187 10.6669 34.7187H13.8916C14.1052 34.7187 14.2628 34.5849 14.3282 34.4157C14.3933 34.2468 14.366 34.0392 14.2099 33.8932L8.31505 28.3747C9.80918 28.327 11.0896 27.7981 12.0323 26.9128C12.9747 26.026 13.5779 24.7823 13.7189 23.305H15.7813C15.9116 23.305 16.0284 23.2529 16.1133 23.1669C16.1982 23.0808 16.2511 22.9608 16.2511 22.8302V21.2454C16.2511 21.1131 16.1982 20.9947 16.1133 20.9087C16.0284 20.8226 15.9116 20.7688 15.7813 20.7688H13.4886C13.4203 20.5412 13.3401 20.3199 13.2477 20.1094C13.1538 19.8972 13.0491 19.6943 12.9325 19.5021H15.7813Z" fill="#FCFFFE"/>
</svg>
