<svg width="50" height="78" viewBox="0 0 50 78" fill="none" xmlns="http://www.w3.org/2000/svg">
<path d="M45.2899 0.201431H4.9439C4.3196 0.201014 3.70206 0.3308 3.13074 0.582501C2.55942 0.834202 2.04687 1.20229 1.62582 1.66324C1.15178 2.10639 0.779378 2.64699 0.534237 3.24782C0.289096 3.84865 0.177039 4.49547 0.205776 5.14375L1.05502 23.7065V73.4846C1.05502 74.569 1.48576 75.6089 2.25249 76.3756C3.01922 77.1423 4.05913 77.5731 5.14345 77.5731H44.6194C45.7501 77.5242 46.8215 77.0531 47.6218 76.2527C48.4221 75.4524 48.8933 74.3811 48.9421 73.2503V23.4837L49.7937 4.921C49.8223 4.31181 49.7269 3.70316 49.5135 3.13188C49.3 2.56059 48.9729 2.03856 48.5519 1.59735C48.1308 1.15615 47.6247 0.804955 47.064 0.565018C46.5033 0.325081 45.8998 0.20139 45.2899 0.201431Z" fill="white"/>
<mask id="mask0_0_462" style="mask-type:luminance" maskUnits="userSpaceOnUse" x="0" y="0" width="50" height="78">
<path d="M45.2899 0.201431H4.9439C4.3196 0.201014 3.70206 0.3308 3.13074 0.582501C2.55942 0.834202 2.04687 1.20229 1.62582 1.66324C1.15178 2.10639 0.779378 2.64699 0.534237 3.24782C0.289096 3.84865 0.177039 4.49547 0.205776 5.14375L1.05502 23.7065V73.4846C1.05502 74.569 1.48576 75.6089 2.25249 76.3756C3.01922 77.1423 4.05913 77.5731 5.14345 77.5731H44.6194C45.7501 77.5242 46.8215 77.0531 47.6218 76.2527C48.4221 75.4524 48.8933 74.3811 48.9421 73.2503V23.4837L49.7937 4.921C49.8223 4.31181 49.7269 3.70316 49.5135 3.13188C49.3 2.56059 48.9729 2.03856 48.5519 1.59735C48.1308 1.15615 47.6247 0.804955 47.064 0.565018C46.5033 0.325081 45.8998 0.20139 45.2899 0.201431Z" fill="white"/>
</mask>
<g mask="url(#mask0_0_462)">
<path opacity="0.2" d="M47.5151 0.788449C48.1358 1.62166 48.449 2.64401 48.4015 3.68191L47.5499 22.2446V72.0135C47.5011 73.1443 47.0299 74.2156 46.2296 75.016C45.4293 75.8163 44.3579 76.2874 43.2271 76.3363H3.75125C3.07309 76.336 2.40568 76.1669 1.80912 75.8444C2.18587 76.3783 2.68543 76.8138 3.26572 77.1143C3.846 77.4147 4.49 77.5713 5.14345 77.5707H44.6194C45.7501 77.5219 46.8215 77.0507 47.6218 76.2504C48.4221 75.4501 48.8933 74.3787 48.9421 73.2479V23.4837L49.7937 4.92097C49.8322 4.08897 49.6397 3.26253 49.2376 2.53316C48.8354 1.80379 48.2393 1.19994 47.5151 0.788449Z" fill="black"/>
</g>
<path d="M45.2899 0.201431H4.9439C4.3196 0.201014 3.70206 0.3308 3.13074 0.582501C2.55942 0.834202 2.04687 1.20229 1.62582 1.66324C1.15178 2.10639 0.779378 2.64699 0.534237 3.24782C0.289096 3.84865 0.177039 4.49547 0.205776 5.14375L1.05502 23.7065V73.4846C1.05502 74.569 1.48576 75.6089 2.25249 76.3756C3.01922 77.1423 4.05913 77.5731 5.14345 77.5731H44.6194C45.7501 77.5242 46.8215 77.0531 47.6218 76.2527C48.4221 75.4524 48.8933 74.3811 48.9421 73.2503V23.4837L49.7937 4.921C49.8223 4.31181 49.7269 3.70316 49.5135 3.13188C49.3 2.56059 48.9729 2.03856 48.5519 1.59735C48.1308 1.15615 47.6247 0.804955 47.064 0.565018C46.5033 0.325081 45.8998 0.20139 45.2899 0.201431Z" stroke="#263238" stroke-width="0.4" stroke-miterlimit="10"/>
<path d="M46.7518 22.9175L47.5338 5.5939C47.5507 5.22078 47.4918 4.8481 47.3607 4.49837C47.2295 4.14864 47.0289 3.82913 46.7708 3.55912C46.5127 3.28912 46.2026 3.07423 45.8591 2.92744C45.5157 2.78066 45.1461 2.70501 44.7726 2.70508H5.46372C5.09021 2.70501 4.72057 2.78066 4.37712 2.92744C4.03367 3.07423 3.72354 3.28912 3.46546 3.55912C3.20739 3.82913 3.00672 4.14864 2.87559 4.49837C2.74446 4.8481 2.68558 5.22078 2.70251 5.5939L3.48215 22.9175H46.7518Z" fill="#263238" stroke="#263238" stroke-width="0.4" stroke-miterlimit="10"/>
<path d="M45.0279 7.20189H5.02292V20.7318H45.0279V7.20189Z" fill="#7D7D7D"/>
<path d="M43.0532 9.17649H6.99751V18.7572H43.0532V9.17649Z" fill="#BFBFBF"/>
<path d="M24.1286 28.4121H6.25038C5.61348 28.4121 5.09717 28.9284 5.09717 29.5653V33.1827C5.09717 33.8196 5.61348 34.3359 6.25038 34.3359H24.1286C24.7655 34.3359 25.2818 33.8196 25.2818 33.1827V29.5653C25.2818 28.9284 24.7655 28.4121 24.1286 28.4121Z" fill="#7D7D7D" stroke="#263238" stroke-width="0.4" stroke-miterlimit="10"/>
<path d="M9.3387 28.4863V34.3359" stroke="#263238" stroke-width="0.4" stroke-miterlimit="10"/>
<path d="M13.4108 28.4863V34.3359" stroke="#263238" stroke-width="0.4" stroke-miterlimit="10"/>
<path d="M17.4807 28.4863V34.3359" stroke="#263238" stroke-width="0.4" stroke-miterlimit="10"/>
<path d="M21.5507 28.4863V34.3359" stroke="#263238" stroke-width="0.4" stroke-miterlimit="10"/>
<path d="M36.5238 31.6676H31.4863C30.8943 31.6676 30.4143 32.1475 30.4143 32.7395V35.2455C30.4143 35.8376 30.8943 36.3175 31.4863 36.3175H36.5238C37.1158 36.3175 37.5958 35.8376 37.5958 35.2455V32.7395C37.5958 32.1475 37.1158 31.6676 36.5238 31.6676Z" fill="#D9D9D9" stroke="#263238" stroke-width="0.4" stroke-miterlimit="10"/>
<path d="M11.3271 38.0856H6.28964C5.6976 38.0856 5.21765 38.5656 5.21765 39.1576V42.4873C5.21765 43.0793 5.6976 43.5593 6.28964 43.5593H11.3271C11.9191 43.5593 12.3991 43.0793 12.3991 42.4873V39.1576C12.3991 38.5656 11.9191 38.0856 11.3271 38.0856Z" fill="#D9D9D9" stroke="#263238" stroke-width="0.4" stroke-miterlimit="10"/>
<path d="M19.7453 38.0856H14.7078C14.1158 38.0856 13.6358 38.5656 13.6358 39.1576V42.4873C13.6358 43.0793 14.1158 43.5593 14.7078 43.5593H19.7453C20.3373 43.5593 20.8172 43.0793 20.8172 42.4873V39.1576C20.8172 38.5656 20.3373 38.0856 19.7453 38.0856Z" fill="#D9D9D9" stroke="#263238" stroke-width="0.4" stroke-miterlimit="10"/>
<path d="M23.1261 38.0856H28.1612C28.4462 38.0856 28.7194 38.1988 28.9209 38.4003C29.1224 38.6017 29.2355 38.875 29.2355 39.1599V42.4873C29.2355 42.7718 29.1227 43.0447 28.9217 43.2461C28.7207 43.4475 28.4481 43.561 28.1636 43.5616H23.1284C22.8441 43.5616 22.5714 43.4487 22.3704 43.2476C22.1694 43.0466 22.0564 42.7739 22.0564 42.4896V39.1576C22.0564 38.8737 22.169 38.6014 22.3696 38.4004C22.5701 38.1994 22.8422 38.0862 23.1261 38.0856Z" fill="#D9D9D9" stroke="#263238" stroke-width="0.4" stroke-miterlimit="10"/>
<path d="M36.5818 38.0856H31.5444C30.9523 38.0856 30.4724 38.5656 30.4724 39.1576V42.4873C30.4724 43.0793 30.9523 43.5593 31.5444 43.5593H36.5818C37.1739 43.5593 37.6538 43.0793 37.6538 42.4873V39.1576C37.6538 38.5656 37.1739 38.0856 36.5818 38.0856Z" fill="#D9D9D9" stroke="#263238" stroke-width="0.4" stroke-miterlimit="10"/>
<path d="M45 38.0856H39.9625C39.3705 38.0856 38.8905 38.5656 38.8905 39.1576V42.4873C38.8905 43.0793 39.3705 43.5593 39.9625 43.5593H45C45.592 43.5593 46.072 43.0793 46.072 42.4873V39.1576C46.072 38.5656 45.592 38.0856 45 38.0856Z" fill="#D9D9D9" stroke="#263238" stroke-width="0.4" stroke-miterlimit="10"/>
<path d="M11.3271 45.4434H6.28964C5.6976 45.4434 5.21765 45.9233 5.21765 46.5154V49.8451C5.21765 50.4371 5.6976 50.9171 6.28964 50.9171H11.3271C11.9191 50.9171 12.3991 50.4371 12.3991 49.8451V46.5154C12.3991 45.9233 11.9191 45.4434 11.3271 45.4434Z" fill="#D9D9D9" stroke="#263238" stroke-width="0.4" stroke-miterlimit="10"/>
<path d="M19.7453 45.4434H14.7078C14.1158 45.4434 13.6358 45.9233 13.6358 46.5154V49.8451C13.6358 50.4371 14.1158 50.9171 14.7078 50.9171H19.7453C20.3373 50.9171 20.8172 50.4371 20.8172 49.8451V46.5154C20.8172 45.9233 20.3373 45.4434 19.7453 45.4434Z" fill="#999999" stroke="#263238" stroke-width="0.4" stroke-miterlimit="10"/>
<path d="M23.1261 45.448H28.1612C28.4462 45.448 28.7194 45.5612 28.9209 45.7627C29.1224 45.9641 29.2355 46.2374 29.2355 46.5223V49.8497C29.2355 50.1342 29.1227 50.4071 28.9217 50.6085C28.7207 50.8099 28.4481 50.9234 28.1636 50.924H23.1284C22.8441 50.924 22.5714 50.811 22.3704 50.61C22.1694 50.409 22.0564 50.1363 22.0564 49.852V46.5153C22.0576 46.2322 22.1708 45.9611 22.3712 45.7611C22.5716 45.5612 22.843 45.4486 23.1261 45.448Z" fill="#999999" stroke="#263238" stroke-width="0.4" stroke-miterlimit="10"/>
<path d="M36.5818 45.4434H31.5444C30.9523 45.4434 30.4724 45.9233 30.4724 46.5154V49.8451C30.4724 50.4371 30.9523 50.9171 31.5444 50.9171H36.5818C37.1739 50.9171 37.6538 50.4371 37.6538 49.8451V46.5154C37.6538 45.9233 37.1739 45.4434 36.5818 45.4434Z" fill="#999999" stroke="#263238" stroke-width="0.4" stroke-miterlimit="10"/>
<path d="M45 45.4434H39.9625C39.3705 45.4434 38.8905 45.9233 38.8905 46.5154V49.8451C38.8905 50.4371 39.3705 50.9171 39.9625 50.9171H45C45.592 50.9171 46.072 50.4371 46.072 49.8451V46.5154C46.072 45.9233 45.592 45.4434 45 45.4434Z" fill="#D9D9D9" stroke="#263238" stroke-width="0.4" stroke-miterlimit="10"/>
<path d="M11.3271 52.8012H6.28964C5.6976 52.8012 5.21765 53.2811 5.21765 53.8732V57.2028C5.21765 57.7949 5.6976 58.2748 6.28964 58.2748H11.3271C11.9191 58.2748 12.3991 57.7949 12.3991 57.2028V53.8732C12.3991 53.2811 11.9191 52.8012 11.3271 52.8012Z" fill="#D9D9D9" stroke="#263238" stroke-width="0.4" stroke-miterlimit="10"/>
<path d="M19.7453 52.8012H14.7078C14.1158 52.8012 13.6358 53.2811 13.6358 53.8732V57.2028C13.6358 57.7949 14.1158 58.2748 14.7078 58.2748H19.7453C20.3373 58.2748 20.8172 57.7949 20.8172 57.2028V53.8732C20.8172 53.2811 20.3373 52.8012 19.7453 52.8012Z" fill="#999999" stroke="#263238" stroke-width="0.4" stroke-miterlimit="10"/>
<path d="M23.1261 52.8012H28.1612C28.4462 52.8012 28.7194 52.9143 28.9209 53.1158C29.1224 53.3173 29.2356 53.5905 29.2356 53.8755V57.2028C29.2356 57.4874 29.1227 57.7603 28.9217 57.9617C28.7207 58.1631 28.4481 58.2765 28.1636 58.2772H23.1284C22.8441 58.2772 22.5714 58.1642 22.3704 57.9632C22.1694 57.7621 22.0564 57.4895 22.0564 57.2052V53.8755C22.0561 53.7347 22.0835 53.5952 22.1371 53.4651C22.1907 53.3349 22.2694 53.2165 22.3688 53.1168C22.4681 53.017 22.5861 52.9378 22.716 52.8836C22.846 52.8295 22.9853 52.8015 23.1261 52.8012Z" fill="#999999" stroke="#263238" stroke-width="0.4" stroke-miterlimit="10"/>
<path d="M36.5818 52.8012H31.5444C30.9523 52.8012 30.4724 53.2811 30.4724 53.8732V57.2028C30.4724 57.7949 30.9523 58.2748 31.5444 58.2748H36.5818C37.1739 58.2748 37.6538 57.7949 37.6538 57.2028V53.8732C37.6538 53.2811 37.1739 52.8012 36.5818 52.8012Z" fill="#999999" stroke="#263238" stroke-width="0.4" stroke-miterlimit="10"/>
<path d="M45 52.8012H39.9625C39.3705 52.8012 38.8905 53.2811 38.8905 53.8732V57.2028C38.8905 57.7949 39.3705 58.2748 39.9625 58.2748H45C45.592 58.2748 46.072 57.7949 46.072 57.2028V53.8732C46.072 53.2811 45.592 52.8012 45 52.8012Z" fill="#D9D9D9" stroke="#263238" stroke-width="0.4" stroke-miterlimit="10"/>
<path d="M11.3271 60.1589H6.28964C5.6976 60.1589 5.21765 60.6389 5.21765 61.2309V64.5606C5.21765 65.1527 5.6976 65.6326 6.28964 65.6326H11.3271C11.9191 65.6326 12.3991 65.1527 12.3991 64.5606V61.2309C12.3991 60.6389 11.9191 60.1589 11.3271 60.1589Z" fill="#108E66" stroke="#263238" stroke-width="0.4" stroke-miterlimit="10"/>
<path d="M19.7453 60.1589H14.7078C14.1158 60.1589 13.6358 60.6389 13.6358 61.2309V64.5606C13.6358 65.1527 14.1158 65.6326 14.7078 65.6326H19.7453C20.3373 65.6326 20.8172 65.1527 20.8172 64.5606V61.2309C20.8172 60.6389 20.3373 60.1589 19.7453 60.1589Z" fill="#999999" stroke="#263238" stroke-width="0.4" stroke-miterlimit="10"/>
<path d="M23.1261 60.1589H28.1612C28.4462 60.1589 28.7194 60.2721 28.9209 60.4736C29.1224 60.6751 29.2355 60.9483 29.2355 61.2332V64.5606C29.2355 64.8451 29.1227 65.118 28.9217 65.3195C28.7207 65.5209 28.4481 65.6343 28.1636 65.6349H23.1284C22.8441 65.6349 22.5714 65.522 22.3704 65.3209C22.1694 65.1199 22.0564 64.8472 22.0564 64.5629V61.2263C22.0576 60.9432 22.1708 60.6721 22.3712 60.4721C22.5716 60.2721 22.843 60.1595 23.1261 60.1589Z" fill="#999999" stroke="#263238" stroke-width="0.4" stroke-miterlimit="10"/>
<path d="M36.5818 60.1589H31.5444C30.9523 60.1589 30.4724 60.6389 30.4724 61.2309V64.5606C30.4724 65.1527 30.9523 65.6326 31.5444 65.6326H36.5818C37.1739 65.6326 37.6538 65.1527 37.6538 64.5606V61.2309C37.6538 60.6389 37.1739 60.1589 36.5818 60.1589Z" fill="#999999" stroke="#263238" stroke-width="0.4" stroke-miterlimit="10"/>
<path d="M11.3271 67.519H6.28964C5.6976 67.519 5.21765 67.999 5.21765 68.591V71.9207C5.21765 72.5128 5.6976 72.9927 6.28964 72.9927H11.3271C11.9191 72.9927 12.3991 72.5128 12.3991 71.9207V68.591C12.3991 67.999 11.9191 67.519 11.3271 67.519Z" fill="#108E66" stroke="#263238" stroke-width="0.4" stroke-miterlimit="10"/>
<path d="M19.7453 67.519H14.7078C14.1158 67.519 13.6358 67.999 13.6358 68.591V71.9207C13.6358 72.5128 14.1158 72.9927 14.7078 72.9927H19.7453C20.3373 72.9927 20.8172 72.5128 20.8172 71.9207V68.591C20.8172 67.999 20.3373 67.519 19.7453 67.519Z" fill="#999999" stroke="#263238" stroke-width="0.4" stroke-miterlimit="10"/>
<path d="M23.1261 67.519H28.1612C28.4462 67.519 28.7194 67.6322 28.9209 67.8337C29.1224 68.0352 29.2355 68.3084 29.2355 68.5934V71.9207C29.2355 72.2052 29.1227 72.4782 28.9217 72.6796C28.7207 72.881 28.4481 72.9944 28.1636 72.995H23.1284C22.8441 72.995 22.5714 72.8821 22.3704 72.6811C22.1694 72.48 22.0564 72.2074 22.0564 71.923V68.591C22.0564 68.3071 22.169 68.0348 22.3696 67.8338C22.5701 67.6329 22.8422 67.5197 23.1261 67.519Z" fill="#999999" stroke="#263238" stroke-width="0.4" stroke-miterlimit="10"/>
<path d="M36.5818 67.519H31.5444C30.9523 67.519 30.4724 67.999 30.4724 68.591V71.9207C30.4724 72.5128 30.9523 72.9927 31.5444 72.9927H36.5818C37.1739 72.9927 37.6538 72.5128 37.6538 71.9207V68.591C37.6538 67.999 37.1739 67.519 36.5818 67.519Z" fill="#D9D9D9" stroke="#263238" stroke-width="0.4" stroke-miterlimit="10"/>
<path d="M44.9814 60.1589H39.9788C39.6899 60.1595 39.4131 60.2747 39.2091 60.4792C39.0051 60.6836 38.8905 60.9607 38.8905 61.2495V71.8998C38.8905 72.1885 39.0052 72.4653 39.2093 72.6693C39.4134 72.8734 39.6901 72.9881 39.9788 72.9881H44.9814C45.1245 72.9884 45.2663 72.9605 45.3986 72.9059C45.5309 72.8514 45.6511 72.7712 45.7524 72.6702C45.8537 72.5691 45.9341 72.449 45.9889 72.3168C46.0437 72.1846 46.072 72.0429 46.072 71.8998V61.2495C46.072 60.9603 45.9571 60.6829 45.7526 60.4784C45.548 60.2738 45.2706 60.1589 44.9814 60.1589Z" fill="#D9D9D9" stroke="#263238" stroke-width="0.4" stroke-miterlimit="10"/>
<path d="M45 31.6676H39.9625C39.3705 31.6676 38.8905 32.1475 38.8905 32.7395V35.2455C38.8905 35.8376 39.3705 36.3175 39.9625 36.3175H45C45.592 36.3175 46.072 35.8376 46.072 35.2455V32.7395C46.072 32.1475 45.592 31.6676 45 31.6676Z" fill="#108E66" stroke="#263238" stroke-width="0.4" stroke-miterlimit="10"/>
<path d="M40.2757 35.1434C40.0632 34.8616 39.9483 34.5183 39.9483 34.1654C39.9483 33.8124 40.0632 33.4691 40.2757 33.1873C40.5188 32.955 40.8421 32.8254 41.1783 32.8254C41.5146 32.8254 41.8379 32.955 42.081 33.1873C42.2935 33.4691 42.4084 33.8124 42.4084 34.1654C42.4084 34.5183 42.2935 34.8616 42.081 35.1434C41.8379 35.3757 41.5146 35.5054 41.1783 35.5054C40.8421 35.5054 40.5188 35.3757 40.2757 35.1434ZM41.7979 34.9299C41.9434 34.701 42.0207 34.4354 42.0207 34.1642C42.0207 33.893 41.9434 33.6274 41.7979 33.3985C41.7242 33.3061 41.6296 33.2327 41.5218 33.1843C41.4141 33.1358 41.2963 33.1138 41.1783 33.12C41.0601 33.114 40.942 33.1361 40.834 33.1845C40.7259 33.2329 40.6308 33.3062 40.5565 33.3985C40.4126 33.6279 40.3362 33.8933 40.3362 34.1642C40.3362 34.4351 40.4126 34.7005 40.5565 34.9299C40.6303 35.0229 40.7252 35.0968 40.8334 35.1457C40.9415 35.1945 41.0598 35.2168 41.1783 35.2107C41.2966 35.217 41.4146 35.1948 41.5224 35.1459C41.6302 35.0971 41.7247 35.023 41.7979 34.9299Z" fill="white"/>
<path d="M43.0021 35.4218C42.9853 35.4072 42.972 35.389 42.9631 35.3685C42.9543 35.348 42.9502 35.3258 42.9511 35.3035V33.0968C42.9491 33.0656 42.9534 33.0343 42.9637 33.0048C42.9741 32.9753 42.9903 32.9482 43.0114 32.9251C43.0303 32.9047 43.0533 32.8886 43.0789 32.8777C43.1045 32.8669 43.1321 32.8617 43.1599 32.8625C43.2065 32.8634 43.252 32.8762 43.2922 32.8996C43.3388 32.9255 43.3785 32.9621 43.4082 33.0064L44.7354 34.9369V33.0249C44.7342 33.0028 44.738 32.9807 44.7464 32.9602C44.7548 32.9398 44.7677 32.9214 44.7842 32.9066C44.817 32.8766 44.8604 32.8608 44.9048 32.8625C44.9478 32.8615 44.9894 32.8773 45.0208 32.9066C45.0381 32.9209 45.0517 32.939 45.0606 32.9596C45.0695 32.9802 45.0734 33.0026 45.0719 33.0249V35.2385C45.0736 35.2699 45.069 35.3013 45.0582 35.3308C45.0474 35.3603 45.0308 35.3873 45.0092 35.4102C44.9662 35.4517 44.9089 35.475 44.8491 35.4752C44.8061 35.4746 44.7639 35.4635 44.7262 35.4427C44.6852 35.4225 44.6501 35.3921 44.6241 35.3545L43.2922 33.424V35.3128C43.2937 35.3351 43.2898 35.3575 43.2809 35.3781C43.272 35.3987 43.2584 35.4168 43.2411 35.4311C43.2074 35.4595 43.1646 35.4751 43.1205 35.4752C43.0757 35.4731 43.0334 35.454 43.0021 35.4218Z" fill="white"/>
<path d="M7.45211 42.3156C7.41037 42.2853 7.37752 42.2445 7.35698 42.1972L6.51005 40.2922V42.2738C6.51094 42.2931 6.50669 42.3123 6.49772 42.3294C6.48875 42.3466 6.47539 42.361 6.45901 42.3712C6.42425 42.3931 6.38404 42.4047 6.34299 42.4047C6.30194 42.4047 6.26173 42.3931 6.22697 42.3712C6.21059 42.361 6.19723 42.3466 6.18826 42.3294C6.17929 42.3123 6.17503 42.2931 6.17592 42.2738V40.1112C6.17621 40.0775 6.18383 40.0443 6.19825 40.0139C6.21268 39.9834 6.23356 39.9565 6.25946 39.9349C6.31283 39.8887 6.38145 39.8639 6.45204 39.8653C6.51344 39.8647 6.57347 39.8834 6.62375 39.9187C6.68221 39.9587 6.72744 40.0152 6.75369 40.0811L7.58205 41.9165L8.40809 40.0811C8.43282 40.015 8.4774 39.9583 8.53571 39.9187C8.59037 39.8814 8.65563 39.8629 8.72172 39.8658C8.7878 39.8687 8.85116 39.893 8.90232 39.9349C8.92821 39.9565 8.9491 39.9834 8.96352 40.0139C8.97795 40.0443 8.98557 40.0775 8.98585 40.1112V42.2668C8.98675 42.2861 8.98249 42.3053 8.97352 42.3225C8.96455 42.3396 8.95119 42.354 8.93481 42.3643C8.9001 42.3882 8.85862 42.4004 8.81647 42.3991C8.77438 42.4 8.73304 42.3878 8.69813 42.3643C8.68222 42.3535 8.66923 42.339 8.66032 42.322C8.65141 42.305 8.64686 42.286 8.64708 42.2668V40.2853L7.79552 42.1995C7.77498 42.2468 7.74212 42.2877 7.70039 42.3179C7.6648 42.3444 7.62177 42.359 7.57741 42.3596C7.53207 42.3583 7.48828 42.3429 7.45211 42.3156Z" fill="white"/>
<path d="M10.0926 42.2877C9.9112 42.1715 9.76702 42.0056 9.67729 41.8097C9.58182 41.5976 9.53429 41.3671 9.53807 41.1345C9.5377 40.9554 9.56671 40.7775 9.62392 40.6078C9.67419 40.4524 9.75286 40.3076 9.85596 40.1808C9.96297 40.0567 10.0961 39.9576 10.2458 39.8908C10.4097 39.8198 10.5869 39.7842 10.7655 39.7864C10.9962 39.7846 11.2233 39.843 11.4245 39.9558C11.4487 39.9664 11.4691 39.984 11.4831 40.0064C11.4972 40.0287 11.5042 40.0547 11.5034 40.0811C11.5039 40.0999 11.5007 40.1186 11.4939 40.1361C11.4872 40.1536 11.477 40.1696 11.4639 40.1832C11.4519 40.1971 11.4369 40.2083 11.4201 40.2159C11.4032 40.2235 11.385 40.2274 11.3665 40.2273C11.3463 40.2256 11.3266 40.2201 11.3085 40.211L11.2621 40.1878L11.2018 40.16L11.1298 40.1321L11.0347 40.1043L10.921 40.088C10.8738 40.0857 10.8266 40.0857 10.7795 40.088C10.6704 40.0869 10.562 40.1049 10.4592 40.1414C10.3729 40.1763 10.2941 40.2275 10.2272 40.2922C10.1593 40.36 10.1029 40.4384 10.0601 40.5243C10.0156 40.6157 9.98288 40.7123 9.96269 40.812C9.91938 41.0272 9.91938 41.2488 9.96269 41.464C9.98262 41.563 10.0154 41.6589 10.0601 41.7494C10.1021 41.8358 10.1586 41.9143 10.2272 41.9814C10.2984 42.047 10.382 42.0975 10.4732 42.1299C10.5779 42.1684 10.6888 42.1872 10.8003 42.1856C10.8965 42.1866 10.9921 42.1717 11.0834 42.1415C11.1751 42.1085 11.2636 42.0673 11.3479 42.0186C11.3689 42.0059 11.3931 41.9995 11.4175 42C11.4355 41.9998 11.4532 42.0033 11.4696 42.0105C11.4861 42.0178 11.5007 42.0284 11.5127 42.0418C11.5259 42.0543 11.5364 42.0695 11.5436 42.0862C11.5507 42.103 11.5544 42.121 11.5544 42.1392C11.553 42.1689 11.5436 42.1977 11.5273 42.2226C11.511 42.2475 11.4883 42.2676 11.4616 42.2808C11.2477 42.4169 10.9981 42.4864 10.7446 42.4803C10.5131 42.4814 10.2864 42.4144 10.0926 42.2877Z" fill="white"/>
<path d="M8.2364 70.9717H6.98342L6.76762 71.5263C6.75682 71.5624 6.7343 71.5938 6.70363 71.6157C6.67295 71.6375 6.63587 71.6485 6.59824 71.6469C6.55231 71.6467 6.50794 71.6303 6.47294 71.6005C6.4556 71.5871 6.44157 71.5699 6.43192 71.5501C6.42227 71.5304 6.41725 71.5088 6.41725 71.4868C6.41782 71.4638 6.42254 71.441 6.43118 71.4196L7.29666 69.2709C7.32106 69.192 7.36684 69.1213 7.42892 69.0667C7.48352 69.0349 7.54557 69.0182 7.60875 69.0182C7.67193 69.0182 7.73398 69.0349 7.78857 69.0667C7.85151 69.121 7.89811 69.1917 7.92315 69.2709L8.784 71.4358C8.79433 71.4567 8.79987 71.4797 8.80024 71.5031C8.7998 71.5252 8.79435 71.5469 8.7843 71.5666C8.77425 71.5863 8.75987 71.6035 8.74223 71.6168C8.70653 71.6469 8.6613 71.6633 8.61461 71.6632C8.57737 71.6643 8.54082 71.653 8.51062 71.6312C8.48042 71.6094 8.45825 71.5782 8.44755 71.5425L8.2364 70.9717ZM7.60991 69.3637L7.08551 70.7095H8.13198L7.60991 69.3637Z" fill="white"/>
<path d="M9.68669 71.5031C9.50526 71.3879 9.36101 71.2227 9.27135 71.0274C9.17589 70.8153 9.12835 70.5847 9.13213 70.3522C9.13152 70.1731 9.16052 69.9951 9.21799 69.8255C9.26824 69.6693 9.3469 69.5238 9.45002 69.3962C9.55607 69.2715 9.68948 69.1731 9.83984 69.1085C10.0032 69.0354 10.1806 68.9989 10.3596 69.0017C10.5902 69 10.8174 69.0584 11.0186 69.1711C11.0423 69.1822 11.0624 69.2 11.0764 69.2222C11.0904 69.2444 11.0977 69.2702 11.0975 69.2964C11.0978 69.3342 11.0837 69.3707 11.058 69.3985C11.046 69.4126 11.0311 69.4239 11.0142 69.4315C10.9974 69.4391 10.9791 69.4429 10.9606 69.4426C10.9398 69.4417 10.9193 69.437 10.9002 69.4287L10.8561 69.4055L10.7958 69.3753L10.7239 69.3498L10.6288 69.3219C10.5913 69.3135 10.5533 69.3073 10.5151 69.3034C10.4679 69.301 10.4207 69.301 10.3735 69.3034C10.2642 69.3018 10.1556 69.3207 10.0533 69.3591C9.96626 69.3925 9.8872 69.4439 9.82127 69.5099C9.75413 69.5778 9.69848 69.6562 9.65653 69.7419C9.61177 69.8324 9.579 69.9284 9.55908 70.0273C9.53747 70.135 9.52659 70.2446 9.52659 70.3545C9.52633 70.4644 9.53721 70.574 9.55908 70.6817C9.57853 70.78 9.61132 70.8753 9.65653 70.9647C9.69767 71.0516 9.75428 71.1302 9.8236 71.1968C9.89459 71.2631 9.97825 71.3144 10.0695 71.3476C10.1747 71.3841 10.2854 71.4021 10.3967 71.401C10.4927 71.4026 10.5884 71.3885 10.6798 71.3592C10.7711 71.3252 10.8595 71.2841 10.9443 71.2362C10.9652 71.223 10.9892 71.2158 11.0139 71.2153C11.0318 71.2151 11.0496 71.2187 11.066 71.2259C11.0824 71.2331 11.0971 71.2437 11.1091 71.2571C11.122 71.2698 11.1321 71.285 11.1389 71.3017C11.1457 71.3185 11.1489 71.3365 11.1485 71.3546C11.1472 71.3843 11.1382 71.4132 11.1223 71.4385C11.1064 71.4637 11.0843 71.4844 11.058 71.4984C10.8438 71.6337 10.5943 71.7024 10.341 71.6956C10.1085 71.6985 9.88058 71.6314 9.68669 71.5031Z" fill="white"/>
<path d="M8.24578 64.078C8.06502 63.9627 7.92156 63.7975 7.83276 63.6023C7.73729 63.3902 7.68976 63.1597 7.69354 62.9271C7.69217 62.7481 7.7204 62.5702 7.77707 62.4004C7.82747 62.2443 7.90612 62.0988 8.0091 61.9711C8.11426 61.8465 8.24691 61.7481 8.3966 61.6834C8.56087 61.6105 8.73898 61.5741 8.91868 61.5767C9.14859 61.5749 9.37497 61.6333 9.57533 61.7461C9.59658 61.7556 9.61515 61.7702 9.6294 61.7886C9.64366 61.807 9.65316 61.8286 9.65706 61.8516C9.66096 61.8745 9.65914 61.8981 9.65177 61.9201C9.64439 61.9422 9.63169 61.9621 9.61478 61.9781C9.60326 61.9921 9.58872 62.0034 9.57225 62.011C9.55578 62.0187 9.53779 62.0225 9.51964 62.0222C9.49879 62.0218 9.47825 62.017 9.45931 62.0083L9.41523 61.9851L9.35258 61.9549L9.28065 61.9294L9.18552 61.9015C9.14806 61.8929 9.11008 61.8867 9.07182 61.883C9.02467 61.8805 8.97743 61.8805 8.93028 61.883C8.82103 61.8818 8.7125 61.9007 8.61007 61.9387C8.52289 61.9719 8.44379 62.0233 8.37804 62.0895C8.3109 62.1579 8.25456 62.2361 8.21097 62.3215C8.16621 62.412 8.13345 62.508 8.11352 62.6069C8.09271 62.7147 8.08261 62.8243 8.08335 62.9341C8.08233 63.0439 8.09243 63.1535 8.11352 63.2613C8.13298 63.3596 8.16576 63.4548 8.21097 63.5443C8.25377 63.6302 8.31019 63.7085 8.37804 63.7764C8.44941 63.8422 8.53296 63.8934 8.62399 63.9272C8.72917 63.9637 8.83985 63.9817 8.95116 63.9806C9.04718 63.9824 9.14285 63.9683 9.23424 63.9388C9.32586 63.9057 9.41437 63.8645 9.49876 63.8158C9.51988 63.8032 9.54379 63.796 9.56837 63.7949C9.5866 63.7949 9.60463 63.7986 9.62138 63.8058C9.63814 63.813 9.65326 63.8235 9.66582 63.8367C9.691 63.8629 9.70512 63.8978 9.70527 63.9342C9.70397 63.9639 9.69494 63.9928 9.67907 64.0181C9.6632 64.0433 9.64105 64.064 9.61478 64.078C9.40038 64.2128 9.15098 64.2814 8.89779 64.2752C8.66561 64.2762 8.43848 64.2075 8.24578 64.078Z" fill="white"/>
<path d="M7.32467 48.2812C7.21613 48.134 7.15757 47.9559 7.15757 47.773C7.15757 47.5901 7.21613 47.412 7.32467 47.2648C7.3801 47.1962 7.45115 47.1419 7.53189 47.1063C7.61263 47.0708 7.7007 47.0552 7.78874 47.0607C7.88495 47.0592 7.98021 47.0798 8.06718 47.121C8.14547 47.1589 8.21321 47.2154 8.26441 47.2857C8.31265 47.3569 8.34945 47.4352 8.37347 47.5178C8.39893 47.6012 8.41145 47.6881 8.41059 47.7753C8.41694 47.9595 8.35682 48.1399 8.24121 48.2835C8.184 48.3467 8.11418 48.3972 8.03625 48.4318C7.95831 48.4664 7.874 48.4842 7.78874 48.4842C7.70348 48.4842 7.61917 48.4664 7.54124 48.4318C7.46331 48.3972 7.39349 48.3467 7.33628 48.2835L7.32467 48.2812ZM7.98133 48.2023C8.03497 48.1525 8.07424 48.0891 8.09503 48.019C8.11647 47.938 8.12662 47.8544 8.12519 47.7707C8.12343 47.6913 8.11094 47.6124 8.08807 47.5363C8.0684 47.4656 8.02895 47.402 7.97437 47.353C7.91825 47.3032 7.84521 47.2766 7.77018 47.2788C7.69582 47.2765 7.62347 47.3031 7.56831 47.353C7.51449 47.4027 7.47519 47.466 7.45461 47.5363C7.43303 47.6165 7.42288 47.6993 7.42445 47.7823C7.42302 47.866 7.43317 47.9496 7.45461 48.0306C7.47629 48.1003 7.51543 48.1634 7.56831 48.2139C7.62347 48.2638 7.69582 48.2904 7.77018 48.2881C7.80931 48.2885 7.84814 48.2812 7.88439 48.2664C7.92064 48.2517 7.9536 48.2299 7.98133 48.2023ZM7.80266 49.7267C7.79236 49.7173 7.78414 49.7058 7.77854 49.693C7.77295 49.6803 7.7701 49.6664 7.77018 49.6525C7.77201 49.6302 7.77918 49.6087 7.79106 49.5898L9.21343 47.0723C9.22256 47.052 9.23719 47.0348 9.25565 47.0225C9.27411 47.0102 9.29567 47.0033 9.31785 47.0027C9.33162 47.0024 9.34529 47.005 9.35805 47.0101C9.37081 47.0153 9.38239 47.023 9.3921 47.0328C9.41156 47.0535 9.42235 47.0809 9.42226 47.1094C9.42058 47.1364 9.41263 47.1626 9.39906 47.186L7.98133 49.6873C7.97277 49.707 7.95892 49.7239 7.9413 49.7362C7.92368 49.7485 7.903 49.7557 7.88156 49.7569C7.8524 49.7571 7.82424 49.7463 7.80266 49.7267ZM9.07653 49.4947C8.96334 49.3483 8.90504 49.1668 8.91179 48.9819C8.90552 48.7991 8.96569 48.6202 9.08117 48.4784C9.13506 48.4116 9.20384 48.3583 9.28201 48.3229C9.36017 48.2874 9.44555 48.2707 9.53132 48.2742C9.62779 48.2727 9.72323 48.2942 9.80976 48.3368C9.88769 48.3732 9.95485 48.4292 10.0047 48.4993C10.0531 48.5703 10.0899 48.6487 10.1137 48.7313C10.1389 48.8148 10.1514 48.9016 10.1508 48.9889C10.1531 49.1118 10.1285 49.2337 10.0789 49.3462C10.0323 49.4504 9.95757 49.5396 9.86312 49.6037C9.74091 49.6819 9.59509 49.7145 9.45126 49.6958C9.30742 49.6771 9.17475 49.6084 9.07653 49.5017V49.4947ZM9.73318 49.4135C9.78648 49.3643 9.82572 49.3018 9.84688 49.2325C9.8683 49.1507 9.87845 49.0664 9.87705 48.9819C9.87823 48.9187 9.872 48.8557 9.85848 48.794C9.84767 48.7389 9.82892 48.6858 9.80279 48.6362C9.77724 48.5868 9.73812 48.5457 9.69004 48.5177C9.64195 48.4898 9.58689 48.4761 9.53132 48.4784C9.45628 48.4762 9.38325 48.5028 9.32712 48.5526C9.27339 48.602 9.23477 48.6655 9.21575 48.7359C9.17243 48.8978 9.17243 49.0683 9.21575 49.2302C9.23477 49.3006 9.27339 49.3642 9.32712 49.4135C9.38325 49.4633 9.45628 49.4899 9.53132 49.4877C9.60664 49.4881 9.67912 49.459 9.73318 49.4065V49.4135Z" fill="white"/>
<path d="M16.8866 49.5806C16.8689 49.5659 16.8547 49.5475 16.845 49.5266C16.8354 49.5057 16.8306 49.4829 16.8309 49.4599C16.8314 49.4326 16.8377 49.4057 16.8495 49.381L17.7405 47.3345H16.5409C16.5206 47.3352 16.5004 47.3317 16.4817 47.3241C16.4629 47.3165 16.4459 47.305 16.4318 47.2904C16.4062 47.2625 16.392 47.2261 16.392 47.1883C16.392 47.1505 16.4062 47.114 16.4318 47.0862C16.4455 47.0711 16.4624 47.0592 16.4813 47.0516C16.5002 47.044 16.5206 47.0407 16.5409 47.0421H17.9331C17.9872 47.0395 18.0406 47.0559 18.0839 47.0885C18.1016 47.1041 18.1156 47.1234 18.1248 47.1451C18.134 47.1668 18.1383 47.1903 18.1373 47.2138C18.1368 47.2673 18.1258 47.3201 18.1048 47.3693L17.1767 49.5272C17.1652 49.5587 17.1439 49.5857 17.1159 49.6041C17.0879 49.6224 17.0547 49.6313 17.0212 49.6293C16.9718 49.6307 16.9237 49.6133 16.8866 49.5806Z" fill="white"/>
<path d="M25.2584 49.5875C25.1292 49.5364 25.0178 49.4485 24.9382 49.3346C24.856 49.2172 24.8137 49.0764 24.8176 48.9331C24.8152 48.7815 24.8625 48.6332 24.9521 48.5108C25.0467 48.3888 25.1831 48.3062 25.335 48.2788C25.1946 48.2532 25.0684 48.1773 24.98 48.0653C24.8982 47.9547 24.8558 47.82 24.8593 47.6825C24.8558 47.5453 24.8974 47.4108 24.9777 47.2996C25.0552 47.1943 25.1616 47.1138 25.2839 47.0676C25.4216 47.0149 25.5681 46.9889 25.7155 46.991C25.8291 46.9909 25.9422 47.0057 26.052 47.0351C26.1489 47.0634 26.2406 47.1072 26.3235 47.165C26.402 47.2227 26.4656 47.2983 26.5091 47.3855C26.5545 47.4795 26.5775 47.5827 26.5764 47.6871C26.5805 47.8258 26.5371 47.9617 26.4534 48.0723C26.3653 48.1819 26.2411 48.2568 26.103 48.2834C26.2536 48.3161 26.389 48.3977 26.4882 48.5155C26.5771 48.6353 26.6229 48.7817 26.6181 48.9308C26.6201 49.0738 26.578 49.214 26.4975 49.3322C26.4165 49.4458 26.3045 49.5336 26.175 49.5852C25.879 49.6934 25.5543 49.6934 25.2584 49.5852V49.5875ZM26.1007 49.2789C26.1513 49.2379 26.1913 49.1852 26.2171 49.1254C26.243 49.0656 26.254 49.0004 26.2492 48.9355C26.2527 48.867 26.241 48.7986 26.2149 48.7352C26.1888 48.6719 26.149 48.615 26.0984 48.5689C25.9915 48.4811 25.8561 48.4357 25.7178 48.4412C25.5789 48.4355 25.4427 48.4809 25.335 48.5689C25.2839 48.6148 25.2437 48.6715 25.2172 48.7349C25.1907 48.7983 25.1786 48.8668 25.1819 48.9355C25.1788 49.0277 25.2048 49.1186 25.2561 49.1953C25.3039 49.2636 25.371 49.3161 25.4487 49.3462C25.5345 49.3793 25.6259 49.395 25.7178 49.3926C25.8523 49.3971 25.9844 49.3572 26.0937 49.2789H26.1007ZM26.1007 48.0027C26.147 47.9628 26.1835 47.9127 26.2072 47.8563C26.231 47.8 26.2414 47.7389 26.2376 47.6778C26.2421 47.6165 26.231 47.555 26.2055 47.499C26.1799 47.4431 26.1407 47.3945 26.0914 47.3576C25.9842 47.2851 25.8566 47.2485 25.7271 47.2532C25.663 47.2535 25.5992 47.2613 25.5369 47.2764C25.4793 47.2917 25.4245 47.316 25.3744 47.3484C25.3242 47.3817 25.284 47.4283 25.2584 47.4829C25.2295 47.5437 25.2152 47.6105 25.2167 47.6778C25.2129 47.7389 25.2233 47.8 25.2471 47.8563C25.2708 47.9127 25.3073 47.9628 25.3536 48.0027C25.4646 48.0754 25.5944 48.1141 25.7271 48.1141C25.8598 48.1141 25.9897 48.0754 26.1007 48.0027Z" fill="white"/>
<path d="M33.1987 49.5341C33.1768 49.5246 33.1584 49.5086 33.1459 49.4883C33.1335 49.4679 33.1276 49.4442 33.1291 49.4204C33.1294 49.3792 33.1433 49.3393 33.1685 49.3067C33.1791 49.291 33.1932 49.278 33.2097 49.2687C33.2263 49.2594 33.2447 49.2542 33.2637 49.2534C33.279 49.2542 33.294 49.2582 33.3078 49.265C33.4523 49.3357 33.6109 49.373 33.7718 49.374C33.8501 49.376 33.9283 49.3667 34.0039 49.3462C34.0641 49.3301 34.1214 49.3042 34.1732 49.2696C34.2208 49.2356 34.2617 49.1931 34.2939 49.1443C34.3281 49.0937 34.3561 49.0391 34.3774 48.9819C34.401 48.9164 34.4181 48.8488 34.4285 48.78C34.4418 48.7033 34.4504 48.6258 34.454 48.548C34.454 48.4737 34.454 48.3879 34.454 48.2951C34.4151 48.4058 34.3377 48.4988 34.2359 48.5573C34.1119 48.6339 33.9686 48.6734 33.8229 48.671C33.7125 48.6754 33.6024 48.6571 33.4994 48.6172C33.3964 48.5773 33.3028 48.5166 33.2242 48.4389C33.1473 48.3603 33.0871 48.267 33.0472 48.1645C33.0073 48.062 32.9886 47.9525 32.9922 47.8426C32.987 47.729 33.005 47.6156 33.0448 47.5091C33.0847 47.4026 33.1457 47.3053 33.2242 47.2231C33.3091 47.1429 33.4095 47.081 33.5193 47.0411C33.629 47.0012 33.7458 46.9842 33.8623 46.991C33.992 46.9897 34.1209 47.0117 34.2428 47.056C34.3454 47.0939 34.4388 47.1532 34.5166 47.23C34.5908 47.3069 34.6505 47.3965 34.693 47.4945C34.7394 47.5966 34.7721 47.7042 34.7904 47.8148C34.8096 47.9337 34.8189 48.054 34.8183 48.1744C34.8183 48.2811 34.8183 48.3786 34.8183 48.4714C34.8183 48.5642 34.7974 48.6617 34.7788 48.7661C34.7607 48.8618 34.7343 48.9557 34.7 49.0469C34.6678 49.1343 34.6241 49.217 34.57 49.2928C34.5183 49.3702 34.454 49.4385 34.3797 49.4947C34.2995 49.5526 34.2101 49.5965 34.1152 49.6246C34.0012 49.6564 33.8832 49.672 33.7649 49.671C33.568 49.6707 33.374 49.6238 33.1987 49.5341ZM34.2684 48.2603C34.3196 48.2035 34.3591 48.1372 34.3845 48.0651C34.41 47.993 34.421 47.9166 34.4169 47.8403C34.4218 47.6938 34.3722 47.5508 34.2777 47.4389C34.2289 47.3838 34.1682 47.3406 34.1003 47.3125C34.0324 47.2843 33.9589 47.272 33.8855 47.2764C33.8113 47.2716 33.737 47.2829 33.6676 47.3098C33.5983 47.3366 33.5356 47.3783 33.4841 47.4319C33.3866 47.5467 33.3368 47.6945 33.3449 47.8449C33.3382 47.9925 33.3834 48.1378 33.4725 48.2556C33.5176 48.3107 33.5753 48.354 33.6408 48.3818C33.7062 48.4097 33.7775 48.4213 33.8484 48.4157C33.9254 48.4209 34.0026 48.4097 34.075 48.3829C34.1474 48.3561 34.2133 48.3143 34.2684 48.2603Z" fill="white"/>
<path d="M17.6293 56.7782C17.6118 56.7634 17.5979 56.7449 17.5887 56.724C17.5795 56.7031 17.5751 56.6804 17.5759 56.6575V56.2561H16.5364C16.5111 56.2571 16.4858 56.2525 16.4625 56.2424C16.4392 56.2324 16.4185 56.2172 16.4018 56.1981C16.368 56.1625 16.3496 56.115 16.3508 56.0658C16.3516 56.0258 16.3628 55.9866 16.3833 55.9521L17.3787 54.3906C17.408 54.3378 17.4512 54.2939 17.5035 54.2637C17.5558 54.2335 17.6153 54.218 17.6757 54.2189C17.7417 54.2168 17.8061 54.2391 17.8567 54.2815C17.8827 54.3055 17.903 54.3351 17.9159 54.368C17.9287 54.401 17.9339 54.4365 17.9309 54.4718V55.9893H18.1931C18.2116 55.9882 18.2301 55.9912 18.2474 55.998C18.2646 56.0048 18.2801 56.0153 18.2929 56.0287C18.3157 56.0542 18.3281 56.0873 18.3277 56.1215C18.3287 56.1565 18.3162 56.1906 18.2929 56.2167C18.2801 56.2301 18.2646 56.2406 18.2474 56.2474C18.2301 56.2542 18.2116 56.2572 18.1931 56.2561H17.9286V56.6575C17.9294 56.6804 17.9251 56.7031 17.9158 56.724C17.9066 56.7449 17.8927 56.7634 17.8752 56.7782C17.8418 56.8071 17.7988 56.8228 17.7546 56.8223C17.7089 56.8229 17.6645 56.8073 17.6293 56.7782ZM17.5759 55.9893V54.5971L16.7058 55.9893H17.5759Z" fill="white"/>
<path d="M25.3211 56.7875C25.1926 56.7355 25.074 56.6617 24.9707 56.5694C24.9593 56.5597 24.9503 56.5476 24.9443 56.5339C24.9383 56.5202 24.9354 56.5054 24.9359 56.4905C24.937 56.4478 24.9544 56.4071 24.9846 56.3768C24.9973 56.3611 25.0131 56.3482 25.0311 56.339C25.0491 56.3298 25.0688 56.3245 25.089 56.3234C25.1127 56.3234 25.1357 56.3316 25.154 56.3466C25.3124 56.4893 25.5186 56.5671 25.7318 56.5648C25.8062 56.5702 25.8811 56.56 25.9514 56.5348C26.0217 56.5096 26.086 56.47 26.1401 56.4186C26.2382 56.3041 26.2881 56.1561 26.2794 56.0055C26.2852 55.8629 26.2362 55.7234 26.1425 55.6157C26.0966 55.5661 26.0404 55.5271 25.9779 55.5015C25.9154 55.4758 25.848 55.4641 25.7805 55.4672C25.6801 55.4685 25.5811 55.4914 25.4904 55.5345C25.4013 55.5717 25.3219 55.6288 25.2584 55.7016C25.2486 55.71 25.2371 55.7165 25.2248 55.7204C25.2124 55.7244 25.1994 55.7259 25.1865 55.7248C25.1345 55.7238 25.0836 55.7103 25.038 55.6853C24.9869 55.6575 24.9637 55.6273 24.9637 55.5902V54.4022C24.9637 54.2931 25.0217 54.2375 25.1401 54.2375H26.3327C26.3515 54.2362 26.3702 54.2393 26.3875 54.2465C26.4049 54.2538 26.4203 54.265 26.4325 54.2792C26.4561 54.3063 26.4692 54.3408 26.4696 54.3767C26.4701 54.4123 26.4577 54.4469 26.4348 54.4741C26.4216 54.4876 26.4056 54.4981 26.388 54.5049C26.3704 54.5117 26.3516 54.5147 26.3327 54.5136H25.2584V55.393L25.2816 55.3698C25.3018 55.351 25.3235 55.3339 25.3466 55.3187C25.3823 55.2954 25.4195 55.2744 25.458 55.2561C25.5094 55.2336 25.5631 55.2165 25.6181 55.205C25.6868 55.191 25.7567 55.184 25.8269 55.1841C25.9349 55.1788 26.0429 55.1967 26.1433 55.2368C26.2438 55.2768 26.3345 55.338 26.4093 55.4162C26.5591 55.5787 26.6383 55.794 26.6297 56.0148C26.6344 56.1291 26.6146 56.243 26.5718 56.349C26.529 56.455 26.4641 56.5507 26.3814 56.6297C26.208 56.7872 25.9798 56.8705 25.7457 56.8618C25.6007 56.8641 25.4566 56.8389 25.3211 56.7875Z" fill="white"/>
<path d="M33.5747 56.7944C33.4712 56.7583 33.3775 56.6987 33.3009 56.6204C33.2268 56.5444 33.167 56.4555 33.1245 56.3582C33.0784 56.2553 33.0457 56.1469 33.0271 56.0357C33.0079 55.9168 32.9985 55.7965 32.9992 55.676C32.9992 55.5716 32.9992 55.4719 32.9992 55.3814C33.0071 55.2824 33.0211 55.184 33.041 55.0867C33.0573 54.9901 33.083 54.8953 33.1176 54.8036C33.1512 54.7168 33.1948 54.6343 33.2475 54.5576C33.3571 54.3951 33.522 54.278 33.7116 54.2282C33.8244 54.1943 33.9418 54.1779 34.0596 54.1794C34.2553 54.1809 34.4482 54.227 34.6235 54.314C34.6449 54.3245 34.6627 54.3411 34.6747 54.3618C34.6867 54.3825 34.6923 54.4062 34.6908 54.43C34.6901 54.4712 34.6763 54.511 34.6513 54.5437C34.6409 54.5594 34.6268 54.5723 34.6102 54.5813C34.5936 54.5902 34.575 54.5948 34.5562 54.5948C34.5407 54.5948 34.5255 54.5908 34.5121 54.5832C34.3672 54.5135 34.2088 54.4763 34.048 54.4741C33.9736 54.4732 33.8994 54.4826 33.8276 54.5019C33.7683 54.5197 33.712 54.5463 33.6605 54.5808C33.6119 54.6144 33.5702 54.6569 33.5375 54.7061C33.5029 54.7565 33.4748 54.8111 33.454 54.8686C33.4302 54.9331 33.4131 55 33.403 55.0681C33.3898 55.1449 33.3813 55.2224 33.3774 55.3001C33.3774 55.3744 33.3774 55.4579 33.3774 55.5531C33.4142 55.4411 33.4922 55.3474 33.5956 55.2909C33.7189 55.2128 33.8627 55.1732 34.0086 55.1772C34.1187 55.1714 34.2287 55.189 34.3316 55.2286C34.4344 55.2683 34.5277 55.3292 34.6054 55.4074C34.6832 55.4855 34.7435 55.5792 34.7826 55.6823C34.8217 55.7853 34.8386 55.8955 34.8323 56.0055C34.8373 56.1187 34.8193 56.2318 34.7794 56.3379C34.7395 56.4439 34.6786 56.5408 34.6003 56.6227C34.5153 56.7029 34.4149 56.7648 34.3052 56.8047C34.1955 56.8446 34.0787 56.8617 33.9622 56.8548C33.8303 56.8601 33.6987 56.8396 33.5747 56.7944ZM33.5538 55.5902C33.4592 55.7062 33.4075 55.8512 33.4075 56.0009C33.4075 56.1506 33.4592 56.2956 33.5538 56.4116C33.6031 56.4658 33.6639 56.5083 33.7317 56.536C33.7996 56.5637 33.8728 56.5759 33.9459 56.5717C34.0199 56.5766 34.0941 56.5654 34.1634 56.539C34.2326 56.5125 34.2954 56.4715 34.3473 56.4186C34.4448 56.3028 34.4945 56.1543 34.4866 56.0032C34.4927 55.856 34.4485 55.7112 34.3613 55.5925C34.3147 55.5386 34.2564 55.4961 34.1908 55.4683C34.1252 55.4406 34.0542 55.4283 33.9831 55.4324C33.9044 55.4264 33.8253 55.4373 33.7512 55.4646C33.6772 55.4918 33.6098 55.5346 33.5538 55.5902Z" fill="white"/>
<path d="M17.2927 64.3147C17.2749 64.2987 17.2608 64.279 17.2515 64.2569C17.2423 64.2348 17.2381 64.211 17.2394 64.1871V62.1544L16.8472 62.3865C16.8257 62.4 16.8007 62.4072 16.7753 62.4074C16.7492 62.4053 16.7243 62.3954 16.7039 62.3789C16.6835 62.3625 16.6686 62.3403 16.6611 62.3152C16.6536 62.2901 16.6538 62.2633 16.6617 62.2383C16.6697 62.2134 16.685 62.1914 16.7057 62.1753L17.3299 61.7855C17.3601 61.7679 17.3946 61.759 17.4296 61.76C17.4522 61.7591 17.4747 61.7628 17.4958 61.7708C17.5169 61.7787 17.5362 61.7909 17.5526 61.8064C17.5696 61.8237 17.5828 61.8445 17.5912 61.8673C17.5996 61.8901 17.603 61.9144 17.6013 61.9387V64.1871C17.6025 64.211 17.5984 64.2348 17.5891 64.2569C17.5799 64.279 17.5658 64.2987 17.548 64.3147C17.5114 64.3449 17.4654 64.3614 17.418 64.3611C17.3721 64.3607 17.3278 64.3443 17.2927 64.3147Z" fill="white"/>
<path d="M26.4348 62.8714C26.3482 63.0241 26.236 63.1607 26.103 63.2751L25.2723 64.0849H26.3675C26.387 64.0839 26.4066 64.0869 26.4249 64.0937C26.4433 64.1004 26.46 64.1109 26.4742 64.1244C26.4987 64.1508 26.5121 64.1858 26.5113 64.2218C26.5121 64.2397 26.5092 64.2576 26.5028 64.2744C26.4964 64.2911 26.4867 64.3064 26.4742 64.3193C26.4605 64.3335 26.4438 64.3447 26.4254 64.3519C26.407 64.3591 26.3872 64.3622 26.3675 64.3611H25.1145C25.0529 64.3633 24.9923 64.3445 24.9428 64.3077C24.9223 64.2918 24.9057 64.2714 24.8944 64.2481C24.8831 64.2247 24.8775 64.199 24.8778 64.1731C24.8792 64.1391 24.8876 64.1056 24.9023 64.0749C24.9171 64.0442 24.938 64.0168 24.9637 63.9944L25.9104 63.0361C25.9936 62.9526 26.0661 62.8591 26.1262 62.7577C26.1706 62.6807 26.1946 62.5937 26.1958 62.5048C26.198 62.4403 26.1868 62.376 26.1629 62.3161C26.1389 62.2561 26.1027 62.2019 26.0565 62.1567C26.0112 62.1133 25.9578 62.0792 25.8992 62.0565C25.8407 62.0338 25.7782 62.0229 25.7155 62.0245C25.6375 62.023 25.5596 62.0308 25.4834 62.0477C25.4344 62.0567 25.3863 62.0699 25.3396 62.0871C25.2955 62.1065 25.2529 62.129 25.2119 62.1544L25.1099 62.2147C25.093 62.2222 25.0749 62.2261 25.0565 62.2263C25.0375 62.2264 25.0187 62.2222 25.0014 62.2142C24.9842 62.2062 24.9689 62.1945 24.9567 62.1799C24.9426 62.1665 24.9313 62.1503 24.9238 62.1323C24.9162 62.1144 24.9124 62.095 24.9126 62.0755C24.9128 62.0523 24.9194 62.0296 24.9317 62.01C24.944 61.9903 24.9615 61.9744 24.9822 61.9641C25.0909 61.8958 25.2069 61.8398 25.328 61.7971C25.459 61.7548 25.5964 61.7352 25.734 61.7391C25.9442 61.7328 26.1484 61.8095 26.3025 61.9525C26.3756 62.0179 26.4341 62.098 26.4741 62.1876C26.5141 62.2772 26.5347 62.3742 26.5345 62.4723C26.5351 62.6116 26.5008 62.7488 26.4348 62.8714Z" fill="white"/>
<path d="M33.2475 64.2637C33.2201 64.2531 33.1964 64.2347 33.1795 64.2108C33.1626 64.1868 33.1531 64.1584 33.1523 64.1291C33.1517 64.0894 33.1667 64.051 33.1941 64.0223C33.2061 64.0081 33.221 63.9965 33.2378 63.9885C33.2546 63.9805 33.2729 63.9762 33.2916 63.9759C33.307 63.9742 33.3225 63.9742 33.338 63.9759C33.4941 64.0526 33.6652 64.0938 33.8392 64.0966C33.9789 64.1034 34.1169 64.0634 34.2313 63.9829C34.2806 63.9464 34.3202 63.8983 34.3465 63.8428C34.3728 63.7874 34.385 63.7263 34.3821 63.665C34.3849 63.5924 34.3707 63.5201 34.3404 63.454C34.3102 63.3879 34.2649 63.3298 34.2081 63.2845C34.0826 63.1864 33.9263 63.1363 33.7672 63.1429H33.635C33.6171 63.1445 33.5991 63.1417 33.5826 63.1349C33.566 63.128 33.5513 63.1172 33.5398 63.1035C33.5281 63.0911 33.519 63.0765 33.513 63.0606C33.5071 63.0447 33.5043 63.0277 33.505 63.0107C33.504 62.9757 33.5165 62.9416 33.5398 62.9155C33.5513 62.9018 33.566 62.891 33.5826 62.8842C33.5991 62.8773 33.6171 62.8745 33.635 62.8761H33.7533C33.8984 62.883 34.0419 62.8423 34.1617 62.7601C34.2126 62.7206 34.2531 62.6694 34.2798 62.6108C34.3065 62.5522 34.3185 62.4879 34.3148 62.4236C34.3177 62.3648 34.3066 62.3062 34.2824 62.2525C34.2582 62.1989 34.2216 62.1517 34.1756 62.115C34.0767 62.041 33.9557 62.0025 33.8322 62.006C33.6469 62.0049 33.464 62.0479 33.2985 62.1313C33.2847 62.1339 33.2705 62.1339 33.2567 62.1313C33.2375 62.1306 33.2186 62.1255 33.2017 62.1162C33.1847 62.1069 33.1702 62.0938 33.1593 62.0779C33.1324 62.0461 33.1176 62.0058 33.1175 61.9642C33.1168 61.9429 33.122 61.9218 33.1327 61.9033C33.1434 61.8849 33.159 61.8698 33.1779 61.8598C33.2654 61.8124 33.3591 61.7772 33.4563 61.7554C33.5803 61.7211 33.7082 61.7031 33.8368 61.702C33.9825 61.7001 34.1273 61.7253 34.2638 61.7763C34.3848 61.8237 34.4901 61.9041 34.5677 62.0083C34.6467 62.1235 34.6873 62.2608 34.6838 62.4004C34.6878 62.5323 34.645 62.6613 34.5631 62.7647C34.4785 62.8646 34.3676 62.9385 34.2429 62.9782C34.3892 63.0084 34.5196 63.0909 34.6095 63.2102C34.702 63.3348 34.7501 63.4867 34.7464 63.6418C34.748 63.756 34.7225 63.8689 34.6722 63.9713C34.626 64.0647 34.5564 64.1446 34.4703 64.2033C34.3845 64.2612 34.2896 64.3044 34.1895 64.3309C34.0804 64.3594 33.9681 64.3734 33.8554 64.3727C33.6468 64.3875 33.4379 64.35 33.2475 64.2637Z" fill="white"/>
<path d="M16.9216 71.4056C16.8198 71.3604 16.7294 71.293 16.6571 71.2084C16.5859 71.1185 16.5302 71.0173 16.4923 70.9091C16.4486 70.7922 16.4182 70.6708 16.4018 70.5471C16.3846 70.4125 16.376 70.2768 16.3763 70.1411C16.3763 69.2454 16.6818 68.7976 17.2928 68.7976C17.9008 68.7976 18.207 69.2454 18.207 70.1411C18.2072 70.276 18.1987 70.4109 18.1815 70.5448C18.1651 70.6685 18.1347 70.7899 18.091 70.9068C18.0542 71.0155 17.9984 71.1168 17.9263 71.2061C17.855 71.2909 17.7653 71.3583 17.6641 71.4033C17.5474 71.4552 17.4206 71.4806 17.2928 71.4776C17.1653 71.4806 17.0387 71.4561 16.9216 71.4056ZM17.4738 71.1481C17.5248 71.126 17.5713 71.0945 17.6107 71.0553C17.649 71.012 17.681 70.9636 17.7059 70.9114C17.7329 70.8564 17.7547 70.7989 17.7708 70.7397C17.7878 70.6749 17.8002 70.609 17.8079 70.5425C17.8079 70.4682 17.8242 70.4009 17.8265 70.3383C17.8288 70.2756 17.8265 70.2107 17.8265 70.1411C17.8265 70.0714 17.8265 69.9949 17.8265 69.9322C17.8265 69.8696 17.8265 69.8 17.8079 69.7257C17.7997 69.6591 17.7865 69.5931 17.7685 69.5285C17.7523 69.4693 17.7306 69.4118 17.7035 69.3568C17.6804 69.3051 17.6481 69.2579 17.6084 69.2176C17.5694 69.1783 17.5228 69.1475 17.4715 69.1271C17.3561 69.0807 17.2273 69.0807 17.1118 69.1271C17.0618 69.1476 17.0161 69.1775 16.9773 69.2152C16.9375 69.2561 16.9046 69.3031 16.8798 69.3545C16.8527 69.4095 16.831 69.467 16.8148 69.5262C16.8009 69.5842 16.7893 69.6515 16.7777 69.7257C16.7661 69.8 16.7615 69.8672 16.7592 69.9322C16.7568 69.9972 16.7592 70.0645 16.7592 70.1411C16.7592 70.2176 16.7592 70.278 16.7592 70.3406C16.7592 70.4032 16.7592 70.4705 16.7777 70.5425C16.7852 70.609 16.7976 70.675 16.8148 70.7397C16.831 70.7996 16.8527 70.8579 16.8798 70.9137C16.9032 70.966 16.9354 71.0138 16.9749 71.0553C17.014 71.095 17.0605 71.1265 17.1118 71.1481C17.1691 71.172 17.2307 71.1839 17.2928 71.1829C17.3549 71.1835 17.4164 71.1717 17.4738 71.1481Z" fill="white"/>
<path d="M25.3744 70.5656C25.2991 70.488 25.2574 70.3838 25.2584 70.2756C25.2581 70.2203 25.2693 70.1656 25.2913 70.1149C25.3133 70.0641 25.3455 70.0185 25.386 69.9809C25.4298 69.9376 25.4821 69.9039 25.5397 69.8819C25.5972 69.8599 25.6587 69.8502 25.7202 69.8533C25.843 69.8495 25.9623 69.8945 26.052 69.9786C26.0927 70.0166 26.125 70.0626 26.147 70.1137C26.169 70.1648 26.1801 70.22 26.1796 70.2756C26.1801 70.3317 26.1692 70.3874 26.1477 70.4392C26.1261 70.491 26.0944 70.538 26.0543 70.5772C26.0096 70.6191 25.9571 70.6518 25.8998 70.6733C25.8424 70.6948 25.7814 70.7047 25.7202 70.7025C25.6562 70.7048 25.5925 70.6938 25.533 70.6702C25.4735 70.6467 25.4195 70.6111 25.3744 70.5656Z" fill="white"/>
<path d="M42.2201 40.0022C42.1812 39.9645 42.1503 39.9194 42.1292 39.8696C42.1081 39.8198 42.0972 39.7662 42.0972 39.7121C42.0972 39.658 42.1081 39.6044 42.1292 39.5546C42.1503 39.5048 42.1812 39.4597 42.2201 39.4221C42.3097 39.3437 42.4247 39.3006 42.5438 39.3006C42.6628 39.3006 42.7778 39.3437 42.8674 39.4221C42.9073 39.4591 42.939 39.504 42.9606 39.5539C42.9822 39.6039 42.9931 39.6577 42.9927 39.7121C42.993 39.7666 42.9823 39.8206 42.9612 39.8709C42.94 39.9211 42.9089 39.9666 42.8698 40.0045C42.7802 40.0839 42.6646 40.1278 42.5449 40.1278C42.4252 40.1278 42.3096 40.0839 42.2201 40.0045V40.0022Z" fill="white"/>
<path d="M42.2202 42.4316C42.1809 42.3932 42.1498 42.3474 42.1287 42.2967C42.1076 42.2461 42.0968 42.1917 42.0972 42.1369C42.0972 42.0834 42.1081 42.0306 42.1292 41.9815C42.1504 41.9324 42.1813 41.8882 42.2202 41.8515C42.263 41.8098 42.3139 41.7774 42.3698 41.7563C42.4257 41.7351 42.4853 41.7257 42.545 41.7285C42.6041 41.7259 42.6631 41.7353 42.7185 41.756C42.774 41.7768 42.8246 41.8084 42.8676 41.8492C42.9073 41.8857 42.939 41.9302 42.9606 41.9798C42.9822 42.0293 42.9932 42.0828 42.9928 42.1369C42.9932 42.1917 42.9825 42.2461 42.9614 42.2967C42.9402 42.3474 42.9091 42.3932 42.8699 42.4316C42.7803 42.511 42.6647 42.5549 42.545 42.5549C42.4253 42.5549 42.3097 42.511 42.2202 42.4316Z" fill="white"/>
<path d="M32.6835 70.0436C32.663 70.0242 32.6467 70.0008 32.6355 69.9748C32.6244 69.9489 32.6186 69.921 32.6185 69.8928C32.6173 69.8631 32.6227 69.8336 32.6343 69.8063C32.646 69.779 32.6636 69.7546 32.6858 69.735C32.7332 69.6937 32.7947 69.6721 32.8575 69.6747H35.44C35.4705 69.6733 35.5009 69.6779 35.5296 69.6882C35.5582 69.6986 35.5846 69.7145 35.6071 69.735C35.6307 69.7537 35.6496 69.7778 35.6621 69.8052C35.6746 69.8326 35.6804 69.8627 35.679 69.8928C35.6795 69.9221 35.6733 69.9511 35.6608 69.9777C35.6483 70.0042 35.63 70.0276 35.6071 70.0459C35.5606 70.0858 35.5012 70.1072 35.44 70.1062H32.8413C32.7826 70.106 32.7263 70.0837 32.6835 70.0436ZM32.6835 71.2339C32.6626 71.2153 32.646 71.1924 32.6348 71.1668C32.6236 71.1411 32.618 71.1134 32.6185 71.0854C32.6178 71.0558 32.6234 71.0264 32.635 70.9992C32.6466 70.972 32.6639 70.9476 32.6858 70.9276C32.7338 70.8873 32.7948 70.8659 32.8575 70.8673H35.4493C35.5092 70.8657 35.5674 70.8873 35.6117 70.9276C35.634 70.9473 35.6516 70.9716 35.6632 70.9989C35.6748 71.0262 35.6803 71.0558 35.679 71.0854C35.6796 71.1142 35.6736 71.1427 35.6616 71.1688C35.6495 71.195 35.6317 71.218 35.6094 71.2363C35.563 71.2761 35.5035 71.2975 35.4424 71.2966H32.832C32.7778 71.2967 32.7252 71.2778 32.6835 71.2432V71.2339Z" fill="white"/>
<path d="M42.3407 48.5758L41.6145 49.5504C41.5987 49.5751 41.5771 49.5956 41.5517 49.6102C41.5262 49.6247 41.4976 49.6329 41.4683 49.6339C41.4475 49.6341 41.427 49.6301 41.4078 49.6221C41.3887 49.6141 41.3714 49.6024 41.3569 49.5875C41.3417 49.5737 41.3295 49.5568 41.3211 49.5381C41.3127 49.5193 41.3083 49.499 41.3082 49.4784C41.3083 49.4422 41.3206 49.4071 41.343 49.3787L42.1528 48.3206L41.3917 47.2834C41.3729 47.2615 41.363 47.2333 41.3639 47.2045C41.3644 47.1811 41.3698 47.158 41.3798 47.1368C41.3898 47.1157 41.4041 47.0968 41.4219 47.0815C41.4565 47.0474 41.5032 47.0282 41.5518 47.0282C41.5798 47.0286 41.6072 47.0361 41.6315 47.0499C41.6558 47.0636 41.6763 47.0833 41.691 47.107L42.3871 48.0514L43.0832 47.1094C43.0998 47.0843 43.1221 47.0636 43.1484 47.049C43.1746 47.0345 43.204 47.0265 43.2341 47.0258C43.2738 47.0252 43.3121 47.0402 43.3408 47.0676C43.3548 47.0801 43.366 47.0955 43.3736 47.1127C43.3812 47.1299 43.3851 47.1486 43.3849 47.1674C43.3844 47.201 43.373 47.2336 43.3524 47.2602L42.5704 48.3113L43.3478 49.374C43.3681 49.4008 43.3794 49.4333 43.3802 49.4668C43.3796 49.4889 43.3741 49.5106 43.3641 49.5302C43.354 49.5499 43.3398 49.5671 43.3222 49.5805C43.286 49.6116 43.24 49.6289 43.1923 49.6293C43.1652 49.63 43.1384 49.6238 43.1144 49.6112C43.0905 49.5986 43.0701 49.5801 43.0554 49.5573L42.3407 48.5758Z" fill="white"/>
<path d="M42.2805 68.8115C42.2564 68.7862 42.2377 68.7563 42.2253 68.7237C42.213 68.691 42.2073 68.6562 42.2086 68.6213V67.417H40.9556C40.8845 67.4187 40.8155 67.3929 40.763 67.3451C40.7367 67.3233 40.7156 67.296 40.701 67.2651C40.6865 67.2342 40.679 67.2005 40.679 67.1664C40.679 67.1323 40.6865 67.0986 40.701 67.0677C40.7156 67.0368 40.7367 67.0095 40.763 66.9877C40.8168 66.941 40.8867 66.9169 40.9579 66.9205H42.2109V65.7046C42.2098 65.6701 42.2156 65.6356 42.2279 65.6034C42.2403 65.5711 42.2589 65.5416 42.2828 65.5166C42.3058 65.4904 42.3345 65.4696 42.3666 65.456C42.3987 65.4423 42.4336 65.4361 42.4684 65.4378C42.503 65.4367 42.5374 65.443 42.5694 65.4562C42.6014 65.4694 42.6302 65.4892 42.6541 65.5143C42.6781 65.5397 42.6969 65.5695 42.7092 65.6022C42.7216 65.6349 42.7273 65.6697 42.726 65.7046V66.9205H43.9813C44.0523 66.9185 44.1216 66.9424 44.1762 66.9877C44.202 67.0098 44.2226 67.0372 44.2366 67.0681C44.2507 67.0989 44.2578 67.1325 44.2574 67.1664C44.2578 67.2003 44.2507 67.2339 44.2366 67.2648C44.2226 67.2956 44.202 67.323 44.1762 67.3451C44.1229 67.3933 44.0531 67.4191 43.9813 67.417H42.726V68.6213C42.7268 68.6554 42.7209 68.6894 42.7085 68.7212C42.6962 68.7531 42.6777 68.7822 42.6541 68.8069C42.6311 68.8332 42.6024 68.8539 42.5703 68.8676C42.5381 68.8812 42.5033 68.8874 42.4684 68.8858C42.4336 68.8874 42.3989 68.8817 42.3665 68.8689C42.3341 68.8561 42.3048 68.8365 42.2805 68.8115Z" fill="white"/>
<path d="M7.49637 56.5184C7.47874 56.5003 7.46492 56.4789 7.45575 56.4554C7.44659 56.4318 7.44225 56.4067 7.443 56.3815V55.5044H6.53343C6.48147 55.506 6.43085 55.4878 6.39189 55.4533C6.37323 55.4372 6.35826 55.4173 6.348 55.3948C6.33774 55.3724 6.33243 55.3481 6.33243 55.3234C6.33243 55.2987 6.33774 55.2744 6.348 55.252C6.35826 55.2295 6.37323 55.2096 6.39189 55.1935C6.43191 55.1593 6.48314 55.1411 6.53575 55.1424H7.44532V54.2653C7.44446 54.2138 7.46358 54.1639 7.49869 54.1261C7.51577 54.1077 7.53664 54.0931 7.55987 54.0835C7.58311 54.0739 7.60815 54.0694 7.63327 54.0704C7.65836 54.0697 7.68331 54.0743 7.70649 54.0839C7.72968 54.0935 7.75059 54.1079 7.76785 54.1261C7.80317 54.1637 7.82233 54.2137 7.82122 54.2653V55.1471H8.73543C8.78645 55.1469 8.83583 55.165 8.87465 55.1981C8.89397 55.2137 8.90946 55.2335 8.91992 55.2561C8.93037 55.2786 8.93553 55.3032 8.93498 55.328C8.93501 55.3526 8.92986 55.3768 8.91986 55.3992C8.90987 55.4216 8.89525 55.4416 8.87697 55.458C8.83801 55.4924 8.78739 55.5106 8.73543 55.509H7.82122V56.3861C7.82161 56.4362 7.80247 56.4845 7.76785 56.5207C7.75109 56.5397 7.73033 56.5547 7.70706 56.5648C7.68379 56.5748 7.65859 56.5796 7.63327 56.5787C7.6074 56.5795 7.58169 56.5744 7.55801 56.564C7.53432 56.5536 7.51327 56.538 7.49637 56.5184Z" fill="white"/>
<path d="M41.0599 55.7758C41.0431 55.7654 41.0293 55.7509 41.0197 55.7336C41.0101 55.7164 41.005 55.697 41.005 55.6772C41.005 55.6575 41.0101 55.638 41.0197 55.6208C41.0293 55.6035 41.0431 55.589 41.0599 55.5786C41.1067 55.5481 41.162 55.5335 41.2177 55.5368H43.7167C43.7717 55.5335 43.8263 55.5481 43.8722 55.5786C43.8886 55.5898 43.9021 55.6046 43.9118 55.6219C43.9215 55.6392 43.927 55.6586 43.9279 55.6784C43.9272 55.6979 43.9217 55.717 43.912 55.734C43.9023 55.7509 43.8887 55.7653 43.8722 55.7758C43.8263 55.8063 43.7717 55.821 43.7167 55.8176H41.2177C41.162 55.821 41.1067 55.8063 41.0599 55.7758Z" fill="white"/>
<path d="M9.33169 57.0126C9.31902 56.9997 9.30901 56.9845 9.30224 56.9678C9.29547 56.9511 9.29207 56.9332 9.29224 56.9151C9.29179 56.878 9.30596 56.8421 9.33169 56.8153C9.34505 56.8013 9.3613 56.7902 9.37933 56.783C9.39735 56.7758 9.41672 56.7726 9.4361 56.7736H11.1253C11.145 56.7722 11.1646 56.7755 11.1828 56.7831C11.2009 56.7908 11.217 56.8026 11.2297 56.8177C11.2549 56.8439 11.269 56.8788 11.2692 56.9151C11.2696 56.9332 11.2663 56.9512 11.2595 56.9679C11.2528 56.9847 11.2426 56.9999 11.2297 57.0126C11.2165 57.0268 11.2002 57.0379 11.1822 57.0451C11.1641 57.0523 11.1447 57.0555 11.1253 57.0543H9.4361C9.41672 57.0553 9.39735 57.0521 9.37933 57.0449C9.3613 57.0377 9.34505 57.0267 9.33169 57.0126Z" fill="white"/>
<path d="M8.35948 57.5138C8.34263 57.5294 8.32167 57.5399 8.29906 57.544C8.27645 57.5481 8.25314 57.5457 8.23187 57.537C8.19938 57.5184 8.18546 57.4766 8.18778 57.4163C8.19608 57.3336 8.22392 57.2541 8.26899 57.1843L10.1253 53.9613C10.1598 53.8888 10.2125 53.8264 10.2784 53.7803C10.2953 53.7647 10.3162 53.7543 10.3388 53.7501C10.3614 53.746 10.3847 53.7485 10.406 53.7571C10.4385 53.7757 10.4524 53.8175 10.4478 53.8778C10.4395 53.9605 10.4117 54.04 10.3666 54.1098L8.51031 57.3328C8.47408 57.4036 8.42256 57.4654 8.35948 57.5138Z" fill="white"/>
<path d="M41.0599 41.0394C41.0431 41.029 41.0293 41.0145 41.0197 40.9972C41.0101 40.9799 41.005 40.9605 41.005 40.9408C41.005 40.921 41.0101 40.9016 41.0197 40.8843C41.0293 40.8671 41.0431 40.8526 41.0599 40.8421C41.1067 40.8116 41.162 40.797 41.2177 40.8004H43.7167C43.7717 40.797 43.8263 40.8117 43.8722 40.8421C43.8886 40.8533 43.9021 40.8681 43.9118 40.8855C43.9215 40.9028 43.927 40.9221 43.9279 40.9419C43.9272 40.9615 43.9217 40.9805 43.912 40.9975C43.9023 41.0145 43.8887 41.0289 43.8722 41.0394C43.8263 41.0699 43.7717 41.0845 43.7167 41.0811H41.2177C41.162 41.0845 41.1067 41.0699 41.0599 41.0394Z" fill="white"/>
<path d="M15.961 42.3155C15.9192 42.2853 15.8864 42.2445 15.8658 42.1972L15.0166 40.2922V42.2738C15.0173 42.2928 15.0132 42.3117 15.0047 42.3287C14.9961 42.3457 14.9835 42.3604 14.9679 42.3712C14.9321 42.3948 14.89 42.4069 14.8472 42.406C14.8052 42.4066 14.7639 42.3945 14.7289 42.3712C14.713 42.3605 14.7 42.346 14.6911 42.3289C14.6821 42.3119 14.6776 42.293 14.6778 42.2738V40.1112C14.6781 40.0775 14.6857 40.0443 14.7001 40.0138C14.7146 39.9834 14.7355 39.9564 14.7613 39.9349C14.8125 39.8929 14.8759 39.8687 14.942 39.8658C15.008 39.8628 15.0733 39.8814 15.128 39.9186C15.1864 39.9587 15.2317 40.0152 15.2579 40.0811L16.0839 41.9164L16.9053 40.088C16.9301 40.022 16.9747 39.9652 17.033 39.9256C17.0876 39.8884 17.1529 39.8698 17.219 39.8727C17.2851 39.8757 17.3484 39.8999 17.3996 39.9418C17.4255 39.9634 17.4464 39.9904 17.4608 40.0208C17.4752 40.0513 17.4828 40.0845 17.4831 40.1182V42.2738C17.484 42.2931 17.4797 42.3123 17.4708 42.3294C17.4618 42.3465 17.4484 42.361 17.4321 42.3712C17.397 42.3945 17.3558 42.4066 17.3137 42.406C17.2716 42.4074 17.2301 42.3952 17.1954 42.3712C17.179 42.361 17.1656 42.3465 17.1567 42.3294C17.1477 42.3123 17.1434 42.2931 17.1443 42.2738V40.2922L16.3021 42.1995C16.2824 42.2466 16.2503 42.2875 16.2092 42.3179C16.1728 42.3444 16.129 42.359 16.0839 42.3596C16.0393 42.3583 15.9963 42.3429 15.961 42.3155Z" fill="white"/>
<path d="M18.2001 42.3782C18.1813 42.3624 18.1665 42.3424 18.1569 42.3198C18.1472 42.2973 18.1429 42.2728 18.1444 42.2483V40.0022C18.144 39.9785 18.1487 39.955 18.1584 39.9334C18.168 39.9117 18.1822 39.8925 18.2001 39.8769C18.217 39.8597 18.2372 39.8461 18.2596 39.8369C18.2819 39.8277 18.3059 39.8232 18.33 39.8235H19.1189C19.2105 39.8226 19.302 39.828 19.3927 39.8398C19.4781 39.8502 19.5621 39.8697 19.6433 39.8978C19.7198 39.9232 19.7912 39.9616 19.8545 40.0115C19.915 40.0632 19.9627 40.1284 19.9937 40.2017C20.0316 40.2887 20.0498 40.383 20.0471 40.4779C20.0516 40.6182 20.0026 40.755 19.9102 40.8607C19.8013 40.9758 19.6564 41.0503 19.4995 41.0719C19.6352 41.0982 19.7576 41.171 19.8457 41.2777C19.9337 41.3843 19.9819 41.5183 19.9821 41.6566L20.0471 42.2274C20.0485 42.2358 20.0485 42.2445 20.0471 42.2529C20.048 42.2752 20.0439 42.2974 20.0351 42.3179C20.0262 42.3384 20.0129 42.3566 19.996 42.3713C19.9633 42.4016 19.9201 42.4183 19.8754 42.4177C19.8276 42.4184 19.7809 42.4028 19.7431 42.3736C19.7233 42.36 19.707 42.3421 19.6953 42.3211C19.6836 42.3002 19.677 42.2769 19.6758 42.2529L19.6201 41.7448C19.6119 41.6579 19.5971 41.5718 19.576 41.4872C19.562 41.4291 19.5332 41.3755 19.4925 41.3318C19.4549 41.2902 19.4055 41.261 19.351 41.2482C19.2747 41.2325 19.1968 41.2255 19.1189 41.2273H18.511V42.2413C18.5125 42.2658 18.5082 42.2903 18.4985 42.3129C18.4889 42.3354 18.4741 42.3554 18.4553 42.3713C18.4188 42.4015 18.3728 42.4179 18.3254 42.4177C18.2802 42.42 18.2357 42.406 18.2001 42.3782ZM19.0424 40.9535C19.1143 40.9535 19.1793 40.9535 19.2349 40.9535C19.2932 40.9463 19.3506 40.9338 19.4067 40.9164C19.4589 40.9012 19.5078 40.876 19.5505 40.8422C19.5906 40.8071 19.6223 40.7635 19.6433 40.7145C19.6693 40.6537 19.6819 40.5881 19.6805 40.5219C19.681 40.4675 19.6724 40.4134 19.6549 40.3618C19.6414 40.3189 19.6165 40.2805 19.583 40.2505C19.5537 40.2232 19.5209 40.1998 19.4855 40.1809C19.4451 40.1621 19.4021 40.1496 19.3579 40.1437L19.2257 40.1113H18.511V40.9489L19.0424 40.9535Z" fill="white"/>
<path d="M24.4695 42.3155C24.4271 42.286 24.394 42.2449 24.3743 42.1972L23.5251 40.2922V42.2738C23.526 42.2931 23.5217 42.3123 23.5128 42.3294C23.5038 42.3465 23.4904 42.361 23.474 42.3712C23.4393 42.3952 23.3979 42.4074 23.3557 42.406C23.3137 42.4066 23.2724 42.3945 23.2374 42.3712C23.221 42.361 23.2076 42.3465 23.1987 42.3294C23.1897 42.3123 23.1854 42.2931 23.1863 42.2738V40.1112C23.1866 40.0775 23.1942 40.0443 23.2086 40.0138C23.2231 39.9834 23.244 39.9564 23.2698 39.9349C23.3234 39.889 23.3919 39.8643 23.4624 39.8653C23.5245 39.865 23.5852 39.8836 23.6365 39.9186C23.6949 39.9587 23.7402 40.0152 23.7664 40.081L24.5924 41.9164L25.4185 40.081C25.444 40.0154 25.4884 39.9589 25.5461 39.9186C25.5996 39.888 25.661 39.8743 25.7224 39.8792C25.7937 39.878 25.8629 39.9028 25.9174 39.9488C25.9432 39.9703 25.9641 39.9973 25.9786 40.0278C25.993 40.0582 26.0006 40.0914 26.0009 40.1251V42.2807C26.0011 42.2999 25.9966 42.3189 25.9876 42.3359C25.9787 42.3529 25.9657 42.3674 25.9498 42.3782C25.9148 42.4014 25.8736 42.4136 25.8315 42.413C25.7887 42.4139 25.7466 42.4017 25.7108 42.3782C25.6952 42.3673 25.6826 42.3527 25.674 42.3357C25.6655 42.3186 25.6614 42.2998 25.6621 42.2807V40.2992L24.8106 42.1995C24.7909 42.2473 24.7578 42.2884 24.7154 42.3179C24.6802 42.3449 24.6369 42.3596 24.5924 42.3596C24.548 42.3596 24.5047 42.3449 24.4695 42.3179V42.3155Z" fill="white"/>
<path d="M26.4417 41.5545C26.4288 41.5438 26.4186 41.5303 26.4117 41.515C26.4049 41.4997 26.4017 41.483 26.4023 41.4663C26.4016 41.4489 26.4048 41.4315 26.4116 41.4155C26.4185 41.3994 26.4287 41.3851 26.4417 41.3735C26.4712 41.3477 26.5094 41.3344 26.5485 41.3364H27.3583C27.3773 41.3352 27.3963 41.3379 27.4143 41.3443C27.4322 41.3506 27.4487 41.3606 27.4627 41.3735C27.4764 41.3846 27.4873 41.3988 27.4945 41.415C27.5018 41.4311 27.5052 41.4486 27.5045 41.4663C27.5052 41.4833 27.5018 41.5002 27.4945 41.5156C27.4872 41.5309 27.4763 41.5443 27.4627 41.5545C27.4332 41.5782 27.3961 41.5906 27.3583 41.5893H26.5485C26.5099 41.5909 26.472 41.5786 26.4417 41.5545Z" fill="white"/>
<path d="M32.9758 42.3156C32.9341 42.2853 32.9012 42.2445 32.8807 42.1972L32.0338 40.2922V42.2738C32.0347 42.2931 32.0304 42.3123 32.0214 42.3294C32.0125 42.3466 31.9991 42.361 31.9827 42.3712C31.948 42.3931 31.9077 42.4047 31.8667 42.4047C31.8256 42.4047 31.7854 42.3931 31.7507 42.3712C31.7343 42.361 31.7209 42.3466 31.712 42.3294C31.703 42.3123 31.6987 42.2931 31.6996 42.2738V40.1112C31.6999 40.0775 31.7075 40.0443 31.722 40.0139C31.7364 39.9834 31.7573 39.9565 31.7832 39.9349C31.8365 39.8887 31.9052 39.8639 31.9758 39.8653C32.0371 39.8647 32.0972 39.8834 32.1475 39.9187C32.2065 39.9581 32.2519 40.0148 32.2774 40.0811L33.1058 41.9165L33.9318 40.0811C33.9573 40.0155 34.0017 39.9589 34.0594 39.9187C34.1141 39.8814 34.1793 39.8629 34.2454 39.8658C34.3115 39.8687 34.3749 39.893 34.426 39.9349C34.4519 39.9565 34.4728 39.9834 34.4872 40.0139C34.5017 40.0443 34.5093 40.0775 34.5096 40.1112V42.2668C34.5105 42.2861 34.5062 42.3053 34.4972 42.3225C34.4883 42.3396 34.4749 42.354 34.4585 42.3643C34.4245 42.3879 34.3839 42.4001 34.3425 42.3991C34.2996 42.4003 34.2575 42.3881 34.2218 42.3643C34.2059 42.3535 34.1929 42.339 34.184 42.322C34.1751 42.305 34.1706 42.286 34.1708 42.2668V40.2853L33.3192 42.1995C33.2987 42.2468 33.2658 42.2877 33.2241 42.3179C33.1885 42.3444 33.1455 42.359 33.1011 42.3596C33.0558 42.3583 33.012 42.3429 32.9758 42.3156Z" fill="white"/>
<path d="M35.9551 42.3782C35.9426 42.3653 35.9329 42.35 35.9265 42.3333C35.9202 42.3165 35.9173 42.2986 35.918 42.2807V41.6496H35.2613C35.2239 41.6503 35.1875 41.6371 35.1592 41.6125C35.1459 41.601 35.1353 41.5867 35.1281 41.5707C35.1209 41.5547 35.1173 41.5372 35.1175 41.5197C35.1167 41.5017 35.1201 41.4837 35.1274 41.4673C35.1346 41.4508 35.1455 41.4362 35.1592 41.4245C35.1878 41.4007 35.2242 41.3883 35.2613 41.3897H35.918V40.7539C35.9167 40.7171 35.93 40.6812 35.9551 40.6542C35.9675 40.6409 35.9827 40.6305 35.9995 40.6237C36.0163 40.6169 36.0344 40.6139 36.0526 40.6147C36.0703 40.614 36.088 40.6172 36.1045 40.624C36.1209 40.6308 36.1356 40.6411 36.1477 40.6542C36.1734 40.681 36.1876 40.7168 36.1872 40.7539V41.3897H36.8438C36.8808 41.3892 36.9169 41.4015 36.9459 41.4245C36.9596 41.4362 36.9705 41.4508 36.9778 41.4673C36.985 41.4837 36.9884 41.5017 36.9877 41.5197C36.9879 41.5372 36.9843 41.5547 36.9771 41.5707C36.9698 41.5867 36.9592 41.601 36.9459 41.6125C36.9179 41.6375 36.8813 41.6508 36.8438 41.6496H36.1872V42.2807C36.187 42.3171 36.1729 42.352 36.1477 42.3782C36.1353 42.3908 36.1205 42.4008 36.1041 42.4075C36.0878 42.4143 36.0703 42.4177 36.0526 42.4176C36.0344 42.419 36.0161 42.4162 35.9992 42.4093C35.9823 42.4025 35.9672 42.3918 35.9551 42.3782Z" fill="white"/>
<path d="M32.7995 33.8463L33.8437 35.2385L35.0039 33.1502H36.164" stroke="white" stroke-width="0.4" stroke-miterlimit="10"/>
</svg>
