<svg width="32" height="32" viewBox="0 0 32 32" fill="none" xmlns="http://www.w3.org/2000/svg">
<path d="M10.3993 2.66663H21.5993C25.866 2.66663 29.3327 6.13329 29.3327 10.4V21.6C29.3327 23.651 28.5179 25.618 27.0676 27.0683C25.6174 28.5185 23.6504 29.3333 21.5993 29.3333H10.3993C6.13268 29.3333 2.66602 25.8666 2.66602 21.6V10.4C2.66602 8.34895 3.48078 6.38195 4.93106 4.93167C6.38134 3.48139 8.34834 2.66663 10.3993 2.66663ZM10.1327 5.33329C8.85964 5.33329 7.63874 5.83901 6.73857 6.73918C5.8384 7.63935 5.33268 8.86025 5.33268 10.1333V21.8666C5.33268 24.52 7.47935 26.6666 10.1327 26.6666H21.866C23.1391 26.6666 24.36 26.1609 25.2601 25.2607C26.1603 24.3606 26.666 23.1397 26.666 21.8666V10.1333C26.666 7.47996 24.5193 5.33329 21.866 5.33329H10.1327ZM22.9993 7.33329C23.4414 7.33329 23.8653 7.50889 24.1779 7.82145C24.4904 8.13401 24.666 8.55793 24.666 8.99996C24.666 9.44199 24.4904 9.86591 24.1779 10.1785C23.8653 10.491 23.4414 10.6666 22.9993 10.6666C22.5573 10.6666 22.1334 10.491 21.8208 10.1785C21.5083 9.86591 21.3327 9.44199 21.3327 8.99996C21.3327 8.55793 21.5083 8.13401 21.8208 7.82145C22.1334 7.50889 22.5573 7.33329 22.9993 7.33329ZM15.9993 9.33329C17.7675 9.33329 19.4632 10.0357 20.7134 11.2859C21.9636 12.5362 22.666 14.2318 22.666 16C22.666 17.7681 21.9636 19.4638 20.7134 20.714C19.4632 21.9642 17.7675 22.6666 15.9993 22.6666C14.2312 22.6666 12.5355 21.9642 11.2853 20.714C10.0351 19.4638 9.33268 17.7681 9.33268 16C9.33268 14.2318 10.0351 12.5362 11.2853 11.2859C12.5355 10.0357 14.2312 9.33329 15.9993 9.33329ZM15.9993 12C14.9385 12 13.9211 12.4214 13.1709 13.1715C12.4208 13.9217 11.9993 14.9391 11.9993 16C11.9993 17.0608 12.4208 18.0782 13.1709 18.8284C13.9211 19.5785 14.9385 20 15.9993 20C17.0602 20 18.0776 19.5785 18.8278 18.8284C19.5779 18.0782 19.9993 17.0608 19.9993 16C19.9993 14.9391 19.5779 13.9217 18.8278 13.1715C18.0776 12.4214 17.0602 12 15.9993 12Z" fill="#FCFFFE"/>
</svg>
