<svg xmlns="http://www.w3.org/2000/svg" width="17" height="9" viewBox="0 0 17 9" fill="none">
  <path d="M0.5 4C0.223858 4 0 4.22386 0 4.5C0 4.77614 0.223858 5 0.5 5V4ZM16.8536 4.85355C17.0488 4.65829 17.0488 4.34171 16.8536 4.14645L13.6716 0.964466C13.4763 0.769204 13.1597 0.769204 12.9645 0.964466C12.7692 1.15973 12.7692 1.47631 12.9645 1.67157L15.7929 4.5L12.9645 7.32843C12.7692 7.52369 12.7692 7.84027 12.9645 8.03553C13.1597 8.2308 13.4763 8.2308 13.6716 8.03553L16.8536 4.85355ZM0.5 5H16.5V4H0.5V5Z" fill="#108E66"/>
</svg>