<svg width="83" height="83" viewBox="0 0 83 83" fill="none" xmlns="http://www.w3.org/2000/svg">
<g opacity="0.5">
<path d="M42.0001 82.1113C63.5026 82.1113 80.9339 78.0644 80.9339 73.0723C80.9339 68.0801 63.5026 64.0332 42.0001 64.0332C20.4976 64.0332 3.06641 68.0801 3.06641 73.0723C3.06641 78.0644 20.4976 82.1113 42.0001 82.1113Z" fill="#525ECC" fill-opacity="0.25"/>
</g>
<path d="M55.2628 71.0548C55.2628 73.8255 53.0177 76.0706 50.247 76.0706H34.8654C32.0947 76.0706 29.8496 73.8255 29.8496 71.0548C29.8496 68.2841 32.0947 66.0391 34.8654 66.0391H50.247C53.0171 66.0391 55.2628 68.2841 55.2628 71.0548Z" fill="#ABD6C8"/>
<path d="M50.2465 78.0768H34.8648C30.9927 78.0768 27.8428 74.9269 27.8428 71.0548C27.8428 67.1826 30.9927 64.0327 34.8648 64.0327H50.2465C54.1187 64.0327 57.2686 67.1826 57.2686 71.0548C57.2686 74.9269 54.1187 78.0768 50.2465 78.0768ZM34.8648 68.0453C33.2056 68.0453 31.8554 69.3956 31.8554 71.0548C31.8554 72.714 33.2056 74.0642 34.8648 74.0642H50.2465C51.9057 74.0642 53.2559 72.714 53.2559 71.0548C53.2559 69.3956 51.9057 68.0453 50.2465 68.0453H34.8648Z" fill="#296652"/>
<path d="M71.3133 43.9699C71.3133 47.6482 68.3038 50.6576 64.6256 50.6576H18.4806C14.8024 50.6576 11.793 47.6482 11.793 43.9699V9.19402C11.793 5.5158 14.8024 2.50635 18.4806 2.50635H64.6256C68.3038 2.50635 71.3133 5.5158 71.3133 9.19402V43.9699Z" fill="#ABD6C8"/>
<path d="M64.6251 52.6639H18.4801C13.6864 52.6639 9.78613 48.7636 9.78613 43.9699V9.19398C9.78613 4.40025 13.6864 0.5 18.4801 0.5H64.6251C69.4188 0.5 73.3191 4.40025 73.3191 9.19398V43.9699C73.3191 48.7636 69.4188 52.6639 64.6251 52.6639ZM18.4801 4.51261C15.8993 4.51261 13.7987 6.61321 13.7987 9.19398V43.9699C13.7987 46.5507 15.8993 48.6513 18.4801 48.6513H64.6251C67.2059 48.6513 69.3065 46.5507 69.3065 43.9699V9.19398C69.3065 6.61321 67.2059 4.51261 64.6251 4.51261H18.4801Z" fill="#296652"/>
<path d="M45.9 56.0078L47.9063 70.0519H37.2061L39.2124 56.0078H45.9Z" fill="#ABD6C8"/>
<path d="M47.9186 72.0582C47.9153 72.0582 47.9099 72.0582 47.9059 72.0582H37.2056C36.6238 72.0582 36.0714 71.8061 35.6895 71.3667C35.309 70.9273 35.1371 70.3441 35.2194 69.7683L37.2257 55.7242C37.3668 54.7351 38.2135 54.0015 39.2119 54.0015H45.8996C46.8981 54.0015 47.7447 54.7358 47.8858 55.7242L49.8594 69.5376C49.9022 69.7015 49.9256 69.874 49.9256 70.0519C49.9249 71.16 49.0268 72.0582 47.9186 72.0582ZM39.5189 68.0456H45.5926L44.1595 58.0141H40.9514L39.5189 68.0456Z" fill="#296652"/>
<g opacity="0.2">
<path d="M43.444 56.7104L44.5622 63.364H37.916L39.0342 56.7104H43.444Z" fill="#296652"/>
</g>
<path d="M71.3133 49.989C71.3133 53.6672 68.3038 56.6767 64.6256 56.6767H18.4806C14.8024 56.6767 11.793 53.6672 11.793 49.989V15.2131C11.793 11.5348 14.8024 8.52539 18.4806 8.52539H64.6256C68.3038 8.52539 71.3133 11.5348 71.3133 15.2131V49.989Z" fill="#ABD6C8"/>
<path d="M64.6253 58.0138H18.4803C14.0551 58.0138 10.4551 54.4139 10.4551 49.9886V15.2127C10.4551 10.7875 14.0551 7.1875 18.4803 7.1875H64.6253C69.0505 7.1875 72.6505 10.7875 72.6505 15.2127V49.9886C72.6505 54.4139 69.0505 58.0138 64.6253 58.0138ZM18.4803 9.86257C15.5304 9.86257 13.1301 12.2628 13.1301 15.2127V49.9886C13.1301 52.9386 15.5304 55.3388 18.4803 55.3388H64.6253C67.5752 55.3388 69.9754 52.9386 69.9754 49.9886V15.2127C69.9754 12.2628 67.5752 9.86257 64.6253 9.86257H18.4803Z" fill="#296652"/>
<path d="M42.2217 52.6637C43.1451 52.6637 43.8936 51.9151 43.8936 50.9917C43.8936 50.0684 43.1451 49.3198 42.2217 49.3198C41.2983 49.3198 40.5498 50.0684 40.5498 50.9917C40.5498 51.9151 41.2983 52.6637 42.2217 52.6637Z" fill="#296652"/>
<path d="M63.9569 15.2129H19.1494V45.9762H63.9569V15.2129Z" fill="#E2F3EE"/>
<path d="M64.6251 58.6829H18.4801C13.6864 58.6829 9.78613 54.7827 9.78613 49.9889V8.52535C9.78613 7.4172 10.6843 6.51904 11.7924 6.51904C12.9006 6.51904 13.7987 7.4172 13.7987 8.52535V49.9889C13.7987 52.5697 15.8993 54.6703 18.4801 54.6703H64.6251C67.2059 54.6703 69.3065 52.5697 69.3065 49.9889V8.52535C69.3065 7.4172 70.2046 6.51904 71.3128 6.51904C72.4209 6.51904 73.3191 7.4172 73.3191 8.52535V49.9889C73.3191 54.7827 69.4188 58.6829 64.6251 58.6829Z" fill="#296652"/>
<path d="M41.8873 45.3078C41.1484 45.3078 40.5498 44.7085 40.5498 43.9702V15.882C40.5498 15.1436 41.1484 14.5444 41.8873 14.5444C42.6257 14.5444 43.2249 15.1436 43.2249 15.882V43.9702C43.2249 44.7085 42.6257 45.3078 41.8873 45.3078Z" fill="#769C90"/>
<path d="M47.9062 27.2507H41.8873C41.1484 27.2507 40.5498 26.6515 40.5498 25.9132C40.5498 25.1748 41.1484 24.5756 41.8873 24.5756H47.9062C49.8216 24.5756 51.1364 23.4153 51.7965 22.6469L50.7117 21.1281C49.9788 22.2717 48.8499 23.2381 47.2375 23.2381H41.8873C41.1484 23.2381 40.5498 22.6389 40.5498 21.9006C40.5498 21.1622 41.1484 20.563 41.8873 20.563H47.2375C48.5048 20.563 49.0906 18.1468 49.096 18.1227C49.2043 17.6031 49.6109 17.1971 50.1299 17.0881C50.6535 16.9764 51.1846 17.1878 51.4935 17.6198L54.5351 21.8785C54.84 22.3058 54.8668 22.8723 54.604 23.327C54.5103 23.4869 52.2773 27.2507 47.9062 27.2507Z" fill="#769C90"/>
<path d="M50.5809 35.2763H43.8932C43.1542 35.2763 42.5557 34.677 42.5557 33.9387C42.5557 33.2004 43.1542 32.6012 43.8932 32.6012H50.5809C53.3857 32.6012 54.6831 30.5648 54.7366 30.4778C55.1245 29.8546 55.9451 29.6546 56.571 30.0358C57.1983 30.417 57.4043 31.2269 57.0285 31.8575C56.9449 31.9973 54.9406 35.2763 50.5809 35.2763Z" fill="#769C90"/>
<path d="M53.446 43.4611C47.518 43.4611 46.6326 39.9547 46.6326 37.8648C46.6326 37.2409 46.452 36.7875 46.0641 36.4364C45.0121 35.484 42.7336 35.4747 42.0194 35.5456C41.2884 35.6205 40.629 35.0828 40.5555 34.3478C40.4826 33.6122 41.0183 32.9574 41.7532 32.8839C42.1578 32.8451 45.7518 32.5461 47.8597 34.4535C48.8067 35.3108 49.3076 36.4905 49.3076 37.8655C49.3076 39.9126 50.5455 40.7867 53.446 40.7867C53.9121 40.7867 55.1507 40.7867 55.1507 37.8655C55.1507 35.9682 54.8029 32.6505 54.4819 29.9874C53.6325 30.7552 52.4977 31.2942 51.0123 31.2942H41.887C41.148 31.2942 40.5494 30.695 40.5494 29.9567C40.5494 29.2184 41.148 28.6191 41.887 28.6191H51.0123C53.4426 28.6191 53.9281 25.6291 53.9482 25.502C54.0479 24.8486 54.6103 24.3638 55.271 24.3638C55.2737 24.3638 55.2757 24.3638 55.2784 24.3638C55.9411 24.3671 56.5022 24.8526 56.5959 25.5087C56.646 25.8605 57.8264 34.1632 57.8264 37.8662C57.8257 43.0578 54.4732 43.4611 53.446 43.4611Z" fill="#769C90"/>
<path d="M51.9185 39.2887H47.9059C47.1669 39.2887 46.5684 38.6895 46.5684 37.9512C46.5684 37.2129 47.1669 36.6137 47.9059 36.6137H51.9185C53.2226 36.6137 54.3769 34.8528 54.6778 34.2362C55.0009 33.5728 55.7987 33.2946 56.4668 33.6216C57.1302 33.9453 57.4057 34.7465 57.0814 35.4105C57.0038 35.569 55.15 39.2887 51.9185 39.2887Z" fill="#769C90"/>
<path d="M55.2726 27.0347C54.8178 27.0347 54.3751 26.8034 54.1243 26.3854L52.2992 23.3438C51.9194 22.7105 52.124 21.8886 52.758 21.5087C53.3913 21.1289 54.2133 21.3335 54.5931 21.9675L56.4182 25.0091C56.7981 25.6424 56.5934 26.4643 55.9601 26.8441C55.7441 26.9732 55.5073 27.0347 55.2726 27.0347Z" fill="#769C90"/>
<path d="M41.8873 27.2509H35.8684C31.4974 27.2509 29.2643 23.4871 29.1707 23.3273C28.9072 22.8725 28.934 22.3061 29.2396 21.8787L32.2812 17.62C32.5901 17.188 33.1205 16.9773 33.6448 17.0884C34.1637 17.1974 34.5703 17.6033 34.6787 18.1229C34.6834 18.1423 35.2665 20.5633 36.5372 20.5633H41.8873C42.6257 20.5633 43.2249 21.1625 43.2249 21.9008C43.2249 22.6391 42.6257 23.2383 41.8873 23.2383H36.5372C34.9248 23.2383 33.7952 22.272 33.0629 21.1284L31.9782 22.6478C32.6383 23.4156 33.9524 24.5759 35.8684 24.5759H41.8873C42.6257 24.5759 43.2249 25.1751 43.2249 25.9134C43.2249 26.6517 42.6257 27.2509 41.8873 27.2509Z" fill="#769C90"/>
<path d="M39.8809 35.2762H33.1932C28.8328 35.2762 26.8285 31.9972 26.7456 31.8574C26.3671 31.2234 26.5751 30.4022 27.2097 30.0243C27.8384 29.6478 28.6576 29.8518 29.0375 30.4798C29.105 30.5868 30.4024 32.6018 33.1925 32.6018H39.8802C40.6185 32.6018 41.2178 33.201 41.2178 33.9393C41.2178 34.6776 40.6192 35.2762 39.8809 35.2762Z" fill="#769C90"/>
<path d="M30.327 43.4609C29.2998 43.4609 25.9473 43.057 25.9473 37.8647C25.9473 34.1624 27.1276 25.8596 27.1778 25.5072C27.2721 24.8484 27.8359 24.3589 28.5013 24.3589C29.1667 24.3589 29.7312 24.8478 29.8248 25.5072C29.8435 25.6282 30.3297 28.6176 32.76 28.6176H41.8867C42.625 28.6176 43.2242 29.2168 43.2242 29.9551C43.2242 30.6935 42.625 31.2927 41.8867 31.2927H32.7607C31.2753 31.2927 30.1404 30.7536 29.2918 29.9859C28.9701 32.6489 28.623 35.9667 28.623 37.864C28.623 40.7852 29.8616 40.7852 30.3277 40.7852C33.2281 40.7852 34.466 39.9111 34.466 37.864C34.466 36.489 34.9669 35.31 35.9139 34.4519C38.0219 32.5433 41.6165 32.8435 42.0204 32.8823C42.7554 32.9559 43.2911 33.6113 43.2182 34.3463C43.1446 35.0799 42.5026 35.6196 41.7569 35.544C40.9832 35.4718 38.7508 35.4879 37.7055 36.4382C37.3203 36.7879 37.1404 37.2407 37.1404 37.8633C37.1404 39.9546 36.2557 43.4609 30.327 43.4609Z" fill="#769C90"/>
<path d="M35.8684 39.2885H31.187C28.4611 39.2885 27.0239 36.7043 26.6046 35.1775C26.4093 34.466 26.828 33.7297 27.5409 33.5337C28.2518 33.3378 28.9854 33.7551 29.1827 34.464C29.1961 34.5068 29.8408 36.6141 31.187 36.6141H35.8684C36.6067 36.6141 37.2059 37.2133 37.2059 37.9516C37.2059 38.6899 36.6067 39.2885 35.8684 39.2885Z" fill="#769C90"/>
<path d="M28.5013 27.0349C28.2666 27.0349 28.0299 26.9734 27.8145 26.8443C27.1812 26.4644 26.9759 25.6425 27.3557 25.0092L29.1815 21.9676C29.5613 21.3343 30.3832 21.1283 31.0166 21.5089C31.6499 21.8887 31.8552 22.7106 31.4753 23.344L29.6503 26.3855C29.3988 26.8035 28.9561 27.0349 28.5013 27.0349Z" fill="#769C90"/>
<path d="M63.9565 47.3139H19.1491C18.4101 47.3139 17.8115 46.7147 17.8115 45.9763V15.213C17.8115 14.4747 18.4101 13.8755 19.1491 13.8755H63.9565C64.6948 13.8755 65.294 14.4747 65.294 15.213V45.9763C65.294 46.7147 64.6948 47.3139 63.9565 47.3139ZM20.4866 44.6388H62.619V16.5506H20.4866V44.6388Z" fill="#296652"/>
</svg>
