<svg width="359" height="359" viewBox="0 0 359 359" fill="none" xmlns="http://www.w3.org/2000/svg">
<g opacity="0.54">
<path d="M338.12 201.083C327.551 229.394 305.954 260.038 275.561 269.106C229.609 282.82 224.152 319.84 141.898 316.408C129.887 315.96 117.961 314.21 106.328 311.188C100.64 309.695 95.0544 307.836 89.6059 305.624C41.5502 286.166 16.5135 243.33 14.4026 198.505C11.6526 139.558 52.7869 111.462 79.518 95.0057C106.249 78.5491 138.466 14.805 219.356 17.5478C231.707 17.9129 243.975 19.703 255.916 22.8825C283.136 30.2492 310.8 46.5765 326.876 70.3639C328.082 72.1493 329.236 73.9778 330.337 75.8494C351.855 112.353 352.538 162.483 338.12 201.083Z" fill="#FCFFFE"/>
<path opacity="0.7" d="M338.12 201.083C327.551 229.394 305.954 260.038 275.561 269.106C229.609 282.82 224.152 319.84 141.898 316.408C129.887 315.96 117.961 314.21 106.328 311.188C100.64 309.695 95.0544 307.836 89.6059 305.624C41.5502 286.166 16.5135 243.33 14.4026 198.505C11.6526 139.558 52.7869 111.462 79.518 95.0057C106.249 78.5491 138.466 14.805 219.356 17.5478C231.707 17.9129 243.975 19.703 255.916 22.8825C283.136 30.2492 310.8 46.5765 326.876 70.3639C328.082 72.1493 329.236 73.9778 330.337 75.8494C351.855 112.353 352.538 162.483 338.12 201.083Z" fill="white"/>
<path d="M179.858 226.687C171.508 207.732 172.743 176.685 176.613 174.101C180.871 171.264 187.613 185.818 194.362 181.561C201.111 177.303 205.721 168.069 200.041 153.516C194.362 138.962 186.909 148.547 181.581 152.08C176.254 155.612 171.996 152.439 173.066 139.658C173.849 130.231 177.525 112.905 179.406 104.476C180.253 104.842 181.1 105.194 181.933 105.603C165.254 97.7916 146.794 95.3073 138.99 97.7915C131.185 100.276 132.6 100.987 136.498 110.213C144.648 129.463 113.795 136.061 104.906 121.234C99.5859 112.36 107.412 107.377 105.28 100.987C103.147 94.5964 63.7505 102.049 58.7819 104.893C58.7819 104.893 68.3601 133.613 66.9456 143.937C65.5311 154.262 60.5554 158.85 53.1026 151.39C45.6497 143.93 36.0644 150.672 35.7054 163.108C35.3464 175.544 37.4789 185.467 46.0015 182.63C54.5242 179.794 61.2662 169.498 64.1023 182.63C66.9384 195.763 61.9483 212.786 59.1338 224.87C59.1338 224.87 81.4995 234.456 91.7884 233.745C102.077 233.034 108.475 232.682 105.28 226.292C102.085 219.902 96.757 215.644 100.663 208.543C104.569 201.442 120.185 202.153 128.349 203.926C136.513 205.7 140.067 211.738 137.582 218.48C135.098 225.222 130.833 231.971 138.645 233.386C146.005 234.729 164.723 231.648 183.161 225.646C182.07 225.998 180.935 226.342 179.858 226.687Z" stroke="#202926" stroke-miterlimit="10"/>
<path d="M186.551 224.511C185.459 224.885 184.361 225.229 183.27 225.61C184.361 225.251 185.459 224.885 186.551 224.511Z" stroke="#202926" stroke-miterlimit="10"/>
<path d="M316.114 148.188C309.372 148.188 309.013 153.515 301.912 152.453C294.811 151.39 294.107 135.056 301.56 106.307C301.56 106.307 293.396 112.338 274.937 112.697C256.477 113.056 249.024 110.917 253.641 104.174C258.257 97.4325 261.804 92.1049 257.898 86.7845C253.992 81.4642 235.181 82.1678 229.178 86.7845C223.176 91.4013 227.405 96.7217 231.663 102.753C235.92 108.784 230.945 112.338 223.851 112.697C216.757 113.056 198.649 113.415 181.963 105.596C181.13 105.201 180.283 104.835 179.435 104.469C177.554 112.92 173.878 130.245 173.095 139.651C172.026 152.431 176.283 155.626 181.611 152.072C186.938 148.518 194.391 138.94 200.071 153.508C205.75 168.076 201.133 177.288 194.391 181.553C187.649 185.818 180.871 171.264 176.628 174.101C172.758 176.685 171.523 207.732 179.873 226.687C182.106 225.969 184.339 225.251 186.565 224.533C206.087 217.784 225.61 214.589 229.164 219.205C232.718 223.822 231.318 223.111 226.68 230.212C222.041 237.313 222.415 243.344 230.227 246.891C238.038 250.438 257.202 249.763 258.947 241.571C260.691 233.379 250.783 228.791 255.4 220.979C260.016 213.167 300.842 224.511 300.842 224.511C300.842 224.511 291.616 193.271 295.163 182.975C298.71 172.679 301.56 175.192 307.239 179.069C312.919 182.946 320.372 182.623 323.215 171.264C326.058 159.906 322.856 148.188 316.114 148.188Z" stroke="#202926" stroke-miterlimit="10"/>
<path d="M295.007 72.9025C304.044 68.6368 307.911 57.8531 303.645 48.8165C299.38 39.7799 288.596 35.9124 279.559 40.1782C270.523 44.444 266.655 55.2277 270.921 64.2642C275.187 73.3008 285.971 77.1683 295.007 72.9025Z" fill="#FCFFFE" stroke="#202926" stroke-miterlimit="10"/>
<path d="M288.806 71.3681C296.979 70.5292 302.925 63.2234 302.086 55.05C301.247 46.8766 293.941 40.9308 285.768 41.7697C277.595 42.6085 271.649 49.9144 272.488 58.0878C273.327 66.2612 280.632 72.207 288.806 71.3681Z" fill="white" stroke="#202926" stroke-miterlimit="10"/>
<path d="M291.94 66.3512C297.344 63.7807 299.64 57.3165 297.07 51.9129C294.499 46.5094 288.035 44.2126 282.632 46.7831C277.228 49.3535 274.931 55.8177 277.502 61.2213C280.072 66.6249 286.536 68.9216 291.94 66.3512Z" fill="#FCFFFE" stroke="#202926" stroke-miterlimit="10"/>
<path d="M294.121 56.5567C294.121 55.2033 293.719 53.8804 292.967 52.7551C292.216 51.6299 291.147 50.7529 289.897 50.235C288.646 49.7171 287.271 49.5816 285.943 49.8456C284.616 50.1096 283.397 50.7613 282.44 51.7182C281.483 52.6752 280.831 53.8944 280.567 55.2217C280.303 56.5491 280.439 57.9249 280.956 59.1752C281.474 60.4255 282.351 61.4942 283.477 62.246C284.602 62.9979 285.925 63.3992 287.278 63.3992C288.177 63.4001 289.067 63.2238 289.898 62.8803C290.728 62.5367 291.483 62.0327 292.119 61.3972C292.754 60.7616 293.258 60.0069 293.602 59.1763C293.945 58.3457 294.122 57.4555 294.121 56.5567Z" fill="white" stroke="#202926" stroke-miterlimit="10"/>
<path d="M290.453 56.5567C290.454 55.9287 290.269 55.3145 289.921 54.7916C289.573 54.2688 289.078 53.8609 288.498 53.6196C287.919 53.3783 287.28 53.3144 286.664 53.4361C286.048 53.5577 285.482 53.8594 285.038 54.303C284.593 54.7465 284.29 55.312 284.167 55.9278C284.044 56.5436 284.106 57.182 284.346 57.7623C284.586 58.3427 284.993 58.8387 285.515 59.1878C286.037 59.5368 286.651 59.7231 287.279 59.7231C288.119 59.7231 288.926 59.3897 289.521 58.7961C290.115 58.2025 290.451 57.3972 290.453 56.5567Z" fill="#FCFFFE" stroke="#202926" stroke-miterlimit="10"/>
<path d="M288.592 51.5955L287.285 56.5568L291.967 57.5836L288.592 51.5955Z" fill="#202926" stroke="#202926" stroke-miterlimit="10"/>
<path d="M290.588 54.3597L311.173 43.1445" stroke="#202926" stroke-width="2" stroke-miterlimit="10"/>
<path d="M304.568 46.8351L304.877 41.4573L314.549 35.9287V42.0676L304.568 46.8351Z" fill="#202926" stroke="#202926" stroke-miterlimit="10"/>
<path d="M318.699 44.9898L314.463 41.8665L304.525 47.0863L309.314 49.8578L318.699 44.9898Z" fill="#202926" stroke="#202926" stroke-miterlimit="10"/>
<path d="M192.431 57.6553H185.236V74.7868H192.431V57.6553Z" fill="#FCFFFE" stroke="#202926" stroke-miterlimit="10"/>
<path d="M203.036 52.4644H195.842V74.787H203.036V52.4644Z" fill="#FCFFFE" stroke="#202926" stroke-miterlimit="10"/>
<path d="M213.64 57.6553H206.445V74.7868H213.64V57.6553Z" fill="#FCFFFE" stroke="#202926" stroke-miterlimit="10"/>
<path d="M224.253 51.3369H217.059V74.7868H224.253V51.3369Z" fill="#FCFFFE" stroke="#202926" stroke-miterlimit="10"/>
<path d="M234.856 42.7568H227.662V74.7868H234.856V42.7568Z" fill="#FCFFFE" stroke="#202926" stroke-miterlimit="10"/>
<path d="M225.308 29.1867L228.115 30.3858L209.024 48.7091L199.905 43.7334L185.459 52.5145V55.1639L199.963 46.3469L209.397 51.495L229.681 32.0228L230.765 34.8733L234.778 25.5608L225.308 29.1867Z" fill="#202926" stroke="#202926" stroke-linecap="round" stroke-linejoin="round"/>
<path d="M141.546 74.0678C151.275 71.7842 157.31 62.0466 155.027 52.3182C152.743 42.5898 143.005 36.5546 133.277 38.8381C123.549 41.1217 117.513 50.8593 119.797 60.5877C122.08 70.3161 131.818 76.3514 141.546 74.0678Z" fill="white" stroke="#202926" stroke-miterlimit="10"/>
<path d="M140.987 72.1378C149.647 70.1609 155.065 61.5381 153.088 52.8784C151.111 44.2187 142.488 38.8013 133.828 40.7783C125.169 42.7553 119.751 51.378 121.728 60.0377C123.705 68.6974 132.328 74.1148 140.987 72.1378Z" fill="#FCFFFE" stroke="#202926" stroke-miterlimit="10"/>
<path d="M139.622 70.8837C147.542 69.6563 152.967 62.2412 151.74 54.3217C150.512 46.4022 143.097 40.9771 135.177 42.2046C127.258 43.432 121.833 50.847 123.06 58.7666C124.288 66.6861 131.703 72.1111 139.622 70.8837Z" fill="white" stroke="#202926" stroke-miterlimit="10"/>
<path d="M140.886 53.4209H143.47V55.2475H140.752C140.589 56.2426 140.277 57.0371 139.817 57.6311C139.371 58.2103 138.732 58.6336 137.901 58.9009C137.069 59.1533 135.992 59.2796 134.671 59.2796V60.683C134.671 61.4998 134.842 62.1458 135.183 62.621C135.54 63.0963 136.134 63.3339 136.965 63.3339C138.48 63.3339 139.237 62.4799 139.237 60.7721H141.576C141.562 62.272 141.153 63.4081 140.351 64.1804C139.564 64.9378 138.421 65.3165 136.921 65.3165C135.421 65.3165 134.27 64.9006 133.468 64.069C132.681 63.2373 132.287 62.0715 132.287 60.5716V57.5197C133.936 57.5197 135.146 57.4752 135.918 57.3861C136.69 57.2821 137.262 57.0742 137.633 56.7623C138.02 56.4505 138.272 55.9455 138.391 55.2475H131.352V53.4209H138.502V51.4383H131.352V49.5894H143.47V51.4383H140.886V53.4209Z" fill="#202926"/>
<path d="M78.771 42.4482H45.1758V74.0331H78.771V42.4482Z" fill="white" stroke="#202926" stroke-miterlimit="10"/>
<path d="M78.771 42.4482H45.1758V50.5688H78.771V42.4482Z" fill="#FCFFFE" stroke="#202926" stroke-linecap="round" stroke-linejoin="round"/>
<path d="M51.9251 55.0779H47.9043V59.0987H51.9251V55.0779Z" fill="#FCFFFE" stroke="#202926" stroke-linecap="round" stroke-linejoin="round"/>
<path d="M57.9563 55.0779H53.9355V59.0987H57.9563V55.0779Z" fill="#FCFFFE" stroke="#202926" stroke-linecap="round" stroke-linejoin="round"/>
<path d="M63.9798 55.0779H59.959V59.0987H63.9798V55.0779Z" fill="#FCFFFE" stroke="#202926" stroke-linecap="round" stroke-linejoin="round"/>
<path d="M70.011 55.0779H65.9902V59.0987H70.011V55.0779Z" fill="#FCFFFE" stroke="#202926" stroke-linecap="round" stroke-linejoin="round"/>
<path d="M76.0423 55.0779H72.0215V59.0987H76.0423V55.0779Z" fill="#FCFFFE" stroke="#202926" stroke-linecap="round" stroke-linejoin="round"/>
<path d="M51.9251 61.3962H47.9043V65.417H51.9251V61.3962Z" fill="#FCFFFE" stroke="#202926" stroke-linecap="round" stroke-linejoin="round"/>
<path d="M57.9563 61.3962H53.9355V65.417H57.9563V61.3962Z" fill="#FCFFFE" stroke="#202926" stroke-linecap="round" stroke-linejoin="round"/>
<path d="M63.9798 61.3962H59.959V65.417H63.9798V61.3962Z" fill="#FCFFFE" stroke="#202926" stroke-linecap="round" stroke-linejoin="round"/>
<path d="M70.011 61.3962H65.9902V65.417H70.011V61.3962Z" fill="#FCFFFE" stroke="#202926" stroke-linecap="round" stroke-linejoin="round"/>
<path d="M76.0423 61.3962H72.0215V65.417H76.0423V61.3962Z" fill="#FCFFFE" stroke="#202926" stroke-linecap="round" stroke-linejoin="round"/>
<path d="M51.9251 67.7146H47.9043V71.7354H51.9251V67.7146Z" fill="#FCFFFE" stroke="#202926" stroke-linecap="round" stroke-linejoin="round"/>
<path d="M57.9563 67.7146H53.9355V71.7354H57.9563V67.7146Z" fill="#FCFFFE" stroke="#202926" stroke-linecap="round" stroke-linejoin="round"/>
<path d="M63.9798 67.7146H59.959V71.7354H63.9798V67.7146Z" fill="#FCFFFE" stroke="#202926" stroke-linecap="round" stroke-linejoin="round"/>
<path d="M70.011 67.7146H65.9902V71.7354H70.011V67.7146Z" fill="#FCFFFE" stroke="#202926" stroke-linecap="round" stroke-linejoin="round"/>
<path d="M76.0423 67.7146H72.0215V71.7354H76.0423V67.7146Z" fill="#FCFFFE" stroke="#202926" stroke-linecap="round" stroke-linejoin="round"/>
<path d="M52.6435 37.2786H49.7715V45.033H52.6435V37.2786Z" fill="#202926"/>
<path d="M59.8232 37.2786H56.9512V45.033H59.8232V37.2786Z" fill="#202926"/>
<path d="M66.995 37.2786H64.123V45.033H66.995V37.2786Z" fill="#202926"/>
<path d="M74.1767 37.2786H71.3047V45.033H74.1767V37.2786Z" fill="#202926"/>
<path d="M15.9606 278.383C17.5187 279.065 21.3313 278.979 21.3313 278.979C21.3313 278.979 20.5127 276.487 20.4409 276.337C19.6009 274.585 16.9586 271.698 14.8046 271.985C14.4485 272.044 14.1086 272.177 13.8071 272.375C13.5057 272.574 13.2494 272.834 13.055 273.138C12.8606 273.442 12.7325 273.783 12.6789 274.14C12.6253 274.497 12.6475 274.862 12.744 275.209C13.103 276.696 14.6323 277.808 15.9606 278.383Z" fill="#FCFFFE"/>
<path d="M17.2753 289.433C18.8908 289.663 22.3013 288.679 22.5669 288.6C23.1248 290.547 23.8133 292.454 24.6276 294.308C25.0943 295.392 25.6041 296.462 26.121 297.546C25.8123 297.087 25.5323 296.685 25.482 296.634C24.2183 295.163 20.9012 293.044 18.9051 293.928C18.5766 294.077 18.2833 294.294 18.0444 294.564C17.8054 294.834 17.6262 295.152 17.5184 295.496C17.4107 295.84 17.3768 296.203 17.419 296.562C17.4613 296.92 17.5786 297.265 17.7635 297.575C18.4815 298.918 20.2693 299.585 21.7053 299.794C23.1413 300.002 26.0779 299.226 26.8462 299.004C27.0472 299.413 27.2483 299.83 27.4565 300.239C28.4402 302.199 29.431 304.152 30.3285 306.098C30.6516 306.78 30.946 307.469 31.2404 308.158C30.9603 307.749 30.7306 307.44 30.6875 307.369C29.4166 305.933 26.0995 303.814 24.1034 304.662C23.7767 304.814 23.4855 305.033 23.2487 305.304C23.0118 305.576 22.8345 305.894 22.7283 306.239C22.6221 306.583 22.5893 306.946 22.632 307.304C22.6747 307.662 22.7919 308.007 22.9762 308.316C23.6942 309.659 25.4892 310.32 26.918 310.528C28.3468 310.736 31.0106 310.032 31.944 309.81C32.224 310.528 32.504 311.246 32.7482 311.964C32.8989 312.445 33.0856 312.904 33.2077 313.4C33.3297 313.895 33.4805 314.362 33.6098 314.836C33.8323 315.762 34.0693 316.717 34.2631 317.629C34.4067 318.261 34.5288 318.871 34.6509 319.474C34.3349 318.792 33.6959 317.464 33.6313 317.356C32.5974 315.712 29.6392 313.148 27.5355 313.68C27.1942 313.779 26.8772 313.949 26.6044 314.177C26.3317 314.405 26.1091 314.687 25.9506 315.005C25.7921 315.324 25.7012 315.671 25.6836 316.026C25.666 316.381 25.722 316.736 25.8482 317.069C26.3723 318.505 28.0022 319.438 29.4382 319.862C30.9603 320.321 34.3349 319.898 34.7586 319.862C34.9596 320.874 35.1463 321.858 35.3114 322.784C35.6704 324.845 35.9433 326.683 36.1515 328.241H37.5875C37.3362 326.625 37.0131 324.708 36.5823 322.554C36.3812 321.528 36.1443 320.436 35.8643 319.316C36.8821 318.909 37.8747 318.441 38.8368 317.916C39.9497 319.122 42.793 320.53 43.1448 320.709C42.7571 321.664 42.3694 322.59 41.9888 323.452C41.199 325.268 40.4523 326.877 39.7917 328.241H41.3354C41.9027 326.977 42.5273 325.541 43.1735 323.933C43.5756 322.964 43.9777 321.922 44.3869 320.853C44.7962 320.939 48.1349 321.614 49.693 321.262C51.129 320.946 52.8163 320.149 53.4553 318.749C53.6139 318.424 53.7025 318.07 53.7152 317.708C53.728 317.347 53.6646 316.987 53.5291 316.652C53.3937 316.317 53.1893 316.014 52.9292 315.763C52.6691 315.512 52.3591 315.318 52.0193 315.195C49.9586 314.477 46.821 316.846 45.665 318.404C45.6004 318.498 44.947 319.575 44.588 320.264C44.7531 319.826 44.9183 319.402 45.0762 318.95C45.4065 318.052 45.7081 317.148 46.0383 316.178L46.4691 314.742C46.6199 314.261 46.7204 313.744 46.8569 313.235C47.1369 312.064 47.3595 310.858 47.5749 309.645C48.3647 309.932 51.1649 310.908 52.6009 310.801C54.0369 310.693 55.8606 310.169 56.6935 308.884C56.9018 308.589 57.0454 308.253 57.115 307.899C57.1845 307.544 57.1785 307.179 57.0971 306.827C57.0158 306.476 56.861 306.145 56.643 305.857C56.4249 305.569 56.1485 305.331 55.8319 305.157C53.9004 304.166 50.4397 305.997 49.0683 307.369C48.9821 307.455 48.1062 308.546 47.6323 309.156C47.7472 308.438 47.8692 307.72 47.9626 306.945C48.2282 304.791 48.4293 302.601 48.6806 300.418C48.7452 299.751 48.817 299.083 48.8888 298.415C49.1688 298.523 52.4788 299.751 54.1015 299.643C55.5375 299.535 57.354 299.011 58.1941 297.726C58.4013 297.431 58.544 297.095 58.6129 296.741C58.6819 296.387 58.6755 296.022 58.5942 295.671C58.513 295.319 58.3586 294.989 58.1412 294.701C57.9238 294.413 57.6483 294.174 57.3325 293.999C55.4011 293.001 51.9403 294.832 50.5617 296.204C50.4612 296.304 49.2047 297.884 48.9032 298.3C49.0539 296.828 49.2263 295.371 49.4488 293.935C49.7442 291.996 50.1614 290.077 50.6982 288.191C50.8274 288.241 54.2882 289.541 55.9396 289.426C57.3756 289.325 59.1993 288.794 60.0322 287.509C60.2394 287.213 60.3821 286.878 60.451 286.524C60.52 286.17 60.5136 285.805 60.4323 285.453C60.351 285.102 60.1967 284.771 59.9793 284.484C59.7619 284.196 59.4864 283.957 59.1706 283.782C57.2391 282.784 53.7784 284.622 52.407 285.987C52.2993 286.094 50.971 287.789 50.7197 288.141C50.7197 288.033 50.7771 287.918 50.8059 287.81C51.4006 285.936 52.1623 284.12 53.0819 282.382C53.5702 281.413 54.1015 280.515 54.6328 279.661C55.2503 279.97 58.0792 281.341 59.5942 281.406C61.1092 281.47 62.897 281.133 63.9022 279.97C64.1413 279.699 64.3206 279.381 64.4282 279.036C64.5358 278.691 64.5694 278.328 64.5266 277.969C64.4839 277.611 64.3659 277.265 64.1804 276.955C63.9948 276.645 63.7458 276.378 63.4498 276.171C61.6405 274.965 58.0002 276.416 56.4852 277.607C56.3991 277.672 55.638 278.433 55.0923 278.993C55.3364 278.613 55.5806 278.211 55.8103 277.844C56.715 276.48 57.634 275.281 58.4526 274.254C58.9264 273.658 59.3644 273.134 59.7809 272.639C60.5419 272.639 63.615 272.531 64.9576 271.921C66.3003 271.311 67.7722 270.162 68.0881 268.661C68.1751 268.31 68.1871 267.945 68.1234 267.59C68.0598 267.234 67.9218 266.896 67.7185 266.597C67.5153 266.298 67.2513 266.045 66.9438 265.856C66.6364 265.666 66.2923 265.543 65.9341 265.495C63.7801 265.265 61.2097 268.223 60.4199 269.997C60.3553 270.147 59.5655 272.668 59.6014 272.668H59.5942C59.1849 273.134 58.7469 273.637 58.2874 274.197C57.4402 275.231 56.4996 276.416 55.559 277.787C54.5114 279.233 53.5523 280.741 52.687 282.303C51.7198 284.042 50.91 285.863 50.2674 287.746V287.817C50.2674 287.178 50.2674 285.398 50.2674 285.261C50.0161 283.337 48.4006 279.769 46.2681 279.374C45.9114 279.318 45.5469 279.338 45.1983 279.432C44.8498 279.527 44.5251 279.693 44.2453 279.922C43.9656 280.15 43.737 280.435 43.5746 280.757C43.4122 281.08 43.3196 281.433 43.3028 281.793C43.1807 283.323 44.2864 284.852 45.3634 285.814C46.584 286.906 49.9658 287.968 50.2386 288.04C49.6287 289.973 49.149 291.945 48.8026 293.942C48.5944 295.105 48.4221 296.283 48.2641 297.46C48.2641 296.915 48.2641 296.419 48.2641 296.354C48.0128 294.43 46.3973 290.862 44.2649 290.467C43.9087 290.411 43.5448 290.431 43.1968 290.525C42.8487 290.619 42.5243 290.785 42.2447 291.012C41.965 291.24 41.7364 291.524 41.5735 291.845C41.4107 292.167 41.3173 292.519 41.2995 292.879C41.1775 294.409 42.2832 295.938 43.3602 296.907C44.4372 297.877 47.3236 298.839 48.0846 299.061L47.9123 300.426C47.6538 302.58 47.4025 304.777 47.0938 306.888C46.9861 307.606 46.8497 308.367 46.7133 309.106C46.7133 308.618 46.7133 308.201 46.7133 308.144C46.462 306.22 44.8536 302.644 42.714 302.249C42.3574 302.195 41.9933 302.215 41.6453 302.31C41.2972 302.405 40.973 302.572 40.6935 302.8C40.414 303.028 40.1855 303.312 40.0227 303.634C39.86 303.956 39.7666 304.309 39.7487 304.669C39.6266 306.198 40.7323 307.728 41.8165 308.69C42.9007 309.652 45.4927 310.535 46.3973 310.844C46.2394 311.562 46.0814 312.337 45.8947 313.062C45.7583 313.543 45.6578 314.024 45.4927 314.498C45.3275 314.972 45.1839 315.46 45.0331 315.934C44.7029 316.832 44.3726 317.758 44.0351 318.627L43.3171 320.379C43.432 319.661 43.633 318.174 43.633 318.045C43.6068 316.34 43.1472 314.67 42.2976 313.192C42.3118 313.003 42.3118 312.813 42.2976 312.624C42.2482 312.269 42.1251 311.928 41.9363 311.623C41.7475 311.318 41.4971 311.055 41.2011 310.853C40.905 310.65 40.5699 310.511 40.2172 310.445C39.8645 310.379 39.5019 310.388 39.1527 310.47C37.0562 311.03 35.7207 314.714 35.6202 316.652C35.6202 316.767 35.692 318.017 35.7494 318.806C35.6489 318.347 35.5484 317.909 35.4335 317.435C35.2109 316.509 34.9668 315.59 34.7155 314.599C34.5719 314.125 34.4211 313.644 34.2775 313.163C34.1339 312.682 33.94 312.186 33.7677 311.691C33.3585 310.556 32.8774 309.429 32.3748 308.302C33.1861 308.108 36.0653 307.376 37.2141 306.485C38.3629 305.595 39.5835 304.159 39.5763 302.63C39.5855 302.269 39.5187 301.91 39.3804 301.577C39.242 301.243 39.0352 300.942 38.7732 300.694C38.5113 300.446 38.2001 300.255 37.8597 300.135C37.5194 300.014 37.1576 299.966 36.7977 299.995C34.6437 300.232 32.7625 303.671 32.3748 305.574C32.3748 305.688 32.224 307.081 32.1666 307.85C31.8578 307.175 31.5491 306.5 31.2188 305.825C30.2495 303.886 29.2156 301.948 28.1889 300.009L27.2555 298.228C27.5498 298.157 30.9819 297.36 32.2815 296.369C33.4374 295.486 34.6509 294.042 34.6437 292.513C34.6528 292.152 34.5861 291.793 34.4477 291.46C34.3094 291.127 34.1025 290.826 33.8406 290.577C33.5786 290.329 33.2674 290.138 32.9271 290.018C32.5868 289.897 32.2249 289.85 31.865 289.878C29.711 290.115 27.8299 293.554 27.4421 295.457C27.4421 295.601 27.2267 297.611 27.2124 298.121C26.4944 296.807 25.8625 295.5 25.2594 294.179C24.4208 292.403 23.7012 290.572 23.1054 288.701C23.2418 288.701 26.8318 287.853 28.1314 286.841C29.2802 285.958 30.5008 284.515 30.4865 282.985C30.4966 282.625 30.4308 282.266 30.2933 281.933C30.1558 281.599 29.9496 281.298 29.6882 281.05C29.4268 280.801 29.116 280.611 28.776 280.49C28.4361 280.37 28.0746 280.322 27.715 280.35C25.561 280.587 23.6798 284.026 23.2849 285.922C23.2849 286.073 23.0623 288.234 23.0552 288.629L22.9403 288.299C22.4065 286.408 22.039 284.474 21.8417 282.519C21.7197 281.442 21.6694 280.401 21.6335 279.395C22.3515 279.309 25.4461 278.893 26.7385 278.11C28.0309 277.327 29.3448 276.057 29.5028 274.52C29.5524 274.163 29.5261 273.799 29.4256 273.452C29.3252 273.105 29.1529 272.784 28.9199 272.508C28.6869 272.232 28.3984 272.009 28.0733 271.852C27.7482 271.695 27.3937 271.609 27.0329 271.598C24.8789 271.598 22.6244 274.807 22.0069 276.624C22.0069 276.724 21.7556 277.78 21.612 278.555C21.612 278.096 21.612 277.629 21.612 277.191C21.612 275.547 21.7197 274.039 21.8202 272.711C21.8848 271.993 21.9566 271.275 22.0356 270.636C22.6603 270.205 25.1733 268.431 25.9487 267.161C26.7241 265.89 27.3201 264.138 26.7529 262.716C26.6309 262.378 26.4391 262.069 26.19 261.81C25.9408 261.55 25.6399 261.346 25.3067 261.211C24.9735 261.075 24.6156 261.011 24.2561 261.023C23.8966 261.035 23.5437 261.123 23.2203 261.28C21.2889 262.278 20.7791 266.163 21.0663 268.072C21.0663 268.238 21.8274 270.779 21.8561 270.758H21.8992C21.813 271.368 21.7269 272.029 21.6551 272.747C21.5186 274.082 21.3822 275.583 21.3463 277.234C21.2855 279.011 21.3263 280.79 21.4684 282.562C21.6258 284.545 21.9574 286.51 22.4592 288.435V288.507C22.1146 287.968 21.1094 286.504 21.0232 286.396C19.7524 284.96 16.4352 282.842 14.4392 283.689C14.1329 283.844 13.8608 284.058 13.6387 284.319C13.4166 284.581 13.2491 284.884 13.1461 285.211C13.043 285.539 13.0065 285.883 13.0387 286.225C13.0709 286.566 13.1711 286.898 13.3334 287.2C14.073 288.557 15.8393 289.218 17.2753 289.433Z" fill="#FCFFFE"/>
<path d="M54.5235 279.223C54.5235 279.223 55.2415 276.688 55.2415 276.523C55.5143 274.606 54.8969 270.736 52.9439 269.788C52.6148 269.64 52.258 269.562 51.8969 269.561C51.5357 269.559 51.1784 269.634 50.8482 269.781C50.5181 269.927 50.2226 270.142 49.9812 270.41C49.7397 270.679 49.5578 270.995 49.4472 271.339C48.9231 272.775 49.5837 274.549 50.3735 275.762C51.2925 277.191 54.5163 279.223 54.5235 279.223Z" fill="#FCFFFE"/>
<path d="M280.982 278.383C282.54 279.065 286.353 278.979 286.353 278.979C286.353 278.979 285.534 276.487 285.462 276.337C284.622 274.585 281.98 271.698 279.826 271.985C279.47 272.044 279.13 272.177 278.829 272.375C278.527 272.574 278.271 272.834 278.077 273.138C277.882 273.442 277.754 273.783 277.7 274.14C277.647 274.497 277.669 274.862 277.765 275.209C278.124 276.696 279.654 277.808 280.982 278.383Z" fill="#FCFFFE"/>
<path d="M282.296 289.433C283.911 289.663 287.322 288.679 287.587 288.6C288.148 290.546 288.837 292.453 289.648 294.308C290.115 295.392 290.624 296.462 291.141 297.546C290.833 297.087 290.553 296.685 290.502 296.635C289.239 295.163 285.922 293.045 283.925 293.928C283.597 294.077 283.304 294.294 283.065 294.564C282.826 294.834 282.647 295.152 282.539 295.496C282.431 295.84 282.397 296.203 282.439 296.562C282.482 296.92 282.599 297.265 282.784 297.575C283.502 298.918 285.29 299.585 286.726 299.794C288.162 300.002 291.098 299.226 291.867 299.004C292.068 299.413 292.269 299.83 292.477 300.239C293.461 302.199 294.451 304.152 295.349 306.098C295.672 306.78 295.966 307.469 296.261 308.158C295.981 307.749 295.751 307.44 295.708 307.369C294.437 305.933 291.127 303.815 289.124 304.662C288.796 304.813 288.503 305.03 288.265 305.302C288.027 305.573 287.848 305.891 287.74 306.235C287.633 306.58 287.598 306.943 287.64 307.301C287.682 307.66 287.798 308.006 287.982 308.316C288.7 309.659 290.495 310.32 291.924 310.528C293.353 310.736 296.017 310.032 296.95 309.81C297.23 310.528 297.517 311.246 297.754 311.964C297.905 312.445 298.092 312.904 298.214 313.4C298.336 313.895 298.487 314.362 298.616 314.836C298.838 315.762 299.075 316.717 299.269 317.629C299.413 318.261 299.535 318.871 299.657 319.474C299.341 318.792 298.702 317.464 298.637 317.356C297.603 315.712 294.645 313.149 292.541 313.68C292.195 313.779 291.873 313.951 291.596 314.183C291.32 314.414 291.095 314.702 290.937 315.026C290.778 315.35 290.69 315.704 290.677 316.064C290.664 316.425 290.727 316.784 290.861 317.119C291.386 318.555 293.015 319.488 294.451 319.912C295.974 320.372 299.348 319.948 299.772 319.912C299.973 320.924 300.159 321.908 300.325 322.834C300.684 324.895 300.956 326.733 301.165 328.291H302.601C302.349 326.676 302.026 324.759 301.595 322.605C301.394 321.578 301.157 320.486 300.877 319.366C301.895 318.959 302.888 318.492 303.85 317.966C304.963 319.173 307.806 320.58 308.158 320.759C307.77 321.714 307.383 322.64 307.002 323.502C306.212 325.319 305.465 326.927 304.805 328.291H306.349C306.916 327.027 307.541 325.591 308.187 323.983C308.589 323.014 308.991 321.973 309.4 320.903C309.809 320.989 313.148 321.664 314.706 321.312C316.142 320.996 317.829 320.199 318.468 318.799C318.627 318.474 318.716 318.12 318.728 317.759C318.741 317.397 318.678 317.037 318.542 316.702C318.407 316.367 318.202 316.064 317.942 315.813C317.682 315.562 317.372 315.368 317.032 315.245C314.972 314.527 311.834 316.896 310.678 318.455C310.614 318.548 309.96 319.625 309.601 320.314C309.766 319.876 309.931 319.453 310.097 319C310.42 318.103 310.721 317.198 311.052 316.229L311.482 314.793C311.633 314.312 311.734 313.795 311.87 313.285C312.15 312.115 312.373 310.908 312.588 309.695C313.378 309.982 316.178 310.959 317.614 310.851C319.05 310.743 320.874 310.219 321.707 308.934C321.915 308.639 322.059 308.303 322.128 307.949C322.198 307.595 322.192 307.23 322.11 306.878C322.029 306.526 321.874 306.195 321.656 305.907C321.438 305.62 321.162 305.381 320.845 305.207C318.914 304.217 315.453 306.047 314.081 307.419C313.995 307.505 313.119 308.596 312.645 309.207C312.76 308.489 312.882 307.771 312.976 306.995C313.241 304.841 313.442 302.651 313.658 300.469C313.722 299.801 313.794 299.133 313.866 298.465C314.146 298.573 317.456 299.801 319.079 299.693C320.515 299.585 322.331 299.061 323.171 297.776C323.379 297.481 323.521 297.145 323.59 296.791C323.659 296.437 323.653 296.072 323.572 295.721C323.49 295.369 323.336 295.039 323.119 294.751C322.901 294.463 322.626 294.224 322.31 294.05C320.378 293.052 316.918 294.883 315.539 296.254C315.439 296.354 314.182 297.934 313.88 298.351C314.031 296.879 314.204 295.421 314.426 293.985C314.721 292.046 315.139 290.128 315.675 288.241C315.805 288.291 319.265 289.591 320.917 289.476C322.353 289.376 324.177 288.844 325.009 287.559C325.217 287.264 325.359 286.928 325.428 286.574C325.497 286.22 325.491 285.855 325.41 285.504C325.328 285.152 325.174 284.822 324.957 284.534C324.739 284.246 324.464 284.007 324.148 283.833C322.216 282.835 318.756 284.673 317.384 286.037C317.277 286.145 315.948 287.839 315.697 288.191C315.697 288.083 315.754 287.968 315.783 287.861C316.378 285.987 317.14 284.17 318.059 282.432C318.547 281.463 319.079 280.566 319.61 279.711C320.228 280.02 323.056 281.391 324.571 281.456C326.086 281.521 327.874 281.183 328.879 280.02C329.119 279.749 329.298 279.431 329.405 279.087C329.513 278.742 329.547 278.378 329.504 278.02C329.461 277.661 329.343 277.315 329.158 277.006C328.972 276.696 328.723 276.429 328.427 276.222C326.618 275.016 322.978 276.466 321.463 277.658C321.384 277.722 320.615 278.483 320.07 279.044C320.314 278.663 320.558 278.261 320.788 277.895C321.699 276.531 322.611 275.331 323.43 274.305C323.904 273.709 324.342 273.185 324.758 272.689C325.519 272.689 328.592 272.582 329.935 271.971C331.278 271.361 332.749 270.212 333.065 268.711C333.152 268.361 333.164 267.996 333.101 267.64C333.037 267.284 332.899 266.946 332.696 266.647C332.493 266.348 332.229 266.096 331.921 265.906C331.614 265.716 331.27 265.593 330.911 265.545C328.757 265.315 326.18 268.273 325.39 270.047C325.325 270.198 324.536 272.718 324.571 272.718H324.622C324.212 273.185 323.774 273.687 323.315 274.247C322.468 275.281 321.527 276.466 320.587 277.837C319.551 279.284 318.604 280.792 317.75 282.353C316.783 284.092 315.973 285.913 315.331 287.796C315.334 287.82 315.334 287.844 315.331 287.868C315.331 287.229 315.331 285.448 315.331 285.312C315.079 283.387 313.464 279.819 311.332 279.424C310.975 279.368 310.61 279.388 310.262 279.483C309.913 279.577 309.589 279.744 309.309 279.972C309.029 280.2 308.8 280.485 308.638 280.807C308.476 281.13 308.383 281.483 308.366 281.844C308.244 283.373 309.35 284.902 310.427 285.865C311.647 286.956 315.029 288.019 315.302 288.09C314.692 290.023 314.212 291.995 313.866 293.992C313.658 295.155 313.486 296.333 313.328 297.51C313.328 296.965 313.328 296.469 313.328 296.405C313.076 294.481 311.461 290.912 309.328 290.517C308.972 290.461 308.608 290.481 308.26 290.575C307.912 290.669 307.588 290.835 307.308 291.063C307.028 291.29 306.8 291.574 306.637 291.896C306.474 292.217 306.381 292.57 306.363 292.93C306.241 294.459 307.347 295.988 308.424 296.958C309.501 297.927 312.387 298.889 313.148 299.112C313.098 299.564 313.033 300.016 312.976 300.476C312.717 302.63 312.466 304.827 312.157 306.938C312.05 307.656 311.913 308.417 311.777 309.156C311.777 308.668 311.777 308.252 311.777 308.194C311.525 306.27 309.917 302.694 307.777 302.3C307.421 302.245 307.057 302.266 306.709 302.36C306.361 302.455 306.036 302.622 305.757 302.85C305.477 303.078 305.249 303.362 305.086 303.684C304.923 304.006 304.83 304.359 304.812 304.719C304.69 306.249 305.796 307.778 306.88 308.74C307.964 309.702 310.563 310.585 311.461 310.894C311.303 311.612 311.145 312.387 310.958 313.113C310.822 313.594 310.721 314.075 310.556 314.549C310.391 315.022 310.247 315.511 310.097 315.985C309.766 316.882 309.436 317.808 309.099 318.677L308.381 320.429C308.495 319.711 308.696 318.225 308.696 318.096C308.674 316.39 308.214 314.719 307.361 313.242C307.363 313.052 307.351 312.863 307.325 312.675C307.276 312.319 307.153 311.978 306.964 311.673C306.775 311.368 306.525 311.106 306.229 310.903C305.933 310.7 305.597 310.561 305.245 310.496C304.892 310.43 304.529 310.438 304.18 310.521C302.084 311.081 300.748 314.764 300.648 316.703C300.648 316.817 300.72 318.067 300.777 318.857C300.676 318.397 300.576 317.959 300.461 317.485C300.238 316.559 299.994 315.64 299.743 314.649C299.599 314.175 299.449 313.694 299.305 313.213C299.161 312.732 298.968 312.237 298.795 311.741C298.386 310.607 297.905 309.48 297.402 308.352C298.214 308.158 301.093 307.426 302.242 306.536C303.39 305.645 304.611 304.209 304.604 302.68C304.613 302.319 304.546 301.96 304.408 301.627C304.27 301.293 304.063 300.993 303.801 300.744C303.539 300.496 303.228 300.305 302.887 300.185C302.547 300.064 302.185 300.017 301.825 300.045C299.671 300.282 297.79 303.721 297.402 305.624C297.402 305.739 297.252 307.132 297.194 307.9C296.885 307.225 296.577 306.55 296.246 305.875C295.277 303.937 294.243 301.998 293.216 300.059L292.283 298.279C292.577 298.207 296.009 297.41 297.309 296.419C298.465 295.536 299.678 294.093 299.671 292.563C299.68 292.203 299.614 291.844 299.475 291.51C299.337 291.177 299.13 290.876 298.868 290.628C298.606 290.379 298.295 290.189 297.955 290.068C297.614 289.948 297.252 289.9 296.893 289.928C294.739 290.165 292.857 293.605 292.47 295.507C292.47 295.651 292.254 297.661 292.24 298.171C291.558 296.857 290.89 295.55 290.287 294.229C289.461 292.452 288.753 290.622 288.169 288.751C288.305 288.751 291.895 287.904 293.195 286.891C294.344 286.008 295.564 284.565 295.55 283.036C295.56 282.675 295.494 282.316 295.357 281.983C295.219 281.649 295.013 281.349 294.752 281.1C294.49 280.852 294.179 280.661 293.839 280.54C293.5 280.42 293.138 280.372 292.778 280.401C290.624 280.637 288.743 284.077 288.348 285.972C288.348 286.123 288.126 288.284 288.119 288.679L288.004 288.349C287.47 286.458 287.102 284.524 286.905 282.569C286.79 281.492 286.733 280.451 286.697 279.446C287.415 279.359 290.51 278.943 291.802 278.16C293.094 277.378 294.408 276.107 294.566 274.57C294.616 274.213 294.59 273.849 294.489 273.502C294.389 273.155 294.216 272.834 293.983 272.558C293.75 272.282 293.462 272.059 293.137 271.902C292.812 271.745 292.457 271.659 292.096 271.648C289.942 271.648 287.688 274.858 287.07 276.674C287.07 276.775 286.819 277.83 286.675 278.606C286.675 278.146 286.675 277.679 286.675 277.241C286.675 275.597 286.783 274.089 286.884 272.761C286.948 272.043 287.02 271.325 287.099 270.686C287.724 270.255 290.237 268.482 291.012 267.211C291.788 265.94 292.384 264.188 291.816 262.766C291.694 262.428 291.503 262.119 291.253 261.86C291.004 261.6 290.703 261.396 290.37 261.261C290.037 261.126 289.679 261.062 289.32 261.074C288.96 261.086 288.607 261.173 288.284 261.33C286.352 262.328 285.843 266.213 286.166 268.123C286.166 268.288 286.884 270.83 286.955 270.808H286.991C286.905 271.418 286.819 272.079 286.747 272.797C286.611 274.132 286.474 275.633 286.438 277.284C286.378 279.061 286.418 280.84 286.561 282.612C286.718 284.595 287.05 286.56 287.551 288.485V288.557C287.207 288.019 286.202 286.554 286.115 286.446C284.845 285.01 281.527 282.892 279.531 283.739C279.203 283.889 278.909 284.107 278.67 284.378C278.431 284.648 278.252 284.967 278.144 285.312C278.037 285.656 278.003 286.02 278.045 286.379C278.087 286.738 278.205 287.083 278.39 287.394C279.093 288.557 280.86 289.218 282.296 289.433Z" fill="#FCFFFE"/>
<path d="M319.545 279.223C319.545 279.223 320.263 276.688 320.263 276.523C320.536 274.606 319.918 270.736 317.965 269.788C317.636 269.64 317.28 269.562 316.918 269.561C316.557 269.559 316.2 269.634 315.87 269.781C315.54 269.927 315.244 270.142 315.003 270.41C314.761 270.679 314.579 270.995 314.469 271.339C313.945 272.775 314.605 274.549 315.395 275.762C316.314 277.191 319.509 279.223 319.545 279.223Z" fill="#FCFFFE"/>
<path d="M250.819 128.931C250.819 128.931 251.042 120.825 255.716 118.527C260.39 116.23 260.656 123.819 260.656 123.819C260.656 123.819 271.347 117.027 273.666 122.175C275.985 127.323 272.747 129.814 272.747 129.814C272.747 129.814 282.239 129.484 282.9 134.69C283.56 139.895 278.656 142.444 278.656 142.444C278.656 142.444 284.522 147.233 282.462 149.445C280.401 151.656 275.892 151.814 275.892 151.814C275.892 151.814 278.448 156.948 273.989 158.771C269.53 160.595 264.433 157.199 264.433 157.199C264.433 157.199 265.222 159.554 261.877 158.958C258.531 158.362 255.149 156.804 253.074 151.893C250.999 146.982 248.321 133.074 250.819 128.931Z" fill="#202926" stroke="#202926" stroke-linecap="round" stroke-linejoin="round"/>
<path d="M201.464 285.491C201.464 285.491 198.8 295.658 198.844 296.785C198.887 297.913 197.96 300.469 198.743 301.194C200.208 302.389 201.761 303.471 203.388 304.432C204.052 304.423 204.699 304.226 205.255 303.865C205.435 303.703 205.58 303.507 205.68 303.287C205.78 303.067 205.833 302.828 205.837 302.587C205.837 302.206 204.767 300.612 204.623 300.239C204.48 299.866 206.584 295.005 207.381 292.585C207.977 290.425 208.405 288.221 208.659 285.994L201.464 285.491Z" fill="#BDBDBD" stroke="#202926" stroke-miterlimit="10"/>
<path d="M204.358 292.571C204.358 292.571 202.843 296.161 202.742 296.778C202.642 297.396 200.588 299.119 200.861 300.498C201.134 301.876 204.164 301.51 205.657 297.432" fill="#BDBDBD"/>
<path d="M204.358 292.571C204.358 292.571 202.843 296.161 202.742 296.778C202.642 297.396 200.588 299.119 200.861 300.498C201.134 301.876 204.164 301.51 205.657 297.432" stroke="#202926" stroke-miterlimit="10"/>
<path d="M211.142 230.263C211.142 230.263 209.871 250.999 209.39 252.829C208.909 254.66 203.136 271.383 201.866 276.523C201.086 279.707 200.532 282.941 200.207 286.202L207.954 287.832L212.305 268.719C212.305 268.719 217.992 251.3 216.836 243.136C216.243 238.379 214.263 233.902 211.142 230.263Z" fill="#FCFFFE" stroke="#202926" stroke-miterlimit="10"/>
<path d="M251.502 328.219C251.595 323.71 251.782 317.629 252.22 314.147C252.938 308.13 255.508 304.41 258.151 296.915C260.793 289.419 261.023 279.568 261.023 279.568L213.707 281.219C213.707 281.219 208.221 301.56 204.897 316.523C203.994 320.362 203.467 324.279 203.324 328.219" fill="#FCFFFE"/>
<path d="M251.502 328.219C251.595 323.71 251.782 317.629 252.22 314.147C252.938 308.13 255.508 304.41 258.151 296.915C260.793 289.419 261.023 279.568 261.023 279.568L213.707 281.219C213.707 281.219 208.221 301.56 204.897 316.523C203.994 320.362 203.467 324.279 203.324 328.219" stroke="#202926" stroke-miterlimit="10"/>
<path d="M219.902 288.844L259.27 289.95L260.103 286.906L219.902 288.844Z" fill="#202926" stroke="#202926" stroke-linecap="round" stroke-linejoin="round"/>
<path d="M217.912 327.501C217.912 327.501 217.137 302.881 217.115 289.519L217.912 327.501Z" fill="white"/>
<path d="M217.912 327.501C217.912 327.501 217.137 302.881 217.115 289.519" stroke="#202926" stroke-miterlimit="10"/>
<path d="M248.09 178.179L253.834 182.042C253.834 182.042 260.633 188.116 262.306 193.142C263.979 198.168 262.766 228.015 261.079 237.658C259.391 247.301 263.606 259.313 265.106 266.091C266.607 272.869 267.26 285.477 267.26 285.477C267.26 285.477 268.323 286.956 249.885 287.595C231.447 288.234 218.587 289.196 217.079 289.498C216.168 289.685 215.244 289.802 214.315 289.85L213.597 283.301L211.809 288.694L207.982 287.818C207.982 287.818 210.359 276.1 210.955 271.533C211.551 266.967 215.313 251.429 215.363 245.585C215.414 239.74 210.531 230.335 209.576 224.547C208.621 218.76 210.546 208.838 215.32 201.342C220.095 193.846 223.297 190.945 232.631 183.291C241.965 175.637 248.09 178.179 248.09 178.179Z" fill="#FCFFFE" stroke="#202926" stroke-miterlimit="10"/>
<path d="M233.127 265.667L252.391 267.85L251.307 262.81L239.287 261.776" stroke="#202926" stroke-miterlimit="10"/>
<path d="M226.392 261.496L225.416 264.798L230.248 265.344" stroke="#202926" stroke-miterlimit="10"/>
<path d="M233.623 228.489C232.718 227.651 231.886 226.735 231.139 225.754" stroke="#202926" stroke-miterlimit="10"/>
<path d="M240.322 234.147C240.322 234.147 238.29 232.611 236.064 230.701" stroke="#202926" stroke-miterlimit="10"/>
<path d="M248.091 178.179C248.091 178.179 241.967 175.63 232.633 183.291C223.299 190.952 220.104 193.86 215.307 201.342C212.442 205.967 210.538 211.122 209.707 216.499C209.822 217.059 209.944 217.626 210.08 218.207C212.751 229.494 215.724 234.951 215.724 234.951C215.724 234.951 220.893 209.232 229.89 198.807C238.887 188.382 253.828 182.042 253.828 182.042L248.091 178.179Z" fill="#FCFFFE" stroke="#202926" stroke-miterlimit="10"/>
<path d="M225.638 128.012C225.638 128.012 218.896 134.309 218.393 139.27C217.891 144.232 217.367 148.511 216.527 150.112C215.687 151.713 211.45 152.762 212.886 155.181C214.322 157.601 215.665 157.551 215.665 157.551C215.665 157.551 217.819 168.256 219.456 169.757C221.093 171.257 226.887 170.396 226.887 170.396L228.682 183.377C228.682 183.377 216.627 194.068 214.279 208.967C211.931 223.865 214.617 232.366 214.617 232.366C214.617 232.366 216.189 208.895 221.617 200.107C227.045 191.318 239.653 182.997 241.513 181.496C243.373 179.995 248.09 178.164 248.09 178.164C248.09 178.164 245.85 173.138 245.548 170.87C245.247 168.601 245.347 165.262 245.771 164.35C246.194 163.438 253.726 160.703 256.541 152.072C259.355 143.442 255.212 133.254 250.797 128.917C246.381 124.58 231.282 122.426 225.638 128.012Z" fill="#BDBDBD" stroke="#202926" stroke-miterlimit="10"/>
<path d="M256.57 152.087C259.442 143.471 255.242 133.268 250.826 128.931C246.41 124.595 231.289 122.426 225.646 128.012C225.646 128.012 225.287 128.35 224.727 128.931C226.872 128.395 229.106 128.321 231.282 128.716C235.798 129.434 235.698 133.024 234.47 136.463C233.242 139.902 234.168 140.513 236.473 142.207C238.778 143.902 236.416 147.154 238.038 148.446C239.661 149.739 240.982 142.702 244.5 147.772C248.018 152.841 245.656 155.138 243.459 156.56C242.229 157.382 240.893 158.034 239.489 158.498C239.489 158.498 242.813 162.397 246.094 164.006C247.667 162.835 254.014 159.841 256.57 152.087Z" fill="#202926" stroke="#202926" stroke-linecap="round" stroke-linejoin="round"/>
<path d="M219.32 159.446C219.32 159.446 224.023 159.058 226.199 156.962" stroke="#202926" stroke-miterlimit="10"/>
<path d="M222.307 148.339C222.343 149.452 221.919 150.371 221.366 150.392C220.814 150.414 220.325 149.523 220.282 148.411C220.239 147.298 220.67 146.379 221.223 146.357C221.776 146.336 222.264 147.226 222.307 148.339Z" fill="#202926"/>
<path d="M220.283 143.794C220.283 143.794 221.798 141.755 223.967 144.16" stroke="#202926" stroke-miterlimit="10"/>
<path d="M226.889 170.41L232.496 168.299L228.59 175.314L226.889 170.41Z" fill="#202926" stroke="#202926" stroke-miterlimit="10"/>
<path d="M210.741 273.465L203.389 304.432L209.987 305.968L213.62 283.323L210.741 273.465Z" fill="white" stroke="#202926" stroke-miterlimit="10"/>
<path d="M217.237 199.324C215.825 202.397 214.831 205.645 214.279 208.981C211.931 223.872 214.617 232.381 214.617 232.381C214.617 232.381 216.175 209.225 221.509 200.308C220.053 200.143 218.619 199.813 217.237 199.324Z" fill="white" stroke="#202926" stroke-miterlimit="10"/>
<path d="M239.955 208.988L239.453 235.267L193.465 242.849L194.47 255.235C194.47 255.235 219.995 255.737 231.871 254.725C243.746 253.713 254.129 252.959 255.622 251.695C257.116 250.431 261.445 226.005 263.211 208.823C264.978 191.641 261.445 185.847 254.373 186.838" fill="#FCFFFE"/>
<path d="M239.955 208.988L239.453 235.267L193.465 242.849L194.47 255.235C194.47 255.235 219.995 255.737 231.871 254.725C243.746 253.713 254.129 252.959 255.622 251.695C257.116 250.431 261.445 226.005 263.211 208.823C264.978 191.641 261.445 185.847 254.373 186.838" stroke="#202926" stroke-miterlimit="10"/>
<path d="M165.951 241.736L162.268 252.908L165.858 254.861C165.858 254.861 170.417 258.394 172.916 260.304C175.414 262.214 177.331 262.214 178.66 261.625C179.988 261.036 186.012 252.506 186.744 250.891C187.477 249.275 183.951 244.429 180.426 242.361C176.9 240.293 173.964 240.307 171.896 240.925C169.939 241.351 167.951 241.622 165.951 241.736Z" fill="white" stroke="#202926" stroke-miterlimit="10"/>
<path d="M193.464 242.849L187.649 242.347C185.824 241.871 183.966 241.532 182.091 241.334C180.576 241.334 178.552 242.849 177.539 243.61C176.527 244.371 165.412 256.498 165.412 256.498C165.412 256.498 166.424 258.516 167.939 258.013C169.454 257.511 172.247 256.24 172.247 256.24C172.247 256.24 169.218 259.277 170.732 260.792C172.247 262.307 174.775 262.307 174.775 262.307L176.548 261.295C177.294 261.883 178.151 262.313 179.068 262.558C180.332 262.81 182.357 262.307 184.094 261.295C185.832 260.282 190.348 255.012 190.348 255.012L194.225 253.512L193.464 242.849Z" fill="#BDBDBD" stroke="#202926" stroke-miterlimit="10"/>
<path d="M167.955 242.217C167.955 242.217 175.307 237.952 178.538 239.13C181.769 240.307 186.042 247.509 184.864 248.543C183.686 249.577 181.777 249.124 180.75 248.098C179.891 247.318 178.955 246.628 177.957 246.037C176.021 247.125 173.851 247.731 171.631 247.803" fill="white"/>
<path d="M167.955 242.217C167.955 242.217 175.307 237.952 178.538 239.13C181.769 240.307 186.042 247.509 184.864 248.543C183.686 249.577 181.777 249.124 180.75 248.098C179.891 247.318 178.955 246.628 177.957 246.037C176.021 247.125 173.851 247.731 171.631 247.803" stroke="#202926" stroke-miterlimit="10"/>
<path d="M189.882 258.911L187.548 257.661C187.36 257.562 187.194 257.426 187.059 257.262C186.923 257.098 186.822 256.909 186.76 256.705C186.698 256.502 186.676 256.288 186.697 256.076C186.718 255.865 186.78 255.659 186.881 255.472C186.981 255.284 187.117 255.118 187.282 254.984C187.446 254.849 187.635 254.748 187.839 254.687C188.042 254.626 188.256 254.605 188.467 254.626C188.678 254.648 188.883 254.71 189.071 254.811L191.404 256.053C191.782 256.256 192.065 256.6 192.19 257.01C192.315 257.421 192.273 257.864 192.072 258.243C191.869 258.621 191.525 258.904 191.115 259.029C190.704 259.154 190.261 259.112 189.882 258.911Z" fill="white" stroke="#202926" stroke-miterlimit="10"/>
<path d="M187.822 261.409L185.488 260.16C185.12 259.958 184.844 259.62 184.719 259.218C184.595 258.816 184.631 258.382 184.821 258.006C185.024 257.638 185.363 257.364 185.764 257.241C186.166 257.118 186.6 257.155 186.975 257.345L189.308 258.588C189.678 258.789 189.955 259.126 190.08 259.529C190.205 259.931 190.167 260.366 189.976 260.742C189.775 261.112 189.437 261.389 189.035 261.514C188.632 261.638 188.197 261.601 187.822 261.409Z" fill="white" stroke="#202926" stroke-miterlimit="10"/>
<path d="M185.467 263.614L183.133 262.364C182.945 262.265 182.779 262.129 182.644 261.965C182.509 261.8 182.407 261.611 182.346 261.407C182.284 261.204 182.264 260.99 182.286 260.778C182.308 260.567 182.371 260.361 182.473 260.174C182.573 259.987 182.709 259.821 182.874 259.687C183.038 259.552 183.227 259.451 183.431 259.39C183.634 259.329 183.848 259.308 184.059 259.329C184.27 259.35 184.476 259.413 184.663 259.514L186.996 260.763C187.184 260.863 187.349 261 187.484 261.164C187.619 261.328 187.719 261.518 187.781 261.721C187.842 261.925 187.863 262.138 187.841 262.349C187.82 262.561 187.757 262.766 187.657 262.953C187.556 263.14 187.42 263.306 187.256 263.441C187.092 263.575 186.902 263.676 186.699 263.738C186.495 263.799 186.282 263.82 186.07 263.798C185.859 263.777 185.654 263.714 185.467 263.614Z" fill="white" stroke="#202926" stroke-miterlimit="10"/>
<path d="M180.512 263.722L179.902 263.398C179.714 263.299 179.548 263.163 179.412 262.999C179.277 262.835 179.175 262.646 179.113 262.442C179.051 262.239 179.03 262.025 179.051 261.813C179.071 261.602 179.134 261.396 179.234 261.209C179.437 260.83 179.781 260.548 180.191 260.423C180.602 260.297 181.045 260.34 181.424 260.541L182.034 260.871C182.222 260.971 182.389 261.106 182.524 261.271C182.66 261.435 182.761 261.624 182.823 261.827C182.885 262.031 182.906 262.244 182.886 262.456C182.865 262.668 182.803 262.873 182.702 263.061C182.602 263.248 182.466 263.414 182.301 263.549C182.137 263.683 181.948 263.784 181.744 263.846C181.541 263.907 181.327 263.928 181.116 263.906C180.904 263.885 180.699 263.822 180.512 263.722Z" fill="white" stroke="#202926" stroke-miterlimit="10"/>
<path d="M165.951 241.736L135.092 228.69L136.233 249.132L161.715 254.969L165.951 241.736Z" fill="#202926" stroke="#202926" stroke-linecap="round" stroke-linejoin="round"/>
<path d="M161.716 254.969L165.952 241.736L161.637 239.826L161.551 240.264L157.602 253.971L161.716 254.969Z" fill="white" stroke="#202926" stroke-miterlimit="10"/>
<path d="M117.752 159.97L125.65 163.639C125.65 163.639 128.967 173.038 127.861 173.311C126.756 173.584 118.463 166.957 118.463 166.957L117.752 159.97Z" fill="white" stroke="#202926" stroke-linecap="round" stroke-linejoin="round"/>
<path d="M122.339 158.089L122.892 154.923C122.892 154.923 130.216 155.425 133.145 155.404C136.075 155.382 138.631 155.009 138.609 151.9C138.588 148.791 136.879 138.186 136.879 138.186C136.879 138.186 140.167 137.432 141.438 135.96C142.709 134.489 140.871 132.672 139.212 130.482C137.554 128.292 136.068 125.93 135.874 123.367C135.68 120.804 131.228 112.417 131.228 112.417C131.228 112.417 131.946 111.132 129.555 108.404C127.164 105.675 114.901 105.201 107.053 109.122C99.2055 113.042 97.4176 118.7 97.4535 124.918C97.4894 131.136 101.044 139.902 101.044 139.902C101.044 139.902 98.7244 149.43 98.5449 149.954C98.3654 150.478 96.2832 154.564 96.2832 154.564C96.2832 154.564 106.098 161.406 109.681 164.479C113.264 167.552 121.356 172.808 121.406 169.965C121.456 167.122 121.779 160.703 121.779 160.703L122.339 158.089Z" fill="white" stroke="#202926" stroke-linecap="round" stroke-linejoin="round"/>
<path d="M133.161 128.393C133.204 129.455 132.96 130.324 132.608 130.338C132.257 130.353 131.926 129.513 131.89 128.45C131.855 127.387 132.084 126.519 132.443 126.504C132.802 126.49 133.111 127.33 133.161 128.393Z" fill="#202926"/>
<path d="M128.012 124.882C128.012 124.882 129.642 122.125 133.863 123.747" stroke="#202926" stroke-width="2" stroke-linecap="round" stroke-linejoin="round"/>
<path d="M138.609 151.9C138.609 148.784 136.879 138.186 136.879 138.186C136.879 138.186 134.861 137.102 131.02 138.036C127.179 138.969 126.131 145.216 125.398 145.934C124.666 146.652 119.891 142.344 118.039 139.393C116.186 136.442 114.88 131.394 114.678 128.443C114.477 125.492 121.42 124.006 122.505 121.263C123.589 118.52 118.47 115.598 120.257 113.767C122.045 111.936 125.743 112.64 127.574 112.992C128.822 113.16 130.092 112.961 131.228 112.417C131.228 112.417 131.946 111.132 129.555 108.404C127.164 105.675 114.901 105.201 107.053 109.122C99.2056 113.042 97.4178 118.7 97.4537 124.918C97.4896 129.944 99.8159 136.664 100.692 139.034C101.433 139.354 102.232 139.52 103.04 139.522C103.758 139.335 104.303 137.138 104.655 134.934C105.007 132.729 110.299 130.145 110.299 130.145C110.299 130.145 111.254 136.729 111.261 138.007C111.268 139.285 110.543 145.697 114.075 148.777C116.841 151.07 119.79 153.132 122.892 154.944C122.892 154.944 130.216 155.447 133.145 155.425C136.075 155.404 138.631 155.009 138.609 151.9Z" fill="#202926" stroke="#202926" stroke-linecap="round" stroke-linejoin="round"/>
<path d="M111.427 134.683C111.427 134.683 109.905 125.909 107.349 126.289C104.793 126.67 103.343 129.972 104.649 134.187C105.956 138.402 108.519 138.007 109.977 137.634" fill="white"/>
<path d="M111.427 134.683C111.427 134.683 109.905 125.909 107.349 126.289C104.793 126.67 103.343 129.972 104.649 134.187C105.956 138.402 108.519 138.007 109.977 137.634" stroke="#202926" stroke-linecap="round" stroke-linejoin="round"/>
<path d="M129.398 141.338C129.398 141.338 130.87 143.162 134.712 143.141" stroke="white" stroke-linecap="round" stroke-linejoin="round"/>
<path d="M88.3135 328.219H127.085C127.215 326.18 128.723 318.34 128.723 313.199C128.723 307.261 132.808 268.956 132.808 268.956L82.3828 268.295L84.0342 291.738L88.3135 328.219Z" fill="#202926" stroke="#202926" stroke-linecap="round" stroke-linejoin="round"/>
<path d="M93.3401 155.899C93.3401 155.899 84.5015 167.237 82.0101 173.591C79.5186 179.945 77.5872 181.051 78.1401 189.064C78.6929 197.077 82.5701 229.135 82.5701 229.135L74.8301 270.873C83.9655 274.146 93.5948 275.826 103.299 275.841C119.325 275.841 126.275 274.463 127.345 273.91C128.414 273.357 138.115 270.873 138.115 270.873C138.115 270.873 138.115 223.614 135.07 207.308C132.026 191.002 128.163 178.588 126.785 175.522C125.406 172.456 120.976 162.534 120.976 162.534L93.3401 155.899Z" fill="#202926" stroke="#202926" stroke-linecap="round" stroke-linejoin="round"/>
<path d="M126.805 175.522C125.42 172.485 120.997 162.534 120.997 162.534L93.3394 155.899C93.3394 155.899 91.4726 158.298 89.2109 161.507C95.235 165.004 110.148 173.648 111.031 173.864C112.137 174.144 117.665 173.591 117.665 173.591L115.195 176.628C115.195 176.628 121.83 181.884 124.041 184.088C125.204 185.251 128.579 188.324 131.523 190.981C129.519 183.04 127.667 177.432 126.805 175.522Z" fill="#202926" stroke="#202926" stroke-linecap="round" stroke-linejoin="round"/>
<path d="M114.09 168.615L123.488 176.075L131.221 189.897L126.253 169.721L116.028 163.919L114.09 168.615Z" fill="white" stroke="#202926" stroke-linecap="round" stroke-linejoin="round"/>
<path d="M95.3004 150.651L124.236 163.69V173.914L91.1504 157.005L95.3004 150.651Z" fill="white" stroke="#202926" stroke-linecap="round" stroke-linejoin="round"/>
<path d="M133.562 255.242H83.5605V295.701H133.562V255.242Z" fill="#FCFFFE" stroke="#202926" stroke-miterlimit="10"/>
<path d="M111.627 274.527C111.627 274.527 115.347 279.374 116.804 279.862C118.031 280.366 119.046 281.279 119.676 282.447C120.322 283.416 121.112 290.69 121.615 291.178C122.117 291.666 122.103 292.793 120.322 291.982C118.542 291.171 117.45 288.392 117.45 288.392L118.097 294.854C118.097 294.854 119.533 295.177 118.42 295.988C117.307 296.8 116.316 297.927 115.347 297.424C114.484 296.911 113.674 296.314 112.927 295.644C111.772 296.031 110.542 296.142 109.337 295.967C107.563 295.644 107.901 296.29 106.271 295.155C104.641 294.021 104.648 295.321 103.844 293.217C102.592 289.452 101.565 285.616 100.771 281.729C100.448 279.625 100.125 276.703 100.125 276.703L111.627 274.527Z" fill="white" stroke="#202926" stroke-linecap="round" stroke-linejoin="round"/>
<path d="M112.281 271.454L113.408 276.466L99.5075 278.405L98.8613 273.393L112.281 271.454Z" fill="white" stroke="#202926" stroke-linecap="round" stroke-linejoin="round"/>
<path d="M94.4667 165.858C94.4667 165.858 84.7952 168.895 84.5223 173.318C84.2495 177.741 81.04 231.383 82.4258 234.973C83.8115 238.563 97.4033 274.944 97.4033 274.944L113.156 273.012C113.156 273.012 105.086 230.823 104.827 229.99C104.569 229.157 110.241 182.157 110.241 182.157" fill="#202926"/>
<path d="M94.4667 165.858C94.4667 165.858 84.7952 168.895 84.5223 173.318C84.2495 177.741 81.04 231.383 82.4258 234.973C83.8115 238.563 97.4033 274.944 97.4033 274.944L113.156 273.012C113.156 273.012 105.086 230.823 104.827 229.99C104.569 229.157 110.241 182.157 110.241 182.157" stroke="#202926" stroke-linecap="round" stroke-linejoin="round"/>
<path d="M108.368 195.655L104.807 229.99L108.203 251.322" stroke="#878787" stroke-linecap="round" stroke-linejoin="round"/>
<path d="M108.913 190.399L108.727 192.223" stroke="#878787" stroke-linecap="round" stroke-linejoin="round"/>
<path d="M83.4103 185.086L82.3477 217.324" stroke="#878787" stroke-linecap="round" stroke-linejoin="round"/>
<path d="M119.54 245.692L130.166 245.305L131.121 249.132L113.516 250.259" stroke="#878787" stroke-linecap="round" stroke-linejoin="round"/>
<path d="M110.688 246.008L116.345 245.807" stroke="#878787" stroke-linecap="round" stroke-linejoin="round"/>
<path d="M91.5586 162.419L111.052 173.864L117.687 173.591L115.195 176.628L128.04 186.859" stroke="#878787" stroke-linecap="round" stroke-linejoin="round"/>
<path d="M8.24219 328.219H336.002" stroke="#202926" stroke-miterlimit="10"/>
<path d="M100.871 32.3245V80.8541" stroke="#202926" stroke-miterlimit="10"/>
<path d="M175.414 32.3245V80.8541" stroke="#202926" stroke-miterlimit="10"/>
<path d="M249.957 32.3245V80.8541" stroke="#202926" stroke-miterlimit="10"/>
</g>
</svg>
