<svg width="17" height="18" viewBox="0 0 17 18" fill="none" xmlns="http://www.w3.org/2000/svg">
<path d="M16.2506 8.88873L16.9535 6.72509C17.0151 6.53558 17.0151 6.33144 16.9535 6.14194C16.892 5.95243 16.772 5.78728 16.6107 5.67017L14.7703 4.33301L14.0673 2.16931C14.0057 1.97982 13.8857 1.81468 13.7245 1.69757C13.5633 1.58046 13.3692 1.51739 13.1699 1.51739H10.895L9.05418 0.180174C8.89299 0.0630705 8.69886 0 8.49962 0C8.30038 0 8.10626 0.0630705 7.94507 0.180174L6.10453 1.51739H3.8298C3.63055 1.51739 3.43641 1.58046 3.27521 1.69757C3.11401 1.81468 2.99402 1.97982 2.93244 2.16931L2.22945 4.33301L0.388976 5.67017C0.227764 5.78728 0.107768 5.95243 0.0461873 6.14194C-0.0153929 6.33144 -0.0153959 6.53558 0.0461792 6.72509L0.749169 8.88873L0.0461792 11.0523C-0.0153959 11.2418 -0.0153929 11.4459 0.0461873 11.6355C0.107768 11.825 0.227764 11.9901 0.388976 12.1072L2.22945 13.4444L2.93244 15.6081C2.99401 15.7976 3.11399 15.9627 3.2752 16.0799C3.4364 16.197 3.63054 16.2601 3.8298 16.2601H6.10477L7.94554 17.5972C8.10673 17.7143 8.30086 17.7774 8.5001 17.7774C8.69934 17.7774 8.89346 17.7143 9.05466 17.5972L10.8952 16.2601H13.1702C13.3694 16.2601 13.5636 16.197 13.7248 16.0799C13.886 15.9627 14.0059 15.7976 14.0675 15.6081L14.7705 13.4444L16.611 12.1072C16.7722 11.9901 16.8922 11.825 16.9538 11.6355C17.0154 11.4459 17.0154 11.2418 16.9538 11.0523L16.2506 8.88873ZM6.14103 6.13073C6.32765 6.13073 6.51007 6.18606 6.66523 6.28974C6.82039 6.39342 6.94133 6.54078 7.01274 6.71318C7.08416 6.88559 7.10284 7.0753 7.06644 7.25833C7.03003 7.44136 6.94017 7.60948 6.80821 7.74144C6.67626 7.87339 6.50814 7.96325 6.32511 7.99966C6.14208 8.03606 5.95237 8.01738 5.77996 7.94597C5.60755 7.87455 5.46019 7.75362 5.35652 7.59846C5.25284 7.44329 5.1975 7.26087 5.1975 7.07426C5.1975 6.82402 5.29691 6.58403 5.47386 6.40708C5.6508 6.23013 5.89079 6.13073 6.14103 6.13073ZM10.8587 12.9713C10.6721 12.9713 10.4897 12.916 10.3345 12.8123C10.1793 12.7086 10.0584 12.5613 9.98698 12.3889C9.91556 12.2165 9.89688 12.0267 9.93329 11.8437C9.96969 11.6607 10.0596 11.4926 10.1915 11.3606C10.3235 11.2287 10.4916 11.1388 10.6746 11.1024C10.8576 11.066 11.0474 11.0847 11.2198 11.1561C11.3922 11.2275 11.5395 11.3484 11.6432 11.5036C11.7469 11.6588 11.8022 11.8412 11.8022 12.0278C11.8022 12.278 11.7028 12.518 11.5259 12.695C11.3489 12.8719 11.1089 12.9713 10.8587 12.9713ZM6.3364 12.9308L5.00213 11.5965L10.6633 5.93536L11.9976 7.26963L6.3364 12.9308Z" fill="#FCFFFE"/>
</svg>
