<svg width="20" height="35" viewBox="0 0 20 35" fill="none" xmlns="http://www.w3.org/2000/svg">
<path d="M2.49877 2.53625H0C0 4.98644 0.978896 7.20601 2.56243 8.8123C4.14594 10.4186 6.33407 11.4116 8.74955 11.4116V17.1189C8.74955 17.2926 8.81923 17.4509 8.93286 17.5663C9.04657 17.6814 9.20264 17.7523 9.37536 17.7523H10.6255C10.7967 17.7523 10.9528 17.6814 11.0665 17.5663C11.1801 17.4509 11.2499 17.2926 11.2499 17.1189V11.4116C11.2499 8.96141 10.2709 6.74182 8.68741 5.13553C7.10387 3.52922 4.91575 2.53625 2.49877 2.53625ZM17.5007 0C15.8549 0 14.3183 0.46113 13.0045 1.26198C11.6923 2.06282 10.6028 3.20336 9.85574 4.56524C10.3967 5.16321 10.8665 5.82567 11.256 6.54044C11.6438 7.25517 11.9484 8.02226 12.1606 8.82919C14.3608 8.5971 16.3217 7.53805 17.7309 5.96249C19.1401 4.38847 19.9994 2.29646 19.9994 0H17.5007Z" fill="#FCFFFE"/>
<path d="M15.7802 19.5014C15.9105 19.5014 16.0273 19.4476 16.1122 19.3615C16.1971 19.2755 16.25 19.1571 16.25 19.0249V17.4401C16.25 17.3095 16.1971 17.1896 16.1122 17.1035C16.0273 17.0174 15.9105 16.9652 15.7802 16.9652H4.21825C4.08794 16.9652 3.97126 17.0174 3.88641 17.1035C3.80153 17.1896 3.74851 17.3095 3.74851 17.4401V19.2141C3.74851 19.3446 3.80153 19.463 3.88641 19.549C3.97126 19.6351 4.08794 19.6889 4.21825 19.6889H7.54897C8.08234 19.6889 8.55362 19.7872 8.95366 19.9718C9.35369 20.1561 9.68254 20.4267 9.93104 20.7681H4.21825C4.08794 20.7681 3.97126 20.8218 3.88641 20.9079C3.80153 20.994 3.74851 21.1123 3.74851 21.2446V22.8293C3.74851 22.9599 3.80153 23.0799 3.88641 23.166C3.97126 23.2521 4.08794 23.3041 4.21825 23.3041H10.419C10.2977 24.019 9.97653 24.5999 9.48098 25.0028C8.98551 25.4041 8.3157 25.6283 7.49895 25.6283H4.21825C4.08794 25.6283 3.97126 25.6806 3.88641 25.7666C3.80153 25.8527 3.74851 25.9727 3.74851 26.1033V28.2047C3.74851 28.2707 3.76214 28.3352 3.7879 28.3951C3.81368 28.455 3.85155 28.5091 3.90004 28.5536L10.3477 34.5912C10.3902 34.6313 10.4402 34.6636 10.4948 34.6836C10.5494 34.7051 10.607 34.7174 10.666 34.7174H13.8905C14.1042 34.7174 14.2618 34.5836 14.3271 34.4144C14.3922 34.2455 14.3649 34.0379 14.2088 33.892L8.31424 28.3736C9.80831 28.3259 11.0887 27.7971 12.0313 26.9118C12.9737 26.0251 13.5769 24.7813 13.7179 23.3041H15.7802C15.9105 23.3041 16.0273 23.2521 16.1122 23.166C16.1971 23.0799 16.25 22.9599 16.25 22.8293V21.2446C16.25 21.1123 16.1971 20.994 16.1122 20.9079C16.0273 20.8218 15.9105 20.7681 15.7802 20.7681H13.4876C13.4193 20.5404 13.3391 20.3192 13.2467 20.1087C13.1528 19.8965 13.0481 19.6935 12.9316 19.5014H15.7802Z" fill="#FCFFFE"/>
</svg>
