<svg width="216" height="216" viewBox="0 0 216 216" fill="none" xmlns="http://www.w3.org/2000/svg">
<path d="M180.351 39.6101C180.351 39.6101 169.892 20.2565 147.48 19.129C125.068 18.0015 117.093 40.9493 100.763 49.801C92.2141 54.4407 74.9254 46.6733 65.8059 49.3301C36.6502 57.8362 26.2433 96.768 38.7886 117.327C49.6448 135.151 68.372 143.329 96.6766 143.217C124.981 143.104 144.862 144.081 169.883 123.63C194.905 103.179 192.602 65.1802 180.351 39.6101Z" fill="#108E66"/>
<path opacity="0.8" d="M180.351 39.6101C180.351 39.6101 169.892 20.2565 147.48 19.129C125.068 18.0015 117.093 40.9493 100.763 49.801C92.2141 54.4407 74.9254 46.6733 65.8059 49.3301C36.6502 57.8362 26.2433 96.768 38.7886 117.327C49.6448 135.151 68.372 143.329 96.6766 143.217C124.981 143.104 144.862 144.081 169.883 123.63C194.905 103.179 192.602 65.1802 180.351 39.6101Z" fill="white"/>
<path d="M122.326 42.9797H110.096V45.7964H122.326V42.9797Z" fill="#108E66"/>
<path d="M118.131 47.0492H110.096V49.8658H118.131V47.0492Z" fill="#108E66"/>
<path d="M114.722 51.1187H110.096V53.9353H114.722V51.1187Z" fill="#108E66"/>
<path d="M88.8574 74.1701V82.6503H93.0046V74.1701H88.8574Z" fill="#108E66"/>
<path d="M94.8496 77.0818V82.6503H98.9968V77.0818H94.8496Z" fill="#108E66"/>
<path d="M100.838 79.4406V82.646H104.985V79.4406H100.838Z" fill="#108E66"/>
<path d="M87.9292 88.8365H138.149C138.807 88.8377 139.458 88.7091 140.066 88.4582C140.674 88.2073 141.227 87.839 141.692 87.3744C142.158 86.9097 142.527 86.3579 142.779 85.7504C143.031 85.1429 143.16 84.4916 143.16 83.834V42.4484C143.16 41.7907 143.031 41.1395 142.779 40.532C142.527 39.9245 142.158 39.3726 141.692 38.908C141.227 38.4433 140.674 38.075 140.066 37.8241C139.458 37.5732 138.807 37.4447 138.149 37.4458H87.9292C87.2717 37.4452 86.6205 37.5742 86.0128 37.8253C85.4051 38.0764 84.8528 38.4447 84.3875 38.9092C83.9222 39.3738 83.5529 39.9254 83.3007 40.5326C83.0486 41.1399 82.9185 41.7909 82.918 42.4484V83.834C82.9185 84.4915 83.0486 85.1424 83.3007 85.7497C83.5529 86.3569 83.9222 86.9086 84.3875 87.3731C84.8528 87.8376 85.4051 88.206 86.0128 88.4571C86.6205 88.7081 87.2717 88.8371 87.9292 88.8365Z" stroke="#263238" stroke-width="0.6" stroke-miterlimit="10"/>
<path d="M119.596 74.6281H137.502" stroke="#263238" stroke-width="0.6" stroke-miterlimit="10"/>
<path d="M119.596 76.5419H137.502" stroke="#263238" stroke-width="0.6" stroke-miterlimit="10"/>
<path d="M119.596 78.4556H137.502" stroke="#263238" stroke-width="0.6" stroke-miterlimit="10"/>
<path d="M119.596 80.3737H137.502" stroke="#263238" stroke-width="0.6" stroke-miterlimit="10"/>
<path d="M119.596 82.2874H137.502" stroke="#263238" stroke-width="0.6" stroke-miterlimit="10"/>
<path d="M88.3086 43.3988H106.215" stroke="#263238" stroke-width="0.6" stroke-miterlimit="10"/>
<path d="M88.3086 45.3125H106.215" stroke="#263238" stroke-width="0.6" stroke-miterlimit="10"/>
<path d="M88.3086 47.2263H106.215" stroke="#263238" stroke-width="0.6" stroke-miterlimit="10"/>
<path d="M88.3086 49.14H106.215" stroke="#263238" stroke-width="0.6" stroke-miterlimit="10"/>
<path d="M88.3086 51.0581H106.215" stroke="#263238" stroke-width="0.6" stroke-miterlimit="10"/>
<path d="M135.259 58.4496L138.672 60.2424L138.287 50.6174L130.131 55.7626L133.544 57.551L130.978 62.437C130.524 62.4388 130.083 62.5907 129.725 62.869L125.206 60.7694C125.206 60.2172 124.987 59.6876 124.596 59.2971C124.206 58.9066 123.676 58.6872 123.124 58.6872C122.572 58.6872 122.042 58.9066 121.652 59.2971C121.261 59.6876 121.042 60.2172 121.042 60.7694C121.042 61.0678 121.106 61.3627 121.232 61.6334L115.309 68.053C115.121 67.9924 114.924 67.9604 114.726 67.9579C114.626 67.9613 114.526 67.9715 114.428 67.9882L105.913 57.227C106.036 56.9556 106.097 56.6608 106.095 56.363C106.095 55.8108 105.875 55.2812 105.485 54.8907C105.094 54.5002 104.565 54.2808 104.012 54.2808C103.46 54.2808 102.93 54.5002 102.54 54.8907C102.149 55.2812 101.93 55.8108 101.93 56.363C101.935 56.5775 101.971 56.79 102.038 56.9938L92.3137 66.8952C92.0853 66.8116 91.8442 66.7678 91.6009 66.7656C91.1902 66.7664 90.7888 66.889 90.4477 67.1179C90.1065 67.3467 89.8409 67.6716 89.6843 68.0513C89.5277 68.4311 89.4871 68.8487 89.5678 69.2515C89.6485 69.6543 89.8467 70.0242 90.1375 70.3143C90.4283 70.6045 90.7985 70.802 91.2015 70.8818C91.6044 70.9616 92.022 70.9202 92.4014 70.7628C92.7809 70.6054 93.1052 70.3391 93.3333 69.9975C93.5614 69.6559 93.6832 69.2543 93.6832 68.8435C93.6823 68.6713 93.6591 68.5 93.6141 68.3338L103.42 58.32C103.612 58.3802 103.811 58.4122 104.012 58.415C104.14 58.4148 104.267 58.4032 104.392 58.3805L112.864 69.12C112.711 69.4265 112.636 69.766 112.645 70.1085C112.654 70.451 112.748 70.7859 112.918 71.0835C113.088 71.3811 113.329 71.6321 113.619 71.8144C113.909 71.9967 114.24 72.1045 114.581 72.1284C114.923 72.1522 115.266 72.0914 115.578 71.9512C115.891 71.811 116.164 71.5959 116.374 71.3248C116.583 71.0537 116.723 70.7351 116.78 70.3972C116.837 70.0593 116.809 69.7126 116.7 69.3878L122.774 62.8085C122.89 62.829 123.007 62.8405 123.124 62.843C123.537 62.8436 123.94 62.7201 124.282 62.4888L128.904 64.6488C128.922 64.9693 129.014 65.2813 129.172 65.5604C129.331 65.8395 129.552 66.078 129.818 66.2574C130.084 66.4367 130.388 66.5519 130.707 66.5939C131.025 66.636 131.348 66.6038 131.652 66.4998C131.956 66.3958 132.231 66.2228 132.457 65.9945C132.682 65.7662 132.852 65.4888 132.953 65.1839C133.053 64.879 133.081 64.555 133.036 64.2373C132.99 63.9196 132.871 63.6169 132.688 63.3528L135.259 58.4496Z" fill="#263238"/>
<path d="M71.4406 67.9061L65.6 58.7779L55.9491 65.8757L47.0499 48.2631L23.5664 63.193V75.2544H76.521V65.1154L71.4406 67.9061Z" fill="#263238" stroke="#263238" stroke-width="0.6" stroke-linecap="round" stroke-linejoin="round"/>
<path d="M72.4558 74.749L66.1098 65.1154L55.4437 69.4268L42.9978 57.5122L23.5664 65.3573V82.862H76.521V71.9583L72.4558 74.749Z" fill="#108E66" stroke="#263238" stroke-width="0.6" stroke-miterlimit="10"/>
<path d="M72.4558 74.749L66.1098 65.1154L55.4437 69.4268L42.9978 57.5122L23.5664 65.3573V82.862H76.521V71.9583L72.4558 74.749Z" stroke="#263238" stroke-width="0.6" stroke-miterlimit="10"/>
<path d="M53.6559 43.7962H49.392C49.1313 43.7942 48.8776 43.8807 48.6723 44.0414C48.467 44.2022 48.3223 44.4277 48.2616 44.6813C48.201 44.9349 48.2281 45.2016 48.3384 45.4378C48.4488 45.674 48.6359 45.8659 48.8693 45.9821L47.3789 47.5675L50.0962 46.1117H53.6559C53.9629 46.1117 54.2574 45.9897 54.4745 45.7726C54.6916 45.5555 54.8136 45.261 54.8136 44.9539C54.8136 44.6469 54.6916 44.3524 54.4745 44.1353C54.2574 43.9182 53.9629 43.7962 53.6559 43.7962Z" fill="#108E66"/>
<path opacity="0.2" d="M53.6559 43.7962H49.392C49.1313 43.7942 48.8776 43.8807 48.6723 44.0414C48.467 44.2022 48.3223 44.4277 48.2616 44.6813C48.201 44.9349 48.2281 45.2016 48.3384 45.4378C48.4488 45.674 48.6359 45.8659 48.8693 45.9821L47.3789 47.5675L50.0962 46.1117H53.6559C53.9629 46.1117 54.2574 45.9897 54.4745 45.7726C54.6916 45.5555 54.8136 45.261 54.8136 44.9539C54.8136 44.6469 54.6916 44.3524 54.4745 44.1353C54.2574 43.9182 53.9629 43.7962 53.6559 43.7962Z" fill="black" fill-opacity="0.5"/>
<path d="M72.3297 54.1037H68.0659C67.8051 54.1017 67.5514 54.1882 67.3462 54.3489C67.1409 54.5097 66.9961 54.7352 66.9355 54.9888C66.8748 55.2424 66.9019 55.509 67.0122 55.7453C67.1226 55.9815 67.3097 56.1734 67.5431 56.2896L66.0527 57.888L68.77 56.4278H72.3297C72.6368 56.4278 72.9312 56.3059 73.1484 56.0887C73.3655 55.8716 73.4875 55.5771 73.4875 55.2701C73.4875 54.963 73.3655 54.6685 73.1484 54.4514C72.9312 54.2343 72.6368 54.1123 72.3297 54.1123V54.1037Z" fill="#108E66"/>
<path opacity="0.2" d="M72.3297 54.1037H68.0659C67.8051 54.1017 67.5514 54.1882 67.3462 54.3489C67.1409 54.5097 66.9961 54.7352 66.9355 54.9888C66.8748 55.2424 66.9019 55.509 67.0122 55.7453C67.1226 55.9815 67.3097 56.1734 67.5431 56.2896L66.0527 57.888L68.77 56.4278H72.3297C72.6368 56.4278 72.9312 56.3059 73.1484 56.0887C73.3655 55.8716 73.4875 55.5771 73.4875 55.2701C73.4875 54.963 73.3655 54.6685 73.1484 54.4514C72.9312 54.2343 72.6368 54.1123 72.3297 54.1123V54.1037Z" fill="black" fill-opacity="0.5"/>
<path d="M25.7046 88.8365H75.9246C76.5822 88.8377 77.2337 88.7091 77.8416 88.4582C78.4496 88.2073 79.002 87.839 79.4675 87.3744C79.9329 86.9097 80.3022 86.3579 80.5541 85.7504C80.8061 85.1429 80.9358 84.4916 80.9358 83.834V42.4484C80.9358 41.7907 80.8061 41.1395 80.5541 40.532C80.3022 39.9245 79.9329 39.3726 79.4675 38.908C79.002 38.4433 78.4496 38.075 77.8416 37.8241C77.2337 37.5732 76.5822 37.4447 75.9246 37.4458H25.7046C25.0469 37.4447 24.3954 37.5732 23.7875 37.8241C23.1796 38.075 22.6271 38.4433 22.1616 38.908C21.6962 39.3726 21.3269 39.9245 21.075 40.532C20.823 41.1395 20.6934 41.7907 20.6934 42.4484V83.834C20.6934 84.4916 20.823 85.1429 21.075 85.7504C21.3269 86.3579 21.6962 86.9097 22.1616 87.3744C22.6271 87.839 23.1796 88.2073 23.7875 88.4582C24.3954 88.7091 25.0469 88.8377 25.7046 88.8365Z" stroke="#263238" stroke-width="0.6" stroke-miterlimit="10"/>
<path d="M24.5078 43.0316H27.9681" stroke="#263238" stroke-width="0.6" stroke-miterlimit="10"/>
<path d="M24.5078 46.7986H27.9681" stroke="#263238" stroke-width="0.6" stroke-miterlimit="10"/>
<path d="M24.5078 50.5657H27.9681" stroke="#263238" stroke-width="0.6" stroke-miterlimit="10"/>
<path d="M24.5078 54.3326H27.9681" stroke="#263238" stroke-width="0.6" stroke-miterlimit="10"/>
<path d="M24.5078 58.0997H27.9681" stroke="#263238" stroke-width="0.6" stroke-miterlimit="10"/>
<path d="M160.41 48.1378C158.161 48.1412 155.962 48.8115 154.093 50.0639C152.224 51.3163 150.769 53.0946 149.91 55.1741C149.051 57.2537 148.829 59.541 149.27 61.7472C149.711 63.9533 150.796 65.9792 152.388 67.5689C153.98 69.1585 156.007 70.2405 158.214 70.6782C160.421 71.1158 162.708 70.8895 164.786 70.0277C166.864 69.166 168.641 67.7075 169.89 65.8367C171.14 63.9658 171.807 61.7665 171.807 59.5167C171.802 56.4972 170.599 53.603 168.463 51.4696C166.326 49.3361 163.43 48.1378 160.41 48.1378ZM160.41 67.5519C158.821 67.5459 157.27 67.0692 155.952 66.182C154.634 65.2948 153.608 64.0369 153.004 62.5671C152.4 61.0973 152.246 59.4815 152.56 57.9239C152.874 56.3663 153.642 54.9366 154.768 53.8154C155.894 52.6943 157.327 51.9319 158.886 51.6247C160.445 51.3174 162.06 51.479 163.527 52.089C164.994 52.699 166.248 53.7302 167.129 55.0522C168.011 56.3742 168.481 57.9277 168.48 59.5167C168.478 60.5742 168.267 61.6208 167.861 62.5969C167.454 63.573 166.859 64.4595 166.109 65.2056C165.36 65.9517 164.471 66.543 163.493 66.9456C162.515 67.3481 161.468 67.5542 160.41 67.5519Z" fill="#108E66" stroke="#263238" stroke-width="0.6" stroke-miterlimit="10"/>
<path d="M160.41 48.1378C158.161 48.1412 155.962 48.8115 154.093 50.0639C152.224 51.3163 150.769 53.0946 149.91 55.1741C149.051 57.2537 148.829 59.541 149.27 61.7472C149.711 63.9533 150.796 65.9792 152.388 67.5689C153.98 69.1585 156.007 70.2405 158.214 70.6782C160.421 71.1158 162.708 70.8895 164.786 70.0277C166.864 69.166 168.641 67.7075 169.89 65.8367C171.14 63.9658 171.807 61.7665 171.807 59.5167C171.802 56.4972 170.599 53.603 168.463 51.4696C166.326 49.3361 163.43 48.1378 160.41 48.1378ZM160.41 67.5519C158.821 67.5459 157.27 67.0692 155.952 66.182C154.634 65.2948 153.608 64.0369 153.004 62.5671C152.4 61.0973 152.246 59.4815 152.56 57.9239C152.874 56.3663 153.642 54.9366 154.768 53.8154C155.894 52.6943 157.327 51.9319 158.886 51.6247C160.445 51.3174 162.06 51.479 163.527 52.089C164.994 52.699 166.248 53.7302 167.129 55.0522C168.011 56.3742 168.481 57.9277 168.48 59.5167C168.478 60.5742 168.267 61.6208 167.861 62.5969C167.454 63.573 166.859 64.4595 166.109 65.2056C165.36 65.9517 164.471 66.543 163.493 66.9456C162.515 67.3481 161.468 67.5542 160.41 67.5519Z" stroke="#263238" stroke-width="0.6" stroke-miterlimit="10"/>
<path d="M160.409 48.1378C158.871 48.1316 157.348 48.439 155.933 49.0414C154.518 49.6438 153.241 50.5285 152.18 51.6413L154.595 53.9525C155.514 52.9901 156.657 52.2708 157.923 51.859C159.188 51.4472 160.536 51.3558 161.845 51.593C163.155 51.8301 164.385 52.3884 165.426 53.2179C166.466 54.0474 167.285 55.122 167.808 56.3456C168.331 57.5692 168.542 58.9035 168.423 60.2289C168.304 61.5543 167.858 62.8294 167.125 63.9399C166.391 65.0505 165.394 65.9618 164.222 66.5921C163.05 67.2225 161.74 67.5523 160.409 67.5519V70.8912C161.922 70.9207 163.425 70.6482 164.831 70.0897C166.238 69.5312 167.518 68.6979 168.598 67.6386C169.679 66.5792 170.537 65.3151 171.122 63.9202C171.708 62.5252 172.01 61.0275 172.01 59.5145C172.01 58.0015 171.708 56.5038 171.122 55.1088C170.537 53.7139 169.679 52.4498 168.598 51.3904C167.518 50.3311 166.238 49.4978 164.831 48.9393C163.425 48.3808 161.922 48.1083 160.409 48.1378Z" fill="#263238" stroke="#263238" stroke-width="0.6" stroke-linecap="round" stroke-linejoin="round"/>
<path d="M188.516 48.1378C186.266 48.1412 184.068 48.8115 182.199 50.0639C180.33 51.3163 178.874 53.0946 178.016 55.1741C177.157 57.2537 176.934 59.541 177.375 61.7472C177.816 63.9533 178.901 65.9792 180.493 67.5689C182.085 69.1585 184.113 70.2405 186.32 70.6782C188.526 71.1158 190.813 70.8895 192.892 70.0277C194.97 69.166 196.746 67.7075 197.996 65.8367C199.245 63.9658 199.912 61.7665 199.912 59.5167C199.907 56.4972 198.705 53.603 196.568 51.4696C194.431 49.3361 191.535 48.1378 188.516 48.1378ZM188.516 67.5519C186.926 67.551 185.372 67.0787 184.05 66.1946C182.728 65.3105 181.699 64.0543 181.091 62.585C180.483 61.1156 180.325 59.4991 180.636 57.9397C180.947 56.3804 181.714 54.9483 182.838 53.8245C183.963 52.7008 185.396 51.9359 186.956 51.6265C188.516 51.3171 190.132 51.4772 191.601 52.0865C193.07 52.6958 194.325 53.7269 195.207 55.0495C196.09 56.372 196.561 57.9266 196.56 59.5167C196.554 61.6475 195.704 63.6893 194.197 65.1952C192.689 66.7011 190.647 67.5485 188.516 67.5519Z" fill="#108E66" stroke="#263238" stroke-width="0.6" stroke-miterlimit="10"/>
<path d="M188.516 48.1378C186.266 48.1412 184.068 48.8115 182.199 50.0639C180.33 51.3163 178.874 53.0946 178.016 55.1741C177.157 57.2537 176.934 59.541 177.375 61.7472C177.816 63.9533 178.901 65.9792 180.493 67.5689C182.085 69.1585 184.113 70.2405 186.32 70.6782C188.526 71.1158 190.813 70.8895 192.892 70.0277C194.97 69.166 196.746 67.7075 197.996 65.8367C199.245 63.9658 199.912 61.7665 199.912 59.5167C199.907 56.4972 198.705 53.603 196.568 51.4696C194.431 49.3361 191.535 48.1378 188.516 48.1378ZM188.516 67.5519C186.926 67.551 185.372 67.0787 184.05 66.1946C182.728 65.3105 181.699 64.0543 181.091 62.585C180.483 61.1156 180.325 59.4991 180.636 57.9397C180.947 56.3804 181.714 54.9483 182.838 53.8245C183.963 52.7008 185.396 51.9359 186.956 51.6265C188.516 51.3171 190.132 51.4772 191.601 52.0865C193.07 52.6958 194.325 53.7269 195.207 55.0495C196.09 56.372 196.561 57.9266 196.56 59.5167C196.554 61.6475 195.704 63.6893 194.197 65.1952C192.689 66.7011 190.647 67.5485 188.516 67.5519Z" stroke="#263238" stroke-width="0.6" stroke-miterlimit="10"/>
<path d="M192.952 49.032L191.656 52.1078C193.365 52.8305 194.771 54.1219 195.636 55.7631C196.501 57.4043 196.772 59.2941 196.403 61.1123C196.034 62.9304 195.047 64.5649 193.61 65.7386C192.173 66.9123 190.375 67.5529 188.52 67.5518V70.8912C191.148 70.8972 193.697 69.9928 195.734 68.3316C197.771 66.6704 199.17 64.3551 199.693 61.7792C200.216 59.2032 199.83 56.5257 198.602 54.2018C197.374 51.878 195.379 50.0512 192.956 49.032H192.952Z" fill="#263238" stroke="#263238" stroke-width="0.6" stroke-linecap="round" stroke-linejoin="round"/>
<path d="M198.426 37.4458H151.468C150.65 37.4452 149.841 37.6057 149.085 37.918C148.33 38.2303 147.643 38.6884 147.065 39.266C146.486 39.8437 146.027 40.5296 145.714 41.2847C145.4 42.0397 145.239 42.8491 145.238 43.6666V82.62C145.241 84.2703 145.898 85.8521 147.066 87.0178C148.234 88.1835 149.817 88.8377 151.468 88.8365H198.426C199.243 88.8377 200.053 88.6777 200.808 88.3659C201.564 88.054 202.25 87.5964 202.829 87.0191C203.407 86.4418 203.867 85.7561 204.18 85.0013C204.493 84.2465 204.655 83.4373 204.656 82.62V43.6666C204.655 42.8491 204.493 42.0397 204.18 41.2847C203.867 40.5296 203.408 39.8437 202.829 39.266C202.251 38.6884 201.564 38.2303 200.809 37.918C200.053 37.6057 199.244 37.4452 198.426 37.4458Z" stroke="#263238" stroke-width="0.6" stroke-miterlimit="10"/>
<path d="M150.283 74.6281H168.185" stroke="#263238" stroke-width="0.6" stroke-miterlimit="10"/>
<path d="M150.283 76.5417H168.185" stroke="#263238" stroke-width="0.6" stroke-miterlimit="10"/>
<path d="M150.283 78.4556H168.185" stroke="#263238" stroke-width="0.6" stroke-miterlimit="10"/>
<path d="M150.283 80.3737H168.185" stroke="#263238" stroke-width="0.6" stroke-miterlimit="10"/>
<path d="M150.283 82.2874H168.185" stroke="#263238" stroke-width="0.6" stroke-miterlimit="10"/>
<path d="M179.85 74.6281H197.756" stroke="#263238" stroke-width="0.6" stroke-miterlimit="10"/>
<path d="M179.85 76.5417H197.756" stroke="#263238" stroke-width="0.6" stroke-miterlimit="10"/>
<path d="M179.85 78.4556H197.756" stroke="#263238" stroke-width="0.6" stroke-miterlimit="10"/>
<path d="M179.85 80.3737H197.756" stroke="#263238" stroke-width="0.6" stroke-miterlimit="10"/>
<path d="M179.85 82.2874H197.756" stroke="#263238" stroke-width="0.6" stroke-miterlimit="10"/>
<path d="M165.395 42.7205H183.297" stroke="#263238" stroke-width="0.6" stroke-miterlimit="10"/>
<path d="M165.395 44.6385H183.297" stroke="#263238" stroke-width="0.6" stroke-miterlimit="10"/>
<path d="M145.048 160.851H198.046C199.797 160.852 201.477 160.158 202.717 158.921C203.956 157.684 204.654 156.005 204.656 154.254V98.4356C204.655 97.5681 204.484 96.7093 204.151 95.9082C203.819 95.107 203.332 94.3791 202.718 93.7662C202.104 93.1532 201.376 92.6672 200.574 92.3357C199.773 92.0043 198.914 91.834 198.046 91.8346H119.768C118.9 91.834 118.041 92.0043 117.24 92.3357C116.438 92.6672 115.71 93.1532 115.096 93.7662C114.482 94.3791 113.995 95.107 113.663 95.9082C113.33 96.7093 113.159 97.5681 113.158 98.4356V135.216" stroke="#263238" stroke-width="0.6" stroke-miterlimit="10"/>
<path d="M138.793 124.386H126.188V142.707H138.793V124.386Z" fill="#108E66" stroke="#263238" stroke-width="0.6" stroke-miterlimit="10"/>
<path d="M138.793 124.386H126.188V142.707H138.793V124.386Z" stroke="#263238" stroke-width="0.6" stroke-miterlimit="10"/>
<path d="M156.297 115.223H143.691V135.505H156.297V115.223Z" fill="#108E66" stroke="#263238" stroke-width="0.6" stroke-miterlimit="10"/>
<path d="M156.297 115.223H143.691V135.505H156.297V115.223Z" stroke="#263238" stroke-width="0.6" stroke-miterlimit="10"/>
<path d="M173.803 107.702H161.197V121.115H173.803V107.702Z" fill="#108E66" stroke="#263238" stroke-width="0.6" stroke-miterlimit="10"/>
<path d="M173.803 107.702H161.197V121.115H173.803V107.702Z" stroke="#263238" stroke-width="0.6" stroke-miterlimit="10"/>
<path d="M138.793 142.703H126.188V150.228H138.793V142.703Z" fill="#263238" stroke="#263238" stroke-width="0.6" stroke-linecap="round" stroke-linejoin="round"/>
<path d="M156.297 135.505H143.691V150.228H156.297V135.505Z" fill="#263238" stroke="#263238" stroke-width="0.6" stroke-linecap="round" stroke-linejoin="round"/>
<path d="M190.274 115.223H177.668V135.505H190.274V115.223Z" fill="#108E66" stroke="#263238" stroke-width="0.6" stroke-miterlimit="10"/>
<path d="M190.274 115.223H177.668V135.505H190.274V115.223Z" stroke="#263238" stroke-width="0.6" stroke-miterlimit="10"/>
<path d="M190.274 135.505H177.668V150.228H190.274V135.505Z" fill="#263238" stroke="#263238" stroke-width="0.6" stroke-linecap="round" stroke-linejoin="round"/>
<path d="M173.803 121.111H161.197V150.228H173.803V121.111Z" fill="#263238" stroke="#263238" stroke-width="0.6" stroke-linecap="round" stroke-linejoin="round"/>
<path d="M154.112 107.728H146.246C145.885 107.728 145.539 107.871 145.283 108.126C145.028 108.382 144.885 108.728 144.885 109.089V110.899C144.885 111.26 145.028 111.606 145.283 111.861C145.539 112.116 145.885 112.26 146.246 112.26H149.162L150.181 114.022L151.196 112.26H154.112C154.473 112.26 154.819 112.116 155.075 111.861C155.33 111.606 155.473 111.26 155.473 110.899V109.089C155.473 108.728 155.33 108.382 155.075 108.126C154.819 107.871 154.473 107.728 154.112 107.728Z" fill="#108E66"/>
<mask id="mask0_2697_25440" style="mask-type:luminance" maskUnits="userSpaceOnUse" x="144" y="107" width="12" height="8">
<path d="M154.112 107.728H146.246C145.885 107.728 145.539 107.871 145.283 108.126C145.028 108.382 144.885 108.728 144.885 109.089V110.899C144.885 111.26 145.028 111.606 145.283 111.861C145.539 112.116 145.885 112.26 146.246 112.26H149.162L150.181 114.022L151.196 112.26H154.112C154.473 112.26 154.819 112.116 155.075 111.861C155.33 111.606 155.473 111.26 155.473 110.899V109.089C155.473 108.728 155.33 108.382 155.075 108.126C154.819 107.871 154.473 107.728 154.112 107.728Z" fill="white"/>
</mask>
<g mask="url(#mask0_2697_25440)">
<path opacity="0.5" d="M154.112 107.728H146.246C145.885 107.728 145.539 107.871 145.283 108.126C145.028 108.382 144.885 108.728 144.885 109.089V110.899C144.885 111.26 145.028 111.606 145.283 111.861C145.539 112.116 145.885 112.26 146.246 112.26H149.162L150.181 114.022L151.196 112.26H154.112C154.473 112.26 154.819 112.116 155.075 111.861C155.33 111.606 155.473 111.26 155.473 110.899V109.089C155.473 108.728 155.33 108.382 155.075 108.126C154.819 107.871 154.473 107.728 154.112 107.728Z" fill="white"/>
</g>
<path d="M154.112 107.728H146.246C145.885 107.728 145.539 107.871 145.283 108.126C145.028 108.382 144.885 108.728 144.885 109.089V110.899C144.885 111.26 145.028 111.606 145.283 111.861C145.539 112.116 145.885 112.26 146.246 112.26H149.162L150.181 114.022L151.196 112.26H154.112C154.473 112.26 154.819 112.116 155.075 111.861C155.33 111.606 155.473 111.26 155.473 110.899V109.089C155.473 108.728 155.33 108.382 155.075 108.126C154.819 107.871 154.473 107.728 154.112 107.728Z" stroke="#263238" stroke-width="0.6" stroke-linecap="round" stroke-linejoin="round"/>
<path d="M136.42 117.124H128.558C128.198 117.124 127.852 117.267 127.597 117.521C127.342 117.775 127.198 118.12 127.197 118.48V120.295C127.198 120.655 127.342 121 127.597 121.254C127.852 121.508 128.198 121.651 128.558 121.651H131.47L132.489 123.414L133.509 121.651H136.42C136.781 121.651 137.126 121.508 137.381 121.254C137.636 121 137.78 120.655 137.781 120.295V118.48C137.78 118.12 137.636 117.775 137.381 117.521C137.126 117.267 136.781 117.124 136.42 117.124Z" fill="#108E66"/>
<mask id="mask1_2697_25440" style="mask-type:luminance" maskUnits="userSpaceOnUse" x="127" y="117" width="11" height="7">
<path d="M136.42 117.124H128.558C128.198 117.124 127.852 117.267 127.597 117.521C127.342 117.775 127.198 118.12 127.197 118.48V120.295C127.198 120.655 127.342 121 127.597 121.254C127.852 121.508 128.198 121.651 128.558 121.651H131.47L132.489 123.414L133.509 121.651H136.42C136.781 121.651 137.126 121.508 137.381 121.254C137.636 121 137.78 120.655 137.781 120.295V118.48C137.78 118.12 137.636 117.775 137.381 117.521C137.126 117.267 136.781 117.124 136.42 117.124Z" fill="white"/>
</mask>
<g mask="url(#mask1_2697_25440)">
<path opacity="0.5" d="M136.42 117.124H128.558C128.198 117.124 127.852 117.267 127.597 117.521C127.342 117.775 127.198 118.12 127.197 118.48V120.295C127.198 120.655 127.342 121 127.597 121.254C127.852 121.508 128.198 121.651 128.558 121.651H131.47L132.489 123.414L133.509 121.651H136.42C136.781 121.651 137.126 121.508 137.381 121.254C137.636 121 137.78 120.655 137.781 120.295V118.48C137.78 118.12 137.636 117.775 137.381 117.521C137.126 117.267 136.781 117.124 136.42 117.124Z" fill="white"/>
</g>
<path d="M136.42 117.124H128.558C128.198 117.124 127.852 117.267 127.597 117.521C127.342 117.775 127.198 118.12 127.197 118.48V120.295C127.198 120.655 127.342 121 127.597 121.254C127.852 121.508 128.198 121.651 128.558 121.651H131.47L132.489 123.414L133.509 121.651H136.42C136.781 121.651 137.126 121.508 137.381 121.254C137.636 121 137.78 120.655 137.781 120.295V118.48C137.78 118.12 137.636 117.775 137.381 117.521C137.126 117.267 136.781 117.124 136.42 117.124Z" stroke="#263238" stroke-width="0.6" stroke-linecap="round" stroke-linejoin="round"/>
<path d="M171.353 100.181H163.486C163.125 100.181 162.779 100.324 162.524 100.579C162.268 100.835 162.125 101.181 162.125 101.542V103.352C162.125 103.53 162.16 103.707 162.229 103.872C162.297 104.037 162.397 104.186 162.524 104.312C162.65 104.438 162.8 104.538 162.965 104.606C163.13 104.674 163.307 104.709 163.486 104.708H166.402L167.417 106.471L168.437 104.708H171.353C171.531 104.709 171.708 104.674 171.873 104.606C172.038 104.538 172.188 104.438 172.314 104.312C172.441 104.186 172.541 104.037 172.61 103.872C172.678 103.707 172.713 103.53 172.713 103.352V101.542C172.713 101.181 172.57 100.835 172.315 100.579C172.06 100.324 171.713 100.181 171.353 100.181Z" fill="#108E66"/>
<mask id="mask2_2697_25440" style="mask-type:luminance" maskUnits="userSpaceOnUse" x="162" y="100" width="11" height="7">
<path d="M171.353 100.181H163.486C163.125 100.181 162.779 100.324 162.524 100.579C162.268 100.835 162.125 101.181 162.125 101.542V103.352C162.125 103.53 162.16 103.707 162.229 103.872C162.297 104.037 162.397 104.186 162.524 104.312C162.65 104.438 162.8 104.538 162.965 104.606C163.13 104.674 163.307 104.709 163.486 104.708H166.402L167.417 106.471L168.437 104.708H171.353C171.531 104.709 171.708 104.674 171.873 104.606C172.038 104.538 172.188 104.438 172.314 104.312C172.441 104.186 172.541 104.037 172.61 103.872C172.678 103.707 172.713 103.53 172.713 103.352V101.542C172.713 101.181 172.57 100.835 172.315 100.579C172.06 100.324 171.713 100.181 171.353 100.181Z" fill="white"/>
</mask>
<g mask="url(#mask2_2697_25440)">
<path opacity="0.5" d="M171.353 100.181H163.486C163.125 100.181 162.779 100.324 162.524 100.579C162.268 100.835 162.125 101.181 162.125 101.542V103.352C162.125 103.53 162.16 103.707 162.229 103.872C162.297 104.037 162.397 104.186 162.524 104.312C162.65 104.438 162.8 104.538 162.965 104.606C163.13 104.674 163.307 104.709 163.486 104.708H166.402L167.417 106.471L168.437 104.708H171.353C171.531 104.709 171.708 104.674 171.873 104.606C172.038 104.538 172.188 104.438 172.314 104.312C172.441 104.186 172.541 104.037 172.61 103.872C172.678 103.707 172.713 103.53 172.713 103.352V101.542C172.713 101.181 172.57 100.835 172.315 100.579C172.06 100.324 171.713 100.181 171.353 100.181Z" fill="white"/>
</g>
<path d="M171.353 100.181H163.486C163.125 100.181 162.779 100.324 162.524 100.579C162.268 100.835 162.125 101.181 162.125 101.542V103.352C162.125 103.53 162.16 103.707 162.229 103.872C162.297 104.037 162.397 104.186 162.524 104.312C162.65 104.438 162.8 104.538 162.965 104.606C163.13 104.674 163.307 104.709 163.486 104.708H166.402L167.417 106.471L168.437 104.708H171.353C171.531 104.709 171.708 104.674 171.873 104.606C172.038 104.538 172.188 104.438 172.314 104.312C172.441 104.186 172.541 104.037 172.61 103.872C172.678 103.707 172.713 103.53 172.713 103.352V101.542C172.713 101.181 172.57 100.835 172.315 100.579C172.06 100.324 171.713 100.181 171.353 100.181Z" stroke="#263238" stroke-width="0.6" stroke-linecap="round" stroke-linejoin="round"/>
<path d="M187.92 107.611H180.058C179.697 107.611 179.351 107.755 179.096 108.01C178.841 108.265 178.697 108.611 178.697 108.972V110.782C178.697 110.961 178.733 111.137 178.801 111.302C178.869 111.467 178.97 111.617 179.096 111.743C179.223 111.869 179.373 111.969 179.538 112.037C179.703 112.104 179.88 112.139 180.058 112.139H182.97L183.989 113.901L185.009 112.139H187.92C188.099 112.139 188.276 112.104 188.442 112.037C188.607 111.969 188.757 111.869 188.884 111.743C189.011 111.617 189.111 111.467 189.18 111.303C189.249 111.138 189.285 110.961 189.286 110.782V108.972C189.284 108.611 189.14 108.265 188.884 108.01C188.628 107.754 188.282 107.611 187.92 107.611Z" fill="#108E66"/>
<mask id="mask3_2697_25440" style="mask-type:luminance" maskUnits="userSpaceOnUse" x="178" y="107" width="12" height="7">
<path d="M187.92 107.611H180.058C179.697 107.611 179.351 107.755 179.096 108.01C178.841 108.265 178.697 108.611 178.697 108.972V110.782C178.697 110.961 178.733 111.137 178.801 111.302C178.869 111.467 178.97 111.617 179.096 111.743C179.223 111.869 179.373 111.969 179.538 112.037C179.703 112.104 179.88 112.139 180.058 112.139H182.97L183.989 113.901L185.009 112.139H187.92C188.099 112.139 188.276 112.104 188.442 112.037C188.607 111.969 188.757 111.869 188.884 111.743C189.011 111.617 189.111 111.467 189.18 111.303C189.249 111.138 189.285 110.961 189.286 110.782V108.972C189.284 108.611 189.14 108.265 188.884 108.01C188.628 107.754 188.282 107.611 187.92 107.611Z" fill="white"/>
</mask>
<g mask="url(#mask3_2697_25440)">
<path opacity="0.5" d="M187.92 107.611H180.058C179.697 107.611 179.351 107.755 179.096 108.01C178.841 108.265 178.697 108.611 178.697 108.972V110.782C178.697 110.961 178.733 111.137 178.801 111.302C178.869 111.467 178.97 111.617 179.096 111.743C179.223 111.869 179.373 111.969 179.538 112.037C179.703 112.104 179.88 112.139 180.058 112.139H182.97L183.989 113.901L185.009 112.139H187.92C188.099 112.139 188.276 112.104 188.442 112.037C188.607 111.969 188.757 111.869 188.884 111.743C189.011 111.617 189.111 111.467 189.18 111.303C189.249 111.138 189.285 110.961 189.286 110.782V108.972C189.284 108.611 189.14 108.265 188.884 108.01C188.628 107.754 188.282 107.611 187.92 107.611Z" fill="white"/>
</g>
<path d="M187.92 107.611H180.058C179.697 107.611 179.351 107.755 179.096 108.01C178.841 108.265 178.697 108.611 178.697 108.972V110.782C178.697 110.961 178.733 111.137 178.801 111.302C178.869 111.467 178.97 111.617 179.096 111.743C179.223 111.869 179.373 111.969 179.538 112.037C179.703 112.104 179.88 112.139 180.058 112.139H182.97L183.989 113.901L185.009 112.139H187.92C188.099 112.139 188.276 112.104 188.442 112.037C188.607 111.969 188.757 111.869 188.884 111.743C189.011 111.617 189.111 111.467 189.18 111.303C189.249 111.138 189.285 110.961 189.286 110.782V108.972C189.284 108.611 189.14 108.265 188.884 108.01C188.628 107.754 188.282 107.611 187.92 107.611Z" stroke="#263238" stroke-width="0.6" stroke-linecap="round" stroke-linejoin="round"/>
<path d="M126.615 97.6061H144.522" stroke="#263238" stroke-width="0.6" stroke-miterlimit="10"/>
<path d="M126.615 99.5199H144.522" stroke="#263238" stroke-width="0.6" stroke-miterlimit="10"/>
<path d="M126.615 101.438H144.522" stroke="#263238" stroke-width="0.6" stroke-miterlimit="10"/>
<path d="M126.615 103.352H144.522" stroke="#263238" stroke-width="0.6" stroke-miterlimit="10"/>
<path d="M126.615 105.266H144.522" stroke="#263238" stroke-width="0.6" stroke-miterlimit="10"/>
<path d="M30.5338 128.144C30.2962 128.429 30.0543 128.732 29.7951 129.077C26.581 133.397 28.2572 142.469 26.3045 145.817C24.3519 149.165 19.4616 148.206 18.4853 153.468C17.509 158.73 18.0533 164.225 17.2282 166.86C16.4031 169.495 13.1804 171.18 12.6188 174.273C12.0572 177.366 11.8887 179.608 11.8887 179.608L30.5338 178.995V128.144Z" fill="#108E66"/>
<path opacity="0.7" d="M30.5338 128.144C30.2962 128.429 30.0543 128.732 29.7951 129.077C26.581 133.397 28.2572 142.469 26.3045 145.817C24.3519 149.165 19.4616 148.206 18.4853 153.468C17.509 158.73 18.0533 164.225 17.2282 166.86C16.4031 169.495 13.1804 171.18 12.6188 174.273C12.0572 177.366 11.8887 179.608 11.8887 179.608L30.5338 178.995V128.144Z" fill="white"/>
<path d="M96.8376 179.189L77.6914 181.401L83.5709 186.844L96.7728 185.699" fill="#263238"/>
<path d="M96.8376 179.189L77.6914 181.401L83.5709 186.844L96.7728 185.699" stroke="#263238" stroke-width="0.6" stroke-linecap="round" stroke-linejoin="round"/>
<path d="M83.9336 182.269L96.1981 180.93" stroke="white" stroke-width="0.6" stroke-linecap="round" stroke-linejoin="round"/>
<path d="M84.8926 183.609L96.0079 182.654" stroke="white" stroke-width="0.6" stroke-linecap="round" stroke-linejoin="round"/>
<path d="M86.041 184.758L96.1973 183.799" stroke="white" stroke-width="0.6" stroke-linecap="round" stroke-linejoin="round"/>
<path d="M85.1562 181.483L88.6511 185.293" stroke="white" stroke-width="0.6" stroke-linecap="round" stroke-linejoin="round"/>
<path d="M87.7441 181.358L91.2174 184.948" stroke="white" stroke-width="0.6" stroke-linecap="round" stroke-linejoin="round"/>
<path d="M90.4297 180.973L93.8986 184.563" stroke="white" stroke-width="0.6" stroke-linecap="round" stroke-linejoin="round"/>
<path d="M93.3027 180.783L96.1971 183.799" stroke="white" stroke-width="0.6" stroke-linecap="round" stroke-linejoin="round"/>
<path d="M77.2583 133.855C76.6276 133.587 73.7073 122.221 73.7073 122.221L72.2039 117.936C72.2039 117.936 69.9446 110.225 69.0806 108.791C68.2166 107.356 64.7606 106.199 64.7606 106.199L63.4646 105.486L57.8486 102.462V102.492L57.0407 100.803L47.3726 93.0269C47.3726 93.0269 47.5454 94.9017 47.8046 96.7507C47.7786 96.7507 45.7914 98.0467 45.083 99.1829C44.949 99.3945 44.8324 99.8481 44.2967 101.036C42.1367 102.151 34.0022 106.415 31.3108 108.492C28.1529 110.925 27.5783 112.644 27.7209 114.078L27.8678 116.368C27.8678 116.368 29.2156 124.576 30.6196 128.624L30.4468 128.542L30.3993 178.921L70.8474 177.388L70.9122 139.964C72.2946 139.51 73.7332 138.979 74.6015 138.594L74.8175 138.789L76.6406 140.123C76.9336 140.344 77.2738 140.493 77.6343 140.56C77.9949 140.627 78.366 140.609 78.7185 140.508C79.4918 140.288 79.0079 139.372 78.4463 139.069C78.02 138.782 77.6157 138.463 77.2367 138.115L75.5519 136.015C76.5628 136.197 78.1828 136.482 78.8567 136.577C79.859 136.719 81.1506 137.009 81.2932 135.713C81.4358 134.417 78.2649 134.287 77.2583 133.855Z" fill="white"/>
<path d="M47.4199 93.0442C47.4199 93.0442 47.9686 99.1354 48.3271 100.233C48.6511 101.226 50.2884 106.648 51.7226 109.08C53.1569 111.512 54.9065 111.24 55.1786 108.51C55.4508 105.78 55.3126 101.352 55.3126 101.352" stroke="#263238" stroke-width="0.6" stroke-linecap="round" stroke-linejoin="round"/>
<path d="M47.7493 96.8933C47.7493 96.8933 45.8441 98.0554 45.127 99.2002C44.4099 100.345 41.3945 110.942 41.3945 110.942L47.1315 111.231L42.2542 113.391" stroke="#263238" stroke-width="0.6" stroke-linecap="round" stroke-linejoin="round"/>
<path d="M42.4004 114.666C42.4004 114.666 47.2777 122.688 47.9948 123.552C48.4354 124.087 48.819 124.666 49.1396 125.28" stroke="#263238" stroke-width="0.6" stroke-linecap="round" stroke-linejoin="round"/>
<path d="M48.1387 99.36C48.1387 99.36 50.5752 109.387 52.0267 114.683C53.4782 119.979 54.8649 126.576 54.8649 126.576" stroke="#263238" stroke-width="0.6" stroke-linecap="round" stroke-linejoin="round"/>
<path d="M55.2969 102.496C55.2969 102.496 55.8714 114.096 55.8714 118.679V125.98" stroke="#263238" stroke-width="0.6" stroke-linecap="round" stroke-linejoin="round"/>
<path d="M57.3184 101.347L61.1934 109.227L58.0355 110.229L62.9128 112.946L58.4675 126.839" stroke="#263238" stroke-width="0.6" stroke-linecap="round" stroke-linejoin="round"/>
<path d="M57.8926 102.496L63.487 105.503" stroke="#263238" stroke-width="0.6" stroke-linecap="round" stroke-linejoin="round"/>
<path d="M67.9355 114.238L68.6527 127.699" stroke="#263238" stroke-width="0.6" stroke-linecap="round" stroke-linejoin="round"/>
<path d="M44.2618 101.062C44.2618 101.062 34.5073 106.073 31.3537 108.51C28.2001 110.946 27.6212 112.661 27.7638 114.095" stroke="#263238" stroke-width="0.6" stroke-linecap="round" stroke-linejoin="round"/>
<path d="M30.4902 128.559V178.679" stroke="#263238" stroke-width="0.6" stroke-linecap="round" stroke-linejoin="round"/>
<path d="M55.7402 140.875V176.822" stroke="#263238" stroke-width="0.6" stroke-linecap="round" stroke-linejoin="round"/>
<path d="M33.9941 113.383C33.9941 113.383 37.286 114.536 38.7461 117.331" stroke="#263238" stroke-width="0.6" stroke-linecap="round" stroke-linejoin="round"/>
<path d="M36.1328 113.219C36.1328 113.219 39.0963 114.372 40.4139 117.167" stroke="#263238" stroke-width="0.6" stroke-linecap="round" stroke-linejoin="round"/>
<path d="M34.1582 159.222H45.0792V161.365H34.547" stroke="#263238" stroke-width="0.6" stroke-linecap="round" stroke-linejoin="round"/>
<path d="M71.0254 161.257V176.174" stroke="#263238" stroke-width="0.6" stroke-linecap="round" stroke-linejoin="round"/>
<path d="M62.6397 81.1555C63.5037 81.0129 67.8021 78.2913 67.0849 75.5697C66.3678 72.8481 60.3328 69.552 55.5981 71.1331C52.7457 72.0827 50.1111 73.5909 47.848 75.5697C47.848 75.5697 44.6944 75.5697 43.528 76.8657C42.3616 78.1617 43.2429 80.1576 43.96 81.5918C44.5821 82.8316 44.5561 86.1192 44.5389 86.9702C44.4997 86.9681 44.4608 86.977 44.4265 86.9961C44.1865 87.1286 43.977 87.3102 43.8117 87.529C43.6465 87.7478 43.5292 87.999 43.4675 88.2662C43.2731 89.1302 43.6317 90.2836 44.5043 91.5883C44.7947 92.0781 45.2028 92.4876 45.6917 92.7796C46.1806 93.0716 46.7347 93.2368 47.3037 93.2601C47.6778 93.6912 47.9825 94.178 48.2065 94.703C48.5694 95.567 52.1853 101.114 54.2545 101.274C54.5526 101.3 54.8377 101.308 55.1185 101.308C56.9027 101.308 58.1987 100.829 58.8942 99.9043C59.8144 98.6817 62.0953 93.7526 62.3805 91.355C62.428 90.923 62.4539 90.383 62.4669 89.735C62.7861 89.3309 62.9597 88.8309 62.9597 88.3159C62.9597 87.8009 62.7861 87.3009 62.4669 86.8968C62.4193 84.3609 62.2854 81.7344 62.2509 81.1296C62.3768 81.1677 62.5098 81.1766 62.6397 81.1555Z" fill="white"/>
<path d="M62.0532 81.0129C62.0532 81.0129 62.4852 88.8883 62.1958 91.3248C61.9064 93.7613 59.6038 98.6256 58.7398 99.7747C57.8758 100.924 56.1478 101.205 54.2945 101.071C52.4412 100.937 48.8427 95.6275 48.4107 94.6253C48.1713 94.0464 47.8321 93.5141 47.4084 93.0528C47.4084 93.0528 45.8316 93.1953 44.6825 91.476C43.5334 89.7566 43.1057 88.02 44.54 87.1776" stroke="#263238" stroke-width="0.6" stroke-linecap="round" stroke-linejoin="round"/>
<path d="M55.8828 88.7457C55.8828 88.7457 56.8894 87.0177 57.8916 88.0286L58.6087 92.6121L56.4487 93.1867L56.7339 95.4762" stroke="#263238" stroke-width="0.6" stroke-linecap="round" stroke-linejoin="round"/>
<path d="M53.7314 90.8928C54.9196 90.8928 55.8828 89.9316 55.8828 88.7458C55.8828 87.56 54.9196 86.5988 53.7314 86.5988C52.5433 86.5988 51.5801 87.56 51.5801 88.7458C51.5801 89.9316 52.5433 90.8928 53.7314 90.8928Z" fill="#108E66" fill-opacity="0.5" stroke="#263238" stroke-width="0.6" stroke-linecap="round" stroke-linejoin="round"/>
<path opacity="0.4" d="M53.7314 90.8928C54.9196 90.8928 55.8828 89.9316 55.8828 88.7458C55.8828 87.56 54.9196 86.5988 53.7314 86.5988C52.5433 86.5988 51.5801 87.56 51.5801 88.7458C51.5801 89.9316 52.5433 90.8928 53.7314 90.8928Z" fill="white" stroke="#263238" stroke-width="0.6" stroke-miterlimit="10"/>
<path d="M62.7692 88.3181C62.7692 87.8909 62.6425 87.4733 62.4052 87.1181C62.1679 86.7628 61.8305 86.486 61.4358 86.3225C61.0411 86.159 60.6068 86.1162 60.1878 86.1996C59.7688 86.2829 59.384 86.4886 59.0819 86.7907C58.7798 87.0928 58.5741 87.4777 58.4907 87.8967C58.4074 88.3157 58.4502 88.75 58.6136 89.1447C58.7771 89.5394 59.054 89.8767 59.4092 90.1141C59.7644 90.3514 60.182 90.4781 60.6092 90.4781C61.1821 90.4781 61.7315 90.2505 62.1366 89.8454C62.5417 89.4404 62.7692 88.891 62.7692 88.3181Z" fill="#108E66" fill-opacity="0.5" stroke="#263238" stroke-width="0.6" stroke-linecap="round" stroke-linejoin="round"/>
<path opacity="0.4" d="M62.7692 88.3181C62.7692 87.8909 62.6425 87.4733 62.4052 87.1181C62.1679 86.7628 61.8305 86.486 61.4358 86.3225C61.0411 86.159 60.6068 86.1162 60.1878 86.1996C59.7688 86.2829 59.384 86.4886 59.0819 86.7907C58.7798 87.0928 58.5741 87.4777 58.4907 87.8967C58.4074 88.3157 58.4502 88.75 58.6136 89.1447C58.7771 89.5394 59.054 89.8767 59.4092 90.1141C59.7644 90.3514 60.182 90.4781 60.6092 90.4781C61.1821 90.4781 61.7315 90.2505 62.1366 89.8454C62.5417 89.4404 62.7692 88.891 62.7692 88.3181Z" fill="white" stroke="#263238" stroke-width="0.6" stroke-miterlimit="10"/>
<path d="M51.5801 88.7457L47.2773 89.0308" stroke="#263238" stroke-width="0.6" stroke-linecap="round" stroke-linejoin="round"/>
<path d="M51.6152 85.7606C51.6152 85.7606 52.7687 84.6115 54.9114 85.2681" stroke="#263238" stroke-width="0.6" stroke-linecap="round" stroke-linejoin="round"/>
<path d="M58.8652 85.104C58.8652 85.104 61.0252 83.9549 61.6646 85.4323" stroke="#263238" stroke-width="0.6" stroke-linecap="round" stroke-linejoin="round"/>
<path d="M48.9969 81.2981C48.9969 81.2981 50.146 84.0197 50.4311 84.4517C50.7162 84.8837 48.9969 86.8838 48.9969 86.8838V88.8883L47.2689 89.0309L45.5409 87.4584L44.5386 87.1689C44.5386 87.1689 44.6812 83.0174 43.9641 81.5875C43.247 80.1576 42.3873 78.1315 43.5321 76.8614C44.6769 75.5913 47.8521 75.5654 47.8521 75.5654C50.1152 73.5866 52.7498 72.0784 55.6022 71.1288C60.3542 69.552 66.359 72.8568 67.0761 75.5654C67.7932 78.2741 63.5034 81.0129 62.6394 81.1555C61.7754 81.2981 60.4794 79.583 59.1834 79.583H57.1746C55.7404 79.583 55.5978 79.4361 54.0167 79.4361C52.4356 79.4361 48.9969 81.2981 48.9969 81.2981Z" fill="#263238"/>
<path d="M50.7954 78.9479C50.7954 78.9479 53.2448 77.5914 54.4717 75.2802C55.6986 72.969 51.6119 74.0577 50.5232 75.5524C49.4346 77.0471 52.0223 76.5028 52.0223 76.5028" stroke="white" stroke-width="0.6" stroke-linecap="round" stroke-linejoin="round"/>
<path d="M48.997 81.2981C48.997 81.2981 47.5282 82.8879 45.623 83.0261" stroke="white" stroke-width="0.6" stroke-linecap="round" stroke-linejoin="round"/>
<path d="M49.7063 83.2982C49.7063 83.2982 47.1143 84.5208 45.7578 84.5208" stroke="white" stroke-width="0.6" stroke-linecap="round" stroke-linejoin="round"/>
<path d="M45.7578 85.6051C45.7578 85.6051 47.8012 86.0371 48.8898 85.6051" stroke="white" stroke-width="0.6" stroke-linecap="round" stroke-linejoin="round"/>
<path d="M52.9727 79.2202C52.9727 79.2202 54.0613 79.0862 57.5994 77.8637C61.1375 76.6411 62.3514 75.2717 60.0488 73.5134" stroke="white" stroke-width="0.6" stroke-linecap="round" stroke-linejoin="round"/>
<path d="M124.079 156.021C124.079 156.021 118.441 141.026 116.994 139.584C115.547 138.141 108.293 133.721 108.293 133.721L107.71 132.723L107.356 131.509C107.356 131.509 106.924 129.682 105.68 128.779L105.58 128.568L97.0268 124.904C97.0268 124.904 97.0872 126.036 97.178 127.401C96.1671 127.768 93.925 128.753 93.1561 130.507C92.6549 131.643 92.3698 133.531 92.2273 135.307L91.8773 135.566L92.0069 135.091C92.0069 135.091 82.5375 140.4 82.1098 141.264C81.5569 141.99 80.1269 146.642 80.1269 146.642C80.1269 146.642 78.7013 151.114 77.1332 156.051C74.9213 162.842 72.7829 169.629 72.6447 170.713C72.6447 170.813 72.6447 170.765 72.6447 170.765C72.5021 172.627 79.6128 179.492 79.6128 179.492H79.7079L80.5719 180.356C80.5719 180.356 80.5719 180.269 80.5719 179.997C81.1724 181.22 82.153 183.021 82.9306 182.641C83.57 182.326 83.3626 181.215 82.8442 179.768C83.4879 180.749 84.2266 181.462 84.8141 181.176C85.8293 180.675 85.3239 178.943 84.3044 176.463C84.2172 176.252 84.0845 176.062 83.9158 175.908C83.7471 175.753 83.5464 175.637 83.3281 175.569C83.6564 175.535 83.989 175.5 84.3303 175.457C84.6716 177.042 85.4362 178.416 86.2959 178.235C87.1556 178.053 87.2852 176.939 87.1124 175.042C87.1988 175.042 87.3154 174.787 87.4018 174.774C87.782 176.109 88.3652 177.297 89.0996 177.142C89.9074 176.969 90.1277 176.165 90.0327 174.55C90.0327 173.949 89.9895 173.755 89.9679 173.375C90.2832 173.569 91.8298 174.502 92.0069 174.636C92.5815 175.068 96.9533 174.135 96.9533 174.135C103.338 172.07 113.546 171.975 120.139 167.56C124.541 164.592 124.079 156.021 124.079 156.021ZM83.8335 168.286L85.5615 156.915L86.2484 167.283L86.0453 169.841L83.8335 168.286Z" fill="white"/>
<path d="M82.1366 141.018L92.4225 134.97C92.4225 134.97 93.0662 129.457 94.3795 128.896C94.3795 128.896 96.1852 127.319 98.2372 127.63C99.4123 127.803 100.281 126.334 100.946 123.777C100.946 118.718 100.877 112.26 100.825 108.225C100.393 106.233 99.9263 104.617 99.7708 103.987L94.9238 101.952C94.9238 101.952 93.887 98.4528 88.5561 97.6709C83.2252 96.889 77.5099 102.604 76.8575 106.497C76.2052 110.389 79.9766 114.54 78.5467 116.748C77.1167 118.956 71.1379 122.196 69.5783 125.958C68.0188 129.721 68.4076 132.317 68.4076 132.317C68.4076 132.317 72.6974 138.413 71.5267 140.491C70.3559 142.569 63.4699 144.513 63.5995 150.612C63.7204 156.263 69.3148 160.242 75.514 160.98L82.1366 141.018Z" fill="#263238"/>
<path d="M93.3898 102.993C93.3898 102.993 89.7178 98.7855 85.0911 100.142C80.4644 101.498 78.6932 106.393 79.6479 108.838C80.6026 111.283 82.7756 113.318 81.1426 116.986C79.5097 120.653 75.4273 121.198 73.3666 125.41C71.306 129.622 71.8719 130.982 71.8719 130.982" stroke="white" stroke-width="0.6" stroke-linecap="round" stroke-linejoin="round"/>
<path d="M90.9408 106.527C90.9408 106.527 87.541 106.933 87.541 109.119C87.541 111.305 89.4461 112.376 89.701 115.093C89.9559 117.811 89.1567 118.899 87.109 122.295C85.0613 125.69 84.949 127.457 86.4308 129.768C87.9125 132.08 88.8802 135.881 86.9751 137.238" stroke="white" stroke-width="0.6" stroke-linecap="round" stroke-linejoin="round"/>
<path d="M91.7568 103.81C91.7568 103.81 87.6744 101.65 84.4128 103.676C81.1512 105.702 85.5014 109.788 86.0457 113.59C86.5901 117.392 83.8857 120.113 80.1965 124.187C79.1157 125.42 78.3132 126.871 77.8436 128.441C77.3739 130.012 77.2482 131.666 77.4749 133.289" stroke="white" stroke-width="0.6" stroke-linecap="round" stroke-linejoin="round"/>
<path d="M77.1983 138.046C77.1983 138.046 78.1487 140.08 75.5611 142.798C72.9734 145.515 67.3963 146.197 66.0571 150.271C64.7179 154.345 67.3919 156.522 67.3919 156.522" stroke="white" stroke-width="0.6" stroke-linecap="round" stroke-linejoin="round"/>
<path d="M97.0566 124.675C97.0566 124.675 97.3418 130.136 97.6312 131.566C97.9206 132.995 99.0741 138.102 99.5104 142.612C99.7214 144.952 100.155 147.266 100.806 149.524C100.806 149.524 104.301 163.097 104.509 146.046C104.582 140.033 103.934 130.581 103.934 130.581L104.219 127.716" fill="white"/>
<mask id="mask4_2697_25440" style="mask-type:luminance" maskUnits="userSpaceOnUse" x="97" y="124" width="8" height="31">
<path d="M97.0566 124.675C97.0566 124.675 97.3418 130.136 97.6312 131.566C97.9206 132.995 99.0741 138.102 99.5104 142.612C99.7214 144.952 100.155 147.266 100.806 149.524C100.806 149.524 104.301 163.097 104.509 146.046C104.582 140.033 103.934 130.581 103.934 130.581L104.219 127.716" fill="white"/>
</mask>
<g mask="url(#mask4_2697_25440)">
<g style="mix-blend-mode:multiply" opacity="0.3">
<path d="M102.902 128.166L97.6319 131.566L97.2949 125.824C97.2949 125.824 100.816 127.907 102.902 128.166Z" fill="#108E66"/>
</g>
<g style="mix-blend-mode:multiply" opacity="0.3">
<path d="M103.944 130.563C103.944 130.563 103.772 140.309 103.296 144.431C103.034 147.05 103.304 149.695 104.091 152.207C104.091 152.207 104.752 137.13 103.944 130.563Z" fill="#108E66"/>
</g>
</g>
<path d="M97.0566 124.675C97.0566 124.675 97.3418 130.136 97.6312 131.566C97.9206 132.995 99.0741 138.102 99.5104 142.612C99.7214 144.952 100.155 147.266 100.806 149.524C100.806 149.524 104.301 163.097 104.509 146.046C104.582 140.033 103.934 130.581 103.934 130.581L104.219 127.716" stroke="#263238" stroke-width="0.6" stroke-linecap="round" stroke-linejoin="round"/>
<path d="M93.2553 147.554L92.3438 149.506L98.3399 155.36L93.2553 147.554Z" fill="#108E66"/>
<path opacity="0.7" d="M93.2553 147.554L92.3438 149.506L98.3399 155.36L93.2553 147.554Z" fill="white"/>
<path d="M86.2695 151.87C86.2695 151.87 88.274 147.239 88.9047 148.293C89.5354 149.347 85.5308 153.87 87.1119 154.501C88.693 155.131 90.9999 152.816 90.2741 154.708C89.5484 156.6 88.274 158.812 88.274 159.762C88.274 160.713 88.706 170.074 88.706 170.074L88.814 170.705L87.5482 171.569C87.5482 171.569 86.1788 170.199 86.1788 169.042C86.1788 167.884 85.9671 163.253 85.9671 162.203C85.9671 161.153 85.4746 157.451 85.4746 157.451L86.2695 151.87Z" fill="#108E66"/>
<path opacity="0.7" d="M86.2696 151.87C86.2696 151.87 88.274 147.239 88.9048 148.293C89.5355 149.347 85.5308 153.87 87.112 154.501C88.6931 155.131 91 152.816 90.2742 154.708C89.5484 156.6 88.274 158.812 88.274 159.762C88.274 160.713 88.706 170.074 88.706 170.074L88.814 170.705L87.5483 171.569C87.5483 171.569 86.1788 170.199 86.1788 169.042C86.1788 167.884 85.9672 163.253 85.9672 162.203C85.9672 161.153 85.5352 157.192 85.5352 157.192L86.2696 151.87Z" fill="white"/>
<path d="M97.1264 127.367C97.1264 127.367 94.1888 127.984 93.1823 130.278C92.1757 132.572 92.0375 137.869 92.18 139.298C92.2598 140.449 92.2598 141.604 92.18 142.754L96.1976 141.458" fill="white"/>
<mask id="mask5_2697_25440" style="mask-type:luminance" maskUnits="userSpaceOnUse" x="92" y="127" width="6" height="16">
<path d="M97.1264 127.367C97.1264 127.367 94.1888 127.984 93.1823 130.278C92.1757 132.572 92.0375 137.869 92.18 139.298C92.2598 140.449 92.2598 141.604 92.18 142.754L96.1976 141.458" fill="white"/>
</mask>
<g mask="url(#mask5_2697_25440)">
<g style="mix-blend-mode:multiply" opacity="0.3">
<path d="M97.6784 131.004C96.4682 131.032 95.3039 131.473 94.3779 132.253C92.6802 133.587 92.5031 135.994 92.5031 135.994C92.5031 135.994 91.9674 133.142 93.0387 130.65C94.1101 128.157 97.1255 127.367 97.1255 127.367L97.6784 131.004Z" fill="#108E66"/>
</g>
</g>
<path d="M97.1264 127.367C97.1264 127.367 94.1888 127.984 93.1823 130.278C92.1757 132.572 92.0375 137.869 92.18 139.298C92.2598 140.449 92.2598 141.604 92.18 142.754L96.1976 141.458" stroke="#263238" stroke-width="0.6" stroke-linecap="round" stroke-linejoin="round"/>
<path d="M97.1992 141.735L92.7539 146.746C92.7539 146.746 96.0544 151.9 97.6312 153.619" stroke="#263238" stroke-width="0.6" stroke-linecap="round" stroke-linejoin="round"/>
<path d="M108.537 152.902L110.83 144.167L106.813 141.143L109.971 140.141L107.379 131.263C107.379 131.263 106.899 129.034 105.219 128.317" stroke="#263238" stroke-width="0.6" stroke-linecap="round" stroke-linejoin="round"/>
<path d="M99.3594 137.437C99.3594 137.437 100.794 139.165 102.383 138.871C103.973 138.577 103.96 137.726 103.96 137.726" stroke="#263238" stroke-width="0.6" stroke-linecap="round" stroke-linejoin="round"/>
<mask id="mask6_2697_25440" style="mask-type:luminance" maskUnits="userSpaceOnUse" x="72" y="134" width="21" height="46">
<path d="M92.0386 134.862C92.0386 134.862 82.5691 140.158 82.1371 141.018C81.7051 141.877 72.8146 168.666 72.672 170.519C72.5295 172.372 79.7007 179.397 79.7007 179.397" fill="white"/>
</mask>
<g mask="url(#mask6_2697_25440)">
<path d="M85.326 139.242C85.326 139.242 83.0062 141.769 83.1098 142.4C83.2135 143.031 85.9567 144.189 85.326 144.923C84.6953 145.657 83.1098 143.873 82.7945 144.189C82.4791 144.504 76.6817 164.285 77.2087 164.592C77.7357 164.899 79.0015 163.75 79.3169 164.488C79.6322 165.227 74.0465 167.327 75.2042 167.944C76.362 168.562 79.2089 167.206 78.6602 167.417C78.1116 167.629 76.5521 169.625 76.9754 170.467C77.3988 171.31 81.9132 175.578 81.9132 175.578C81.6473 175.687 81.4343 175.896 81.3191 176.159C81.2039 176.423 81.1954 176.721 81.2954 176.99C81.4156 177.533 81.7211 178.018 82.1594 178.36C82.1594 178.36 80.9498 177.362 80.7641 178.442C80.6584 179.005 80.5963 179.576 80.5783 180.148L77.6191 177.219C75.2085 174.766 73.2473 172.467 72.6684 170.493C72.6684 170.493 72.5647 170.783 73.1998 168.467C73.8348 166.151 80.1549 146.37 80.1549 146.37C80.1549 146.37 81.5849 141.713 82.1335 140.992C82.6821 140.27 85.326 139.242 85.326 139.242Z" fill="#108E66"/>
<path opacity="0.7" d="M85.3258 139.242C85.3258 139.242 83.0059 141.769 83.1096 142.4C83.2133 143.031 85.9565 144.189 85.3258 144.923C84.695 145.657 83.1096 143.873 82.7942 144.189C82.4789 144.504 76.6814 164.285 77.2085 164.592C77.7355 164.899 79.0013 163.75 79.3166 164.488C79.632 165.227 74.0462 167.327 75.204 167.944C76.3618 168.562 79.2086 167.206 78.66 167.417C78.1114 167.629 76.5518 169.625 76.9752 170.467C77.3986 171.31 81.913 175.578 81.913 175.578C81.6471 175.687 81.4341 175.896 81.3189 176.159C81.2037 176.423 81.1952 176.721 81.2952 176.99C81.4153 177.533 81.7208 178.018 82.1592 178.36C82.1592 178.36 80.9496 177.362 80.7638 178.442C80.5781 179.522 80.483 180.23 80.483 180.23L77.6189 177.206C74.6294 174.221 72.7805 171.867 72.6682 170.48C72.6682 170.48 72.3182 171.137 73.1995 168.454C73.9469 166.173 80.1547 146.357 80.1547 146.357C80.1547 146.357 81.5846 141.7 82.1333 140.979C82.6819 140.257 85.3258 139.242 85.3258 139.242Z" fill="white"/>
<path d="M90.5176 136.365V144.431L95.6022 143.13L97.2957 141.178L92.0814 142.219L92.4227 134.948L90.5176 136.365Z" fill="#108E66"/>
<path opacity="0.7" d="M90.5176 136.365V144.431L95.6022 143.13L97.2957 141.178L92.0814 142.219L92.4227 134.948L90.5176 136.365Z" fill="white"/>
</g>
<path d="M92.0386 134.862C92.0386 134.862 82.5691 140.158 82.1371 141.018C81.7051 141.877 72.8146 168.666 72.672 170.519C72.5295 172.372 79.7007 179.397 79.7007 179.397" stroke="#263238" stroke-width="0.6" stroke-linecap="round" stroke-linejoin="round"/>
<path d="M86.7279 148.323L83.8594 168.083" stroke="#263238" stroke-width="0.6" stroke-linecap="round" stroke-linejoin="round"/>
<path d="M87.0137 147.174L87.4457 145.169" stroke="#263238" stroke-width="0.6" stroke-linecap="round" stroke-linejoin="round"/>
<path d="M75.6816 169.232C75.6816 169.232 77.5479 166.64 80.2738 166.795C82.9997 166.951 87.013 170.804 87.013 170.804" stroke="#263238" stroke-width="0.6" stroke-linecap="round" stroke-linejoin="round"/>
<path d="M76.541 166.221C77.1427 165.68 77.909 165.358 78.7163 165.306C79.5237 165.254 80.3248 165.476 80.9906 165.936" stroke="#263238" stroke-width="0.6" stroke-linecap="round" stroke-linejoin="round"/>
<path d="M89.8564 172.187C89.8252 171.949 89.7383 171.721 89.603 171.523C89.4676 171.325 89.2875 171.161 89.0772 171.046C88.8669 170.93 88.6323 170.866 88.3924 170.857C88.1526 170.849 87.9141 170.898 87.6964 170.999C87.5197 171.087 87.3691 171.22 87.2593 171.384C87.1495 171.549 87.0843 171.739 87.07 171.936C86.9102 173.513 87.8779 177.388 89.1739 177.12C90.2495 176.878 90.215 174.839 89.8564 172.187Z" fill="white" stroke="#263238" stroke-width="0.6" stroke-linecap="round" stroke-linejoin="round"/>
<path d="M86.9697 173.331C86.9379 173.094 86.8506 172.867 86.715 172.669C86.5793 172.472 86.3991 172.309 86.1889 172.194C85.9787 172.078 85.7444 172.014 85.5048 172.006C85.2652 171.998 85.0271 172.047 84.8097 172.148C84.6328 172.235 84.4819 172.367 84.372 172.531C84.262 172.694 84.197 172.884 84.1833 173.081C84.0235 174.658 84.9912 178.533 86.2872 178.265C87.3801 178.023 87.3456 175.988 86.9697 173.331Z" fill="white" stroke="#263238" stroke-width="0.6" stroke-linecap="round" stroke-linejoin="round"/>
<path d="M84.3358 176.217C84.2462 175.993 84.1049 175.792 83.9233 175.633C83.7417 175.473 83.525 175.359 83.2908 175.299C83.0567 175.24 82.8117 175.236 82.5759 175.289C82.34 175.342 82.1201 175.45 81.9338 175.604C81.7835 175.732 81.6696 175.898 81.6036 176.085C81.5376 176.271 81.5219 176.472 81.558 176.666C81.7913 178.23 83.6921 181.768 84.8714 181.168C85.8866 180.649 85.325 178.558 84.3358 176.217Z" fill="white" stroke="#263238" stroke-width="0.6" stroke-linecap="round" stroke-linejoin="round"/>
<path d="M82.4765 178.982C82.4104 178.814 82.3053 178.664 82.1699 178.544C82.0344 178.424 81.8724 178.339 81.6973 178.294C81.5223 178.249 81.3391 178.247 81.1628 178.287C80.9866 178.327 80.8224 178.408 80.6837 178.524C80.5722 178.621 80.4874 178.745 80.4375 178.884C80.3875 179.023 80.3742 179.173 80.3986 179.319C80.5757 180.49 81.9927 183.116 82.8783 182.68C83.6386 182.304 83.2369 180.839 82.4765 178.982Z" fill="white" stroke="#263238" stroke-width="0.6" stroke-linecap="round" stroke-linejoin="round"/>
<path d="M90.0762 173.232C90.0762 173.232 91.1994 174.446 92.0331 174.705C92.72 174.917 96.2927 174.273 96.2927 174.273" stroke="#263238" stroke-width="0.6" stroke-linecap="round" stroke-linejoin="round"/>
<path d="M95.1914 176.964C95.1914 176.964 92.8975 177.535 91.3034 177.828C89.7093 178.122 88.0029 178.26 88.0029 178.26C88.0029 178.26 86.8538 179.695 85.9941 179.695" stroke="#263238" stroke-width="0.6" stroke-linecap="round" stroke-linejoin="round"/>
<path d="M108.324 133.488C108.324 133.488 115.578 137.912 117.025 139.355C118.472 140.797 123.552 154.328 123.552 154.328" stroke="#263238" stroke-width="0.6" stroke-linecap="round" stroke-linejoin="round"/>
<path d="M115.219 143.143L116.843 154.872" stroke="#263238" stroke-width="0.6" stroke-linecap="round" stroke-linejoin="round"/>
<path d="M116.843 153.459L115.832 144.746L120.299 154.587L117.046 154.734L116.843 153.459Z" fill="#108E66"/>
<path opacity="0.7" d="M116.843 153.459L115.832 144.746L120.299 154.587L117.046 154.734L116.843 153.459Z" fill="white"/>
<path d="M89.2201 149.165L86.4121 153.775L88.7924 151.891" stroke="#263238" stroke-width="0.6" stroke-linecap="round" stroke-linejoin="round"/>
<path d="M85.6309 157.473C85.6309 157.473 86.2141 166.035 86.2141 167.201C86.2141 168.368 86.0499 169.906 86.0499 169.906" stroke="#263238" stroke-width="0.6" stroke-linecap="round" stroke-linejoin="round"/>
<path d="M95.3328 101.494C95.3328 101.494 91.1727 103.926 90.8876 107.507C90.7501 109.869 90.9923 112.238 91.6047 114.523C91.6047 114.523 90.3087 113.378 90.1704 115.957C90.0322 118.536 92.1792 120.537 93.0389 120.537H93.9029C93.9029 120.537 95.8167 124.468 98.1149 126.33C100.413 128.192 102.655 128.274 104.232 127.699C105.809 127.125 108.824 124.55 109.114 121.111C109.403 117.672 109.114 111.944 108.824 108.367C108.535 104.79 107.822 102.207 103.947 100.919C100.072 99.6321 97.3416 100.487 95.3328 101.494Z" fill="white"/>
<mask id="mask7_2697_25440" style="mask-type:luminance" maskUnits="userSpaceOnUse" x="90" y="100" width="20" height="29">
<path d="M95.3328 101.494C95.3328 101.494 91.1727 103.926 90.8876 107.507C90.7501 109.869 90.9923 112.238 91.6047 114.523C91.6047 114.523 90.3087 113.378 90.1704 115.957C90.0322 118.536 92.1792 120.537 93.0389 120.537H93.9029C93.9029 120.537 95.8167 124.468 98.1149 126.33C100.413 128.192 102.655 128.274 104.232 127.699C105.809 127.125 108.824 124.55 109.114 121.111C109.403 117.672 109.114 111.944 108.824 108.367C108.535 104.79 107.822 102.207 103.947 100.919C100.072 99.6321 97.3416 100.487 95.3328 101.494Z" fill="white"/>
</mask>
<g mask="url(#mask7_2697_25440)">
<g style="mix-blend-mode:multiply" opacity="0.3">
<path d="M91.6047 114.523C91.6047 114.523 90.3087 113.378 90.1704 115.957C90.0322 118.536 92.1792 120.537 93.0389 120.537H93.9029C93.9029 120.537 95.8167 124.464 98.1149 126.33L99.0999 127.008C99.4354 127.211 99.7864 127.387 100.15 127.535C99.3764 126.585 97.6959 124.394 96.9053 122.424C95.8599 119.832 95.6093 114.359 95.8599 110.847C96.1104 107.335 97.9464 105.9 97.9464 105.9L95.3544 105.771C94.97 105.771 92.9612 108.76 90.9221 110.475L91.6047 114.523Z" fill="#108E66"/>
</g>
</g>
<path d="M95.3328 101.494C95.3328 101.494 91.1727 103.926 90.8876 107.507C90.7501 109.869 90.9923 112.238 91.6047 114.523C91.6047 114.523 90.3087 113.378 90.1704 115.957C90.0322 118.536 92.1792 120.537 93.0389 120.537H93.9029C93.9029 120.537 95.8167 124.468 98.1149 126.33C100.413 128.192 102.655 128.274 104.232 127.699C105.809 127.125 108.824 124.55 109.114 121.111C109.403 117.672 109.114 111.944 108.824 108.367C108.535 104.79 107.822 102.207 103.947 100.919C100.072 99.6321 97.3416 100.487 95.3328 101.494Z" stroke="#263238" stroke-width="0.6" stroke-linecap="round" stroke-linejoin="round"/>
<path d="M101.979 114.64C101.979 114.64 103.179 112.588 104.376 113.776L105.24 117.85L103.512 118.204L103.676 120.748" stroke="#263238" stroke-width="0.6" stroke-linecap="round" stroke-linejoin="round"/>
<path d="M99.4118 117.202C100.829 117.202 101.978 116.055 101.978 114.64C101.978 113.225 100.829 112.078 99.4118 112.078C97.9946 112.078 96.8457 113.225 96.8457 114.64C96.8457 116.055 97.9946 117.202 99.4118 117.202Z" fill="#108E66" fill-opacity="0.5" stroke="#263238" stroke-width="0.6" stroke-linecap="round" stroke-linejoin="round"/>
<path opacity="0.4" d="M99.4118 117.202C100.829 117.202 101.978 116.055 101.978 114.64C101.978 113.225 100.829 112.078 99.4118 112.078C97.9946 112.078 96.8457 113.225 96.8457 114.64C96.8457 116.055 97.9946 117.202 99.4118 117.202Z" fill="white" stroke="#263238" stroke-width="0.6" stroke-miterlimit="10"/>
<path d="M110.199 114.126C110.2 113.618 110.051 113.122 109.77 112.699C109.489 112.276 109.089 111.946 108.621 111.75C108.152 111.554 107.636 111.502 107.138 111.598C106.64 111.695 106.181 111.938 105.821 112.295C105.46 112.652 105.213 113.108 105.111 113.605C105.009 114.103 105.057 114.619 105.248 115.089C105.439 115.56 105.765 115.963 106.185 116.248C106.605 116.533 107.1 116.688 107.607 116.692C107.947 116.695 108.283 116.631 108.597 116.504C108.912 116.377 109.198 116.188 109.439 115.949C109.68 115.711 109.871 115.427 110.002 115.114C110.132 114.801 110.199 114.465 110.199 114.126Z" fill="#108E66" fill-opacity="0.5" stroke="#263238" stroke-width="0.6" stroke-linecap="round" stroke-linejoin="round"/>
<path opacity="0.4" d="M110.199 114.126C110.2 113.618 110.051 113.122 109.77 112.699C109.489 112.276 109.089 111.946 108.621 111.75C108.152 111.554 107.636 111.502 107.138 111.598C106.64 111.695 106.181 111.938 105.821 112.295C105.46 112.652 105.213 113.108 105.111 113.605C105.009 114.103 105.057 114.619 105.248 115.089C105.439 115.56 105.765 115.963 106.185 116.248C106.605 116.533 107.1 116.688 107.607 116.692C107.947 116.695 108.283 116.631 108.597 116.504C108.912 116.377 109.198 116.188 109.439 115.949C109.68 115.711 109.871 115.427 110.002 115.114C110.132 114.801 110.199 114.465 110.199 114.126Z" fill="white" stroke="#263238" stroke-width="0.6" stroke-miterlimit="10"/>
<path d="M96.8455 114.64L91.709 114.981" stroke="#263238" stroke-width="0.6" stroke-linecap="round" stroke-linejoin="round"/>
<path d="M97.3203 111.214C97.6198 110.846 98.0147 110.567 98.4618 110.408C98.909 110.248 99.3913 110.215 99.8562 110.311" stroke="#263238" stroke-width="0.6" stroke-linecap="round" stroke-linejoin="round"/>
<path d="M105.301 110.13C105.724 109.897 106.214 109.813 106.691 109.891C107.168 109.97 107.605 110.206 107.932 110.562" stroke="#263238" stroke-width="0.6" stroke-linecap="round" stroke-linejoin="round"/>
<path d="M108.821 108.367C108.536 104.786 107.819 102.207 103.944 100.919C100.069 99.6321 97.343 100.487 95.3342 101.494C95.3342 101.494 91.1741 103.926 90.8889 107.507C90.7515 109.869 90.9936 112.238 91.6061 114.523C91.6061 114.523 92.7552 115.668 93.0403 114.091C93.3254 112.514 92.4657 109.935 96.4963 106.929C100.527 103.922 106.251 105.356 108.26 108.225C108.494 108.413 108.697 108.637 108.86 108.89C108.864 108.838 108.826 108.432 108.821 108.367Z" fill="#263238"/>
<path d="M46.1293 124.26C46.1293 124.26 42.6733 123.69 40.0813 125.41C39.3434 125.901 38.7618 126.593 38.4057 127.405C38.0497 128.216 37.934 129.113 38.0725 129.989" stroke="#263238" stroke-width="0.6" stroke-linecap="round" stroke-linejoin="round"/>
<path d="M38.6675 124.55C38.6675 124.55 36.9395 126.554 36.9395 128.274" stroke="#263238" stroke-width="0.6" stroke-linecap="round" stroke-linejoin="round"/>
<path d="M27.9082 116.385C27.9082 116.385 29.6362 126.84 31.2087 129.989C32.7812 133.138 37.2567 136.149 40.6781 137.579C44.0996 139.009 60.1872 141.303 60.7618 141.16C61.3364 141.018 58.0359 138.011 58.753 134.287C59.1116 132.438 61.6215 130.563 61.6215 130.563C61.6215 130.563 54.5928 127.539 51.8669 126.412C49.141 125.284 46.13 124.252 46.13 124.252C46.13 124.252 42.242 120.675 40.393 119.098C38.693 117.76 36.9205 116.517 35.0837 115.374" stroke="#263238" stroke-width="0.6" stroke-linecap="round" stroke-linejoin="round"/>
<path d="M75.3447 135.782L77.2196 138.115C77.5985 138.462 78.0028 138.782 78.4292 139.069C78.9908 139.372 79.4746 140.288 78.7013 140.508C78.3488 140.609 77.9777 140.627 77.6172 140.56C77.2566 140.493 76.9165 140.344 76.6234 140.123L74.8004 138.789L73.2754 137.411L74.3813 135.423L75.3447 135.782Z" fill="white" stroke="#263238" stroke-width="0.6" stroke-linecap="round" stroke-linejoin="round"/>
<path d="M61.6198 130.563C61.6198 130.563 66.0694 131.566 67.5037 131.859C68.9379 132.153 76.256 133.436 77.2582 133.864C78.2605 134.292 81.4184 134.438 81.2758 135.726C81.1333 137.013 79.8416 136.728 78.8393 136.59C77.8371 136.452 74.6749 135.877 74.6749 135.877C74.6749 135.877 75.6814 137.739 75.3963 138.167C75.1112 138.594 68.6528 140.888 67.3611 140.888C66.0694 140.888 65.2011 138.594 64.6352 137.864L62.9072 135.704L59.4512 134.132" fill="white"/>
<path d="M61.6198 130.563C61.6198 130.563 66.0694 131.566 67.5037 131.859C68.9379 132.153 76.256 133.436 77.2582 133.864C78.2605 134.292 81.4184 134.438 81.2758 135.726C81.1333 137.013 79.8416 136.728 78.8393 136.59C77.8371 136.452 74.6749 135.877 74.6749 135.877C74.6749 135.877 75.6814 137.739 75.3963 138.167C75.1112 138.594 68.6528 140.888 67.3611 140.888C66.0694 140.888 65.2011 138.594 64.6352 137.864L62.9072 135.704L59.4512 134.132" stroke="#263238" stroke-width="0.6" stroke-linecap="round" stroke-linejoin="round"/>
<path d="M74.6761 135.864L73.6738 134.43" stroke="#263238" stroke-width="0.6" stroke-linecap="round" stroke-linejoin="round"/>
<path d="M60.7617 141.16C61.5121 140.477 62.0967 139.632 62.471 138.688C62.8453 137.745 62.9995 136.729 62.9217 135.717" stroke="#263238" stroke-width="0.6" stroke-linecap="round" stroke-linejoin="round"/>
<path d="M68.3633 137.579L69.5124 140.301" stroke="#263238" stroke-width="0.6" stroke-linecap="round" stroke-linejoin="round"/>
<path d="M71.2324 136.434L72.3815 139.441" stroke="#263238" stroke-width="0.6" stroke-linecap="round" stroke-linejoin="round"/>
<path d="M98.7812 157.343V190.996L143.683 188.421V155.053L98.7812 157.343Z" fill="#263238" stroke="#263238" stroke-width="0.6" stroke-linecap="round" stroke-linejoin="round"/>
<path d="M143.682 155.053L141.384 153.762L96.9141 155.913V188.706L98.7803 190.996V157.343L143.682 155.053Z" fill="white" stroke="#263238" stroke-width="0.6" stroke-linecap="round" stroke-linejoin="round"/>
<path d="M96.9141 155.913L98.776 157.343" stroke="#263238" stroke-width="0.6" stroke-linecap="round" stroke-linejoin="round"/>
<path d="M116.713 176.964V199.735L129.051 198.875V175.962L116.713 176.964Z" fill="#263238" stroke="#263238" stroke-width="0.6" stroke-linecap="round" stroke-linejoin="round"/>
<path d="M116.328 189.855V176.964L129.051 175.962L129.085 189.056" stroke="white" stroke-width="0.6" stroke-linecap="round" stroke-linejoin="round"/>
<path d="M116.714 199.735L110.256 194.007L116.714 193.717" fill="white"/>
<path d="M116.714 199.735L110.256 194.007L116.714 193.717" stroke="#263238" stroke-width="0.6" stroke-linecap="round" stroke-linejoin="round"/>
<path opacity="0.7" d="M38.4688 178.693L79.2711 182.779C79.2711 182.779 77.7073 181.522 78.3164 181.401C79.4742 181.177 81.1892 181.021 81.1892 181.021L77.5907 177.228L38.4688 178.693Z" fill="#108E66"/>
<path opacity="0.7" d="M38.4688 178.693L79.2711 182.779C79.2711 182.779 77.7073 181.522 78.3164 181.401C79.4742 181.177 81.1892 181.021 81.1892 181.021L77.5907 177.228L38.4688 178.693Z" fill="white"/>
<path d="M77.6221 177.245L13.9453 179.513" stroke="#263238" stroke-width="0.6" stroke-linecap="round" stroke-linejoin="round"/>
<path d="M143.377 175.876L186.3 202.366" stroke="#263238" stroke-width="0.6" stroke-linecap="round" stroke-linejoin="round"/>
<path d="M65.3531 182.546L42.8848 185.289L57.3611 200.491L81.579 197.497L65.3531 182.546Z" fill="#108E66"/>
<path opacity="0.7" d="M65.3531 182.546L42.8848 185.289L57.3611 200.491L81.579 197.497L65.3531 182.546Z" fill="white"/>
<path d="M42.3828 188.529L62.3542 186.036L76.8348 200.737L53.8654 203.977L42.3828 188.529Z" fill="white"/>
<path d="M54.5534 201.839C54.5191 201.839 54.4861 201.825 54.4618 201.801C54.4375 201.777 54.4238 201.744 54.4238 201.709C54.4238 201.675 54.4375 201.642 54.4618 201.618C54.4861 201.593 54.5191 201.58 54.5534 201.58L72.9221 199.217C72.9561 199.214 72.9899 199.224 73.017 199.245C73.0442 199.265 73.0627 199.296 73.0689 199.329C73.0714 199.346 73.0702 199.364 73.0656 199.381C73.061 199.398 73.053 199.414 73.0421 199.427C73.0312 199.441 73.0176 199.453 73.0022 199.461C72.9867 199.469 72.9698 199.474 72.9523 199.476L54.588 201.839H54.5534Z" fill="#108E66"/>
<path d="M53.53 200.612C53.4956 200.612 53.4627 200.599 53.4383 200.574C53.414 200.55 53.4004 200.517 53.4004 200.483C53.4004 200.448 53.414 200.415 53.4383 200.391C53.4627 200.367 53.4956 200.353 53.53 200.353L71.8986 197.99C71.933 197.985 71.9678 197.995 71.9953 198.016C72.0229 198.037 72.0409 198.068 72.0455 198.102C72.0501 198.137 72.0408 198.171 72.0198 198.199C71.9987 198.226 71.9676 198.245 71.9332 198.249L53.5689 200.612H53.53Z" fill="#108E66"/>
<path d="M52.5093 199.385C52.4771 199.385 52.4459 199.374 52.422 199.352C52.398 199.33 52.3829 199.301 52.3797 199.269C52.376 199.234 52.3855 199.2 52.4064 199.173C52.4274 199.145 52.458 199.127 52.492 199.122L70.8477 196.759C70.8822 196.757 70.916 196.768 70.943 196.789C70.97 196.811 70.9884 196.841 70.9946 196.875C70.9964 196.892 70.9948 196.91 70.9899 196.926C70.985 196.942 70.9768 196.958 70.966 196.971C70.9552 196.984 70.9418 196.995 70.9267 197.003C70.9116 197.011 70.895 197.016 70.8779 197.018L52.5136 199.385H52.5093Z" fill="#108E66"/>
<path d="M51.4851 198.154C51.4507 198.154 51.4177 198.14 51.3934 198.116C51.3691 198.092 51.3555 198.059 51.3555 198.024C51.3555 197.99 51.3691 197.957 51.3934 197.933C51.4177 197.908 51.4507 197.895 51.4851 197.895L69.8537 195.532C69.8879 195.528 69.9223 195.538 69.9496 195.559C69.977 195.579 69.9952 195.61 70.0006 195.644C70.003 195.661 70.002 195.679 69.9977 195.695C69.9933 195.712 69.9857 195.727 69.9752 195.741C69.9648 195.755 69.9517 195.766 69.9368 195.775C69.9218 195.783 69.9054 195.789 69.8883 195.791L51.5196 198.154H51.4851Z" fill="#108E66"/>
<path d="M50.4668 196.927C50.4353 196.928 50.4047 196.916 50.3808 196.896C50.3569 196.875 50.3414 196.846 50.3372 196.815C50.3348 196.798 50.3358 196.781 50.3402 196.764C50.3445 196.747 50.3521 196.732 50.3626 196.718C50.373 196.704 50.3861 196.693 50.4011 196.684C50.416 196.676 50.4325 196.67 50.4496 196.668L68.8182 194.305C68.8524 194.301 68.8868 194.311 68.9141 194.332C68.9415 194.353 68.9597 194.383 68.9651 194.417C68.9675 194.435 68.9663 194.452 68.9617 194.469C68.9571 194.486 68.9491 194.502 68.9382 194.516C68.9273 194.529 68.9137 194.541 68.8983 194.549C68.8829 194.558 68.8659 194.563 68.8484 194.564L50.4841 196.927H50.4668Z" fill="#108E66"/>
<path d="M49.4425 195.696C49.4103 195.696 49.3792 195.684 49.3552 195.663C49.3312 195.641 49.3162 195.611 49.3129 195.579C49.3102 195.545 49.3202 195.512 49.3409 195.484C49.3617 195.457 49.3917 195.439 49.4253 195.432L67.7939 193.069C67.8288 193.066 67.8637 193.076 67.8912 193.098C67.9186 193.12 67.9364 193.151 67.9408 193.186C67.9445 193.22 67.9347 193.254 67.9137 193.28C67.8927 193.307 67.8621 193.324 67.8285 193.329L49.4598 195.696H49.4425Z" fill="#108E66"/>
<path d="M48.4239 194.469C48.3923 194.469 48.3617 194.458 48.3378 194.437C48.314 194.417 48.2985 194.388 48.2943 194.357C48.2918 194.34 48.2928 194.322 48.2972 194.306C48.3015 194.289 48.3092 194.273 48.3196 194.26C48.3301 194.246 48.3432 194.235 48.3581 194.226C48.373 194.218 48.3895 194.212 48.4066 194.21L66.7752 191.847C66.8093 191.844 66.8431 191.854 66.8702 191.875C66.8973 191.896 66.9158 191.926 66.9221 191.959C66.9245 191.977 66.9234 191.994 66.9188 192.011C66.9141 192.028 66.9061 192.044 66.8952 192.058C66.8843 192.071 66.8707 192.083 66.8553 192.091C66.8399 192.099 66.8229 192.104 66.8055 192.106L48.4411 194.469H48.4239Z" fill="#108E66"/>
<path d="M47.3991 193.242C47.3648 193.242 47.3318 193.229 47.3075 193.204C47.2832 193.18 47.2695 193.147 47.2695 193.113C47.2695 193.078 47.2832 193.045 47.3075 193.021C47.3318 192.997 47.3648 192.983 47.3991 192.983L65.7678 190.62C65.7848 190.618 65.8021 190.619 65.8187 190.623C65.8353 190.628 65.8508 190.635 65.8645 190.646C65.8781 190.656 65.8896 190.669 65.8982 190.684C65.9068 190.699 65.9124 190.715 65.9147 190.732C65.9169 190.749 65.9158 190.767 65.9114 190.783C65.907 190.8 65.8993 190.815 65.8889 190.829C65.8785 190.843 65.8655 190.854 65.8506 190.863C65.8358 190.871 65.8194 190.877 65.8023 190.879L47.4337 193.242H47.3991Z" fill="#108E66"/>
<path d="M46.3804 192.015C46.3482 192.016 46.317 192.004 46.2931 191.982C46.2691 191.961 46.254 191.931 46.2508 191.899C46.247 191.865 46.2566 191.83 46.2775 191.803C46.2985 191.775 46.3291 191.757 46.3631 191.752L64.7318 189.389C64.7664 189.386 64.8008 189.397 64.828 189.418C64.8552 189.44 64.8733 189.471 64.8786 189.505C64.8804 189.522 64.8788 189.54 64.8739 189.556C64.869 189.573 64.8609 189.588 64.8501 189.601C64.8392 189.614 64.8258 189.625 64.8107 189.633C64.7956 189.641 64.7791 189.646 64.762 189.648L46.3977 192.015H46.3804Z" fill="#108E66"/>
<path d="M45.3601 190.784C45.3257 190.784 45.2927 190.771 45.2684 190.746C45.2441 190.722 45.2305 190.689 45.2305 190.655C45.2305 190.62 45.2441 190.587 45.2684 190.563C45.2927 190.539 45.3257 190.525 45.3601 190.525L63.7287 188.162C63.7629 188.158 63.7973 188.168 63.8246 188.189C63.852 188.21 63.8702 188.24 63.8756 188.274C63.878 188.291 63.877 188.309 63.8727 188.325C63.8683 188.342 63.8607 188.358 63.8502 188.371C63.8398 188.385 63.8267 188.396 63.8118 188.405C63.7968 188.414 63.7804 188.419 63.7633 188.421L45.3601 190.784Z" fill="#108E66"/>
<g opacity="0.7">
<path d="M54.5534 201.839C54.5191 201.839 54.4861 201.825 54.4618 201.801C54.4375 201.777 54.4238 201.744 54.4238 201.709C54.4238 201.675 54.4375 201.642 54.4618 201.618C54.4861 201.593 54.5191 201.58 54.5534 201.58L72.9221 199.217C72.9561 199.214 72.9899 199.224 73.017 199.245C73.0442 199.265 73.0627 199.296 73.0689 199.329C73.0714 199.346 73.0702 199.364 73.0656 199.381C73.061 199.398 73.053 199.414 73.0421 199.427C73.0312 199.441 73.0176 199.453 73.0022 199.461C72.9867 199.469 72.9698 199.474 72.9523 199.476L54.588 201.839H54.5534Z" fill="white"/>
<path d="M53.53 200.612C53.4956 200.612 53.4627 200.599 53.4383 200.574C53.414 200.55 53.4004 200.517 53.4004 200.483C53.4004 200.448 53.414 200.415 53.4383 200.391C53.4627 200.367 53.4956 200.353 53.53 200.353L71.8986 197.99C71.933 197.985 71.9678 197.995 71.9953 198.016C72.0229 198.037 72.0409 198.068 72.0455 198.102C72.0501 198.137 72.0408 198.171 72.0198 198.199C71.9987 198.226 71.9676 198.245 71.9332 198.249L53.5689 200.612H53.53Z" fill="white"/>
<path d="M52.5093 199.385C52.4771 199.385 52.4459 199.374 52.422 199.352C52.398 199.33 52.3829 199.301 52.3797 199.269C52.376 199.234 52.3855 199.2 52.4064 199.173C52.4274 199.145 52.458 199.127 52.492 199.122L70.8477 196.759C70.8822 196.757 70.916 196.768 70.943 196.789C70.97 196.811 70.9884 196.841 70.9946 196.875C70.9964 196.892 70.9948 196.91 70.9899 196.926C70.985 196.942 70.9768 196.958 70.966 196.971C70.9552 196.984 70.9418 196.995 70.9267 197.003C70.9116 197.011 70.895 197.016 70.8779 197.018L52.5136 199.385H52.5093Z" fill="white"/>
<path d="M51.4851 198.154C51.4507 198.154 51.4177 198.14 51.3934 198.116C51.3691 198.092 51.3555 198.059 51.3555 198.024C51.3555 197.99 51.3691 197.957 51.3934 197.933C51.4177 197.908 51.4507 197.895 51.4851 197.895L69.8537 195.532C69.8879 195.528 69.9223 195.538 69.9496 195.559C69.977 195.579 69.9952 195.61 70.0006 195.644C70.003 195.661 70.002 195.679 69.9977 195.695C69.9933 195.712 69.9857 195.727 69.9752 195.741C69.9648 195.755 69.9517 195.766 69.9368 195.775C69.9218 195.783 69.9054 195.789 69.8883 195.791L51.5196 198.154H51.4851Z" fill="white"/>
<path d="M50.4668 196.927C50.4353 196.928 50.4047 196.916 50.3808 196.896C50.3569 196.875 50.3414 196.846 50.3372 196.815C50.3348 196.798 50.3358 196.781 50.3402 196.764C50.3445 196.747 50.3521 196.732 50.3626 196.718C50.373 196.704 50.3861 196.693 50.4011 196.684C50.416 196.676 50.4325 196.67 50.4496 196.668L68.8182 194.305C68.8524 194.301 68.8868 194.311 68.9141 194.332C68.9415 194.353 68.9597 194.383 68.9651 194.417C68.9675 194.435 68.9663 194.452 68.9617 194.469C68.9571 194.486 68.9491 194.502 68.9382 194.516C68.9273 194.529 68.9137 194.541 68.8983 194.549C68.8829 194.558 68.8659 194.563 68.8484 194.564L50.4841 196.927H50.4668Z" fill="white"/>
<path d="M49.4425 195.696C49.4103 195.696 49.3792 195.684 49.3552 195.663C49.3312 195.641 49.3162 195.611 49.3129 195.579C49.3102 195.545 49.3202 195.512 49.3409 195.484C49.3617 195.457 49.3917 195.439 49.4253 195.432L67.7939 193.069C67.8288 193.066 67.8637 193.076 67.8912 193.098C67.9186 193.12 67.9364 193.151 67.9408 193.186C67.9445 193.22 67.9347 193.254 67.9137 193.28C67.8927 193.307 67.8621 193.324 67.8285 193.329L49.4598 195.696H49.4425Z" fill="white"/>
<path d="M48.4239 194.469C48.3923 194.469 48.3617 194.458 48.3378 194.437C48.314 194.417 48.2985 194.388 48.2943 194.357C48.2918 194.34 48.2928 194.322 48.2972 194.306C48.3015 194.289 48.3092 194.273 48.3196 194.26C48.3301 194.246 48.3432 194.235 48.3581 194.226C48.373 194.218 48.3895 194.212 48.4066 194.21L66.7752 191.847C66.8093 191.844 66.8431 191.854 66.8702 191.875C66.8973 191.896 66.9158 191.926 66.9221 191.959C66.9245 191.977 66.9234 191.994 66.9188 192.011C66.9141 192.028 66.9061 192.044 66.8952 192.058C66.8843 192.071 66.8707 192.083 66.8553 192.091C66.8399 192.099 66.8229 192.104 66.8055 192.106L48.4411 194.469H48.4239Z" fill="white"/>
<path d="M47.3991 193.242C47.3648 193.242 47.3318 193.229 47.3075 193.204C47.2832 193.18 47.2695 193.147 47.2695 193.113C47.2695 193.078 47.2832 193.045 47.3075 193.021C47.3318 192.997 47.3648 192.983 47.3991 192.983L65.7678 190.62C65.7848 190.618 65.8021 190.619 65.8187 190.623C65.8353 190.628 65.8508 190.635 65.8645 190.646C65.8781 190.656 65.8896 190.669 65.8982 190.684C65.9068 190.699 65.9124 190.715 65.9147 190.732C65.9169 190.749 65.9158 190.767 65.9114 190.783C65.907 190.8 65.8993 190.815 65.8889 190.829C65.8785 190.843 65.8655 190.854 65.8506 190.863C65.8358 190.871 65.8194 190.877 65.8023 190.879L47.4337 193.242H47.3991Z" fill="white"/>
<path d="M46.3804 192.015C46.3482 192.016 46.317 192.004 46.2931 191.982C46.2691 191.961 46.254 191.931 46.2508 191.899C46.247 191.865 46.2566 191.83 46.2775 191.803C46.2985 191.775 46.3291 191.757 46.3631 191.752L64.7318 189.389C64.7664 189.386 64.8008 189.397 64.828 189.418C64.8552 189.44 64.8733 189.471 64.8786 189.505C64.8804 189.522 64.8788 189.54 64.8739 189.556C64.869 189.573 64.8609 189.588 64.8501 189.601C64.8392 189.614 64.8258 189.625 64.8107 189.633C64.7956 189.641 64.7791 189.646 64.762 189.648L46.3977 192.015H46.3804Z" fill="white"/>
<path d="M45.3601 190.784C45.3257 190.784 45.2927 190.771 45.2684 190.746C45.2441 190.722 45.2305 190.689 45.2305 190.655C45.2305 190.62 45.2441 190.587 45.2684 190.563C45.2927 190.539 45.3257 190.525 45.3601 190.525L63.7287 188.162C63.7629 188.158 63.7973 188.168 63.8246 188.189C63.852 188.21 63.8702 188.24 63.8756 188.274C63.878 188.291 63.877 188.309 63.8727 188.325C63.8683 188.342 63.8607 188.358 63.8502 188.371C63.8398 188.385 63.8267 188.396 63.8118 188.405C63.7968 188.414 63.7804 188.419 63.7633 188.421L45.3601 190.784Z" fill="white"/>
</g>
<path d="M64.8008 106.216C64.8008 106.216 68.2568 107.365 69.1208 108.808C69.9848 110.251 72.2053 117.936 72.2053 117.936" stroke="#263238" stroke-width="0.6" stroke-linecap="round" stroke-linejoin="round"/>
</svg>
