<svg width="108" height="108" viewBox="0 0 108 108" fill="none" xmlns="http://www.w3.org/2000/svg">
<path d="M100.332 23.7989C99.9891 23.2229 99.6291 22.6533 99.2519 22.0903C94.2471 14.6729 85.6309 9.59903 77.1551 7.30511C73.4364 6.31518 69.6161 5.7571 65.7697 5.64191C40.5798 4.78871 30.5466 24.6499 22.2219 29.7648C13.8973 34.8797 1.07986 43.632 1.94386 61.992C2.80786 80.352 16.0314 97.632 41.6468 98.712C67.2623 99.792 68.9708 88.2533 83.2722 83.9829C92.7373 81.1577 99.4722 71.6148 102.755 62.7977C107.244 50.7773 107.032 35.167 100.332 23.7989Z" fill="#108E66"/>
<path opacity="0.7" d="M100.332 23.7989C99.9891 23.2229 99.6291 22.6533 99.2519 22.0903C94.2471 14.6729 85.6309 9.59903 77.1551 7.30511C73.4364 6.31518 69.6161 5.7571 65.7697 5.64191C40.5798 4.78871 30.5466 24.6499 22.2219 29.7648C13.8973 34.8797 1.07986 43.632 1.94386 61.992C2.80786 80.352 16.0314 97.632 41.6468 98.712C67.2623 99.792 68.9708 88.2533 83.2722 83.9829C92.7373 81.1577 99.4722 71.6148 102.755 62.7977C107.244 50.7773 107.032 35.167 100.332 23.7989Z" fill="white"/>
<path d="M105.249 100.796H10.1523" stroke="#263238" stroke-width="0.5" stroke-linecap="round" stroke-linejoin="round"/>
<g opacity="0.3">
<path d="M51.7441 8.74146V87.6959H77.392V8.74146H51.7441ZM76.1003 10.4954V22.1594H65.4256V10.4954H76.1003ZM63.8293 10.4954V22.1594H53.0293V10.4954H63.8293ZM53.0293 23.9975H63.8293V35.56H53.0293V23.9975ZM76.1003 85.942H53.0358V37.558H76.1003V85.942ZM65.4256 35.56V23.9975H76.1003V35.56H65.4256Z" stroke="black" stroke-width="0.5" stroke-linecap="round" stroke-linejoin="round"/>
<path d="M77.293 8.74146V87.6959H102.939V8.74146H77.293ZM101.649 10.4954V22.1594H90.9744V10.4954H101.649ZM89.3782 10.4954V22.1594H78.5782V10.4954H89.3782ZM78.5782 23.9975H89.3782V35.56H78.5782V23.9975ZM101.649 85.942H78.5847V37.558H101.649V85.942ZM90.9744 35.56V23.9975H101.649V35.56H90.9744Z" stroke="black" stroke-width="0.5" stroke-linecap="round" stroke-linejoin="round"/>
<path d="M70.3589 50.6714L63.9199 58.685" stroke="black" stroke-width="0.5" stroke-linecap="round" stroke-linejoin="round"/>
<path d="M71.9574 48.6821L70.9336 49.9565" stroke="black" stroke-width="0.5" stroke-linecap="round" stroke-linejoin="round"/>
<path d="M56.9194 64.5278L55.5996 66.0787" stroke="black" stroke-width="0.5" stroke-linecap="round" stroke-linejoin="round"/>
<path d="M65.4706 54.4817L57.9062 63.3679" stroke="black" stroke-width="0.5" stroke-linecap="round" stroke-linejoin="round"/>
<path d="M96.3022 53.1187L89.8633 61.1323" stroke="black" stroke-width="0.5" stroke-linecap="round" stroke-linejoin="round"/>
<path d="M97.9008 51.1294L96.877 52.4016" stroke="black" stroke-width="0.5" stroke-linecap="round" stroke-linejoin="round"/>
<path d="M82.8625 66.9751L81.5449 68.526" stroke="black" stroke-width="0.5" stroke-linecap="round" stroke-linejoin="round"/>
<path d="M91.4139 56.9268L83.8496 65.8152" stroke="black" stroke-width="0.5" stroke-linecap="round" stroke-linejoin="round"/>
<path d="M99.2776 12.3271L96.1953 16.1633" stroke="black" stroke-width="0.5" stroke-linecap="round" stroke-linejoin="round"/>
<path d="M100.041 11.3745L99.5508 11.9858" stroke="black" stroke-width="0.5" stroke-linecap="round" stroke-linejoin="round"/>
<path d="M92.8438 18.9604L92.2109 19.7013" stroke="black" stroke-width="0.5" stroke-linecap="round" stroke-linejoin="round"/>
<path d="M96.9387 14.1501L93.3164 18.4053" stroke="black" stroke-width="0.5" stroke-linecap="round" stroke-linejoin="round"/>
<path d="M87.2503 12.3271L84.168 16.1633" stroke="black" stroke-width="0.5" stroke-linecap="round" stroke-linejoin="round"/>
<path d="M88.0157 11.3745L87.5254 11.9858" stroke="black" stroke-width="0.5" stroke-linecap="round" stroke-linejoin="round"/>
<path d="M80.8182 18.9604L80.1875 19.7013" stroke="black" stroke-width="0.5" stroke-linecap="round" stroke-linejoin="round"/>
<path d="M84.9112 14.1501L81.291 18.4053" stroke="black" stroke-width="0.5" stroke-linecap="round" stroke-linejoin="round"/>
<path d="M87.2503 26.6975L84.168 30.5337" stroke="black" stroke-width="0.5" stroke-linecap="round" stroke-linejoin="round"/>
<path d="M88.0157 25.7449L87.5254 26.3562" stroke="black" stroke-width="0.5" stroke-linecap="round" stroke-linejoin="round"/>
<path d="M80.8182 33.3308L80.1875 34.0717" stroke="black" stroke-width="0.5" stroke-linecap="round" stroke-linejoin="round"/>
<path d="M84.9112 28.5205L81.291 32.7757" stroke="black" stroke-width="0.5" stroke-linecap="round" stroke-linejoin="round"/>
<path d="M97.9769 26.6975L94.8945 30.5337" stroke="black" stroke-width="0.5" stroke-linecap="round" stroke-linejoin="round"/>
<path d="M98.7423 25.7449L98.252 26.3562" stroke="black" stroke-width="0.5" stroke-linecap="round" stroke-linejoin="round"/>
<path d="M91.5448 33.3308L90.9141 34.0717" stroke="black" stroke-width="0.5" stroke-linecap="round" stroke-linejoin="round"/>
<path d="M95.6377 28.5205L92.0176 32.7757" stroke="black" stroke-width="0.5" stroke-linecap="round" stroke-linejoin="round"/>
<path d="M73.9222 12.3271L70.8398 16.1633" stroke="black" stroke-width="0.5" stroke-linecap="round" stroke-linejoin="round"/>
<path d="M74.6876 11.3745L74.1973 11.9858" stroke="black" stroke-width="0.5" stroke-linecap="round" stroke-linejoin="round"/>
<path d="M67.4901 18.9604L66.8594 19.7013" stroke="black" stroke-width="0.5" stroke-linecap="round" stroke-linejoin="round"/>
<path d="M71.5831 14.1501L67.9629 18.4053" stroke="black" stroke-width="0.5" stroke-linecap="round" stroke-linejoin="round"/>
<path d="M73.9222 26.3628L70.8398 30.199" stroke="black" stroke-width="0.5" stroke-linecap="round" stroke-linejoin="round"/>
<path d="M74.6876 25.4124L74.1973 26.0215" stroke="black" stroke-width="0.5" stroke-linecap="round" stroke-linejoin="round"/>
<path d="M67.4901 32.9961L66.8594 33.7391" stroke="black" stroke-width="0.5" stroke-linecap="round" stroke-linejoin="round"/>
<path d="M71.5831 28.188L67.9629 32.441" stroke="black" stroke-width="0.5" stroke-linecap="round" stroke-linejoin="round"/>
<path d="M62.2229 26.3628L59.1406 30.199" stroke="black" stroke-width="0.5" stroke-linecap="round" stroke-linejoin="round"/>
<path d="M62.9864 25.4124L62.4961 26.0215" stroke="black" stroke-width="0.5" stroke-linecap="round" stroke-linejoin="round"/>
<path d="M55.787 32.9961L55.1562 33.7391" stroke="black" stroke-width="0.5" stroke-linecap="round" stroke-linejoin="round"/>
<path d="M59.8799 28.188L56.2598 32.441" stroke="black" stroke-width="0.5" stroke-linecap="round" stroke-linejoin="round"/>
<path d="M61.4085 12.3271L58.3262 16.1633" stroke="black" stroke-width="0.5" stroke-linecap="round" stroke-linejoin="round"/>
<path d="M62.1739 11.3745L61.6836 11.9858" stroke="black" stroke-width="0.5" stroke-linecap="round" stroke-linejoin="round"/>
<path d="M54.9764 18.9604L54.3457 19.7013" stroke="black" stroke-width="0.5" stroke-linecap="round" stroke-linejoin="round"/>
<path d="M59.0694 14.1501L55.4492 18.4053" stroke="black" stroke-width="0.5" stroke-linecap="round" stroke-linejoin="round"/>
</g>
<path d="M21.9554 74.2435C21.9554 74.2435 19.5794 72.9281 19.4088 75.9132C19.2381 78.8983 18.791 98.2994 18.791 98.2994" stroke="#263238" stroke-width="0.5" stroke-miterlimit="10" stroke-linecap="round"/>
<path d="M18.1777 76.1746C18.1777 76.1746 20.1217 80.4773 19.234 98.0359" stroke="#263238" stroke-width="0.5" stroke-miterlimit="10" stroke-linecap="round"/>
<path d="M20.0873 74.844C20.0873 74.844 19.1801 75.425 18.6638 74.7619C18.1476 74.0987 19.0073 72.8784 18.2426 72.36C17.478 71.8416 16.1647 72.6343 16.1647 72.6343C16.1647 72.6343 17.1778 72.9302 17.1454 73.4853C17.113 74.0404 16.6226 74.2478 16.5578 74.0059C16.493 73.7639 16.0092 72.5457 15.1862 73.0512C14.9488 73.1918 14.7423 73.3792 14.5793 73.602C14.4163 73.8247 14.3002 74.0782 14.238 74.3472C14.238 74.3472 16.1539 74.1419 16.2706 74.8634C16.3872 75.5848 15.4843 74.736 14.6938 74.6906C13.9032 74.6452 13.1818 74.7597 13.2336 75.2392C13.2522 75.6618 13.2276 76.0852 13.1602 76.5028C13.5918 76.1444 14.137 75.9514 14.6981 75.9585C15.5621 76.0104 15.5362 76.5633 14.7456 76.518C13.955 76.4726 13.2768 77.2243 13.2768 77.2243C13.2768 77.2243 13.9961 78.4512 14.9033 79.056C15.8105 79.6608 16.1496 79.4469 16.2554 78.9782C16.3613 78.5095 16.1172 77.3042 16.6702 77.3366C17.2231 77.369 15.7543 79.4232 16.4542 79.5441C17.154 79.6651 17.7286 79.462 17.9143 78.9976L18.1001 78.5311C18.1001 78.5311 17.8538 77.328 17.9618 76.8571C18.0698 76.3862 18.1973 76.8722 18.3226 77.4338C18.4478 77.9954 18.5278 79.3497 18.7697 79.2849C19.0116 79.2201 19.7827 78.2352 19.9642 77.8485C20.1456 77.4619 18.9468 76.2825 18.9598 76.0449C18.9727 75.8073 19.8994 76.2609 20.0398 76.505C20.1444 76.6905 20.2389 76.8816 20.3227 77.0774C20.3227 77.0774 20.8994 76.7145 20.8865 75.6021C20.8735 74.4897 20.0873 74.844 20.0873 74.844Z" fill="#108E66"/>
<path opacity="0.3" d="M20.0873 74.844C20.0873 74.844 19.1801 75.425 18.6638 74.7619C18.1476 74.0987 19.0073 72.8784 18.2426 72.36C17.478 71.8416 16.1647 72.6343 16.1647 72.6343C16.1647 72.6343 17.1778 72.9302 17.1454 73.4853C17.113 74.0404 16.6226 74.2478 16.5578 74.0059C16.493 73.7639 16.0092 72.5457 15.1862 73.0512C14.9488 73.1918 14.7423 73.3792 14.5793 73.602C14.4163 73.8247 14.3002 74.0782 14.238 74.3472C14.238 74.3472 16.1539 74.1419 16.2706 74.8634C16.3872 75.5848 15.4843 74.736 14.6938 74.6906C13.9032 74.6452 13.1818 74.7597 13.2336 75.2392C13.2522 75.6618 13.2276 76.0852 13.1602 76.5028C13.5918 76.1444 14.137 75.9514 14.6981 75.9585C15.5621 76.0104 15.5362 76.5633 14.7456 76.518C13.955 76.4726 13.2768 77.2243 13.2768 77.2243C13.2768 77.2243 13.9961 78.4512 14.9033 79.056C15.8105 79.6608 16.1496 79.4469 16.2554 78.9782C16.3613 78.5095 16.1172 77.3042 16.6702 77.3366C17.2231 77.369 15.7543 79.4232 16.4542 79.5441C17.154 79.6651 17.7286 79.462 17.9143 78.9976L18.1001 78.5311C18.1001 78.5311 17.8538 77.328 17.9618 76.8571C18.0698 76.3862 18.1973 76.8722 18.3226 77.4338C18.4478 77.9954 18.5278 79.3497 18.7697 79.2849C19.0116 79.2201 19.7827 78.2352 19.9642 77.8485C20.1456 77.4619 18.9468 76.2825 18.9598 76.0449C18.9727 75.8073 19.8994 76.2609 20.0398 76.505C20.1444 76.6905 20.2389 76.8816 20.3227 77.0774C20.3227 77.0774 20.8994 76.7145 20.8865 75.6021C20.8735 74.4897 20.0873 74.844 20.0873 74.844Z" fill="#263238"/>
<path d="M15.4824 77.4512C16.0721 76.7189 16.9447 75.7232 17.6748 75.2588" stroke="#263238" stroke-width="0.5" stroke-miterlimit="10" stroke-linecap="round"/>
<path d="M14.7949 78.341C14.7949 78.341 14.9483 78.125 15.1924 77.8118" stroke="#263238" stroke-width="0.5" stroke-miterlimit="10" stroke-linecap="round"/>
<path d="M18.0586 75.4402C18.0586 75.4402 18.9377 76.6822 19.0997 77.9587" stroke="#263238" stroke-width="0.5" stroke-miterlimit="10" stroke-linecap="round"/>
<path d="M17.0645 76.1746C17.0645 76.1746 17.3107 76.0299 17.2178 77.611" stroke="#263238" stroke-width="0.5" stroke-miterlimit="10" stroke-linecap="round"/>
<path d="M17.7109 74.7057C17.7109 74.7057 18.2121 74.2586 17.9485 73.3708" stroke="#263238" stroke-width="0.5" stroke-miterlimit="10" stroke-linecap="round"/>
<path d="M17.0285 75.4575L16.6699 74.803" stroke="#263238" stroke-width="0.5" stroke-miterlimit="10" stroke-linecap="round"/>
<path d="M16.2749 76.127C16.2749 76.127 15.1366 75.263 14.4238 75.2241" stroke="#263238" stroke-width="0.5" stroke-miterlimit="10" stroke-linecap="round"/>
<path d="M23.3098 72.5025C23.3098 72.5025 23.2731 73.7985 22.2557 73.8698C21.2384 73.9411 20.6077 72.2368 19.5665 72.6451C18.5254 73.0533 18.4261 74.9131 18.4261 74.9131C18.4261 74.9131 19.4132 74.1009 19.9381 74.5113C20.4629 74.9217 20.3485 75.5524 20.0612 75.4509C19.7739 75.3494 18.2252 75.006 18.1712 76.1745C18.1496 76.5078 18.1959 76.842 18.3073 77.1568C18.4186 77.4717 18.5928 77.7607 18.8192 78.0062C18.8192 78.0062 19.9208 75.9499 20.72 76.3236C21.5192 76.6972 20.059 77.0256 19.4737 77.7837C18.8883 78.5419 18.5146 79.3454 19.0287 79.6197C19.4672 79.8927 19.8762 80.2105 20.2491 80.568C20.1846 79.8909 20.3638 79.213 20.7545 78.6564C21.4025 77.8204 21.9296 78.2244 21.3442 78.989C20.7589 79.7536 21.0505 80.933 21.0505 80.933C21.0505 80.933 22.7785 81.0518 24.0097 80.5507C25.2409 80.0496 25.2495 79.57 24.8521 79.1424C24.4546 78.7147 23.0809 78.1401 23.4913 77.6088C23.9017 77.0774 24.9579 79.948 25.5605 79.3238C26.1632 78.6996 26.3446 77.9911 26.0055 77.4878L25.6664 76.9845C25.6664 76.9845 24.2948 76.4121 23.8973 75.9844C23.4999 75.5568 24.0723 75.7555 24.7203 76.0147C25.3683 76.2739 26.7788 77.1141 26.8803 76.829C26.9818 76.5439 26.5196 75.101 26.2561 74.6539C25.9925 74.2068 23.9945 74.6042 23.7656 74.4379C23.5366 74.2716 24.6296 73.643 24.9644 73.6668C25.2216 73.6888 25.4776 73.7241 25.7312 73.7726C25.7312 73.7726 25.7614 72.9475 24.6382 72.2044C23.515 71.4614 23.3098 72.5025 23.3098 72.5025Z" fill="#108E66"/>
<path opacity="0.2" d="M23.3098 72.5025C23.3098 72.5025 23.2731 73.7985 22.2557 73.8698C21.2384 73.9411 20.6077 72.2368 19.5665 72.6451C18.5254 73.0533 18.4261 74.9131 18.4261 74.9131C18.4261 74.9131 19.4132 74.1009 19.9381 74.5113C20.4629 74.9217 20.3485 75.5524 20.0612 75.4509C19.7739 75.3494 18.2252 75.006 18.1712 76.1745C18.1496 76.5078 18.1959 76.842 18.3073 77.1568C18.4186 77.4717 18.5928 77.7607 18.8192 78.0062C18.8192 78.0062 19.9208 75.9499 20.72 76.3236C21.5192 76.6972 20.059 77.0256 19.4737 77.7837C18.8883 78.5419 18.5146 79.3454 19.0287 79.6197C19.4672 79.8927 19.8762 80.2105 20.2491 80.568C20.1846 79.8909 20.3638 79.213 20.7545 78.6564C21.4025 77.8204 21.9296 78.2244 21.3442 78.989C20.7589 79.7536 21.0505 80.933 21.0505 80.933C21.0505 80.933 22.7785 81.0518 24.0097 80.5507C25.2409 80.0496 25.2495 79.57 24.8521 79.1424C24.4546 78.7147 23.0809 78.1401 23.4913 77.6088C23.9017 77.0774 24.9579 79.948 25.5605 79.3238C26.1632 78.6996 26.3446 77.9911 26.0055 77.4878L25.6664 76.9845C25.6664 76.9845 24.2948 76.4121 23.8973 75.9844C23.4999 75.5568 24.0723 75.7555 24.7203 76.0147C25.3683 76.2739 26.7788 77.1141 26.8803 76.829C26.9818 76.5439 26.5196 75.101 26.2561 74.6539C25.9925 74.2068 23.9945 74.6042 23.7656 74.4379C23.5366 74.2716 24.6296 73.643 24.9644 73.6668C25.2216 73.6888 25.4776 73.7241 25.7312 73.7726C25.7312 73.7726 25.7614 72.9475 24.6382 72.2044C23.515 71.4614 23.3098 72.5025 23.3098 72.5025Z" fill="#263238"/>
<path d="M22.785 78.8809C22.4567 77.7901 22.0593 76.2436 22.0852 75.1917" stroke="#263238" stroke-width="0.5" stroke-miterlimit="10" stroke-linecap="round"/>
<path d="M23.2082 80.1727C23.2082 80.1727 23.1002 79.8768 22.9512 79.4146" stroke="#263238" stroke-width="0.5" stroke-miterlimit="10" stroke-linecap="round"/>
<path d="M22.5312 74.9282C22.5312 74.9282 24.3716 74.8958 25.7713 75.6043" stroke="#263238" stroke-width="0.5" stroke-miterlimit="10" stroke-linecap="round"/>
<path d="M22.5859 76.4251C22.5859 76.4251 22.6097 76.0795 24.1282 77.2502" stroke="#263238" stroke-width="0.5" stroke-miterlimit="10" stroke-linecap="round"/>
<path d="M21.5539 74.7812C21.5539 74.7812 21.4481 73.9734 20.3789 73.6343" stroke="#263238" stroke-width="0.5" stroke-miterlimit="10" stroke-linecap="round"/>
<path d="M21.846 75.9736L20.9453 75.885" stroke="#263238" stroke-width="0.5" stroke-miterlimit="10" stroke-linecap="round"/>
<path d="M22.0018 77.1853C22.0018 77.1853 20.3645 77.7383 19.8418 78.4208" stroke="#263238" stroke-width="0.5" stroke-miterlimit="10" stroke-linecap="round"/>
<path d="M12.3867 81.1792C12.3867 81.1792 17.5707 84.6028 17.4778 97.8587" stroke="#263238" stroke-width="0.5" stroke-miterlimit="10" stroke-linecap="round"/>
<path d="M18.7714 80.2742C18.7714 80.2742 18.6073 81.7754 17.4279 81.7538C16.2485 81.7322 15.6805 79.7039 14.4406 80.0862C13.2008 80.4686 12.9092 82.594 12.9092 82.594C12.9092 82.594 14.1253 81.7516 14.702 82.2743C15.2787 82.797 15.0735 83.5142 14.7538 83.3716C14.4341 83.229 12.6759 82.6847 12.5053 84.0196C12.4488 84.402 12.4705 84.7919 12.5688 85.1658C12.6672 85.5396 12.8403 85.8896 13.0777 86.1947C13.0777 86.1947 14.5443 83.9246 15.4321 84.4322C16.3198 84.9398 14.6026 85.1795 13.8553 86.0003C13.1079 86.8211 12.6003 87.7175 13.1749 88.0847C13.6519 88.4374 14.0919 88.8376 14.4881 89.2792C14.4881 89.2792 14.4277 88.0242 15.2506 87.1192C16.0736 86.2142 16.6481 86.739 15.8986 87.5512C15.1491 88.3634 15.3737 89.7782 15.3737 89.7782C15.3737 89.7782 17.3523 90.0762 18.8297 89.614C20.3072 89.1518 20.3417 88.5988 19.9357 88.0696C19.5296 87.5404 17.9917 86.7455 18.5101 86.171C19.0285 85.5964 19.9789 89.0092 20.7349 88.3461C21.4909 87.683 21.7652 86.8816 21.4217 86.2703L21.0783 85.6569C21.0783 85.6569 19.549 84.8642 19.1343 84.335C18.7196 83.8058 19.3503 84.0887 20.0825 84.4473C20.8148 84.8058 22.3527 85.9118 22.4953 85.5899C22.6378 85.2681 22.2404 83.5595 21.9812 83.0217C21.722 82.4838 19.3741 82.7517 19.1278 82.527C18.8816 82.3024 20.1884 81.6911 20.5837 81.7516C20.8784 81.8014 21.1704 81.8663 21.4585 81.946C21.4585 81.946 21.5708 80.9978 20.3461 80.0344C19.1213 79.071 18.7714 80.2742 18.7714 80.2742Z" fill="#108E66"/>
<path opacity="0.3" d="M18.7714 80.2742C18.7714 80.2742 18.6073 81.7754 17.4279 81.7538C16.2485 81.7322 15.6805 79.7039 14.4406 80.0862C13.2008 80.4686 12.9092 82.594 12.9092 82.594C12.9092 82.594 14.1253 81.7516 14.702 82.2743C15.2787 82.797 15.0735 83.5142 14.7538 83.3716C14.4341 83.229 12.6759 82.6847 12.5053 84.0196C12.4488 84.402 12.4705 84.7919 12.5688 85.1658C12.6672 85.5396 12.8403 85.8896 13.0777 86.1947C13.0777 86.1947 14.5443 83.9246 15.4321 84.4322C16.3198 84.9398 14.6026 85.1795 13.8553 86.0003C13.1079 86.8211 12.6003 87.7175 13.1749 88.0847C13.6519 88.4374 14.0919 88.8376 14.4881 89.2792C14.4881 89.2792 14.4277 88.0242 15.2506 87.1192C16.0736 86.2142 16.6481 86.739 15.8986 87.5512C15.1491 88.3634 15.3737 89.7782 15.3737 89.7782C15.3737 89.7782 17.3523 90.0762 18.8297 89.614C20.3072 89.1518 20.3417 88.5988 19.9357 88.0696C19.5296 87.5404 17.9917 86.7455 18.5101 86.171C19.0285 85.5964 19.9789 89.0092 20.7349 88.3461C21.4909 87.683 21.7652 86.8816 21.4217 86.2703L21.0783 85.6569C21.0783 85.6569 19.549 84.8642 19.1343 84.335C18.7196 83.8058 19.3503 84.0887 20.0825 84.4473C20.8148 84.8058 22.3527 85.9118 22.4953 85.5899C22.6378 85.2681 22.2404 83.5595 21.9812 83.0217C21.722 82.4838 19.3741 82.7517 19.1278 82.527C18.8816 82.3024 20.1884 81.6911 20.5837 81.7516C20.8784 81.8014 21.1704 81.8663 21.4585 81.946C21.4585 81.946 21.5708 80.9978 20.3461 80.0344C19.1213 79.071 18.7714 80.2742 18.7714 80.2742Z" fill="#263238"/>
<path d="M17.5644 87.5859C17.2879 86.2899 16.9769 84.4733 17.1065 83.2659" stroke="#263238" stroke-width="0.5" stroke-miterlimit="10" stroke-linecap="round"/>
<path d="M17.9269 89.1173C17.9269 89.1173 17.8319 88.7652 17.7109 88.2188" stroke="#263238" stroke-width="0.5" stroke-miterlimit="10" stroke-linecap="round"/>
<path d="M17.6445 83.0002C17.6445 83.0002 19.7721 83.1363 21.3165 84.0802" stroke="#263238" stroke-width="0.5" stroke-miterlimit="10" stroke-linecap="round"/>
<path d="M17.5684 84.7324C17.5684 84.7324 17.6267 84.3371 19.2704 85.8318" stroke="#263238" stroke-width="0.5" stroke-miterlimit="10" stroke-linecap="round"/>
<path d="M16.5317 82.7387C16.5317 82.7387 16.4863 81.7969 15.2832 81.3044" stroke="#263238" stroke-width="0.5" stroke-miterlimit="10" stroke-linecap="round"/>
<path d="M16.7549 84.1428L15.7246 83.9548" stroke="#263238" stroke-width="0.5" stroke-miterlimit="10" stroke-linecap="round"/>
<path d="M16.8228 85.5532C16.8228 85.5532 14.8788 86.0392 14.207 86.7779" stroke="#263238" stroke-width="0.5" stroke-miterlimit="10" stroke-linecap="round"/>
<path d="M14.4062 91.6273C14.4062 91.6273 17.7413 94.1761 18.0934 97.9474L17.3892 85.3049" stroke="#263238" stroke-width="0.5" stroke-miterlimit="10" stroke-linecap="round"/>
<path d="M22.4829 89.7826C18.0938 88.992 18.0938 97.9474 18.0938 97.9474" stroke="#263238" stroke-width="0.5" stroke-miterlimit="10" stroke-linecap="round"/>
<path d="M18.6195 97.8587C18.6195 97.8587 16.0751 79.3367 23.4493 79.3367" stroke="#263238" stroke-width="0.5" stroke-miterlimit="10" stroke-linecap="round"/>
<path d="M20.8101 89.2511C20.2118 88.575 18.9374 88.575 18.1879 90.3008C17.4384 92.0267 18.1123 91.7243 18.1123 91.7243C18.1123 91.7243 19.5379 91.275 20.4365 90.9747C21.335 90.6745 22.5338 89.925 22.6094 90.3743C22.685 90.8235 22.0111 91.275 21.186 91.424C20.3609 91.5731 18.1879 92.1735 18.4125 92.6228C18.6372 93.0721 19.1621 94.4221 19.1621 94.4221C19.8033 93.8788 20.4793 93.378 21.186 92.9231C22.1601 92.3226 22.7606 92.5472 22.2357 93.2233C21.7109 93.8994 20.2118 94.6467 20.5077 95.5453C20.8037 96.4439 22.6051 97.5692 22.6051 97.5692C22.6051 97.5692 22.8211 95.6965 23.3546 95.096C23.8881 94.4955 23.8795 95.1716 23.7305 96.2214C23.6548 96.6675 23.6043 97.1175 23.5793 97.5692L25.6788 98.3187C26.022 97.7964 26.3971 97.2958 26.802 96.8197L27.1778 96.446C27.1778 96.446 25.5276 95.0226 25.4498 94.1219C25.3721 93.2211 26.573 94.1219 26.9489 94.2731C27.3247 94.4243 27.923 95.4719 27.923 95.4719C27.923 95.4719 28.2967 93.7439 28.3723 93.1477L28.4479 92.5472C28.4479 92.5472 26.8733 91.9489 26.2728 91.9489C25.6723 91.9489 25.3742 92.3982 25.3742 91.7977C25.3742 91.1972 25.9747 90.8235 26.6486 90.8991C27.2592 91.0016 27.8608 91.1518 28.4479 91.3484C28.4479 91.3484 28.8972 90.9747 28.746 89.8494C28.5948 88.724 28.2233 88.7262 27.3225 89.0264C26.4218 89.3267 25.8235 90.0006 25.1496 90.0006C24.4757 90.0006 24.8493 89.1755 25.2986 88.9508C25.7479 88.7262 26.8733 88.2769 27.0979 88.2013C27.3225 88.1257 25.8991 87.0759 25.1539 86.9269C24.4087 86.7779 23.4259 87.3049 23.5058 88.0523C23.6592 89.6247 21.4106 89.925 20.8101 89.2511Z" fill="#108E66"/>
<path d="M25.6348 96.9668C25.6564 97.1936 25.6736 97.4204 25.6823 97.645" stroke="#263238" stroke-width="0.5" stroke-miterlimit="10" stroke-linecap="round"/>
<path d="M24.1289 91.584C24.787 93.0693 25.2607 94.6296 25.5394 96.2301" stroke="#263238" stroke-width="0.5" stroke-miterlimit="10" stroke-linecap="round"/>
<path d="M23.8589 90.9857C23.4874 90.1865 23.2109 89.6897 23.2109 89.6897C23.6195 89.4962 23.9593 89.1827 24.1851 88.7911C24.3602 88.4358 24.617 88.1271 24.9346 87.8904" stroke="#263238" stroke-width="0.5" stroke-miterlimit="10" stroke-linecap="round"/>
<path d="M20.584 92.2492C20.584 92.2492 23.2818 91.1239 23.2818 91.3485" stroke="#263238" stroke-width="0.5" stroke-miterlimit="10" stroke-linecap="round"/>
<path d="M24.7812 90.8237C24.7812 90.8237 25.9822 90.2253 27.0298 90.2253" stroke="#263238" stroke-width="0.5" stroke-miterlimit="10" stroke-linecap="round"/>
<path d="M24.3326 92.6228C23.8133 93.0503 23.3366 93.527 22.9091 94.0462C22.471 94.5638 22.1167 95.1469 21.8594 95.7742" stroke="#263238" stroke-width="0.5" stroke-miterlimit="10" stroke-linecap="round"/>
<path d="M25.1582 92.9231C25.1582 92.9231 26.7328 92.4738 27.5558 93.2233" stroke="#263238" stroke-width="0.5" stroke-miterlimit="10" stroke-linecap="round"/>
<path d="M28.0085 82.7949C27.192 82.3133 26.2805 82.3025 25.8485 81.7927C25.4165 81.283 26.2805 81.0259 26.7384 81.2182C27.1964 81.4104 28.2785 81.9655 28.4837 82.0821C28.6889 82.1988 28.5464 80.4384 28.1684 79.7753C27.7904 79.1121 26.7557 78.7233 26.2373 79.2655C25.1573 80.4125 23.4466 78.9091 23.5632 78.0149C23.6799 77.1206 22.8439 76.1573 21.0511 76.7189C19.2583 77.2805 19.928 77.5958 19.928 77.5958C19.928 77.5958 21.2002 78.3777 22.0167 78.8594C22.8331 79.3411 24.1767 79.7558 23.8937 80.1079C23.6108 80.46 22.8137 80.244 22.1657 79.7213C21.5177 79.1985 19.6364 77.9544 19.4398 78.4188C19.2432 78.8832 18.5758 80.1641 18.5758 80.1641C19.4063 80.2917 20.2275 80.4743 21.0339 80.7105C22.1139 81.0518 22.3493 81.6523 21.4961 81.6998C20.6429 81.7473 19.0942 81.1037 18.6104 81.9158C18.1265 82.728 18.4591 84.8275 18.4591 84.8275C18.4591 84.8275 20.0208 83.7691 20.8179 83.7713C21.6149 83.7734 21.1051 84.2162 20.2152 84.7908C19.8284 85.0279 19.4549 85.286 19.0964 85.5641L19.9064 87.6398C20.5264 87.5553 21.1512 87.5106 21.7769 87.5059L22.304 87.5426C22.304 87.5426 22.304 85.3632 22.9282 84.7173C23.5524 84.0715 23.6669 85.5662 23.7922 85.9485C23.9175 86.3309 23.5244 87.4605 23.5244 87.4605C23.5244 87.4605 25.0731 86.6138 25.5742 86.2769L26.0775 85.9421C26.0775 85.9421 25.4964 84.3588 25.1033 83.9073C24.7102 83.4559 24.1745 83.5229 24.6281 83.1297C25.0817 82.7366 25.7578 82.944 26.1401 83.5013C26.4711 84.0331 26.7585 84.5907 26.9998 85.1688C26.9998 85.1688 27.5765 85.2617 28.3282 84.4128C29.0799 83.5639 28.825 83.2788 28.0085 82.7949ZM20.9151 85.1947C20.3146 84.8945 21.7402 84.2962 21.7402 84.2962C22.2651 84.2206 21.5156 85.495 20.9151 85.1947ZM21.9238 82.3975C21.6689 82.2701 22.4357 82.013 22.4357 82.013C23.5438 82.2269 22.1808 82.5249 21.9238 82.3975Z" fill="#108E66"/>
<path d="M20.8996 86.7217C20.7441 86.8858 20.5821 87.0457 20.418 87.2012" stroke="#263238" stroke-width="0.5" stroke-miterlimit="10" stroke-linecap="round"/>
<path d="M23.9748 82.0583C23.2822 83.5274 22.4117 84.9057 21.3828 86.1623" stroke="#263238" stroke-width="0.5" stroke-miterlimit="10" stroke-linecap="round"/>
<path d="M24.252 81.4601C24.6235 80.6544 24.7963 80.136 24.7963 80.136C25.2102 80.3184 25.67 80.3696 26.1139 80.2829C26.4967 80.1825 26.898 80.1744 27.2846 80.2591" stroke="#263238" stroke-width="0.5" stroke-miterlimit="10" stroke-linecap="round"/>
<path d="M21.1523 79.8142C21.1523 79.8142 23.7703 81.1102 23.5996 81.2636" stroke="#263238" stroke-width="0.5" stroke-miterlimit="10" stroke-linecap="round"/>
<path d="M24.9805 82.052C24.9805 82.052 26.2181 82.5639 26.9072 83.348" stroke="#263238" stroke-width="0.5" stroke-miterlimit="10" stroke-linecap="round"/>
<path d="M23.3282 82.89C22.6647 82.7786 21.992 82.7316 21.3194 82.7496C20.6428 82.7574 19.9715 82.8711 19.3301 83.0866" stroke="#263238" stroke-width="0.5" stroke-miterlimit="10" stroke-linecap="round"/>
<path d="M23.6406 83.7085C23.6406 83.7085 25.0122 84.6027 24.9863 85.7173" stroke="#263238" stroke-width="0.5" stroke-miterlimit="10" stroke-linecap="round"/>
<path d="M16.3619 93.1802C15.7139 92.7936 14.9795 92.785 14.6339 92.3746C14.2883 91.9642 14.9774 91.7568 15.3511 91.9123C15.7247 92.0678 16.5909 92.5128 16.7551 92.61C16.9192 92.7072 16.8047 91.2881 16.5023 90.7524C16.1999 90.2167 15.364 89.9078 14.9493 90.3442C14.0702 91.2665 12.7029 90.0569 12.7893 89.3376C12.8757 88.6183 12.2104 87.8429 10.7675 88.2965C9.32466 88.7501 9.8625 89.0028 9.8625 89.0028C9.8625 89.0028 10.8885 89.6314 11.5451 90.018C12.2018 90.4046 13.2883 90.7416 13.0571 91.0246C12.826 91.3075 12.1931 91.1326 11.6683 90.7114C11.1434 90.2902 9.63138 89.2858 9.47586 89.6594C9.32034 90.0331 8.77818 91.0634 8.77818 91.0634C9.44639 91.1643 10.1073 91.3086 10.7567 91.4954C11.6359 91.7719 11.8151 92.2558 11.1283 92.2925C10.4414 92.3292 9.18426 91.813 8.80842 92.4696C8.43258 93.1262 8.67882 94.824 8.67882 94.824C8.67882 94.824 9.93594 93.96 10.5839 93.9708C11.2319 93.9816 10.8151 94.3294 10.0979 94.7916C9.78709 94.9813 9.4871 95.1883 9.19938 95.4115L9.84738 97.0812C10.3487 97.0143 10.8537 96.9789 11.3594 96.9754L11.7914 97.0056C11.7914 97.0056 11.7914 95.2517 12.2947 94.7311C12.7979 94.2106 12.8865 95.4137 12.9923 95.7204C13.0982 96.0271 12.7763 96.9451 12.7763 96.9451C12.7763 96.9451 14.0227 96.2647 14.4266 95.9926L14.8305 95.7226C14.8305 95.7226 14.3639 94.4503 14.0464 94.0853C13.7289 93.7202 13.2991 93.7764 13.6641 93.4589C14.0291 93.1414 14.5713 93.3098 14.8823 93.7591C15.1406 94.1841 15.3645 94.629 15.5519 95.0897C15.5519 95.0897 16.0163 95.1653 16.6319 94.4806C17.2475 93.7958 17.0186 93.569 16.3619 93.1802ZM10.6531 95.1113C10.1714 94.8715 11.3183 94.392 11.3183 94.392C11.7395 94.3272 11.1369 95.3532 10.6531 95.1113ZM11.4674 92.8606C11.2514 92.7569 11.8778 92.5517 11.8778 92.5517C12.7699 92.7223 11.6639 92.9621 11.4674 92.8606Z" fill="#108E66"/>
<path d="M10.6405 96.3359C10.5153 96.4677 10.3878 96.5973 10.2539 96.7226" stroke="#263238" stroke-width="0.5" stroke-miterlimit="10" stroke-linecap="round"/>
<path d="M13.115 92.5862C12.5621 93.7737 11.8641 94.8881 11.0371 95.9039" stroke="#263238" stroke-width="0.5" stroke-miterlimit="10" stroke-linecap="round"/>
<path d="M13.3398 92.1044C13.6293 91.4564 13.7718 91.0244 13.7718 91.0244C14.105 91.1712 14.475 91.2126 14.8324 91.1432C15.1411 91.0625 15.4645 91.0558 15.7763 91.1238" stroke="#263238" stroke-width="0.5" stroke-miterlimit="10" stroke-linecap="round"/>
<path d="M10.8457 90.7827C10.8457 90.7827 12.9517 91.8282 12.8156 91.947" stroke="#263238" stroke-width="0.5" stroke-miterlimit="10" stroke-linecap="round"/>
<path d="M13.9258 92.5818C13.9258 92.5818 14.9215 92.9944 15.4745 93.6316" stroke="#263238" stroke-width="0.5" stroke-miterlimit="10" stroke-linecap="round"/>
<path d="M12.5954 93.2579C12.0611 93.1671 11.5192 93.1288 10.9775 93.1434C10.433 93.1498 9.89293 93.2416 9.37695 93.4156" stroke="#263238" stroke-width="0.5" stroke-miterlimit="10" stroke-linecap="round"/>
<path d="M12.8477 93.9167C12.8477 93.9167 13.9514 94.636 13.9277 95.5324" stroke="#263238" stroke-width="0.5" stroke-miterlimit="10" stroke-linecap="round"/>
<path d="M13.6834 80.8056C13.6834 80.8056 12.8604 81.4039 12.3355 80.8056C11.8106 80.2073 12.5515 79.0063 11.8106 78.557C11.0698 78.1078 9.86664 78.9307 9.86664 78.9307C9.86664 78.9307 10.8408 79.1467 10.8408 79.6802C10.8408 80.2138 10.3915 80.4298 10.3159 80.2051C10.2403 79.9805 9.71544 78.8551 8.96592 79.38C8.74956 79.5256 8.56504 79.7136 8.42357 79.9327C8.2821 80.1518 8.18663 80.3973 8.14296 80.6544C8.14296 80.6544 9.94008 80.3542 10.087 81.0302C10.2338 81.7063 9.33744 80.9546 8.58792 80.9546C7.8384 80.9546 7.16448 81.1037 7.23792 81.5551C7.27896 81.9537 7.27896 82.3554 7.23792 82.7539C7.62621 82.39 8.13187 82.177 8.66352 82.1534C9.48648 82.1534 9.48648 82.6783 8.73696 82.6783C7.98744 82.6783 7.38912 83.4278 7.38912 83.4278C7.38912 83.4278 8.13864 84.551 9.0372 85.0759C9.93576 85.6008 10.236 85.3762 10.3116 84.9269C10.3872 84.4776 10.0956 83.3522 10.6118 83.3522C11.1281 83.3522 9.86232 85.3761 10.5362 85.4517C11.2102 85.5273 11.735 85.3027 11.8862 84.8513L12.0353 84.402C12.0353 84.402 11.735 83.2788 11.8193 82.8274C11.9035 82.3759 12.0353 82.8274 12.193 83.3522C12.3506 83.8771 12.4932 85.1515 12.7178 85.0802C12.9425 85.009 13.6078 84.024 13.759 83.6525C13.9102 83.281 12.7092 82.229 12.7092 82.0044C12.7092 81.7798 13.6099 82.1534 13.759 82.3781C13.908 82.6027 14.0592 82.903 14.0592 82.903C14.0592 82.903 14.5841 82.5293 14.5085 81.4795C14.4329 80.4298 13.6834 80.8056 13.6834 80.8056Z" fill="#108E66"/>
<path d="M9.48633 83.5229C10.0026 82.7993 10.7715 81.8165 11.4303 81.3284" stroke="#263238" stroke-width="0.5" stroke-miterlimit="10" stroke-linecap="round"/>
<path d="M8.88867 84.4019C8.88867 84.4019 9.02043 84.1859 9.23427 83.8813" stroke="#263238" stroke-width="0.5" stroke-miterlimit="10" stroke-linecap="round"/>
<path d="M11.8105 81.4795C11.8105 81.4795 12.7091 82.6027 12.9337 83.8037" stroke="#263238" stroke-width="0.5" stroke-miterlimit="10" stroke-linecap="round"/>
<path d="M10.9121 82.2291C10.9121 82.2291 11.1281 82.0779 11.1281 83.577" stroke="#263238" stroke-width="0.5" stroke-miterlimit="10" stroke-linecap="round"/>
<path d="M11.4355 80.8056C11.4355 80.8056 11.887 80.3542 11.5867 79.5312" stroke="#263238" stroke-width="0.5" stroke-miterlimit="10" stroke-linecap="round"/>
<path d="M10.8368 81.5551L10.4609 80.9546" stroke="#263238" stroke-width="0.5" stroke-miterlimit="10" stroke-linecap="round"/>
<path d="M10.1626 82.229C10.1626 82.229 9.0372 81.4795 8.36328 81.4795" stroke="#263238" stroke-width="0.5" stroke-miterlimit="10" stroke-linecap="round"/>
<path d="M21.2521 97.5974H15.459V100.656H21.2521V97.5974Z" fill="#263238" stroke="#263238" stroke-width="0.5" stroke-miterlimit="10" stroke-linecap="round"/>
<path opacity="0.2" d="M69.1725 6.35034H14.477C13.2244 6.35034 12.209 7.36576 12.209 8.61834V74.9066C12.209 76.1592 13.2244 77.1746 14.477 77.1746H69.1725C70.4251 77.1746 71.4405 76.1592 71.4405 74.9066V8.61834C71.4405 7.36576 70.4251 6.35034 69.1725 6.35034Z" fill="black"/>
<path d="M67.444 5.05444H12.7485C11.4959 5.05444 10.4805 6.06986 10.4805 7.32244V73.6107C10.4805 74.8633 11.4959 75.8787 12.7485 75.8787H67.444C68.6966 75.8787 69.712 74.8633 69.712 73.6107V7.32244C69.712 6.06986 68.6966 5.05444 67.444 5.05444Z" fill="#E3E3E3" stroke="#263238" stroke-width="0.5" stroke-linecap="round" stroke-linejoin="round"/>
<path d="M61.0584 5.05444H16.9102V75.8787H61.0584V5.05444Z" fill="white" stroke="#263238" stroke-width="0.5" stroke-linecap="round" stroke-linejoin="round"/>
<path d="M67.7461 5.2207V76.0169C68.2872 75.9568 68.7872 75.6992 69.1502 75.2935C69.5133 74.8878 69.714 74.3624 69.7139 73.818V7.41958C69.7135 6.87527 69.5127 6.35016 69.1497 5.94454C68.7867 5.53893 68.287 5.28124 67.7461 5.2207Z" fill="#B2B2B2" stroke="#263238" stroke-width="0.5" stroke-linecap="round" stroke-linejoin="round"/>
<path d="M69.7139 32.6787H67.7461V43.7811H69.7139V32.6787Z" fill="#808080" stroke="#263238" stroke-width="0.5" stroke-linecap="round" stroke-linejoin="round"/>
<path d="M69.7141 14.3532V7.4196C69.7141 7.12896 69.6569 6.84116 69.5456 6.57267C69.4343 6.30418 69.2712 6.06025 69.0656 5.85483C68.8599 5.64942 68.6158 5.48654 68.3472 5.37551C68.0786 5.26448 67.7908 5.20748 67.5001 5.20776H12.6945C12.4038 5.20748 12.116 5.26448 11.8474 5.37551C11.5788 5.48654 11.3347 5.64942 11.1291 5.85483C10.9234 6.06025 10.7603 6.30418 10.649 6.57267C10.5378 6.84116 10.4805 7.12896 10.4805 7.4196V14.3532H69.7141Z" fill="#B2B2B2" stroke="#263238" stroke-width="0.5" stroke-linecap="round" stroke-linejoin="round"/>
<path d="M38.9312 8.79126H13.7305V10.4674H38.9312V8.79126Z" fill="white" stroke="#263238" stroke-width="0.5" stroke-linecap="round" stroke-linejoin="round"/>
<path d="M69.712 11.3682H10.4805V14.3533H69.712V11.3682Z" fill="#263238" stroke="#263238" stroke-width="0.5" stroke-linecap="round" stroke-linejoin="round"/>
<path d="M11.8535 12.1436H13.3936" stroke="white" stroke-width="0.5" stroke-linecap="round" stroke-linejoin="round"/>
<path d="M11.8535 12.8132H13.3936" stroke="white" stroke-width="0.5" stroke-linecap="round" stroke-linejoin="round"/>
<path d="M11.8535 13.4827H13.3936" stroke="white" stroke-width="0.5" stroke-linecap="round" stroke-linejoin="round"/>
<path d="M19.8223 12.1155V13.8564" stroke="white" stroke-width="0.5" stroke-linecap="round" stroke-linejoin="round"/>
<path d="M28.9004 12.1155V13.8564" stroke="white" stroke-width="0.5" stroke-linecap="round" stroke-linejoin="round"/>
<path d="M37.9785 12.1155V13.8564" stroke="white" stroke-width="0.5" stroke-linecap="round" stroke-linejoin="round"/>
<path d="M47.0566 12.1155V13.8564" stroke="white" stroke-width="0.5" stroke-linecap="round" stroke-linejoin="round"/>
<path d="M56.1348 12.1155V13.8564" stroke="white" stroke-width="0.5" stroke-linecap="round" stroke-linejoin="round"/>
<path d="M69.7141 7.7868V7.4196C69.7141 7.12896 69.6569 6.84116 69.5456 6.57267C69.4343 6.30418 69.2712 6.06025 69.0656 5.85483C68.8599 5.64942 68.6158 5.48654 68.3472 5.37551C68.0786 5.26448 67.7908 5.20748 67.5001 5.20776H12.6945C12.4038 5.20748 12.116 5.26448 11.8474 5.37551C11.5788 5.48654 11.3347 5.64942 11.1291 5.85483C10.9234 6.06025 10.7603 6.30418 10.649 6.57267C10.5378 6.84116 10.4805 7.12896 10.4805 7.4196V7.7868H69.7141Z" fill="#263238" stroke="#263238" stroke-width="0.5" stroke-linecap="round" stroke-linejoin="round"/>
<path d="M61.243 7.16469C61.608 7.16469 61.904 6.86877 61.904 6.50373C61.904 6.1387 61.608 5.84277 61.243 5.84277C60.878 5.84277 60.582 6.1387 60.582 6.50373C60.582 6.86877 60.878 7.16469 61.243 7.16469Z" fill="white" stroke="#263238" stroke-width="0.5" stroke-linecap="round" stroke-linejoin="round"/>
<path d="M63.327 7.16469C63.692 7.16469 63.9879 6.86877 63.9879 6.50373C63.9879 6.1387 63.692 5.84277 63.327 5.84277C62.9619 5.84277 62.666 6.1387 62.666 6.50373C62.666 6.86877 62.9619 7.16469 63.327 7.16469Z" fill="white" stroke="#263238" stroke-width="0.5" stroke-linecap="round" stroke-linejoin="round"/>
<path d="M66.0719 6.50373C66.0719 6.37301 66.0332 6.24522 65.9605 6.13652C65.8879 6.02783 65.7847 5.94311 65.6639 5.89309C65.5431 5.84306 65.4102 5.82997 65.282 5.85547C65.1538 5.88098 65.036 5.94393 64.9436 6.03636C64.8512 6.1288 64.7882 6.24657 64.7627 6.37479C64.7372 6.503 64.7503 6.6359 64.8003 6.75667C64.8503 6.87745 64.9351 6.98067 65.0437 7.0533C65.1524 7.12593 65.2802 7.16469 65.411 7.16469C65.5863 7.16469 65.7544 7.09506 65.8783 6.9711C66.0023 6.84715 66.0719 6.67903 66.0719 6.50373Z" fill="white" stroke="#263238" stroke-width="0.5" stroke-linecap="round" stroke-linejoin="round"/>
<path d="M10.4805 71.7466V73.818C10.4805 74.4052 10.7137 74.9683 11.1289 75.3836C11.5441 75.7988 12.1073 76.032 12.6945 76.032H67.5001C68.0873 76.032 68.6505 75.7988 69.0657 75.3836C69.4809 74.9683 69.7141 74.4052 69.7141 73.818V71.7466H10.4805Z" fill="#B2B2B2" stroke="#263238" stroke-width="0.5" stroke-linecap="round" stroke-linejoin="round"/>
<path d="M54.0212 20.4255H21.1914V38.8287H54.0212V20.4255Z" fill="#108E66" stroke="#263238" stroke-width="0.5" stroke-linecap="round" stroke-linejoin="round"/>
<path d="M54.0191 30.7483L46.6837 26.0222L39.2209 33.4829L33.998 27.3895L21.537 38.6215L21.1914 38.831H54.0191V30.7483Z" fill="white" stroke="#263238" stroke-width="0.5" stroke-linecap="round" stroke-linejoin="round"/>
<path d="M26.2892 27.2656C27.7314 27.2656 28.9006 26.0964 28.9006 24.6542C28.9006 23.2119 27.7314 22.0427 26.2892 22.0427C24.8469 22.0427 23.6777 23.2119 23.6777 24.6542C23.6777 26.0964 24.8469 27.2656 26.2892 27.2656Z" fill="white" stroke="#263238" stroke-width="0.5" stroke-linecap="round" stroke-linejoin="round"/>
<path d="M21.3145 40.073H53.8959" stroke="#263238" stroke-width="0.5" stroke-miterlimit="10"/>
<path d="M21.3145 41.5652H40.8387" stroke="#263238" stroke-width="0.5" stroke-miterlimit="10"/>
<path d="M49.834 44.3582H54.0201" stroke="#263238" stroke-width="0.5" stroke-miterlimit="10"/>
<path d="M44.8516 44.3582H49.3487" stroke="#263238" stroke-width="0.5" stroke-miterlimit="10"/>
<path d="M43.0625 44.3582H44.3693" stroke="#263238" stroke-width="0.5" stroke-miterlimit="10"/>
<path d="M36.918 44.3582H42.7219" stroke="#263238" stroke-width="0.5" stroke-miterlimit="10"/>
<path d="M29.3711 44.3582H36.2896" stroke="#263238" stroke-width="0.5" stroke-miterlimit="10"/>
<path d="M23.8574 44.3582H28.6461" stroke="#263238" stroke-width="0.5" stroke-miterlimit="10"/>
<path d="M21.2383 44.3582H23.2298" stroke="#263238" stroke-width="0.5" stroke-miterlimit="10"/>
<path d="M25.4244 46.0886H21.2383" stroke="#263238" stroke-width="0.5" stroke-miterlimit="10"/>
<path d="M30.4055 46.0886H25.9062" stroke="#263238" stroke-width="0.5" stroke-miterlimit="10"/>
<path d="M32.1974 46.0886H30.8906" stroke="#263238" stroke-width="0.5" stroke-miterlimit="10"/>
<path d="M38.3412 46.0886H32.5352" stroke="#263238" stroke-width="0.5" stroke-miterlimit="10"/>
<path d="M45.8851 46.0886H38.9688" stroke="#263238" stroke-width="0.5" stroke-miterlimit="10"/>
<path d="M51.4001 46.0886H46.6113" stroke="#263238" stroke-width="0.5" stroke-miterlimit="10"/>
<path d="M54.0189 46.0886H52.0273" stroke="#263238" stroke-width="0.5" stroke-miterlimit="10"/>
<path d="M49.834 47.7429H54.0201" stroke="#263238" stroke-width="0.5" stroke-miterlimit="10"/>
<path d="M44.8516 47.7429H49.3487" stroke="#263238" stroke-width="0.5" stroke-miterlimit="10"/>
<path d="M43.0625 47.7429H44.3693" stroke="#263238" stroke-width="0.5" stroke-miterlimit="10"/>
<path d="M36.918 47.7429H42.7219" stroke="#263238" stroke-width="0.5" stroke-miterlimit="10"/>
<path d="M29.3711 47.7429H36.2896" stroke="#263238" stroke-width="0.5" stroke-miterlimit="10"/>
<path d="M23.8574 47.7429H28.6461" stroke="#263238" stroke-width="0.5" stroke-miterlimit="10"/>
<path d="M21.2383 47.7429H23.2298" stroke="#263238" stroke-width="0.5" stroke-miterlimit="10"/>
<path d="M25.4244 49.4734H21.2383" stroke="#263238" stroke-width="0.5" stroke-miterlimit="10"/>
<path d="M30.4055 49.4734H25.9062" stroke="#263238" stroke-width="0.5" stroke-miterlimit="10"/>
<path d="M32.1974 49.4734H30.8906" stroke="#263238" stroke-width="0.5" stroke-miterlimit="10"/>
<path d="M38.3412 49.4734H32.5352" stroke="#263238" stroke-width="0.5" stroke-miterlimit="10"/>
<path d="M45.8851 49.4734H38.9688" stroke="#263238" stroke-width="0.5" stroke-miterlimit="10"/>
<path d="M51.4001 49.4734H46.6113" stroke="#263238" stroke-width="0.5" stroke-miterlimit="10"/>
<path d="M54.0189 49.4734H52.0273" stroke="#263238" stroke-width="0.5" stroke-miterlimit="10"/>
<path d="M49.834 51.1277H54.0201" stroke="#263238" stroke-width="0.5" stroke-miterlimit="10"/>
<path d="M44.8516 51.1277H49.3487" stroke="#263238" stroke-width="0.5" stroke-miterlimit="10"/>
<path d="M43.0625 51.1277H44.3693" stroke="#263238" stroke-width="0.5" stroke-miterlimit="10"/>
<path d="M36.918 51.1277H42.7219" stroke="#263238" stroke-width="0.5" stroke-miterlimit="10"/>
<path d="M29.3711 51.1277H36.2896" stroke="#263238" stroke-width="0.5" stroke-miterlimit="10"/>
<path d="M23.8574 51.1277H28.6461" stroke="#263238" stroke-width="0.5" stroke-miterlimit="10"/>
<path d="M21.2383 51.1277H23.2298" stroke="#263238" stroke-width="0.5" stroke-miterlimit="10"/>
<path d="M25.4244 52.8582H21.2383" stroke="#263238" stroke-width="0.5" stroke-miterlimit="10"/>
<path d="M30.4055 52.8582H25.9062" stroke="#263238" stroke-width="0.5" stroke-miterlimit="10"/>
<path d="M32.1974 52.8582H30.8906" stroke="#263238" stroke-width="0.5" stroke-miterlimit="10"/>
<path d="M38.3412 52.8582H32.5352" stroke="#263238" stroke-width="0.5" stroke-miterlimit="10"/>
<path d="M45.8851 52.8582H38.9688" stroke="#263238" stroke-width="0.5" stroke-miterlimit="10"/>
<path d="M51.4001 52.8582H46.6113" stroke="#263238" stroke-width="0.5" stroke-miterlimit="10"/>
<path d="M54.0189 52.8582H52.0273" stroke="#263238" stroke-width="0.5" stroke-miterlimit="10"/>
<path d="M49.834 54.5125H54.0201" stroke="#263238" stroke-width="0.5" stroke-miterlimit="10"/>
<path d="M44.8516 54.5125H49.3487" stroke="#263238" stroke-width="0.5" stroke-miterlimit="10"/>
<path d="M43.0625 54.5125H44.3693" stroke="#263238" stroke-width="0.5" stroke-miterlimit="10"/>
<path d="M36.918 54.5125H42.7219" stroke="#263238" stroke-width="0.5" stroke-miterlimit="10"/>
<path d="M29.3711 54.5125H36.2896" stroke="#263238" stroke-width="0.5" stroke-miterlimit="10"/>
<path d="M23.8574 54.5125H28.6461" stroke="#263238" stroke-width="0.5" stroke-miterlimit="10"/>
<path d="M21.2383 54.5125H23.2298" stroke="#263238" stroke-width="0.5" stroke-miterlimit="10"/>
<path d="M25.4244 56.2429H21.2383" stroke="#263238" stroke-width="0.5" stroke-miterlimit="10"/>
<path d="M30.4055 56.2429H25.9062" stroke="#263238" stroke-width="0.5" stroke-miterlimit="10"/>
<path d="M32.1974 56.2429H30.8906" stroke="#263238" stroke-width="0.5" stroke-miterlimit="10"/>
<path d="M38.3412 56.2429H32.5352" stroke="#263238" stroke-width="0.5" stroke-miterlimit="10"/>
<path d="M45.8851 56.2429H38.9688" stroke="#263238" stroke-width="0.5" stroke-miterlimit="10"/>
<path d="M51.4001 56.2429H46.6113" stroke="#263238" stroke-width="0.5" stroke-miterlimit="10"/>
<path d="M54.0189 56.2429H52.0273" stroke="#263238" stroke-width="0.5" stroke-miterlimit="10"/>
<path d="M49.834 57.8972H54.0201" stroke="#263238" stroke-width="0.5" stroke-miterlimit="10"/>
<path d="M44.8516 57.8972H49.3487" stroke="#263238" stroke-width="0.5" stroke-miterlimit="10"/>
<path d="M43.0625 57.8972H44.3693" stroke="#263238" stroke-width="0.5" stroke-miterlimit="10"/>
<path d="M36.918 57.8972H42.7219" stroke="#263238" stroke-width="0.5" stroke-miterlimit="10"/>
<path d="M29.3711 57.8972H36.2896" stroke="#263238" stroke-width="0.5" stroke-miterlimit="10"/>
<path d="M23.8574 57.8972H28.6461" stroke="#263238" stroke-width="0.5" stroke-miterlimit="10"/>
<path d="M21.2383 57.8972H23.2298" stroke="#263238" stroke-width="0.5" stroke-miterlimit="10"/>
<path d="M25.4244 59.6267H21.2383" stroke="#263238" stroke-width="0.5" stroke-miterlimit="10"/>
<path d="M30.4055 59.6267H25.9062" stroke="#263238" stroke-width="0.5" stroke-miterlimit="10"/>
<path d="M32.1974 59.6267H30.8906" stroke="#263238" stroke-width="0.5" stroke-miterlimit="10"/>
<path d="M38.3412 59.6267H32.5352" stroke="#263238" stroke-width="0.5" stroke-miterlimit="10"/>
<path d="M45.8851 59.6267H38.9688" stroke="#263238" stroke-width="0.5" stroke-miterlimit="10"/>
<path d="M51.4001 59.6267H46.6113" stroke="#263238" stroke-width="0.5" stroke-miterlimit="10"/>
<path d="M54.0189 59.6267H52.0273" stroke="#263238" stroke-width="0.5" stroke-miterlimit="10"/>
<path d="M49.834 61.282H54.0201" stroke="#263238" stroke-width="0.5" stroke-miterlimit="10"/>
<path d="M44.8516 61.282H49.3487" stroke="#263238" stroke-width="0.5" stroke-miterlimit="10"/>
<path d="M43.0625 61.282H44.3693" stroke="#263238" stroke-width="0.5" stroke-miterlimit="10"/>
<path d="M36.918 61.282H42.7219" stroke="#263238" stroke-width="0.5" stroke-miterlimit="10"/>
<path d="M29.3711 61.282H36.2896" stroke="#263238" stroke-width="0.5" stroke-miterlimit="10"/>
<path d="M23.8574 61.282H28.6461" stroke="#263238" stroke-width="0.5" stroke-miterlimit="10"/>
<path d="M21.2383 61.282H23.2298" stroke="#263238" stroke-width="0.5" stroke-miterlimit="10"/>
<path d="M25.4244 63.0095H21.2383" stroke="#263238" stroke-width="0.5" stroke-miterlimit="10"/>
<path d="M30.4055 63.0095H25.9062" stroke="#263238" stroke-width="0.5" stroke-miterlimit="10"/>
<path d="M32.1974 63.0095H30.8906" stroke="#263238" stroke-width="0.5" stroke-miterlimit="10"/>
<path d="M38.3412 63.0095H32.5352" stroke="#263238" stroke-width="0.5" stroke-miterlimit="10"/>
<path d="M45.8851 63.0095H38.9688" stroke="#263238" stroke-width="0.5" stroke-miterlimit="10"/>
<path d="M51.4001 63.0095H46.6113" stroke="#263238" stroke-width="0.5" stroke-miterlimit="10"/>
<path d="M54.0189 63.0095H52.0273" stroke="#263238" stroke-width="0.5" stroke-miterlimit="10"/>
<path d="M49.834 64.6638H54.0201" stroke="#263238" stroke-width="0.5" stroke-miterlimit="10"/>
<path d="M44.8516 64.6638H49.3487" stroke="#263238" stroke-width="0.5" stroke-miterlimit="10"/>
<path d="M43.0625 64.6638H44.3693" stroke="#263238" stroke-width="0.5" stroke-miterlimit="10"/>
<path d="M36.918 64.6638H42.7219" stroke="#263238" stroke-width="0.5" stroke-miterlimit="10"/>
<path d="M29.3711 64.6638H36.2896" stroke="#263238" stroke-width="0.5" stroke-miterlimit="10"/>
<path d="M23.8574 64.6638H28.6461" stroke="#263238" stroke-width="0.5" stroke-miterlimit="10"/>
<path d="M21.2383 64.6638H23.2298" stroke="#263238" stroke-width="0.5" stroke-miterlimit="10"/>
<path d="M25.4244 66.3943H21.2383" stroke="#263238" stroke-width="0.5" stroke-miterlimit="10"/>
<path d="M30.4055 66.3943H25.9062" stroke="#263238" stroke-width="0.5" stroke-miterlimit="10"/>
<path d="M32.1974 66.3943H30.8906" stroke="#263238" stroke-width="0.5" stroke-miterlimit="10"/>
<path d="M38.3412 66.3943H32.5352" stroke="#263238" stroke-width="0.5" stroke-miterlimit="10"/>
<path d="M45.8851 66.3943H38.9688" stroke="#263238" stroke-width="0.5" stroke-miterlimit="10"/>
<path d="M51.4001 66.3943H46.6113" stroke="#263238" stroke-width="0.5" stroke-miterlimit="10"/>
<path d="M54.0189 66.3943H52.0273" stroke="#263238" stroke-width="0.5" stroke-miterlimit="10"/>
<path d="M67.5359 70.4443C67.5359 70.4443 62.5679 71.6323 60.8399 74.1163C59.1119 76.6003 55.0079 84.3763 53.9279 85.8883C52.8479 87.4003 49.1759 89.5603 48.5279 92.6923C47.8799 95.8243 48.6359 97.9843 51.9839 99.7123C55.3319 101.44 59.7599 97.8763 62.3519 96.9043L62.4599 100.792H89.4599L90.4319 96.1483C90.4319 96.1483 96.3719 96.6883 97.9919 96.1483C99.6119 95.6083 101.772 96.9043 101.988 95.6083C102.204 94.3123 101.232 91.6123 99.9359 89.3443C98.6399 87.0763 98.6399 87.7243 97.3439 84.5923C96.0479 81.4603 95.0759 78.5443 93.9959 75.8443C92.9159 73.1443 90.663 70.8482 88.5721 70.1549C86.4813 69.4615 81.6839 69.9043 79.8479 69.6883C78.0119 69.4723 67.5359 70.4443 67.5359 70.4443Z" fill="#108E66" stroke="#263238" stroke-width="0.5" stroke-linecap="round" stroke-linejoin="round"/>
<path d="M89.8555 93.1241C89.8555 93.1241 91.726 90.1714 95.1107 89.2361" stroke="#263238" stroke-width="0.5" stroke-linecap="round" stroke-linejoin="round"/>
<path d="M95.0195 86.616C95.3073 86.4687 95.6029 86.3375 95.9051 86.2229" stroke="#263238" stroke-width="0.5" stroke-linecap="round" stroke-linejoin="round"/>
<path d="M89.3516 91.9729C89.3516 91.9729 91.2761 88.9338 94.1489 87.1042" stroke="#263238" stroke-width="0.5" stroke-linecap="round" stroke-linejoin="round"/>
<path d="M90.647 81.1426C89.567 83.8577 87.9816 88.4995 88.271 91.6834" stroke="#263238" stroke-width="0.5" stroke-linecap="round" stroke-linejoin="round"/>
<path d="M91.5827 78.9395C91.5827 78.9395 91.384 79.3715 91.0859 80.0648" stroke="#263238" stroke-width="0.5" stroke-linecap="round" stroke-linejoin="round"/>
<path d="M54.0762 89.8713C55.551 90.2813 56.8749 91.1113 57.8864 92.2603" stroke="#263238" stroke-width="0.5" stroke-linecap="round" stroke-linejoin="round"/>
<path d="M51.623 89.6681C52.1117 89.6066 52.6063 89.6102 53.094 89.6789" stroke="#263238" stroke-width="0.5" stroke-linecap="round" stroke-linejoin="round"/>
<path d="M55.6426 87.8862C56.9105 88.7891 58.5348 90.2881 59.1828 92.3315" stroke="#263238" stroke-width="0.5" stroke-linecap="round" stroke-linejoin="round"/>
<path d="M53.9277 86.8601C54.2997 87.0403 54.6604 87.243 55.0077 87.4671" stroke="#263238" stroke-width="0.5" stroke-linecap="round" stroke-linejoin="round"/>
<path d="M72.1629 75.8831C72.1629 75.8831 73.5561 78.2051 77.0401 78.1273C80.5242 78.0496 81.993 74.2566 81.993 72.3212C81.993 70.3859 80.7553 69.0704 77.5045 69.8437C74.2537 70.617 70.6141 70.6969 72.1629 75.8831Z" fill="white" stroke="#263238" stroke-width="0.5" stroke-linecap="round" stroke-linejoin="round"/>
<path d="M72.7047 71.3148C72.7047 71.3148 71.7759 74.49 72.1625 75.8832C72.4372 76.8057 72.8277 77.6897 73.3246 78.5141C73.3246 78.5141 75.9555 76.0365 76.3486 75.7277C76.7417 75.4188 79.135 78.1274 79.4461 78.4363C79.7571 78.7452 81.5348 77.663 82.0769 75.1077C82.6191 72.5525 82.2325 69.5349 81.6903 68.7617C81.1481 67.9884 80.5282 67.9106 80.5282 67.9106C80.5282 67.9106 74.7178 67.2907 72.7047 71.3148Z" fill="white" stroke="#263238" stroke-width="0.5" stroke-linecap="round" stroke-linejoin="round"/>
<path d="M73.2461 71.6258C73.2461 71.6258 75.4903 75.4188 76.188 75.4944C76.8857 75.57 79.9788 73.019 80.832 70.9281C81.6852 68.8373 80.9854 66.593 80.9854 66.593C80.9854 66.593 78.3545 69.9216 76.5747 71.0059C74.7948 72.0902 73.2461 71.6258 73.2461 71.6258Z" fill="white" stroke="#263238" stroke-width="0.5" stroke-linecap="round" stroke-linejoin="round"/>
<path d="M76.5748 71.0057C75.6229 71.6179 74.4755 71.8492 73.3608 71.6537L73.2852 71.6926C73.432 71.9367 73.9893 72.859 74.5941 73.736C75.094 73.8457 75.617 73.7608 76.0564 73.4984C78.2899 72.319 80.0244 68.3511 80.0244 68.3511L79.0329 68.8436C78.238 69.6816 77.3265 70.5456 76.5748 71.0057Z" fill="#263238" stroke="#263238" stroke-width="0.5" stroke-linecap="round" stroke-linejoin="round"/>
<path d="M65.5055 51.0344C65.5055 51.0344 60.5245 58.9811 61.4533 63.5473C62.3821 68.1136 66.6676 73.5611 65.3521 75.0299C64.0367 76.4987 63.339 75.9587 63.9568 76.8119C64.5745 77.6651 68.3696 78.5917 71.156 77.6629C73.9424 76.7341 74.2535 72.7921 72.7912 70.6969C71.3288 68.6017 68.6116 60.6335 69.7672 58.7759C70.9228 56.9183 75.5732 58.0026 77.1976 58.7759C78.8219 59.5492 80.9149 64.1176 80.6816 66.2063C80.4484 68.295 81.3793 73.0967 84.5524 73.1723C87.7254 73.2479 88.5764 70.1483 88.5764 70.1483C88.5764 70.1483 86.4877 70.6127 86.4877 69.4506C86.4877 68.2885 88.1898 66.8197 87.4165 63.5689C86.6432 60.3181 84.8612 59.6982 84.6301 56.2919C84.399 52.8856 83.0814 49.557 80.4484 47.6238C77.8153 45.6906 70.8472 42.9085 65.5055 51.0344Z" fill="#263238" stroke="#263238" stroke-width="0.5" stroke-linecap="round" stroke-linejoin="round"/>
<path d="M65.9496 61.8345C65.682 62.8732 65.6642 63.9606 65.8978 65.0075C66.6624 68.9668 70.2761 72.9282 69.5806 75.3604C68.885 77.7926 66.7315 77.583 65.4766 76.5419" stroke="#6B6B6B" stroke-width="0.5" stroke-linecap="round" stroke-linejoin="round"/>
<path d="M67.3598 59.7263C66.9507 60.0091 66.614 60.3842 66.377 60.8214" stroke="#6B6B6B" stroke-width="0.5" stroke-linecap="round" stroke-linejoin="round"/>
<path d="M68.3223 72.3083C68.7594 72.9151 69.0046 73.6388 69.0264 74.3863" stroke="#6B6B6B" stroke-width="0.5" stroke-linecap="round" stroke-linejoin="round"/>
<path d="M69.5706 52.1748C67.9873 53.4708 66.0843 55.2809 64.7192 57.4322C61.9393 61.8106 62.2158 62.923 63.7451 66.3962C64.7235 68.621 66.6135 70.133 67.8491 71.6623" stroke="#6B6B6B" stroke-width="0.5" stroke-linecap="round" stroke-linejoin="round"/>
<path d="M72.4997 50.0667C72.4997 50.0667 71.7113 50.5397 70.5859 51.3821" stroke="#6B6B6B" stroke-width="0.5" stroke-linecap="round" stroke-linejoin="round"/>
<path d="M73.4743 47.5654C73.4743 47.5654 72.1546 51.7342 72.3619 52.568" stroke="#6B6B6B" stroke-width="0.5" stroke-linecap="round" stroke-linejoin="round"/>
<path d="M84.5527 71.5198C84.8811 71.7656 85.2454 71.9594 85.6327 72.0943" stroke="#6B6B6B" stroke-width="0.5" stroke-linecap="round" stroke-linejoin="round"/>
<path d="M81.8477 57.3394C83.0658 58.2223 84.0942 59.341 84.8717 60.629C87.5133 64.7978 85.4981 65.7698 84.2474 68.0638C83.5562 69.3317 83.5865 70.2605 84.012 70.9322" stroke="#6B6B6B" stroke-width="0.5" stroke-linecap="round" stroke-linejoin="round"/>
<path d="M79.3105 56.2507C79.8449 56.3252 80.3624 56.4919 80.8398 56.7432" stroke="#6B6B6B" stroke-width="0.5" stroke-linecap="round" stroke-linejoin="round"/>
<path d="M83.2051 55.5122C83.5145 55.875 83.792 56.2638 84.0345 56.6743" stroke="#6B6B6B" stroke-width="0.5" stroke-linecap="round" stroke-linejoin="round"/>
<path d="M73.4043 51.1792C73.4043 51.1792 73.8212 52.7085 77.5731 52.7776C79.481 52.8038 81.3038 53.5715 82.6556 54.9182" stroke="#6B6B6B" stroke-width="0.5" stroke-linecap="round" stroke-linejoin="round"/>
<path d="M72.6264 52.9697C72.6264 52.9697 68.369 56.7627 67.518 59.1624C66.6669 61.5622 69.462 67.2128 69.7622 68.0638C70.0927 68.971 70.9977 69.8156 71.6198 70.524C72.6307 71.6732 74.1449 73.196 75.8232 72.9692C77.9162 72.6862 80.0633 69.4462 80.9856 67.7549C81.9079 66.0636 82.0785 63.504 82.0785 63.504C82.0785 63.504 83.1585 63.5818 83.1585 62.1108C83.1585 60.6399 83.3119 58.3956 82.5386 58.3956C82.028 58.4218 81.5394 58.6119 81.1454 58.9378C79.2824 58.217 77.5356 57.2257 75.9614 55.9959C73.3997 53.9763 72.6264 52.9697 72.6264 52.9697Z" fill="white" stroke="#263238" stroke-width="0.5" stroke-linecap="round" stroke-linejoin="round"/>
<path d="M72.8594 66.6707C72.8901 66.8187 72.9525 66.9584 73.0421 67.0802C73.1317 67.202 73.2466 67.3031 73.3788 67.3765C73.511 67.4499 73.6576 67.4939 73.8083 67.5055C73.9591 67.5172 74.1106 67.4962 74.2526 67.4439C75.4125 67.1351 75.568 66.7484 75.568 66.7484" stroke="#263238" stroke-width="0.5" stroke-linecap="round" stroke-linejoin="round"/>
<path d="M72.791 68.2972C72.791 68.2972 75.3441 69.226 76.8151 67.6772" stroke="#263238" stroke-width="0.5" stroke-linecap="round" stroke-linejoin="round"/>
<path d="M74.9512 60.4002C74.9512 60.4002 75.9577 59.2402 78.2797 59.9358" stroke="#263238" stroke-width="0.5" stroke-linecap="round" stroke-linejoin="round"/>
<path d="M71.5419 61.2533C71.5419 61.2533 69.9953 60.7112 68.6777 60.7112" stroke="#263238" stroke-width="0.5" stroke-linecap="round" stroke-linejoin="round"/>
<path d="M73.0915 62.1821C71.9412 61.6785 70.7084 61.3893 69.4541 61.3289C67.441 61.2533 67.1321 61.5622 67.2099 61.8711C67.2876 62.18 67.3632 65.4329 69.1431 65.7418C70.9229 66.0507 72.6271 65.7418 72.936 64.8908C73.2449 64.0397 73.0915 62.1821 73.0915 62.1821Z" stroke="#263238" stroke-width="0.5" stroke-linecap="round" stroke-linejoin="round"/>
<path d="M74.1738 62.0353C75.2312 61.3607 76.4021 60.8836 77.6298 60.627C79.6041 60.2382 79.9583 60.4953 79.9302 60.8128C79.9021 61.1303 80.3341 64.353 78.6234 64.9384C76.9127 65.5237 75.1825 65.4805 74.7354 64.6878C74.2883 63.8951 74.1738 62.0353 74.1738 62.0353Z" stroke="#263238" stroke-width="0.5" stroke-linecap="round" stroke-linejoin="round"/>
<path d="M73.0918 62.1821C73.2368 62.0531 73.417 61.9701 73.6094 61.944C73.8018 61.9178 73.9976 61.9496 74.1718 62.0353" stroke="#263238" stroke-width="0.5" stroke-linecap="round" stroke-linejoin="round"/>
<path d="M71.5402 63.5193C71.6007 63.9513 71.4775 64.3098 71.2659 64.3401C71.0542 64.3703 70.8339 64.0528 70.7734 63.6294C70.7129 63.2061 70.8339 62.8389 71.0455 62.8086C71.2572 62.7784 71.4775 63.0959 71.5402 63.5193Z" fill="#263238"/>
<path d="M77.0351 63.1326C77.0956 63.5646 76.9746 63.9231 76.7629 63.9534C76.5513 63.9836 76.3309 63.6661 76.2683 63.2427C76.2057 62.8194 76.3288 62.4522 76.5405 62.4219C76.7521 62.3917 76.9746 62.7092 77.0351 63.1326Z" fill="#263238"/>
<path d="M79.9043 60.478L81.142 58.9314" stroke="#263238" stroke-width="0.5" stroke-linecap="round" stroke-linejoin="round"/>
<path d="M81.5754 90.3163C81.5754 90.3163 81.3594 89.4523 80.2794 88.5883C79.1994 87.7243 76.6074 87.0763 76.6074 87.8323C76.6074 88.5883 79.1994 90.8563 79.9554 91.9363C80.7114 93.0163 81.4674 95.3923 83.0874 96.5803C84.7074 97.7683 92.8074 100.36 96.2634 100.576C99.7194 100.792 101.987 98.5243 101.879 96.1483C101.771 93.7723 100.043 91.6123 97.2354 91.1803C94.4274 90.7483 93.1314 92.1523 91.5114 92.5843C89.8914 93.0163 88.5954 93.4483 88.5954 93.4483C88.5954 93.4483 89.4594 90.5323 89.2434 89.6683C89.0274 88.8043 87.5586 88.2578 87.5586 88.2578L86.4354 87.1778C86.4354 87.1778 84.1674 85.3418 83.8434 85.3418C83.5194 85.3418 82.2234 83.8298 80.6034 83.8298C78.9834 83.8298 76.9314 85.0178 77.5794 85.6658C78.2274 86.3138 79.6314 85.8818 80.3874 85.8818C81.1434 85.8818 81.8994 87.5018 81.8994 87.5018C81.8994 87.5018 80.9274 88.1498 81.2514 88.5818C81.5754 89.0138 81.7914 89.3378 81.7914 89.3378L81.5754 90.3163Z" fill="white" stroke="#263238" stroke-width="0.5" stroke-linecap="round" stroke-linejoin="round"/>
<path d="M81.7363 89.2082C81.7363 89.2082 81.894 90.0722 82.5636 90.0722C83.2332 90.0722 82.9567 89.0894 83.1922 88.7762C83.4276 88.463 84.0562 87.3203 84.0562 87.3203" stroke="#263238" stroke-width="0.5" stroke-linecap="round" stroke-linejoin="round"/>
<path d="M87.2051 88.4153C87.2051 88.4153 85.6715 89.8711 85.5527 89.951C85.4339 90.031 85.0818 90.8561 84.8053 91.2881C84.5289 91.7201 83.8614 91.8389 83.6649 91.2881C83.4683 90.7373 83.7426 89.8711 83.9781 89.478C84.2135 89.0849 84.963 87.9034 84.963 87.9034C84.963 87.9034 85.4749 87.156 86.1834 87.156" stroke="#263238" stroke-width="0.5" stroke-linecap="round" stroke-linejoin="round"/>
<path d="M86.3797 89.2815C86.3797 89.2815 85.5525 90.422 85.5525 90.8561C85.5525 91.2903 85.2781 92.3897 85.6324 92.5474C85.9866 92.7051 86.4575 92.7051 86.6951 92.1932C86.9327 91.6813 87.2049 91.0916 87.2049 91.0916C87.2049 91.0916 87.7578 91.0527 87.9933 90.6596" stroke="#263238" stroke-width="0.5" stroke-linecap="round" stroke-linejoin="round"/>
<path d="M87.2051 91.0916C87.3221 91.3549 87.5331 91.5652 87.7969 91.6812" stroke="#263238" stroke-width="0.5" stroke-linecap="round" stroke-linejoin="round"/>
<path d="M83.591 85.3071C83.4519 85.2921 83.3121 85.3274 83.1968 85.4067C83.0814 85.4859 82.9983 85.6038 82.9625 85.7391C82.7659 86.251 81.9062 87.5081 81.9062 87.5081" stroke="#263238" stroke-width="0.5" stroke-linecap="round" stroke-linejoin="round"/>
<path d="M82.877 88.061C82.9472 88.3455 82.9999 88.6341 83.0346 88.925" stroke="#263238" stroke-width="0.5" stroke-linecap="round" stroke-linejoin="round"/>
<path d="M83.7812 87.8645C83.8624 88.175 84.0595 88.4425 84.332 88.6119" stroke="#263238" stroke-width="0.5" stroke-linecap="round" stroke-linejoin="round"/>
<path d="M88.5964 93.4482C88.5964 93.4482 87.7691 96.2195 87.1211 96.941" stroke="#263238" stroke-width="0.5" stroke-linecap="round" stroke-linejoin="round"/>
<path d="M58.8867 83.8815L65.0146 100.619C65.0902 100.828 65.2285 101.009 65.4106 101.137C65.5926 101.264 65.8096 101.333 66.032 101.332H82.0786C82.2539 101.334 82.427 101.292 82.5827 101.212C82.7385 101.131 82.8724 101.014 82.9728 100.87C83.0731 100.727 83.137 100.561 83.1588 100.387C83.1807 100.213 83.1598 100.036 83.0981 99.872L77.1106 83.7109C76.9607 83.3047 76.6893 82.9545 76.3334 82.7079C75.9774 82.4614 75.5542 82.3304 75.1213 82.3328L59.8889 82.4235C59.7153 82.425 59.5447 82.4684 59.3914 82.5499C59.2381 82.6314 59.1067 82.7486 59.0084 82.8917C58.91 83.0347 58.8476 83.1994 58.8264 83.3717C58.8052 83.544 58.8259 83.7189 58.8867 83.8815Z" fill="#263238" stroke="#263238" stroke-width="0.5" stroke-linecap="round" stroke-linejoin="round"/>
<path d="M57.1685 93.4483L57.4925 90.8563C57.4925 90.8563 58.5725 90.5323 58.0325 88.6963C57.4925 86.8603 57.1685 86.6443 57.8165 86.6443C58.4645 86.6443 59.7605 86.9683 60.0845 88.0483C60.4085 89.1283 60.5165 91.0723 60.5165 91.0723C60.5165 91.0723 68.1845 89.9923 68.7245 89.9923C69.2645 89.9923 69.8045 90.5323 68.9405 90.9643C68.0765 91.3963 63.7565 93.3403 63.7565 93.3403C63.7565 93.3403 69.2645 92.1523 69.5885 92.1523C69.9125 92.1523 70.9925 92.1523 70.4525 92.6923C69.9125 93.2323 68.5085 93.8803 68.5085 93.8803C68.5085 93.8803 70.9925 93.4483 70.8845 94.2043C70.7765 94.9603 68.1845 95.7163 68.1845 95.7163C68.1845 95.7163 69.3725 95.7163 69.0485 96.2563C68.7245 96.7963 63.9725 98.5243 63.0005 98.9563C62.0285 99.3883 59.1125 99.3883 59.1125 99.3883C57.8406 100.122 56.4526 100.634 55.0085 100.9C52.6325 101.332 50.1485 101.224 49.0685 98.7403C47.9885 96.2563 48.8525 92.8003 51.0125 91.7203C53.1725 90.6403 54.6845 90.9643 55.5485 91.6123C56.4125 92.2603 57.1685 93.4483 57.1685 93.4483Z" fill="white" stroke="#263238" stroke-width="0.5" stroke-linecap="round" stroke-linejoin="round"/>
<path d="M63.7557 93.3401L61.5957 93.9881" stroke="#263238" stroke-width="0.5" stroke-linecap="round" stroke-linejoin="round"/>
<path d="M68.5081 93.8801L62.2441 95.8241" stroke="#263238" stroke-width="0.5" stroke-linecap="round" stroke-linejoin="round"/>
<path d="M68.1846 95.7163L62.8926 97.5523" stroke="#263238" stroke-width="0.5" stroke-linecap="round" stroke-linejoin="round"/>
<path d="M57.1675 93.4482C57.1675 93.4482 56.7355 94.3122 55.4395 93.4482" stroke="#263238" stroke-width="0.5" stroke-linecap="round" stroke-linejoin="round"/>
<path d="M59.111 99.3881L56.627 98.8481" stroke="#263238" stroke-width="0.5" stroke-linecap="round" stroke-linejoin="round"/>
<path d="M60.516 91.0723L58.248 91.5043" stroke="#263238" stroke-width="0.5" stroke-linecap="round" stroke-linejoin="round"/>
<path d="M36.1832 86.5686C36.164 86.937 36.2237 87.3052 36.3582 87.6486C36.8895 88.9792 37.045 89.5278 36.829 90.6078" stroke="#263238" stroke-width="0.5" stroke-miterlimit="10" stroke-linecap="round"/>
<path d="M36.6966 84.8687C36.5318 85.1544 36.404 85.46 36.3164 85.778" stroke="#263238" stroke-width="0.5" stroke-miterlimit="10" stroke-linecap="round"/>
<path d="M38.5993 84.8687C38.5993 84.8687 37.7159 86.2942 38.258 87.6529C38.8002 89.0115 38.9471 89.5321 38.7311 90.6121" stroke="#263238" stroke-width="0.5" stroke-miterlimit="10" stroke-linecap="round"/>
<path d="M40.7257 89.8281C40.7195 90.0918 40.6884 90.3544 40.6328 90.6122" stroke="#263238" stroke-width="0.5" stroke-miterlimit="10" stroke-linecap="round"/>
<path d="M40.5007 84.8687C40.5007 84.8687 39.6173 86.2942 40.1616 87.6529C40.3268 88.0482 40.471 88.4519 40.5936 88.8625" stroke="#263238" stroke-width="0.5" stroke-miterlimit="10" stroke-linecap="round"/>
<path d="M42.1325 93.4913C42.1325 93.4913 43.0138 92.61 43.6553 93.3315C44.2968 94.0529 44.0549 97.6515 43.4933 98.779C42.9317 99.9065 41.6465 98.8373 41.6465 98.8373V98.0576C41.6465 98.0576 42.221 98.5889 42.8626 97.9496C43.5041 97.3102 43.3291 94.7722 43.0786 94.3726C42.828 93.973 41.8776 94.5324 41.8776 94.5324L42.1325 93.4913Z" fill="white" stroke="#263238" stroke-width="0.5" stroke-linecap="round" stroke-linejoin="round"/>
<path d="M41.6365 102.259H35.5474L34.7871 91.5732H42.3968L41.6365 102.259Z" fill="white" stroke="#263238" stroke-width="0.5" stroke-linecap="round" stroke-linejoin="round"/>
</svg>
