<svg width="64" height="64" viewBox="0 0 64 64" fill="none" xmlns="http://www.w3.org/2000/svg">
<g opacity="0.5">
<path d="M32.2383 60.4326C44.7526 60.4326 54.8974 57.9185 54.8974 54.8171C54.8974 51.7158 44.7526 49.2017 32.2383 49.2017C19.724 49.2017 9.5791 51.7158 9.5791 54.8171C9.5791 57.9185 19.724 60.4326 32.2383 60.4326Z" fill="#ABD6C8"/>
<path d="M32.2383 60.4326C44.7526 60.4326 54.8974 57.9185 54.8974 54.8171C54.8974 51.7158 44.7526 49.2017 32.2383 49.2017C19.724 49.2017 9.5791 51.7158 9.5791 54.8171C9.5791 57.9185 19.724 60.4326 32.2383 60.4326Z" fill="black" fill-opacity="0.2"/>
</g>
<path d="M41.4271 53.7185C41.4271 55.688 39.8313 57.2838 37.8619 57.2838H26.9285C24.9591 57.2838 23.3633 55.688 23.3633 53.7185C23.3633 51.7491 24.9591 50.1533 26.9285 50.1533H37.8619C39.8308 50.1533 41.4271 51.7491 41.4271 53.7185Z" fill="#ABD6C8"/>
<path d="M37.8622 58.7102H26.9288C24.1765 58.7102 21.9375 56.4712 21.9375 53.7189C21.9375 50.9665 24.1765 48.7275 26.9288 48.7275H37.8622C40.6145 48.7275 42.8535 50.9665 42.8535 53.7189C42.8535 56.4712 40.6145 58.7102 37.8622 58.7102ZM26.9288 51.5797C25.7494 51.5797 24.7897 52.5395 24.7897 53.7189C24.7897 54.8982 25.7494 55.858 26.9288 55.858H37.8622C39.0416 55.858 40.0013 54.8982 40.0013 53.7189C40.0013 52.5395 39.0416 51.5797 37.8622 51.5797H26.9288Z" fill="#296652"/>
<path d="M52.8357 34.4662C52.8357 37.0807 50.6966 39.2198 48.0821 39.2198H15.282C12.6675 39.2198 10.5283 37.0807 10.5283 34.4662V9.74729C10.5283 7.13279 12.6675 4.99365 15.282 4.99365H48.0821C50.6966 4.99365 52.8357 7.13279 52.8357 9.74729V34.4662Z" fill="#ABD6C8"/>
<path d="M48.0824 40.6462H15.2823C11.8749 40.6462 9.10254 37.8739 9.10254 34.4665V9.7476C9.10254 6.34019 11.8749 3.56787 15.2823 3.56787H48.0824C51.4898 3.56787 54.2621 6.34019 54.2621 9.7476V34.4665C54.2621 37.8739 51.4898 40.6462 48.0824 40.6462ZM15.2823 6.42005C13.4478 6.42005 11.9547 7.91317 11.9547 9.7476V34.4665C11.9547 36.3009 13.4478 37.7941 15.2823 37.7941H48.0824C49.9168 37.7941 51.4099 36.3009 51.4099 34.4665V9.7476C51.4099 7.91317 49.9168 6.42005 48.0824 6.42005H15.2823Z" fill="#296652"/>
<path d="M34.7725 43.0229L36.1986 53.0056H28.5928L30.0189 43.0229H34.7725Z" fill="#ABD6C8"/>
<path d="M36.207 54.4315C36.2047 54.4315 36.2009 54.4315 36.198 54.4315H28.5922C28.1786 54.4315 27.786 54.2523 27.5145 53.94C27.244 53.6277 27.1219 53.2131 27.1804 52.8039L28.6064 42.8212C28.7067 42.1182 29.3086 41.5967 30.0183 41.5967H34.7719C35.4816 41.5967 36.0834 42.1186 36.1837 42.8212L37.5865 52.6399C37.617 52.7563 37.6336 52.879 37.6336 53.0054C37.6331 53.7931 36.9947 54.4315 36.207 54.4315ZM30.2365 51.5793H34.5537L33.535 44.4489H31.2547L30.2365 51.5793Z" fill="#296652"/>
<g opacity="0.2">
<path d="M33.026 43.5225L33.8208 48.2519H29.0967L29.8915 43.5225H33.026Z" fill="#296652"/>
</g>
<path d="M52.8357 38.7445C52.8357 41.359 50.6966 43.4982 48.0821 43.4982H15.282C12.6675 43.4982 10.5283 41.359 10.5283 38.7445V14.0256C10.5283 11.4111 12.6675 9.27197 15.282 9.27197H48.0821C50.6966 9.27197 52.8357 11.4111 52.8357 14.0256V38.7445Z" fill="#ABD6C8"/>
<path d="M48.0826 44.4489H15.2825C12.137 44.4489 9.57812 41.8901 9.57812 38.7446V14.0257C9.57812 10.8802 12.137 8.32129 15.2825 8.32129H48.0826C51.2281 8.32129 53.787 10.8802 53.787 14.0257V38.7446C53.787 41.8901 51.2281 44.4489 48.0826 44.4489ZM15.2825 10.2227C13.1857 10.2227 11.4796 11.9288 11.4796 14.0257V38.7446C11.4796 40.8414 13.1857 42.5475 15.2825 42.5475H48.0826C50.1794 42.5475 51.8855 40.8414 51.8855 38.7446V14.0257C51.8855 11.9288 50.1794 10.2227 48.0826 10.2227H15.2825Z" fill="#296652"/>
<path d="M32.1581 40.6459C32.8145 40.6459 33.3465 40.1138 33.3465 39.4575C33.3465 38.8011 32.8145 38.269 32.1581 38.269C31.5018 38.269 30.9697 38.8011 30.9697 39.4575C30.9697 40.1138 31.5018 40.6459 32.1581 40.6459Z" fill="#296652"/>
<path d="M47.6072 14.0259H15.7578V35.8926H47.6072V14.0259Z" fill="#E2F3EE"/>
<path d="M48.0824 44.9246H15.2823C11.8749 44.9246 9.10254 42.1522 9.10254 38.7448V9.27228C9.10254 8.4846 9.74095 7.84619 10.5286 7.84619C11.3163 7.84619 11.9547 8.4846 11.9547 9.27228V38.7448C11.9547 40.5793 13.4478 42.0724 15.2823 42.0724H48.0824C49.9168 42.0724 51.4099 40.5793 51.4099 38.7448V9.27228C51.4099 8.4846 52.0483 7.84619 52.836 7.84619C53.6237 7.84619 54.2621 8.4846 54.2621 9.27228V38.7448C54.2621 42.1522 51.4898 44.9246 48.0824 44.9246Z" fill="#296652"/>
<path d="M31.9195 35.4175C31.3942 35.4175 30.9688 34.9916 30.9688 34.4668V14.5015C30.9688 13.9767 31.3942 13.5508 31.9195 13.5508C32.4443 13.5508 32.8702 13.9767 32.8702 14.5015V34.4668C32.8702 34.9916 32.4443 35.4175 31.9195 35.4175Z" fill="#769C90"/>
<path d="M36.1977 22.5825H31.9195C31.3942 22.5825 30.9688 22.1566 30.9688 21.6318C30.9688 21.107 31.3942 20.681 31.9195 20.681H36.1977C37.5592 20.681 38.4938 19.8563 38.9629 19.3101L38.1919 18.2305C37.6709 19.0434 36.8685 19.7303 35.7224 19.7303H31.9195C31.3942 19.7303 30.9688 19.3044 30.9688 18.7796C30.9688 18.2548 31.3942 17.8289 31.9195 17.8289H35.7224C36.6232 17.8289 37.0396 16.1114 37.0434 16.0943C37.1204 15.7249 37.4095 15.4364 37.7783 15.3589C38.1505 15.2795 38.528 15.4297 38.7476 15.7368L40.9096 18.7639C41.1263 19.0677 41.1453 19.4703 40.9585 19.7935C40.892 19.9071 39.3047 22.5825 36.1977 22.5825Z" fill="#769C90"/>
<path d="M38.0999 28.2868H33.3462C32.821 28.2868 32.3955 27.8609 32.3955 27.3361C32.3955 26.8113 32.821 26.3854 33.3462 26.3854H38.0999C40.0935 26.3854 41.0158 24.9379 41.0538 24.8761C41.3295 24.433 41.9128 24.2909 42.3577 24.5619C42.8036 24.8328 42.95 25.4085 42.6829 25.8568C42.6234 25.9561 41.1988 28.2868 38.0999 28.2868Z" fill="#769C90"/>
<path d="M40.1361 34.1052C35.9225 34.1052 35.2931 31.6129 35.2931 30.1274C35.2931 29.6839 35.1648 29.3616 34.889 29.112C34.1413 28.4351 32.5217 28.4285 32.014 28.4788C31.4945 28.5321 31.0258 28.1499 30.9735 27.6275C30.9217 27.1046 31.3024 26.6392 31.8248 26.5869C32.1124 26.5593 34.667 26.3468 36.1654 27.7026C36.8385 28.312 37.1946 29.1505 37.1946 30.1279C37.1946 31.583 38.0745 32.2043 40.1361 32.2043C40.4674 32.2043 41.3478 32.2043 41.3478 30.1279C41.3478 28.7793 41.1006 26.421 40.8724 24.5281C40.2687 25.0738 39.462 25.457 38.4063 25.457H31.9199C31.3946 25.457 30.9692 25.031 30.9692 24.5062C30.9692 23.9814 31.3946 23.5555 31.9199 23.5555H38.4063C40.1337 23.5555 40.4788 21.4301 40.4931 21.3398C40.5639 20.8754 40.9637 20.5308 41.4334 20.5308C41.4353 20.5308 41.4367 20.5308 41.4386 20.5308C41.9097 20.5331 42.3085 20.8783 42.3751 21.3446C42.4107 21.5946 43.2497 27.4963 43.2497 30.1284C43.2493 33.8186 40.8663 34.1052 40.1361 34.1052Z" fill="#769C90"/>
<path d="M39.051 31.139H36.1988C35.6735 31.139 35.248 30.713 35.248 30.1882C35.248 29.6634 35.6735 29.2375 36.1988 29.2375H39.051C39.9779 29.2375 40.7984 27.9859 41.0123 27.5476C41.2419 27.076 41.809 26.8783 42.2839 27.1107C42.7555 27.3408 42.9513 27.9103 42.7208 28.3823C42.6656 28.495 41.3479 31.139 39.051 31.139Z" fill="#769C90"/>
<path d="M41.4347 22.4288C41.1114 22.4288 40.7967 22.2643 40.6185 21.9672L39.3212 19.8053C39.0512 19.3551 39.1967 18.7709 39.6473 18.5009C40.0975 18.2309 40.6817 18.3763 40.9517 18.827L42.249 20.9889C42.519 21.4391 42.3735 22.0233 41.9233 22.2933C41.7698 22.3851 41.6015 22.4288 41.4347 22.4288Z" fill="#769C90"/>
<path d="M31.9203 22.5823H27.642C24.535 22.5823 22.9478 19.907 22.8812 19.7934C22.6939 19.4701 22.7129 19.0675 22.9302 18.7637L25.0921 15.7366C25.3118 15.4295 25.6887 15.2798 26.0614 15.3587C26.4303 15.4362 26.7193 15.7247 26.7963 16.0941C26.7996 16.1079 27.2142 17.8287 28.1174 17.8287H31.9203C32.4451 17.8287 32.871 18.2546 32.871 18.7794C32.871 19.3042 32.4451 19.7301 31.9203 19.7301H28.1174C26.9713 19.7301 26.1684 19.0432 25.6478 18.2304L24.8768 19.3104C25.346 19.8561 26.2801 20.6809 27.642 20.6809H31.9203C32.4451 20.6809 32.871 21.1068 32.871 21.6316C32.871 22.1564 32.4451 22.5823 31.9203 22.5823Z" fill="#769C90"/>
<path d="M30.4944 28.2867H25.7407C22.6414 28.2867 21.2167 25.956 21.1578 25.8567C20.8887 25.406 21.0365 24.8223 21.4877 24.5537C21.9345 24.2861 22.5168 24.431 22.7868 24.8774C22.8348 24.9535 23.7571 26.3857 25.7403 26.3857H30.4939C31.0187 26.3857 31.4446 26.8117 31.4446 27.3365C31.4446 27.8613 31.0192 28.2867 30.4944 28.2867Z" fill="#769C90"/>
<path d="M23.703 34.1047C22.9728 34.1047 20.5898 33.8176 20.5898 30.1268C20.5898 27.4952 21.4289 21.5936 21.4645 21.3431C21.5315 20.8748 21.9323 20.5269 22.4053 20.5269C22.8782 20.5269 23.2795 20.8743 23.346 21.3431C23.3593 21.4291 23.7049 23.554 25.4324 23.554H31.9197C32.4445 23.554 32.8704 23.9799 32.8704 24.5047C32.8704 25.0295 32.4445 25.4554 31.9197 25.4554H25.4329C24.3771 25.4554 23.5704 25.0723 22.9671 24.5266C22.7385 26.4195 22.4918 28.7777 22.4918 30.1264C22.4918 32.2027 23.3721 32.2027 23.7035 32.2027C25.7651 32.2027 26.645 31.5814 26.645 30.1264C26.645 29.149 27.0011 28.3109 27.6742 27.701C29.1725 26.3444 31.7276 26.5578 32.0147 26.5854C32.5372 26.6377 32.9179 27.1035 32.8661 27.6259C32.8138 28.1474 32.3575 28.531 31.8274 28.4773C31.2774 28.426 29.6907 28.4374 28.9477 29.1129C28.6739 29.3615 28.546 29.6833 28.546 30.1259C28.546 31.6123 27.9171 34.1047 23.703 34.1047Z" fill="#769C90"/>
<path d="M27.6423 31.139H24.3147C22.3771 31.139 21.3556 29.3022 21.0575 28.217C20.9187 27.7112 21.2163 27.1878 21.723 27.0485C22.2283 26.9093 22.7498 27.2059 22.8901 27.7098C22.8996 27.7402 23.3578 29.2381 24.3147 29.2381H27.6423C28.1671 29.2381 28.593 29.664 28.593 30.1888C28.593 30.7136 28.1671 31.139 27.6423 31.139Z" fill="#769C90"/>
<path d="M22.4049 22.4289C22.2381 22.4289 22.0698 22.3852 21.9167 22.2934C21.4666 22.0234 21.3206 21.4392 21.5906 20.989L22.8884 18.8271C23.1584 18.3769 23.7426 18.2305 24.1928 18.501C24.6429 18.771 24.7889 19.3552 24.5189 19.8054L23.2216 21.9673C23.0429 22.2644 22.7282 22.4289 22.4049 22.4289Z" fill="#769C90"/>
<path d="M47.6067 36.8434H15.7574C15.2321 36.8434 14.8066 36.4175 14.8066 35.8927V14.0259C14.8066 13.5011 15.2321 13.0752 15.7574 13.0752H47.6067C48.1315 13.0752 48.5575 13.5011 48.5575 14.0259V35.8927C48.5575 36.4175 48.1315 36.8434 47.6067 36.8434ZM16.7081 34.9419H46.656V14.9767H16.7081V34.9419Z" fill="#296652"/>
</svg>
