<svg width="104" height="104" viewBox="0 0 104 104" fill="none" xmlns="http://www.w3.org/2000/svg">
<rect width="104" height="104" rx="16" fill="#108E66" fill-opacity="0.05"/>
<path d="M81.4391 47.6154C81.1769 40.1436 78.1512 33.1566 72.8381 27.8436C67.2693 22.2737 59.8681 19.2073 51.9992 19.2073C36.1062 19.2073 23.1201 31.8573 22.5603 47.6154C20.135 48.6932 18.4375 51.1207 18.4375 53.942V61.7146C18.4375 65.5313 21.5425 68.6374 25.3603 68.6374C27.8305 68.6374 29.8395 66.6284 29.8395 64.1581V51.4974C29.8395 49.1781 28.0607 47.2868 25.7991 47.0621C26.6339 33.3332 38.0627 22.4182 51.9992 22.4182C59.0119 22.4182 65.6061 25.1518 70.5691 30.1148C75.1265 34.6722 77.7937 40.6124 78.195 47.0631C75.9356 47.29 74.16 49.1802 74.16 51.4974V64.1571C74.16 66.4957 75.9667 68.3987 78.255 68.5967V71.7958C78.255 75.3985 75.3234 78.329 71.7207 78.329H66.8819C66.6443 77.6504 66.2718 77.0232 65.7495 76.5031C64.8344 75.5837 63.6142 75.0774 62.3149 75.0774H57.3272C56.6112 75.0774 55.924 75.2294 55.2947 75.5227C53.5779 76.3115 52.4691 78.0432 52.4691 79.9345C52.4691 81.2338 52.9753 82.454 53.8926 83.367C54.8098 84.2864 56.03 84.7926 57.3272 84.7926H62.3149C64.3827 84.7926 66.2054 83.4558 66.8851 81.5399H71.7207C77.0948 81.5399 81.4659 77.1688 81.4659 71.7958V68.0252C83.8762 66.9409 85.5609 64.522 85.5609 61.7125V53.9399C85.5609 51.1207 83.8634 48.6932 81.4391 47.6154ZM26.6275 51.4974V64.1571C26.6275 64.856 26.0592 65.4254 25.3592 65.4254C23.3128 65.4254 21.6474 63.76 21.6474 61.7135V53.941C21.6474 51.8935 23.3128 50.2291 25.3592 50.2291C26.0592 50.2291 26.6275 50.7985 26.6275 51.4974ZM63.9257 80.2791C63.7662 81.0348 63.0876 81.5838 62.3138 81.5838H57.3261C56.8873 81.5838 56.4752 81.4126 56.1606 81.0979C55.8502 80.7886 55.6789 80.3755 55.6789 79.9366C55.6789 79.2955 56.0546 78.71 56.6433 78.4393C56.8531 78.3408 57.0832 78.2905 57.3261 78.2905H62.3138C62.7526 78.2905 63.1647 78.4607 63.4783 78.7753C63.7887 79.0847 63.9599 79.4978 63.9599 79.9366C63.961 80.0544 63.9481 80.1721 63.9257 80.2791ZM82.35 61.7135C82.35 63.76 80.6846 65.4254 78.6381 65.4254C77.9392 65.4254 77.3698 64.857 77.3698 64.1571V51.4974C77.3698 50.7985 77.9382 50.2291 78.6381 50.2291C80.6846 50.2291 82.35 51.8945 82.35 53.941V61.7135Z" fill="#108E66"/>
<path d="M62.3955 62.2669C66.1469 62.2669 69.1984 59.2144 69.1984 55.464V41.6024C69.1984 39.7893 68.4898 38.0811 67.2033 36.7946C65.9168 35.5081 64.2097 34.7996 62.3955 34.7996H41.6037C37.8522 34.7996 34.8008 37.851 34.8008 41.6024V55.464C34.8008 59.2155 37.8522 62.2669 41.6037 62.2669H41.731V65.8589C41.731 67.2289 42.5477 68.4447 43.8106 68.9574C44.2184 69.1212 44.6423 69.2025 45.0618 69.2025C45.9363 69.2025 46.7882 68.8557 47.4122 68.2104L53.3878 62.2669H62.3955ZM51.595 59.5226L45.1282 65.9541C45.0993 65.9841 45.0779 66.0066 45.0169 65.9798C44.943 65.9499 44.943 65.9017 44.943 65.8589V60.6615C44.943 59.7752 44.2249 59.056 43.3376 59.056H41.6047C39.6236 59.056 38.0128 57.4441 38.0128 55.464V41.6024C38.0128 39.6213 39.6236 38.0105 41.6047 38.0105H62.3966C63.3534 38.0105 64.2536 38.3851 64.9343 39.0647C65.615 39.7455 65.9885 40.6467 65.9885 41.6024V55.464C65.9885 57.4452 64.3766 59.056 62.3966 59.056H52.7274C52.3025 59.056 51.8958 59.224 51.595 59.5226Z" fill="#108E66"/>
<path d="M44.2006 46.4209C42.8948 46.4209 41.832 47.4848 41.832 48.7895C41.832 50.0942 42.8959 51.1581 44.2006 51.1581C45.5075 51.1581 46.5714 50.0942 46.5714 48.7895C46.5714 47.4848 45.5085 46.4209 44.2006 46.4209Z" fill="#108E66"/>
<path d="M51.9975 46.4209C50.6917 46.4209 49.6289 47.4848 49.6289 48.7895C49.6289 50.0942 50.6928 51.1581 51.9975 51.1581C53.3054 51.1581 54.3682 50.0942 54.3682 48.7895C54.3682 47.4848 53.3054 46.4209 51.9975 46.4209Z" fill="#108E66"/>
<path d="M59.7963 46.4209C58.4906 46.4209 57.4277 47.4848 57.4277 48.7895C57.4277 50.0942 58.4916 51.1581 59.7963 51.1581C61.1032 51.1581 62.1671 50.0942 62.1671 48.7895C62.1671 47.4848 61.1032 46.4209 59.7963 46.4209Z" fill="#108E66"/>
</svg>
