<svg width="301" height="300" viewBox="0 0 301 300" fill="none" xmlns="http://www.w3.org/2000/svg">
<g opacity="0.2" clip-path="url(#clip0_2105_22797)">
<path d="M282.079 27.3903V219.877C282.079 222.415 281.075 224.849 279.289 226.643C277.502 228.438 275.079 229.448 272.552 229.449H189.72C187.193 229.448 184.77 228.438 182.983 226.643C181.197 224.849 180.193 222.415 180.193 219.877V27.384C180.193 24.8487 181.196 22.4172 182.982 20.6245C184.767 18.8318 187.189 17.8246 189.714 17.8246H225.267L225.299 17.9325C226.183 21.1358 228.224 23.2164 230.485 23.2164H231.749C234.017 23.2164 236.051 21.1358 236.942 17.9325L236.973 17.8246H272.52C273.774 17.8205 275.016 18.0648 276.176 18.5437C277.335 19.0225 278.389 19.7264 279.277 20.6151C280.165 21.5038 280.87 22.5597 281.35 23.7223C281.831 24.885 282.079 26.1314 282.079 27.3903Z" fill="white"/>
<path d="M282.079 165.414V27.3903C282.079 24.8533 281.075 22.4203 279.288 20.6264C277.502 18.8324 275.079 17.8246 272.552 17.8246H237.005L236.973 17.9325C236.082 21.1358 234.048 23.2164 231.78 23.2164H230.517C228.255 23.2164 226.215 21.1358 225.33 17.9325L225.299 17.8246H189.714C187.189 17.8246 184.767 18.8318 182.982 20.6245C181.196 22.4172 180.193 24.8487 180.193 27.384V165.414H282.079Z" fill="#FCFFFE"/>
<path d="M236.973 17.9325C236.083 21.1358 234.049 23.2164 231.781 23.2164H230.517C228.256 23.2164 226.215 21.1358 225.331 17.9325L225.299 17.8246H195.305C191.709 17.8246 188.231 19.1113 185.496 21.4538C182.76 23.7964 180.945 27.0414 180.377 30.6063H281.889C281.322 27.0425 279.508 23.7983 276.773 21.4559C274.039 19.1135 270.562 17.8261 266.968 17.8246H237.005L236.973 17.9325Z" fill="#D4D4D4"/>
<path d="M288.554 73.3664V54.1399H286.804V29.528C286.804 25.5038 285.212 21.6445 282.379 18.799C279.545 15.9534 275.701 14.3549 271.693 14.3549H190.554C188.57 14.3549 186.605 14.7473 184.772 15.5098C182.938 16.2724 181.272 17.39 179.869 18.799C178.466 20.2079 177.353 21.8806 176.594 23.7215C175.834 25.5624 175.443 27.5354 175.443 29.528V225.11C175.443 227.103 175.834 229.076 176.594 230.917C177.353 232.758 178.466 234.431 179.869 235.84C181.272 237.248 182.938 238.366 184.772 239.129C186.605 239.891 188.57 240.284 190.554 240.284H271.712C275.717 240.279 279.556 238.678 282.385 235.833C285.215 232.988 286.804 229.131 286.804 225.11V89.7511H288.535V78.3903H286.804V73.3664H288.554ZM282.079 214.276C282.077 218.3 280.485 222.158 277.651 225.003C274.818 227.848 270.975 229.448 266.968 229.449H195.305C193.321 229.449 191.356 229.057 189.522 228.294C187.689 227.532 186.023 226.414 184.62 225.005C183.217 223.596 182.104 221.924 181.344 220.083C180.585 218.242 180.194 216.269 180.194 214.276V32.9851C180.197 28.9631 181.791 25.107 184.624 22.2643C187.458 19.4215 191.299 17.8246 195.305 17.8246H225.268L225.299 17.9325C226.184 21.1358 228.224 23.2164 230.486 23.2164H231.749C234.017 23.2164 236.051 21.1358 236.942 17.9325L236.974 17.8246H266.968C270.973 17.8263 274.814 19.4237 277.647 22.2661C280.48 25.1085 282.074 28.9636 282.079 32.9851V214.276Z" fill="#707070" stroke="#263238" stroke-linejoin="round"/>
<path d="M270.506 16.4481H191.767C189.853 16.4473 187.958 16.8253 186.189 17.5604C184.421 18.2955 182.814 19.3734 181.46 20.7325C180.107 22.0915 179.033 23.7051 178.301 25.4809C177.569 27.2568 177.193 29.1601 177.193 31.0821V223.563C177.193 225.484 177.57 227.387 178.303 229.162C179.035 230.937 180.109 232.55 181.462 233.908C182.816 235.267 184.422 236.344 186.191 237.079C187.959 237.813 189.854 238.191 191.767 238.19H270.506C272.419 238.19 274.313 237.812 276.081 237.077C277.848 236.342 279.454 235.264 280.807 233.906C282.16 232.548 283.233 230.935 283.965 229.16C284.697 227.386 285.074 225.484 285.074 223.563V31.0821C285.074 29.1606 284.698 27.2578 283.967 25.4824C283.235 23.707 282.162 22.0937 280.809 20.7347C279.456 19.3757 277.85 18.2977 276.082 17.5622C274.314 16.8267 272.42 16.4481 270.506 16.4481ZM282.079 214.815C282.079 218.696 280.544 222.419 277.811 225.163C275.077 227.907 271.371 229.449 267.505 229.449H194.768C190.903 229.449 187.196 227.907 184.463 225.163C181.73 222.419 180.194 218.696 180.194 214.815V32.4522C180.194 28.5728 181.729 24.8522 184.461 22.109C187.193 19.3657 190.898 17.8246 194.762 17.8246H225.268L225.299 17.9325C226.184 21.1358 228.224 23.2164 230.486 23.2164H231.749C234.017 23.2164 236.051 21.1358 236.942 17.9325L236.974 17.8246H267.474C271.339 17.8246 275.046 19.3664 277.779 22.1108C280.512 24.8552 282.048 28.5774 282.048 32.4586L282.079 214.815Z" fill="#263238" stroke="#263238" stroke-linejoin="round"/>
<path d="M232.241 18.5478C232.241 18.2655 232.158 17.9895 232.002 17.7548C231.845 17.5201 231.623 17.3372 231.364 17.2292C231.104 17.1211 230.818 17.0929 230.543 17.1479C230.267 17.203 230.014 17.3389 229.815 17.5386C229.616 17.7382 229.481 17.9925 229.426 18.2693C229.371 18.5462 229.399 18.8331 229.507 19.0939C229.614 19.3547 229.796 19.5776 230.03 19.7345C230.264 19.8913 230.539 19.975 230.82 19.975C231.007 19.9758 231.192 19.9395 231.365 19.8681C231.538 19.7966 231.695 19.6915 231.827 19.5588C231.959 19.4261 232.064 19.2685 232.135 19.0949C232.206 18.9214 232.242 18.7354 232.241 18.5478Z" fill="white"/>
<path d="M189.247 24.0093C189.247 25.4493 187.636 25.9694 187.63 27.0668V27.1429H189.196V27.625H187.105V27.219C187.105 25.6776 188.716 25.3731 188.716 24.0474C188.716 23.559 188.552 23.2989 188.16 23.2989C187.769 23.2989 187.605 23.578 187.605 24.003V24.4216H187.105V24.0347C187.105 23.3052 187.44 22.8168 188.173 22.8168C188.906 22.8168 189.247 23.2799 189.247 24.0093Z" fill="#263238"/>
<path d="M191.856 24.003V24.1045C191.879 24.3095 191.834 24.5162 191.729 24.6935C191.624 24.8708 191.465 25.0092 191.275 25.0877C191.466 25.1665 191.626 25.3058 191.731 25.4844C191.836 25.6631 191.88 25.8712 191.856 26.0772V26.4451C191.856 27.181 191.515 27.6567 190.782 27.6567C190.05 27.6567 189.715 27.181 189.715 26.4451V26.1216H190.208V26.4832C190.208 26.9146 190.384 27.1746 190.764 27.1746C191.143 27.1746 191.326 26.9209 191.326 26.4325V26.0646C191.326 25.5951 191.124 25.3668 190.726 25.3541H190.441V24.8784H190.782C190.863 24.8788 190.943 24.8622 191.016 24.8296C191.09 24.7971 191.156 24.7494 191.21 24.6896C191.265 24.6298 191.306 24.5593 191.331 24.4825C191.356 24.4057 191.365 24.3245 191.357 24.244V24.022C191.357 23.5336 191.187 23.2799 190.795 23.2799C190.403 23.2799 190.239 23.5463 190.239 23.9776V24.2187H189.746V24.003C189.746 23.2735 190.081 22.7978 190.814 22.7978C191.547 22.7978 191.856 23.2735 191.856 24.003Z" fill="#263238"/>
<path d="M192.878 24.3646V24.9989H192.373V24.3646H192.878ZM192.878 26.9653V27.5996H192.373V26.9653H192.878Z" fill="#263238"/>
<path d="M193.94 24.7959C194.01 24.6703 194.113 24.5665 194.238 24.4959C194.363 24.4254 194.505 24.3909 194.648 24.3963C195.279 24.3963 195.532 24.8466 195.532 25.5317V26.4642C195.532 27.2 195.191 27.6758 194.458 27.6758C193.725 27.6758 193.391 27.2 193.391 26.4642V26.147H193.89V26.5022C193.89 26.9336 194.067 27.1937 194.446 27.1937C194.825 27.1937 195.002 26.9336 195.002 26.5022V25.5698C195.002 25.1448 194.825 24.8847 194.446 24.8847C194.377 24.8822 194.309 24.8933 194.244 24.9175C194.18 24.9417 194.121 24.9785 194.071 25.0257C194.022 25.0729 193.981 25.1296 193.953 25.1925C193.925 25.2555 193.91 25.3233 193.909 25.3922V25.5063H193.416L193.542 22.8485H195.437V23.3243H194.035L193.94 24.7959Z" fill="#263238"/>
<path d="M198.192 23.9966V24.1045H197.731V23.9776C197.731 23.5526 197.554 23.2989 197.162 23.2989C196.77 23.2989 196.587 23.559 196.587 24.0664V25.1194C196.643 24.9621 196.749 24.8275 196.888 24.7359C197.027 24.6443 197.192 24.6008 197.358 24.6119C197.99 24.6119 198.242 25.056 198.242 25.741V26.4642C198.242 27.2 197.876 27.6757 197.15 27.6757C196.423 27.6757 196.057 27.2 196.057 26.4642V24.0284C196.057 23.2735 196.398 22.7978 197.15 22.7978C197.901 22.7978 198.192 23.2672 198.192 23.9966ZM196.556 25.7854V26.5022C196.556 26.9336 196.733 27.1937 197.118 27.1937C197.503 27.1937 197.686 26.9336 197.686 26.5022V25.7854C197.686 25.3541 197.503 25.094 197.118 25.094C196.733 25.094 196.556 25.3731 196.556 25.7854Z" fill="#263238"/>
<path d="M250.17 24.206H248.824V27.5806H250.17V24.206Z" fill="#263238"/>
<path d="M251.965 23.5272H250.619V27.5806H251.965V23.5272Z" fill="#263238"/>
<path d="M253.752 23.0515H252.406V27.5806H253.752V23.0515Z" fill="#263238"/>
<path d="M255.547 22.2142H254.201V27.5806H255.547V22.2142Z" fill="#263238"/>
<path d="M272.18 27.4855H264.113V22.5377H272.18V27.4855ZM264.562 27.0351H271.732V22.9881H264.562V27.0351Z" fill="#263238"/>
<path d="M269.494 23.4765H265.236V26.5466H269.494V23.4765Z" fill="#263238"/>
<path d="M272.919 24.428H271.902V25.5952H272.919V24.428Z" fill="#263238"/>
<path d="M261.157 26.4134C261.103 26.4115 261.051 26.3962 261.005 26.369C259.363 25.3858 258.276 26.2992 258.232 26.369C258.202 26.3953 258.168 26.4153 258.13 26.4279C258.093 26.4405 258.053 26.4455 258.014 26.4425C257.974 26.4396 257.936 26.4288 257.901 26.4107C257.865 26.3926 257.834 26.3677 257.809 26.3373C257.754 26.2805 257.723 26.2042 257.723 26.1248C257.723 26.0454 257.754 25.9692 257.809 25.9123C257.866 25.8616 259.255 24.6437 261.29 25.9123C261.323 25.9325 261.353 25.9593 261.376 25.991C261.4 26.0228 261.417 26.0589 261.426 26.0972C261.435 26.1356 261.437 26.1755 261.431 26.2145C261.425 26.2535 261.411 26.291 261.391 26.3246C261.36 26.3549 261.323 26.3785 261.283 26.3938C261.243 26.4091 261.2 26.4158 261.157 26.4134Z" fill="#263238"/>
<path d="M261.764 25.3731C261.711 25.3734 261.659 25.3603 261.612 25.3351C259.237 23.9142 257.645 25.2843 257.626 25.297C257.596 25.3233 257.562 25.3434 257.525 25.3563C257.488 25.3693 257.448 25.3747 257.409 25.3723C257.37 25.37 257.331 25.3599 257.296 25.3426C257.26 25.3253 257.229 25.3012 257.203 25.2716C257.176 25.2421 257.156 25.2076 257.143 25.1703C257.131 25.1329 257.125 25.0933 257.127 25.0539C257.13 25.0144 257.14 24.9758 257.157 24.9402C257.174 24.9047 257.198 24.8729 257.228 24.8466C257.228 24.8466 259.173 23.172 261.922 24.8149C261.955 24.8351 261.985 24.8619 262.008 24.8936C262.032 24.9254 262.049 24.9615 262.058 24.9998C262.067 25.0382 262.069 25.0781 262.063 25.1171C262.057 25.1561 262.043 25.1936 262.023 25.2272C261.996 25.2718 261.957 25.3087 261.912 25.3342C261.867 25.3598 261.816 25.3732 261.764 25.3731Z" fill="#263238"/>
<path d="M262.318 24.2187C262.262 24.2167 262.208 24.2015 262.16 24.1743C259.153 22.3791 257.157 24.0664 257.074 24.1743C257.045 24.2005 257.01 24.2205 256.973 24.2331C256.935 24.2457 256.896 24.2507 256.856 24.2478C256.817 24.2448 256.778 24.234 256.743 24.2159C256.708 24.1978 256.677 24.1729 256.651 24.1425C256.623 24.1148 256.601 24.0817 256.586 24.0452C256.57 24.0088 256.563 23.9696 256.562 23.93C256.563 23.8905 256.57 23.8513 256.586 23.8148C256.601 23.7784 256.623 23.7453 256.651 23.7175C256.651 23.7175 259.045 21.656 262.444 23.6858C262.512 23.7268 262.562 23.7929 262.582 23.87C262.602 23.9471 262.591 24.029 262.551 24.0981C262.524 24.1342 262.488 24.1637 262.448 24.1845C262.408 24.2054 262.363 24.217 262.318 24.2187Z" fill="#263238"/>
<path d="M260.272 26.9145C260.273 27.0654 260.23 27.2132 260.147 27.3392C260.065 27.4652 259.947 27.5637 259.808 27.6223C259.67 27.6809 259.517 27.6969 259.37 27.6682C259.222 27.6396 259.087 27.5676 258.98 27.4614C258.873 27.3552 258.801 27.2196 258.771 27.0717C258.741 26.9239 258.756 26.7705 258.813 26.6311C258.87 26.4916 258.967 26.3724 259.092 26.2884C259.217 26.2045 259.364 26.1597 259.514 26.1597C259.714 26.1597 259.906 26.239 260.048 26.3804C260.19 26.5218 260.27 26.7138 260.272 26.9145Z" fill="#263238"/>
<path d="M276.627 69.8967H186.631V127.728H276.627V69.8967Z" fill="white" stroke="#263238" stroke-linecap="round" stroke-linejoin="round"/>
<path d="M276.627 121.29H186.631V127.735H276.627V121.29Z" fill="white" stroke="#263238" stroke-linecap="round" stroke-linejoin="round"/>
<path d="M276.627 123.574H186.631V125.451H276.627V123.574Z" fill="white" stroke="#263238" stroke-linecap="round" stroke-linejoin="round"/>
<path d="M188.078 63.6612L188.217 55.5735H189.954L190.952 60.6481L192.014 55.5735H193.701L193.839 63.6612H192.677L192.544 58.1806L191.521 63.6612H190.466L189.392 58.1362L189.278 63.6612H188.078Z" fill="#263238"/>
<path d="M196.018 63.6612V60.4896L194.445 55.6052H195.987L196.852 58.447L197.655 55.6052H199.152L197.598 60.4896V63.6612H196.018Z" fill="#263238"/>
<path d="M204.504 63.7754C204.007 63.801 203.513 63.682 203.082 63.4328C202.739 63.211 202.482 62.8772 202.356 62.4877C202.211 62.035 202.143 61.5612 202.153 61.0858V58.1806C202.143 57.6903 202.213 57.2016 202.362 56.7343C202.49 56.3555 202.744 56.0327 203.082 55.8209C203.516 55.5794 204.008 55.4651 204.504 55.4911C204.973 55.4674 205.441 55.5657 205.862 55.7765C206.182 55.9613 206.428 56.2531 206.557 56.6011C206.7 56.9927 206.769 57.4081 206.759 57.8254V58.4851H205.167V57.7239C205.177 57.5485 205.177 57.3728 205.167 57.1974C205.154 57.0504 205.097 56.9108 205.003 56.7978C204.939 56.7423 204.864 56.7003 204.784 56.6741C204.704 56.648 204.619 56.6383 204.535 56.6455C204.45 56.6382 204.363 56.6486 204.282 56.6758C204.2 56.7031 204.125 56.7467 204.061 56.8041C203.956 56.9181 203.89 57.0624 203.872 57.2164C203.846 57.4034 203.833 57.5921 203.834 57.781V61.4601C203.832 61.6579 203.849 61.8554 203.884 62.05C203.91 62.2002 203.983 62.338 204.093 62.4433C204.22 62.5389 204.377 62.5861 204.535 62.5765C204.617 62.5851 204.7 62.5759 204.779 62.5497C204.857 62.5234 204.929 62.4807 204.99 62.4243C205.085 62.3038 205.144 62.1586 205.161 62.0056C205.174 61.824 205.174 61.6417 205.161 61.4601V60.6735H206.752V61.3459C206.762 61.777 206.695 62.2065 206.557 62.6146C206.43 62.97 206.187 63.2719 205.868 63.4709C205.451 63.6992 204.978 63.8047 204.504 63.7754Z" fill="#263238"/>
<path d="M210.012 63.7754C209.524 63.7996 209.038 63.6877 208.61 63.4519C208.267 63.2406 208.006 62.9184 207.87 62.5384C207.714 62.0816 207.639 61.6006 207.649 61.1175V58.0981C207.639 57.6151 207.714 57.1341 207.87 56.6772C208.007 56.3025 208.268 55.9866 208.61 55.7828C209.041 55.5548 209.525 55.4474 210.012 55.472C210.505 55.4462 210.996 55.5535 211.433 55.7828C211.776 55.9898 212.039 56.3073 212.179 56.6836C212.341 57.137 212.418 57.6166 212.406 58.0981V61.1175C212.418 61.6012 212.341 62.0828 212.179 62.5384C212.043 62.9201 211.779 63.2429 211.433 63.4519C210.998 63.6889 210.506 63.8009 210.012 63.7754ZM210.012 62.5828C210.097 62.5918 210.182 62.5836 210.264 62.5585C210.345 62.5334 210.421 62.4921 210.486 62.4369C210.589 62.3309 210.657 62.1959 210.682 62.05C210.715 61.8765 210.732 61.7002 210.732 61.5235V57.7239C210.732 57.5493 210.715 57.375 210.682 57.2037C210.654 57.0586 210.587 56.9244 210.486 56.8168C210.351 56.7119 210.182 56.6621 210.012 56.6772C209.852 56.6658 209.694 56.7157 209.57 56.8168C209.465 56.9222 209.394 57.0572 209.368 57.2037C209.334 57.375 209.317 57.5493 209.317 57.7239V61.5299C209.318 61.7062 209.333 61.8823 209.361 62.0563C209.383 62.2032 209.452 62.339 209.557 62.4433C209.685 62.5475 209.848 62.5976 210.012 62.5828Z" fill="#263238"/>
<path d="M215.767 63.7754C215.273 63.8028 214.781 63.6931 214.345 63.4582C214.006 63.2518 213.753 62.9298 213.631 62.5511C213.485 62.0835 213.417 61.5948 213.429 61.1049V55.5735H215.046V61.3332C215.048 61.5306 215.063 61.7277 215.091 61.9231C215.113 62.0954 215.183 62.2579 215.293 62.3925C215.353 62.4568 215.427 62.5068 215.509 62.5386C215.591 62.5704 215.679 62.5834 215.767 62.5765C215.855 62.5813 215.943 62.5674 216.026 62.5358C216.109 62.5041 216.184 62.4553 216.247 62.3925C216.357 62.2588 216.425 62.0955 216.443 61.9231C216.468 61.7276 216.481 61.5305 216.48 61.3332V55.5735H218.104V61.1049C218.114 61.5947 218.046 62.0829 217.902 62.5511C217.773 62.9193 217.521 63.231 217.188 63.4328C216.754 63.675 216.263 63.7934 215.767 63.7754Z" fill="#263238"/>
<path d="M219.248 63.6612V55.5735H221.339C221.811 55.5615 222.282 55.6235 222.735 55.7575C223.099 55.857 223.416 56.0815 223.632 56.3918C223.855 56.7758 223.963 57.2164 223.942 57.6604C223.946 57.9565 223.919 58.2521 223.86 58.5422C223.805 58.7718 223.704 58.9877 223.563 59.1765C223.396 59.3816 223.178 59.539 222.931 59.6332L224.049 63.5787H222.369L221.44 59.9123H220.865V63.5787L219.248 63.6612ZM220.891 59.0179H221.364C221.583 59.0292 221.801 58.9833 221.996 58.8847C222.149 58.7995 222.265 58.6589 222.318 58.4914C222.385 58.2867 222.417 58.0723 222.413 57.8571C222.431 57.5579 222.361 57.26 222.211 57.0007C222.117 56.8931 221.998 56.8101 221.865 56.7593C221.732 56.7084 221.588 56.6911 221.446 56.709H220.891V59.0179Z" fill="#263238"/>
<path d="M227.107 63.7754C226.668 63.794 226.233 63.6978 225.843 63.4963C225.51 63.3102 225.247 63.0209 225.091 62.6716C224.909 62.2221 224.81 61.7425 224.801 61.2571L226.216 61.016C226.221 61.2958 226.255 61.5743 226.317 61.847C226.354 62.0354 226.444 62.2093 226.576 62.3481C226.695 62.4569 226.851 62.5158 227.012 62.5131C227.094 62.5229 227.178 62.5098 227.254 62.4751C227.33 62.4404 227.395 62.3855 227.441 62.3164C227.519 62.1747 227.558 62.015 227.555 61.8534C227.565 61.5519 227.481 61.255 227.315 61.0034C227.132 60.7469 226.92 60.5128 226.683 60.3056L225.849 59.5761C225.559 59.3345 225.311 59.0449 225.117 58.7198C224.918 58.3593 224.82 57.9517 224.832 57.5399C224.815 57.2572 224.857 56.974 224.957 56.7092C225.058 56.4445 225.213 56.2043 225.414 56.0049C225.86 55.6301 226.431 55.4397 227.012 55.472C227.353 55.4574 227.693 55.5248 228.004 55.6687C228.26 55.7862 228.479 55.9729 228.635 56.2078C228.777 56.4315 228.877 56.6784 228.932 56.9373C228.987 57.1945 229.023 57.4552 229.04 57.7175L227.631 57.9269C227.622 57.7144 227.601 57.5026 227.568 57.2925C227.553 57.1324 227.491 56.9801 227.391 56.8548C227.335 56.7985 227.268 56.7547 227.194 56.7264C227.12 56.6981 227.041 56.6859 226.962 56.6907C226.884 56.6955 226.807 56.7172 226.737 56.7542C226.667 56.7913 226.605 56.8429 226.557 56.9056C226.468 57.0481 226.419 57.2129 226.418 57.3813C226.41 57.6306 226.478 57.8764 226.614 58.0854C226.771 58.2952 226.949 58.4886 227.144 58.6627L227.959 59.3795C228.297 59.6688 228.591 60.0065 228.831 60.3817C229.087 60.8006 229.215 61.286 229.198 61.7772C229.202 62.1366 229.113 62.4908 228.939 62.8049C228.769 63.1074 228.52 63.3574 228.218 63.528C227.875 63.7054 227.492 63.7906 227.107 63.7754Z" fill="#263238"/>
<path d="M229.91 63.6612V55.5735H233.423V56.709H231.527V58.8593H232.974V60.0075H231.527V62.5448H233.423V63.6612H229.91Z" fill="#263238"/>
<path d="M187.699 138.874V132.492H188.571V138.874H187.699Z" fill="#263238"/>
<path d="M189.6 138.874V132.492H190.2L192.006 136.73V132.492H192.746V138.874H192.177L190.351 134.516V138.874H189.6Z" fill="#263238"/>
<path d="M194.439 138.874V133.165H193.365V132.53H196.372V133.165H195.33V138.874H194.439Z" fill="#263238"/>
<path d="M196.984 138.873V132.492H198.248C198.607 132.481 198.965 132.539 199.303 132.663C199.573 132.757 199.799 132.95 199.935 133.203C200.08 133.509 200.149 133.846 200.137 134.186C200.14 134.413 200.113 134.639 200.055 134.858C200.012 135.046 199.928 135.222 199.808 135.372C199.686 135.513 199.529 135.618 199.353 135.676L200.25 138.848H199.398L198.564 135.854H197.875V138.848L196.984 138.873ZM197.869 135.239H198.204C198.418 135.251 198.632 135.22 198.835 135.15C198.989 135.091 199.113 134.975 199.183 134.826C199.265 134.626 199.301 134.409 199.29 134.192C199.315 133.908 199.244 133.625 199.088 133.387C198.979 133.29 198.85 133.217 198.711 133.175C198.571 133.132 198.424 133.12 198.279 133.139H197.888L197.869 135.239Z" fill="#263238"/>
<path d="M202.684 138.918C202.324 138.935 201.967 138.85 201.654 138.671C201.395 138.499 201.201 138.244 201.105 137.947C200.986 137.594 200.931 137.223 200.941 136.85V134.478C200.934 134.109 200.989 133.743 201.105 133.393C201.206 133.108 201.4 132.864 201.654 132.701C201.969 132.528 202.325 132.444 202.684 132.46C203.04 132.443 203.393 132.529 203.701 132.708C203.956 132.869 204.147 133.113 204.245 133.399C204.366 133.745 204.424 134.111 204.415 134.478V136.907C204.421 137.276 204.364 137.643 204.245 137.992C204.148 138.287 203.957 138.541 203.701 138.715C203.39 138.882 203.036 138.952 202.684 138.918ZM202.684 138.22C202.872 138.233 203.059 138.181 203.215 138.074C203.339 137.967 203.426 137.823 203.461 137.662C203.503 137.453 203.522 137.24 203.518 137.028V134.23C203.523 134.017 203.504 133.805 203.461 133.596C203.424 133.441 203.337 133.303 203.215 133.203C203.056 133.103 202.871 133.057 202.684 133.069C202.494 133.057 202.304 133.104 202.141 133.203C202.018 133.303 201.932 133.441 201.894 133.596C201.85 133.804 201.828 134.017 201.831 134.23V137.028C201.829 137.241 201.85 137.453 201.894 137.662C201.93 137.823 202.016 137.967 202.141 138.074C202.298 138.19 202.489 138.25 202.684 138.246V138.22Z" fill="#263238"/>
<path d="M205.311 138.873V132.492H206.694C207.078 132.474 207.462 132.548 207.812 132.708C208.076 132.843 208.284 133.068 208.4 133.342C208.526 133.687 208.586 134.053 208.577 134.421V136.768C208.585 137.156 208.525 137.542 208.4 137.909C208.295 138.203 208.091 138.452 207.825 138.613C207.5 138.791 207.133 138.874 206.764 138.854L205.311 138.873ZM206.195 138.239H206.7C206.945 138.263 207.191 138.195 207.389 138.049C207.537 137.903 207.625 137.705 207.635 137.497C207.668 137.206 207.683 136.914 207.68 136.622V134.547C207.686 134.277 207.664 134.007 207.616 133.742C207.605 133.653 207.575 133.567 207.528 133.49C207.481 133.414 207.419 133.348 207.345 133.298C207.139 133.188 206.907 133.138 206.675 133.152H206.195V138.239Z" fill="#263238"/>
<path d="M211.061 138.918C210.689 138.943 210.319 138.847 210.006 138.645C209.754 138.453 209.575 138.18 209.5 137.871C209.406 137.487 209.362 137.093 209.368 136.698V132.467H210.214V136.736C210.212 136.986 210.231 137.237 210.271 137.484C210.295 137.684 210.378 137.872 210.511 138.023C210.584 138.093 210.671 138.146 210.765 138.18C210.86 138.214 210.961 138.227 211.061 138.22C211.163 138.227 211.265 138.213 211.362 138.18C211.459 138.146 211.547 138.093 211.623 138.023C211.751 137.87 211.832 137.683 211.857 137.484C211.894 137.237 211.911 136.986 211.907 136.736V132.467H212.747V136.698C212.753 137.093 212.709 137.487 212.615 137.871C212.542 138.179 212.366 138.453 212.116 138.645C211.803 138.848 211.432 138.944 211.061 138.918Z" fill="#263238"/>
<path d="M215.273 138.918C214.905 138.94 214.539 138.842 214.231 138.639C213.978 138.448 213.795 138.178 213.713 137.871C213.61 137.524 213.561 137.162 213.567 136.799V134.547C213.559 134.166 213.608 133.785 213.713 133.418C213.795 133.118 213.978 132.856 214.231 132.676C214.534 132.509 214.874 132.418 215.22 132.41C215.567 132.402 215.91 132.478 216.221 132.632C216.456 132.779 216.635 133.003 216.726 133.266C216.834 133.584 216.886 133.919 216.878 134.256V134.757H216.05V134.306C216.052 134.094 216.04 133.882 216.012 133.672C216.001 133.512 215.934 133.362 215.823 133.247C215.672 133.134 215.485 133.082 215.298 133.101C215.102 133.083 214.905 133.139 214.749 133.26C214.627 133.384 214.547 133.544 214.521 133.716C214.486 133.945 214.469 134.176 214.471 134.408V136.945C214.462 137.199 214.49 137.454 214.553 137.7C214.584 137.862 214.677 138.005 214.812 138.1C214.958 138.189 215.128 138.231 215.298 138.22C215.391 138.228 215.485 138.218 215.574 138.19C215.663 138.161 215.745 138.116 215.816 138.055C215.927 137.932 215.996 137.776 216.012 137.611C216.038 137.401 216.051 137.189 216.05 136.977V136.501H216.89V136.977C216.894 137.324 216.847 137.67 216.751 138.004C216.671 138.285 216.497 138.529 216.258 138.696C215.961 138.872 215.617 138.95 215.273 138.918Z" fill="#263238"/>
<path d="M218.426 138.874V133.165H217.346V132.53H220.353V133.165H219.31V138.874H218.426Z" fill="#263238"/>
<path d="M221.01 138.874V132.492H221.882V138.874H221.01Z" fill="#263238"/>
<path d="M224.535 138.918C224.178 138.936 223.822 138.85 223.512 138.671C223.252 138.499 223.059 138.244 222.962 137.947C222.844 137.594 222.788 137.223 222.798 136.85V134.478C222.788 134.109 222.844 133.742 222.962 133.393C223.064 133.108 223.257 132.864 223.512 132.701C223.824 132.526 224.178 132.442 224.535 132.46C224.893 132.442 225.248 132.528 225.559 132.708C225.811 132.871 226.002 133.115 226.102 133.399C226.223 133.745 226.281 134.111 226.273 134.478V136.907C226.279 137.276 226.221 137.643 226.102 137.992C226.003 138.285 225.813 138.539 225.559 138.715C225.245 138.882 224.889 138.953 224.535 138.918ZM224.535 138.22C224.725 138.233 224.915 138.182 225.072 138.074C225.197 137.969 225.282 137.823 225.312 137.662C225.36 137.454 225.381 137.241 225.375 137.028V134.23C225.382 134.017 225.36 133.804 225.312 133.596C225.28 133.441 225.195 133.302 225.072 133.203C224.912 133.103 224.724 133.056 224.535 133.069C224.347 133.058 224.16 133.104 223.998 133.203C223.876 133.303 223.789 133.441 223.752 133.596C223.704 133.804 223.683 134.017 223.689 134.23V137.028C223.683 137.241 223.704 137.454 223.752 137.662C223.787 137.823 223.874 137.967 223.998 138.074C224.154 138.189 224.342 138.249 224.535 138.246V138.22Z" fill="#263238"/>
<path d="M227.145 138.874V132.492H227.745L229.551 136.73V132.492H230.291V138.874H229.722L227.896 134.516V138.874H227.145Z" fill="#263238"/>
<path d="M257.789 147.24H274.163" stroke="#263238" stroke-miterlimit="10"/>
<path d="M220.953 147.24H254.643" stroke="#263238" stroke-miterlimit="10"/>
<path d="M188.205 147.24H217.802" stroke="#263238" stroke-miterlimit="10"/>
<path d="M209.93 151.985H274.164" stroke="#263238" stroke-miterlimit="10"/>
<path d="M188.205 151.985H207.094" stroke="#263238" stroke-miterlimit="10"/>
<path d="M265.035 156.73H274.164" stroke="#263238" stroke-miterlimit="10"/>
<path d="M222.525 156.73H261.882" stroke="#263238" stroke-miterlimit="10"/>
<path d="M188.205 156.73H219.065" stroke="#263238" stroke-miterlimit="10"/>
<path d="M269.445 161.468H274.164" stroke="#263238" stroke-miterlimit="10"/>
<path d="M256.848 161.468H266.292" stroke="#263238" stroke-miterlimit="10"/>
<path d="M210.246 161.468H254.328" stroke="#263238" stroke-miterlimit="10"/>
<path d="M188.205 161.468H207.41" stroke="#263238" stroke-miterlimit="10"/>
<path d="M266.607 75.9228L253.069 80.9847L258.104 83.1985L249.917 93.9504L243.934 87.309L222.841 108.178L210.244 100.903L190.275 118.829H205.57L212.133 111.337L224.098 117.344L242.046 97.1093L252.437 101.537L261.256 85.0951L267.239 88.2541L266.607 75.9228Z" fill="#263238" stroke="#263238" stroke-linecap="round" stroke-linejoin="round"/>
<path d="M264.965 113.298C269.82 108.422 269.82 100.518 264.965 95.6432C260.11 90.768 252.238 90.768 247.383 95.6432C242.528 100.518 242.528 108.422 247.383 113.298C252.238 118.173 260.11 118.173 264.965 113.298Z" fill="white" stroke="#263238" stroke-linecap="round" stroke-linejoin="round"/>
<path d="M256.173 115.22C262.086 115.22 266.88 110.406 266.88 104.468C266.88 98.5296 262.086 93.7158 256.173 93.7158C250.259 93.7158 245.465 98.5296 245.465 104.468C245.465 110.406 250.259 115.22 256.173 115.22Z" fill="white" stroke="#263238" stroke-linecap="round" stroke-linejoin="round"/>
<path d="M260.606 101.194L260.143 102.944H251.469L251.932 101.194H260.606ZM256.385 112.214L251.647 106.06L251.634 104.679H253.983C254.57 104.679 255.066 104.582 255.472 104.388C255.878 104.195 256.186 103.914 256.398 103.546C256.61 103.173 256.716 102.719 256.716 102.186C256.716 101.393 256.495 100.762 256.054 100.295C255.613 99.8275 254.923 99.5938 253.983 99.5938H251.469L251.952 97.71H253.983C255.077 97.71 255.979 97.8965 256.689 98.2695C257.4 98.6425 257.929 99.1594 258.277 99.8204C258.626 100.481 258.8 101.244 258.8 102.108C258.8 102.877 258.657 103.574 258.37 104.197C258.083 104.82 257.627 105.328 257 105.72C256.374 106.112 255.551 106.341 254.532 106.407L254.473 106.421L258.8 112.093V112.214H256.385ZM260.613 97.71L260.143 99.4734L253.209 99.4309L253.679 97.71H260.613Z" fill="#263238"/>
<path d="M194.496 104.601H191.35V118.829H194.496V104.601Z" fill="#FCFFFE"/>
<path d="M200.164 109.713H197.018V118.822H200.164V109.713Z" fill="#FCFFFE"/>
<path d="M205.835 110.024H202.689V118.829H205.835V110.024Z" fill="#FCFFFE"/>
<path d="M211.501 104.601H208.355V118.829H211.501V104.601Z" fill="#FCFFFE"/>
<path d="M217.169 107.703H214.023V118.829H217.169V107.703Z" fill="#FCFFFE"/>
<path d="M222.835 109.098H219.689V118.829H222.835V109.098Z" fill="#FCFFFE"/>
<path d="M228.501 104.601H225.355V118.829H228.501V104.601Z" fill="#FCFFFE"/>
<path d="M234.175 100.414H231.029V118.829H234.175V100.414Z" fill="#FCFFFE"/>
<path d="M239.841 96.0754H236.695V118.829H239.841V96.0754Z" fill="#FCFFFE"/>
<path d="M251.844 175.639H215.166V179.325H251.844V175.639Z" fill="#263238" stroke="#263238" stroke-linecap="round" stroke-linejoin="round"/>
<path d="M263.177 182.166H215.166V185.852H263.177V182.166Z" fill="#263238" stroke="#263238" stroke-linecap="round" stroke-linejoin="round"/>
<path d="M251.844 204.013H215.166V207.698H251.844V204.013Z" fill="#263238" stroke="#263238" stroke-linecap="round" stroke-linejoin="round"/>
<path d="M263.177 210.54H215.166V214.225H263.177V210.54Z" fill="#263238" stroke="#263238" stroke-linecap="round" stroke-linejoin="round"/>
<path d="M205.917 169.48H190.819C189.162 169.48 187.818 170.829 187.818 172.493V187.844C187.818 189.508 189.162 190.857 190.819 190.857H205.917C207.575 190.857 208.918 189.508 208.918 187.844V172.493C208.918 170.829 207.575 169.48 205.917 169.48Z" fill="#D4D4D4"/>
<path d="M198.37 185.478C201.29 185.478 203.657 183.101 203.657 180.168C203.657 177.236 201.29 174.859 198.37 174.859C195.449 174.859 193.082 177.236 193.082 180.168C193.082 183.101 195.449 185.478 198.37 185.478Z" fill="#263238"/>
<path d="M201.433 180.282L196.834 177.618V182.953L201.433 180.282Z" fill="white"/>
<path d="M205.917 197.079H190.819C189.162 197.079 187.818 198.428 187.818 200.093V215.443C187.818 217.107 189.162 218.456 190.819 218.456H205.917C207.575 218.456 208.918 217.107 208.918 215.443V200.093C208.918 198.428 207.575 197.079 205.917 197.079Z" fill="#D4D4D4"/>
<path d="M203.166 209.994C204.391 207.333 203.236 204.177 200.586 202.946C197.935 201.716 194.793 202.875 193.567 205.537C192.341 208.198 193.496 211.353 196.147 212.584C198.797 213.815 201.94 212.655 203.166 209.994Z" fill="#263238"/>
<path d="M201.433 207.888L196.834 205.218V210.553L201.433 207.888Z" fill="white"/>
<path d="M188.949 193.889H274.485" stroke="#263238" stroke-miterlimit="10"/>
<path d="M271.201 38.1739H277.879" stroke="#263238" stroke-linecap="round" stroke-linejoin="round"/>
<path d="M271.201 41.3519H277.879" stroke="#263238" stroke-linecap="round" stroke-linejoin="round"/>
<path d="M271.201 44.5235H277.879" stroke="#263238" stroke-linecap="round" stroke-linejoin="round"/>
<path d="M268.523 36.0616H187.156V46.6422H268.523V36.0616Z" fill="white" stroke="#263238" stroke-linecap="round" stroke-linejoin="round"/>
<path d="M196.821 39.6075C196.822 39.1114 196.677 38.6261 196.403 38.213C196.129 37.8 195.739 37.4779 195.283 37.2875C194.827 37.097 194.325 37.0469 193.84 37.1434C193.356 37.2398 192.91 37.4786 192.561 37.8294C192.212 38.1802 191.974 38.6272 191.878 39.1139C191.782 39.6005 191.832 40.1048 192.021 40.5629C192.211 41.021 192.532 41.4123 192.943 41.6871C193.354 41.9619 193.838 42.108 194.332 42.1067C194.992 42.1067 195.625 41.8434 196.092 41.3747C196.558 40.906 196.821 40.2703 196.821 39.6075Z" fill="white" stroke="#263238" stroke-linecap="round" stroke-linejoin="round"/>
<path d="M191.325 43.1153L189.486 45.4433" stroke="#263238" stroke-width="2" stroke-linecap="round" stroke-linejoin="round"/>
<path d="M192.67 41.4153L191.324 43.1153" stroke="#263238" stroke-linecap="round" stroke-linejoin="round"/>
<path d="M199.449 36.1313V46.6929" stroke="#263238" stroke-linecap="round" stroke-linejoin="round"/>
<path d="M46.331 177.035C46.3369 177.02 46.3369 177.004 46.3309 176.99C46.325 176.976 46.3137 176.964 46.2995 176.959C46.2852 176.953 46.2692 176.953 46.255 176.959C46.2408 176.965 46.2295 176.976 46.2236 176.99C44.4547 181.239 43.0575 185.635 42.0479 190.127C41.024 194.62 40.2541 199.167 39.7421 203.746L39.4199 207.191C39.3694 207.768 39.3062 208.339 39.262 208.916L39.1672 210.635C39.123 211.79 39.0472 212.938 39.0156 214.092L39.0472 217.556L39.0851 219.281C39.0851 219.858 39.1546 220.435 39.1925 221.006C39.281 222.161 39.3504 223.309 39.4515 224.457C39.6726 226.753 40.0201 229.031 40.3675 231.301C40.3705 231.316 40.3784 231.329 40.39 231.338C40.4015 231.348 40.4159 231.353 40.4307 231.352C40.4307 231.352 40.4939 231.352 40.4876 231.295C40.4876 230.147 40.437 228.999 40.4117 227.851C40.3865 226.703 40.2791 225.561 40.2917 224.413C40.3044 223.265 40.2917 222.123 40.2538 220.981V219.262V217.549V214.124L40.3423 210.692L40.3802 208.979C40.3802 208.409 40.4433 207.838 40.4749 207.267L40.6834 203.841C41.0721 199.279 41.7175 194.743 42.6165 190.254C43.4734 185.748 44.7162 181.326 46.331 177.035Z" fill="#263238"/>
<path d="M46.818 194.961C46.823 194.946 46.8219 194.929 46.8148 194.915C46.8076 194.901 46.7952 194.89 46.7801 194.885C46.765 194.88 46.7486 194.881 46.7344 194.888C46.7201 194.895 46.7093 194.908 46.7043 194.923C45.7378 197.775 44.9279 200.678 44.2785 203.619C43.6316 206.573 43.1507 209.562 42.8381 212.57C42.5349 215.57 42.2064 218.577 42.1622 221.59C42.0864 224.611 42.194 227.634 42.4844 230.642C42.4857 230.655 42.4915 230.667 42.5007 230.676C42.5099 230.685 42.522 230.691 42.5349 230.693C42.5507 230.694 42.5667 230.69 42.5795 230.681C42.5924 230.671 42.6013 230.657 42.6044 230.642C42.9518 227.635 43.1603 224.641 43.3688 221.647C43.5772 218.653 43.6088 215.646 43.8047 212.652C43.9873 209.666 44.3374 206.693 44.8533 203.746C45.3499 200.784 46.0057 197.852 46.818 194.961Z" fill="#263238"/>
<path d="M56.7155 201.266C56.7041 201.256 56.6895 201.251 56.6745 201.251C56.6594 201.251 56.6449 201.256 56.6334 201.266C54.1568 202.864 51.9263 204.817 50.0129 207.064C49.0532 208.193 48.189 209.4 47.4291 210.673L46.8985 211.682L46.4815 212.728C46.3395 213.068 46.2171 213.415 46.1151 213.769C46.0078 214.13 45.8877 214.485 45.793 214.841C45.0359 217.71 44.5766 220.65 44.4221 223.613C44.2757 226.561 44.3856 229.515 44.7506 232.443C44.7541 232.456 44.7614 232.468 44.7715 232.477C44.7816 232.486 44.7941 232.492 44.8075 232.494C44.8232 232.494 44.8384 232.488 44.85 232.478C44.8617 232.467 44.8691 232.453 44.8706 232.437L45.6287 223.696C45.8413 220.804 46.2146 217.926 46.7469 215.075C46.829 214.726 46.9301 214.384 47.0185 214.035C47.1004 213.685 47.2016 213.34 47.3217 213.001L47.6755 211.993L48.1304 211.041C48.8183 209.772 49.6107 208.562 50.4993 207.425C52.2693 205.11 54.363 203.063 56.7155 201.348C56.7211 201.343 56.7255 201.337 56.7285 201.33C56.7315 201.323 56.7331 201.315 56.7331 201.307C56.7331 201.3 56.7315 201.292 56.7285 201.285C56.7255 201.278 56.7211 201.271 56.7155 201.266Z" fill="#263238"/>
<path d="M51.9287 212.5C50.642 213.443 49.6087 214.692 48.9217 216.135C48.1949 217.546 47.6291 219.036 47.235 220.575C47.1149 220.956 47.0202 221.343 46.9381 221.729L46.6664 222.89C46.5232 223.671 46.4241 224.458 46.3695 225.25C46.3695 226.043 46.3379 226.836 46.3695 227.629C46.426 228.421 46.5294 229.209 46.6791 229.988C46.6791 229.988 46.6791 230.033 46.7233 230.033C46.7392 230.037 46.756 230.034 46.7701 230.026C46.7843 230.018 46.7946 230.004 46.7991 229.988C46.9802 229.221 47.1194 228.443 47.216 227.66C47.336 226.893 47.4561 226.132 47.5508 225.364C47.6456 224.597 47.7593 223.842 47.8225 223.074C47.8857 222.307 47.9804 221.539 48.1447 220.791C48.4009 219.278 48.8246 217.8 49.4081 216.382C49.9384 214.93 50.8044 213.626 51.935 212.576C51.9406 212.571 51.945 212.564 51.948 212.557C51.951 212.55 51.9526 212.543 51.9526 212.535C51.9526 212.527 51.951 212.52 51.948 212.512C51.945 212.505 51.9406 212.499 51.935 212.494C51.9328 212.496 51.9307 212.498 51.9287 212.5Z" fill="#263238"/>
<path d="M38.0422 221.254C37.72 217.372 37.082 213.528 36.4818 209.69C35.8817 205.852 35.2184 202.021 34.5109 198.202C33.8033 194.384 33.0263 190.59 32.2114 186.784C32.2063 186.77 32.1969 186.757 32.1845 186.748C32.1721 186.739 32.1572 186.734 32.1419 186.734C32.1335 186.735 32.1255 186.738 32.1184 186.743C32.1113 186.748 32.1052 186.754 32.1005 186.761C32.0957 186.768 32.0925 186.776 32.0909 186.784C32.0894 186.793 32.0895 186.801 32.0913 186.81C32.7546 190.616 33.3548 194.466 33.917 198.31C34.4793 202.154 35.0415 205.985 35.5216 209.836C36.0017 213.686 36.3618 217.543 36.8482 221.387L38.257 232.938C38.2605 232.951 38.2678 232.963 38.2779 232.972C38.288 232.981 38.3005 232.987 38.3139 232.989C38.3218 232.99 38.3299 232.989 38.3376 232.986C38.3452 232.984 38.3522 232.98 38.3582 232.975C38.3642 232.969 38.3689 232.963 38.3722 232.955C38.3754 232.948 38.3771 232.94 38.377 232.932C38.4212 231.961 38.4276 230.984 38.4465 230.007C38.4655 229.031 38.4086 228.066 38.3897 227.09C38.3581 225.129 38.1938 223.195 38.0422 221.254Z" fill="#263238"/>
<path d="M35.7312 221.197C35.5227 219.662 35.2384 218.133 34.9479 216.61L34.4046 214.34C34.2277 213.585 34.0634 212.83 33.8423 212.088C33.0721 209.076 32.084 206.125 30.8858 203.258L30.4247 202.192L29.9067 201.146C29.5782 200.448 29.1865 199.775 28.8075 199.097C28.05 197.735 27.1128 196.483 26.0215 195.373C26.0162 195.368 26.0099 195.363 26.0028 195.36C25.9957 195.357 25.9881 195.356 25.9805 195.356C25.9728 195.356 25.9652 195.357 25.9581 195.36C25.9511 195.363 25.9447 195.368 25.9394 195.373C25.9339 195.378 25.9295 195.385 25.9264 195.392C25.9234 195.399 25.9219 195.407 25.9219 195.414C25.9219 195.422 25.9234 195.43 25.9264 195.437C25.9295 195.444 25.9339 195.45 25.9394 195.456C26.9478 196.605 27.7977 197.885 28.4663 199.262C28.8011 199.953 29.1612 200.632 29.4455 201.342L29.9003 202.395L30.3046 203.474C31.3726 206.351 32.2318 209.302 32.8758 212.303C33.2296 213.794 33.4633 215.316 33.7539 216.82L34.114 219.097C34.2466 219.852 34.4046 220.6 34.512 221.362C34.752 222.884 35.03 224.394 35.2953 225.91C35.5606 227.426 35.807 228.954 36.1229 230.477C36.1268 230.491 36.135 230.503 36.1463 230.512C36.1577 230.522 36.1716 230.527 36.186 230.528C36.2017 230.526 36.2162 230.519 36.2267 230.507C36.2372 230.495 36.243 230.48 36.2429 230.464C36.2429 228.916 36.2429 227.362 36.1355 225.815C36.0281 224.267 35.8891 222.738 35.7312 221.197Z" fill="#263238"/>
<path d="M32.5272 221.381C31.8134 219.344 30.9858 217.353 30.0824 215.399C29.1709 213.45 28.1436 211.559 27.0059 209.734C26.9945 209.724 26.9799 209.719 26.9648 209.719C26.9498 209.719 26.9352 209.724 26.9238 209.734C26.9182 209.74 26.9138 209.746 26.9108 209.753C26.9078 209.76 26.9062 209.768 26.9062 209.776C26.9062 209.783 26.9078 209.791 26.9108 209.798C26.9138 209.805 26.9182 209.811 26.9238 209.817C27.9081 211.714 28.7773 213.669 29.5265 215.672C30.3162 217.657 31.0237 219.668 31.6112 221.717C32.1987 223.766 32.6472 225.84 33.1905 227.895C33.7338 229.95 34.2202 232.018 34.852 234.093C34.8555 234.106 34.8628 234.117 34.8729 234.126C34.883 234.135 34.8955 234.141 34.9088 234.143C34.9251 234.142 34.9404 234.135 34.9519 234.123C34.9635 234.111 34.9706 234.096 34.972 234.08C34.9864 231.911 34.7746 229.747 34.3403 227.622C33.9051 225.496 33.2988 223.408 32.5272 221.381Z" fill="#263238"/>
<path d="M32.3946 228.174C32.0034 226.905 31.4309 225.7 30.6953 224.597C30.012 223.458 29.179 222.417 28.2189 221.501C27.7282 221.061 27.2021 220.662 26.6459 220.309C26.0961 219.941 25.4931 219.66 24.8581 219.478C24.8481 219.47 24.8359 219.466 24.8233 219.466C24.8108 219.466 24.7986 219.47 24.7886 219.478C24.7788 219.489 24.7734 219.504 24.7734 219.519C24.7734 219.534 24.7788 219.549 24.7886 219.56C25.9478 220.124 26.9731 220.931 27.7956 221.926C28.6222 222.874 29.3171 223.931 29.8614 225.066C30.4489 226.182 30.7521 227.413 31.2575 228.561C31.4849 229.151 31.706 229.741 31.9714 230.331C32.1891 230.947 32.4487 231.546 32.7484 232.126C32.7531 232.136 32.7603 232.144 32.7692 232.149C32.7781 232.155 32.7884 232.158 32.7989 232.158C32.8069 232.159 32.815 232.158 32.8226 232.155C32.8303 232.153 32.8373 232.149 32.8433 232.144C32.8492 232.138 32.854 232.132 32.8572 232.124C32.8605 232.117 32.8621 232.109 32.8621 232.101C32.8864 231.438 32.8632 230.775 32.7926 230.115C32.6915 229.468 32.5525 228.821 32.3946 228.174Z" fill="#263238"/>
<path d="M32.6345 192.335C30.7052 191.792 28.9602 190.73 27.5875 189.265C26.2149 187.799 25.2667 185.985 24.8453 184.019C23.3734 177.168 28.0924 180.105 23.8661 169.366C19.6398 158.626 20.619 156.14 22.1099 153.038C23.6008 149.936 24.3778 150.919 25.6792 154.998C26.9805 159.077 31.6616 165.433 33.481 177.333C35.3004 189.233 32.6345 192.335 32.6345 192.335Z" fill="#FCFFFE"/>
<path d="M45.1363 180.784C45.1363 180.784 40.9164 179.312 40.7521 171.326C40.5879 163.34 43.8413 164.982 44.3277 155.024C44.8141 145.065 45.4648 138.068 47.2463 137.897C49.0277 137.725 53.7468 142.787 55.3703 153.875C56.9938 164.963 53.254 172.271 50.0069 175.557C46.7598 178.843 45.1363 180.784 45.1363 180.784Z" fill="#FCFFFE"/>
<path d="M30.361 201.951C30.361 201.951 29.3881 196.084 27.4424 193.312C25.4967 190.54 21.2704 188.091 18.5097 182.687C15.7491 177.282 12.6663 174.7 12.8242 182.363C12.9821 190.026 16.425 193.965 20.6197 196.572C24.8144 199.179 30.361 201.951 30.361 201.951Z" fill="#FCFFFE"/>
<path d="M28.5792 212.062C28.5792 212.062 24.6814 204.558 18.9959 199.014C13.3103 193.47 8.76818 190.704 10.3917 193.47C12.0153 196.236 13.9673 196.077 16.709 200.968C19.4507 205.859 18.661 209.443 22.5588 212.215C26.4566 214.987 28.5792 212.062 28.5792 212.062Z" fill="#FCFFFE"/>
<path d="M28.0936 221.679C27.9293 221.19 27.7651 217.6 22.2438 214.669C16.7225 211.739 11.5044 212.874 12.1803 214.34C12.8563 215.805 16.236 218.253 19.6474 219.725C23.0587 221.197 28.0936 221.679 28.0936 221.679Z" fill="#FCFFFE"/>
<path d="M44.8143 202.275C44.8143 202.275 42.3759 199.179 43.6772 192.658C44.9786 186.137 47.8972 187.761 51.1695 184.342C54.4419 180.923 53.7722 180.428 57.0193 176.844C60.2664 173.26 63.185 171.3 64.4864 172.766C65.7877 174.231 63.8546 178.798 61.8899 181.412C59.9253 184.025 56.8361 185.319 55.3958 188.579C53.9554 191.84 54.5808 197.06 50.8473 199.503C47.1138 201.945 44.8143 202.275 44.8143 202.275Z" fill="#FCFFFE"/>
<path d="M52.9316 204.07C52.9316 204.07 58.7499 197.384 63.0014 192.493C67.2529 187.603 68.8449 183.854 69.0091 187.114C69.1734 190.375 70.4684 192.982 67.0571 197.225C63.6458 201.469 52.9316 204.07 52.9316 204.07Z" fill="#FCFFFE"/>
<path d="M49.8498 214.828C49.8498 214.828 49.6856 212.221 58.9404 206.188C68.1952 200.156 72.093 199.014 71.1201 201.463C70.1472 203.911 66.0663 206.353 61.701 210.756C57.3358 215.158 49.8498 214.828 49.8498 214.828Z" fill="#FCFFFE"/>
<path d="M33.0208 191.637C33.0208 191.637 30.854 179.94 28.5987 171.624C26.3435 163.308 24.8652 158.259 24.8652 158.259" stroke="#263238" stroke-linecap="round" stroke-linejoin="round"/>
<path d="M44.7637 180.879C44.7637 180.879 48.712 168.192 50.007 160.542C51.3021 152.892 49.8491 147.171 49.1984 143.745" stroke="#263238" stroke-linecap="round" stroke-linejoin="round"/>
<path d="M29.848 201.716C28.1012 198.698 26.0997 195.835 23.8656 193.159C20.2963 188.922 17.5483 186.638 15.9121 182.56" stroke="#263238" stroke-linecap="round" stroke-linejoin="round"/>
<path d="M44.8145 202.275C44.8145 202.275 46.1158 194.453 49.1986 190.375C52.2815 186.296 58.4535 179.94 60.8856 175.868" stroke="#263238" stroke-linecap="round" stroke-linejoin="round"/>
<path d="M27.7075 221.501C27.7075 221.501 22.243 217.93 18.3516 215.97" stroke="#263238" stroke-linecap="round" stroke-linejoin="round"/>
<path d="M58.9914 254.366C58.6313 244.476 47.6834 237.873 47.6834 237.873H30.9047C30.9047 237.873 19.9569 244.47 19.5842 254.366C19.2114 264.261 31.9913 300.538 31.9913 300.538H46.5842C46.5842 300.538 59.3831 264.255 58.9914 254.366Z" fill="#263238" stroke="#263238" stroke-linecap="round" stroke-linejoin="round"/>
<path d="M49.8429 228.149H28.4336L30.9037 237.873H47.3728L49.8429 228.149Z" fill="#263238" stroke="#263238" stroke-linecap="round" stroke-linejoin="round"/>
<path d="M134.716 174.161C134.716 174.161 129.176 180.06 129.176 181.913C129.176 183.765 129.845 188.154 129.51 189.835C129.176 191.516 115.41 202.141 115.41 202.141L119.605 212.76C119.605 212.76 130.85 194.897 134.21 190.178C137.571 185.459 141.26 180.568 141.595 178.037C141.93 175.506 136.226 173.172 134.716 174.161Z" fill="#D4D4D4" stroke="#263238" stroke-miterlimit="10"/>
<path d="M135.637 217.923L151.954 211.466C151.954 211.466 162.58 199.414 170.716 190.584C178.853 181.754 189.037 183.771 189.037 190.127C189.037 196.483 186.099 205.985 183.389 210.109C180.679 214.232 175.246 224.863 175.246 224.863C175.246 224.863 194.242 229.405 199.441 232.354C204.64 235.304 225.525 250.185 236.265 257.956C243.327 263.031 247.427 265.099 248.558 265.099C248.861 265.099 249.405 265.048 250.049 264.972C252.633 264.667 255.734 261.933 257.958 260.531C261.009 258.628 265.678 255.996 268.394 255.71C272.69 255.254 271.111 261.61 267.946 266.151C264.781 270.693 259.102 272.057 257.093 273.643C255.084 275.229 250.775 276.142 249.177 276.371C247.579 276.599 233.352 270.693 227.243 268.194C221.135 265.695 209.618 265.124 202.657 256.776C200.35 253.956 197.754 251.388 194.912 249.113C194.912 249.113 157.153 250.699 150.368 251.384C143.584 252.069 127.986 252.52 121.429 252.52C114.872 252.52 111.53 249.913 111.53 249.913C111.53 249.913 109.003 246.386 112.837 240.715C116.672 235.044 135.637 217.923 135.637 217.923Z" fill="#6E6E6E" stroke="#263238" stroke-miterlimit="10"/>
<path d="M267.948 266.183C271.106 261.641 272.692 255.285 268.396 255.742C265.68 256.028 261.011 258.666 257.96 260.563C255.743 261.933 252.635 264.667 250.051 265.003C249.419 265.079 248.863 265.13 248.56 265.13C247.606 265.13 244.511 263.659 239.299 260.113C238.566 263.17 236.443 267.033 230.758 269.697C237.625 272.507 247.852 276.624 249.179 276.434C250.765 276.206 255.06 275.298 257.095 273.706C259.129 272.114 264.783 270.725 267.948 266.183Z" fill="#D4D4D4" stroke="#263238" stroke-miterlimit="10"/>
<path d="M267.946 266.183C271.105 261.641 272.69 255.285 268.395 255.742C265.678 256.028 261.01 258.666 257.959 260.563C255.741 261.933 252.633 264.667 250.049 265.003C249.418 265.079 248.862 265.13 248.558 265.13C248.242 265.104 247.931 265.031 247.636 264.915C248.407 266.754 249.089 270.693 243.846 274.854C246.575 275.85 248.647 276.51 249.196 276.434C250.782 276.206 255.078 275.299 257.112 273.706C259.146 272.114 264.781 270.725 267.946 266.183Z" fill="white" stroke="#263238" stroke-miterlimit="10"/>
<path d="M150.572 219.566C150.086 219.222 149.582 218.905 149.062 218.615" stroke="#263238" stroke-miterlimit="10"/>
<path d="M175.24 224.863L154.772 223.658C153.927 222.516 152.949 221.479 151.859 220.569" stroke="#263238" stroke-miterlimit="10"/>
<path d="M138.727 228.548C139.618 227.743 140.642 227.099 141.753 226.646" stroke="#263238" stroke-miterlimit="10"/>
<path d="M132.846 235.127C134.085 233.413 135.44 231.788 136.901 230.261" stroke="#263238" stroke-miterlimit="10"/>
<path d="M135.133 228.935C135.133 228.935 130.565 233.059 129.447 238.336" stroke="#263238" stroke-miterlimit="10"/>
<path d="M135.638 217.924C135.606 218.543 135.485 219.154 135.278 219.738C134.911 220.835 132.561 229.938 126.212 237.759C122.094 242.684 117.12 246.817 111.531 249.957C103.88 243.993 96.8911 237.22 90.6839 229.754C79.9824 217.01 73.6272 204.818 73.9999 190.616C74.3726 176.413 78.9021 167.501 78.9021 167.501L78.5357 156.578C79.2622 154.757 83.0715 152.213 88.1443 155.487C93.2171 158.76 97.2096 166.41 97.2096 166.41L96.4831 170.774C96.4831 170.774 98.6563 172.233 99.926 172.962C101.196 173.692 105.909 177.872 110.078 183.15C114.247 188.427 118.6 204.273 119.326 208.275C120.053 212.278 126.035 213.001 126.035 213.001L132.195 216.287L135.638 217.924Z" fill="#FCFFFE" stroke="#263238" stroke-miterlimit="10"/>
<path d="M97.209 166.41L96.4826 170.774C96.4826 170.774 85.2441 167.133 78.9016 167.501L78.5352 156.578C79.2616 154.757 83.071 152.213 88.1437 155.487C93.2165 158.76 97.209 166.41 97.209 166.41Z" fill="#D4D4D4" stroke="#263238" stroke-miterlimit="10"/>
<path d="M103.558 136.977C103.558 136.977 106.641 145.039 105.845 147.126C105.385 148.339 104.997 149.578 104.682 150.837C104.682 150.837 109.382 155.969 108.473 157.332C107.563 158.696 105.137 159.324 105.137 159.324C105.137 159.324 104.505 167.862 103.981 169.264C103.457 170.666 101.827 172.131 98.466 171.167C95.1052 170.203 90.1841 167.082 88.3584 165.585C86.5327 164.088 85.4082 153.323 85.4082 153.323L89.1986 152.118C89.1986 152.118 88.2826 147.431 88.7437 146.568C89.2049 145.705 94.4293 146.321 93.5322 143.098C92.6352 139.876 90.7716 138.556 91.8203 137.389C92.8689 136.222 103.558 136.977 103.558 136.977Z" fill="#D4D4D4" stroke="#263238" stroke-miterlimit="10"/>
<path d="M104.443 162.388C104.443 162.388 99.0922 162.857 98.3594 158.189" stroke="#263238" stroke-miterlimit="10"/>
<path d="M99.8633 157.802L96.4141 159.229" stroke="#263238" stroke-miterlimit="10"/>
<path d="M102.106 151.053C101.942 151.998 101.474 152.702 101.089 152.632C100.704 152.562 100.514 151.744 100.678 150.799C100.843 149.854 101.31 149.156 101.696 149.226C102.081 149.296 102.27 150.114 102.106 151.053Z" fill="#263238"/>
<path d="M99.3125 148.395C99.3125 148.395 101.77 146.118 103.918 148.014" stroke="#263238" stroke-miterlimit="10"/>
<path d="M107.645 136.381C107.411 138.366 103.558 137.015 103.558 137.015L95.6171 139.387C95.6171 139.387 95.7814 142.699 95.7055 144.893C95.6297 147.088 91.0876 148.566 91.0876 148.566L90.4559 158.576L78.453 158.081L76.7284 154.034C76.7284 154.034 69.1477 146.917 69.9753 139.863C70.4806 135.543 73.7151 131.331 78.9205 129.079C80.7338 128.306 82.6487 127.8 84.6061 127.576C86.7064 127.336 88.8283 127.357 90.9234 127.64C103.002 129.219 107.879 134.37 107.645 136.381Z" fill="#263238" stroke="#263238" stroke-miterlimit="10"/>
<path d="M84.5559 149.175L80.0264 151.712C79.8369 151.363 75.8065 143.91 78.9525 129.067C80.7657 128.294 82.6807 127.787 84.638 127.563C82.806 134.674 82.7428 139.907 83.1029 143.174C83.5072 147.164 84.5496 149.156 84.5559 149.175Z" fill="white" stroke="#263238" stroke-miterlimit="10"/>
<path d="M86.0422 160.984C89.8648 159.478 91.7473 155.145 90.2469 151.306C88.7466 147.468 84.4315 145.578 80.6089 147.084C76.7863 148.591 74.9038 152.924 76.4041 156.762C77.9045 160.6 82.2196 162.491 86.0422 160.984Z" fill="white" stroke="#263238" stroke-miterlimit="10"/>
<path d="M86.1473 189.709C88.5171 196.806 91.4886 203.686 95.0294 210.273C100.835 221.013 109.559 232.665 112.8 231.936C116.041 231.206 134.367 199.534 135.637 196.807C136.907 194.079 138.903 190.07 138.903 190.07C138.903 190.07 143.072 186.975 143.432 185.7C143.793 184.425 142.952 178.379 142.952 178.379C142.952 178.379 145.163 175.462 144.443 174.187C143.723 172.912 142.504 173.311 141.24 174.041C139.977 174.77 137.216 176.806 137.216 176.806C137.569 175.385 137.595 173.901 137.292 172.468C136.749 170.469 135.094 171.142 134.91 172.417C134.727 173.692 134.734 174.954 134.19 176.223C133.414 177.75 132.855 179.379 132.529 181.063C132.169 183.245 131.19 189.15 131.19 189.15C131.19 189.15 121.151 200.403 118.429 203.144C117.083 204.488 114.234 206.683 114.234 206.683L106.817 191.878C106.817 191.878 103.027 178.411 99.0219 174.751C97.0831 172.986 94.6585 171.85 92.0658 171.493C89.4731 171.135 86.8332 171.572 84.4922 172.747" fill="#FCFFFE"/>
<path d="M86.1473 189.709C88.5171 196.806 91.4886 203.686 95.0294 210.273C100.835 221.013 109.559 232.665 112.8 231.936C116.041 231.206 134.367 199.534 135.637 196.807C136.907 194.079 138.903 190.07 138.903 190.07C138.903 190.07 143.072 186.975 143.432 185.7C143.793 184.425 142.952 178.379 142.952 178.379C142.952 178.379 145.163 175.462 144.443 174.187C143.723 172.912 142.504 173.311 141.24 174.041C139.977 174.77 137.216 176.806 137.216 176.806C137.569 175.385 137.595 173.901 137.292 172.468C136.749 170.469 135.094 171.142 134.91 172.417C134.727 173.692 134.734 174.954 134.19 176.223C133.414 177.75 132.855 179.379 132.529 181.063C132.169 183.245 131.19 189.15 131.19 189.15C131.19 189.15 121.151 200.403 118.429 203.144C117.083 204.488 114.234 206.683 114.234 206.683L106.817 191.878C106.817 191.878 103.027 178.411 99.0219 174.751C97.0831 172.986 94.6585 171.85 92.0658 171.493C89.4731 171.135 86.8332 171.572 84.4922 172.747" stroke="#263238" stroke-miterlimit="10"/>
<path d="M137.324 181.418C137.202 181.394 137.087 181.347 136.984 181.278C136.881 181.209 136.793 181.121 136.725 181.017C136.657 180.914 136.61 180.798 136.587 180.676C136.564 180.554 136.565 180.429 136.591 180.308L141.057 159.343C141.109 159.107 141.25 158.901 141.45 158.767C141.65 158.634 141.894 158.583 142.131 158.627C142.252 158.65 142.368 158.697 142.47 158.766C142.573 158.835 142.661 158.924 142.73 159.027C142.798 159.13 142.845 159.246 142.868 159.368C142.891 159.49 142.89 159.615 142.864 159.737L138.391 180.669C138.348 180.911 138.211 181.125 138.011 181.265C137.811 181.405 137.564 181.46 137.324 181.418Z" fill="#FCFFFE" stroke="#263238" stroke-miterlimit="10"/>
<path d="M143.432 185.7C143.792 184.431 142.952 178.379 142.952 178.379C142.952 178.379 145.163 175.462 144.443 174.187C143.723 172.912 142.504 173.311 141.24 174.041C139.977 174.77 137.216 176.806 137.216 176.806C137.568 175.385 137.594 173.901 137.292 172.468C136.749 170.469 135.093 171.142 134.91 172.417C134.727 173.692 134.733 174.954 134.19 176.223C133.414 177.75 132.855 179.379 132.529 181.063C132.169 183.245 131.189 189.15 131.189 189.15C131.189 189.15 129.496 191.053 127.311 193.477L134.556 198.837C135.112 197.834 135.491 197.124 135.637 196.807C136.9 194.073 138.903 190.07 138.903 190.07C138.903 190.07 143.072 186.975 143.432 185.7Z" fill="#D4D4D4" stroke="#263238" stroke-miterlimit="10"/>
<path d="M137.216 176.806C137.216 176.806 135.131 178.456 134.531 179.724" stroke="#263238" stroke-miterlimit="10"/>
<path d="M176.775 193.882C176.775 193.882 175.474 200.759 177.59 205.998C179.706 211.238 189.656 230.223 190.307 233.661C190.957 237.099 188.677 242.834 190.471 244.959C192.265 247.084 200.907 247.743 209.056 247.255C217.206 246.766 221.937 245.777 222.917 242.339C223.896 238.901 224.546 237.099 222.102 237.099C219.657 237.099 217.206 237.429 213.946 236.776C210.686 236.122 203.516 232.025 202.537 231.371C201.558 230.718 200.743 228.751 200.743 228.751C200.743 228.751 198.462 222.04 196.175 206.322C193.889 190.603 195.544 183.898 188.19 181.583C180.837 179.268 172.328 188.738 170.717 190.565" fill="#6E6E6E"/>
<path d="M176.775 193.882C176.775 193.882 175.474 200.759 177.59 205.998C179.706 211.238 189.656 230.223 190.307 233.661C190.957 237.099 188.677 242.834 190.471 244.959C192.265 247.084 200.907 247.743 209.056 247.255C217.206 246.766 221.937 245.777 222.917 242.339C223.896 238.901 224.546 237.099 222.102 237.099C219.657 237.099 217.206 237.429 213.946 236.776C210.686 236.122 203.516 232.025 202.537 231.371C201.558 230.718 200.743 228.751 200.743 228.751C200.743 228.751 198.462 222.04 196.175 206.322C193.889 190.603 195.544 183.898 188.19 181.583C180.837 179.268 172.328 188.738 170.717 190.565" stroke="#263238" stroke-miterlimit="10"/>
<path d="M222.918 242.313C223.897 238.875 224.548 237.074 222.103 237.074C219.658 237.074 217.207 237.404 213.947 236.75C210.688 236.097 203.518 231.999 202.538 231.346C201.559 230.693 200.744 228.726 200.744 228.726C199.839 225.781 199.095 222.789 198.514 219.763C192.772 217.765 188.407 221.558 186.246 224.096C188.343 228.498 190.036 232.285 190.308 233.61C190.94 237.049 188.678 242.783 190.472 244.908C192.266 247.033 200.908 247.693 209.058 247.204C217.207 246.716 221.939 245.777 222.918 242.313Z" fill="#D4D4D4" stroke="#263238" stroke-miterlimit="10"/>
<path d="M222.102 237.099C219.657 237.099 217.206 237.429 213.946 236.776C210.686 236.122 203.516 232.025 202.537 231.371C201.558 230.718 200.743 228.752 200.743 228.752C200.743 228.752 200.547 228.181 200.219 226.982C194.419 226.626 191.204 229.145 189.523 231.365C189.849 232.107 190.111 232.875 190.307 233.661C190.939 237.099 188.677 242.834 190.471 244.959C192.265 247.084 200.907 247.743 209.056 247.255C217.206 246.766 221.937 245.777 222.917 242.339C223.896 238.901 224.546 237.099 222.102 237.099Z" fill="white" stroke="#263238" stroke-miterlimit="10"/>
<path d="M143.269 276.047H79.7617V279.834H143.269V276.047Z" fill="#919191" stroke="#263238" stroke-miterlimit="10"/>
<path d="M135.094 256.472L155.65 297.462C155.802 297.766 155.874 298.104 155.859 298.444C155.844 298.784 155.743 299.115 155.565 299.405C155.387 299.694 155.139 299.934 154.843 300.1C154.547 300.266 154.214 300.354 153.875 300.354C153.52 300.354 153.171 300.258 152.866 300.076C152.56 299.894 152.309 299.633 152.138 299.321L129.434 257.734L135.094 256.472Z" fill="#919191" stroke="#263238" stroke-miterlimit="10"/>
<path d="M89.0732 245.536L70.3804 297.817C70.2577 298.135 70.2182 298.478 70.2655 298.816C70.3129 299.153 70.4456 299.472 70.6509 299.743C70.8562 300.014 71.1273 300.228 71.4382 300.364C71.7492 300.5 72.0897 300.553 72.4272 300.519C72.782 300.486 73.1212 300.356 73.4091 300.145C73.697 299.935 73.923 299.65 74.0633 299.321L94.7967 246.234L89.0732 245.536Z" fill="#919191" stroke="#263238" stroke-miterlimit="10"/>
<path d="M83.8484 182.921C83.8484 182.921 75.0484 170.926 71.277 171.554C67.5056 172.182 63.6963 199.021 68.1184 217.016C72.5405 235.012 87.942 253.611 109.288 259.313C134.128 265.942 155.322 254.239 155.505 252.057C155.689 249.875 132.58 241.007 83.8484 182.921Z" fill="#D4D4D4"/>
<path opacity="0.29" d="M109.289 259.313C134.128 265.942 155.323 254.239 155.506 252.057C155.582 251.137 151.64 249.075 143.503 242.834C102.738 244.286 79.0037 228.085 68.3906 218.165C73.1981 235.793 88.3975 253.731 109.289 259.313Z" fill="black"/>
<path d="M83.8484 182.921C83.8484 182.921 75.0484 170.926 71.277 171.554C67.5056 172.182 63.6963 199.021 68.1184 217.016C72.5405 235.012 87.942 253.611 109.288 259.313C134.128 265.942 155.322 254.239 155.505 252.057C155.689 249.875 132.58 241.007 83.8484 182.921Z" stroke="#263238" stroke-miterlimit="10"/>
<path d="M268.395 274.03C268.395 274.03 261.13 271.429 244.187 270.224C227.244 269.019 211.179 270.858 210.548 272.438C210.067 273.643 212.531 289.438 213.706 296.796C213.873 297.838 214.404 298.786 215.204 299.471C216.004 300.156 217.02 300.532 218.071 300.532H264.282C265.339 300.532 266.361 300.152 267.163 299.461C267.965 298.77 268.494 297.813 268.654 296.764L271.459 278.419C271.63 277.443 271.415 276.437 270.859 275.618C270.304 274.798 269.451 274.228 268.483 274.03H268.395Z" fill="#D4D4D4"/>
<path opacity="0.29" d="M267.594 299.035C245.186 299.086 233.259 287.877 227.618 278.058C225.42 274.252 221.838 271.943 218.142 270.592C213.669 271.093 210.789 271.784 210.561 272.438C210.081 273.643 212.545 289.438 213.72 296.796C213.887 297.838 214.417 298.786 215.217 299.471C216.017 300.156 217.034 300.532 218.085 300.532H264.296C264.92 300.53 265.536 300.396 266.104 300.138C266.673 299.88 267.18 299.504 267.594 299.035Z" fill="black"/>
<path d="M268.395 274.03C268.395 274.03 261.13 271.429 244.187 270.224C227.244 269.019 211.179 270.858 210.548 272.438C210.067 273.643 212.531 289.438 213.706 296.796C213.873 297.838 214.404 298.786 215.204 299.471C216.004 300.156 217.02 300.532 218.071 300.532H264.282C265.339 300.532 266.361 300.152 267.163 299.461C267.965 298.77 268.494 297.813 268.654 296.764L271.459 278.419C271.63 277.443 271.415 276.437 270.859 275.618C270.304 274.798 269.451 274.228 268.483 274.03H268.395Z" stroke="#263238" stroke-miterlimit="10"/>
</g>
<defs>
<clipPath id="clip0_2105_22797">
<rect width="301" height="300" fill="white"/>
</clipPath>
</defs>
</svg>
