<svg width="32" height="32" viewBox="0 0 32 32" fill="none" xmlns="http://www.w3.org/2000/svg">
<path d="M29.9461 8.00004C28.9194 8.46671 27.8127 8.77337 26.6661 8.92004C27.8394 8.21337 28.7461 7.09337 29.1727 5.74671C28.0661 6.41337 26.8394 6.88004 25.5461 7.14671C24.4927 6.00004 23.0127 5.33337 21.3327 5.33337C18.1994 5.33337 15.6394 7.89337 15.6394 11.0534C15.6394 11.5067 15.6927 11.9467 15.7861 12.36C11.0394 12.12 6.81274 9.84004 3.9994 6.38671C3.50607 7.22671 3.22607 8.21337 3.22607 9.25337C3.22607 11.24 4.22607 13 5.77273 14C4.82607 14 3.94607 13.7334 3.17273 13.3334V13.3734C3.17273 16.1467 5.14607 18.4667 7.7594 18.9867C6.92037 19.2163 6.03953 19.2483 5.18607 19.08C5.54821 20.2167 6.25745 21.2113 7.21409 21.9239C8.17073 22.6366 9.32666 23.0316 10.5194 23.0534C8.49758 24.654 5.9914 25.5191 3.41273 25.5067C2.9594 25.5067 2.50607 25.48 2.05273 25.4267C4.58607 27.0534 7.5994 28 10.8261 28C21.3327 28 27.1061 19.28 27.1061 11.72C27.1061 11.4667 27.1061 11.2267 27.0927 10.9734C28.2127 10.1734 29.1727 9.16004 29.9461 8.00004Z" fill="#FCFFFE"/>
</svg>
