<svg width="698" height="600" viewBox="0 0 698 600" fill="none" xmlns="http://www.w3.org/2000/svg">
<path d="M677.554 365.358C655.442 419.723 610.256 478.568 546.668 495.981C450.527 522.315 439.111 593.404 267.019 586.813C241.891 585.953 216.938 582.592 192.6 576.79C180.7 573.923 169.014 570.354 157.614 566.105C57.0723 528.74 4.69072 446.484 0.27427 360.409C-5.47914 247.213 80.5816 193.263 136.508 161.662C192.435 130.061 259.839 7.65517 429.076 12.922C454.918 13.6231 480.585 17.0606 505.568 23.1661C562.516 37.3121 620.395 68.6649 654.03 114.343C656.553 117.771 658.967 121.283 661.27 124.877C706.291 194.972 707.718 291.237 677.554 365.358Z" fill="#E3E8F6"/>
</svg>
