<svg width="874" height="785" viewBox="0 0 874 785" fill="none" xmlns="http://www.w3.org/2000/svg">
<path d="M848.398 481.775C820.711 556.055 764.131 636.457 684.509 660.25C564.127 696.232 549.832 793.363 334.348 784.358C302.883 783.183 271.639 778.591 241.164 770.663C226.263 766.745 211.63 761.868 197.356 756.063C71.463 705.011 5.87348 592.62 0.343427 475.012C-6.8607 320.348 100.9 246.633 170.929 203.455C240.957 160.277 325.357 -6.97096 537.267 0.225342C569.625 1.18332 601.764 5.88008 633.046 14.2223C704.354 33.5506 776.828 76.3893 818.943 138.801C822.103 143.486 825.125 148.283 828.009 153.194C884.381 248.969 886.168 380.499 848.398 481.775Z" fill="#E3E8F6"/>
</svg>
