<svg width="18" height="18" viewBox="0 0 18 18" fill="none" xmlns="http://www.w3.org/2000/svg">
<path d="M9 12C10.2533 12 11.25 11.0017 11.25 9.75C11.25 8.49825 10.2533 7.5 9 7.5C7.74675 7.5 6.75 8.49825 6.75 9.75C6.75 11.0017 7.74675 12 9 12Z" fill="#272B2A" fill-opacity="0.54"/>
<path d="M15.6127 8.3895C15.436 7.52576 15.0907 6.70536 14.5965 5.97525C14.1109 5.25696 13.4923 4.63832 12.774 4.15275C12.0438 3.65874 11.2234 3.31342 10.3597 3.1365C9.90607 3.0445 9.44416 2.99926 8.98125 3.0015V1.5L6 3.75L8.98125 6V4.5015C9.34425 4.5 9.70725 4.5345 10.0575 4.6065C10.7288 4.74406 11.3664 5.01241 11.934 5.39625C12.4938 5.77368 12.9756 6.25547 13.353 6.81525C13.939 7.68167 14.2515 8.70402 14.25 9.75C14.2499 10.4519 14.1096 11.1467 13.8375 11.7938C13.7052 12.1054 13.5434 12.4038 13.3545 12.6847C13.1648 12.964 12.9494 13.2249 12.711 13.464C11.985 14.1886 11.0633 14.6857 10.059 14.8942C9.36055 15.0353 8.64095 15.0353 7.9425 14.8942C7.27092 14.7566 6.63303 14.4879 6.06525 14.1038C5.50611 13.7267 5.02485 13.2454 4.64775 12.6863C4.06242 11.8189 3.74978 10.7964 3.75 9.75H2.25C2.2508 11.0953 2.65266 12.4098 3.40425 13.5255C3.89014 14.2426 4.50815 14.8606 5.22525 15.3465C6.33947 16.1006 7.65458 16.5025 9 16.5C9.45695 16.5 9.91275 16.454 10.3605 16.3627C11.2235 16.1845 12.0434 15.8393 12.774 15.3465C13.1327 15.1048 13.467 14.8287 13.7723 14.5223C14.0779 14.2158 14.3541 13.8813 14.5972 13.5233C15.3507 12.4093 15.7523 11.0948 15.75 9.75C15.75 9.29305 15.704 8.83725 15.6127 8.3895Z" fill="#272B2A" fill-opacity="0.54"/>
</svg>
