<svg width="277" height="184" viewBox="0 0 277 184" fill="none" xmlns="http://www.w3.org/2000/svg">
<path d="M233.455 51.52C233.455 51.52 195.496 12.7769 146.166 9.78507C96.8361 6.79323 68.0698 38.548 54.4383 57.4852C40.8067 76.4225 6.79612 107.975 10.8069 136.867C14.8177 165.758 54.1391 187.68 110.468 178.049C166.796 168.419 183.127 164.765 208.791 172.073C234.455 179.382 267.786 168.419 268.451 126.905C269.116 85.3907 233.455 51.52 233.455 51.52Z" fill="#108E66"/>
<path opacity="0.7" d="M233.455 51.52C233.455 51.52 195.496 12.7769 146.166 9.78507C96.8361 6.79323 68.0698 38.548 54.4383 57.4852C40.8067 76.4225 6.79612 107.975 10.8069 136.867C14.8177 165.758 54.1391 187.68 110.468 178.049C166.796 168.419 183.127 164.765 208.791 172.073C234.455 179.382 267.786 168.419 268.451 126.905C269.116 85.3907 233.455 51.52 233.455 51.52Z" fill="white"/>
<path d="M18.0664 168.047H258.833" stroke="#263238" stroke-width="0.6" stroke-miterlimit="10"/>
<path d="M28.5566 106.547L33.428 153.026" stroke="#263238" stroke-width="0.6" stroke-miterlimit="10"/>
<path d="M32.6404 144.131L30.4355 141.809" stroke="#263238" stroke-width="0.6" stroke-miterlimit="10"/>
<path d="M31.1053 142.504C31.1008 142.149 31.0201 141.798 30.8685 141.477C30.7169 141.155 30.4979 140.869 30.2263 140.639C29.6612 140.134 26.6808 138.887 26.3964 139.932C26.0899 141.069 29.1405 143.307 31.1053 142.504Z" fill="#108E66" stroke="#263238" stroke-width="0.6" stroke-miterlimit="10"/>
<path d="M31.1059 142.504L28.2695 140.742" stroke="#263238" stroke-width="0.6" stroke-miterlimit="10"/>
<path d="M33.1951 149.419L30.9902 147.097" stroke="#263238" stroke-width="0.6" stroke-miterlimit="10"/>
<path d="M31.658 147.793C31.6538 147.437 31.5732 147.087 31.4215 146.765C31.2699 146.443 31.0508 146.157 30.779 145.927C30.2139 145.423 27.2335 144.171 26.9492 145.217C26.6426 146.357 29.6932 148.591 31.658 147.793Z" fill="#108E66" stroke="#263238" stroke-width="0.6" stroke-miterlimit="10"/>
<path d="M31.6586 147.792L28.8223 146.03" stroke="#263238" stroke-width="0.6" stroke-miterlimit="10"/>
<path d="M31.2888 131.232L29.084 128.91" stroke="#263238" stroke-width="0.6" stroke-miterlimit="10"/>
<path d="M29.7528 129.606C29.7483 129.251 29.6679 128.901 29.517 128.579C29.3661 128.257 29.148 127.971 28.8775 127.74C28.3087 127.236 25.3283 125.985 25.0439 127.034C24.7448 128.171 27.788 130.405 29.7528 129.606Z" fill="#108E66" stroke="#263238" stroke-width="0.6" stroke-miterlimit="10"/>
<path d="M29.7524 129.606L26.916 127.843" stroke="#263238" stroke-width="0.6" stroke-miterlimit="10"/>
<path d="M31.8435 136.517L29.6387 134.195" stroke="#263238" stroke-width="0.6" stroke-miterlimit="10"/>
<path d="M30.3064 134.89C30.302 134.535 30.2213 134.185 30.0696 133.863C29.918 133.541 29.6991 133.255 29.4274 133.025C28.8624 132.521 25.882 131.273 25.5976 132.318C25.2911 133.455 28.3416 135.693 30.3064 134.89Z" fill="#108E66" stroke="#263238" stroke-width="0.6" stroke-miterlimit="10"/>
<path d="M30.3071 134.89L27.4707 133.128" stroke="#263238" stroke-width="0.6" stroke-miterlimit="10"/>
<path d="M30.3921 122.643L28.1836 120.321" stroke="#263238" stroke-width="0.6" stroke-miterlimit="10"/>
<path d="M28.8557 121.017C28.8513 120.661 28.7706 120.311 28.619 119.989C28.4673 119.667 28.2484 119.382 27.9768 119.151C27.4117 118.651 24.4276 117.399 24.1469 118.444C23.8367 119.6 26.891 121.808 28.8557 121.017Z" fill="#108E66" stroke="#263238" stroke-width="0.6" stroke-miterlimit="10"/>
<path d="M28.8557 121.017L26.0156 119.254" stroke="#263238" stroke-width="0.6" stroke-miterlimit="10"/>
<path d="M29.488 114.021L27.2832 111.699" stroke="#263238" stroke-width="0.6" stroke-miterlimit="10"/>
<path d="M27.951 112.395C27.9465 112.039 27.8658 111.689 27.7142 111.367C27.5626 111.045 27.3436 110.759 27.072 110.529C26.5069 110.025 23.5265 108.774 23.2421 109.822C22.9356 110.959 25.9862 113.193 27.951 112.395Z" fill="#108E66" stroke="#263238" stroke-width="0.6" stroke-miterlimit="10"/>
<path d="M27.9516 112.395L25.1152 110.632" stroke="#263238" stroke-width="0.6" stroke-miterlimit="10"/>
<path d="M32.2715 141.003L33.9482 138.276" stroke="#263238" stroke-width="0.6" stroke-miterlimit="10"/>
<path d="M33.4391 139.104C33.369 138.755 33.375 138.396 33.4566 138.05C33.5381 137.704 33.6934 137.379 33.9118 137.098C34.3587 136.488 37.0178 134.651 37.5126 135.626C38.0408 136.66 35.5257 139.472 33.4391 139.104Z" fill="#108E66" stroke="#263238" stroke-width="0.6" stroke-miterlimit="10"/>
<path d="M33.4395 139.097L35.9951 136.661" stroke="#263238" stroke-width="0.6" stroke-miterlimit="10"/>
<path d="M30.8125 127.092L32.4929 124.366" stroke="#263238" stroke-width="0.6" stroke-miterlimit="10"/>
<path d="M31.981 125.186C31.9119 124.838 31.9184 124.478 31.9999 124.133C32.0814 123.787 32.2362 123.462 32.4537 123.181C32.9043 122.57 35.5634 120.733 36.0546 121.709C36.5938 122.75 34.0713 125.562 31.981 125.186Z" fill="#108E66" stroke="#263238" stroke-width="0.6" stroke-miterlimit="10"/>
<path d="M31.9805 125.186L34.5362 122.75" stroke="#263238" stroke-width="0.6" stroke-miterlimit="10"/>
<path d="M30.1738 120.98L31.8505 118.253" stroke="#263238" stroke-width="0.6" stroke-miterlimit="10"/>
<path d="M31.3414 119.07C31.2714 118.722 31.2773 118.362 31.3589 118.016C31.4405 117.67 31.5957 117.346 31.8141 117.065C32.2647 116.457 34.9201 114.621 35.415 115.593C35.9505 116.634 33.4281 119.449 31.3414 119.07Z" fill="#108E66" stroke="#263238" stroke-width="0.6" stroke-miterlimit="10"/>
<path d="M31.3418 119.07L33.8975 116.638" stroke="#263238" stroke-width="0.6" stroke-miterlimit="10"/>
<path d="M29.2363 112.019L30.913 109.292" stroke="#263238" stroke-width="0.6" stroke-miterlimit="10"/>
<path d="M30.4039 110.109C30.3339 109.761 30.3398 109.401 30.4214 109.055C30.503 108.709 30.6582 108.385 30.8766 108.104C31.3235 107.493 33.9826 105.657 34.4775 106.632C35.013 107.673 32.5016 110.488 30.4039 110.109Z" fill="#108E66" stroke="#263238" stroke-width="0.6" stroke-miterlimit="10"/>
<path d="M30.4023 110.109L32.958 107.677" stroke="#263238" stroke-width="0.6" stroke-miterlimit="10"/>
<path d="M28.5162 106.286C28.4471 105.937 28.4536 105.578 28.5351 105.232C28.6166 104.886 28.7713 104.562 28.9889 104.28C29.4395 103.673 32.0986 101.837 32.5934 102.808C33.129 103.85 30.6065 106.665 28.5162 106.286Z" fill="#108E66" stroke="#263238" stroke-width="0.6" stroke-miterlimit="10"/>
<path d="M28.5156 106.286L31.0713 103.853" stroke="#263238" stroke-width="0.6" stroke-miterlimit="10"/>
<path d="M28.6674 106.393C28.3118 106.425 27.9534 106.381 27.6163 106.264C27.2792 106.146 26.9714 105.958 26.7137 105.712C26.1524 105.204 24.5975 102.378 25.6058 101.988C26.7174 101.568 29.262 104.361 28.6674 106.393Z" fill="#108E66" stroke="#263238" stroke-width="0.6" stroke-miterlimit="10"/>
<path d="M28.6681 106.392L26.5039 103.603" stroke="#263238" stroke-width="0.6" stroke-miterlimit="10"/>
<path d="M41.3984 112.947L36.5566 159.432" stroke="#263238" stroke-width="0.6" stroke-miterlimit="10"/>
<path d="M37.6277 150.567L35.9473 147.84" stroke="#263238" stroke-width="0.6" stroke-miterlimit="10"/>
<path d="M36.4606 148.672C36.5297 148.323 36.5232 147.964 36.4417 147.618C36.3602 147.272 36.2055 146.948 35.9879 146.666C35.5373 146.059 32.8782 144.223 32.3833 145.194C31.8478 146.225 34.374 149.04 36.4606 148.672Z" fill="#108E66" stroke="#263238" stroke-width="0.6" stroke-miterlimit="10"/>
<path d="M36.4605 148.657L34.0488 146.35" stroke="#263238" stroke-width="0.6" stroke-miterlimit="10"/>
<path d="M38.9714 137.665L37.291 134.938" stroke="#263238" stroke-width="0.6" stroke-miterlimit="10"/>
<path d="M37.8045 135.759C37.8735 135.41 37.8671 135.051 37.7855 134.705C37.704 134.359 37.5493 134.035 37.3317 133.753C36.8812 133.142 34.2221 131.31 33.7272 132.281C33.1917 133.323 35.7141 136.138 37.8045 135.759Z" fill="#108E66" stroke="#263238" stroke-width="0.6" stroke-miterlimit="10"/>
<path d="M37.804 135.759L35.3887 133.452" stroke="#263238" stroke-width="0.6" stroke-miterlimit="10"/>
<path d="M38.4206 142.953L36.7402 140.226" stroke="#263238" stroke-width="0.6" stroke-miterlimit="10"/>
<path d="M37.2537 141.043C37.3227 140.695 37.3163 140.336 37.2347 139.99C37.1532 139.644 36.9985 139.319 36.7809 139.038C36.3304 138.431 33.6713 136.594 33.1764 137.566C32.6409 138.611 35.1633 141.422 37.2537 141.043Z" fill="#108E66" stroke="#263238" stroke-width="0.6" stroke-miterlimit="10"/>
<path d="M37.2532 141.043L34.8379 138.736" stroke="#263238" stroke-width="0.6" stroke-miterlimit="10"/>
<path d="M39.8659 129.076L38.1855 126.353" stroke="#263238" stroke-width="0.6" stroke-miterlimit="10"/>
<path d="M38.6989 127.17C38.768 126.821 38.7615 126.462 38.68 126.116C38.5985 125.77 38.4437 125.446 38.2262 125.164C37.7756 124.553 35.1165 122.721 34.6216 123.692C34.0861 124.752 36.6122 127.549 38.6989 127.17Z" fill="#108E66" stroke="#263238" stroke-width="0.6" stroke-miterlimit="10"/>
<path d="M38.6988 127.17L36.2871 124.862" stroke="#263238" stroke-width="0.6" stroke-miterlimit="10"/>
<path d="M40.7626 120.454L39.0859 117.727" stroke="#263238" stroke-width="0.6" stroke-miterlimit="10"/>
<path d="M39.5954 118.544C39.6654 118.195 39.6594 117.836 39.5779 117.49C39.4963 117.144 39.3411 116.819 39.1227 116.538C38.6721 115.931 36.013 114.095 35.5181 115.066C34.9826 116.111 37.5087 118.923 39.5954 118.544Z" fill="#108E66" stroke="#263238" stroke-width="0.6" stroke-miterlimit="10"/>
<path d="M39.5952 118.544L37.1836 116.237" stroke="#263238" stroke-width="0.6" stroke-miterlimit="10"/>
<path d="M37.9121 147.428L40.1169 145.106" stroke="#263238" stroke-width="0.6" stroke-miterlimit="10"/>
<path d="M39.4473 145.802C39.4505 145.446 39.5304 145.096 39.6814 144.774C39.8324 144.452 40.051 144.166 40.3226 143.936C40.8913 143.432 43.8717 142.181 44.1524 143.226C44.4626 144.363 41.412 146.6 39.4473 145.802Z" fill="#108E66" stroke="#263238" stroke-width="0.6" stroke-miterlimit="10"/>
<path d="M39.4473 145.802L42.4498 143.943" stroke="#263238" stroke-width="0.6" stroke-miterlimit="10"/>
<path d="M39.3594 133.518L41.5642 131.192" stroke="#263238" stroke-width="0.6" stroke-miterlimit="10"/>
<path d="M40.8965 131.888C40.9009 131.532 40.9817 131.182 41.1333 130.86C41.2849 130.538 41.5038 130.252 41.7755 130.022C42.3405 129.518 45.3209 128.266 45.6053 129.315C45.9118 130.452 42.8613 132.686 40.8965 131.888Z" fill="#108E66" stroke="#263238" stroke-width="0.6" stroke-miterlimit="10"/>
<path d="M40.8965 131.888L43.899 130.033" stroke="#263238" stroke-width="0.6" stroke-miterlimit="10"/>
<path d="M39.998 127.402L42.2029 125.08" stroke="#263238" stroke-width="0.6" stroke-miterlimit="10"/>
<path d="M41.5312 125.775C41.5357 125.42 41.6164 125.069 41.768 124.747C41.9196 124.426 42.1386 124.14 42.4102 123.909C42.9753 123.405 45.9557 122.154 46.2401 123.199C46.5355 124.336 43.4997 126.592 41.5312 125.775Z" fill="#108E66" stroke="#263238" stroke-width="0.6" stroke-miterlimit="10"/>
<path d="M41.5312 125.775L44.5375 123.917" stroke="#263238" stroke-width="0.6" stroke-miterlimit="10"/>
<path d="M40.9297 118.441L43.1382 116.115" stroke="#263238" stroke-width="0.6" stroke-miterlimit="10"/>
<path d="M42.4727 116.814C42.4769 116.459 42.5575 116.108 42.7091 115.786C42.8607 115.465 43.0798 115.179 43.3516 114.948C43.9167 114.441 46.8971 113.189 47.1815 114.238C47.4806 115.375 44.43 117.613 42.4727 116.814Z" fill="#108E66" stroke="#263238" stroke-width="0.6" stroke-miterlimit="10"/>
<path d="M42.4648 116.814L45.4711 114.956" stroke="#263238" stroke-width="0.6" stroke-miterlimit="10"/>
<path d="M41.4121 112.685C41.4166 112.33 41.4969 111.98 41.6479 111.658C41.7988 111.337 42.0168 111.051 42.2874 110.82C42.8561 110.315 45.8366 109.064 46.1172 110.109C46.4275 111.246 43.3769 113.484 41.4121 112.685Z" fill="#108E66" stroke="#263238" stroke-width="0.6" stroke-miterlimit="10"/>
<path d="M41.4121 112.685L44.4147 110.827" stroke="#263238" stroke-width="0.6" stroke-miterlimit="10"/>
<path d="M41.5352 112.818C41.1813 112.777 40.8402 112.66 40.5351 112.477C40.23 112.294 39.9678 112.047 39.7662 111.754C39.323 111.14 38.3849 108.056 39.4596 107.883C40.6267 107.699 42.5398 110.956 41.5352 112.818Z" fill="#108E66" stroke="#263238" stroke-width="0.6" stroke-miterlimit="10"/>
<path d="M41.5342 112.818L39.9941 109.649" stroke="#263238" stroke-width="0.6" stroke-miterlimit="10"/>
<path d="M35.8516 94.0167V152.801" stroke="#263238" stroke-width="0.6" stroke-miterlimit="10"/>
<path d="M35.899 143.962L33.9453 141.422" stroke="#263238" stroke-width="0.6" stroke-miterlimit="10"/>
<path d="M34.5403 142.184C34.5729 141.83 34.5292 141.473 34.412 141.138C34.2948 140.802 34.1068 140.495 33.8607 140.238C33.3511 139.678 30.5147 138.129 30.1232 139.134C29.6985 140.238 32.5016 142.784 34.5403 142.184Z" fill="#108E66" stroke="#263238" stroke-width="0.6" stroke-miterlimit="10"/>
<path d="M34.5391 142.184L31.8984 140.138" stroke="#263238" stroke-width="0.6" stroke-miterlimit="10"/>
<path d="M35.899 132.914L33.9453 130.379" stroke="#263238" stroke-width="0.6" stroke-miterlimit="10"/>
<path d="M34.5403 131.137C34.5729 130.783 34.5291 130.427 34.4119 130.092C34.2947 129.757 34.1067 129.451 33.8607 129.194C33.3511 128.631 30.5147 127.082 30.1232 128.09C29.6985 129.194 32.5016 131.744 34.5403 131.137Z" fill="#108E66" stroke="#263238" stroke-width="0.6" stroke-miterlimit="10"/>
<path d="M34.5391 131.137L31.8984 129.091" stroke="#263238" stroke-width="0.6" stroke-miterlimit="10"/>
<path d="M35.899 119.946L33.9453 117.407" stroke="#263238" stroke-width="0.6" stroke-miterlimit="10"/>
<path d="M34.5403 118.168C34.5729 117.814 34.5292 117.458 34.412 117.122C34.2948 116.786 34.1068 116.479 33.8607 116.222C33.3511 115.662 30.5147 114.113 30.1232 115.118C29.6985 116.222 32.5016 118.761 34.5403 118.168Z" fill="#108E66" stroke="#263238" stroke-width="0.6" stroke-miterlimit="10"/>
<path d="M34.5391 118.169L31.8984 116.122" stroke="#263238" stroke-width="0.6" stroke-miterlimit="10"/>
<path d="M35.899 111.313L33.9453 108.773" stroke="#263238" stroke-width="0.6" stroke-miterlimit="10"/>
<path d="M34.5403 109.535C34.5729 109.181 34.5292 108.824 34.412 108.489C34.2948 108.153 34.1068 107.846 33.8607 107.589C33.3511 107.029 30.5147 105.476 30.1232 106.485C29.6985 107.589 32.5016 110.128 34.5403 109.535Z" fill="#108E66" stroke="#263238" stroke-width="0.6" stroke-miterlimit="10"/>
<path d="M34.5391 109.535L31.8984 107.489" stroke="#263238" stroke-width="0.6" stroke-miterlimit="10"/>
<path d="M35.899 102.639L33.9453 100.103" stroke="#263238" stroke-width="0.6" stroke-miterlimit="10"/>
<path d="M34.5403 100.865C34.5729 100.511 34.5292 100.154 34.412 99.8185C34.2948 99.4828 34.1068 99.1759 33.8607 98.9185C33.3511 98.3591 30.5147 96.8062 30.1232 97.8145C29.6985 98.9185 32.5016 101.458 34.5403 100.865Z" fill="#108E66" stroke="#263238" stroke-width="0.6" stroke-miterlimit="10"/>
<path d="M34.5391 100.865L31.8984 98.8191" stroke="#263238" stroke-width="0.6" stroke-miterlimit="10"/>
<path d="M35.8535 147.336L37.8072 144.797" stroke="#263238" stroke-width="0.6" stroke-miterlimit="10"/>
<path d="M37.2136 145.559C37.181 145.205 37.2247 144.848 37.3419 144.512C37.4591 144.176 37.6471 143.869 37.8932 143.612C38.4028 143.053 41.2392 141.5 41.6307 142.508C42.0554 143.612 39.2523 146.151 37.2136 145.559Z" fill="#108E66" stroke="#263238" stroke-width="0.6" stroke-miterlimit="10"/>
<path d="M37.2129 145.559L40.0086 143.402" stroke="#263238" stroke-width="0.6" stroke-miterlimit="10"/>
<path d="M35.8535 129.768L37.8072 127.229" stroke="#263238" stroke-width="0.6" stroke-miterlimit="10"/>
<path d="M37.2136 127.99C37.181 127.636 37.2247 127.28 37.3419 126.944C37.4591 126.608 37.6471 126.301 37.8932 126.044C38.4028 125.484 41.2392 123.931 41.6307 124.94C42.0554 126.044 39.2523 128.583 37.2136 127.99Z" fill="#108E66" stroke="#263238" stroke-width="0.6" stroke-miterlimit="10"/>
<path d="M37.2129 127.99L40.0086 125.834" stroke="#263238" stroke-width="0.6" stroke-miterlimit="10"/>
<path d="M35.8535 121.094L37.8072 118.555" stroke="#263238" stroke-width="0.6" stroke-miterlimit="10"/>
<path d="M37.2136 119.317C37.181 118.963 37.2247 118.606 37.3419 118.27C37.4591 117.934 37.6471 117.627 37.8932 117.37C38.4028 116.811 41.2392 115.261 41.6307 116.266C42.0554 117.37 39.2523 119.909 37.2136 119.317Z" fill="#108E66" stroke="#263238" stroke-width="0.6" stroke-miterlimit="10"/>
<path d="M37.2129 119.317L40.0086 117.16" stroke="#263238" stroke-width="0.6" stroke-miterlimit="10"/>
<path d="M35.8535 109.635L37.8072 107.095" stroke="#263238" stroke-width="0.6" stroke-miterlimit="10"/>
<path d="M37.2136 107.857C37.181 107.503 37.2247 107.146 37.3419 106.81C37.4591 106.475 37.6471 106.168 37.8932 105.91C38.4028 105.351 41.2392 103.798 41.6307 104.806C42.0554 105.91 39.2523 108.45 37.2136 107.857Z" fill="#108E66" stroke="#263238" stroke-width="0.6" stroke-miterlimit="10"/>
<path d="M37.2129 107.857L40.0086 105.701" stroke="#263238" stroke-width="0.6" stroke-miterlimit="10"/>
<path d="M35.8535 100.622L37.8072 98.0831" stroke="#263238" stroke-width="0.6" stroke-miterlimit="10"/>
<path d="M37.2136 98.8449C37.181 98.4909 37.2247 98.134 37.3419 97.7982C37.4591 97.4624 37.6471 97.1555 37.8932 96.8982C38.4028 96.3388 41.2392 94.7895 41.6307 95.7942C42.0554 96.8982 39.2523 99.4374 37.2136 98.8449Z" fill="#108E66" stroke="#263238" stroke-width="0.6" stroke-miterlimit="10"/>
<path d="M37.2129 98.8448L40.0086 96.6884" stroke="#263238" stroke-width="0.6" stroke-miterlimit="10"/>
<path d="M35.7392 94.8484C35.7063 94.4947 35.7496 94.138 35.8661 93.8023C35.9827 93.4666 36.1698 93.1595 36.4151 92.9017C36.9284 92.3423 39.7611 90.7931 40.1526 91.7977C40.5773 92.9017 37.7742 95.4409 35.7392 94.8484Z" fill="#108E66" stroke="#263238" stroke-width="0.6" stroke-miterlimit="10"/>
<path d="M35.7402 94.8484L38.5323 92.6919" stroke="#263238" stroke-width="0.6" stroke-miterlimit="10"/>
<path d="M35.8719 94.9698C35.5154 94.9651 35.164 94.8842 34.8416 94.7324C34.5192 94.5807 34.2333 94.3617 34.0032 94.0903C33.4972 93.5273 32.2452 90.5538 33.2978 90.2741C34.439 89.9687 36.677 93.0121 35.8719 94.9698Z" fill="#108E66" stroke="#263238" stroke-width="0.6" stroke-miterlimit="10"/>
<path d="M35.8733 94.9698L34.0156 91.9742" stroke="#263238" stroke-width="0.6" stroke-miterlimit="10"/>
<path d="M38.2762 168.047H32.031L31.248 152.323H39.0591L38.2762 168.047Z" fill="#263238" stroke="#263238" stroke-width="0.6" stroke-miterlimit="10"/>
<path d="M237.883 106.547L242.75 153.026" stroke="#263238" stroke-width="0.6" stroke-miterlimit="10"/>
<path d="M241.968 144.131L239.76 141.809" stroke="#263238" stroke-width="0.6" stroke-miterlimit="10"/>
<path d="M240.427 142.504C240.423 142.149 240.342 141.798 240.191 141.477C240.039 141.155 239.82 140.869 239.549 140.639C238.983 140.134 235.999 138.887 235.719 139.932C235.412 141.069 238.466 143.307 240.427 142.504Z" fill="#108E66" stroke="#263238" stroke-width="0.6" stroke-miterlimit="10"/>
<path d="M240.432 142.504L237.592 140.742" stroke="#263238" stroke-width="0.6" stroke-miterlimit="10"/>
<path d="M242.521 149.419L240.312 147.097" stroke="#263238" stroke-width="0.6" stroke-miterlimit="10"/>
<path d="M240.985 147.793C240.98 147.437 240.9 147.087 240.748 146.765C240.597 146.443 240.377 146.157 240.106 145.927C239.537 145.423 236.557 144.171 236.276 145.217C235.966 146.357 239.02 148.591 240.985 147.793Z" fill="#108E66" stroke="#263238" stroke-width="0.6" stroke-miterlimit="10"/>
<path d="M240.985 147.792L238.145 146.03" stroke="#263238" stroke-width="0.6" stroke-miterlimit="10"/>
<path d="M240.617 131.232L238.408 128.91" stroke="#263238" stroke-width="0.6" stroke-miterlimit="10"/>
<path d="M239.08 129.606C239.075 129.25 238.995 128.9 238.843 128.578C238.692 128.256 238.473 127.971 238.201 127.74C237.636 127.236 234.652 125.985 234.371 127.034C234.065 128.171 237.104 130.405 239.08 129.606Z" fill="#108E66" stroke="#263238" stroke-width="0.6" stroke-miterlimit="10"/>
<path d="M239.08 129.606L236.24 127.843" stroke="#263238" stroke-width="0.6" stroke-miterlimit="10"/>
<path d="M241.169 136.517L238.961 134.195" stroke="#263238" stroke-width="0.6" stroke-miterlimit="10"/>
<path d="M239.633 134.89C239.629 134.535 239.548 134.185 239.396 133.863C239.245 133.541 239.026 133.255 238.754 133.025C238.189 132.521 235.205 131.273 234.924 132.318C234.614 133.455 237.668 135.693 239.633 134.89Z" fill="#108E66" stroke="#263238" stroke-width="0.6" stroke-miterlimit="10"/>
<path d="M239.633 134.89L236.793 133.128" stroke="#263238" stroke-width="0.6" stroke-miterlimit="10"/>
<path d="M239.715 122.643L237.51 120.321" stroke="#263238" stroke-width="0.6" stroke-miterlimit="10"/>
<path d="M238.178 121.017C238.173 120.662 238.093 120.312 237.942 119.99C237.791 119.668 237.573 119.382 237.302 119.151C236.733 118.651 233.753 117.399 233.469 118.444C233.162 119.6 236.213 121.808 238.178 121.017Z" fill="#108E66" stroke="#263238" stroke-width="0.6" stroke-miterlimit="10"/>
<path d="M238.178 121.017L235.342 119.254" stroke="#263238" stroke-width="0.6" stroke-miterlimit="10"/>
<path d="M238.814 114.021L236.605 111.699" stroke="#263238" stroke-width="0.6" stroke-miterlimit="10"/>
<path d="M237.278 112.395C237.273 112.039 237.192 111.689 237.041 111.367C236.889 111.045 236.67 110.759 236.399 110.529C235.834 110.025 232.849 108.774 232.569 109.822C232.259 110.959 235.313 113.193 237.278 112.395Z" fill="#108E66" stroke="#263238" stroke-width="0.6" stroke-miterlimit="10"/>
<path d="M237.278 112.395L234.438 110.632" stroke="#263238" stroke-width="0.6" stroke-miterlimit="10"/>
<path d="M241.594 141.003L243.274 138.276" stroke="#263238" stroke-width="0.6" stroke-miterlimit="10"/>
<path d="M242.762 139.104C242.693 138.755 242.7 138.396 242.781 138.05C242.863 137.704 243.017 137.38 243.235 137.098C243.686 136.488 246.345 134.651 246.836 135.626C247.375 136.66 244.86 139.472 242.762 139.104Z" fill="#108E66" stroke="#263238" stroke-width="0.6" stroke-miterlimit="10"/>
<path d="M242.762 139.097L245.317 136.661" stroke="#263238" stroke-width="0.6" stroke-miterlimit="10"/>
<path d="M240.139 127.092L241.815 124.366" stroke="#263238" stroke-width="0.6" stroke-miterlimit="10"/>
<path d="M241.306 125.186C241.236 124.838 241.242 124.478 241.324 124.132C241.405 123.786 241.561 123.462 241.779 123.181C242.226 122.57 244.885 120.733 245.38 121.709C245.915 122.75 243.382 125.562 241.306 125.186Z" fill="#108E66" stroke="#263238" stroke-width="0.6" stroke-miterlimit="10"/>
<path d="M241.307 125.186L243.862 122.75" stroke="#263238" stroke-width="0.6" stroke-miterlimit="10"/>
<path d="M239.496 120.98L241.177 118.253" stroke="#263238" stroke-width="0.6" stroke-miterlimit="10"/>
<path d="M240.665 119.07C240.596 118.722 240.602 118.362 240.684 118.016C240.765 117.671 240.92 117.346 241.137 117.065C241.588 116.457 244.247 114.621 244.738 115.593C245.277 116.634 242.755 119.449 240.665 119.07Z" fill="#108E66" stroke="#263238" stroke-width="0.6" stroke-miterlimit="10"/>
<path d="M240.664 119.07L243.22 116.638" stroke="#263238" stroke-width="0.6" stroke-miterlimit="10"/>
<path d="M238.559 112.019L240.239 109.292" stroke="#263238" stroke-width="0.6" stroke-miterlimit="10"/>
<path d="M239.725 110.109C239.656 109.761 239.663 109.402 239.744 109.056C239.826 108.71 239.98 108.385 240.198 108.104C240.648 107.493 243.308 105.657 243.799 106.632C244.338 107.673 241.815 110.488 239.725 110.109Z" fill="#108E66" stroke="#263238" stroke-width="0.6" stroke-miterlimit="10"/>
<path d="M239.727 110.109L242.282 107.677" stroke="#263238" stroke-width="0.6" stroke-miterlimit="10"/>
<path d="M237.842 106.286C237.773 105.937 237.78 105.578 237.861 105.232C237.943 104.886 238.098 104.562 238.315 104.28C238.766 103.673 241.425 101.837 241.916 102.808C242.455 103.85 239.933 106.665 237.842 106.286Z" fill="#108E66" stroke="#263238" stroke-width="0.6" stroke-miterlimit="10"/>
<path d="M237.842 106.286L240.397 103.853" stroke="#263238" stroke-width="0.6" stroke-miterlimit="10"/>
<path d="M237.99 106.393C237.635 106.425 237.276 106.381 236.939 106.264C236.602 106.146 236.294 105.958 236.036 105.712C235.475 105.204 233.924 102.378 234.928 101.988C236.044 101.568 238.581 104.361 237.99 106.393Z" fill="#108E66" stroke="#263238" stroke-width="0.6" stroke-miterlimit="10"/>
<path d="M237.991 106.392L235.83 103.603" stroke="#263238" stroke-width="0.6" stroke-miterlimit="10"/>
<path d="M250.725 112.947L245.883 159.432" stroke="#263238" stroke-width="0.6" stroke-miterlimit="10"/>
<path d="M246.954 150.567L245.273 147.84" stroke="#263238" stroke-width="0.6" stroke-miterlimit="10"/>
<path d="M245.787 148.672C245.855 148.323 245.848 147.964 245.766 147.618C245.684 147.272 245.529 146.948 245.31 146.666C244.86 146.059 242.201 144.223 241.709 145.194C241.166 146.225 243.696 149.04 245.787 148.672Z" fill="#108E66" stroke="#263238" stroke-width="0.6" stroke-miterlimit="10"/>
<path d="M245.786 148.657L243.371 146.35" stroke="#263238" stroke-width="0.6" stroke-miterlimit="10"/>
<path d="M248.298 137.665L246.617 134.938" stroke="#263238" stroke-width="0.6" stroke-miterlimit="10"/>
<path d="M247.128 135.759C247.198 135.41 247.192 135.051 247.11 134.705C247.029 134.359 246.873 134.034 246.655 133.753C246.204 133.142 243.545 131.31 243.054 132.281C242.515 133.323 245.041 136.138 247.128 135.759Z" fill="#108E66" stroke="#263238" stroke-width="0.6" stroke-miterlimit="10"/>
<path d="M247.127 135.759L244.715 133.452" stroke="#263238" stroke-width="0.6" stroke-miterlimit="10"/>
<path d="M247.747 142.953L246.066 140.226" stroke="#263238" stroke-width="0.6" stroke-miterlimit="10"/>
<path d="M246.577 141.043C246.647 140.695 246.641 140.335 246.559 139.989C246.478 139.643 246.323 139.319 246.104 139.038C245.654 138.431 242.995 136.594 242.503 137.566C241.964 138.611 244.49 141.422 246.577 141.043Z" fill="#108E66" stroke="#263238" stroke-width="0.6" stroke-miterlimit="10"/>
<path d="M246.578 141.043L244.166 138.736" stroke="#263238" stroke-width="0.6" stroke-miterlimit="10"/>
<path d="M249.192 129.076L247.512 126.353" stroke="#263238" stroke-width="0.6" stroke-miterlimit="10"/>
<path d="M248.025 127.17C248.094 126.821 248.087 126.462 248.005 126.116C247.923 125.77 247.767 125.445 247.549 125.164C247.098 124.553 244.439 122.721 243.948 123.692C243.412 124.752 245.935 127.549 248.025 127.17Z" fill="#108E66" stroke="#263238" stroke-width="0.6" stroke-miterlimit="10"/>
<path d="M248.025 127.17L245.609 124.862" stroke="#263238" stroke-width="0.6" stroke-miterlimit="10"/>
<path d="M250.089 120.454L248.408 117.727" stroke="#263238" stroke-width="0.6" stroke-miterlimit="10"/>
<path d="M248.922 118.544C248.99 118.195 248.983 117.836 248.901 117.49C248.819 117.144 248.664 116.819 248.445 116.538C247.998 115.931 245.339 114.095 244.844 115.066C244.309 116.111 246.831 118.923 248.922 118.544Z" fill="#108E66" stroke="#263238" stroke-width="0.6" stroke-miterlimit="10"/>
<path d="M248.921 118.544L246.506 116.237" stroke="#263238" stroke-width="0.6" stroke-miterlimit="10"/>
<path d="M247.238 147.428L249.443 145.106" stroke="#263238" stroke-width="0.6" stroke-miterlimit="10"/>
<path d="M248.77 145.802C248.774 145.446 248.855 145.096 249.006 144.774C249.158 144.452 249.377 144.166 249.648 143.936C250.214 143.432 253.194 142.181 253.478 143.226C253.785 144.363 250.738 146.6 248.77 145.802Z" fill="#108E66" stroke="#263238" stroke-width="0.6" stroke-miterlimit="10"/>
<path d="M248.77 145.802L251.776 143.943" stroke="#263238" stroke-width="0.6" stroke-miterlimit="10"/>
<path d="M248.686 133.518L250.89 131.192" stroke="#263238" stroke-width="0.6" stroke-miterlimit="10"/>
<path d="M250.223 131.888C250.226 131.532 250.306 131.182 250.457 130.86C250.608 130.538 250.826 130.252 251.098 130.022C251.663 129.518 254.643 128.266 254.928 129.315C255.238 130.452 252.187 132.686 250.223 131.888Z" fill="#108E66" stroke="#263238" stroke-width="0.6" stroke-miterlimit="10"/>
<path d="M250.223 131.888L253.225 130.033" stroke="#263238" stroke-width="0.6" stroke-miterlimit="10"/>
<path d="M249.32 127.402L251.525 125.08" stroke="#263238" stroke-width="0.6" stroke-miterlimit="10"/>
<path d="M250.857 125.775C250.862 125.42 250.943 125.069 251.094 124.747C251.246 124.426 251.465 124.14 251.736 123.909C252.301 123.405 255.282 122.154 255.566 123.199C255.873 124.336 252.822 126.592 250.857 125.775Z" fill="#108E66" stroke="#263238" stroke-width="0.6" stroke-miterlimit="10"/>
<path d="M250.857 125.775L253.86 123.917" stroke="#263238" stroke-width="0.6" stroke-miterlimit="10"/>
<path d="M250.256 118.441L252.461 116.115" stroke="#263238" stroke-width="0.6" stroke-miterlimit="10"/>
<path d="M251.791 116.814C251.794 116.459 251.874 116.108 252.025 115.786C252.176 115.464 252.395 115.179 252.666 114.948C253.235 114.441 256.215 113.189 256.496 114.238C256.806 115.375 253.756 117.613 251.791 116.814Z" fill="#108E66" stroke="#263238" stroke-width="0.6" stroke-miterlimit="10"/>
<path d="M251.791 116.814L254.794 114.956" stroke="#263238" stroke-width="0.6" stroke-miterlimit="10"/>
<path d="M250.734 112.685C250.739 112.33 250.82 111.979 250.971 111.658C251.123 111.336 251.342 111.05 251.613 110.82C252.178 110.315 255.159 109.064 255.443 110.109C255.753 111.246 252.703 113.484 250.734 112.685Z" fill="#108E66" stroke="#263238" stroke-width="0.6" stroke-miterlimit="10"/>
<path d="M250.734 112.685L253.741 110.827" stroke="#263238" stroke-width="0.6" stroke-miterlimit="10"/>
<path d="M250.861 112.818C250.507 112.777 250.165 112.661 249.86 112.477C249.554 112.294 249.291 112.047 249.089 111.754C248.646 111.14 247.711 108.056 248.782 107.883C249.953 107.699 251.877 110.956 250.861 112.818Z" fill="#108E66" stroke="#263238" stroke-width="0.6" stroke-miterlimit="10"/>
<path d="M250.86 112.818L249.32 109.649" stroke="#263238" stroke-width="0.6" stroke-miterlimit="10"/>
<path d="M245.178 94.0167V152.801" stroke="#263238" stroke-width="0.6" stroke-miterlimit="10"/>
<path d="M245.221 143.962L243.271 141.422" stroke="#263238" stroke-width="0.6" stroke-miterlimit="10"/>
<path d="M243.866 142.184C243.899 141.83 243.855 141.473 243.738 141.138C243.621 140.802 243.433 140.495 243.187 140.238C242.674 139.678 239.841 138.129 239.449 139.134C239.025 140.238 241.828 142.784 243.866 142.184Z" fill="#108E66" stroke="#263238" stroke-width="0.6" stroke-miterlimit="10"/>
<path d="M243.865 142.184L241.225 140.138" stroke="#263238" stroke-width="0.6" stroke-miterlimit="10"/>
<path d="M245.221 132.914L243.271 130.379" stroke="#263238" stroke-width="0.6" stroke-miterlimit="10"/>
<path d="M243.866 131.137C243.899 130.783 243.855 130.427 243.738 130.092C243.621 129.757 243.433 129.451 243.187 129.194C242.674 128.631 239.841 127.082 239.449 128.09C239.025 129.194 241.828 131.744 243.866 131.137Z" fill="#108E66" stroke="#263238" stroke-width="0.6" stroke-miterlimit="10"/>
<path d="M243.865 131.137L241.225 129.091" stroke="#263238" stroke-width="0.6" stroke-miterlimit="10"/>
<path d="M245.221 119.946L243.271 117.407" stroke="#263238" stroke-width="0.6" stroke-miterlimit="10"/>
<path d="M243.866 118.168C243.899 117.814 243.855 117.458 243.738 117.122C243.621 116.786 243.433 116.479 243.187 116.222C242.674 115.662 239.841 114.113 239.449 115.118C239.025 116.222 241.828 118.761 243.866 118.168Z" fill="#108E66" stroke="#263238" stroke-width="0.6" stroke-miterlimit="10"/>
<path d="M243.865 118.169L241.225 116.122" stroke="#263238" stroke-width="0.6" stroke-miterlimit="10"/>
<path d="M245.221 111.313L243.271 108.773" stroke="#263238" stroke-width="0.6" stroke-miterlimit="10"/>
<path d="M243.866 109.535C243.899 109.181 243.855 108.824 243.738 108.489C243.621 108.153 243.433 107.846 243.187 107.589C242.674 107.029 239.841 105.476 239.449 106.485C239.025 107.589 241.828 110.128 243.866 109.535Z" fill="#108E66" stroke="#263238" stroke-width="0.6" stroke-miterlimit="10"/>
<path d="M243.865 109.535L241.225 107.489" stroke="#263238" stroke-width="0.6" stroke-miterlimit="10"/>
<path d="M245.221 102.639L243.271 100.103" stroke="#263238" stroke-width="0.6" stroke-miterlimit="10"/>
<path d="M243.866 100.865C243.899 100.511 243.855 100.154 243.738 99.8185C243.621 99.4828 243.433 99.1759 243.187 98.9185C242.674 98.3591 239.841 96.8062 239.449 97.8145C239.025 98.9185 241.828 101.458 243.866 100.865Z" fill="#108E66" stroke="#263238" stroke-width="0.6" stroke-miterlimit="10"/>
<path d="M243.865 100.865L241.225 98.8191" stroke="#263238" stroke-width="0.6" stroke-miterlimit="10"/>
<path d="M245.182 147.336L247.135 144.797" stroke="#263238" stroke-width="0.6" stroke-miterlimit="10"/>
<path d="M246.54 145.559C246.507 145.205 246.551 144.848 246.668 144.512C246.785 144.176 246.973 143.869 247.219 143.612C247.729 143.053 250.565 141.5 250.953 142.508C251.378 143.612 248.575 146.151 246.54 145.559Z" fill="#108E66" stroke="#263238" stroke-width="0.6" stroke-miterlimit="10"/>
<path d="M246.539 145.559L249.335 143.402" stroke="#263238" stroke-width="0.6" stroke-miterlimit="10"/>
<path d="M245.182 129.768L247.135 127.229" stroke="#263238" stroke-width="0.6" stroke-miterlimit="10"/>
<path d="M246.54 127.99C246.507 127.636 246.551 127.28 246.668 126.944C246.785 126.608 246.973 126.301 247.219 126.044C247.729 125.484 250.565 123.931 250.953 124.94C251.378 126.044 248.575 128.583 246.54 127.99Z" fill="#108E66" stroke="#263238" stroke-width="0.6" stroke-miterlimit="10"/>
<path d="M246.539 127.99L249.335 125.834" stroke="#263238" stroke-width="0.6" stroke-miterlimit="10"/>
<path d="M245.182 121.094L247.135 118.555" stroke="#263238" stroke-width="0.6" stroke-miterlimit="10"/>
<path d="M246.54 119.317C246.507 118.963 246.551 118.606 246.668 118.27C246.785 117.934 246.973 117.627 247.219 117.37C247.729 116.811 250.565 115.261 250.953 116.266C251.378 117.37 248.575 119.909 246.54 119.317Z" fill="#108E66" stroke="#263238" stroke-width="0.6" stroke-miterlimit="10"/>
<path d="M246.539 119.317L249.335 117.16" stroke="#263238" stroke-width="0.6" stroke-miterlimit="10"/>
<path d="M245.182 109.635L247.135 107.095" stroke="#263238" stroke-width="0.6" stroke-miterlimit="10"/>
<path d="M246.54 107.857C246.507 107.503 246.551 107.146 246.668 106.81C246.785 106.475 246.973 106.168 247.219 105.91C247.729 105.351 250.565 103.798 250.953 104.806C251.378 105.91 248.575 108.45 246.54 107.857Z" fill="#108E66" stroke="#263238" stroke-width="0.6" stroke-miterlimit="10"/>
<path d="M246.539 107.857L249.335 105.701" stroke="#263238" stroke-width="0.6" stroke-miterlimit="10"/>
<path d="M245.182 100.622L247.135 98.0831" stroke="#263238" stroke-width="0.6" stroke-miterlimit="10"/>
<path d="M246.54 98.8449C246.507 98.4909 246.551 98.134 246.668 97.7982C246.785 97.4624 246.973 97.1555 247.219 96.8982C247.729 96.3388 250.565 94.7895 250.953 95.7942C251.378 96.8982 248.575 99.4374 246.54 98.8449Z" fill="#108E66" stroke="#263238" stroke-width="0.6" stroke-miterlimit="10"/>
<path d="M246.539 98.8448L249.335 96.6884" stroke="#263238" stroke-width="0.6" stroke-miterlimit="10"/>
<path d="M245.063 94.8484C245.031 94.4944 245.074 94.1375 245.192 93.8017C245.309 93.466 245.497 93.1591 245.743 92.9017C246.252 92.3423 249.089 90.7931 249.48 91.7977C249.905 92.9017 247.102 95.4409 245.063 94.8484Z" fill="#108E66" stroke="#263238" stroke-width="0.6" stroke-miterlimit="10"/>
<path d="M245.062 94.8484L247.858 92.6919" stroke="#263238" stroke-width="0.6" stroke-miterlimit="10"/>
<path d="M245.2 94.9698C244.842 94.9652 244.491 94.8843 244.168 94.7325C243.845 94.5808 243.558 94.3618 243.327 94.0903C242.825 93.5273 241.573 90.5538 242.622 90.2741C243.752 89.9687 246.005 93.0121 245.2 94.9698Z" fill="#108E66" stroke="#263238" stroke-width="0.6" stroke-miterlimit="10"/>
<path d="M245.199 94.9698L243.342 91.9742" stroke="#263238" stroke-width="0.6" stroke-miterlimit="10"/>
<path d="M247.604 168.047H241.355L240.576 152.323H248.384L247.604 168.047Z" fill="#263238" stroke="#263238" stroke-width="0.6" stroke-miterlimit="10"/>
<path d="M250.03 43.792C250.031 41.701 249.526 39.6407 248.559 37.7852C247.591 35.9298 246.19 34.3339 244.472 33.1326C242.755 31.9313 240.772 31.16 238.692 30.884C236.612 30.6079 234.496 30.8352 232.522 31.5467C230.549 32.2581 228.777 33.4328 227.356 34.9712C225.935 36.5096 224.907 38.3665 224.358 40.3848C223.81 42.4031 223.758 44.5232 224.206 46.5659C224.654 48.6086 225.589 50.5136 226.933 52.1198C228.857 54.4176 229.91 57.3153 229.909 60.3078V62.0889H244.01V60.3078C244.002 57.3201 245.048 54.4246 246.965 52.1272C248.939 49.7946 250.024 46.8432 250.03 43.792Z" fill="white" stroke="#263238" stroke-width="0.6" stroke-linecap="round" stroke-linejoin="round"/>
<path d="M244.01 62.0925H229.891V65.5738H244.01V62.0925Z" fill="#108E66" stroke="#263238" stroke-width="0.6" stroke-linecap="round" stroke-linejoin="round"/>
<path d="M229.89 65.5812H244.009V67.3218C244.009 67.7835 243.825 68.2262 243.498 68.5526C243.17 68.8791 242.726 69.0625 242.263 69.0625H231.634C231.17 69.0625 230.726 68.8791 230.398 68.5526C230.071 68.2262 229.887 67.7835 229.887 67.3218V65.5812H229.89Z" fill="#108E66" stroke="#263238" stroke-width="0.6" stroke-linecap="round" stroke-linejoin="round"/>
<path d="M231.67 69.0588H242.225V70.1628C242.225 70.7885 241.976 71.3884 241.532 71.8308C241.088 72.2732 240.486 72.5217 239.858 72.5217H234.037C233.409 72.5217 232.807 72.2732 232.363 71.8308C231.919 71.3884 231.67 70.7885 231.67 70.1628V69.0588Z" fill="#263238" stroke="#263238" stroke-width="0.6" stroke-linecap="round" stroke-linejoin="round"/>
<path d="M251.865 43.8618H257.848" stroke="#263238" stroke-width="0.6" stroke-linecap="round" stroke-linejoin="round"/>
<path d="M215.49 43.8618H221.551" stroke="#263238" stroke-width="0.6" stroke-linecap="round" stroke-linejoin="round"/>
<path d="M236.67 28.7371V22.7607" stroke="#263238" stroke-width="0.6" stroke-linecap="round" stroke-linejoin="round"/>
<path d="M247.514 33.0537L251.643 28.9395" stroke="#263238" stroke-width="0.6" stroke-linecap="round" stroke-linejoin="round"/>
<path d="M221.695 58.7805L225.883 54.6074" stroke="#263238" stroke-width="0.6" stroke-linecap="round" stroke-linejoin="round"/>
<path d="M225.706 32.9359L221.695 28.9395" stroke="#263238" stroke-width="0.6" stroke-linecap="round" stroke-linejoin="round"/>
<path d="M251.643 58.7806L247.65 54.8025" stroke="#263238" stroke-width="0.6" stroke-linecap="round" stroke-linejoin="round"/>
<path d="M159.749 39.4201L142.461 15.5995L125.17 39.4201H132.283V65.883H152.64V39.4201H159.749Z" fill="#108E66" stroke="#263238" stroke-width="0.6" stroke-linecap="round" stroke-linejoin="round"/>
<path d="M145.182 80.1306C154.9 78.5658 161.504 69.4479 159.934 59.7651C158.364 50.0823 149.213 43.5014 139.495 45.0662C129.778 46.631 123.173 55.749 124.744 65.4317C126.314 75.1145 135.465 81.6954 145.182 80.1306Z" fill="white" stroke="#263238" stroke-width="0.6" stroke-linecap="round" stroke-linejoin="round"/>
<path d="M155.912 69.4174C159.69 61.9516 156.679 52.8474 149.186 49.0827C141.694 45.318 132.557 48.3183 128.779 55.7842C125 63.25 128.011 72.3542 135.504 76.1189C142.997 79.8836 152.133 76.8833 155.912 69.4174Z" fill="white" stroke="#263238" stroke-width="0.6" stroke-linecap="round" stroke-linejoin="round"/>
<path d="M147.415 64.8674C147.415 60.904 141.779 60.8194 141.779 59.1634C141.779 58.2949 142.237 58.0336 143.178 58.0336C143.987 58.0336 144.656 58.3796 145.45 59.0788L147.296 56.9444C146.438 55.9766 145.275 55.3279 143.998 55.1044V52.8964H141.561V55.2C139.456 55.6527 138.196 57.1468 138.196 59.3474C138.196 63.1599 143.832 63.3954 143.832 65.1397C143.832 65.9898 143.396 66.3578 142.303 66.3578C141.387 66.3578 140.457 66.0119 139.289 65.1397L137.672 67.6642C138.78 68.5772 140.132 69.1488 141.561 69.3092V71.4951H144.009V69.1546C146.288 68.6026 147.415 66.976 147.415 64.8674Z" fill="#108E66" stroke="#263238" stroke-width="0.6" stroke-linecap="round" stroke-linejoin="round"/>
<path d="M54.1414 49.8045C60.4473 48.6649 64.632 42.6474 63.4883 36.3641C62.3446 30.0808 56.3056 25.911 49.9998 27.0506C43.6939 28.1902 39.5092 34.2076 40.6529 40.491C41.7966 46.7743 47.8356 50.9441 54.1414 49.8045Z" fill="white" stroke="#263238" stroke-width="0.6" stroke-linecap="round" stroke-linejoin="round"/>
<path d="M55.3481 27.3461L52.0723 38.4302H63.6763C63.6751 35.9344 62.8633 33.506 61.3621 31.5081C59.861 29.5102 57.7512 28.0501 55.3481 27.3461Z" fill="#108E66" stroke="#263238" stroke-width="0.6" stroke-linecap="round" stroke-linejoin="round"/>
<path d="M59.2793 31.1365L63.8847 25.7269H67.8364" stroke="#263238" stroke-width="0.6" stroke-linecap="round" stroke-linejoin="round"/>
<path d="M70.6348 25.8888H76.5586" stroke="#263238" stroke-width="0.6" stroke-linecap="round" stroke-linejoin="round"/>
<path d="M70.6348 27.3645H76.5586" stroke="#263238" stroke-width="0.6" stroke-linecap="round" stroke-linejoin="round"/>
<path d="M70.6348 28.8402H76.5586" stroke="#263238" stroke-width="0.6" stroke-linecap="round" stroke-linejoin="round"/>
<path d="M70.6348 30.3158H76.5586" stroke="#263238" stroke-width="0.6" stroke-linecap="round" stroke-linejoin="round"/>
<path d="M40.9713 62.2178H37.5957V72.2531H40.9713V62.2178Z" fill="#263238" stroke="#263238" stroke-width="0.6" stroke-linecap="round" stroke-linejoin="round"/>
<path d="M46.274 65.8279H42.8984V72.2532H46.274V65.8279Z" fill="#108E66" stroke="#263238" stroke-width="0.6" stroke-linecap="round" stroke-linejoin="round"/>
<path d="M51.5826 60.0208H48.207V72.2531H51.5826V60.0208Z" fill="#263238" stroke="#263238" stroke-width="0.6" stroke-linecap="round" stroke-linejoin="round"/>
<path d="M56.8892 62.5526H53.5137V72.2568H56.8892V62.5526Z" fill="#108E66" stroke="#263238" stroke-width="0.6" stroke-linecap="round" stroke-linejoin="round"/>
<path d="M62.192 60.3336H58.8164V72.2531H62.192V60.3336Z" fill="#263238" stroke="#263238" stroke-width="0.6" stroke-linecap="round" stroke-linejoin="round"/>
<path d="M67.4986 53.2717H64.123V72.2569H67.4986V53.2717Z" fill="#108E66" stroke="#263238" stroke-width="0.6" stroke-linecap="round" stroke-linejoin="round"/>
<path d="M71.293 53.073H73.2688" stroke="#263238" stroke-width="0.6" stroke-linecap="round" stroke-linejoin="round"/>
<path d="M71.293 56.9075H73.2688" stroke="#263238" stroke-width="0.6" stroke-linecap="round" stroke-linejoin="round"/>
<path d="M71.293 60.7457H73.2688" stroke="#263238" stroke-width="0.6" stroke-linecap="round" stroke-linejoin="round"/>
<path d="M71.293 64.584H73.2688" stroke="#263238" stroke-width="0.6" stroke-linecap="round" stroke-linejoin="round"/>
<path d="M71.293 68.4222H73.2688" stroke="#263238" stroke-width="0.6" stroke-linecap="round" stroke-linejoin="round"/>
<path d="M71.293 72.2568H73.2688" stroke="#263238" stroke-width="0.6" stroke-linecap="round" stroke-linejoin="round"/>
<path d="M39.5273 58.5194L44.6978 61.6364L50.0788 55.8956L55.3933 56.3409L60.5416 54.3058L66.3695 46.6661" stroke="#263238" stroke-width="0.6" stroke-linecap="round" stroke-linejoin="round"/>
<path d="M40.1765 58.5119C40.1765 58.383 40.1381 58.2569 40.0661 58.1497C39.9941 58.0425 39.8918 57.959 39.7721 57.9098C39.6525 57.8606 39.5208 57.848 39.3939 57.8734C39.267 57.8988 39.1506 57.9612 39.0593 58.0527C38.968 58.1441 38.9061 58.2606 38.8813 58.3871C38.8565 58.5137 38.8699 58.6448 38.92 58.7638C38.97 58.8827 39.0544 58.9842 39.1624 59.0553C39.2703 59.1265 39.3971 59.164 39.5265 59.1633C39.6122 59.1633 39.697 59.1464 39.7761 59.1137C39.8552 59.0809 39.9271 59.0328 39.9875 58.9723C40.0479 58.9118 40.0957 58.8399 40.1281 58.7609C40.1606 58.6819 40.177 58.5973 40.1765 58.5119Z" fill="#263238"/>
<path d="M45.3523 61.6363C45.3523 61.5075 45.314 61.3816 45.2421 61.2745C45.1703 61.1674 45.0682 61.0839 44.9488 61.0346C44.8293 60.9853 44.6979 60.9724 44.5711 60.9975C44.4443 61.0226 44.3278 61.0847 44.2364 61.1758C44.145 61.2669 44.0827 61.3829 44.0575 61.5093C44.0323 61.6356 44.0452 61.7666 44.0947 61.8856C44.1442 62.0046 44.2279 62.1064 44.3354 62.1779C44.4429 62.2495 44.5693 62.2877 44.6986 62.2877C44.7846 62.2882 44.8698 62.2717 44.9494 62.2391C45.0289 62.2066 45.1011 62.1586 45.1619 62.098C45.2227 62.0374 45.2709 61.9654 45.3036 61.8862C45.3362 61.8069 45.3528 61.722 45.3523 61.6363Z" fill="#263238"/>
<path d="M50.7293 55.8955C50.7293 55.7665 50.6908 55.6404 50.6188 55.5332C50.5468 55.426 50.4445 55.3426 50.3249 55.2934C50.2052 55.2442 50.0736 55.2315 49.9467 55.2569C49.8198 55.2824 49.7033 55.3448 49.612 55.4362C49.5208 55.5277 49.4588 55.6441 49.434 55.7707C49.4092 55.8973 49.4227 56.0284 49.4727 56.1473C49.5227 56.2663 49.6071 56.3677 49.7151 56.4389C49.8231 56.51 49.9498 56.5476 50.0793 56.5469C50.1649 56.5469 50.2498 56.53 50.3289 56.4972C50.408 56.4644 50.4798 56.4164 50.5402 56.3559C50.6006 56.2953 50.6484 56.2235 50.6809 56.1445C50.7133 56.0655 50.7298 55.9809 50.7293 55.8955Z" fill="#263238"/>
<path d="M56.0437 56.3408C56.0437 56.2118 56.0053 56.0857 55.9333 55.9786C55.8613 55.8714 55.759 55.7879 55.6393 55.7387C55.5197 55.6895 55.388 55.6768 55.2611 55.7022C55.1342 55.7277 55.0178 55.7901 54.9265 55.8815C54.8352 55.973 54.7732 56.0894 54.7484 56.216C54.7236 56.3426 54.7371 56.4737 54.7872 56.5926C54.8372 56.7116 54.9216 56.8131 55.0295 56.8842C55.1375 56.9553 55.2643 56.9929 55.3937 56.9922C55.4794 56.9922 55.5642 56.9753 55.6433 56.9425C55.7224 56.9097 55.7942 56.8617 55.8546 56.8012C55.9151 56.7406 55.9629 56.6688 55.9953 56.5898C56.0278 56.5108 56.0442 56.4262 56.0437 56.3408Z" fill="#263238"/>
<path d="M61.1961 54.2027C61.1961 54.0739 61.1577 53.948 61.0859 53.8409C61.0141 53.7338 60.912 53.6503 60.7925 53.601C60.6731 53.5517 60.5416 53.5388 60.4148 53.5639C60.288 53.589 60.1716 53.6511 60.0801 53.7422C59.9887 53.8333 59.9265 53.9493 59.9012 54.0757C59.876 54.202 59.889 54.333 59.9384 54.452C59.9879 54.571 60.0717 54.6728 60.1792 54.7443C60.2867 54.8159 60.4131 54.8541 60.5424 54.8541C60.7157 54.8541 60.882 54.7855 61.0046 54.6633C61.1272 54.5412 61.1961 54.3755 61.1961 54.2027Z" fill="#263238"/>
<path d="M67.0203 46.6661C67.0203 46.5371 66.9818 46.4111 66.9098 46.3039C66.8379 46.1967 66.7355 46.1132 66.6159 46.064C66.4962 46.0148 66.3646 46.0021 66.2377 46.0276C66.1108 46.053 65.9943 46.1154 65.903 46.2069C65.8118 46.2983 65.7498 46.4147 65.725 46.5413C65.7002 46.6679 65.7137 46.799 65.7637 46.9179C65.8138 47.0369 65.8981 47.1384 66.0061 47.2095C66.1141 47.2806 66.2408 47.3182 66.3703 47.3175C66.543 47.3165 66.7083 47.2475 66.8301 47.1254C66.9519 47.0034 67.0203 46.8382 67.0203 46.6661Z" fill="#263238"/>
<path d="M195.737 152.139H197.842V131.928H195.737V152.139Z" fill="#263238" stroke="#263238" stroke-width="0.6" stroke-linecap="round" stroke-linejoin="round"/>
<path d="M206.219 132.638L209.932 133.07L212.288 112.996L208.575 112.564L206.219 132.638Z" fill="#263238" stroke="#263238" stroke-width="0.6" stroke-linecap="round" stroke-linejoin="round"/>
<path d="M194.115 152.967V149.559H199.459V152.996L220.835 161.545V165.578H219.377V162.513L196.712 157.372L174.645 162.513V165.578H173.227V161.545L194.115 152.967Z" fill="#8C8C8C" stroke="#263238" stroke-width="0.6" stroke-linecap="round" stroke-linejoin="round"/>
<path d="M191.525 138.383H202.051V131.928H191.525V138.383Z" fill="#263238" stroke="#263238" stroke-width="0.6" stroke-linecap="round" stroke-linejoin="round"/>
<path d="M220.854 165.74C220.854 165.293 220.987 164.856 221.236 164.484C221.485 164.113 221.84 163.823 222.254 163.652C222.669 163.481 223.125 163.437 223.565 163.524C224.005 163.612 224.409 163.827 224.726 164.143C225.043 164.46 225.259 164.863 225.346 165.301C225.433 165.74 225.387 166.194 225.215 166.607C225.043 167.02 224.752 167.373 224.378 167.62C224.005 167.868 223.566 168 223.117 167.999C222.82 167.999 222.525 167.941 222.25 167.827C221.975 167.714 221.726 167.547 221.515 167.337C221.305 167.128 221.138 166.878 221.025 166.604C220.911 166.33 220.853 166.036 220.854 165.74Z" fill="#263238" stroke="#263238" stroke-width="0.6" stroke-linecap="round" stroke-linejoin="round"/>
<path d="M222.127 165.74C222.127 165.548 222.184 165.361 222.291 165.202C222.397 165.043 222.549 164.919 222.727 164.846C222.904 164.772 223.099 164.753 223.288 164.791C223.476 164.828 223.649 164.92 223.785 165.055C223.921 165.191 224.013 165.363 224.051 165.551C224.088 165.739 224.069 165.933 223.996 166.11C223.922 166.287 223.798 166.438 223.638 166.545C223.478 166.651 223.29 166.708 223.098 166.708C222.841 166.708 222.594 166.606 222.411 166.424C222.229 166.243 222.127 165.997 222.127 165.74Z" fill="white" stroke="#263238" stroke-width="0.6" stroke-linecap="round" stroke-linejoin="round"/>
<path d="M168.529 165.74C168.529 165.293 168.662 164.856 168.911 164.485C169.161 164.113 169.515 163.823 169.929 163.652C170.343 163.481 170.799 163.437 171.239 163.524C171.679 163.611 172.083 163.826 172.4 164.142C172.717 164.458 172.933 164.861 173.021 165.299C173.108 165.737 173.064 166.192 172.892 166.605C172.72 167.017 172.43 167.37 172.057 167.619C171.684 167.867 171.245 167.999 170.797 167.999C170.196 167.999 169.619 167.761 169.193 167.338C168.768 166.914 168.529 166.339 168.529 165.74Z" fill="#263238" stroke="#263238" stroke-width="0.6" stroke-linecap="round" stroke-linejoin="round"/>
<path d="M170.796 166.708C171.332 166.708 171.767 166.274 171.767 165.74C171.767 165.205 171.332 164.772 170.796 164.772C170.259 164.772 169.824 165.205 169.824 165.74C169.824 166.274 170.259 166.708 170.796 166.708Z" fill="white" stroke="#263238" stroke-width="0.6" stroke-linecap="round" stroke-linejoin="round"/>
<path d="M195.814 165.696H197.594L198.488 153.592H194.924L195.814 165.696Z" fill="#8C8C8C" stroke="#263238" stroke-width="0.6" stroke-linecap="round" stroke-linejoin="round"/>
<path d="M195.9 168.114H197.68V163.112H195.9V168.114Z" fill="#263238" stroke="#263238" stroke-width="0.6" stroke-linecap="round" stroke-linejoin="round"/>
<path d="M210.808 122.64C211.847 122.74 212.895 122.635 213.893 122.331C214.891 122.027 215.819 121.531 216.625 120.869C217.43 120.208 218.097 119.395 218.587 118.477C219.076 117.559 219.38 116.554 219.48 115.519L221.962 89.792C222.164 87.702 221.524 85.6178 220.184 83.9975C218.844 82.3772 216.913 81.3535 214.816 81.1514C212.718 80.9514 210.626 81.5895 209 82.9254C207.374 84.2613 206.347 86.1857 206.144 88.2759L203.658 114.036C203.466 116.121 204.11 118.196 205.45 119.809C206.79 121.421 208.717 122.439 210.808 122.64Z" fill="#8C8C8C" stroke="#263238" stroke-width="0.6" stroke-linecap="round" stroke-linejoin="round"/>
<path d="M208.925 122.459C211.022 122.66 213.114 122.023 214.74 120.688C216.366 119.353 217.394 117.428 217.597 115.339L220.082 89.5786C220.278 87.4916 219.635 85.4126 218.295 83.7971C216.954 82.1815 215.026 81.1613 212.932 80.96C211.893 80.8605 210.845 80.9659 209.848 81.2702C208.85 81.5744 207.922 82.0715 207.117 82.7331C206.312 83.3947 205.646 84.2078 205.156 85.126C204.667 86.0442 204.364 87.0495 204.264 88.0845L201.779 113.822C201.577 115.912 202.217 117.996 203.557 119.616C204.897 121.235 206.828 122.258 208.925 122.459Z" fill="#8C8C8C" stroke="#263238" stroke-width="0.6" stroke-linecap="round" stroke-linejoin="round"/>
<path d="M174.353 133.952L211.418 134.924C211.624 134.93 211.828 134.896 212.021 134.823C212.213 134.751 212.39 134.641 212.539 134.501C212.689 134.36 212.81 134.192 212.894 134.005C212.979 133.818 213.026 133.616 213.032 133.411L213.22 127.501C213.227 127.296 213.192 127.092 213.12 126.9C213.047 126.708 212.937 126.533 212.796 126.383C212.655 126.234 212.486 126.114 212.298 126.03C212.11 125.946 211.908 125.899 211.702 125.893L174.641 124.921C174.436 124.914 174.231 124.948 174.038 125.02C173.846 125.092 173.67 125.202 173.52 125.342C173.37 125.482 173.249 125.65 173.165 125.837C173.08 126.024 173.033 126.225 173.027 126.43L172.843 132.344C172.83 132.756 172.981 133.157 173.264 133.459C173.548 133.76 173.939 133.938 174.353 133.952Z" fill="#8C8C8C" stroke="#263238" stroke-width="0.6" stroke-linecap="round" stroke-linejoin="round"/>
<path d="M189.851 134.238L211.423 134.917C212.288 134.944 213.01 134.268 213.038 133.407L213.225 127.496C213.253 126.635 212.574 125.914 211.71 125.887L190.137 125.208C189.273 125.181 188.55 125.857 188.523 126.718L188.335 132.629C188.308 133.49 188.987 134.211 189.851 134.238Z" fill="#8C8C8C" stroke="#263238" stroke-width="0.6" stroke-linecap="round" stroke-linejoin="round"/>
<path d="M171.882 159.241L171.701 160.603C171.701 160.603 170.061 163.87 169.422 164.415C168.783 164.96 164.776 166.682 164.049 166.954C163.321 167.227 164.595 168.058 166.327 168.136C168.059 168.213 171.247 168.228 172.34 167.955C173.433 167.683 175.527 166.137 175.985 166.049L176.354 167.227C176.354 167.227 178.36 166.491 179.087 166.321C179.815 166.152 181 165.217 181 165.217C180.586 163.949 180.101 162.706 179.545 161.493C179.209 160.884 178.777 160.333 178.267 159.859L176.905 158.24L171.882 159.241Z" fill="#263238" stroke="#263238" stroke-width="0.6" stroke-linecap="round" stroke-linejoin="round"/>
<path d="M182.906 107.382L179.9 109.197L173.341 111.103C173.341 111.103 152.57 114.915 151.385 116.288C150.199 117.661 150.646 118.831 151.658 120.557C152.67 122.283 170.257 160.511 170.257 160.511L177.547 159.057L165.338 122.452C165.338 122.452 188.298 127.081 192.298 126.353C196.298 125.624 201.409 121.363 202.318 118.095C203.226 114.827 199.038 109.631 199.038 109.631L182.906 107.382Z" fill="#108E66" stroke="#263238" stroke-width="0.6" stroke-linecap="round" stroke-linejoin="round"/>
<path d="M160.17 118.901C160.17 118.901 164.761 121.109 165.584 123.593" stroke="#263238" stroke-width="0.6" stroke-linecap="round" stroke-linejoin="round"/>
<path d="M206.682 77.0629L196.844 76.1539L182.451 108.652L191.924 110.286L206.682 77.0629Z" fill="white" stroke="#263238" stroke-width="0.6" stroke-linecap="round" stroke-linejoin="round"/>
<path d="M197.026 79.1899C197.026 79.1899 182.633 108.192 182.445 108.652C182.257 109.112 178.165 110.286 177.252 110.466C176.34 110.647 173.334 111.103 173.334 111.103L178.438 107.655L182.076 98.3039L177.644 96.048C177.644 96.048 185.843 83.7936 187.664 79.6168C189.484 75.44 190.201 74.336 192.018 74.2477C193.835 74.1594 199.035 74.52 199.035 74.52L197.026 79.1899Z" fill="#108E66" stroke="#263238" stroke-width="0.6" stroke-linecap="round" stroke-linejoin="round"/>
<path d="M195.023 85.3208L195.204 87.4111C195.204 87.4111 185.638 104.475 185.55 104.84C185.461 105.204 186.288 107.743 186.288 107.743L189.66 105.292L196.035 87.7754L197.767 86.7744V83.5323L195.023 85.3208Z" fill="#263238" stroke="#263238" stroke-width="0.6" stroke-linecap="round" stroke-linejoin="round"/>
<path d="M198.827 53.9525C198.827 53.9525 195.444 62.1147 194.695 64.5877C193.945 67.0606 193.417 71.1013 193.587 71.5502C193.757 71.9992 194.695 73.5706 196.441 73.6479C198.188 73.7251 199.673 73.7215 199.673 73.7215L197.043 79.1899C197.043 79.1899 197.343 83.4587 197.782 83.5323C198.222 83.6059 204.847 78.5165 204.999 78.2883C205.15 78.0602 209.357 69.0883 209.357 69.0883C209.357 69.0883 213.116 67.2152 213.341 65.5666C213.415 65.1054 213.363 64.633 213.191 64.1986C213.019 63.7643 212.733 63.3839 212.363 63.0973V61.0733L214.017 56.1311C214.017 56.1311 209.885 53.4373 205.298 52.3112C200.711 51.1851 199.736 51.9432 199.736 51.9432L198.827 53.9525Z" fill="white" stroke="#263238" stroke-width="0.6" stroke-linecap="round" stroke-linejoin="round"/>
<path d="M206.417 49.3856C206.417 49.3856 199.654 47.5861 196.648 50.2099C193.642 52.8338 201.457 57.04 204.012 57.408C206.568 57.776 209.726 57.2571 208.972 57.9343C208.219 58.6114 206.568 59.6565 207.395 60.3299C207.914 60.7454 208.498 61.0736 209.124 61.3015C209.124 61.3015 205.593 69.0295 204.991 69.9127C204.389 70.7959 203.263 70.737 202.587 70.5125C201.911 70.288 198.679 68.2677 197.627 67.8923C196.574 67.517 194.62 66.3946 194.17 67.5943C193.719 68.7939 192.589 73.8834 194.244 75.0058C195.898 76.1282 203.938 73.2835 205.142 72.4592C206.346 71.6349 206.719 70.1371 206.945 69.8391C207.17 69.541 210.401 64.2234 210.701 63.848C211 63.4727 212.355 63.112 212.355 63.112C212.355 63.112 215.062 57.7171 215.288 55.6232C215.513 53.5293 208.448 49.312 206.417 49.3856Z" fill="#263238" stroke="#263238" stroke-width="0.6" stroke-linecap="round" stroke-linejoin="round"/>
<path d="M199.356 59.7926L199.205 63.1046C199.205 63.1046 195.674 67.0716 195.674 67.5206C195.674 67.9696 199.88 67.447 199.88 67.447" stroke="#263238" stroke-width="0.6" stroke-linecap="round" stroke-linejoin="round"/>
<path d="M198.828 59.0457C198.699 58.7947 198.485 58.597 198.225 58.4873C197.964 58.3776 197.673 58.3629 197.402 58.4458" stroke="#263238" stroke-width="0.6" stroke-linecap="round" stroke-linejoin="round"/>
<path d="M201.984 60.9151C201.984 60.9151 204.163 60.6906 204.839 62.3392" stroke="#263238" stroke-width="0.6" stroke-linecap="round" stroke-linejoin="round"/>
<path d="M196.109 69.2281C196.109 69.2281 198.063 70.4278 199.341 70.4278" stroke="white" stroke-width="0.6" stroke-linecap="round" stroke-linejoin="round"/>
<path d="M202.727 64.1608C202.52 64.5693 202.143 64.7901 201.885 64.6613C201.626 64.5325 201.582 64.0946 201.789 63.6898C201.995 63.285 202.372 63.0605 202.631 63.1893C202.889 63.3181 202.934 63.756 202.727 64.1608Z" fill="#263238"/>
<path d="M198.022 62.3392C197.819 62.744 197.438 62.9685 197.18 62.836C196.921 62.7035 196.877 62.2729 197.084 61.8645C197.29 61.456 197.667 61.2352 197.926 61.3677C198.184 61.5001 198.228 61.9307 198.022 62.3392Z" fill="#263238"/>
<path d="M165.415 156.205L164.776 160.017L163.409 160.385C163.409 160.385 162.132 161.92 161.862 162.288C161.592 162.656 158.217 165.1 157.308 165.556C156.4 166.012 154.117 166.189 154.21 166.825C154.302 167.462 159.129 168.007 162.228 168.095C165.326 168.183 167.055 167.19 167.055 167.19L167.328 167.823L170.515 167.55C170.515 167.55 170.334 164.555 170.427 163.285C170.456 162.253 170.394 161.22 170.242 160.198L170.061 157.567L165.415 156.205Z" fill="#263238" stroke="#263238" stroke-width="0.6" stroke-linecap="round" stroke-linejoin="round"/>
<path d="M191.016 111.648C191.016 111.648 165.141 114.823 164.595 115.46C164.048 116.097 164.502 134.887 164.502 134.887L161.496 156.878L170.788 159.712C170.788 159.712 173.706 141.169 174.707 136.16C175.391 132.436 175.878 128.678 176.165 124.903C176.165 124.903 190.469 128.171 195.37 125.448C200.271 122.724 199.285 119.365 199.285 119.365" fill="#108E66"/>
<path d="M191.016 111.648C191.016 111.648 165.141 114.823 164.595 115.46C164.048 116.097 164.502 134.887 164.502 134.887L161.496 156.878L170.788 159.712C170.788 159.712 173.706 141.169 174.707 136.16C175.391 132.436 175.878 128.678 176.165 124.903C176.165 124.903 190.469 128.171 195.37 125.448C200.271 122.724 199.285 119.365 199.285 119.365" stroke="#263238" stroke-width="0.6" stroke-linecap="round" stroke-linejoin="round"/>
<path d="M164.998 134.151C164.998 134.151 166.176 128.874 166.409 126.055" stroke="#263238" stroke-width="0.6" stroke-linecap="round" stroke-linejoin="round"/>
<path d="M174.241 121.867C173.961 121.493 173.623 121.165 173.24 120.895" stroke="#263238" stroke-width="0.6" stroke-linecap="round" stroke-linejoin="round"/>
<path d="M176.166 124.903C176.166 124.903 175.642 123.88 174.955 122.846" stroke="#263238" stroke-width="0.6" stroke-linecap="round" stroke-linejoin="round"/>
<path d="M206.321 75.337C206.321 75.337 196.025 94.2081 193.838 99.0289C191.652 103.85 188.723 110.558 188.723 111.283C188.723 112.008 186.81 130.622 187.449 130.982C188.088 131.343 197.65 128.259 202.115 126.537C206.58 124.815 206.761 123.541 207.126 122.54C207.492 121.539 207.4 108.652 207.4 108.652C207.4 108.652 216.692 82.3254 216.599 81.1478C216.507 79.9702 206.321 75.337 206.321 75.337Z" fill="#108E66" stroke="#263238" stroke-width="0.6" stroke-linecap="round" stroke-linejoin="round"/>
<path d="M198.495 94.4288C196.807 96.0775 195.389 97.3066 195.389 97.3066" stroke="#263238" stroke-width="0.6" stroke-linecap="round" stroke-linejoin="round"/>
<path d="M209.6 77.4236C209.6 77.4236 205.32 85.7772 203.13 89.137C202.049 90.6768 200.83 92.1155 199.488 93.4353" stroke="#263238" stroke-width="0.6" stroke-linecap="round" stroke-linejoin="round"/>
<path d="M195.905 75.6719C195.905 75.6719 191.474 83.054 190.196 87.4111C188.918 91.7682 188.645 94.0351 188.645 94.0351" stroke="#263238" stroke-width="0.6" stroke-linecap="round" stroke-linejoin="round"/>
<path d="M193.564 86.2298L197.775 83.5323L197.937 89.8619" stroke="#263238" stroke-width="0.6" stroke-linecap="round" stroke-linejoin="round"/>
<path d="M202.547 114.592L203.954 114.371" stroke="#263238" stroke-width="0.6" stroke-linecap="round" stroke-linejoin="round"/>
<path d="M203.495 112.737L193.564 113.918V116.005L200.655 114.89" stroke="#263238" stroke-width="0.6" stroke-linecap="round" stroke-linejoin="round"/>
<path d="M189.65 78.5128C189.65 78.5128 191.29 75.0647 192.11 74.9727C192.93 74.8807 194.751 74.9727 194.751 75.7087C194.751 76.4447 193.75 76.5256 193.75 76.5256H192.383L191.744 78.1596L189.65 78.5128Z" fill="white" stroke="#263238" stroke-width="0.6" stroke-linecap="round" stroke-linejoin="round"/>
<path d="M187.371 85.0485L188.01 81.5083C188.01 81.5083 188.284 78.4245 188.749 78.2405C189.214 78.0565 193.395 78.1522 193.395 78.1522C193.395 78.1522 193.487 81.7807 193.122 82.6896C192.756 83.5986 191.116 83.9592 191.116 83.9592C190.965 84.5254 190.752 85.0733 190.481 85.5931C190.208 85.9611 189.203 86.4101 189.203 86.4101L188.93 87.1461L186.562 85.6005L187.371 85.0485Z" fill="white" stroke="#263238" stroke-width="0.6" stroke-linecap="round" stroke-linejoin="round"/>
<path d="M191.105 83.9629L190.65 82.237L192.382 82.145" fill="white"/>
<path d="M191.105 83.9629L190.65 82.237L192.382 82.145" stroke="#263238" stroke-width="0.6" stroke-linecap="round" stroke-linejoin="round"/>
<path d="M186.459 84.7799L190.197 87.4111L188.738 88.953L185.551 86.0495L186.459 84.7799Z" fill="white" stroke="#263238" stroke-width="0.6" stroke-linecap="round" stroke-linejoin="round"/>
<path d="M185.55 86.0494L189.83 89.2253L181.631 101.664C180.661 101.869 179.653 101.805 178.717 101.48C177.166 100.935 175.711 97.8512 175.711 97.4869C175.711 97.1226 185.55 86.0494 185.55 86.0494Z" fill="#108E66" stroke="#263238" stroke-width="0.6" stroke-linecap="round" stroke-linejoin="round"/>
<path d="M182.271 100.482C182.271 100.482 180.905 97.9396 180.812 97.2146C180.72 96.4897 180.631 95.0361 180.174 94.4914C179.716 93.9468 179.173 93.5825 178.992 92.7655C178.811 91.9486 177.987 92.3129 177.884 93.1335C177.78 93.9542 178.519 94.7674 178.519 94.7674C178.519 94.7674 176.244 94.0314 175.878 94.2228C175.513 94.4142 174.77 94.6754 174.966 95.3268C175.088 95.7264 175.242 96.1153 175.428 96.4897C175.428 96.4897 173.973 98.3959 173.973 99.3012C173.973 100.206 174.974 101.664 175.705 102.208C176.436 102.753 178.984 103.312 178.984 103.312L182.271 100.482Z" fill="white" stroke="#263238" stroke-width="0.6" stroke-linecap="round" stroke-linejoin="round"/>
<path d="M208.556 81.8027L200.309 98.8485L180.174 99.9525C179.666 100.075 179.202 100.335 178.833 100.703C178.463 101.071 178.203 101.533 178.08 102.039C177.868 102.869 177.776 103.726 177.806 104.582C177.806 104.582 191.198 106.216 195.39 106.488C199.581 106.76 204.682 107.305 205.321 106.668C205.96 106.032 213.52 90.4213 213.52 90.4213" fill="#108E66"/>
<path d="M208.556 81.8027L200.309 98.8485L180.174 99.9525C179.666 100.075 179.202 100.335 178.833 100.703C178.463 101.071 178.203 101.533 178.08 102.039C177.868 102.869 177.776 103.726 177.806 104.582C177.806 104.582 191.198 106.216 195.39 106.488C199.581 106.76 204.682 107.305 205.321 106.668C205.96 106.032 213.52 90.4213 213.52 90.4213" stroke="#263238" stroke-width="0.6" stroke-linecap="round" stroke-linejoin="round"/>
<path d="M88.0348 131.932H85.9297V152.142H88.0348V131.932Z" fill="#263238" stroke="#263238" stroke-width="0.6" stroke-linecap="round" stroke-linejoin="round"/>
<path d="M75.2083 112.568L71.4961 113L73.852 133.074L77.5642 132.642L75.2083 112.568Z" fill="#263238" stroke="#263238" stroke-width="0.6" stroke-linecap="round" stroke-linejoin="round"/>
<path d="M89.6558 152.967V149.559H84.3117V152.996L62.9355 161.545V165.578H64.3944V162.512L87.0595 157.371L109.126 162.512V165.578H110.544V161.545L89.6558 152.967Z" fill="#8C8C8C" stroke="#263238" stroke-width="0.6" stroke-linecap="round" stroke-linejoin="round"/>
<path d="M92.2443 131.932H81.7188V138.386H92.2443V131.932Z" fill="#263238" stroke="#263238" stroke-width="0.6" stroke-linecap="round" stroke-linejoin="round"/>
<path d="M62.9356 165.74C62.9356 165.293 62.8026 164.856 62.5535 164.484C62.3043 164.113 61.9501 163.823 61.5358 163.652C61.1214 163.481 60.6655 163.436 60.2256 163.524C59.7857 163.611 59.3817 163.826 59.0646 164.142C58.7474 164.458 58.5315 164.861 58.444 165.299C58.3565 165.737 58.4014 166.192 58.573 166.604C58.7446 167.017 59.0353 167.37 59.4082 167.618C59.7811 167.867 60.2195 167.999 60.668 167.999C61.2694 167.999 61.8462 167.761 62.2715 167.337C62.6967 166.914 62.9356 166.339 62.9356 165.74Z" fill="#263238" stroke="#263238" stroke-width="0.6" stroke-linecap="round" stroke-linejoin="round"/>
<path d="M61.6399 165.74C61.6399 165.548 61.5829 165.361 61.4762 165.202C61.3695 165.043 61.2178 164.919 61.0403 164.846C60.8628 164.772 60.6675 164.753 60.4791 164.791C60.2907 164.828 60.1176 164.92 59.9818 165.055C59.8459 165.191 59.7534 165.363 59.7159 165.551C59.6785 165.739 59.6977 165.933 59.7712 166.11C59.8447 166.287 59.9692 166.438 60.1289 166.545C60.2887 166.651 60.4765 166.708 60.6686 166.708C60.9262 166.708 61.1732 166.606 61.3554 166.424C61.5375 166.243 61.6399 165.997 61.6399 165.74Z" fill="white" stroke="#263238" stroke-width="0.6" stroke-linecap="round" stroke-linejoin="round"/>
<path d="M115.227 165.74C115.227 165.293 115.094 164.856 114.844 164.484C114.595 164.113 114.241 163.823 113.827 163.652C113.412 163.481 112.957 163.436 112.517 163.524C112.077 163.611 111.673 163.826 111.356 164.142C111.038 164.458 110.822 164.861 110.735 165.299C110.647 165.737 110.692 166.192 110.864 166.604C111.036 167.017 111.326 167.37 111.699 167.618C112.072 167.867 112.511 167.999 112.959 167.999C113.56 167.999 114.137 167.761 114.562 167.337C114.988 166.914 115.227 166.339 115.227 165.74Z" fill="#263238" stroke="#263238" stroke-width="0.6" stroke-linecap="round" stroke-linejoin="round"/>
<path d="M112.975 166.708C113.512 166.708 113.947 166.274 113.947 165.74C113.947 165.205 113.512 164.772 112.975 164.772C112.439 164.772 112.004 165.205 112.004 165.74C112.004 166.274 112.439 166.708 112.975 166.708Z" fill="white" stroke="#263238" stroke-width="0.6" stroke-linecap="round" stroke-linejoin="round"/>
<path d="M87.9534 165.696H86.1733L85.2832 153.592H88.8471L87.9534 165.696Z" fill="#8C8C8C" stroke="#263238" stroke-width="0.6" stroke-linecap="round" stroke-linejoin="round"/>
<path d="M87.8719 163.112H86.0918V168.113H87.8719V163.112Z" fill="#263238" stroke="#263238" stroke-width="0.6" stroke-linecap="round" stroke-linejoin="round"/>
<path d="M72.9635 122.64C71.9248 122.74 70.8766 122.635 69.8786 122.331C68.8806 122.027 67.9525 121.531 67.1472 120.869C66.3419 120.208 65.6753 119.395 65.1854 118.477C64.6954 117.559 64.3918 116.554 64.2919 115.519L61.8064 89.7588C61.706 88.7239 61.8112 87.6794 62.1161 86.6849C62.4209 85.6905 62.9194 84.7657 63.5831 83.9633C64.2467 83.1609 65.0625 82.4966 65.9838 82.0085C66.9052 81.5203 67.914 81.2178 68.9527 81.1182C71.0505 80.9182 73.1422 81.5563 74.7682 82.8922C76.3942 84.2281 77.4215 86.1525 77.6243 88.2427L80.1098 114.003C80.3115 116.092 79.6719 118.176 78.3317 119.796C76.9915 121.416 75.0605 122.438 72.9635 122.64Z" fill="#8C8C8C" stroke="#263238" stroke-width="0.6" stroke-linecap="round" stroke-linejoin="round"/>
<path d="M74.8459 122.459C72.7484 122.66 70.6567 122.023 69.0306 120.688C67.4044 119.352 66.377 117.428 66.1742 115.338L63.6887 89.5785C63.4932 87.4921 64.1356 85.4136 65.4751 83.7982C66.8145 82.1828 68.7419 81.1622 70.8351 80.9599C72.9331 80.759 75.0254 81.3967 76.6516 82.7328C78.2778 84.0689 79.3048 85.9939 79.5067 88.0844L81.9885 113.819C82.1902 115.908 81.5512 117.992 80.2119 119.612C78.8726 121.232 76.9426 122.256 74.8459 122.459Z" fill="#8C8C8C" stroke="#263238" stroke-width="0.6" stroke-linecap="round" stroke-linejoin="round"/>
<path d="M110.7 133.952L72.3532 134.924C72.1475 134.93 71.9426 134.896 71.7502 134.823C71.5577 134.751 71.3815 134.641 71.2316 134.501C71.0818 134.36 70.9611 134.192 70.8766 134.005C70.7921 133.818 70.7455 133.616 70.7393 133.411L70.5398 127.501C70.5269 127.088 70.6791 126.686 70.963 126.385C71.2469 126.083 71.6393 125.906 72.054 125.893L110.426 124.921C110.632 124.914 110.837 124.948 111.029 125.02C111.221 125.092 111.398 125.202 111.548 125.342C111.698 125.482 111.818 125.65 111.903 125.837C111.987 126.024 112.034 126.225 112.04 126.43L112.229 132.344C112.235 132.55 112.2 132.755 112.127 132.947C112.053 133.14 111.942 133.316 111.8 133.465C111.658 133.615 111.488 133.735 111.299 133.818C111.11 133.902 110.906 133.947 110.7 133.952Z" fill="#8C8C8C" stroke="#263238" stroke-width="0.6" stroke-linecap="round" stroke-linejoin="round"/>
<path d="M93.6452 125.212L72.0729 125.891C71.2085 125.918 70.53 126.638 70.5573 127.5L70.7447 133.41C70.772 134.272 71.4949 134.948 72.3593 134.921L93.9316 134.241C94.7959 134.214 95.4745 133.494 95.4472 132.633L95.2598 126.722C95.2325 125.86 94.5096 125.184 93.6452 125.212Z" fill="#8C8C8C" stroke="#263238" stroke-width="0.6" stroke-linecap="round" stroke-linejoin="round"/>
<path d="M115.598 121.915C115.598 121.915 115.926 128.23 116.798 133.886C117.67 139.542 119.114 156.702 119.114 156.702C119.568 158.425 120.186 160.101 120.96 161.707C121.477 162.773 122.138 163.763 122.925 164.651C122.925 164.651 125.765 167.48 125.654 167.915C125.543 168.349 123.763 168.305 122.016 167.977C120.27 167.65 119.911 167.241 118.929 166.583C117.947 165.924 115.712 165.081 114.73 164.743C113.747 164.404 113.422 163.55 113.751 162.571C114.08 161.592 115.173 159.307 115.173 157.894C115.173 156.481 114.298 149.776 111.904 145.312C109.511 140.848 108.082 133.124 108.082 133.124L115.598 121.915Z" fill="white" stroke="#263238" stroke-width="0.6" stroke-linecap="round" stroke-linejoin="round"/>
<path d="M116.176 162.899C115.482 162.362 114.832 161.795 114.278 161.261C114.071 161.787 113.879 162.251 113.772 162.571C113.443 163.55 113.772 164.411 114.751 164.743C115.729 165.074 117.967 165.92 118.95 166.583C119.932 167.245 120.29 167.65 122.037 167.977C123.784 168.305 125.568 168.345 125.675 167.915C125.782 167.484 122.946 164.651 122.946 164.651L121.528 165.306C121.528 165.306 118.141 164.422 116.176 162.899Z" fill="#108E66" stroke="#263238" stroke-width="0.6" stroke-linecap="round" stroke-linejoin="round"/>
<path d="M73.7004 108.946C73.7004 108.946 72.718 112.781 73.2535 115.202C73.789 117.624 77.4601 123.225 83.8123 124.564C90.1646 125.904 106.13 125.466 106.13 125.466C106.13 125.466 102.282 131.291 100.849 138.305C99.9036 142.95 97.0044 149.448 96.5575 150.431C96.1107 151.414 90.8294 153.195 91.0178 153.997C91.2061 154.799 91.8229 159.789 93.1635 161.843C94.5041 163.896 96.7422 164.787 97.636 165.052C98.5297 165.317 98.7107 165.317 98.7107 164.426C98.7107 163.535 98.0828 162.288 98.0828 161.482C98.0828 160.676 97.9942 155.226 98.3524 154.527C98.7107 153.828 110.425 135.424 112.213 132.406C114 129.389 116.778 123.49 117.583 122.511C118.388 121.532 119.37 120.192 118.565 118.5C117.76 116.807 99.2757 111.14 99.2757 111.14L98.3044 107.714L89.0714 107.18L73.7004 108.946Z" fill="white" stroke="#263238" stroke-width="0.6" stroke-linecap="round" stroke-linejoin="round"/>
<path d="M99.2757 111.136L98.3044 107.71L89.0714 107.176L73.6819 108.957C73.6819 108.957 72.6773 112.796 73.235 115.213C74.1214 119.037 77.4415 123.236 83.7938 124.575C90.1461 125.915 106.112 125.477 106.112 125.477C106.112 125.477 107.626 117.937 110.584 114.996C107.031 113.789 99.2757 111.136 99.2757 111.136Z" fill="#263238" stroke="#263238" stroke-width="0.6" stroke-linecap="round" stroke-linejoin="round"/>
<path d="M106.131 125.451C108.262 124.889 110.329 124.112 112.302 123.133L106.131 125.451Z" fill="white"/>
<path d="M106.131 125.451C108.262 124.889 110.329 124.112 112.302 123.133" stroke="#263238" stroke-width="0.6" stroke-linecap="round" stroke-linejoin="round"/>
<path d="M94.0501 158.262C93.4149 156.79 93.4555 153.846 93.5368 152.271C92.1851 152.937 90.9183 153.581 91.0106 153.982C91.1879 154.784 91.8157 159.775 93.1564 161.828C94.497 163.881 96.7351 164.772 97.6288 165.037C98.5226 165.302 98.7035 165.302 98.7035 164.411C98.7035 163.521 98.0794 162.277 98.0757 161.467C97.1401 161.349 96.2135 161.168 95.3021 160.926C95.3021 160.926 94.9439 160.312 94.0501 158.262Z" fill="#108E66" stroke="#263238" stroke-width="0.6" stroke-linecap="round" stroke-linejoin="round"/>
<path d="M92.758 73.6442L89.9844 74.8034C89.9844 74.8034 92.2225 95.68 92.1338 98.624C92.0452 101.568 91.8642 107.456 91.8642 107.456C91.8642 107.456 95.7125 108.615 98.3051 107.725L98.1279 97.6525C98.1279 97.6525 100.008 88.0219 99.2912 84.9013C98.5747 81.7806 96.3367 76.2533 96.3367 76.2533C96.3367 76.2533 95.2841 73.7325 92.758 73.6442Z" fill="white" stroke="#263238" stroke-width="0.6" stroke-linecap="round" stroke-linejoin="round"/>
<path d="M91.9607 82.6491L94.6493 78.5679L97.9547 83.3519C97.9547 83.3519 96.5254 76.6654 96.3445 76.2201C95.9159 75.3809 95.2676 74.6727 94.4683 74.1703C93.3936 73.4564 92.1379 73.4343 91.4251 73.3681C90.7124 73.3019 89.9922 74.7959 89.9922 74.7959L91.9607 82.6491Z" fill="white" stroke="#263238" stroke-width="0.6" stroke-linecap="round" stroke-linejoin="round"/>
<path d="M90.7041 73.3167C90.7041 73.3167 81.7112 75.2781 80.9393 75.8375C80.1675 76.3968 79.8314 78.2184 80.0234 78.9176C80.2155 79.6168 82.2726 94.7416 82.2726 94.7416L71.9316 109.793C71.9316 109.793 75.3072 112.593 78.4686 113.153C81.63 113.712 88.3737 112.873 90.7632 111.894L93.1527 110.915C93.1527 110.915 94.2607 92.6403 93.0825 85.4275C91.9044 78.2147 90.7041 73.3167 90.7041 73.3167Z" fill="#108E66" stroke="#263238" stroke-width="0.6" stroke-linecap="round" stroke-linejoin="round"/>
<path d="M118.318 96.5595L121.831 95.0213C121.831 95.0213 122.887 92.7103 123.027 92.5005C123.168 92.2907 124.36 91.9411 124.922 91.448C125.483 90.9549 126.259 90.1195 126.469 90.0496C126.68 89.9797 127.031 90.609 126.469 91.448C126.044 92.0427 125.548 92.5839 124.992 93.0599L128.438 91.8013C128.438 91.8013 129.771 89.5602 130.122 90.5391C130.473 91.5179 128.645 94.5319 128.227 95.5107C127.81 96.4896 127.381 96.9827 126.61 97.1226C125.838 97.2624 123.448 97.6819 122.957 97.7519C122.466 97.8218 119.441 99.5698 119.441 99.5698L118.318 96.5595Z" fill="white" stroke="#263238" stroke-width="0.6" stroke-linecap="round" stroke-linejoin="round"/>
<path d="M123.193 95.8603C123.818 95.3341 124.538 94.8115 124.922 94.8115C125.697 94.8115 127.381 94.9514 127.381 94.9514C127.381 94.9514 128.368 92.7103 128.859 92.3754C129.35 92.0405 129.771 92.5152 129.35 93.2144" fill="white"/>
<path d="M123.193 95.8603C123.818 95.3341 124.538 94.8115 124.922 94.8115C125.697 94.8115 127.381 94.9514 127.381 94.9514C127.381 94.9514 128.368 92.7103 128.859 92.3754C129.35 92.0405 129.771 92.5152 129.35 93.2144" stroke="#263238" stroke-width="0.6" stroke-linecap="round" stroke-linejoin="round"/>
<path d="M95.4141 74.9984C95.4141 74.9984 97.6632 84.7283 97.593 88.3679C97.5229 92.0074 96.3928 93.84 96.607 95.0912C96.8212 96.3424 97.3087 111.055 97.3087 111.055L99.2771 111.125C99.2771 111.125 98.7859 105.524 98.8561 104.472C98.9263 103.419 99.628 99.2202 99.628 99.2202C99.628 99.2202 103.144 106.153 103.635 106.503C104.126 106.852 120.428 99.9231 120.428 99.9231L119.231 95.9303L106.796 98.4511C106.796 98.4511 104.337 90.3293 103.986 88.5776C103.635 86.8259 103.354 80.6693 102.368 79.1274C101.382 77.5855 95.4141 74.9984 95.4141 74.9984Z" fill="#108E66" stroke="#263238" stroke-width="0.6" stroke-linecap="round" stroke-linejoin="round"/>
<path d="M99.627 99.2202C99.627 99.2202 100.048 97.4722 100.753 92.8501C101.177 90.0906 101.201 87.2847 100.824 84.5186" stroke="#263238" stroke-width="0.6" stroke-linecap="round" stroke-linejoin="round"/>
<path d="M98.8592 80.4485C99.1952 82.9693 99.4464 86.0826 98.9958 87.8085C98.4816 89.7675 97.8237 91.6863 97.0273 93.5493" stroke="#263238" stroke-width="0.6" stroke-linecap="round" stroke-linejoin="round"/>
<path d="M98.2383 76.5439C98.2383 76.5439 98.4488 77.6001 98.6815 79.1199" stroke="#263238" stroke-width="0.6" stroke-linecap="round" stroke-linejoin="round"/>
<path d="M91.5176 90.1599C92.4298 92.4121 93.2349 94.609 93.2349 94.609" stroke="#263238" stroke-width="0.6" stroke-linecap="round" stroke-linejoin="round"/>
<path d="M87.2617 74.4353C87.2617 74.4353 88.8756 84.3087 90.1424 86.9694C90.4009 87.5103 90.6816 88.1507 90.966 88.8094" stroke="#263238" stroke-width="0.6" stroke-linecap="round" stroke-linejoin="round"/>
<path d="M107.217 94.4619L109.957 93.6891C109.957 93.6891 111.715 91.448 112.136 90.8887C112.557 90.3293 113.54 90.3293 114.245 89.9098C114.95 89.4903 115.859 87.9483 116.21 88.228C116.561 88.5077 116.21 89.7699 115.84 90.1195C115.37 90.4988 114.877 90.8491 114.363 91.1683C114.082 91.3781 117.665 90.5391 117.665 90.5391C117.665 90.5391 119.984 88.5077 120.125 89.0671C120.265 89.6264 119.068 91.5879 119.068 91.5879C119.068 91.5879 117.384 93.196 116.538 93.8952C115.693 94.5944 113.658 94.8778 113.096 94.9992C112.535 95.1207 111.553 95.2789 111.553 95.2789L107.335 96.8171L107.217 94.4619Z" fill="white" stroke="#263238" stroke-width="0.6" stroke-linecap="round" stroke-linejoin="round"/>
<path d="M118.528 92C118.528 92 117.051 92.6992 116.279 93.0488L118.528 92Z" fill="white"/>
<path d="M118.528 92C118.528 92 117.051 92.6992 116.279 93.0488" stroke="#263238" stroke-width="0.6" stroke-linecap="round" stroke-linejoin="round"/>
<path d="M114.386 91.1683L113.119 91.448" stroke="#263238" stroke-width="0.6" stroke-linecap="round" stroke-linejoin="round"/>
<path d="M82.4846 75.2781C82.4846 75.2781 78.3408 76.6765 77.7056 77.729C77.0704 78.7814 79.3232 87.389 81.011 92.1509C82.6988 96.9128 87.1934 104.891 87.7548 105.171C88.3161 105.45 103.004 100.273 106.365 99.2202C109.726 98.1677 110.298 97.612 110.298 97.612L108.821 93.829L91.9613 96.8392L86.7909 80.6693" fill="#108E66"/>
<path d="M82.4846 75.2781C82.4846 75.2781 78.3408 76.6765 77.7056 77.729C77.0704 78.7814 79.3232 87.389 81.011 92.1509C82.6988 96.9128 87.1934 104.891 87.7548 105.171C88.3161 105.45 103.004 100.273 106.365 99.2202C109.726 98.1677 110.298 97.612 110.298 97.612L108.821 93.829L91.9613 96.8392L86.7909 80.6693" stroke="#263238" stroke-width="0.6" stroke-linecap="round" stroke-linejoin="round"/>
<path d="M102.844 53.9561C102.844 53.9561 104.484 55.0601 103.653 56.2487C102.822 57.4374 101.068 57.5183 101.068 57.5183L99.5352 55.1116C99.5352 55.1116 101.36 52.9551 102.844 53.9561Z" fill="#263238" stroke="#263238" stroke-width="0.6" stroke-linecap="round" stroke-linejoin="round"/>
<path d="M101.123 55.3913C101.123 55.3913 103.638 61.3382 103.497 61.8497C103.357 62.3612 102.186 63.1598 102.718 63.9363C103.25 64.7127 104.809 66.2657 104.768 66.4828C104.727 66.6999 102.822 67.8076 102.822 67.8076C102.822 67.8076 101.488 72.5916 100.945 73.2908C100.403 73.99 95.8193 73.1399 95.8193 73.1399L94.8517 78.498L89.4079 73.4417L87.373 71.5281C87.373 71.5281 85.5485 63.3659 89.419 58.4604C93.2895 53.555 101.123 55.3913 101.123 55.3913Z" fill="white" stroke="#263238" stroke-width="0.6" stroke-linecap="round" stroke-linejoin="round"/>
<path d="M100.776 63.7707C100.776 64.2712 100.569 64.676 100.337 64.6723C100.104 64.6687 99.923 64.2565 99.9341 63.7523C99.9452 63.2482 100.137 62.8471 100.37 62.8507C100.603 62.8544 100.784 63.2666 100.776 63.7707Z" fill="#263238"/>
<path d="M100.786 69.0037C100.351 68.9832 99.9248 68.8747 99.533 68.6849C99.1413 68.4951 98.7924 68.228 98.5075 67.8997C98.5075 67.8997 98.3709 70.0525 99.043 70.1776C99.7152 70.3027 100.786 69.0037 100.786 69.0037Z" fill="#263238" stroke="#263238" stroke-width="0.6" stroke-linecap="round" stroke-linejoin="round"/>
<path d="M99.373 61.7761C99.373 61.7761 100.773 60.5948 102.025 61.9785" stroke="#263238" stroke-width="0.6" stroke-linecap="round" stroke-linejoin="round"/>
<path d="M95.8201 73.14L93.5488 72.599L95.2588 75.7601L95.8201 73.14Z" fill="#263238" stroke="#263238" stroke-width="0.6" stroke-linecap="round" stroke-linejoin="round"/>
<path d="M101.123 55.3913C101.123 55.3913 100.628 56.9406 98.2086 58.9646C95.7896 60.9886 93.6254 62.2766 93.6328 62.836C93.6402 63.3953 94.0021 63.9179 93.5146 64.054C93.1172 64.1046 92.7137 64.0368 92.3549 63.859C92.3549 63.859 91.1805 67.1968 91.0032 69.552C90.9312 71.1064 91.1684 72.6598 91.7012 74.1225C91.7012 74.1225 86.4901 74.4022 83.4839 72.128C80.4776 69.8537 79.6319 67.2777 79.9643 65.044C80.2967 62.8102 81.2495 55.7556 85.8734 52.3001C90.4973 48.8446 97.1228 48.9881 99.372 50.3976C101.621 51.807 103.25 52.8411 102.836 53.9561C102.423 55.0712 101.123 55.3913 101.123 55.3913Z" fill="#263238" stroke="#263238" stroke-width="0.6" stroke-linecap="round" stroke-linejoin="round"/>
<path d="M90.2032 125.676C90.0653 125.676 89.9289 125.646 89.8043 125.587C89.5407 125.444 89.3387 125.21 89.236 124.929C89.1334 124.647 89.1371 124.339 89.2466 124.06C90.916 119.519 92.829 111.419 90.8679 109.002C90.41 108.634 87.6512 107.898 72.7898 109.428L71.7077 109.539C70.6699 109.627 69.7835 111.121 69.5545 111.636C69.5057 111.768 69.4292 111.888 69.3301 111.987C69.2311 112.087 69.1118 112.164 68.9802 112.214C68.8487 112.264 68.708 112.285 68.5675 112.276C68.427 112.267 68.2901 112.229 68.1659 112.163C67.9117 112 67.7247 111.752 67.6392 111.463C67.5538 111.175 67.5755 110.865 67.7006 110.591C67.8446 110.267 69.1778 107.412 71.5489 107.206L72.6014 107.099C88.4378 105.458 91.4736 106.286 92.3969 107.419C95.8833 111.717 91.6583 123.611 91.1597 124.954C91.0948 125.158 90.968 125.337 90.7966 125.467C90.6253 125.596 90.4179 125.669 90.2032 125.676Z" fill="white" stroke="#263238" stroke-width="0.6" stroke-linecap="round" stroke-linejoin="round"/>
<path d="M155.491 91.0947H131.223L125.609 110.043H149.877L155.491 91.0947Z" fill="#D9D9D9" stroke="#263238" stroke-width="0.6" stroke-linecap="round" stroke-linejoin="round"/>
<path d="M107.855 109.005L107.549 110.043H149.876L150.187 109.005H107.855Z" fill="#D9D9D9" stroke="#263238" stroke-width="0.6" stroke-linecap="round" stroke-linejoin="round"/>
<path d="M125.959 109.005L125.652 110.043H149.876L150.186 109.005H125.959Z" fill="#263238" stroke="#263238" stroke-width="0.6" stroke-linecap="round" stroke-linejoin="round"/>
<path d="M149.529 112.888H145.422V167.602H149.529V112.888Z" fill="white" stroke="#263238" stroke-width="0.6" stroke-linecap="round" stroke-linejoin="round"/>
<path d="M149.529 112.888H145.422V121.926H149.529V112.888Z" fill="#263238" stroke="#263238" stroke-width="0.6" stroke-linecap="round" stroke-linejoin="round"/>
<path d="M199.421 110.054H95.1621V113.094H199.421V110.054Z" fill="white" stroke="#263238" stroke-width="0.6" stroke-linecap="round" stroke-linejoin="round"/>
<path d="M168.904 168.047H125.693C129.968 166.044 134.634 165.006 139.358 165.008H155.287C160.011 165.005 164.677 166.043 168.952 168.047H168.904Z" fill="white" stroke="#263238" stroke-width="0.6" stroke-linecap="round" stroke-linejoin="round"/>
</svg>
