<svg width="315" height="266" viewBox="0 0 315 266" fill="none" xmlns="http://www.w3.org/2000/svg">
<g clip-path="url(#clip0_2242_23078)">
<path d="M275.964 76.7208C272.491 60.9943 265.263 46.3319 254.893 33.9745C249.358 27.4564 242.611 21.2744 234.781 17.2627C210.67 4.91408 169.095 30.9714 148.891 44.3593C128.687 57.7471 113.541 44.7031 88.739 41.9599C63.9369 39.2166 33.6308 59.1073 32.2568 90.6512C30.8827 122.195 71.5211 146.877 63.2537 164.009C54.9863 181.141 42.5891 207.206 88.0558 216.804C133.523 226.402 156.252 181.141 184.493 185.26C212.734 189.379 207.599 226.822 258.186 209.262C299.162 195.056 286.442 122.959 275.964 76.7208Z" fill="#108E66"/>
<path opacity="0.7" d="M275.964 76.7208C272.491 60.9943 265.263 46.3319 254.893 33.9745C249.358 27.4564 242.611 21.2744 234.781 17.2627C210.67 4.91408 169.095 30.9714 148.891 44.3593C128.687 57.7471 113.541 44.7031 88.739 41.9599C63.9369 39.2166 33.6308 59.1073 32.2568 90.6512C30.8827 122.195 71.5211 146.877 63.2537 164.009C54.9863 181.141 42.5891 207.206 88.0558 216.804C133.523 226.402 156.252 181.141 184.493 185.26C212.734 189.379 207.599 226.822 258.186 209.262C299.162 195.056 286.442 122.959 275.964 76.7208Z" fill="white"/>
<path d="M149.766 238.872C181.804 238.872 207.776 235.177 207.776 230.619C207.776 226.062 181.804 222.367 149.766 222.367C117.728 222.367 91.7559 226.062 91.7559 230.619C91.7559 235.177 117.728 238.872 149.766 238.872Z" fill="#108E66"/>
<path opacity="0.5" d="M149.766 238.872C181.804 238.872 207.776 235.177 207.776 230.619C207.776 226.062 181.804 222.367 149.766 222.367C117.728 222.367 91.7559 226.062 91.7559 230.619C91.7559 235.177 117.728 238.872 149.766 238.872Z" fill="white"/>
<path d="M277.238 258.266C295.235 258.266 309.824 254.571 309.824 250.014C309.824 245.456 295.235 241.761 277.238 241.761C259.242 241.761 244.652 245.456 244.652 250.014C244.652 254.571 259.242 258.266 277.238 258.266Z" fill="#108E66"/>
<path opacity="0.5" d="M277.238 258.266C295.235 258.266 309.824 254.571 309.824 250.014C309.824 245.456 295.235 241.761 277.238 241.761C259.242 241.761 244.652 245.456 244.652 250.014C244.652 254.571 259.242 258.266 277.238 258.266Z" fill="white"/>
<path d="M0.63042 60.0242C0.467208 59.4368 0.430115 58.8217 0.521553 58.2191C0.612991 57.6164 0.830909 57.0397 1.16112 56.5264C1.49134 56.0131 1.92644 55.5749 2.43811 55.2401C2.94977 54.9054 3.52653 54.6817 4.13082 54.5835C7.78474 54.0868 12.2754 58.9697 13.6955 61.927C13.8183 62.1791 15.2768 66.3972 15.2308 66.3972C15.1847 66.3972 8.75196 66.5424 6.11131 65.3962C3.83144 64.4104 1.26755 62.5383 0.63042 60.0242ZM94.4886 48.8142C93.9513 51.3512 91.4181 53.2921 89.1843 54.3314C86.9505 55.3706 81.6846 55.554 80.3873 55.5769C79.6887 56.4098 78.9441 57.2962 78.1458 58.3049C76.7487 60.0854 75.1981 62.1256 73.6551 64.4181C73.2406 65.037 72.8261 65.7095 72.4039 66.359C73.3404 65.4115 74.6377 64.1277 74.7759 64.0131C77.3474 61.9728 83.5269 59.5352 86.5974 61.5602C87.0988 61.9107 87.5203 62.3625 87.8345 62.8861C88.1488 63.4097 88.3486 63.9933 88.421 64.599C88.4934 65.2046 88.4368 65.8186 88.2549 66.401C88.0729 66.9834 87.7697 67.5211 87.365 67.979C85.7146 69.9811 82.552 70.5389 80.0956 70.4395C77.6391 70.3402 72.7263 68.0172 71.6516 67.4976C70.7458 68.9495 69.8554 70.4625 69.011 72.0825C67.4609 75.0197 66.1765 78.0884 65.1728 81.2522L65.357 81.3439C66.1247 80.3658 67.7367 78.3408 67.8902 78.188C70.1931 75.8955 76.0962 72.7778 79.4047 74.459C79.9414 74.753 80.4098 75.1563 80.7794 75.6426C81.1491 76.1289 81.4116 76.6873 81.55 77.2814C81.6883 77.8755 81.6993 78.4919 81.5823 79.0905C81.4653 79.6891 81.2229 80.2564 80.8709 80.7555C79.4507 82.9257 76.3725 83.8121 73.9622 83.9955C71.1373 84.1942 65.288 81.9934 65.073 81.9094C64.1525 85.0921 63.4422 88.3313 62.9467 91.6064C62.5629 94.0211 62.2788 96.4893 62.0179 98.9727C62.5245 98.2697 64.6585 95.6105 64.8351 95.4347C67.1379 93.1423 73.041 90.0246 76.3495 91.7057C76.8862 91.9997 77.3547 92.4031 77.7243 92.8894C78.0939 93.3757 78.3565 93.9341 78.4948 94.5281C78.6331 95.1222 78.6441 95.7386 78.5271 96.3372C78.4101 96.9358 78.1677 97.5032 77.8157 98.0023C76.3956 100.172 73.3174 101.059 70.907 101.242C68.1435 101.433 62.5322 99.3548 62.0639 99.1791C61.9488 100.302 61.8183 101.426 61.7108 102.557C61.35 106.24 61.0046 109.938 60.5517 113.576C60.3982 114.836 60.1909 116.074 59.999 117.312C60.7666 116.281 62.3019 114.439 62.4247 114.294C64.7276 112.001 70.6307 108.884 73.9392 110.565C74.4759 110.859 74.9443 111.262 75.3139 111.748C75.6836 112.235 75.9461 112.793 76.0844 113.387C76.2228 113.981 76.2338 114.598 76.1168 115.196C75.9998 115.795 75.7573 116.362 75.4053 116.861C73.9852 119.032 70.907 119.918 68.4583 120.094C66.0095 120.269 61.2349 118.619 59.9069 118.138C59.5614 120.201 59.1392 122.233 58.7017 124.251C58.4791 125.107 58.3102 125.985 58.0492 126.795C57.7882 127.605 57.5579 128.423 57.2816 129.225C56.7212 130.861 56.2146 132.389 55.6542 133.902C55.3778 134.666 55.1015 135.384 54.8175 136.125C55.47 134.964 56.5293 133.138 56.6521 132.985C58.6019 130.349 63.9369 126.398 67.3989 127.567C67.9739 127.777 68.4981 128.104 68.9374 128.529C69.3766 128.953 69.7212 129.465 69.9486 130.031C70.1759 130.597 70.2811 131.204 70.2571 131.813C70.2331 132.422 70.0805 133.019 69.8093 133.566C68.7346 135.927 65.8253 137.272 63.4303 137.814C60.7896 138.41 55.1169 137.264 54.4183 137.119C53.7274 138.93 53.0443 140.687 52.3687 142.323C50.2424 147.488 48.2773 151.722 46.8571 154.656C46.7804 154.824 46.7036 154.969 46.6269 155.13H56.9668L53.3974 224.415C53.2727 226.973 52.1603 229.385 50.2923 231.146C48.4242 232.907 45.945 233.882 43.3721 233.867C40.8226 233.861 38.3721 232.884 36.5236 231.136C34.675 229.388 33.5686 227.003 33.4313 224.468L29.8695 155.16H40.9617C40.908 154.679 40.8543 154.175 40.7852 153.632C40.4167 150.43 39.818 145.853 38.8508 140.405C38.5821 138.831 38.2597 137.172 37.9219 135.468C37.2004 135.56 31.4738 136.278 28.8869 135.468C26.5303 134.75 23.7361 133.176 22.8457 130.761C22.6153 130.196 22.5071 129.589 22.528 128.98C22.549 128.371 22.6987 127.773 22.9674 127.225C23.2361 126.677 23.6177 126.191 24.0874 125.8C24.5572 125.409 25.1044 125.12 25.6936 124.954C29.263 124.044 34.291 128.377 36.0412 131.159C36.1487 131.334 37.2387 133.581 37.7684 134.742C37.5611 133.711 37.3539 132.687 37.1159 131.617C36.7858 130.089 36.3483 128.461 36.0105 126.895C35.7802 126.092 35.5576 125.275 35.3273 124.457C35.097 123.639 34.8053 122.852 34.5597 122.035C34.1529 120.85 33.6692 119.643 33.1933 118.443C31.6581 118.871 27.0523 120.048 24.7033 119.712C22.3544 119.375 19.2685 118.237 18.0173 115.967C17.7041 115.443 17.5054 114.859 17.4338 114.253C17.3623 113.647 17.4196 113.033 17.602 112.451C17.7845 111.869 18.088 111.331 18.4928 110.873C18.8976 110.415 19.3947 110.047 19.9517 109.793C23.3446 108.364 28.9637 111.887 31.1207 114.378C31.1898 114.454 31.589 115.027 32.0572 115.708C31.5583 114.546 31.0593 113.415 30.522 112.231C28.9867 108.945 27.2902 105.644 25.6168 102.297C25.2714 101.609 24.9336 100.914 24.5882 100.218C23.2755 100.585 18.3243 101.907 15.8602 101.548C13.3961 101.189 10.4254 100.073 9.17415 97.8036C8.85991 97.2802 8.66021 96.6966 8.5881 96.091C8.51599 95.4855 8.5731 94.8716 8.75569 94.2895C8.93828 93.7075 9.24224 93.1703 9.64769 92.7132C10.0531 92.2561 10.551 91.8894 11.1086 91.6369C14.4938 90.2003 20.1206 93.7307 22.2776 96.2218C22.3544 96.3135 22.8303 96.986 23.36 97.7501C22.4772 95.9314 21.6174 94.1128 20.8191 92.2865C19.4406 89.1494 18.2713 85.9254 17.3187 82.6353C16.8581 82.7729 11.0856 84.4387 8.34511 84.0413C5.91172 83.6898 2.91028 82.5665 1.65905 80.297C1.34935 79.7762 1.15272 79.1965 1.08182 78.5954C1.01092 77.9942 1.06733 77.385 1.24741 76.8069C1.42749 76.2288 1.72724 75.6947 2.12735 75.239C2.52747 74.7832 3.01906 74.416 3.57045 74.1609C6.96338 72.7243 12.5824 76.2547 14.7395 78.7458C14.893 78.9216 16.5971 81.405 17.1805 82.3067C17.1773 82.2686 17.1773 82.2302 17.1805 82.1921C16.3253 78.9373 15.7653 75.6127 15.5071 72.2582C15.256 69.2646 15.1842 66.2587 15.2922 63.2566C15.3536 60.4751 15.5839 57.9076 15.8142 55.6839C15.9447 54.4613 16.0828 53.3533 16.2287 52.3217L16.1673 52.3599C16.1059 52.3599 14.87 48.1189 14.8239 47.8361C14.2789 44.6038 15.1463 38.0398 18.4164 36.3739C18.9675 36.1078 19.5687 35.9605 20.1809 35.9415C20.7931 35.9226 21.4024 36.0325 21.9689 36.264C22.5355 36.4955 23.0466 36.8435 23.4689 37.2851C23.8911 37.7267 24.215 38.2521 24.4193 38.8268C25.3788 41.2339 24.3349 44.2523 23.0529 46.346C21.771 48.4398 17.4799 51.4811 16.4129 52.207C16.2824 53.2845 16.1596 54.4383 16.0521 55.7221C15.8756 57.9687 15.699 60.5056 15.6913 63.2795C15.6913 64.0436 15.6913 64.8078 15.7297 65.5719C15.983 64.2729 16.3515 62.5154 16.4052 62.3167C17.4185 59.199 21.2183 53.7735 24.9106 53.7735C25.5225 53.7925 26.1236 53.9394 26.6748 54.2045C27.2261 54.4697 27.7152 54.8472 28.1104 55.3127C28.5056 55.7782 28.7981 56.3211 28.9689 56.9064C29.1397 57.4917 29.185 58.1061 29.1018 58.7099C28.8332 61.2851 26.5073 63.4858 24.4039 64.7543C22.3006 66.0228 16.9119 66.7793 15.7527 66.9168C15.7988 68.6285 15.8986 70.3784 16.0982 72.2047C16.4326 75.5191 17.062 78.7974 17.9789 82.0011H18.1861C18.2706 80.7708 18.5085 78.1803 18.5469 77.974C19.2148 74.7646 22.3851 68.9571 26.062 68.5597C26.6725 68.5113 27.2864 68.5912 27.8638 68.7943C28.4412 68.9973 28.9693 69.319 29.4137 69.7384C29.8582 70.1578 30.2091 70.6655 30.4437 71.2286C30.6782 71.7917 30.7912 72.3977 30.7753 73.0071C30.7753 75.5975 28.718 78.0352 26.7682 79.5252C24.4884 81.1834 18.3934 82.5665 18.1554 82.6124C19.1513 85.7719 20.354 88.8631 21.7556 91.8662C22.7612 94.0898 23.9127 96.3212 25.0641 98.5219C25.0641 97.6508 25.4019 94.2656 25.4556 94.0211C26.1234 90.8117 29.2938 85.0042 32.963 84.6068C33.5731 84.5572 34.1868 84.6361 34.7642 84.8383C35.3416 85.0404 35.8698 85.3613 36.3144 85.7801C36.759 86.1989 37.1101 86.7062 37.3447 87.269C37.5793 87.8317 37.6923 88.4374 37.6763 89.0465C37.6763 91.6369 35.6267 94.0746 33.6769 95.5646C31.4815 97.2458 25.6475 98.6212 25.1562 98.7053C25.6859 99.7063 26.2002 100.715 26.7375 101.716C28.4801 104.987 30.2379 108.257 31.873 111.543C32.441 112.682 32.963 113.835 33.485 114.966C33.5771 113.667 33.7997 111.314 33.8381 111.107C34.506 107.906 37.6763 102.09 41.3456 101.693C41.956 101.645 42.5699 101.725 43.1473 101.928C43.7247 102.131 44.2528 102.452 44.6973 102.872C45.1417 103.291 45.4926 103.799 45.7272 104.362C45.9618 104.925 46.0747 105.531 46.0588 106.14C46.0588 108.731 44.0092 111.169 42.0595 112.659C40.1097 114.149 35.2199 115.394 33.8381 115.715C34.6979 117.618 35.5039 119.536 36.2101 121.446C36.4941 122.279 36.8396 123.112 37.0699 123.93L37.8375 126.352C38.2827 128.026 38.7049 129.577 39.0734 131.151C39.273 131.915 39.4342 132.679 39.6107 133.443C39.5109 132.121 39.3881 130.012 39.3958 129.821C39.5647 126.551 41.8215 120.323 45.3833 119.383C45.9819 119.235 46.6054 119.214 47.2124 119.324C47.8194 119.434 48.3961 119.67 48.9042 120.019C49.4123 120.367 49.8403 120.819 50.1596 121.344C50.479 121.87 50.6825 122.457 50.7567 123.066C50.808 123.382 50.8285 123.702 50.8181 124.021C52.2747 126.517 53.0673 129.342 53.121 132.228C53.121 132.435 52.7756 134.91 52.576 136.164C52.9752 135.193 53.3436 134.223 53.7581 133.206C54.3339 131.739 54.9019 130.15 55.4546 128.622C55.7079 127.857 55.9689 127.017 56.2222 126.207C56.4756 125.397 56.6751 124.579 56.9054 123.762C57.2278 122.547 57.4965 121.278 57.7652 120.01C56.2299 119.521 51.7546 117.985 49.9814 116.411C48.2082 114.836 46.2661 112.192 46.4733 109.61C46.5037 109.001 46.6622 108.405 46.9388 107.862C47.2153 107.318 47.6035 106.838 48.0784 106.453C48.5532 106.068 49.104 105.787 49.695 105.628C50.286 105.469 50.904 105.435 51.509 105.529C55.1322 106.194 57.865 112.223 58.2948 115.463C58.2948 115.562 58.2948 116.227 58.2948 117.091C58.5251 115.845 58.7554 114.607 58.9397 113.339C59.4693 109.747 59.8915 106.064 60.3367 102.388C60.4212 101.624 60.5286 100.86 60.6208 100.096C59.3311 99.6834 54.4797 98.0634 52.6067 96.4128C50.7337 94.7623 48.8914 92.1948 49.1063 89.6196C49.1346 89.0105 49.2914 88.4142 49.5666 87.8695C49.8418 87.3249 50.2292 86.844 50.7036 86.4583C51.178 86.0726 51.7286 85.7907 52.3197 85.631C52.9109 85.4713 53.5291 85.4374 54.1343 85.5314C57.7652 86.1962 60.4979 92.233 60.9201 95.4653C60.9201 95.5799 60.9201 96.4128 60.9662 97.3451C61.2349 95.343 61.5342 93.3563 61.8797 91.3924C62.4675 88.0315 63.2779 84.713 64.3054 81.4585C63.8525 81.3133 58.1106 79.5329 56.0457 77.6989C54.211 76.0637 52.3304 73.4808 52.5376 70.898C52.568 70.2893 52.7265 69.6937 53.003 69.1499C53.2795 68.6061 53.6678 68.1263 54.1426 67.7415C54.6175 67.3567 55.1683 67.0756 55.7593 66.9165C56.3503 66.7573 56.9683 66.7236 57.5733 66.8175C61.1965 67.4823 63.9293 73.5114 64.3591 76.7514C64.3591 76.9806 64.4359 79.9837 64.4129 81.0612V80.9465C65.5064 77.7762 66.8781 74.7078 68.512 71.7768C69.9658 69.1387 71.5728 66.5872 73.3251 64.1353C74.9217 61.8429 76.5261 59.8561 77.9308 58.1062C78.6985 57.1587 79.4661 56.3105 80.1416 55.5234H80.0572C79.9958 55.5234 81.3391 51.2671 81.4543 51.0073C82.7899 48.0195 87.1424 43.0144 90.8117 43.4117C91.4279 43.4873 92.0208 43.6933 92.5505 44.0158C93.0802 44.3383 93.5345 44.77 93.8827 45.2817C94.231 45.7934 94.4653 46.3734 94.5698 46.9827C94.6743 47.592 94.6466 48.2165 94.4886 48.8142ZM52.2152 136.859C51.5934 136.553 46.7574 134.169 44.869 132.137C43.2398 133.033 41.5583 133.832 39.8333 134.528C40.2632 136.416 40.6624 138.265 41.0001 140C42.0978 145.479 42.7964 150.079 43.2416 153.311C43.3414 153.999 43.4182 154.618 43.4949 155.176H43.7406L44.5082 153.609C45.9744 150.736 48.0086 146.594 50.227 141.52C50.9026 140.03 51.5627 138.464 52.2152 136.859ZM71.5288 66.8099C71.5902 66.8481 72.7033 62.5306 72.7493 62.225C73.2022 58.9774 72.1583 52.4439 68.8421 50.8469C68.2794 50.5982 67.6702 50.471 67.0546 50.4736C66.439 50.4762 65.8309 50.6085 65.2703 50.8619C64.7098 51.1153 64.2095 51.4839 63.8024 51.9436C63.3953 52.4033 63.0906 52.9436 62.9083 53.529C62.0179 55.959 63.1463 58.9468 64.4436 61.0023C66.0479 63.3788 71.5288 66.8099 71.5288 66.8099Z" fill="#108E66"/>
<path opacity="0.3" d="M0.63042 60.0242C0.467208 59.4368 0.430115 58.8217 0.521553 58.2191C0.612991 57.6164 0.830909 57.0397 1.16112 56.5264C1.49134 56.0131 1.92644 55.5749 2.43811 55.2401C2.94977 54.9054 3.52653 54.6817 4.13082 54.5835C7.78474 54.0868 12.2754 58.9697 13.6955 61.927C13.8183 62.1791 15.2768 66.3972 15.2308 66.3972C15.1847 66.3972 8.75196 66.5424 6.11131 65.3962C3.83144 64.4104 1.26755 62.5383 0.63042 60.0242ZM94.4886 48.8142C93.9513 51.3512 91.4181 53.2921 89.1843 54.3314C86.9505 55.3706 81.6846 55.554 80.3873 55.5769C79.6887 56.4098 78.9441 57.2962 78.1458 58.3049C76.7487 60.0854 75.1981 62.1256 73.6551 64.4181C73.2406 65.037 72.8261 65.7095 72.4039 66.359C73.3404 65.4115 74.6377 64.1277 74.7759 64.0131C77.3474 61.9728 83.5269 59.5352 86.5974 61.5602C87.0988 61.9107 87.5203 62.3625 87.8345 62.8861C88.1488 63.4097 88.3486 63.9933 88.421 64.599C88.4934 65.2046 88.4368 65.8186 88.2549 66.401C88.0729 66.9834 87.7697 67.5211 87.365 67.979C85.7146 69.9811 82.552 70.5389 80.0956 70.4395C77.6391 70.3402 72.7263 68.0172 71.6516 67.4976C70.7458 68.9495 69.8554 70.4625 69.011 72.0825C67.4609 75.0197 66.1765 78.0884 65.1728 81.2522L65.357 81.3439C66.1247 80.3658 67.7367 78.3408 67.8902 78.188C70.1931 75.8955 76.0962 72.7778 79.4047 74.459C79.9414 74.753 80.4098 75.1563 80.7794 75.6426C81.1491 76.1289 81.4116 76.6873 81.55 77.2814C81.6883 77.8755 81.6993 78.4919 81.5823 79.0905C81.4653 79.6891 81.2229 80.2564 80.8709 80.7555C79.4507 82.9257 76.3725 83.8121 73.9622 83.9955C71.1373 84.1942 65.288 81.9934 65.073 81.9094C64.1525 85.0921 63.4422 88.3313 62.9467 91.6064C62.5629 94.0211 62.2788 96.4893 62.0179 98.9727C62.5245 98.2697 64.6585 95.6105 64.8351 95.4347C67.1379 93.1423 73.041 90.0246 76.3495 91.7057C76.8862 91.9997 77.3547 92.4031 77.7243 92.8894C78.0939 93.3757 78.3565 93.9341 78.4948 94.5281C78.6331 95.1222 78.6441 95.7386 78.5271 96.3372C78.4101 96.9358 78.1677 97.5032 77.8157 98.0023C76.3956 100.172 73.3174 101.059 70.907 101.242C68.1435 101.433 62.5322 99.3548 62.0639 99.1791C61.9488 100.302 61.8183 101.426 61.7108 102.557C61.35 106.24 61.0046 109.938 60.5517 113.576C60.3982 114.836 60.1909 116.074 59.999 117.312C60.7666 116.281 62.3019 114.439 62.4247 114.294C64.7276 112.001 70.6307 108.884 73.9392 110.565C74.4759 110.859 74.9443 111.262 75.3139 111.748C75.6836 112.235 75.9461 112.793 76.0844 113.387C76.2228 113.981 76.2338 114.598 76.1168 115.196C75.9998 115.795 75.7573 116.362 75.4053 116.861C73.9852 119.032 70.907 119.918 68.4583 120.094C66.0095 120.269 61.2349 118.619 59.9069 118.138C59.5614 120.201 59.1392 122.233 58.7017 124.251C58.4791 125.107 58.3102 125.985 58.0492 126.795C57.7882 127.605 57.5579 128.423 57.2816 129.225C56.7212 130.861 56.2146 132.389 55.6542 133.902C55.3778 134.666 55.1015 135.384 54.8175 136.125C55.47 134.964 56.5293 133.138 56.6521 132.985C58.6019 130.349 63.9369 126.398 67.3989 127.567C67.9739 127.777 68.4981 128.104 68.9374 128.529C69.3766 128.953 69.7212 129.465 69.9486 130.031C70.1759 130.597 70.2811 131.204 70.2571 131.813C70.2331 132.422 70.0805 133.019 69.8093 133.566C68.7346 135.927 65.8253 137.272 63.4303 137.814C60.7896 138.41 55.1169 137.264 54.4183 137.119C53.7274 138.93 53.0443 140.687 52.3687 142.323C50.2424 147.488 48.2773 151.722 46.8571 154.656C46.7804 154.824 46.7036 154.969 46.6269 155.13H56.9668L53.3974 224.415C53.2727 226.973 52.1603 229.385 50.2923 231.146C48.4242 232.907 45.945 233.882 43.3721 233.867C40.8226 233.861 38.3721 232.884 36.5236 231.136C34.675 229.388 33.5686 227.003 33.4313 224.468L29.8695 155.16H40.9617C40.908 154.679 40.8543 154.175 40.7852 153.632C40.4167 150.43 39.818 145.853 38.8508 140.405C38.5821 138.831 38.2597 137.172 37.9219 135.468C37.2004 135.56 31.4738 136.278 28.8869 135.468C26.5303 134.75 23.7361 133.176 22.8457 130.761C22.6153 130.196 22.5071 129.589 22.528 128.98C22.549 128.371 22.6987 127.773 22.9674 127.225C23.2361 126.677 23.6177 126.191 24.0874 125.8C24.5572 125.409 25.1044 125.12 25.6936 124.954C29.263 124.044 34.291 128.377 36.0412 131.159C36.1487 131.334 37.2387 133.581 37.7684 134.742C37.5611 133.711 37.3539 132.687 37.1159 131.617C36.7858 130.089 36.3483 128.461 36.0105 126.895C35.7802 126.092 35.5576 125.275 35.3273 124.457C35.097 123.639 34.8053 122.852 34.5597 122.035C34.1529 120.85 33.6692 119.643 33.1933 118.443C31.6581 118.871 27.0523 120.048 24.7033 119.712C22.3544 119.375 19.2685 118.237 18.0173 115.967C17.7041 115.443 17.5054 114.859 17.4338 114.253C17.3623 113.647 17.4196 113.033 17.602 112.451C17.7845 111.869 18.088 111.331 18.4928 110.873C18.8976 110.415 19.3947 110.047 19.9517 109.793C23.3446 108.364 28.9637 111.887 31.1207 114.378C31.1898 114.454 31.589 115.027 32.0572 115.708C31.5583 114.546 31.0593 113.415 30.522 112.231C28.9867 108.945 27.2902 105.644 25.6168 102.297C25.2714 101.609 24.9336 100.914 24.5882 100.218C23.2755 100.585 18.3243 101.907 15.8602 101.548C13.3961 101.189 10.4254 100.073 9.17415 97.8036C8.85991 97.2802 8.66021 96.6966 8.5881 96.091C8.51599 95.4855 8.5731 94.8716 8.75569 94.2895C8.93828 93.7075 9.24224 93.1703 9.64769 92.7132C10.0531 92.2561 10.551 91.8894 11.1086 91.6369C14.4938 90.2003 20.1206 93.7307 22.2776 96.2218C22.3544 96.3135 22.8303 96.986 23.36 97.7501C22.4772 95.9314 21.6174 94.1128 20.8191 92.2865C19.4406 89.1494 18.2713 85.9254 17.3187 82.6353C16.8581 82.7729 11.0856 84.4387 8.34511 84.0413C5.91172 83.6898 2.91028 82.5665 1.65905 80.297C1.34935 79.7762 1.15272 79.1965 1.08182 78.5954C1.01092 77.9942 1.06733 77.385 1.24741 76.8069C1.42749 76.2288 1.72724 75.6947 2.12735 75.239C2.52747 74.7832 3.01906 74.416 3.57045 74.1609C6.96338 72.7243 12.5824 76.2547 14.7395 78.7458C14.893 78.9216 16.5971 81.405 17.1805 82.3067C17.1773 82.2686 17.1773 82.2302 17.1805 82.1921C16.3253 78.9373 15.7653 75.6127 15.5071 72.2582C15.256 69.2646 15.1842 66.2587 15.2922 63.2566C15.3536 60.4751 15.5839 57.9076 15.8142 55.6839C15.9447 54.4613 16.0828 53.3533 16.2287 52.3217L16.1673 52.3599C16.1059 52.3599 14.87 48.1189 14.8239 47.8361C14.2789 44.6038 15.1463 38.0398 18.4164 36.3739C18.9675 36.1078 19.5687 35.9605 20.1809 35.9415C20.7931 35.9226 21.4024 36.0325 21.9689 36.264C22.5355 36.4955 23.0466 36.8435 23.4689 37.2851C23.8911 37.7267 24.215 38.2521 24.4193 38.8268C25.3788 41.2339 24.3349 44.2523 23.0529 46.346C21.771 48.4398 17.4799 51.4811 16.4129 52.207C16.2824 53.2845 16.1596 54.4383 16.0521 55.7221C15.8756 57.9687 15.699 60.5056 15.6913 63.2795C15.6913 64.0436 15.6913 64.8078 15.7297 65.5719C15.983 64.2729 16.3515 62.5154 16.4052 62.3167C17.4185 59.199 21.2183 53.7735 24.9106 53.7735C25.5225 53.7925 26.1236 53.9394 26.6748 54.2045C27.2261 54.4697 27.7152 54.8472 28.1104 55.3127C28.5056 55.7782 28.7981 56.3211 28.9689 56.9064C29.1397 57.4917 29.185 58.1061 29.1018 58.7099C28.8332 61.2851 26.5073 63.4858 24.4039 64.7543C22.3006 66.0228 16.9119 66.7793 15.7527 66.9168C15.7988 68.6285 15.8986 70.3784 16.0982 72.2047C16.4326 75.5191 17.062 78.7974 17.9789 82.0011H18.1861C18.2706 80.7708 18.5085 78.1803 18.5469 77.974C19.2148 74.7646 22.3851 68.9571 26.062 68.5597C26.6725 68.5113 27.2864 68.5912 27.8638 68.7943C28.4412 68.9973 28.9693 69.319 29.4137 69.7384C29.8582 70.1578 30.2091 70.6655 30.4437 71.2286C30.6782 71.7917 30.7912 72.3977 30.7753 73.0071C30.7753 75.5975 28.718 78.0352 26.7682 79.5252C24.4884 81.1834 18.3934 82.5665 18.1554 82.6124C19.1513 85.7719 20.354 88.8631 21.7556 91.8662C22.7612 94.0898 23.9127 96.3212 25.0641 98.5219C25.0641 97.6508 25.4019 94.2656 25.4556 94.0211C26.1234 90.8117 29.2938 85.0042 32.963 84.6068C33.5731 84.5572 34.1868 84.6361 34.7642 84.8383C35.3416 85.0404 35.8698 85.3613 36.3144 85.7801C36.759 86.1989 37.1101 86.7062 37.3447 87.269C37.5793 87.8317 37.6923 88.4374 37.6763 89.0465C37.6763 91.6369 35.6267 94.0746 33.6769 95.5646C31.4815 97.2458 25.6475 98.6212 25.1562 98.7053C25.6859 99.7063 26.2002 100.715 26.7375 101.716C28.4801 104.987 30.2379 108.257 31.873 111.543C32.441 112.682 32.963 113.835 33.485 114.966C33.5771 113.667 33.7997 111.314 33.8381 111.107C34.506 107.906 37.6763 102.09 41.3456 101.693C41.956 101.645 42.5699 101.725 43.1473 101.928C43.7247 102.131 44.2528 102.452 44.6973 102.872C45.1417 103.291 45.4926 103.799 45.7272 104.362C45.9618 104.925 46.0747 105.531 46.0588 106.14C46.0588 108.731 44.0092 111.169 42.0595 112.659C40.1097 114.149 35.2199 115.394 33.8381 115.715C34.6979 117.618 35.5039 119.536 36.2101 121.446C36.4941 122.279 36.8396 123.112 37.0699 123.93L37.8375 126.352C38.2827 128.026 38.7049 129.577 39.0734 131.151C39.273 131.915 39.4342 132.679 39.6107 133.443C39.5109 132.121 39.3881 130.012 39.3958 129.821C39.5647 126.551 41.8215 120.323 45.3833 119.383C45.9819 119.235 46.6054 119.214 47.2124 119.324C47.8194 119.434 48.3961 119.67 48.9042 120.019C49.4123 120.367 49.8403 120.819 50.1596 121.344C50.479 121.87 50.6825 122.457 50.7567 123.066C50.808 123.382 50.8285 123.702 50.8181 124.021C52.2747 126.517 53.0673 129.342 53.121 132.228C53.121 132.435 52.7756 134.91 52.576 136.164C52.9752 135.193 53.3436 134.223 53.7581 133.206C54.3339 131.739 54.9019 130.15 55.4546 128.622C55.7079 127.857 55.9689 127.017 56.2222 126.207C56.4756 125.397 56.6751 124.579 56.9054 123.762C57.2278 122.547 57.4965 121.278 57.7652 120.01C56.2299 119.521 51.7546 117.985 49.9814 116.411C48.2082 114.836 46.2661 112.192 46.4733 109.61C46.5037 109.001 46.6622 108.405 46.9388 107.862C47.2153 107.318 47.6035 106.838 48.0784 106.453C48.5532 106.068 49.104 105.787 49.695 105.628C50.286 105.469 50.904 105.435 51.509 105.529C55.1322 106.194 57.865 112.223 58.2948 115.463C58.2948 115.562 58.2948 116.227 58.2948 117.091C58.5251 115.845 58.7554 114.607 58.9397 113.339C59.4693 109.747 59.8915 106.064 60.3367 102.388C60.4212 101.624 60.5286 100.86 60.6208 100.096C59.3311 99.6834 54.4797 98.0634 52.6067 96.4128C50.7337 94.7623 48.8914 92.1948 49.1063 89.6196C49.1346 89.0105 49.2914 88.4142 49.5666 87.8695C49.8418 87.3249 50.2292 86.844 50.7036 86.4583C51.178 86.0726 51.7286 85.7907 52.3197 85.631C52.9109 85.4713 53.5291 85.4374 54.1343 85.5314C57.7652 86.1962 60.4979 92.233 60.9201 95.4653C60.9201 95.5799 60.9201 96.4128 60.9662 97.3451C61.2349 95.343 61.5342 93.3563 61.8797 91.3924C62.4675 88.0315 63.2779 84.713 64.3054 81.4585C63.8525 81.3133 58.1106 79.5329 56.0457 77.6989C54.211 76.0637 52.3304 73.4808 52.5376 70.898C52.568 70.2893 52.7265 69.6937 53.003 69.1499C53.2795 68.6061 53.6678 68.1263 54.1426 67.7415C54.6175 67.3567 55.1683 67.0756 55.7593 66.9165C56.3503 66.7573 56.9683 66.7236 57.5733 66.8175C61.1965 67.4823 63.9293 73.5114 64.3591 76.7514C64.3591 76.9806 64.4359 79.9837 64.4129 81.0612V80.9465C65.5064 77.7762 66.8781 74.7078 68.512 71.7768C69.9658 69.1387 71.5728 66.5872 73.3251 64.1353C74.9217 61.8429 76.5261 59.8561 77.9308 58.1062C78.6985 57.1587 79.4661 56.3105 80.1416 55.5234H80.0572C79.9958 55.5234 81.3391 51.2671 81.4543 51.0073C82.7899 48.0195 87.1424 43.0144 90.8117 43.4117C91.4279 43.4873 92.0208 43.6933 92.5505 44.0158C93.0802 44.3383 93.5345 44.77 93.8827 45.2817C94.231 45.7934 94.4653 46.3734 94.5698 46.9827C94.6743 47.592 94.6466 48.2165 94.4886 48.8142ZM52.2152 136.859C51.5934 136.553 46.7574 134.169 44.869 132.137C43.2398 133.033 41.5583 133.832 39.8333 134.528C40.2632 136.416 40.6624 138.265 41.0001 140C42.0978 145.479 42.7964 150.079 43.2416 153.311C43.3414 153.999 43.4182 154.618 43.4949 155.176H43.7406L44.5082 153.609C45.9744 150.736 48.0086 146.594 50.227 141.52C50.9026 140.03 51.5627 138.464 52.2152 136.859ZM71.5288 66.8099C71.5902 66.8481 72.7033 62.5306 72.7493 62.225C73.2022 58.9774 72.1583 52.4439 68.8421 50.8469C68.2794 50.5982 67.6702 50.471 67.0546 50.4736C66.439 50.4762 65.8309 50.6085 65.2703 50.8619C64.7098 51.1153 64.2095 51.4839 63.8024 51.9436C63.3953 52.4033 63.0906 52.9436 62.9083 53.529C62.0179 55.959 63.1463 58.9468 64.4436 61.0023C66.0479 63.3788 71.5288 66.8099 71.5288 66.8099Z" fill="white"/>
<path d="M267.697 237.122C264.917 239.142 261.986 240.948 258.93 242.525C255.315 244.183 254.616 244.183 254.754 245.153C254.893 246.124 259.068 247.644 266.722 245.849C274.375 244.053 277.991 244.458 279.104 240.859C280.217 237.26 278.413 238.23 276.187 238.23C273.339 238.009 270.505 237.639 267.697 237.122Z" fill="#2E353A" stroke="#2E353A" stroke-linecap="round" stroke-linejoin="round"/>
<path d="M278.689 241.814C275.426 242.67 269.546 244.106 264.634 244.871C261.408 245.452 258.092 245.306 254.931 244.443C254.845 244.536 254.784 244.649 254.753 244.772C254.723 244.895 254.723 245.023 254.754 245.146C254.892 246.116 259.068 247.637 266.722 245.841C273.615 244.229 277.223 244.389 278.689 241.814Z" fill="white" stroke="#2E353A" stroke-linecap="round" stroke-linejoin="round"/>
<path d="M305.249 170.985C305.249 170.985 305.533 175.838 302.179 182.486C298.824 189.134 288.983 189.684 286.343 189.684C283.702 189.684 284.531 186.918 284.531 186.918L284.946 184.419L280.493 183.311C280.493 183.311 268.672 198.968 268.672 200.214C268.672 201.459 280.892 230.054 281.591 233.378C282.29 236.702 282.704 237.535 281.169 238.78C280.031 239.579 278.725 240.107 277.35 240.323C275.975 240.539 274.568 240.437 273.239 240.026C271.172 239.382 269.171 238.548 267.259 237.535C267.182 236.29 267.182 235.042 267.259 233.798C267.398 232.553 269.485 233.523 268.511 231.445C267.536 229.366 266.975 228.808 266.423 227.425C265.87 226.042 252.705 204.203 253.265 199.075C253.826 193.948 266.169 176.151 266.169 175.738C266.689 174.441 267.292 173.177 267.973 171.956C267.973 171.956 268.526 170.152 269.923 169.877C271.32 169.602 292.599 169.877 298.026 169.19C303.453 168.502 306.094 168.769 305.249 170.985Z" fill="#108E66" stroke="#2E353A" stroke-linecap="round" stroke-linejoin="round"/>
<path d="M270.56 210.309L271.35 211.982" stroke="#2E353A" stroke-linecap="round" stroke-linejoin="round"/>
<path d="M273.047 191.304L267.045 199.114C267.045 199.114 259.368 200.038 261.671 200.191C263.974 200.344 266.277 200.344 266.277 200.344C266.277 200.344 264.273 200.955 264.742 201.261C265.281 201.475 265.858 201.579 266.438 201.567L269.716 208.505" stroke="#2E353A" stroke-linecap="round" stroke-linejoin="round"/>
<path d="M261.318 112.674C261.318 112.674 259.376 113.743 256.451 115.402C253.527 117.06 251.846 117.893 251.446 119.283C251.047 120.674 242.534 138.02 242.534 138.02C242.534 138.02 245.873 139.961 248.936 141.344C251.264 142.297 253.688 142.994 256.167 143.423L258.954 137.608C258.954 137.608 264.327 147.71 266.63 151.316C270.729 157.758 269.409 161.709 268.856 163.925C268.304 166.141 266.768 170.298 267.183 170.848C267.597 171.398 278.452 176.251 285.414 175.838C292.376 175.425 304.305 174.783 305.142 173.813C305.979 172.842 306.117 167.249 306.117 166.829C306.117 166.408 304.889 155.611 303.638 149.1C302.386 142.59 295.57 125.137 293.344 120.43C291.118 115.723 289.03 114.194 283.364 112.261C277.699 110.328 269.309 109.907 265.832 110.32C262.354 110.733 261.318 112.674 261.318 112.674Z" fill="#2E353A" stroke="#2E353A" stroke-linecap="round" stroke-linejoin="round"/>
<path d="M284.738 131.25L293.359 134.009L286.128 134.773" stroke="white" stroke-linecap="round" stroke-linejoin="round"/>
<path d="M270.583 153.158C270.583 153.158 278.889 159.898 289.052 159.898" stroke="white" stroke-linecap="round" stroke-linejoin="round"/>
<path d="M273.354 159.287C273.354 159.287 280.263 162.504 287.356 161.434" stroke="white" stroke-linecap="round" stroke-linejoin="round"/>
<path d="M255.499 129.11L258.953 137.607L251.653 127.116" stroke="white" stroke-linecap="round" stroke-linejoin="round"/>
<path d="M260.727 113.644C260.539 115.206 260.493 116.781 260.589 118.351C260.727 121.263 261.702 123.341 260.865 125.42C260.028 127.498 261.011 128.476 261.84 127.498C262.669 126.52 264.066 122.783 264.35 122.096C264.634 121.408 270.491 120.155 271.305 120.155C272.118 120.155 274.782 124.312 276.033 124.862C277.284 125.412 277.008 124.312 276.171 122.096C275.335 119.88 274.367 112.162 272.418 109.762C270.468 107.363 262.707 107.967 260.727 113.644Z" fill="white" stroke="#2E353A" stroke-linecap="round" stroke-linejoin="round"/>
<path d="M262.155 116.135C261.387 115.868 266.185 123.204 268.135 126.94C270.084 130.677 271.888 129.714 272.172 126.803C272.456 123.891 271.197 114.194 271.197 114.194C271.197 114.194 266.185 117.526 262.155 116.135Z" fill="white" stroke="#2E353A" stroke-linecap="round" stroke-linejoin="round"/>
<path d="M272.119 123.318C270.324 124.085 268.337 124.288 266.423 123.899C267.075 125.015 267.682 126.077 268.135 126.956C270.084 130.692 271.888 129.73 272.172 126.818C272.232 125.652 272.214 124.482 272.119 123.318Z" fill="#108E66" stroke="#2E353A" stroke-linecap="round" stroke-linejoin="round"/>
<path d="M276.202 174.913V192.038" stroke="#2E353A" stroke-linecap="round" stroke-linejoin="round"/>
<path d="M290.956 178.772C290.877 178.78 290.797 178.78 290.718 178.772L264.841 175.716C264.328 175.635 263.867 175.359 263.554 174.947C263.24 174.535 263.099 174.018 263.159 173.505C263.22 172.992 263.477 172.522 263.878 172.193C264.279 171.864 264.792 171.703 265.31 171.742L291.186 174.799C291.708 174.841 292.193 175.084 292.536 175.477C292.88 175.87 293.056 176.381 293.026 176.901C292.996 177.421 292.762 177.909 292.375 178.26C291.989 178.611 291.479 178.798 290.956 178.78V178.772Z" fill="white" stroke="#2E353A" stroke-linecap="round" stroke-linejoin="round"/>
<path d="M291.072 178.138C291.763 178.138 292.323 177.481 292.323 176.671C292.323 175.86 291.763 175.204 291.072 175.204C290.381 175.204 289.82 175.86 289.82 176.671C289.82 177.481 290.381 178.138 291.072 178.138Z" fill="white" stroke="#2E353A" stroke-linecap="round" stroke-linejoin="round"/>
<path d="M267.574 250.38L283.088 257.983C283.177 258.023 283.274 258.043 283.372 258.043C283.47 258.043 283.567 258.023 283.656 257.983L292.967 254.552C293.1 254.503 293.216 254.416 293.298 254.302C293.381 254.188 293.428 254.051 293.433 253.91C293.438 253.77 293.401 253.63 293.326 253.511C293.251 253.391 293.143 253.296 293.013 253.238L278.475 246.536C278.326 246.468 278.158 246.452 277.999 246.491L267.728 249.05C267.584 249.084 267.455 249.16 267.357 249.27C267.259 249.379 267.197 249.516 267.18 249.661C267.164 249.807 267.192 249.954 267.263 250.083C267.333 250.211 267.442 250.315 267.574 250.38Z" fill="white" stroke="#2E353A" stroke-linecap="round" stroke-linejoin="round"/>
<path d="M279.917 252.91H276.847C276.149 252.908 275.481 252.631 274.987 252.14C274.494 251.649 274.216 250.983 274.214 250.289L272.287 194.277C272.287 193.647 272.539 193.042 272.986 192.596C273.434 192.151 274.041 191.9 274.674 191.9H278.244C278.877 191.9 279.484 192.151 279.932 192.596C280.38 193.042 280.631 193.647 280.631 194.277L282.558 250.289C282.558 250.634 282.49 250.975 282.357 251.294C282.224 251.612 282.029 251.901 281.784 252.145C281.539 252.388 281.248 252.581 280.927 252.712C280.607 252.844 280.264 252.911 279.917 252.91Z" fill="white" stroke="#2E353A" stroke-linecap="round" stroke-linejoin="round"/>
<path d="M287.456 250.969C285.122 253.151 282.658 255.192 280.079 257.082C277.008 259.16 276.74 258.885 277.438 260.268C278.137 261.651 280.217 262.484 286.066 261.239C291.916 259.993 293.858 259.023 297.059 257.219C300.26 255.416 301.227 255.416 300.398 254.308C299.569 253.2 287.456 250.969 287.456 250.969Z" fill="#2E353A" stroke="#2E353A" stroke-linecap="round" stroke-linejoin="round"/>
<path d="M297.059 257.204C300.252 255.401 301.227 255.401 300.398 254.293C300.178 254.089 299.916 253.935 299.63 253.842C295.388 256.337 290.896 258.386 286.228 259.955C280.24 261.751 277.323 259.672 277.323 259.672L277.254 259.787C277.314 259.938 277.384 260.086 277.461 260.23C278.152 261.613 280.24 262.446 286.089 261.2C291.939 259.955 293.858 259.007 297.059 257.204Z" fill="white" stroke="#2E353A" stroke-linecap="round" stroke-linejoin="round"/>
<path d="M309.456 140.236C308.46 138.067 307.579 135.848 306.815 133.588C304.481 134.696 297.35 140.641 297.35 140.641L303.614 149.085C303.614 149.085 297.634 157.674 294.848 162.527C292.8 165.837 290.267 168.825 287.332 171.391L280.493 171.307C280.191 171.497 279.936 171.754 279.749 172.057C279.561 172.36 279.446 172.702 279.411 173.056C279.411 174.126 278.198 177.894 278.735 178.566C279.272 179.238 282.519 179.368 282.519 179.368C282.519 179.368 287.785 179.911 288.73 178.566C288.73 178.566 287.11 176.816 287.24 176.014C287.371 175.211 288.998 174.669 288.998 174.669L290.764 174.539C290.764 174.539 291.37 174.959 291.877 172.246C293.243 171.345 298.21 168.028 300.835 165.415C303.906 162.358 312.941 152.256 313.632 150.316C314.322 148.375 311.267 144.256 309.456 140.236Z" fill="white" stroke="#2E353A" stroke-linecap="round" stroke-linejoin="round"/>
<path d="M308.811 138.762C307.453 135.59 306.815 133.588 306.815 133.588C304.482 134.696 297.351 140.641 297.351 140.641L300.329 144.653C303.664 143.536 306.607 141.491 308.811 138.762Z" fill="#108E66" stroke="#2E353A" stroke-linecap="round" stroke-linejoin="round"/>
<path d="M289.559 130.264L296.936 143.255L301.25 140.343C303.686 138.546 305.844 136.401 307.652 133.978C304.656 129.254 301.308 124.761 297.635 120.537C291.785 113.889 289.006 113.476 286.504 113.613" fill="#2E353A"/>
<path d="M289.559 130.264L296.936 143.255L301.25 140.343C303.686 138.546 305.844 136.401 307.652 133.978C304.656 129.254 301.308 124.761 297.635 120.537C291.785 113.889 289.006 113.476 286.504 113.613" stroke="#2E353A" stroke-linecap="round" stroke-linejoin="round"/>
<path d="M271.581 175.356C271.581 174.814 269.278 169.174 269.278 169.174L262.37 165.392C259.522 159.691 255.146 150.567 254.394 148.963C253.833 147.849 253.365 146.692 252.997 145.501L254.171 143.01C252.388 142.617 250.646 142.059 248.967 141.344C247.67 140.763 246.334 140.083 245.221 139.487C244.607 141.826 243.555 145.853 243.954 147.855C244.353 149.857 253.435 161.304 257.971 167.088C257.971 167.088 259.867 175.089 260.681 176.296L261.495 177.504C261.495 177.504 262.838 178.986 263.514 178.848C264.094 178.667 264.64 178.393 265.133 178.038C265.613 178.195 266.122 178.242 266.622 178.176C267.281 177.894 267.876 177.483 268.373 176.969C268.373 176.969 269.048 177.733 270.676 177.374C272.303 177.014 271.581 175.891 271.581 175.356Z" fill="white" stroke="#2E353A" stroke-linecap="round" stroke-linejoin="round"/>
<path d="M244.376 142.812C246.98 144.567 249.977 145.659 253.104 145.991C253.004 145.693 252.966 145.54 252.966 145.54L254.14 143.049C252.357 142.655 250.615 142.098 248.936 141.383C247.638 140.802 246.303 140.122 245.19 139.526C244.944 140.412 244.606 141.589 244.376 142.812Z" fill="#108E66" stroke="#2E353A" stroke-linecap="round" stroke-linejoin="round"/>
<path d="M144.814 179.491V174.814" stroke="#2E353A" stroke-linecap="round" stroke-linejoin="round"/>
<path d="M276.409 241.791L270.598 242.754C270.598 242.754 267.052 243.717 266.407 246.926C264.857 254.652 256.827 257.555 249.98 259.084C240.291 261.314 230.46 262.884 220.557 263.783C205.45 265.12 190.105 264.868 175.144 262.255C166.554 260.727 153.458 259.076 147.056 252.565C146.516 252.073 146.109 251.453 145.874 250.762C145.359 248.882 147.11 247.171 148.798 246.177C151.9 244.524 155.206 243.284 158.632 242.486C167.421 240.087 178.398 239.628 186.589 235.823C188.984 234.715 190.427 232.942 187.986 230.803C180.386 224.101 144.814 222.917 144.814 210.316V179.49" stroke="#2E353A" stroke-linecap="round" stroke-linejoin="round"/>
<path d="M255.108 106.66C254.833 105.211 254.352 103.809 253.68 102.495C252.728 100.883 250.11 98.2847 249.634 95.8242C249.158 93.3636 252.828 90.4752 252.828 90.4752C252.828 90.4752 250.824 90.4752 251.292 89.6193C251.761 88.7635 254.056 89.1456 254.056 89.1456C253.9 88.7 253.862 88.2222 253.946 87.7578C254.029 87.2935 254.231 86.8582 254.532 86.494C255.576 85.2637 255.96 87.6325 255.96 87.6325C257.085 85.3388 258.832 83.404 261.003 82.0466C264.427 80.0522 270.522 82.8108 271.189 84.5072C271.857 86.2036 270.245 85.6228 270.245 85.6228C270.245 85.6228 278.428 89.3137 278.996 94.7926C279.564 100.272 274.813 99.3392 274.813 99.3392C274.813 99.3392 275.097 102.564 274.429 103.703C273.761 104.841 273.477 105.231 270.145 102.564C266.814 99.8971 259.967 100.86 259.583 102.946C259.199 105.032 258.048 108.15 256.351 107.775C254.655 107.401 255.108 106.66 255.108 106.66Z" fill="#2E353A" stroke="#2E353A" stroke-linecap="round" stroke-linejoin="round"/>
<path d="M259.813 94.1814C259.813 94.1814 256.52 91.3541 260.113 90.7657C263.705 90.1773 265.041 96.5656 268.779 97.9028C271.088 98.678 273.611 98.5188 275.803 97.4596" stroke="white" stroke-linecap="round" stroke-linejoin="round"/>
<path d="M259.253 93.6847C259.253 93.6847 255.484 91.2394 255.807 89.6042C256.129 87.9689 262.209 85.8446 265.487 87.8084C268.764 89.7723 268.933 93.8528 273.032 94.8309C277.131 95.809 276.479 93.5242 275.988 92.867" stroke="white" stroke-linecap="round" stroke-linejoin="round"/>
<path d="M252.037 96.4658C251.377 95.6482 251.216 92.5458 253.841 92.0567C256.466 91.5677 258.601 94.3491 258.601 94.3491C258.102 94.6701 255.154 95.4877 254.663 97.9406C254.171 100.394 256.628 100.386 255.484 102.525" stroke="white" stroke-linecap="round" stroke-linejoin="round"/>
<path d="M255.584 106.721C255.584 106.721 255.446 106.545 255.238 106.331C254.732 105.811 253.304 105.437 252.867 106.476C252.252 107.951 253.926 110.748 255.169 111.115C255.51 111.228 255.872 111.255 256.226 111.195C256.579 111.135 256.913 110.99 257.196 110.771C257.196 110.771 260.62 117.648 264.926 119.26C269.232 120.873 271.359 115.799 272.717 112.383C274.076 108.967 273.577 107.729 273.577 107.729C273.577 107.729 275.88 108.272 276.594 105.575C277.308 102.877 276.164 101.846 275.427 101.968C274.733 102.162 274.069 102.449 273.454 102.824L272.349 99.8817C272.349 99.8817 270.253 101.112 266.684 99.7594C263.114 98.4069 261.387 95.1058 260.543 95.3503C259.698 95.5948 259.775 97.7955 259.775 97.7955C259.775 97.7955 258.179 96.9397 257.564 97.6733C256.95 98.4069 258.547 99.2704 257.81 101.968C257.073 104.665 256.198 105.49 256.198 105.49C256.198 105.49 256.812 106.713 256.321 106.713L255.584 106.721Z" fill="white" stroke="#2E353A" stroke-linecap="round" stroke-linejoin="round"/>
<path d="M262.707 104.925C262.822 105.445 262.669 105.911 262.377 105.972C262.085 106.033 261.747 105.674 261.609 105.155C261.471 104.635 261.648 104.169 261.947 104.108C262.246 104.047 262.6 104.413 262.707 104.925Z" fill="#2E353A"/>
<path d="M268.61 104.253C268.61 104.78 268.395 105.223 268.088 105.231C267.781 105.238 267.528 104.818 267.512 104.291C267.497 103.764 267.72 103.328 268.027 103.32C268.334 103.313 268.587 103.725 268.61 104.253Z" fill="#2E353A"/>
<path d="M259.599 103.267C259.813 102.756 260.157 102.31 260.597 101.972C261.037 101.635 261.558 101.417 262.109 101.341" stroke="#2E353A" stroke-linecap="round" stroke-linejoin="round"/>
<path d="M266.982 100.99C267.534 100.857 268.113 100.888 268.647 101.078C269.182 101.268 269.649 101.609 269.992 102.059" stroke="#2E353A" stroke-linecap="round" stroke-linejoin="round"/>
<path d="M267.981 111.902C267.981 111.902 263.759 113.468 261.679 110.542" stroke="#2E353A" stroke-linecap="round" stroke-linejoin="round"/>
<path d="M263.029 111.833C263.029 111.833 263.175 114.683 264.68 115.256C266.184 115.829 266.898 112.2 266.898 112.2C265.598 112.391 264.27 112.265 263.029 111.833Z" fill="#2E353A" stroke="#2E353A" stroke-linecap="round" stroke-linejoin="round"/>
<path d="M263.375 113.568C263.459 113.926 263.62 114.263 263.847 114.554C264.073 114.846 264.36 115.085 264.688 115.256C265.455 115.554 266.046 114.691 266.415 113.805C265.446 113.435 264.39 113.353 263.375 113.568Z" fill="white" stroke="#2E353A" stroke-linecap="round" stroke-linejoin="round"/>
<path d="M266.767 101.983C266.316 103.517 266.29 105.143 266.691 106.691C267.412 108.907 268.487 108.983 268.057 109.258C267.627 109.533 265.754 109.9 265.332 109.548" fill="white"/>
<path d="M266.767 101.983C266.316 103.517 266.29 105.143 266.691 106.691C267.412 108.907 268.487 108.983 268.057 109.258C267.627 109.533 265.754 109.9 265.332 109.548" stroke="#2E353A" stroke-linecap="round" stroke-linejoin="round"/>
<path d="M284.255 181.523C284.255 181.523 276.34 200.352 276.079 204.509C275.818 208.666 287.747 244.183 288.024 245.712C288.3 247.24 286.082 246.957 286.082 248.478C286.11 249.532 286.345 250.57 286.773 251.534C286.911 251.947 297.903 255.271 299.715 255.409C301.526 255.546 302.355 255.133 302.355 253.88C302.355 252.627 301.526 248.753 301.526 248.34C301.526 247.928 303.752 245.284 302.916 241.555C302.079 237.826 294.295 214.206 293.32 211.707C292.346 209.208 291.232 206.587 291.232 206.587C291.66 205.964 291.946 205.254 292.069 204.509C292.154 203.865 292.154 203.212 292.069 202.568C292.069 202.568 304.129 183.334 304.144 177.351" fill="#108E66"/>
<path d="M284.255 181.523C284.255 181.523 276.34 200.352 276.079 204.509C275.818 208.666 287.747 244.183 288.024 245.712C288.3 247.24 286.082 246.957 286.082 248.478C286.11 249.532 286.345 250.57 286.773 251.534C286.911 251.947 297.903 255.271 299.715 255.409C301.526 255.546 302.355 255.133 302.355 253.88C302.355 252.627 301.526 248.753 301.526 248.34C301.526 247.928 303.752 245.284 302.916 241.555C302.079 237.826 294.295 214.206 293.32 211.707C292.346 209.208 291.232 206.587 291.232 206.587C291.66 205.964 291.946 205.254 292.069 204.509C292.154 203.865 292.154 203.212 292.069 202.568C292.069 202.568 304.129 183.334 304.144 177.351" stroke="#2E353A" stroke-linecap="round" stroke-linejoin="round"/>
<path d="M292.698 221.343C295.846 231.17 299.561 242.869 299.822 244.611C300.282 247.668 299.361 248.294 299.668 249.822C299.975 251.351 300.589 253.498 300.589 253.498" stroke="#2E353A" stroke-linecap="round" stroke-linejoin="round"/>
<path d="M299.661 179.613C297.266 185.428 292.859 196.157 291.984 198.365C290.748 201.422 288.591 203.882 289.06 204.188C289.528 204.493 290.748 204.493 289.827 205.563C288.906 206.633 288.292 206.946 288.292 207.405C288.292 207.565 289.704 211.951 291.531 217.66" stroke="#2E353A" stroke-linecap="round" stroke-linejoin="round"/>
<path d="M301.204 175.83L300.437 177.748" stroke="#2E353A" stroke-linecap="round" stroke-linejoin="round"/>
<path d="M280.517 178.978C280.517 178.978 280.962 174.065 281.415 173.469" stroke="#2E353A" stroke-linecap="round" stroke-linejoin="round"/>
<path d="M284.109 173.5C284.109 173.5 282.128 179.819 282.52 179.414" stroke="#2E353A" stroke-linecap="round" stroke-linejoin="round"/>
<path d="M285.606 173.912L284.707 178.68C284.707 178.68 284.554 179.131 285.905 179.276" stroke="#2E353A" stroke-linecap="round" stroke-linejoin="round"/>
<path d="M268.341 176.969L267.497 175.999" stroke="#2E353A" stroke-linecap="round" stroke-linejoin="round"/>
<path d="M265.102 178.038L264.35 177.488" stroke="#2E353A" stroke-linecap="round" stroke-linejoin="round"/>
<path d="M263.483 178.849L262.408 177.19" stroke="#2E353A" stroke-linecap="round" stroke-linejoin="round"/>
<path d="M216.973 159.493C221.787 154.299 226.006 148.589 229.554 142.468" stroke="#2E353A" stroke-linecap="round" stroke-linejoin="round"/>
<path d="M154.794 189.7C176.919 187.915 197.715 178.464 213.564 162.993" stroke="#2E353A" stroke-linecap="round" stroke-linejoin="round"/>
<path d="M132.871 188.989C135.95 189.449 139.05 189.755 142.159 189.906" stroke="#2E353A" stroke-linecap="round" stroke-linejoin="round"/>
<path d="M103.831 178.084C105.801 179.103 107.8 180.053 109.826 180.935" stroke="#2E353A" stroke-linecap="round" stroke-linejoin="round"/>
<path d="M53.0986 102.526C54.4525 117.384 59.3019 131.717 67.2541 144.363C75.2064 157.009 86.0381 167.614 98.8725 175.318" stroke="#2E353A" stroke-linecap="round" stroke-linejoin="round"/>
<path d="M200.607 17.6141C187.054 8.28357 171.305 2.6054 154.894 1.13237C138.482 -0.340647 121.967 2.44169 106.956 9.20848" stroke="#2E353A" stroke-linecap="round" stroke-linejoin="round"/>
<path d="M234.198 57.0059C233.252 54.8663 232.228 52.7725 231.128 50.7246" stroke="#2E353A" stroke-linecap="round" stroke-linejoin="round"/>
<path d="M197.459 161.12C202.595 157.323 207.289 152.966 211.453 148.13" stroke="#2E353A" stroke-linecap="round" stroke-linejoin="round"/>
<path d="M137.277 177.619C157.195 179.697 177.215 174.756 193.852 163.658" stroke="#2E353A" stroke-linecap="round" stroke-linejoin="round"/>
<path d="M117.948 173.362C120.579 174.264 123.273 175.046 126.031 175.708" stroke="#2E353A" stroke-linecap="round" stroke-linejoin="round"/>
<path d="M63.7842 117.098C64.3625 119.009 65.0047 120.893 65.7109 122.753" stroke="#2E353A" stroke-linecap="round" stroke-linejoin="round"/>
<path d="M80.8328 36.8857C72.0479 47.1173 65.8066 59.2642 62.614 72.3432C59.4213 85.4221 59.3671 99.0657 62.4557 112.169" stroke="#2E353A" stroke-linecap="round" stroke-linejoin="round"/>
<path d="M182.345 14.9394C168.855 8.71657 153.975 6.07926 139.157 7.28454C124.338 8.48981 110.086 13.4965 97.79 21.8167" stroke="#2E353A" stroke-linecap="round" stroke-linejoin="round"/>
<path d="M226.115 61.2622C219.069 43.4513 206.246 28.4948 189.684 18.7681" stroke="#2E353A" stroke-linecap="round" stroke-linejoin="round"/>
<path d="M229.823 73.0911C229.347 71.0355 228.787 69.0105 228.157 67.0161" stroke="#2E353A" stroke-linecap="round" stroke-linejoin="round"/>
<path d="M226.291 93.425C226.291 92.4164 227.197 91.3924 227.159 90.3684C227.12 89.3445 226.138 88.4046 226.069 87.4112C226 86.4178 226.836 85.3174 226.714 84.3546C226.591 83.3918 225.547 82.4748 225.401 81.4814C225.255 80.488 226 79.3418 225.808 78.3561C225.616 77.3703 224.511 76.568 224.273 75.5899C224.035 74.6118 224.702 73.412 224.449 72.4416C224.196 71.4711 223.014 70.7605 222.714 69.7976C222.415 68.8348 222.983 67.5893 222.653 66.6494C222.323 65.7095 221.118 65.0752 220.726 64.143C220.335 63.2107 220.826 61.9193 220.427 61.0023C220.028 60.0854 218.753 59.5504 218.316 58.6488C217.878 57.7471 218.247 56.4251 217.778 55.5387C217.31 54.6523 216.005 54.2244 215.476 53.3532C214.946 52.4821 215.245 51.1449 214.708 50.2967C214.171 49.4485 212.835 49.1122 212.267 48.2869C211.699 47.4617 211.868 46.1015 211.269 45.2915C210.67 44.4815 209.319 44.2523 208.69 43.4652C208.06 42.6781 208.129 41.3179 207.469 40.5538C206.809 39.7897 205.443 39.6597 204.759 38.9262C204.076 38.1926 204.038 36.8248 203.324 36.1141C202.61 35.4035 201.236 35.35 200.499 34.6852C199.762 34.0204 199.624 32.6449 198.864 31.9877C198.104 31.3306 196.722 31.3993 195.939 30.7727C195.156 30.1461 194.911 28.8012 194.105 28.2052C193.299 27.6092 191.932 27.7773 191.096 27.2118C190.259 26.6463 189.929 25.3167 189.069 24.7818C188.209 24.2469 186.874 24.522 185.998 24.0177C185.123 23.5134 184.694 22.2219 183.803 21.7253C182.913 21.2286 181.585 21.6259 180.679 21.1904C179.773 20.7548 179.243 19.494 178.315 19.089C177.386 18.684 176.104 19.1577 175.16 18.7909C174.215 18.4241 173.624 17.2092 172.642 16.8729C171.659 16.5367 170.446 17.1098 169.479 16.8118C168.512 16.5138 167.798 15.3523 166.823 15.0925C165.848 14.8327 164.651 15.4898 163.66 15.2606C162.67 15.0313 161.88 13.931 160.882 13.7323C159.884 13.5336 158.748 14.2901 157.742 14.1373C156.736 13.9845 155.869 12.9452 154.863 12.8306C153.858 12.716 152.768 13.5489 151.793 13.4725C150.818 13.3961 149.828 12.4256 148.814 12.3874C147.801 12.3492 146.788 13.2585 145.744 13.2585C144.7 13.2585 143.71 12.3492 142.673 12.3874C141.637 12.4256 140.701 13.4037 139.695 13.4725C138.689 13.5413 137.599 12.7083 136.624 12.8306C135.65 12.9529 134.736 13.9921 133.746 14.1373C132.756 14.2825 131.597 13.5413 130.606 13.7323C129.616 13.9233 128.81 15.0237 127.827 15.2606C126.845 15.4975 125.64 14.8327 124.665 15.0925C123.69 15.3523 122.968 16.5138 122.009 16.8118C121.049 17.1098 119.79 16.5443 118.838 16.8729C117.887 17.2015 117.303 18.4012 116.328 18.7909C115.353 19.1807 114.095 18.6916 113.173 19.089C112.252 19.4863 111.715 20.7548 110.809 21.1904C109.903 21.6259 108.575 21.2591 107.685 21.7253C106.794 22.1914 106.357 23.4904 105.489 24.0177C104.622 24.5449 103.263 24.2546 102.419 24.7818C101.574 25.3091 101.229 26.6387 100.4 27.2042C99.5709 27.7696 98.2046 27.6015 97.3909 28.1976C96.5772 28.7936 96.3469 30.1385 95.5562 30.7727C94.7656 31.407 93.3992 31.3229 92.6316 31.9801C91.8639 32.6373 91.7334 33.9974 90.9965 34.6775C90.2596 35.3576 88.8855 35.3958 88.1716 36.1065C87.4577 36.8171 87.404 38.1849 86.7362 38.9185C86.0683 39.6521 84.7096 39.7744 84.0494 40.5385C83.3893 41.3027 83.4584 42.6628 82.8289 43.4499C82.1995 44.237 80.8484 44.4662 80.2497 45.2762C79.6509 46.0862 79.8198 47.4387 79.2518 48.264C78.6837 49.0893 77.348 49.4255 76.8107 50.2814C76.2734 51.1372 76.5497 52.4668 76.0431 53.338C75.5364 54.2091 74.2315 54.637 73.7402 55.531C73.2489 56.4251 73.6404 57.7318 73.2028 58.6335C72.7653 59.5352 71.4987 60.0701 71.0919 60.987C70.685 61.904 71.1609 63.1878 70.7925 64.1277C70.424 65.0676 69.1958 65.656 68.8657 66.6341C68.5356 67.6122 69.096 68.8195 68.8043 69.7824C68.5126 70.7452 67.3305 71.4558 67.0695 72.4263C66.8085 73.3968 67.4686 74.5965 67.246 75.5746C67.0234 76.5527 65.9103 77.3474 65.7108 78.3408C65.5112 79.3342 66.2788 80.4727 66.1253 81.4661C65.9718 82.4595 64.9278 83.3307 64.8126 84.3393C64.6975 85.348 65.5342 86.4178 65.4574 87.3959C65.3807 88.374 64.3981 89.3445 64.3674 90.3532C64.3367 91.3618 65.2348 92.3781 65.2348 93.4097C65.2348 94.4413 64.329 95.4347 64.3674 96.4663C64.4058 97.4979 65.3883 98.4302 65.4574 99.4312C65.5265 100.432 64.6898 101.517 64.8126 102.488C64.9354 103.458 65.9794 104.368 66.1253 105.353C66.2711 106.339 65.5265 107.501 65.7108 108.486C65.895 109.472 67.0157 110.267 67.246 111.245C67.4763 112.223 66.8085 113.43 67.0695 114.393C67.3305 115.356 68.5049 116.082 68.8043 117.037C69.1037 117.992 68.5356 119.245 68.8657 120.193C69.1958 121.141 70.401 121.76 70.7925 122.699C71.184 123.639 70.6927 124.915 71.0919 125.832C71.491 126.749 72.7653 127.284 73.2028 128.186C73.6404 129.088 73.2642 130.41 73.7402 131.296C74.2161 132.182 75.5134 132.618 76.0431 133.489C76.5727 134.36 76.2734 135.698 76.8107 136.546C77.348 137.394 78.6837 137.73 79.2518 138.555C79.8198 139.381 79.6509 140.741 80.2497 141.551C80.8484 142.361 82.1995 142.59 82.8289 143.377C83.4584 144.164 83.3893 145.532 84.0494 146.289C84.7096 147.045 86.076 147.183 86.7592 147.924C87.4424 148.665 87.4808 150.025 88.1947 150.736C88.9086 151.447 90.2826 151.5 91.0195 152.157C91.7565 152.814 91.8946 154.205 92.6546 154.855C93.4146 155.504 94.7886 155.443 95.5793 156.07C96.3699 156.696 96.6079 158.041 97.4139 158.637C98.2199 159.233 99.5863 159.065 100.423 159.631C101.26 160.196 101.59 161.526 102.45 162.061C103.309 162.595 104.645 162.32 105.52 162.825C106.395 163.329 106.825 164.628 107.716 165.117C108.606 165.606 109.926 165.216 110.84 165.652C111.753 166.088 112.275 167.348 113.204 167.753C114.133 168.158 115.415 167.685 116.359 168.051C117.303 168.418 117.894 169.641 118.877 169.969C119.859 170.298 121.072 169.74 122.04 170.031C123.007 170.321 123.721 171.498 124.696 171.758C125.67 172.017 126.868 171.36 127.858 171.582C128.848 171.803 129.639 172.911 130.637 173.11C131.635 173.309 132.771 172.545 133.777 172.697C134.782 172.85 135.65 173.89 136.655 174.004C137.661 174.119 138.751 173.286 139.726 173.362C140.701 173.439 141.691 174.417 142.704 174.455C143.717 174.493 144.731 173.584 145.775 173.584C146.819 173.584 147.817 174.486 148.845 174.455C149.874 174.424 150.818 173.439 151.816 173.362C152.814 173.286 153.919 174.126 154.886 174.004C155.854 173.882 156.775 172.843 157.773 172.697C158.771 172.552 159.922 173.293 160.912 173.11C161.903 172.927 162.709 171.811 163.691 171.582C164.674 171.353 165.879 172.017 166.854 171.758C167.829 171.498 168.55 170.329 169.51 170.031C170.469 169.733 171.728 170.298 172.68 169.969C173.632 169.641 174.254 168.441 175.19 168.051C176.127 167.662 177.424 168.158 178.345 167.753C179.266 167.348 179.804 166.088 180.71 165.652C181.615 165.216 182.943 165.591 183.834 165.117C184.724 164.643 185.162 163.352 186.029 162.825C186.897 162.297 188.248 162.595 189.1 162.061C189.952 161.526 190.29 160.196 191.119 159.631C191.948 159.065 193.314 159.233 194.128 158.637C194.941 158.041 195.172 156.696 195.962 156.07C196.753 155.443 198.119 155.512 198.887 154.855C199.655 154.197 199.785 152.837 200.522 152.157C201.259 151.477 202.633 151.439 203.347 150.728C204.061 150.018 204.115 148.657 204.782 147.916C205.45 147.175 206.832 147.045 207.492 146.289C208.152 145.532 208.083 144.164 208.713 143.377C209.342 142.59 210.693 142.361 211.292 141.551C211.891 140.741 211.722 139.388 212.29 138.555C212.858 137.723 214.194 137.394 214.731 136.546C215.268 135.698 214.992 134.353 215.499 133.489C216.005 132.626 217.302 132.19 217.801 131.304C218.3 130.417 217.901 129.103 218.339 128.194C218.776 127.284 220.043 126.765 220.45 125.84C220.857 124.915 220.381 123.639 220.749 122.699C221.118 121.76 222.338 121.171 222.676 120.201C223.014 119.23 222.438 118.008 222.737 117.045C223.037 116.082 224.211 115.379 224.472 114.401C224.733 113.423 224.073 112.238 224.296 111.253C224.518 110.267 225.631 109.48 225.831 108.494C226.03 107.508 225.27 106.362 225.424 105.361C225.578 104.36 226.622 103.496 226.737 102.495C226.852 101.494 226.015 100.409 226.092 99.4388C226.169 98.4684 227.144 97.4826 227.182 96.474C227.22 95.4653 226.291 94.4337 226.291 93.425Z" fill="#108E66" stroke="#2E353A" stroke-linecap="round" stroke-linejoin="round"/>
<path d="M121.663 17.125L123.083 21.0833" stroke="#2E353A" stroke-linecap="round" stroke-linejoin="round"/>
<path d="M116.26 19.2495L117.542 22.3596" stroke="#2E353A" stroke-linecap="round" stroke-linejoin="round"/>
<path d="M215.169 53.4829C212.846 55.4655 210.204 57.0439 207.354 58.1518" stroke="#2E353A" stroke-linecap="round" stroke-linejoin="round"/>
<path d="M218.008 58.7173C216.95 59.3837 215.859 59.9958 214.738 60.5512" stroke="#2E353A" stroke-linecap="round" stroke-linejoin="round"/>
<path d="M100.062 159.745C100.062 159.745 103.471 155.925 104.039 153.097" stroke="#2E353A" stroke-linecap="round" stroke-linejoin="round"/>
<path d="M90.5361 151.936C90.5361 151.936 93.3841 148.405 93.9521 147.84" stroke="#2E353A" stroke-linecap="round" stroke-linejoin="round"/>
<path d="M163.583 171.177L162.447 164.957" stroke="#2E353A" stroke-linecap="round" stroke-linejoin="round"/>
<path d="M169.833 169.908L168.98 166.37" stroke="#2E353A" stroke-linecap="round" stroke-linejoin="round"/>
<path d="M195.839 155.902L191.011 150.522" stroke="#2E353A" stroke-linecap="round" stroke-linejoin="round"/>
<path d="M218.577 128.171L211.33 124.357" stroke="#2E353A" stroke-linecap="round" stroke-linejoin="round"/>
<path d="M65.8105 93.5166L71.9209 93.6541" stroke="#2E353A" stroke-linecap="round" stroke-linejoin="round"/>
<path d="M74.4775 93.7993L77.4636 93.9369" stroke="#2E353A" stroke-linecap="round" stroke-linejoin="round"/>
<path d="M73.625 128.599C74.3389 128.316 78.9984 127.07 78.9984 127.07" stroke="#2E353A" stroke-linecap="round" stroke-linejoin="round"/>
<path d="M163.629 15.3828C163.2 16.2387 162.34 21.1674 162.34 21.1674" stroke="#2E353A" stroke-linecap="round" stroke-linejoin="round"/>
<path d="M169.218 17.3086L168.573 20.5256" stroke="#2E353A" stroke-linecap="round" stroke-linejoin="round"/>
<path d="M191.372 27.8003L189.652 29.9399" stroke="#2E353A" stroke-linecap="round" stroke-linejoin="round"/>
<path d="M79.1064 48.3555L83.4052 50.709" stroke="#2E353A" stroke-linecap="round" stroke-linejoin="round"/>
<path d="M85.9912 51.9932L89.4302 53.9188" stroke="#2E353A" stroke-linecap="round" stroke-linejoin="round"/>
<path d="M168.527 70.0652C168.527 70.0652 167.215 68.0403 160.582 63.8757C153.95 59.7111 136.786 55.7528 130.023 52.1155C123.26 48.3635 115.722 41.2875 113.089 37.8871C110.456 34.4866 110.863 31.9191 108.744 31.7128C106.626 31.5065 104.507 32.4769 103.033 36.8937C101.559 41.3105 103.363 52.3753 104.568 55.7757C105.774 59.1762 109.312 61.3311 111.562 62.2327C113.811 63.1344 118.839 65.5109 118.831 67.6429C118.823 69.7749 118.555 70.1951 117.626 70.3556C116.697 70.5161 96.278 73.5268 93.1307 74.4362C89.9834 75.3455 88.6247 81.0537 89.5228 85.5545C90.421 90.0553 93.9828 91.469 92.9081 94.6631C91.8334 97.8572 89.9834 101.602 91.8104 105.843C93.6373 110.084 97.0687 109.426 95.733 112.72C94.3973 116.013 94.382 119.865 96.0861 122.34C97.7902 124.816 100.039 126.421 100.024 129.424C100.009 132.427 105.275 139.037 108.583 139.977C110.218 140.466 125.064 142.086 139.519 142.231C153.965 142.598 168.021 141.467 167.998 141.467C168.172 117.651 168.348 93.8505 168.527 70.0652Z" fill="white" stroke="#2E353A" stroke-linecap="round" stroke-linejoin="round"/>
<path d="M197.375 139.235C188.777 140.529 180.149 141.482 171.49 142.093C170.93 142.118 170.371 142.025 169.85 141.821C169.328 141.617 168.856 141.306 168.463 140.908C168.07 140.51 167.765 140.035 167.568 139.512C167.372 138.99 167.288 138.432 167.322 137.875C167.409 116.372 167.496 94.8793 167.583 73.3966C167.561 72.8319 167.654 72.2686 167.855 71.7402C168.056 71.2118 168.362 70.7291 168.755 70.3207C169.147 69.9123 169.618 69.5865 170.139 69.3627C170.661 69.139 171.222 69.0218 171.789 69.0181C180.448 69.2626 189.076 69.6115 197.674 70.0649C198.794 70.144 199.843 70.6414 200.61 71.4576C201.377 72.2739 201.806 73.3486 201.811 74.4664C201.719 94.431 201.63 114.411 201.543 134.406C201.509 135.564 201.076 136.676 200.318 137.555C199.559 138.434 198.52 139.028 197.375 139.235Z" fill="#2E353A" stroke="#2E353A" stroke-linecap="round" stroke-linejoin="round"/>
<path d="M178.153 134.398C178.174 133.979 178.106 133.56 177.954 133.168C177.802 132.776 177.57 132.42 177.271 132.123C176.972 131.826 176.614 131.595 176.22 131.445C175.826 131.295 175.404 131.228 174.983 131.25C174.095 131.345 173.274 131.767 172.682 132.433C172.09 133.098 171.769 133.96 171.782 134.849C171.756 135.271 171.821 135.693 171.971 136.089C172.121 136.484 172.353 136.843 172.653 137.143C172.952 137.442 173.312 137.675 173.708 137.826C174.104 137.978 174.528 138.044 174.952 138.021C175.839 137.912 176.655 137.483 177.245 136.815C177.835 136.148 178.158 135.288 178.153 134.398Z" fill="white" stroke="#2E353A" stroke-linecap="round" stroke-linejoin="round"/>
<path d="M168.259 62.1944C176.772 62.1944 183.673 55.3247 183.673 46.8504C183.673 38.3761 176.772 31.5063 168.259 31.5063C159.746 31.5063 152.845 38.3761 152.845 46.8504C152.845 55.3247 159.746 62.1944 168.259 62.1944Z" fill="white"/>
<path d="M194.24 69.566C196.476 67.3398 196.476 63.7305 194.24 61.5043C192.003 59.2781 188.377 59.2781 186.141 61.5043C183.905 63.7305 183.905 67.3398 186.141 69.566C188.377 71.7922 192.003 71.7922 194.24 69.566Z" fill="white"/>
<path opacity="0.2" d="M140.01 170.94C140.977 171.008 141.898 171.956 142.881 171.994C143.863 172.032 144.846 171.154 145.821 171.154C146.796 171.154 147.794 172.025 148.768 171.994C149.743 171.964 150.672 171.008 151.639 170.94C152.607 170.871 153.666 171.704 154.633 171.559C155.6 171.413 156.46 170.443 157.42 170.298C158.379 170.153 159.5 170.871 160.49 170.695C161.48 170.519 162.225 169.442 163.169 169.228C164.113 169.014 165.288 169.648 166.24 169.396C167.192 169.144 167.875 168.021 168.804 167.73C169.732 167.44 170.945 167.99 171.874 167.669C172.803 167.348 173.409 166.141 174.307 165.82C175.206 165.499 176.465 165.919 177.378 165.53C178.291 165.14 178.783 163.925 179.681 163.497C180.579 163.069 181.838 163.436 182.698 162.985C183.557 162.534 183.98 161.273 184.824 160.792C185.668 160.31 186.973 160.563 187.795 160.028C188.616 159.493 188.946 158.224 189.752 157.682C190.558 157.139 191.871 157.3 192.654 156.719C193.437 156.138 193.667 154.839 194.427 154.235C195.187 153.632 196.515 153.701 197.252 153.066C197.989 152.432 198.119 151.118 198.833 150.461C199.547 149.803 200.875 149.765 201.566 149.077C202.257 148.39 202.288 147.075 202.948 146.365C203.608 145.654 204.936 145.524 205.573 144.783C206.21 144.042 206.141 142.735 206.748 141.971C207.354 141.207 208.659 140.985 209.242 140.206C209.826 139.426 209.657 138.12 210.21 137.317C210.762 136.515 212.044 136.194 212.559 135.369C213.073 134.543 212.82 133.252 213.326 132.411C213.833 131.571 215.076 131.158 215.529 130.302C215.982 129.447 215.629 128.17 216.051 127.299C216.473 126.428 217.702 125.916 218.093 125.007C218.485 124.098 218.024 122.883 218.385 121.95C218.746 121.018 219.92 120.422 220.242 119.528C220.565 118.634 220.012 117.411 220.304 116.471C220.596 115.532 221.724 114.859 221.977 113.919C222.231 112.979 221.586 111.825 221.808 110.863C222.031 109.9 223.098 109.151 223.282 108.196C223.467 107.241 222.737 106.14 222.883 105.139C223.029 104.138 224.042 103.328 224.15 102.365C224.257 101.402 223.451 100.356 223.528 99.3775C223.605 98.3994 224.549 97.4977 224.58 96.5196C224.61 95.5415 223.735 94.5634 223.735 93.5929C223.735 92.6224 224.618 91.629 224.58 90.6586C224.541 89.6881 223.597 88.7635 223.528 87.8007C223.459 86.8379 224.257 85.7833 224.15 84.8205C224.042 83.8577 223.021 83.0018 222.883 82.0467C222.745 81.0915 223.459 79.9758 223.282 78.9901C223.106 78.0043 222.023 77.2631 221.808 76.3232C221.765 76.1148 221.752 75.9011 221.77 75.689C167.729 121.538 100.484 118 69.8636 113.254C69.8503 113.452 69.8684 113.651 69.9174 113.843C70.1707 114.783 71.2991 115.47 71.5908 116.395C71.8825 117.32 71.3298 118.527 71.6522 119.452C71.9746 120.376 73.1875 120.98 73.5099 121.866C73.8323 122.753 73.4101 124.014 73.8016 124.923C74.1931 125.832 75.4136 126.329 75.8435 127.215C76.2733 128.102 75.9049 129.363 76.3578 130.218C76.8107 131.074 78.0773 131.495 78.5609 132.335C79.0445 133.176 78.7912 134.467 79.3285 135.285C79.8659 136.102 81.1401 136.431 81.6851 137.233C82.2302 138.036 82.069 139.342 82.6524 140.129C83.2358 140.916 84.5407 141.13 85.1472 141.895C85.7536 142.659 85.6845 143.965 86.3216 144.707C86.9588 145.448 88.2791 145.57 88.9393 146.281C89.5994 146.991 89.6378 148.313 90.3287 149.001C91.0195 149.689 92.3399 149.712 93.0538 150.377C93.7677 151.041 93.8981 152.348 94.6427 152.982C95.3874 153.617 96.7 153.548 97.4676 154.151C98.2353 154.755 98.4579 156.062 99.2409 156.635C100.024 157.208 101.336 157.048 102.143 157.598C102.949 158.148 103.271 159.424 104.1 159.944C104.929 160.463 106.226 160.196 107.071 160.708C107.915 161.22 108.33 162.442 109.189 162.901C110.049 163.359 111.331 162.993 112.206 163.421C113.081 163.848 113.596 165.056 114.509 165.445C115.423 165.835 116.643 165.377 117.58 165.736C118.516 166.095 119.115 167.264 120.013 167.585C120.911 167.906 122.139 167.363 123.083 167.646C124.028 167.929 124.703 169.06 125.647 169.312C126.592 169.564 127.751 168.93 128.718 169.144C129.685 169.358 130.445 170.428 131.405 170.611C132.364 170.795 133.47 170.069 134.437 170.214C135.404 170.359 136.256 171.368 137.223 171.475C138.19 171.582 139.027 170.871 140.01 170.94Z" fill="black"/>
</g>
<defs>
<clipPath id="clip0_2242_23078">
<rect width="315" height="266" fill="white"/>
</clipPath>
</defs>
</svg>
