<svg width="83" height="83" viewBox="0 0 83 83" fill="none" xmlns="http://www.w3.org/2000/svg">
<g opacity="0.5">
<path d="M42.0001 82.1113C63.5026 82.1113 80.9339 78.0644 80.9339 73.0723C80.9339 68.0801 63.5026 64.0332 42.0001 64.0332C20.4976 64.0332 3.06641 68.0801 3.06641 73.0723C3.06641 78.0644 20.4976 82.1113 42.0001 82.1113Z" fill="#525ECC" fill-opacity="0.25"/>
</g>
<path d="M55.2628 71.0551C55.2628 73.8258 53.0177 76.0708 50.247 76.0708H34.8654C32.0947 76.0708 29.8496 73.8258 29.8496 71.0551C29.8496 68.2844 32.0947 66.0393 34.8654 66.0393H50.247C53.0171 66.0393 55.2628 68.2844 55.2628 71.0551Z" fill="#ABD6C8"/>
<path d="M50.247 78.0771H34.8653C30.9932 78.0771 27.8433 74.9272 27.8433 71.055C27.8433 67.1829 30.9932 64.033 34.8653 64.033H50.247C54.1191 64.033 57.269 67.1829 57.269 71.055C57.269 74.9272 54.1191 78.0771 50.247 78.0771ZM34.8653 68.0456C33.2061 68.0456 31.8559 69.3958 31.8559 71.055C31.8559 72.7142 33.2061 74.0645 34.8653 74.0645H50.247C51.9062 74.0645 53.2564 72.7142 53.2564 71.055C53.2564 69.3958 51.9062 68.0456 50.247 68.0456H34.8653Z" fill="#296652"/>
<path d="M71.3131 43.9699C71.3131 47.6482 68.3036 50.6576 64.6254 50.6576H18.4804C14.8022 50.6576 11.7927 47.6482 11.7927 43.9699V9.19402C11.7927 5.5158 14.8022 2.50635 18.4804 2.50635H64.6254C68.3036 2.50635 71.3131 5.5158 71.3131 9.19402V43.9699Z" fill="#ABD6C8"/>
<path d="M64.6253 52.6639H18.4804C13.6866 52.6639 9.78638 48.7636 9.78638 43.9699V9.19398C9.78638 4.40025 13.6866 0.5 18.4804 0.5H64.6253C69.4191 0.5 73.3193 4.40025 73.3193 9.19398V43.9699C73.3193 48.7636 69.4191 52.6639 64.6253 52.6639ZM18.4804 4.51261C15.8996 4.51261 13.799 6.61321 13.799 9.19398V43.9699C13.799 46.5507 15.8996 48.6513 18.4804 48.6513H64.6253C67.2061 48.6513 69.3067 46.5507 69.3067 43.9699V9.19398C69.3067 6.61321 67.2061 4.51261 64.6253 4.51261H18.4804Z" fill="#296652"/>
<path d="M45.9 56.0078L47.9063 70.0519H37.2061L39.2124 56.0078H45.9Z" fill="#ABD6C8"/>
<path d="M47.9189 72.0582C47.9155 72.0582 47.9102 72.0582 47.9062 72.0582H37.2059C36.624 72.0582 36.0716 71.8061 35.6898 71.3667C35.3092 70.9273 35.1374 70.3441 35.2196 69.7683L37.2259 55.7242C37.367 54.7351 38.2137 54.0015 39.2122 54.0015H45.8998C46.8983 54.0015 47.745 54.7358 47.8861 55.7242L49.8596 69.5376C49.9024 69.7015 49.9258 69.874 49.9258 70.0519C49.9252 71.16 49.027 72.0582 47.9189 72.0582ZM39.5191 68.0456H45.5929L44.1597 58.0141H40.9516L39.5191 68.0456Z" fill="#296652"/>
<g opacity="0.2">
<path d="M43.4443 56.7107L44.5625 63.3643H37.9163L39.0344 56.7107H43.4443Z" fill="#296652"/>
</g>
<path d="M71.3131 49.9887C71.3131 53.667 68.3036 56.6764 64.6254 56.6764H18.4804C14.8022 56.6764 11.7927 53.667 11.7927 49.9887V15.2128C11.7927 11.5346 14.8022 8.52515 18.4804 8.52515H64.6254C68.3036 8.52515 71.3131 11.5346 71.3131 15.2128V49.9887Z" fill="#ABD6C8"/>
<path d="M64.6255 58.0141H18.4805C14.0553 58.0141 10.4553 54.4141 10.4553 49.9889V15.213C10.4553 10.7877 14.0553 7.18774 18.4805 7.18774H64.6255C69.0507 7.18774 72.6507 10.7877 72.6507 15.213V49.9889C72.6507 54.4141 69.0507 58.0141 64.6255 58.0141ZM18.4805 9.86282C15.5306 9.86282 13.1304 12.263 13.1304 15.213V49.9889C13.1304 52.9388 15.5306 55.339 18.4805 55.339H64.6255C67.5754 55.339 69.9756 52.9388 69.9756 49.9889V15.213C69.9756 12.263 67.5754 9.86282 64.6255 9.86282H18.4805Z" fill="#296652"/>
<path d="M42.2217 52.6639C43.1451 52.6639 43.8936 51.9154 43.8936 50.992C43.8936 50.0686 43.1451 49.3201 42.2217 49.3201C41.2983 49.3201 40.5498 50.0686 40.5498 50.992C40.5498 51.9154 41.2983 52.6639 42.2217 52.6639Z" fill="#296652"/>
<path d="M63.9566 15.2129H19.1492V45.9762H63.9566V15.2129Z" fill="#E2F3EE"/>
<path d="M64.6253 58.6827H18.4804C13.6866 58.6827 9.78638 54.7824 9.78638 49.9887V8.5251C9.78638 7.41695 10.6845 6.5188 11.7927 6.5188C12.9008 6.5188 13.799 7.41695 13.799 8.5251V49.9887C13.799 52.5695 15.8996 54.6701 18.4804 54.6701H64.6253C67.2061 54.6701 69.3067 52.5695 69.3067 49.9887V8.5251C69.3067 7.41695 70.2049 6.5188 71.313 6.5188C72.4212 6.5188 73.3193 7.41695 73.3193 8.5251V49.9887C73.3193 54.7824 69.4191 58.6827 64.6253 58.6827Z" fill="#296652"/>
<path d="M41.8873 45.3073C41.1484 45.3073 40.5498 44.708 40.5498 43.9697V15.8815C40.5498 15.1432 41.1484 14.5439 41.8873 14.5439C42.6257 14.5439 43.2249 15.1432 43.2249 15.8815V43.9697C43.2249 44.708 42.6257 45.3073 41.8873 45.3073Z" fill="#769C90"/>
<path d="M47.9062 27.2507H41.8873C41.1484 27.2507 40.5498 26.6515 40.5498 25.9132C40.5498 25.1748 41.1484 24.5756 41.8873 24.5756H47.9062C49.8216 24.5756 51.1364 23.4153 51.7965 22.6469L50.7117 21.1281C49.9788 22.2717 48.8499 23.2381 47.2375 23.2381H41.8873C41.1484 23.2381 40.5498 22.6389 40.5498 21.9006C40.5498 21.1622 41.1484 20.563 41.8873 20.563H47.2375C48.5048 20.563 49.0906 18.1468 49.096 18.1227C49.2043 17.6031 49.6109 17.1971 50.1299 17.0881C50.6535 16.9764 51.1846 17.1878 51.4935 17.6198L54.5351 21.8785C54.84 22.3058 54.8668 22.8723 54.604 23.327C54.5103 23.4869 52.2773 27.2507 47.9062 27.2507Z" fill="#769C90"/>
<path d="M50.5811 35.2758H43.8934C43.1545 35.2758 42.5559 34.6765 42.5559 33.9382C42.5559 33.1999 43.1545 32.6007 43.8934 32.6007H50.5811C53.3859 32.6007 54.6833 30.5643 54.7368 30.4774C55.1247 29.8541 55.9453 29.6541 56.5713 30.0353C57.1986 30.4165 57.4046 31.2264 57.0287 31.857C56.9451 31.9968 54.9408 35.2758 50.5811 35.2758Z" fill="#769C90"/>
<path d="M53.4462 43.4609C47.5183 43.4609 46.6328 39.9545 46.6328 37.8646C46.6328 37.2406 46.4522 36.7872 46.0644 36.4361C45.0124 35.4838 42.7339 35.4744 42.0196 35.5453C41.2887 35.6202 40.6293 35.0825 40.5557 34.3476C40.4828 33.6119 41.0185 32.9572 41.7535 32.8836C42.1581 32.8448 45.752 32.5459 47.86 34.4532C48.807 35.3106 49.3079 36.4903 49.3079 37.8653C49.3079 39.9124 50.5458 40.7865 53.4462 40.7865C53.9123 40.7865 55.1509 40.7865 55.1509 37.8653C55.1509 35.968 54.8031 32.6502 54.4821 29.9872C53.6328 30.7549 52.4979 31.294 51.0126 31.294H41.8872C41.1482 31.294 40.5497 30.6947 40.5497 29.9564C40.5497 29.2181 41.1482 28.6189 41.8872 28.6189H51.0126C53.4429 28.6189 53.9284 25.6288 53.9485 25.5018C54.0481 24.8484 54.6105 24.3635 55.2713 24.3635C55.2739 24.3635 55.276 24.3635 55.2786 24.3635C55.9414 24.3669 56.5025 24.8524 56.5961 25.5085C56.6463 25.8602 57.8266 34.163 57.8266 37.8659C57.826 43.0576 54.4734 43.4609 53.4462 43.4609Z" fill="#769C90"/>
<path d="M51.9187 39.2885H47.9061C47.1672 39.2885 46.5686 38.6893 46.5686 37.951C46.5686 37.2126 47.1672 36.6134 47.9061 36.6134H51.9187C53.2228 36.6134 54.3771 34.8526 54.6781 34.2359C55.0011 33.5725 55.7989 33.2943 56.467 33.6214C57.1305 33.945 57.406 34.7462 57.0816 35.4103C57.0041 35.5688 55.1502 39.2885 51.9187 39.2885Z" fill="#769C90"/>
<path d="M55.2726 27.0345C54.8178 27.0345 54.3751 26.8031 54.1243 26.3851L52.2992 23.3436C51.9194 22.7103 52.124 21.8883 52.758 21.5085C53.3913 21.1286 54.2133 21.3333 54.5931 21.9673L56.4182 25.0088C56.7981 25.6421 56.5934 26.464 55.9601 26.8439C55.7441 26.973 55.5073 27.0345 55.2726 27.0345Z" fill="#769C90"/>
<path d="M41.8873 27.2507H35.8684C31.4974 27.2507 29.2643 23.4869 29.1707 23.327C28.9072 22.8723 28.934 22.3058 29.2396 21.8785L32.2812 17.6198C32.5901 17.1878 33.1205 16.9771 33.6448 17.0881C34.1637 17.1971 34.5703 17.6031 34.6787 18.1227C34.6834 18.1421 35.2665 20.563 36.5372 20.563H41.8873C42.6257 20.563 43.2249 21.1622 43.2249 21.9006C43.2249 22.6389 42.6257 23.2381 41.8873 23.2381H36.5372C34.9248 23.2381 33.7952 22.2717 33.0629 21.1281L31.9782 22.6476C32.6383 23.4153 33.9524 24.5756 35.8684 24.5756H41.8873C42.6257 24.5756 43.2249 25.1748 43.2249 25.9132C43.2249 26.6515 42.6257 27.2507 41.8873 27.2507Z" fill="#769C90"/>
<path d="M39.8809 35.2759H33.1932C28.8328 35.2759 26.8285 31.997 26.7456 31.8572C26.3671 31.2232 26.5751 30.4019 27.2097 30.0241C27.8384 29.6476 28.6576 29.8515 29.0375 30.4795C29.105 30.5865 30.4024 32.6015 33.1925 32.6015H39.8802C40.6185 32.6015 41.2178 33.2007 41.2178 33.9391C41.2178 34.6774 40.6192 35.2759 39.8809 35.2759Z" fill="#769C90"/>
<path d="M30.3275 43.4609C29.3003 43.4609 25.9478 43.057 25.9478 37.8647C25.9478 34.1624 27.1281 25.8596 27.1783 25.5072C27.2726 24.8484 27.8364 24.3589 28.5018 24.3589C29.1672 24.3589 29.7316 24.8478 29.8253 25.5072C29.844 25.6282 30.3302 28.6176 32.7605 28.6176H41.8872C42.6255 28.6176 43.2247 29.2168 43.2247 29.9551C43.2247 30.6935 42.6255 31.2927 41.8872 31.2927H32.7612C31.2758 31.2927 30.1409 30.7536 29.2923 29.9859C28.9706 32.6489 28.6235 35.9667 28.6235 37.864C28.6235 40.7852 29.8621 40.7852 30.3282 40.7852C33.2286 40.7852 34.4665 39.9111 34.4665 37.864C34.4665 36.489 34.9674 35.31 35.9144 34.4519C38.0224 32.5433 41.617 32.8435 42.0209 32.8823C42.7559 32.9559 43.2916 33.6113 43.2187 34.3463C43.1451 35.0799 42.5031 35.6196 41.7574 35.544C40.9837 35.4718 38.7513 35.4879 37.706 36.4382C37.3208 36.7879 37.1409 37.2407 37.1409 37.8633C37.1409 39.9546 36.2561 43.4609 30.3275 43.4609Z" fill="#769C90"/>
<path d="M35.8684 39.2885H31.187C28.4611 39.2885 27.0239 36.7043 26.6046 35.1775C26.4093 34.466 26.828 33.7297 27.5409 33.5337C28.2518 33.3378 28.9854 33.7551 29.1827 34.464C29.1961 34.5068 29.8408 36.6141 31.187 36.6141H35.8684C36.6067 36.6141 37.2059 37.2133 37.2059 37.9516C37.2059 38.6899 36.6067 39.2885 35.8684 39.2885Z" fill="#769C90"/>
<path d="M28.5011 27.0346C28.2664 27.0346 28.0296 26.9731 27.8143 26.844C27.1809 26.4642 26.9756 25.6423 27.3555 25.009L29.1812 21.9674C29.5611 21.3341 30.383 21.1281 31.0163 21.5086C31.6496 21.8885 31.855 22.7104 31.4751 23.3437L29.65 26.3853C29.3986 26.8033 28.9559 27.0346 28.5011 27.0346Z" fill="#769C90"/>
<path d="M63.9565 47.3136H19.1491C18.4101 47.3136 17.8115 46.7144 17.8115 45.9761V15.2128C17.8115 14.4745 18.4101 13.8752 19.1491 13.8752H63.9565C64.6948 13.8752 65.294 14.4745 65.294 15.2128V45.9761C65.294 46.7144 64.6948 47.3136 63.9565 47.3136ZM20.4866 44.6386H62.619V16.5503H20.4866V44.6386Z" fill="#296652"/>
</svg>
