<svg width="104" height="104" viewBox="0 0 104 104" fill="none" xmlns="http://www.w3.org/2000/svg">
<rect width="104" height="104" rx="16" fill="#108E66" fill-opacity="0.05"/>
<path d="M43.9098 67.1981C46.4591 67.1981 48.5324 65.1248 48.5324 62.5754H46.2211C46.2211 63.8501 45.1844 64.8868 43.9098 64.8868C42.6351 64.8868 41.5984 63.8501 41.5984 62.5754H39.2871C39.2871 65.1248 41.3604 67.1981 43.9098 67.1981Z" fill="#108E66"/>
<path d="M60.0894 67.1981C62.6388 67.1981 64.7121 65.1248 64.7121 62.5754H62.4008C62.4008 63.8501 61.3641 64.8868 60.0894 64.8868C58.8147 64.8868 57.7781 63.8501 57.7781 62.5754H55.4668C55.4668 65.1248 57.5401 67.1981 60.0894 67.1981Z" fill="#108E66"/>
<path d="M46.2207 79.9103H53.1547C56.9788 79.9103 60.0886 76.8004 60.0886 72.9763H57.7773C57.7773 75.5257 55.7041 77.599 53.1547 77.599H46.2207V79.9103Z" fill="#108E66"/>
<path d="M72.802 60.2641H71.6464V57.9528C71.6464 56.6781 70.6097 55.6415 69.335 55.6415H68.986C69.2091 54.8938 69.335 54.1172 69.335 53.3302C69.335 49.2599 66.3095 45.8912 62.3918 45.3318C62.3918 45.3006 62.4011 45.2717 62.4011 45.2405C62.4011 42.0544 59.8089 39.4622 56.6228 39.4622C55.3169 39.4622 54.1242 39.9141 53.1558 40.6479V37.1509H57.7784C62.876 37.1509 67.0237 33.0032 67.0237 27.9056V20.9717H60.0898C59.3698 20.9717 58.6671 21.0826 57.976 21.2455C57.5716 20.7394 57.1209 20.2667 56.6135 19.8426L52.0001 16L47.3879 19.8426C46.8805 20.2655 46.4287 20.7394 46.0254 21.2455C45.3331 21.0826 44.6305 20.9717 43.9105 20.9717H36.9765V27.9056C36.9765 33.0032 41.1242 37.1509 46.2218 37.1509H50.8445V40.6479C49.876 39.9141 48.6834 39.4622 47.3775 39.4622C44.1913 39.4622 41.5992 42.0544 41.5992 45.2405C41.5992 45.2717 41.6084 45.3006 41.6084 45.3318C37.6907 45.8912 34.6652 49.2599 34.6652 53.3302C34.6652 54.1172 34.7912 54.8938 35.0142 55.6415H34.6652C33.3905 55.6415 32.3539 56.6781 32.3539 57.9528V60.2641H31.1982C28.0121 60.2641 25.4199 62.8563 25.4199 66.0424C25.4199 69.2286 28.0121 71.8207 31.1982 71.8207H32.3539V72.9764C32.3539 81.2602 39.0937 88 47.3775 88H56.6228C64.9065 88 71.6464 81.2602 71.6464 72.9764V71.8207H72.802C75.9882 71.8207 78.5803 69.2286 78.5803 66.0424C78.5803 62.8563 75.9882 60.2641 72.802 60.2641ZM56.6228 41.7736C58.5342 41.7736 60.0898 43.3291 60.0898 45.2405C60.0898 47.152 58.5342 48.7075 56.6228 48.7075C56.3292 48.7075 56.0368 48.6705 55.7549 48.5977L55.1793 50.8374C55.6497 50.9576 56.1351 51.0188 56.6228 51.0188C58.9607 51.0188 60.9681 49.617 61.8764 47.6154C64.7632 47.9344 67.0237 50.3601 67.0237 53.3302C67.0237 54.1299 66.8527 54.9157 66.536 55.6415H64.7124C64.7124 53.0921 62.6391 51.0188 60.0898 51.0188V53.3302C61.3644 53.3302 62.4011 54.3668 62.4011 55.6415H53.1558V45.2405C53.1558 43.3279 54.7113 41.7736 56.6228 41.7736ZM60.0898 23.283H64.7124V27.9056C64.7124 31.7297 61.6025 34.8396 57.7784 34.8396H56.402C58.0107 33.5753 59.1779 31.8603 59.7269 29.9026L63.2181 26.4114L61.584 24.7772L60.0378 26.3235C59.9372 25.2869 59.6679 24.2861 59.2531 23.35C59.5304 23.3165 59.8078 23.283 60.0898 23.283ZM48.8683 21.6188L52.0001 19.0093L55.132 21.62C56.8135 23.0206 57.7784 25.0789 57.7784 27.2689C57.7784 30.0725 56.2206 32.5918 53.7128 33.8457L53.1558 34.1254V29.5397L56.2842 26.4114L54.6501 24.7772L53.1558 26.2715V23.283H50.8445V28.5828L49.3502 27.0886L47.7161 28.7227L50.8445 31.851V34.1254L50.2874 33.8469C47.7796 32.5918 46.2218 30.0725 46.2218 27.2689C46.2218 25.0789 47.1868 23.0206 48.8683 21.6188ZM39.2879 27.9056V23.283H43.9105C44.1925 23.283 44.4698 23.3165 44.7472 23.35C44.3323 24.2861 44.0642 25.2869 43.9625 26.3235L42.4162 24.7772L40.7821 26.4114L44.2734 29.9026C44.8223 31.8591 45.9895 33.5753 47.5982 34.8396H46.2218C42.3977 34.8396 39.2879 31.7285 39.2879 27.9056ZM36.9765 53.3302C36.9765 50.3601 39.237 47.9355 42.1238 47.6154C43.0334 49.617 45.0407 51.0188 47.3775 51.0188C47.8652 51.0188 48.3505 50.9576 48.8209 50.8374L48.2454 48.5977C47.9634 48.6705 47.671 48.7075 47.3775 48.7075C45.466 48.7075 43.9105 47.152 43.9105 45.2405C43.9105 43.3291 45.466 41.7736 47.3775 41.7736C49.2889 41.7736 50.8445 43.3291 50.8445 45.2405V55.6415H41.5992C41.5992 54.3668 42.6358 53.3302 43.9105 53.3302V51.0188C41.3611 51.0188 39.2879 53.0921 39.2879 55.6415H37.4642C37.1476 54.9157 36.9765 54.1287 36.9765 53.3302ZM31.1982 69.5094C29.2868 69.5094 27.7312 67.9539 27.7312 66.0424C27.7312 64.131 29.2868 62.5755 31.1982 62.5755H32.3539V65.0393L30.684 63.9253L29.4023 65.8483L32.3539 67.8164V69.5094H31.1982ZM69.335 72.9764C69.335 79.9855 63.6319 85.6887 56.6228 85.6887H47.3775C40.3684 85.6887 34.6652 79.9855 34.6652 72.9764V57.9528L69.335 57.9505V72.9764ZM72.802 69.5094H71.6464V67.8164L74.5991 65.8483L73.3174 63.9253L71.6464 65.0382V62.5743H72.802C74.7135 62.5743 76.269 64.1298 76.269 66.0413C76.269 67.9527 74.7135 69.5094 72.802 69.5094Z" fill="#108E66"/>
<path d="M16.1738 48.7075H20.7965V51.0188H16.1738V48.7075Z" fill="#108E66"/>
<path d="M23.1074 48.7075H30.0414V51.0188H23.1074V48.7075Z" fill="#108E66"/>
<path d="M16.6406 44.0037L17.0911 41.7374L30.6955 44.4416L30.2451 46.7079L16.6406 44.0037Z" fill="#108E66"/>
<path d="M18.4629 37.2249L19.3479 35.0897L23.6193 36.8602L22.7343 38.9954L18.4629 37.2249Z" fill="#108E66"/>
<path d="M24.8711 39.8755L25.7563 37.7398L32.1633 40.3955L31.2781 42.5312L24.8711 39.8755Z" fill="#108E66"/>
<path d="M25.8477 25.3486L27.482 23.7143L30.7507 26.983L29.1164 28.6173L25.8477 25.3486Z" fill="#108E66"/>
<path d="M30.75 30.2502L32.3844 28.6159L37.2882 33.5198L35.6539 35.1541L30.75 30.2502Z" fill="#108E66"/>
<path d="M16.6328 55.7271L30.2373 53.0228L30.6877 55.2891L17.0833 57.9933L16.6328 55.7271Z" fill="#108E66"/>
<path d="M21.5801 30.9192L22.8645 28.9971L34.4027 36.7077L33.1182 38.6298L21.5801 30.9192Z" fill="#108E66"/>
<path d="M83.2031 48.7075H87.8258V51.0188H83.2031V48.7075Z" fill="#108E66"/>
<path d="M73.957 48.7075H80.891V51.0188H73.957V48.7075Z" fill="#108E66"/>
<path d="M73.3203 44.4553L86.9248 41.7511L87.3752 44.0173L73.7708 46.7216L73.3203 44.4553Z" fill="#108E66"/>
<path d="M80.3984 36.8403L84.6698 35.0698L85.5549 37.205L81.2835 38.9755L80.3984 36.8403Z" fill="#108E66"/>
<path d="M71.8574 40.3872L78.2644 37.7315L79.1496 39.8672L72.7427 42.5229L71.8574 40.3872Z" fill="#108E66"/>
<path d="M73.2383 26.9868L76.507 23.7181L78.1413 25.3525L74.8726 28.6212L73.2383 26.9868Z" fill="#108E66"/>
<path d="M66.7012 33.5237L71.605 28.6198L73.2394 30.2542L68.3355 35.158L66.7012 33.5237Z" fill="#108E66"/>
<path d="M73.3125 55.2644L73.763 52.9981L87.3674 55.7024L86.9169 57.9687L73.3125 55.2644Z" fill="#108E66"/>
<path d="M69.6504 36.6899L81.1885 28.9794L82.473 30.9014L70.9348 38.612L69.6504 36.6899Z" fill="#108E66"/>
</svg>
