<svg width="83" height="83" viewBox="0 0 83 83" fill="none" xmlns="http://www.w3.org/2000/svg">
<g opacity="0.5">
<path d="M42 82.1114C63.5025 82.1114 80.9337 78.0645 80.9337 73.0723C80.9337 68.0802 63.5025 64.0333 42 64.0333C20.4975 64.0333 3.06628 68.0802 3.06628 73.0723C3.06628 78.0645 20.4975 82.1114 42 82.1114Z" fill="#525ECC" fill-opacity="0.25"/>
</g>
<path d="M55.2627 71.055C55.2627 73.8257 53.0176 76.0708 50.2469 76.0708H34.8652C32.0945 76.0708 29.8495 73.8257 29.8495 71.055C29.8495 68.2843 32.0945 66.0392 34.8652 66.0392H50.2469C53.0169 66.0392 55.2627 68.2843 55.2627 71.055Z" fill="#ABD6C8"/>
<path d="M50.2469 78.0771H34.8652C30.993 78.0771 27.8431 74.9272 27.8431 71.055C27.8431 67.1829 30.993 64.033 34.8652 64.033H50.2469C54.119 64.033 57.2689 67.1829 57.2689 71.055C57.2689 74.9272 54.119 78.0771 50.2469 78.0771ZM34.8652 68.0456C33.206 68.0456 31.8557 69.3958 31.8557 71.055C31.8557 72.7142 33.206 74.0645 34.8652 74.0645H50.2469C51.9061 74.0645 53.2563 72.7142 53.2563 71.055C53.2563 69.3958 51.9061 68.0456 50.2469 68.0456H34.8652Z" fill="#296652"/>
<path d="M71.3131 43.9699C71.3131 47.6481 68.3036 50.6576 64.6254 50.6576H18.4804C14.8022 50.6576 11.7927 47.6481 11.7927 43.9699V9.19396C11.7927 5.51574 14.8022 2.50629 18.4804 2.50629H64.6254C68.3036 2.50629 71.3131 5.51574 71.3131 9.19396V43.9699Z" fill="#ABD6C8"/>
<path d="M64.6255 52.6639H18.4805C13.6868 52.6639 9.7865 48.7636 9.7865 43.9699V9.19398C9.7865 4.40025 13.6868 0.5 18.4805 0.5H64.6255C69.4192 0.5 73.3194 4.40025 73.3194 9.19398V43.9699C73.3194 48.7636 69.4192 52.6639 64.6255 52.6639ZM18.4805 4.51261C15.8997 4.51261 13.7991 6.61321 13.7991 9.19398V43.9699C13.7991 46.5507 15.8997 48.6513 18.4805 48.6513H64.6255C67.2062 48.6513 69.3068 46.5507 69.3068 43.9699V9.19398C69.3068 6.61321 67.2062 4.51261 64.6255 4.51261H18.4805Z" fill="#296652"/>
<path d="M45.8999 56.0078L47.9062 70.0519H37.2059L39.2122 56.0078H45.8999Z" fill="#ABD6C8"/>
<path d="M47.919 72.0581C47.9156 72.0581 47.9103 72.0581 47.9063 72.0581H37.206C36.6242 72.0581 36.0718 71.806 35.6899 71.3666C35.3094 70.9272 35.1375 70.3441 35.2198 69.7683L37.2261 55.7241C37.3672 54.735 38.2138 54.0014 39.2123 54.0014H45.9C46.8984 54.0014 47.7451 54.7357 47.8862 55.7241L49.8597 69.5376C49.9025 69.7014 49.926 69.8739 49.926 70.0518C49.9253 71.16 49.0271 72.0581 47.919 72.0581ZM39.5193 68.0455H45.593L44.1598 58.014H40.9518L39.5193 68.0455Z" fill="#296652"/>
<g opacity="0.2">
<path d="M43.4442 56.7106L44.5624 63.3641H37.9161L39.0343 56.7106H43.4442Z" fill="#296652"/>
</g>
<path d="M71.3131 49.9888C71.3131 53.667 68.3036 56.6765 64.6254 56.6765H18.4804C14.8022 56.6765 11.7927 53.667 11.7927 49.9888V15.2129C11.7927 11.5347 14.8022 8.52521 18.4804 8.52521H64.6254C68.3036 8.52521 71.3131 11.5347 71.3131 15.2129V49.9888Z" fill="#ABD6C8"/>
<path d="M64.6254 58.014H18.4804C14.0552 58.014 10.4552 54.4141 10.4552 49.9888V15.2129C10.4552 10.7877 14.0552 7.18768 18.4804 7.18768H64.6254C69.0506 7.18768 72.6506 10.7877 72.6506 15.2129V49.9888C72.6506 54.4141 69.0506 58.014 64.6254 58.014ZM18.4804 9.86275C15.5305 9.86275 13.1303 12.263 13.1303 15.2129V49.9888C13.1303 52.9388 15.5305 55.339 18.4804 55.339H64.6254C67.5753 55.339 69.9755 52.9388 69.9755 49.9888V15.2129C69.9755 12.263 67.5753 9.86275 64.6254 9.86275H18.4804Z" fill="#296652"/>
<path d="M42.2217 52.6639C43.1451 52.6639 43.8936 51.9154 43.8936 50.992C43.8936 50.0686 43.1451 49.3201 42.2217 49.3201C41.2983 49.3201 40.5498 50.0686 40.5498 50.992C40.5498 51.9154 41.2983 52.6639 42.2217 52.6639Z" fill="#296652"/>
<path d="M63.9566 15.2129H19.1492V45.9762H63.9566V15.2129Z" fill="#E2F3EE"/>
<path d="M64.6255 58.6828H18.4805C13.6868 58.6828 9.7865 54.7826 9.7865 49.9888V8.52522C9.7865 7.41708 10.6847 6.51892 11.7928 6.51892C12.901 6.51892 13.7991 7.41708 13.7991 8.52522V49.9888C13.7991 52.5696 15.8997 54.6702 18.4805 54.6702H64.6255C67.2062 54.6702 69.3068 52.5696 69.3068 49.9888V8.52522C69.3068 7.41708 70.205 6.51892 71.3131 6.51892C72.4213 6.51892 73.3194 7.41708 73.3194 8.52522V49.9888C73.3194 54.7826 69.4192 58.6828 64.6255 58.6828Z" fill="#296652"/>
<path d="M41.8873 45.3074C41.1484 45.3074 40.5498 44.7082 40.5498 43.9699V15.8817C40.5498 15.1433 41.1484 14.5441 41.8873 14.5441C42.6257 14.5441 43.2249 15.1433 43.2249 15.8817V43.9699C43.2249 44.7082 42.6257 45.3074 41.8873 45.3074Z" fill="#769C90"/>
<path d="M47.9062 27.2507H41.8873C41.1484 27.2507 40.5498 26.6515 40.5498 25.9132C40.5498 25.1748 41.1484 24.5756 41.8873 24.5756H47.9062C49.8216 24.5756 51.1364 23.4153 51.7965 22.6469L50.7117 21.1281C49.9788 22.2717 48.8499 23.2381 47.2375 23.2381H41.8873C41.1484 23.2381 40.5498 22.6389 40.5498 21.9006C40.5498 21.1622 41.1484 20.563 41.8873 20.563H47.2375C48.5048 20.563 49.0906 18.1468 49.096 18.1227C49.2043 17.6031 49.6109 17.1971 50.1299 17.0881C50.6535 16.9764 51.1846 17.1878 51.4935 17.6198L54.5351 21.8785C54.84 22.3058 54.8668 22.8723 54.604 23.327C54.5103 23.4869 52.2773 27.2507 47.9062 27.2507Z" fill="#769C90"/>
<path d="M50.5814 35.2759H43.8937C43.1547 35.2759 42.5562 34.6767 42.5562 33.9384C42.5562 33.2001 43.1547 32.6009 43.8937 32.6009H50.5814C53.3862 32.6009 54.6836 30.5645 54.7371 30.4775C55.125 29.8542 55.9456 29.6543 56.5715 30.0355C57.1988 30.4167 57.4048 31.2266 57.029 31.8572C56.9454 31.997 54.9411 35.2759 50.5814 35.2759Z" fill="#769C90"/>
<path d="M53.4463 43.461C47.5184 43.461 46.6329 39.9546 46.6329 37.8647C46.6329 37.2408 46.4524 36.7873 46.0645 36.4362C45.0125 35.4839 42.734 35.4746 42.0198 35.5454C41.2888 35.6203 40.6294 35.0827 40.5558 34.3477C40.4829 33.612 41.0186 32.9573 41.7536 32.8837C42.1582 32.845 45.7522 32.546 47.8601 34.4533C48.8071 35.3107 49.308 36.4904 49.308 37.8654C49.308 39.9125 50.5459 40.7866 53.4463 40.7866C53.9125 40.7866 55.151 40.7866 55.151 37.8654C55.151 35.9681 54.8033 32.6503 54.4823 29.9873C53.6329 30.7551 52.498 31.2941 51.0127 31.2941H41.8874C41.1484 31.2941 40.5498 30.6949 40.5498 29.9566C40.5498 29.2182 41.1484 28.619 41.8874 28.619H51.0127C53.443 28.619 53.9285 25.629 53.9486 25.5019C54.0482 24.8485 54.6107 24.3636 55.2714 24.3636C55.2741 24.3636 55.2761 24.3636 55.2788 24.3636C55.9415 24.367 56.5026 24.8525 56.5962 25.5086C56.6464 25.8604 57.8268 34.1631 57.8268 37.8661C57.8261 43.0577 54.4736 43.461 53.4463 43.461Z" fill="#769C90"/>
<path d="M51.9189 39.2886H47.9063C47.1673 39.2886 46.5687 38.6893 46.5687 37.951C46.5687 37.2127 47.1673 36.6135 47.9063 36.6135H51.9189C53.223 36.6135 54.3773 34.8526 54.6782 34.236C55.0012 33.5726 55.7991 33.2944 56.4672 33.6214C57.1306 33.9451 57.4061 34.7463 57.0818 35.4104C57.0042 35.5689 55.1504 39.2886 51.9189 39.2886Z" fill="#769C90"/>
<path d="M55.2727 27.0347C54.8179 27.0347 54.3752 26.8033 54.1244 26.3853L52.2994 23.3438C51.9195 22.7104 52.1242 21.8885 52.7581 21.5087C53.3915 21.1288 54.2134 21.3334 54.5932 21.9674L56.4183 25.009C56.7982 25.6423 56.5935 26.4642 55.9602 26.8441C55.7442 26.9732 55.5074 27.0347 55.2727 27.0347Z" fill="#769C90"/>
<path d="M41.8873 27.2507H35.8684C31.4974 27.2507 29.2643 23.4869 29.1707 23.327C28.9072 22.8723 28.934 22.3058 29.2396 21.8785L32.2812 17.6198C32.5901 17.1878 33.1205 16.9771 33.6448 17.0881C34.1637 17.1971 34.5703 17.6031 34.6787 18.1227C34.6834 18.1421 35.2665 20.563 36.5372 20.563H41.8873C42.6257 20.563 43.2249 21.1622 43.2249 21.9006C43.2249 22.6389 42.6257 23.2381 41.8873 23.2381H36.5372C34.9248 23.2381 33.7952 22.2717 33.0629 21.1281L31.9782 22.6476C32.6383 23.4153 33.9524 24.5756 35.8684 24.5756H41.8873C42.6257 24.5756 43.2249 25.1748 43.2249 25.9132C43.2249 26.6515 42.6257 27.2507 41.8873 27.2507Z" fill="#769C90"/>
<path d="M39.881 35.2759H33.1933C28.833 35.2759 26.8287 31.997 26.7457 31.8572C26.3672 31.2232 26.5752 30.4019 27.2099 30.0241C27.8385 29.6476 28.6577 29.8515 29.0376 30.4795C29.1052 30.5865 30.4026 32.6015 33.1927 32.6015H39.8803C40.6187 32.6015 41.2179 33.2007 41.2179 33.9391C41.2179 34.6774 40.6193 35.2759 39.881 35.2759Z" fill="#769C90"/>
<path d="M30.3278 43.461C29.3005 43.461 25.948 43.057 25.948 37.8647C25.948 34.1624 27.1284 25.8597 27.1785 25.5072C27.2728 24.8485 27.8366 24.3589 28.502 24.3589C29.1674 24.3589 29.7319 24.8478 29.8255 25.5072C29.8442 25.6283 30.3304 28.6177 32.7607 28.6177H41.8874C42.6257 28.6177 43.2249 29.2169 43.2249 29.9552C43.2249 30.6935 42.6257 31.2927 41.8874 31.2927H32.7614C31.2761 31.2927 30.1412 30.7537 29.2925 29.986C28.9708 32.649 28.6237 35.9668 28.6237 37.864C28.6237 40.7852 29.8623 40.7852 30.3284 40.7852C33.2289 40.7852 34.4668 39.9111 34.4668 37.864C34.4668 36.4891 34.9677 35.31 35.9146 34.452C38.0226 32.5433 41.6172 32.8436 42.0212 32.8824C42.7561 32.956 43.2918 33.6114 43.2189 34.3463C43.1454 35.08 42.5033 35.6197 41.7577 35.5441C40.9839 35.4719 38.7516 35.4879 37.7063 36.4382C37.3211 36.788 37.1412 37.2408 37.1412 37.8634C37.1412 39.9546 36.2564 43.461 30.3278 43.461Z" fill="#769C90"/>
<path d="M35.8685 39.2885H31.1871C28.4612 39.2885 27.024 36.7044 26.6047 35.1776C26.4094 34.466 26.8281 33.7297 27.541 33.5338C28.2519 33.3378 28.9855 33.7551 29.1828 34.464C29.1962 34.5068 29.8409 36.6141 31.1871 36.6141H35.8685C36.6068 36.6141 37.206 37.2133 37.206 37.9517C37.206 38.69 36.6068 39.2885 35.8685 39.2885Z" fill="#769C90"/>
<path d="M28.5013 27.0347C28.2666 27.0347 28.0299 26.9732 27.8145 26.8441C27.1812 26.4642 26.9759 25.6423 27.3557 25.009L29.1815 21.9675C29.5613 21.3341 30.3832 21.1282 31.0166 21.5087C31.6499 21.8885 31.8552 22.7105 31.4753 23.3438L29.6503 26.3853C29.3988 26.8033 28.9561 27.0347 28.5013 27.0347Z" fill="#769C90"/>
<path d="M63.9567 47.3138H19.1493C18.4103 47.3138 17.8118 46.7145 17.8118 45.9762V15.2129C17.8118 14.4746 18.4103 13.8754 19.1493 13.8754H63.9567C64.6951 13.8754 65.2943 14.4746 65.2943 15.2129V45.9762C65.2943 46.7145 64.6951 47.3138 63.9567 47.3138ZM20.4868 44.6387H62.6192V16.5504H20.4868V44.6387Z" fill="#296652"/>
</svg>
