<svg width="224" height="35" viewBox="0 0 224 35" fill="none" xmlns="http://www.w3.org/2000/svg">
<path d="M8.74833 25.8608C7.10943 25.8608 5.64073 25.5942 4.34224 25.0607C3.04374 24.5271 2.00092 23.7378 1.21327 22.6922C0.446998 21.6466 0.0424909 20.3878 0 18.9155H5.81093C5.89615 19.7477 6.1835 20.3878 6.67299 20.8359C7.16248 21.2625 7.80104 21.476 8.58868 21.476C9.39745 21.476 10.036 21.2945 10.5044 20.9319C10.9727 20.5478 11.2068 20.0251 11.2068 19.3636C11.2068 18.8089 11.0152 18.35 10.6321 17.9873C10.2703 17.6247 9.81252 17.3258 9.25918 17.0912C8.72696 16.8565 7.96068 16.5897 6.96034 16.291C5.51301 15.8429 4.33167 15.3949 3.41631 14.9468C2.50096 14.4987 1.71356 13.8372 1.05363 12.9624C0.393703 12.0876 0.0638579 10.946 0.0638579 9.53777C0.0638579 7.44672 0.819574 5.81442 2.33076 4.64086C3.84195 3.44598 5.81093 2.84853 8.23747 2.84853C10.7065 2.84853 12.6969 3.44598 14.208 4.64086C15.7192 5.81442 16.5282 7.45739 16.6346 9.56978H10.7279C10.6854 8.8443 10.4192 8.27888 9.92967 7.87346C9.44018 7.44672 8.81218 7.23334 8.0459 7.23334C7.38597 7.23334 6.854 7.41472 6.44949 7.77745C6.04499 8.11885 5.84285 8.62026 5.84285 9.28172C5.84285 10.0072 6.18351 10.5726 6.86456 10.978C7.54561 11.3835 8.61004 11.8209 10.0574 12.2903C11.5047 12.781 12.6755 13.2505 13.5695 13.6985C14.4848 14.1466 15.2722 14.7973 15.9322 15.6509C16.5921 16.5045 16.9219 17.6033 16.9219 18.9475C16.9219 20.2278 16.5921 21.3906 15.9322 22.4362C15.2936 23.4818 14.3571 24.3139 13.1225 24.9326C11.8878 25.5513 10.43 25.8608 8.74833 25.8608ZM25.7416 10.3059C26.2738 9.47376 27.0081 8.80164 27.9446 8.28954C28.8813 7.77744 29.9774 7.5214 31.2332 7.5214C32.7019 7.5214 34.0323 7.89481 35.2242 8.6416C36.4164 9.3884 37.3529 10.4553 38.0339 11.8422C38.7363 13.2291 39.0875 14.8402 39.0875 16.6751C39.0875 18.51 38.7363 20.1317 38.0339 21.54C37.3529 22.9268 36.4164 24.0045 35.2242 24.7726C34.0323 25.5193 32.7019 25.8928 31.2332 25.8928C29.9988 25.8928 28.9024 25.6368 27.9446 25.1247C27.0081 24.6126 26.2738 23.951 25.7416 23.1403V34.1503H20.2818V7.77745H25.7416V10.3059ZM33.532 16.6751C33.532 15.3094 33.1489 14.2426 32.3826 13.4745C31.6377 12.685 30.7118 12.2903 29.6049 12.2903C28.5193 12.2903 27.5934 12.685 26.8271 13.4745C26.0822 14.264 25.7096 15.3414 25.7096 16.7071C25.7096 18.0728 26.0822 19.1501 26.8271 19.9397C27.5934 20.7293 28.5193 21.1239 29.6049 21.1239C30.6904 21.1239 31.6163 20.7293 32.3826 19.9397C33.1489 19.129 33.532 18.0408 33.532 16.6751ZM47.4117 10.754C48.0502 9.77247 48.8484 9.00433 49.8063 8.44957C50.7641 7.87346 51.8283 7.58541 52.9991 7.58541V13.3785H51.4985C50.1361 13.3785 49.1144 13.6772 48.4334 14.2747C47.7521 14.8508 47.4117 15.8749 47.4117 17.3472V25.6368H41.952V7.77745H47.4117V10.754ZM58.3544 5.9211C57.3965 5.9211 56.6092 5.64371 55.9917 5.08894C55.3959 4.51284 55.0977 3.80871 55.0977 2.97655C55.0977 2.12305 55.3959 1.41892 55.9917 0.86416C56.6092 0.288053 57.3965 0 58.3544 0C59.2911 0 60.0574 0.288053 60.6532 0.86416C61.2707 1.41892 61.5791 2.12305 61.5791 2.97655C61.5791 3.80871 61.2707 4.51284 60.6532 5.08894C60.0574 5.64371 59.2911 5.9211 58.3544 5.9211ZM61.0683 7.77745V25.6368H55.6086V7.77745H61.0683ZM75.8806 7.58541C77.9665 7.58541 79.6267 8.26819 80.8614 9.63379C82.1171 10.978 82.7451 12.8344 82.7451 15.2028V25.6368H77.3173V15.939C77.3173 14.7441 77.0086 13.8159 76.3914 13.1544C75.7742 12.493 74.9441 12.1623 73.901 12.1623C72.8579 12.1623 72.0278 12.493 71.4106 13.1544C70.7934 13.8159 70.4847 14.7441 70.4847 15.939V25.6368H65.025V7.77745H70.4847V10.1459C71.0381 9.3564 71.7832 8.73762 72.7197 8.28954C73.6562 7.82011 74.7098 7.58541 75.8806 7.58541ZM93.3078 7.5214C94.5636 7.5214 95.66 7.77744 96.5964 8.28954C97.5543 8.80164 98.2886 9.47376 98.7995 10.3059V7.77745H104.259V25.6048C104.259 27.2476 103.929 28.7308 103.269 30.0536C102.631 31.3978 101.641 32.4646 100.3 33.2542C98.9805 34.0437 97.3308 34.4384 95.3512 34.4384C92.7118 34.4384 90.5726 33.8089 88.9337 32.55C87.2948 31.3124 86.3581 29.6269 86.124 27.4931H91.5199C91.6901 28.1758 92.0946 28.7093 92.7331 29.0934C93.3717 29.4989 94.1593 29.7015 95.0958 29.7015C96.2239 29.7015 97.1178 29.3709 97.7778 28.7093C98.4588 28.0692 98.7995 27.0344 98.7995 25.6048V23.0763C98.2673 23.9084 97.5329 24.5912 96.5964 25.1247C95.66 25.6368 94.5636 25.8928 93.3078 25.8928C91.8391 25.8928 90.5087 25.5193 89.3168 24.7726C88.1249 24.0045 87.1776 22.9268 86.4752 21.54C85.7942 20.1317 85.4535 18.51 85.4535 16.6751C85.4535 14.8402 85.7942 13.2291 86.4752 11.8422C87.1776 10.4553 88.1249 9.3884 89.3168 8.6416C90.5087 7.89481 91.8391 7.5214 93.3078 7.5214ZM98.7995 16.7071C98.7995 15.3414 98.4163 14.264 97.6501 13.4745C96.9052 12.685 95.9898 12.2903 94.9042 12.2903C93.8187 12.2903 92.8928 12.685 92.1265 13.4745C91.3816 14.2426 91.009 15.3094 91.009 16.6751C91.009 18.0408 91.3816 19.129 92.1265 19.9397C92.8928 20.7293 93.8187 21.1239 94.9042 21.1239C95.9898 21.1239 96.9052 20.7293 97.6501 19.9397C98.4163 19.1501 98.7995 18.0728 98.7995 16.7071ZM140.358 3.16859V25.6368H134.898V12.1623L129.886 25.6368H125.479L120.435 12.1303V25.6368H114.975V3.16859H121.425L127.714 18.7235L133.94 3.16859H140.358ZM152.394 25.8928C150.648 25.8928 149.073 25.5193 147.669 24.7726C146.285 24.0259 145.189 22.9588 144.38 21.572C143.592 20.1852 143.199 18.5634 143.199 16.7071C143.199 14.8722 143.603 13.2611 144.412 11.8742C145.221 10.4659 146.328 9.3884 147.732 8.6416C149.137 7.89481 150.712 7.5214 152.458 7.5214C154.203 7.5214 155.778 7.89481 157.183 8.6416C158.588 9.3884 159.695 10.4659 160.504 11.8742C161.312 13.2611 161.717 14.8722 161.717 16.7071C161.717 18.542 161.302 20.1637 160.472 21.572C159.663 22.9588 158.546 24.0259 157.119 24.7726C155.714 25.5193 154.139 25.8928 152.394 25.8928ZM152.394 21.1559C153.437 21.1559 154.32 20.7719 155.044 20.0037C155.789 19.2356 156.161 18.1368 156.161 16.7071C156.161 15.2774 155.8 14.1786 155.076 13.4105C154.373 12.6423 153.501 12.2583 152.458 12.2583C151.394 12.2583 150.51 12.6423 149.808 13.4105C149.105 14.1573 148.754 15.2562 148.754 16.7071C148.754 18.1368 149.095 19.2356 149.776 20.0037C150.478 20.7719 151.351 21.1559 152.394 21.1559ZM175.469 7.58541C177.555 7.58541 179.217 8.26819 180.45 9.63379C181.706 10.978 182.332 12.8344 182.332 15.2028V25.6368H176.906V15.939C176.906 14.7441 176.597 13.8159 175.98 13.1544C175.363 12.493 174.532 12.1623 173.49 12.1623C172.447 12.1623 171.616 12.493 170.999 13.1544C170.382 13.8159 170.073 14.7441 170.073 15.939V25.6368H164.614V7.77745H170.073V10.1459C170.627 9.3564 171.372 8.73762 172.308 8.28954C173.245 7.82011 174.298 7.58541 175.469 7.58541ZM202.923 16.4191C202.923 16.9311 202.889 17.4647 202.827 18.0193H190.471C190.555 19.129 190.905 19.9823 191.524 20.5798C192.163 21.1559 192.938 21.444 193.853 21.444C195.217 21.444 196.165 20.8679 196.695 19.7157H202.507C202.21 20.8893 201.667 21.9455 200.877 22.8842C200.111 23.823 199.144 24.5591 197.973 25.0927C196.803 25.6262 195.493 25.8928 194.045 25.8928C192.3 25.8928 190.747 25.5193 189.383 24.7726C188.022 24.0259 186.958 22.9588 186.19 21.572C185.424 20.1852 185.043 18.5634 185.043 16.7071C185.043 14.8508 185.415 13.2291 186.159 11.8422C186.925 10.4553 187.991 9.3884 189.352 8.6416C190.715 7.89481 192.278 7.5214 194.045 7.5214C195.769 7.5214 197.303 7.88412 198.642 8.6096C199.984 9.33508 201.028 10.3699 201.773 11.7142C202.538 13.0584 202.923 14.6267 202.923 16.4191ZM197.334 14.9788C197.334 14.0399 197.015 13.2931 196.376 12.7384C195.738 12.1836 194.941 11.9062 193.983 11.9062C193.066 11.9062 192.29 12.1729 191.652 12.7064C191.035 13.2398 190.651 13.9973 190.502 14.9788H197.334ZM224 7.77745L212.825 34.1183H206.951L211.039 25.0287L203.792 7.77745H209.889L214.009 18.9475L218.094 7.77745H224Z" fill="#FCFFFE"/>
</svg>
