<svg width="285" height="48" viewBox="0 0 285 48" fill="none" xmlns="http://www.w3.org/2000/svg">
<g clip-path="url(#clip0_0_55)">
<path d="M40.7009 0H7.1825C3.21572 0 0 3.22355 0 7.2V40.8C0 44.7764 3.21572 48 7.1825 48H40.7009C44.6676 48 47.8834 44.7764 47.8834 40.8V7.2C47.8834 3.22355 44.6676 0 40.7009 0Z" fill="#30AB84"/>
<path d="M16.5784 9.44965H14.1255C14.1255 11.8549 15.0864 14.0337 16.6409 15.6105C18.1953 17.1873 20.3433 18.162 22.7144 18.162V23.7646C22.7144 23.9351 22.7828 24.0904 22.8944 24.2037C23.006 24.3168 23.1592 24.3864 23.3287 24.3864H24.5559C24.724 24.3864 24.8772 24.3168 24.9888 24.2037C25.1004 24.0904 25.1688 23.9351 25.1688 23.7646V18.162C25.1688 15.7568 24.2078 13.578 22.6534 12.0012C21.0989 10.4244 18.951 9.44965 16.5784 9.44965ZM31.3049 6.95996C29.6893 6.95996 28.1809 7.41263 26.8912 8.19877C25.6031 8.98491 24.5337 10.1045 23.8003 11.4414C24.3314 12.0284 24.7925 12.6787 25.1748 13.3803C25.5555 14.0819 25.8545 14.8349 26.0628 15.6271C28.2226 15.3992 30.1475 14.3596 31.5309 12.813C32.9142 11.2679 33.7577 9.21426 33.7577 6.95996H31.3049Z" fill="#FCFFFE"/>
<path d="M29.6165 26.1033C29.7444 26.1033 29.859 26.0505 29.9424 25.966C30.0257 25.8815 30.0776 25.7654 30.0776 25.6355V24.0798C30.0776 23.9517 30.0257 23.834 29.9424 23.7495C29.859 23.6649 29.7444 23.6136 29.6165 23.6136H18.2668C18.1389 23.6136 18.0243 23.6649 17.941 23.7495C17.8577 23.834 17.8057 23.9517 17.8057 24.0798V25.8213C17.8057 25.9494 17.8577 26.0656 17.941 26.1501C18.0243 26.2346 18.1389 26.2874 18.2668 26.2874H21.5364C22.0599 26.2874 22.5226 26.3838 22.9153 26.565C23.3079 26.746 23.6307 27.0117 23.8747 27.3467H18.2668C18.1389 27.3467 18.0243 27.3995 17.941 27.484C17.8577 27.5685 17.8057 27.6846 17.8057 27.8145V29.3702C17.8057 29.4983 17.8577 29.6162 17.941 29.7006C18.0243 29.7851 18.1389 29.8363 18.2668 29.8363H24.3536C24.2347 30.538 23.9193 31.1083 23.4329 31.5038C22.9465 31.8976 22.289 32.1177 21.4872 32.1177H18.2668C18.1389 32.1177 18.0243 32.1691 17.941 32.2535C17.8577 32.338 17.8057 32.4559 17.8057 32.584V34.6468C17.8057 34.7116 17.819 34.775 17.8443 34.8338C17.8696 34.8926 17.9068 34.9456 17.9544 34.9893L24.2837 40.9161C24.3254 40.9555 24.3745 40.9871 24.4281 41.0068C24.4817 41.0279 24.5382 41.0399 24.5962 41.0399H27.7615C27.9712 41.0399 28.1259 40.9087 28.1901 40.7426C28.254 40.5767 28.2272 40.373 28.0739 40.2297L22.2876 34.8127C23.7542 34.7659 25.0111 34.2467 25.9364 33.3777C26.8615 32.5072 27.4536 31.2863 27.592 29.8363H29.6165C29.7444 29.8363 29.859 29.7851 29.9424 29.7006C30.0257 29.6162 30.0776 29.4983 30.0776 29.3702V27.8145C30.0776 27.6846 30.0257 27.5685 29.9424 27.484C29.859 27.3995 29.7444 27.3467 29.6165 27.3467H27.366C27.299 27.1233 27.2202 26.9061 27.1294 26.6994C27.0373 26.4911 26.9346 26.2919 26.8201 26.1033H29.6165Z" fill="#FCFFFE"/>
<path d="M70.0156 35.3913C68.3811 35.3913 66.9164 35.1254 65.6213 34.5933C64.3263 34.0612 63.2863 33.274 62.5008 32.2313C61.7366 31.1885 61.3331 29.933 61.2908 28.4647H67.0861C67.1711 29.2946 67.4577 29.933 67.9458 30.3799C68.434 30.8054 69.0709 31.0183 69.8564 31.0183C70.663 31.0183 71.2998 30.8373 71.7669 30.4756C72.234 30.0926 72.4675 29.5713 72.4675 28.9116C72.4675 28.3584 72.2764 27.9007 71.8943 27.539C71.5335 27.1773 71.0769 26.8793 70.5251 26.6453C69.9943 26.4113 69.2301 26.1451 68.2324 25.8473C66.789 25.4004 65.6108 24.9535 64.6979 24.5066C63.785 24.0597 62.9997 23.4 62.3416 22.5276C61.6834 21.6551 61.3545 20.5166 61.3545 19.1121C61.3545 17.0267 62.1081 15.3988 63.6153 14.2284C65.1224 13.0367 67.0861 12.4409 69.5061 12.4409C71.9685 12.4409 73.9535 13.0367 75.4607 14.2284C76.9678 15.3988 77.7746 17.0373 77.8807 19.1441H71.9898C71.9475 18.4205 71.6819 17.8566 71.1938 17.4523C70.7056 17.0267 70.0793 16.8139 69.3151 16.8139C68.6569 16.8139 68.1264 16.9948 67.7229 17.3565C67.3195 17.697 67.1179 18.1971 67.1179 18.8568C67.1179 19.5803 67.4577 20.1442 68.1369 20.5485C68.8161 20.9529 69.8777 21.3891 71.3211 21.8573C72.7646 22.3467 73.9322 22.8149 74.8238 23.2617C75.7367 23.7086 76.522 24.3576 77.1802 25.2089C77.8383 26.0601 78.1673 27.156 78.1673 28.4966C78.1673 29.7734 77.8383 30.9331 77.1802 31.9759C76.5433 33.0187 75.6093 33.8486 74.378 34.4657C73.1467 35.0827 71.6927 35.3913 70.0156 35.3913ZM86.9632 19.8782C87.494 19.0483 88.2264 18.378 89.1603 17.8673C90.0945 17.3565 91.1877 17.1012 92.4401 17.1012C93.9049 17.1012 95.2317 17.4736 96.4204 18.2184C97.6094 18.9632 98.5433 20.0272 99.2225 21.4104C99.9231 22.7936 100.273 24.4003 100.273 26.2303C100.273 28.0603 99.9231 29.6776 99.2225 31.0821C98.5433 32.4652 97.6094 33.54 96.4204 34.306C95.2317 35.0508 93.9049 35.4232 92.4401 35.4232C91.209 35.4232 90.1156 35.1679 89.1603 34.6572C88.2264 34.1464 87.494 33.4867 86.9632 32.6781V43.6586H81.5181V17.3565H86.9632V19.8782ZM94.7328 26.2303C94.7328 24.8683 94.3506 23.8044 93.5864 23.0383C92.8435 22.2509 91.9201 21.8573 90.8161 21.8573C89.7335 21.8573 88.8101 22.2509 88.0458 23.0383C87.3029 23.8257 86.9314 24.9002 86.9314 26.2622C86.9314 27.6242 87.3029 28.6987 88.0458 29.4861C88.8101 30.2736 89.7335 30.6672 90.8161 30.6672C91.8988 30.6672 92.8222 30.2736 93.5864 29.4861C94.3506 28.6776 94.7328 27.5923 94.7328 26.2303ZM108.575 20.3251C109.212 19.3462 110.008 18.5801 110.963 18.0269C111.919 17.4523 112.98 17.165 114.148 17.165V22.9425H112.651C111.292 22.9425 110.273 23.2404 109.594 23.8363C108.915 24.4109 108.575 25.4323 108.575 26.9006V35.1679H103.13V17.3565H108.575V20.3251ZM119.488 15.5052C118.533 15.5052 117.748 15.2285 117.132 14.6753C116.538 14.1007 116.241 13.3985 116.241 12.5685C116.241 11.7173 116.538 11.0151 117.132 10.4618C117.748 9.88726 118.533 9.59998 119.488 9.59998C120.423 9.59998 121.187 9.88726 121.781 10.4618C122.397 11.0151 122.705 11.7173 122.705 12.5685C122.705 13.3985 122.397 14.1007 121.781 14.6753C121.187 15.2285 120.423 15.5052 119.488 15.5052ZM122.195 17.3565V35.1679H116.75V17.3565H122.195ZM136.968 17.165C139.048 17.165 140.704 17.846 141.935 19.2079C143.187 20.5485 143.814 22.3999 143.814 24.762V35.1679H138.4V25.4961C138.4 24.3045 138.093 23.3788 137.477 22.7191C136.862 22.0594 136.034 21.7296 134.993 21.7296C133.953 21.7296 133.125 22.0594 132.51 22.7191C131.894 23.3788 131.586 24.3045 131.586 25.4961V35.1679H126.141V17.3565H131.586V19.7186C132.138 18.9312 132.881 18.3141 133.815 17.8673C134.749 17.3991 135.8 17.165 136.968 17.165ZM154.348 17.1012C155.6 17.1012 156.694 17.3565 157.628 17.8673C158.583 18.378 159.315 19.0483 159.825 19.8782V17.3565H165.27V35.136C165.27 36.7744 164.941 38.2536 164.283 39.5728C163.646 40.9135 162.659 41.9774 161.322 42.7648C160.005 43.5523 158.36 43.9459 156.386 43.9459C153.754 43.9459 151.62 43.318 149.986 42.0626C148.351 40.8283 147.417 39.1473 147.183 37.0192H152.565C152.735 37.7001 153.138 38.2322 153.775 38.6152C154.412 39.0196 155.197 39.2217 156.131 39.2217C157.256 39.2217 158.148 38.892 158.806 38.2322C159.485 37.5938 159.825 36.5618 159.825 35.136V32.6143C159.294 33.4442 158.562 34.1251 157.628 34.6572C156.694 35.1679 155.6 35.4232 154.348 35.4232C152.883 35.4232 151.556 35.0508 150.368 34.306C149.179 33.54 148.234 32.4652 147.534 31.0821C146.855 29.6776 146.515 28.0603 146.515 26.2303C146.515 24.4003 146.855 22.7936 147.534 21.4104C148.234 20.0272 149.179 18.9632 150.368 18.2184C151.556 17.4736 152.883 17.1012 154.348 17.1012ZM159.825 26.2622C159.825 24.9002 159.443 23.8257 158.679 23.0383C157.936 22.2509 157.023 21.8573 155.94 21.8573C154.858 21.8573 153.934 22.2509 153.17 23.0383C152.427 23.8044 152.055 24.8683 152.055 26.2303C152.055 27.5923 152.427 28.6776 153.17 29.4861C153.934 30.2736 154.858 30.6672 155.94 30.6672C157.023 30.6672 157.936 30.2736 158.679 29.4861C159.443 28.6987 159.825 27.6242 159.825 26.2622ZM201.272 12.7601V35.1679H195.827V21.7296L190.827 35.1679H186.433L181.402 21.6977V35.1679H175.957V12.7601H182.389L188.662 28.2732L194.871 12.7601H201.272ZM213.275 35.4232C211.535 35.4232 209.964 35.0508 208.563 34.306C207.183 33.5613 206.09 32.4972 205.283 31.114C204.497 29.7309 204.105 28.1136 204.105 26.2622C204.105 24.4322 204.508 22.8255 205.315 21.4423C206.121 20.0378 207.225 18.9632 208.626 18.2184C210.028 17.4736 211.598 17.1012 213.339 17.1012C215.08 17.1012 216.651 17.4736 218.052 18.2184C219.453 18.9632 220.557 20.0378 221.363 21.4423C222.17 22.8255 222.573 24.4322 222.573 26.2622C222.573 28.0922 222.16 29.7096 221.332 31.114C220.525 32.4972 219.411 33.5613 217.988 34.306C216.587 35.0508 215.016 35.4232 213.275 35.4232ZM213.275 30.6991C214.316 30.6991 215.197 30.316 215.918 29.55C216.661 28.7839 217.033 27.688 217.033 26.2622C217.033 24.8364 216.672 23.7405 215.95 22.9745C215.25 22.2084 214.379 21.8253 213.339 21.8253C212.278 21.8253 211.397 22.2084 210.696 22.9745C209.996 23.7192 209.645 24.8152 209.645 26.2622C209.645 27.688 209.985 28.7839 210.664 29.55C211.365 30.316 212.235 30.6991 213.275 30.6991ZM236.289 17.165C238.369 17.165 240.026 17.846 241.257 19.2079C242.509 20.5485 243.134 22.3999 243.134 24.762V35.1679H237.722V25.4961C237.722 24.3045 237.414 23.3788 236.798 22.7191C236.182 22.0594 235.354 21.7296 234.314 21.7296C233.274 21.7296 232.446 22.0594 231.831 22.7191C231.215 23.3788 230.907 24.3045 230.907 25.4961V35.1679H225.462V17.3565H230.907V19.7186C231.459 18.9312 232.202 18.3141 233.136 17.8673C234.07 17.3991 235.121 17.165 236.289 17.165ZM263.668 25.9749C263.668 26.4857 263.635 27.0177 263.573 27.5709H251.25C251.334 28.6776 251.683 29.5286 252.301 30.1245C252.938 30.6991 253.711 30.9864 254.623 30.9864C255.983 30.9864 256.929 30.4118 257.458 29.2627H263.254C262.957 30.4332 262.416 31.4865 261.629 32.4228C260.865 33.359 259.9 34.0932 258.732 34.6252C257.566 35.1573 256.258 35.4232 254.815 35.4232C253.074 35.4232 251.525 35.0508 250.165 34.306C248.808 33.5613 247.747 32.4972 246.981 31.114C246.217 29.7309 245.837 28.1136 245.837 26.2622C245.837 24.4108 246.208 22.7936 246.95 21.4104C247.714 20.0272 248.777 18.9632 250.134 18.2184C251.494 17.4736 253.053 17.1012 254.815 17.1012C256.534 17.1012 258.064 17.4629 259.4 18.1865C260.738 18.91 261.779 19.9421 262.522 21.2827C263.285 22.6233 263.668 24.1874 263.668 25.9749ZM258.095 24.5385C258.095 23.6022 257.776 22.8574 257.139 22.3041C256.503 21.7509 255.708 21.4742 254.753 21.4742C253.838 21.4742 253.065 21.7402 252.428 22.2722C251.812 22.8042 251.429 23.5596 251.281 24.5385H258.095ZM284.689 17.3565L273.544 43.6267H267.686L271.763 34.5614L264.535 17.3565H270.616L274.725 28.4966L278.8 17.3565H284.689Z" fill="#FCFFFE"/>
</g>
<defs>
<clipPath id="clip0_0_55">
<rect width="284.667" height="48" fill="white"/>
</clipPath>
</defs>
</svg>
