<svg width="104" height="104" viewBox="0 0 104 104" fill="none" xmlns="http://www.w3.org/2000/svg">
<rect width="104" height="104" rx="16" fill="#108E66" fill-opacity="0.05"/>
<g clip-path="url(#clip0_2783_25878)">
<path d="M53.4062 73.0938C53.4062 73.8705 52.7767 74.5 52 74.5C51.2233 74.5 50.5938 73.8705 50.5938 73.0938C50.5938 72.317 51.2233 71.6875 52 71.6875C52.7767 71.6875 53.4062 72.317 53.4062 73.0938Z" fill="#108E66"/>
<path d="M83.3594 60.4375C83.3594 55.7848 79.5746 52 74.9219 52C70.2692 52 66.4844 55.7848 66.4844 60.4375C66.4844 65.0902 70.2692 68.875 74.9219 68.875C79.5746 68.875 83.3594 65.0902 83.3594 60.4375ZM74.9219 66.0625C71.8204 66.0625 69.2969 63.5389 69.2969 60.4375C69.2969 57.3361 71.8204 54.8125 74.9219 54.8125C78.0233 54.8125 80.5469 57.3361 80.5469 60.4375C80.5469 63.5389 78.0233 66.0625 74.9219 66.0625Z" fill="#108E66"/>
<path d="M74.9219 68.875C71.3782 68.875 67.8445 70.3461 65.4374 72.7312C62.2689 68.5674 57.3833 66.0625 52 66.0625C46.8447 66.0625 41.8492 68.4147 38.5632 72.7312C36.1555 70.3466 32.6223 68.875 29.0781 68.875C21.9892 68.875 16 74.6708 16 81.5312V84.3438C16 85.1205 16.6295 85.75 17.4062 85.75H86.5938C87.3705 85.75 88 85.1205 88 84.3438V81.5312C88 74.6708 82.0108 68.875 74.9219 68.875ZM18.8125 81.5312C18.8125 76.1952 23.5135 71.6875 29.0781 71.6875C32.123 71.6875 35.1426 73.0366 37.0119 75.1812C35.7759 77.5685 35.125 80.2294 35.125 82.9375H18.8125V81.5312ZM52 68.875C59.825 68.875 66.0625 75.224 66.0625 82.9375H37.9375C37.9375 75.1213 44.3024 68.875 52 68.875ZM85.1875 82.9375H68.875C68.875 80.2294 68.2241 77.5685 66.9881 75.1812C68.8574 73.0366 71.877 71.6875 74.9219 71.6875C80.4865 71.6875 85.1875 76.1952 85.1875 81.5312V82.9375Z" fill="#108E66"/>
<path d="M37.5156 60.4375C37.5156 55.7848 33.7308 52 29.0781 52C24.4254 52 20.6406 55.7848 20.6406 60.4375C20.6406 65.0902 24.4254 68.875 29.0781 68.875C33.7308 68.875 37.5156 65.0902 37.5156 60.4375ZM29.0781 66.0625C25.9767 66.0625 23.4531 63.5389 23.4531 60.4375C23.4531 57.3361 25.9767 54.8125 29.0781 54.8125C32.1796 54.8125 34.7031 57.3361 34.7031 60.4375C34.7031 63.5389 32.1796 66.0625 29.0781 66.0625Z" fill="#108E66"/>
<path d="M63.25 54.8125C63.25 48.6091 58.2034 43.5625 52 43.5625C45.7966 43.5625 40.75 48.6091 40.75 54.8125C40.75 61.0159 45.7966 66.0625 52 66.0625C58.2034 66.0625 63.25 61.0159 63.25 54.8125ZM52 63.25C47.3473 63.25 43.5625 59.4652 43.5625 54.8125C43.5625 50.1598 47.3473 46.375 52 46.375C56.6527 46.375 60.4375 50.1598 60.4375 54.8125C60.4375 59.4652 56.6527 63.25 52 63.25Z" fill="#108E66"/>
<path d="M63.1294 26.4288C62.964 25.9196 62.524 25.5488 61.9939 25.4719L55.9284 24.5913L53.2126 19.0388C52.9769 18.556 52.4869 18.25 51.9497 18.25C51.4125 18.25 50.9225 18.556 50.6863 19.0383L47.971 24.5913L41.9054 25.4713C41.3754 25.5482 40.9354 25.9196 40.77 26.4288C40.6047 26.938 40.7425 27.4966 41.126 27.8702L45.5183 32.151L44.4817 38.1962C44.3911 38.7236 44.6081 39.257 45.0415 39.5712C45.4722 39.8843 46.0456 39.9288 46.5224 39.6783L51.9497 36.8246L57.3791 39.6783C57.8526 39.9277 58.4267 39.8859 58.8601 39.5712C59.293 39.2564 59.5099 38.7236 59.4193 38.1957L58.3816 32.151L62.7734 27.8702C63.1568 27.4966 63.2947 26.938 63.1294 26.4288ZM55.8883 30.653C55.5571 30.976 55.4054 31.4418 55.484 31.8978L56.1646 35.8633L52.6039 33.9912C52.1941 33.7759 51.7047 33.7759 51.2949 33.9912L47.7353 35.8633L48.4154 31.8978C48.4934 31.4413 48.3418 30.976 48.0105 30.653L45.1299 27.8455L49.1097 27.2676C49.5701 27.2011 49.9672 26.9111 50.171 26.4936L51.9497 22.8571L53.7278 26.4936C53.9322 26.9116 54.3293 27.2011 54.7891 27.2676L58.7695 27.8455L55.8883 30.653Z" fill="#108E66"/>
<path d="M84.1475 36.9685C83.9821 36.4593 83.5421 36.0885 83.012 36.0116L78.9026 35.4145L77.0652 31.6901C76.8284 31.21 76.3401 30.9062 75.8045 30.9062C75.8045 30.9062 75.8045 30.9062 75.8039 30.9062C75.2689 30.9062 74.78 31.21 74.5432 31.6901L72.7047 35.4145L68.5947 36.0116C68.0652 36.0885 67.6252 36.4593 67.4598 36.9685C67.2939 37.4777 67.4318 38.0364 67.8152 38.4099L70.7887 41.3098L70.0866 45.4022C69.9965 45.9295 70.213 46.4623 70.6464 46.7771C71.0793 47.0919 71.6533 47.1336 72.1268 46.8848L75.8039 44.9528L79.4799 46.8848C79.9535 47.1336 80.528 47.0919 80.9609 46.7771C81.3938 46.4629 81.6102 45.9295 81.5201 45.4022L80.8181 41.3098L83.7921 38.4099C84.1755 38.0364 84.3128 37.4777 84.1475 36.9685ZM78.3258 39.8123C77.994 40.1353 77.843 40.6006 77.9215 41.0565L78.2665 43.0692L76.4587 42.1194C76.0489 41.9041 75.5595 41.9041 75.1502 42.1194L73.3408 43.0698L73.6863 41.0565C73.7643 40.6006 73.6132 40.1353 73.282 39.8123L71.8186 38.3852L73.8407 38.0919C74.2988 38.0254 74.6949 37.7375 74.8997 37.3228L75.8039 35.4908L76.7075 37.3223C76.9124 37.7375 77.3085 38.0254 77.7666 38.0919L79.7887 38.3852L78.3258 39.8123Z" fill="#108E66"/>
<path d="M36.335 36.9685C36.1696 36.4593 35.7296 36.0885 35.1995 36.0116L31.0901 35.4145L29.2527 31.6901C29.0159 31.21 28.5276 30.9062 27.992 30.9062C27.4564 30.9062 26.9675 31.21 26.7307 31.6901L24.8922 35.4145L20.7822 36.0116C20.2527 36.0885 19.8127 36.4593 19.6473 36.9685C19.4814 37.4777 19.6193 38.0364 20.0027 38.4099L22.9762 41.3098L22.2747 45.4022C22.184 45.9295 22.401 46.4623 22.8339 46.7771C23.2668 47.0919 23.8408 47.1336 24.3148 46.8848L27.9914 44.9528L31.6674 46.8848C32.1443 47.1353 32.7177 47.0902 33.1484 46.7771C33.5813 46.4629 33.7982 45.9295 33.7076 45.4022L33.0056 41.3098L35.9796 38.4099C36.363 38.0364 36.5003 37.4777 36.335 36.9685ZM30.5128 39.8123C30.1815 40.1353 30.0305 40.6006 30.1085 41.0565L30.454 43.0692L28.6457 42.1194C28.2364 41.9041 27.747 41.9041 27.3377 42.1194L25.5277 43.0698L25.8733 41.0565C25.9518 40.6006 25.8002 40.1353 25.469 39.8123L24.0056 38.3852L26.0282 38.0919C26.4857 38.0254 26.8818 37.7376 27.0867 37.3228L27.9909 35.4908L28.8945 37.3223C29.0994 37.7376 29.4954 38.0254 29.9536 38.0919L31.9756 38.3852L30.5128 39.8123Z" fill="#108E66"/>
<path d="M58.163 73.5289C57.5137 73.1021 56.642 73.2828 56.2157 73.9321C55.7889 74.5809 55.9696 75.4526 56.6189 75.8794C57.9191 76.7336 58.9584 77.9245 59.6242 79.3231C59.9571 80.0235 60.7953 80.3229 61.4979 79.9883C62.1994 79.6549 62.4971 78.8155 62.1637 78.1146C61.2771 76.2513 59.8934 74.6655 58.163 73.5289Z" fill="#108E66"/>
</g>
<defs>
<clipPath id="clip0_2783_25878">
<rect width="72" height="72" fill="white" transform="translate(16 16)"/>
</clipPath>
</defs>
</svg>
