<svg width="315" height="242" viewBox="0 0 315 242" fill="none" xmlns="http://www.w3.org/2000/svg">
<g clip-path="url(#clip0_2242_24139)">
<path d="M43.21 154.246C43.21 154.246 59.971 192.339 102.349 204.797C144.728 217.254 189.983 200.653 226.964 188.176C263.945 175.698 283.395 143.793 275.155 111.079C266.915 78.3655 235.76 80.718 206.703 51.6665C177.646 22.6151 174.334 10.4919 134.068 1.91079C93.8013 -6.67032 49.7267 27.1128 38.7046 74.9572C27.6826 122.802 43.21 154.246 43.21 154.246Z" fill="#108E66"/>
<path opacity="0.8" d="M43.21 154.246C43.21 154.246 59.971 192.339 102.349 204.797C144.728 217.254 189.983 200.653 226.964 188.176C263.945 175.698 283.395 143.793 275.155 111.079C266.915 78.3655 235.76 80.718 206.703 51.6665C177.646 22.6151 174.334 10.4919 134.068 1.91079C93.8013 -6.67032 49.7267 27.1128 38.7046 74.9572C27.6826 122.802 43.21 154.246 43.21 154.246Z" fill="white"/>
<path d="M258.481 102.759C258.481 102.759 273.847 104.276 281.631 113.773C281.631 113.773 289.864 102.772 304.641 102.999C308.252 98.6568 310.551 93.3811 311.271 87.7864C311.991 82.1917 311.101 76.5082 308.707 71.3978C306.312 66.2874 302.51 61.9602 297.743 58.9201C292.977 55.88 287.443 54.2521 281.784 54.2259C276.126 54.1997 270.576 55.7763 265.782 58.7721C260.987 61.7679 257.145 66.0596 254.703 71.1476C252.261 76.2357 251.318 81.9106 251.986 87.5117C252.654 93.1128 254.904 98.4097 258.474 102.786L258.481 102.759Z" fill="#108E66"/>
<path opacity="0.5" d="M258.481 102.759C258.481 102.759 273.847 104.276 281.631 113.773C281.631 113.773 289.864 102.772 304.641 102.999C308.252 98.6568 310.551 93.3811 311.271 87.7864C311.991 82.1917 311.101 76.5082 308.707 71.3978C306.312 66.2874 302.51 61.9602 297.743 58.9201C292.977 55.88 287.443 54.2521 281.784 54.2259C276.126 54.1997 270.576 55.7763 265.782 58.7721C260.987 61.7679 257.145 66.0596 254.703 71.1476C252.261 76.2357 251.318 81.9106 251.986 87.5117C252.654 93.1128 254.904 98.4097 258.474 102.786L258.481 102.759Z" fill="white"/>
<path d="M281.115 56.3247L280.599 155.596H283.193L281.115 56.3247Z" fill="#B8B8B8"/>
<path d="M281.899 110.879C281.899 110.879 287.081 101.569 296.421 98.7222C296.421 98.7222 286.565 101.055 281.671 109.068L281.899 110.879Z" fill="#B8B8B8"/>
<path d="M281.899 84.5072C281.899 84.5072 287.081 75.1976 296.421 72.3506C296.421 72.3506 286.565 74.6763 281.671 82.696L281.899 84.5072Z" fill="#B8B8B8"/>
<path d="M281.899 97.6795C281.899 97.6795 287.081 88.37 296.421 85.5229C296.421 85.5229 286.565 87.8554 281.671 95.8684L281.899 97.6795Z" fill="#B8B8B8"/>
<path d="M281.128 91.2236C281.128 91.2236 276.12 81.9207 267.109 79.0737C267.109 79.0737 276.623 81.3994 281.376 89.4192L281.128 91.2236Z" fill="#B8B8B8"/>
<path d="M281.128 104.156C281.128 104.156 276.12 94.8462 267.109 92.0059C267.109 92.0059 276.623 94.3316 281.376 102.345L281.128 104.156Z" fill="#B8B8B8"/>
<path d="M6.97888 102.759C6.97888 102.759 22.3453 104.276 30.1291 113.773C30.1291 113.773 38.3621 102.772 53.1386 102.999C56.7497 98.6568 59.049 93.3811 59.7689 87.7864C60.4887 82.1917 59.5994 76.5082 57.2046 71.3978C54.8097 66.2874 51.0078 61.9602 46.2415 58.9201C41.4752 55.88 35.9407 54.2521 30.2823 54.2259C24.6238 54.1997 19.0744 55.7763 14.2799 58.7721C9.48553 61.7679 5.64345 66.0596 3.20105 71.1476C0.758641 76.2357 -0.183598 81.9106 0.484036 87.5117C1.15167 93.1128 3.40171 98.4097 6.97217 102.786L6.97888 102.759Z" fill="#108E66"/>
<path opacity="0.5" d="M6.97888 102.759C6.97888 102.759 22.3453 104.276 30.1291 113.773C30.1291 113.773 38.3621 102.772 53.1386 102.999C56.7497 98.6568 59.049 93.3811 59.7689 87.7864C60.4887 82.1917 59.5994 76.5082 57.2046 71.3978C54.8097 66.2874 51.0078 61.9602 46.2415 58.9201C41.4752 55.88 35.9407 54.2521 30.2823 54.2259C24.6238 54.1997 19.0744 55.7763 14.2799 58.7721C9.48553 61.7679 5.64345 66.0596 3.20105 71.1476C0.758641 76.2357 -0.183598 81.9106 0.484036 87.5117C1.15167 93.1128 3.40171 98.4097 6.97217 102.786L6.97888 102.759Z" fill="white"/>
<path d="M29.6265 56.3247L29.1035 155.596H31.6981L29.6265 56.3247Z" fill="#B8B8B8"/>
<path d="M30.4037 110.879C30.4037 110.879 35.5862 101.569 44.9254 98.7222C44.9254 98.7222 35.07 101.055 30.1758 109.068L30.4037 110.879Z" fill="#B8B8B8"/>
<path d="M30.4037 84.5072C30.4037 84.5072 35.5862 75.1976 44.9254 72.3506C44.9254 72.3506 35.07 74.6763 30.1758 82.696L30.4037 84.5072Z" fill="#B8B8B8"/>
<path d="M30.4037 97.6795C30.4037 97.6795 35.5862 88.37 44.9254 85.5229C44.9254 85.5229 35.07 87.8554 30.1758 95.8684L30.4037 97.6795Z" fill="#B8B8B8"/>
<path d="M29.6331 91.2236C29.6331 91.2236 24.625 81.9207 15.6143 79.0737C15.6143 79.0737 25.1278 81.3994 29.8812 89.4192L29.6331 91.2236Z" fill="#B8B8B8"/>
<path d="M29.6331 104.156C29.6331 104.156 24.625 94.8462 15.6143 92.0059C15.6143 92.0059 25.1278 94.3316 29.8812 102.345L29.6331 104.156Z" fill="#B8B8B8"/>
<path d="M196.043 112.383C196.043 112.383 208.62 113.619 214.989 121.391C214.989 121.391 221.727 112.389 233.822 112.57C236.776 109.015 238.657 104.697 239.244 100.118C239.832 95.5395 239.103 90.8885 237.142 86.7068C235.181 82.5251 232.069 78.9846 228.168 76.4976C224.267 74.0106 219.737 72.6794 215.106 72.6589C210.476 72.6385 205.934 73.9296 202.011 76.382C198.088 78.8344 194.944 82.3472 192.946 86.5114C190.948 90.6756 190.178 95.3199 190.725 99.9036C191.272 104.487 193.114 108.822 196.036 112.403L196.043 112.383Z" fill="#108E66"/>
<path opacity="0.5" d="M196.043 112.383C196.043 112.383 208.62 113.619 214.989 121.391C214.989 121.391 221.727 112.389 233.822 112.57C236.776 109.015 238.657 104.697 239.244 100.118C239.832 95.5395 239.103 90.8885 237.142 86.7068C235.181 82.5251 232.069 78.9846 228.168 76.4976C224.267 74.0106 219.737 72.6794 215.106 72.6589C210.476 72.6385 205.934 73.9296 202.011 76.382C198.088 78.8344 194.944 82.3472 192.946 86.5114C190.948 90.6756 190.178 95.3199 190.725 99.9036C191.272 104.487 193.114 108.822 196.036 112.403L196.043 112.383Z" fill="white"/>
<path d="M214.574 74.3423L214.151 155.596H216.277L214.574 74.3423Z" fill="#B8B8B8"/>
<path d="M215.21 118.999C215.21 118.999 219.461 111.38 227.097 109.048C227.097 109.048 219.052 110.953 215.029 117.515L215.21 118.999Z" fill="#B8B8B8"/>
<path d="M215.21 97.4122C215.21 97.4122 219.461 89.7935 227.097 87.4678C227.097 87.4678 219.052 89.3725 215.029 95.9286L215.21 97.4122Z" fill="#B8B8B8"/>
<path d="M215.21 108.206C215.21 108.206 219.461 100.587 227.097 98.2544C227.097 98.2544 219.052 100.159 215.029 106.722L215.21 108.206Z" fill="#B8B8B8"/>
<path d="M214.581 102.913C214.581 102.913 210.484 95.294 203.109 92.9683C203.109 92.9683 210.893 94.8729 214.788 101.429L214.581 102.913Z" fill="#B8B8B8"/>
<path d="M214.581 113.492C214.581 113.492 210.484 105.873 203.109 103.547C203.109 103.547 210.893 105.452 214.788 112.015L214.581 113.492Z" fill="#B8B8B8"/>
<path d="M74.3515 112.383C74.3515 112.383 86.9289 113.619 93.2981 121.391C93.2981 121.391 100.002 112.389 112.131 112.57C115.085 109.015 116.965 104.697 117.553 100.118C118.141 95.5395 117.412 90.8885 115.451 86.7068C113.49 82.5251 110.378 78.9846 106.476 76.4976C102.575 74.0106 98.0457 72.6794 93.415 72.6589C88.7843 72.6385 84.243 73.9296 80.3198 76.382C76.3967 78.8344 73.2531 82.3472 71.255 86.5114C69.2568 90.6756 68.4865 95.3199 69.0335 99.9036C69.5805 104.487 71.4224 108.822 74.3448 112.403L74.3515 112.383Z" fill="#108E66"/>
<path opacity="0.5" d="M74.3515 112.383C74.3515 112.383 86.9289 113.619 93.2981 121.391C93.2981 121.391 100.002 112.389 112.131 112.57C115.085 109.015 116.965 104.697 117.553 100.118C118.141 95.5395 117.412 90.8885 115.451 86.7068C113.49 82.5251 110.378 78.9846 106.476 76.4976C102.575 74.0106 98.0457 72.6794 93.415 72.6589C88.7843 72.6385 84.243 73.9296 80.3198 76.382C76.3967 78.8344 73.2531 82.3472 71.255 86.5114C69.2568 90.6756 68.4865 95.3199 69.0335 99.9036C69.5805 104.487 71.4224 108.822 74.3448 112.403L74.3515 112.383Z" fill="white"/>
<path d="M92.8823 74.3423L92.46 155.596H94.5853L92.8823 74.3423Z" fill="#B8B8B8"/>
<path d="M93.5531 118.999C93.5531 118.999 97.8037 111.38 105.44 109.048C105.44 109.048 97.3947 110.953 93.3721 117.515L93.5531 118.999Z" fill="#B8B8B8"/>
<path d="M93.5531 97.4122C93.5531 97.4122 97.8037 89.7935 105.44 87.4678C105.44 87.4678 97.3947 89.3725 93.3721 95.9286L93.5531 97.4122Z" fill="#B8B8B8"/>
<path d="M93.5531 108.206C93.5531 108.206 97.8037 100.587 105.44 98.2544C105.44 98.2544 97.3947 100.159 93.3721 106.722L93.5531 108.206Z" fill="#B8B8B8"/>
<path d="M92.8825 102.913C92.8825 102.913 88.7928 95.2938 81.418 93.0015C81.418 93.0015 89.2018 94.9062 93.097 101.462L92.8825 102.913Z" fill="#B8B8B8"/>
<path d="M92.8823 113.492C92.8823 113.492 88.786 105.873 81.4111 103.547C81.4111 103.547 89.1949 105.452 93.0902 112.015L92.8823 113.492Z" fill="#B8B8B8"/>
<path d="M11.6045 155.95H300.926" stroke="#263238" stroke-width="1.04742" stroke-miterlimit="10"/>
<path d="M114.679 30.6615C114.679 25.4954 117.414 22.5415 122.409 22.5415C127.404 22.5415 130.146 25.4954 130.146 30.6615V47.4628C130.146 52.6289 127.41 55.5828 122.409 55.5828C117.407 55.5828 114.679 52.6289 114.679 47.4628V30.6615ZM119.774 47.7836C119.774 50.0893 120.793 50.9648 122.409 50.9648C124.025 50.9648 125.05 50.0893 125.05 47.7836V30.3407C125.05 28.035 124.031 27.1595 122.409 27.1595C120.786 27.1595 119.774 28.035 119.774 30.3407V47.7836Z" fill="#263238"/>
<path d="M133.987 30.6615C133.987 25.4954 136.716 22.5415 141.717 22.5415C146.719 22.5415 149.448 25.4954 149.448 30.6615V47.4628C149.448 52.6289 146.712 55.5828 141.717 55.5828C136.723 55.5828 133.987 52.6289 133.987 47.4628V30.6615ZM139.076 47.7836C139.076 50.0893 140.095 50.9648 141.717 50.9648C143.34 50.9648 144.352 50.0893 144.352 47.7836V30.3407C144.352 28.035 143.333 27.1595 141.717 27.1595C140.102 27.1595 139.076 28.035 139.076 30.3407V47.7836Z" fill="#263238"/>
<path d="M168.796 30.8952V35.0922C168.796 40.2649 166.295 43.1119 161.206 43.1119H158.799V55.2484H153.704V22.9155H161.206C166.295 22.9155 168.796 25.7291 168.796 30.8952ZM158.799 27.5536V38.4872H161.206C162.822 38.4872 163.7 37.752 163.7 35.4464V30.6011C163.7 28.2887 162.822 27.5536 161.206 27.5536H158.799Z" fill="#263238"/>
<path d="M179.214 22.5415C184.162 22.5415 186.71 25.4954 186.71 30.6615V31.6773H181.896V30.3407C181.896 28.035 180.971 27.1595 179.348 27.1595C177.726 27.1595 176.801 28.035 176.801 30.3407C176.801 36.9837 186.757 38.2334 186.757 47.4628C186.757 52.6289 184.162 55.5828 179.167 55.5828C174.173 55.5828 171.571 52.6289 171.571 47.4628V45.4579H176.385V47.7636C176.385 50.0692 177.404 50.9046 179.027 50.9046C180.649 50.9046 181.661 50.0692 181.661 47.7636C181.661 41.1205 171.712 39.8708 171.712 30.6414C171.712 25.5021 174.26 22.5415 179.214 22.5415Z" fill="#263238"/>
<path d="M191.296 48.0574L190.626 36.3887V22.9155H195.721V36.3887L195.051 48.0574H191.296ZM195.648 50.323V55.215H190.767V50.323H195.648Z" fill="#263238"/>
<path d="M103.69 225.441C106.077 225.441 107.096 226.851 107.096 229.143V230.961C107.096 233.36 105.969 234.617 103.562 234.617H102.061V240.585H100.371V225.441H103.69ZM103.562 233.1C104.816 233.1 105.426 232.518 105.426 231.095V229.09C105.426 227.706 104.923 227.011 103.69 227.011H102.061V233.133L103.562 233.1Z" fill="#263238"/>
<path d="M110.354 237.531L109.764 240.585H108.202L111.112 225.441H113.566L116.475 240.585H114.779L114.196 237.531H110.354ZM110.569 236.087H113.955L112.238 227.332L110.569 236.087Z" fill="#263238"/>
<path d="M124.936 229.096V230.393H123.327V229.009C123.327 227.673 122.784 226.831 121.55 226.831C120.317 226.831 119.774 227.646 119.774 229.009V237.029C119.774 238.366 120.337 239.214 121.55 239.214C122.764 239.214 123.327 238.392 123.327 237.029V234.015H121.765V232.498H124.936V236.955C124.936 239.248 123.85 240.758 121.51 240.758C119.17 240.758 118.098 239.248 118.098 236.955V229.096C118.098 226.804 119.184 225.293 121.51 225.293C123.837 225.293 124.936 226.804 124.936 229.096Z" fill="#263238"/>
<path d="M132.378 232.151V233.661H128.671V239.048H133.223V240.585H126.975V225.441H133.223V226.978H128.671V232.151H132.378Z" fill="#263238"/>
<path d="M140.517 240.585H139.002V225.441H141.154L144.667 236.388V225.441H146.169V240.585H144.406L140.524 228.341L140.517 240.585Z" fill="#263238"/>
<path d="M148.2 229.096C148.2 226.784 149.347 225.293 151.673 225.293C153.999 225.293 155.166 226.784 155.166 229.096V236.929C155.166 239.221 154.013 240.731 151.673 240.731C149.333 240.731 148.2 239.221 148.2 236.929V229.096ZM149.87 237.016C149.87 238.399 150.46 239.201 151.673 239.201C152.887 239.201 153.47 238.399 153.47 237.016V228.996C153.47 227.659 152.907 226.817 151.673 226.817C150.439 226.817 149.87 227.633 149.87 228.996V237.016Z" fill="#263238"/>
<path d="M159.417 240.585V226.978H156.621V225.441H163.909V226.978H161.113V240.585H159.417Z" fill="#263238"/>
<path d="M174.502 232.492V234.015H171.009V240.571H169.312V225.441H175.346V226.978H171.009V232.492H174.502Z" fill="#263238"/>
<path d="M176.995 229.096C176.995 226.784 178.148 225.293 180.468 225.293C182.788 225.293 183.961 226.784 183.961 229.096V236.929C183.961 239.221 182.815 240.731 180.468 240.731C178.121 240.731 176.995 239.221 176.995 236.929V229.096ZM178.671 237.016C178.671 238.399 179.255 239.201 180.468 239.201C181.682 239.201 182.271 238.399 182.271 237.016V228.996C182.271 227.659 181.708 226.817 180.468 226.817C179.228 226.817 178.671 227.633 178.671 228.996V237.016Z" fill="#263238"/>
<path d="M187.609 237.016C187.609 238.353 188.152 239.201 189.386 239.201C190.619 239.201 191.149 238.379 191.149 237.016V225.441H192.731V236.929C192.731 239.221 191.665 240.759 189.325 240.759C186.985 240.759 185.939 239.221 185.939 236.929V225.441H187.609V237.016Z" fill="#263238"/>
<path d="M196.331 240.585H194.789V225.441H196.934L200.448 236.388V225.441H201.949V240.585H200.22L196.331 228.341V240.585Z" fill="#263238"/>
<path d="M207.701 225.441C210.068 225.441 211.154 226.871 211.154 229.203V236.842C211.154 239.155 210.068 240.585 207.701 240.585H204.175V225.441H207.701ZM207.701 239.048C208.915 239.048 209.505 238.293 209.505 236.909V229.117C209.505 227.733 208.915 226.978 207.681 226.978H205.858V239.048H207.701Z" fill="#263238"/>
<path opacity="0.3" d="M90.5963 188.203C90.5963 190.208 78.2401 191.805 62.9876 191.805C47.7351 191.805 35.3789 190.194 35.3789 188.203C35.3789 186.211 47.7418 184.601 62.9876 184.601C78.2334 184.601 90.5963 186.218 90.5963 188.203Z" fill="black"/>
<path opacity="0.3" d="M148.395 188.203C148.395 190.208 136.032 191.805 120.786 191.805C105.541 191.805 93.1777 190.194 93.1777 188.203C93.1777 186.211 105.541 184.601 120.786 184.601C136.032 184.601 148.395 186.218 148.395 188.203Z" fill="black"/>
<path opacity="0.3" d="M224.959 188.203C224.959 190.208 212.603 191.805 197.357 191.805C182.111 191.805 169.748 190.194 169.748 188.203C169.748 186.211 182.104 184.601 197.357 184.601C212.609 184.601 224.959 186.218 224.959 188.203Z" fill="black"/>
<path opacity="0.3" d="M288.919 188.203C288.919 190.208 276.556 191.805 261.31 191.805C246.065 191.805 233.675 190.194 233.675 188.203C233.675 186.211 246.038 184.601 261.283 184.601C276.529 184.601 288.919 186.218 288.919 188.203Z" fill="black"/>
<path d="M200.341 82.8232C200.341 82.8232 199.208 87.5014 199.208 88.29C199.207 88.7778 199.153 89.2641 199.047 89.7403C199.047 89.7403 196.627 92.634 196.948 93.436C197.34 94.0596 197.9 94.56 198.564 94.8796C198.564 94.8796 199.851 99.5577 201.145 99.8652C202.474 100.113 203.818 100.273 205.168 100.346L205.651 104.202L212.1 103.24L210.491 97.4526L211.162 92.467C211.162 92.467 212.288 90.3818 211.162 87.0069C210.035 83.6319 207.615 83.4715 205.999 83.4715C204.103 83.3518 202.215 83.1354 200.341 82.8232Z" fill="white" stroke="#263238" stroke-width="1.04742" stroke-linecap="round" stroke-linejoin="round"/>
<path d="M203.243 80.4175C203.243 80.4175 197.598 80.2504 197.759 81.7006C197.92 83.1509 203.726 85.0422 203.726 85.0422C203.726 85.0422 201.789 86.3254 202.754 87.6152C203.719 88.905 205.979 90.0278 205.979 90.0278C205.979 90.0278 205.308 92.7612 206.307 92.9216C207.306 93.082 207.916 91.6317 208.077 91.1506C208.238 90.6694 210.015 90.8298 210.498 92.1129C210.77 92.7797 210.934 93.4861 210.98 94.2047C210.98 94.2047 212.918 88.4172 213.24 85.8442C213.561 83.2712 206.307 80.4175 203.243 80.4175Z" fill="#263238" stroke="#263238" stroke-width="1.04742" stroke-linecap="round" stroke-linejoin="round"/>
<path d="M206.817 93.0017C206.817 93.0017 208.768 88.7245 209.935 90.8297C211.101 92.9348 210.605 95.1269 209.459 95.3608C208.312 95.5947 207.354 95.8219 207.354 95.8219" fill="white"/>
<path d="M206.817 93.0017C206.817 93.0017 208.768 88.7245 209.935 90.8297C211.101 92.9348 210.605 95.1269 209.459 95.3608C208.312 95.5947 207.354 95.8219 207.354 95.8219" stroke="#263238" stroke-width="1.04742" stroke-linecap="round" stroke-linejoin="round"/>
<path d="M198.886 137.638C198.57 138.006 193.401 149.053 192.758 152.749C192.114 156.445 187.924 178.472 187.756 179.435C187.589 180.397 178.732 182.328 178.082 182.489C177.431 182.649 178.752 184.42 180.663 184.901C182.574 185.383 188.085 187.635 189.379 186.345C190.673 185.055 192.443 177.824 192.925 177.022C193.408 176.22 202.486 154.901 202.486 154.901C202.486 154.901 207.139 144.669 208.104 143.7C209.069 142.731 206.958 138.447 206.146 137.157C205.335 135.867 201.145 135.065 198.886 137.638Z" fill="#263238" stroke="#263238" stroke-width="1.04742" stroke-linecap="round" stroke-linejoin="round"/>
<path d="M197.921 137.779C197.921 137.779 200.18 148.552 201.306 152.408C202.361 155.647 203.947 158.689 206 161.41C207.294 163.181 213.582 178.786 213.582 178.786L214.548 181.199C214.548 181.199 214.226 182.161 212.456 183.444C210.686 184.727 205.678 186.819 206.972 187.307C208.266 187.795 213.421 187.788 215.842 187.628C217.925 187.481 219.879 186.563 221.319 185.055C222.291 183.925 219.71 180.711 219.71 180.069C219.71 179.428 214.065 159.819 213.743 158.85C213.421 157.881 211.806 150.978 211.806 150.978V143.125C211.806 143.125 212.617 141.681 212.617 138.447C212.617 135.212 210.197 134.584 210.197 134.584L196.969 135.874L197.921 137.779Z" fill="#263238" stroke="#263238" stroke-width="1.04742" stroke-linecap="round" stroke-linejoin="round"/>
<path d="M196.801 136.836C196.801 136.836 197.129 139.57 198.095 139.73C199.06 139.89 209.056 142.624 213.414 139.409C213.414 139.409 214.219 136.997 213.736 136.355C213.253 135.714 212.12 136.034 206.321 136.034C200.522 136.034 196.801 136.034 196.801 136.836Z" fill="#108E66" stroke="#263238" stroke-width="1.04742" stroke-linecap="round" stroke-linejoin="round"/>
<path d="M211.624 100.828C211.624 100.828 205.658 101.63 203.076 104.169C200.495 106.709 198.243 111.407 197.116 115.744C195.99 120.082 195.179 136.001 196.788 136.803C198.397 137.605 211.946 138.413 214.219 137.471C216.492 136.529 214.058 128.95 214.058 126.056C214.058 123.163 216.639 113.358 216.157 107.898C215.674 102.438 211.624 100.828 211.624 100.828Z" fill="#108E66" stroke="#263238" stroke-width="1.04742" stroke-linecap="round" stroke-linejoin="round"/>
<path d="M190.097 117.536C190.023 110.919 187.314 105.272 183.714 102.833V101.496L173.791 101.596C168.207 101.656 163.735 108.948 163.849 117.836C163.963 126.725 168.542 133.923 174.133 133.876L184.056 133.776V132.439C187.542 129.853 190.13 124.152 190.097 117.536Z" fill="#263238" stroke="#263238" stroke-width="1.04742" stroke-linecap="round" stroke-linejoin="round"/>
<path d="M194.548 117.489C194.474 110.538 191.786 104.604 188.004 102.024V100.601L183.754 100.647C177.881 100.708 173.208 108.346 173.308 117.709C173.409 127.072 178.243 134.611 184.116 134.551L188.366 134.504V133.087C192.06 130.427 194.622 124.413 194.548 117.489Z" fill="white" stroke="#263238" stroke-width="1.04742" stroke-linecap="round" stroke-linejoin="round"/>
<path d="M198.812 117.442C198.912 126.798 194.232 134.444 188.366 134.504C182.5 134.564 177.639 127.026 177.559 117.669C177.478 108.313 182.138 100.667 188.004 100.601C193.87 100.534 198.698 108.079 198.812 117.442Z" fill="#737373" stroke="#263238" stroke-width="1.04742" stroke-linecap="round" stroke-linejoin="round"/>
<path d="M196.371 117.154C196.418 121.585 194.199 125.208 191.417 125.241C188.635 125.274 186.342 121.692 186.295 117.221C186.248 112.75 188.467 109.202 191.249 109.135C194.032 109.068 196.324 112.717 196.371 117.154Z" fill="#263238" stroke="#263238" stroke-width="1.04742" stroke-linecap="round" stroke-linejoin="round"/>
<path d="M275.376 150.476C275.929 146.357 276.165 142.201 276.08 138.046C273.901 139.048 261.189 139.416 260.023 139.443C258.856 139.469 246.145 139.048 243.966 138.046C243.87 142.2 244.094 146.356 244.636 150.476C245.515 155.896 253.238 177.597 253.412 178.646C253.638 179.658 253.932 180.653 254.291 181.626C254.291 181.626 249.899 184.774 247.968 185.997C246.038 187.22 247.445 187.748 249.376 187.748C251.307 187.748 255.343 187.22 256.57 187.22C257.656 187.22 259.547 186.278 259.989 186.051C260.432 186.278 262.323 187.22 263.402 187.22C264.636 187.22 268.672 187.748 270.602 187.748C272.533 187.748 273.955 187.22 272.01 185.997C270.066 184.774 265.688 181.626 265.688 181.626C266.047 180.653 266.34 179.658 266.566 178.646C266.774 177.576 274.498 155.876 275.376 150.476Z" fill="#263238" stroke="#263238" stroke-width="1.04742" stroke-linecap="round" stroke-linejoin="round"/>
<path d="M257.368 104.022C257.368 104.022 250.576 106.235 247.07 108.453C243.564 110.672 240.044 122.688 240.044 123.156C239.842 123.993 239.569 124.812 239.226 125.602C239.226 125.602 235.713 124.787 235.016 127.701C234.318 130.615 238.522 134.35 240.748 134.471C242.974 134.591 243.671 133.889 243.671 133.889C243.671 133.889 242.27 136.689 242.853 137.852C243.436 139.015 248.357 143.339 258.072 143.199C267.787 143.058 274.833 141.448 275.859 140.051C276.884 138.654 277.032 135.734 277.032 135.734C277.032 135.734 280.659 134.798 281.946 132.466C283.234 130.133 282.999 127.681 282.295 125.235C281.591 122.789 277.964 115.684 275.51 111.715C273.056 107.745 267.901 105.533 265.453 104.831C263.006 104.129 259.004 104.022 257.368 104.022Z" fill="#108E66" stroke="#263238" stroke-width="1.04742" stroke-linecap="round" stroke-linejoin="round"/>
<path d="M259.427 113.847C260.399 113.526 263.449 110.826 264.623 108.126C265.087 107.092 265.414 106.003 265.595 104.885L265.441 104.838C262.987 104.136 259.004 104.022 257.395 104.022C257.395 104.022 255.974 104.484 254.097 105.199C254.108 106.643 254.381 108.074 254.901 109.422C255.961 112.122 258.481 114.174 259.427 113.847Z" fill="white" stroke="#263238" stroke-width="1.04742" stroke-linecap="round" stroke-linejoin="round"/>
<path d="M270.589 119.3C270.589 119.3 273.398 134.237 276.583 135.774" stroke="#263238" stroke-width="1.04742" stroke-linecap="round" stroke-linejoin="round"/>
<path d="M243.671 133.889C243.671 133.889 247.184 120.703 247.419 119.42" stroke="#263238" stroke-width="1.04742" stroke-linecap="round" stroke-linejoin="round"/>
<path d="M275.128 126.05C275.128 126.05 273.184 126.484 273.184 127.888" stroke="#263238" stroke-width="1.04742" stroke-linecap="round" stroke-linejoin="round"/>
<path d="M242.096 126.264C242.096 126.264 244.261 127.667 244.047 129.826" stroke="#263238" stroke-width="1.04742" stroke-linecap="round" stroke-linejoin="round"/>
<path d="M256.604 187.233C257.69 187.233 259.581 186.291 260.023 186.064C260.466 186.291 262.357 187.233 263.436 187.233C264.67 187.233 268.706 187.761 270.636 187.761C272.567 187.761 273.989 187.233 272.044 186.01C270.362 184.948 266.835 182.435 265.937 181.793C263.865 183.678 259.769 183.21 259.769 183.21C258.939 183.086 258.117 182.911 257.308 182.689C256.081 182.335 254.325 181.64 254.325 181.64C254.325 181.64 249.933 184.787 248.002 186.01C246.072 187.233 247.479 187.761 249.41 187.761C251.341 187.761 255.377 187.233 256.604 187.233Z" fill="#108E66" stroke="#263238" stroke-width="1.04742" stroke-linecap="round" stroke-linejoin="round"/>
<path d="M259.769 181.666V151.151" stroke="white" stroke-width="1.04742" stroke-linecap="round" stroke-linejoin="round"/>
<path d="M260.022 186.031L259.769 183.177V181.667" stroke="#263238" stroke-width="1.04742" stroke-linecap="round" stroke-linejoin="round"/>
<path d="M257.308 150.102H262.396" stroke="white" stroke-width="1.04742" stroke-linecap="round" stroke-linejoin="round"/>
<path d="M250.657 86.5126C250.657 86.5126 247.01 88.6913 247.553 90.6027C248.096 92.5141 249.746 92.8817 249.383 93.9443C249.021 95.0069 247.754 95.6752 249.196 96.3435C250.017 96.71 250.876 96.9856 251.757 97.1655C251.757 97.1655 253.098 101.804 255.404 102.619C257.71 103.434 261.706 102.893 264.535 102.532C265.491 102.439 266.396 102.058 267.129 101.439C267.862 100.821 268.388 99.9944 268.638 99.0702C268.913 98.0744 267.452 99.2573 266.721 98.1613C265.99 97.0653 267.09 94.2517 267.908 91.7923C268.726 89.3329 266.265 84.6948 263.074 83.151C259.883 81.6072 253.788 82.4159 250.657 86.5126Z" fill="#263238" stroke="#263238" stroke-width="1.04742" stroke-linecap="round" stroke-linejoin="round"/>
<path d="M256.785 102.358C256.321 103.884 256.006 105.45 255.846 107.036C255.725 109.041 257.368 111.24 259.125 111.12C260.881 110.999 262.396 107.504 262.631 105.773C262.866 104.042 262.048 99.3574 262.048 99.3574C262.048 99.3574 259.366 99.4777 258.3 100.407C257.674 100.954 257.159 101.617 256.785 102.358Z" fill="white" stroke="#263238" stroke-width="1.04742" stroke-linecap="round" stroke-linejoin="round"/>
<path d="M254.405 89.0586C254.405 89.0586 254.492 91.7853 257.234 94.4051C258.882 95.994 260.837 97.2331 262.98 98.0474C262.932 98.6446 262.777 99.2285 262.524 99.7716C262.405 99.9987 262.219 100.184 261.991 100.304C261.764 100.423 261.505 100.471 261.25 100.44H260.331C260.331 100.44 258.991 103.574 257.368 104.029C255.746 104.483 251.756 104.169 251.207 100.166C250.657 96.1627 250.57 92.888 251.026 92.066C251.482 91.244 254.405 89.0586 254.405 89.0586Z" fill="white" stroke="#263238" stroke-width="1.04742" stroke-linecap="round" stroke-linejoin="round"/>
<path d="M283.093 124.279C283.509 123.443 283.762 122.536 283.838 121.605C283.838 120.389 281.571 118.645 281.156 118.21C280.74 117.776 280.324 117.823 280.237 118.431C280.236 118.772 280.305 119.11 280.44 119.424C280.575 119.738 280.773 120.021 281.022 120.256C281.361 120.523 281.608 120.89 281.726 121.305C281.766 121.605 280.975 123.082 281.37 124.038C281.766 124.994 282.879 125.281 283.093 124.279Z" fill="white" stroke="#263238" stroke-width="1.04742" stroke-linecap="round" stroke-linejoin="round"/>
<path d="M192.295 117.455C192.295 117.455 202.164 120.603 208.097 127.954C214.031 135.306 217.926 134.25 225.301 131.804C232.675 129.358 235.485 120.603 245.669 127.954C255.853 135.306 257.958 138.099 266.385 133.902C274.813 129.705 279.372 119.554 287.102 123.049C294.832 126.544 291.312 144.435 292.016 153.123C292.72 161.811 291.661 183.578 293.417 186.378C295.174 189.178 313.081 187.046 313.081 187.046" stroke="#263238" stroke-width="3.14226" stroke-linecap="round" stroke-linejoin="round"/>
<path d="M210.779 105.773C210.779 105.773 208.815 102.579 205.918 103.414C202.855 104.296 201.272 108.66 200.555 111.38C199.838 114.101 199.355 117.041 198.041 119.574C198.041 119.574 192.235 119.474 188.997 118.538C186.526 117.77 184.096 116.878 181.716 115.865C181.716 115.865 180.569 114.268 179.758 113.953C178.947 113.639 176.841 113.025 176.687 113.506C176.533 113.987 179.128 115.571 179.128 115.571C179.128 115.571 174.301 116.239 173.818 116.754C173.335 117.268 177.23 118.805 177.23 118.805C177.23 118.805 178.685 119.273 182.225 118.431C182.225 118.431 195.212 126.651 197.799 127.594C200.387 128.536 201.822 128.837 203.585 125.442C205.349 122.047 211.201 113.626 212.133 110.238" fill="#108E66"/>
<path d="M210.779 105.773C210.779 105.773 208.815 102.579 205.918 103.414C202.855 104.296 201.272 108.66 200.555 111.38C199.838 114.101 199.355 117.041 198.041 119.574C198.041 119.574 192.235 119.474 188.997 118.538C186.526 117.77 184.096 116.878 181.716 115.865C181.716 115.865 180.569 114.268 179.758 113.953C178.947 113.639 176.841 113.025 176.687 113.506C176.533 113.987 179.128 115.571 179.128 115.571C179.128 115.571 174.301 116.239 173.818 116.754C173.335 117.268 177.23 118.805 177.23 118.805C177.23 118.805 178.685 119.273 182.225 118.431C182.225 118.431 195.212 126.651 197.799 127.594C200.387 128.536 201.822 128.837 203.585 125.442C205.349 122.047 211.201 113.626 212.133 110.238" stroke="#263238" stroke-width="1.04742" stroke-linecap="round" stroke-linejoin="round"/>
<path d="M185.088 117.228C183.191 116.519 181.736 115.891 181.736 115.891C181.736 115.891 180.59 114.294 179.778 113.98C178.967 113.666 176.862 113.051 176.708 113.532C176.554 114.013 179.148 115.597 179.148 115.597C179.148 115.597 174.321 116.266 173.838 116.78C173.356 117.295 177.251 118.832 177.251 118.832C177.251 118.832 178.706 119.3 182.246 118.458L184.062 119.6L185.088 117.228Z" fill="white" stroke="#263238" stroke-width="1.04742" stroke-linecap="round" stroke-linejoin="round"/>
<path d="M235.144 125.508C234.728 124.672 234.475 123.765 234.399 122.835C234.399 121.619 236.672 119.881 237.081 119.447C237.49 119.012 237.906 119.059 237.993 119.667C237.994 120.009 237.925 120.347 237.79 120.661C237.655 120.974 237.457 121.257 237.209 121.492C236.869 121.759 236.622 122.126 236.505 122.541C236.464 122.835 237.255 124.319 236.86 125.274C236.464 126.23 235.358 126.504 235.144 125.508Z" fill="white" stroke="#263238" stroke-width="1.04742" stroke-linecap="round" stroke-linejoin="round"/>
<path d="M236.706 121.84C236.706 121.84 234.835 125.281 235.921 126.518C237.007 127.754 238.06 123.738 238.261 122.628C238.462 121.519 237.396 120.403 236.706 121.84Z" fill="white" stroke="#263238" stroke-width="1.04742" stroke-linecap="round" stroke-linejoin="round"/>
<path d="M238.248 123.076C238.248 123.076 236.377 126.517 237.463 127.754C238.549 128.99 239.602 124.974 239.803 123.864C240.004 122.755 238.938 121.599 238.248 123.076Z" fill="white" stroke="#263238" stroke-width="1.04742" stroke-linecap="round" stroke-linejoin="round"/>
<path d="M239.944 123.363C239.944 123.363 238.073 126.805 239.159 128.041C240.245 129.278 241.298 125.261 241.499 124.152C241.7 123.042 240.634 121.919 239.944 123.363Z" fill="white" stroke="#263238" stroke-width="1.04742" stroke-linecap="round" stroke-linejoin="round"/>
<path d="M242.116 123.39C242.116 123.39 240.372 126.063 241.324 127.072C242.276 128.082 243.302 124.907 243.503 123.992C243.705 123.076 242.759 122.187 242.116 123.39Z" fill="white" stroke="#263238" stroke-width="1.04742" stroke-linecap="round" stroke-linejoin="round"/>
<path d="M281.846 121.973C281.846 121.973 283.716 125.415 282.63 126.651C281.544 127.888 280.492 123.865 280.29 122.755C280.089 121.646 281.155 120.53 281.846 121.973Z" fill="white" stroke="#263238" stroke-width="1.04742" stroke-linecap="round" stroke-linejoin="round"/>
<path d="M280.304 123.176C280.304 123.176 282.174 126.618 281.088 127.854C280.002 129.09 278.95 125.067 278.748 123.958C278.547 122.848 279.613 121.739 280.304 123.176Z" fill="white" stroke="#263238" stroke-width="1.04742" stroke-linecap="round" stroke-linejoin="round"/>
<path d="M278.594 123.497C278.594 123.497 280.465 126.939 279.379 128.175C278.293 129.411 277.24 125.395 277.046 124.279C276.851 123.163 277.924 122.053 278.594 123.497Z" fill="white" stroke="#263238" stroke-width="1.04742" stroke-linecap="round" stroke-linejoin="round"/>
<path d="M276.436 123.523C276.436 123.523 278.179 126.23 277.227 127.206C276.275 128.181 275.249 125.04 275.054 124.125C274.86 123.209 275.792 122.32 276.436 123.523Z" fill="white" stroke="#263238" stroke-width="1.04742" stroke-linecap="round" stroke-linejoin="round"/>
<path d="M45.7642 161.604V165.4C44.4427 166.84 43.4924 168.578 42.9953 170.466C42.1841 173.567 39.6431 186.913 40.3136 187.26C40.984 187.608 47.2928 189.045 49.3041 188.744C51.6105 188.397 53.5748 188.517 52.415 187.247C51.2551 185.977 45.1608 182.429 45.1608 182.429C45.1608 182.429 51.8652 172.765 53.3536 169.196C54.842 165.627 55.0833 160.107 55.0833 160.107L46.086 159.766L45.7642 161.604Z" fill="white" stroke="#263238" stroke-width="1.04742" stroke-linecap="round" stroke-linejoin="round"/>
<path d="M49.3037 188.744C51.61 188.396 53.5744 188.517 52.4145 187.247C51.2547 185.977 45.1604 182.428 45.1604 182.428L44.9324 183.805L40.541 183.27C40.2192 185.502 40.0784 187.14 40.3131 187.28C41.0305 187.601 47.2924 189.045 49.3037 188.744Z" fill="#263238" stroke="#263238" stroke-width="1.04742" stroke-linecap="round" stroke-linejoin="round"/>
<path d="M67.8084 163.569L68.8476 165.413C68.4168 166.241 68.1634 167.149 68.1034 168.08C68.0433 169.011 68.1781 169.944 68.4989 170.82C69.5381 174.041 71.9651 185.89 71.9651 186.579C71.9651 187.267 73.4602 187.728 74.6469 187.728C75.8336 187.728 79.1187 187.955 79.5813 187.955C80.0439 187.955 83.3894 188.53 84.5426 187.842C85.6957 187.153 83.0743 185.77 81.3446 184.968C79.6148 184.166 75.8067 182.094 75.8067 182.094C75.8067 182.094 76.7252 172.658 76.7252 168.514C76.7252 164.371 77.6504 162.994 76.3833 160.461C75.1162 157.928 67.1514 161.617 67.1514 161.617L67.8084 163.569Z" fill="white" stroke="#263238" stroke-width="1.04742" stroke-linecap="round" stroke-linejoin="round"/>
<path d="M81.3105 184.968C79.5808 184.159 75.7727 182.094 75.7727 182.094L75.3101 183.818L71.6025 184.487C71.8238 185.636 71.9646 186.425 71.9646 186.585C71.9646 187.254 73.4597 187.735 74.6463 187.735C75.833 187.735 79.1182 187.962 79.5808 187.962C80.0434 187.962 83.3889 188.537 84.542 187.848C85.6952 187.16 83.0402 185.77 81.3105 184.968Z" fill="#263238" stroke="#263238" stroke-width="1.04742" stroke-linecap="round" stroke-linejoin="round"/>
<path d="M61.593 86.9871C60.6883 85.4459 59.6543 83.9837 58.5022 82.6163C56.9133 80.8319 51.9319 80.9322 49.7463 83.2846C47.5607 85.6371 48.2512 89.8341 49.0759 91.0237C49.9005 92.2133 51.5632 97.7736 51.5632 97.7736L51.9588 101.743L61.2175 105.018L59.3269 98.5689C59.3269 98.5689 62.9137 97.9006 63.2087 96.7845C63.5037 95.6684 62.612 91.9192 62.612 91.9192C62.612 91.9192 63.8054 91.1239 63.7049 90.4289C63.6043 89.7338 61.593 86.9871 61.593 86.9871Z" fill="white" stroke="#263238" stroke-width="1.04742" stroke-linecap="round" stroke-linejoin="round"/>
<path d="M50.9399 91.2642C50.9399 91.2642 52.5221 92.6008 53.387 91.0704C54.2518 89.54 54.9089 88.043 54.9089 86.7464C54.9089 85.4499 51.6572 84.3739 53.8228 83.5051C55.9883 82.6363 57.5504 84.5677 58.5158 82.6296C59.4813 80.6915 58.603 80.4844 53.4004 80.4844C48.1978 80.4844 45.5965 83.0774 46.696 86.3187C47.5754 88.7124 48.6634 91.0247 49.9476 93.2291L50.9399 91.2642Z" fill="#263238" stroke="#263238" stroke-width="1.04742" stroke-linecap="round" stroke-linejoin="round"/>
<path d="M61.8887 89.2792C61.8887 89.7696 61.7428 90.249 61.4695 90.6567C61.1962 91.0645 60.8078 91.3823 60.3533 91.5699C59.8988 91.7576 59.3986 91.8067 58.9161 91.711C58.4336 91.6154 57.9904 91.3792 57.6426 91.0325C57.2947 90.6857 57.0578 90.2439 56.9619 89.7629C56.8659 89.282 56.9151 88.7835 57.1034 88.3304C57.2917 87.8773 57.6105 87.4901 58.0195 87.2177C58.4285 86.9452 58.9094 86.7998 59.4014 86.7998C60.0611 86.7998 60.6937 87.061 61.1602 87.526C61.6267 87.991 61.8887 88.6216 61.8887 89.2792Z" stroke="#263238" stroke-width="1.04742" stroke-linecap="round" stroke-linejoin="round"/>
<path d="M61.5264 87.0803C61.8158 86.9622 62.1254 86.9009 62.4382 86.8999C62.9561 86.9008 63.4591 87.073 63.8683 87.3895C64.2775 87.706 64.5698 88.1489 64.6993 88.6488C64.8289 89.1486 64.7885 89.6772 64.5843 90.1517C64.3801 90.6262 64.0238 91.0197 63.5712 91.2707" stroke="#263238" stroke-width="1.04742" stroke-linecap="round" stroke-linejoin="round"/>
<path d="M56.914 89.2793L50.9404 91.2642" stroke="#263238" stroke-width="1.04742" stroke-linecap="round" stroke-linejoin="round"/>
<path d="M52.6564 92.5541C52.6564 92.5541 51.463 90.0746 50.2696 90.5491C49.0763 91.0236 49.6729 94.9199 50.8663 95.3142C51.2674 95.4042 51.6842 95.3971 52.0819 95.2936C52.4797 95.1902 52.8468 94.9933 53.1525 94.7194C53.1525 94.7194 54.1515 96.8045 55.3449 97.3926" fill="white"/>
<path d="M52.6564 92.5541C52.6564 92.5541 51.463 90.0746 50.2696 90.5491C49.0763 91.0236 49.6729 94.9199 50.8663 95.3142C51.2674 95.4042 51.6842 95.3971 52.0819 95.2936C52.4797 95.1902 52.8468 94.9933 53.1525 94.7194C53.1525 94.7194 54.1515 96.8045 55.3449 97.3926" stroke="#263238" stroke-width="1.04742" stroke-linecap="round" stroke-linejoin="round"/>
<path d="M44.8255 137.11L44.0813 146.613L41.8555 160.681C41.8555 160.681 47.0581 164.751 51.9121 164.751C56.766 164.751 58.1002 164.137 58.1002 164.137L60.8222 149.701L63.5442 164.878C63.5442 164.878 68.9077 164.016 72.461 163.147C74.9318 162.462 77.2735 161.379 79.3934 159.94L72.213 141.307L70.6575 131.697C70.6575 131.697 62.6123 132.439 57.7784 132.686C52.9445 132.933 46.515 131.697 46.515 131.697L44.8255 137.11Z" fill="#108E66" stroke="#263238" stroke-width="1.04742" stroke-linecap="round" stroke-linejoin="round"/>
<path d="M49.9272 99.1368C49.9272 99.1368 61.3247 103.1 64.8445 106.949C66.7888 109.088 68.9677 123.724 69.7521 127.299C70.5365 130.875 71.9042 137.992 71.9042 137.992C71.9042 137.992 64.9518 141.12 59.5749 141.234C54.1979 141.347 43.8799 138.888 43.8799 138.888C43.8799 138.888 45.1068 123.029 45.1068 115.657C45.1068 108.286 45.2208 103.474 46.4477 101.128C46.4544 101.148 48.4724 98.9096 49.9272 99.1368Z" fill="#263238" stroke="#263238" stroke-width="1.04742" stroke-linecap="round" stroke-linejoin="round"/>
<path d="M46.9309 140.038C46.9309 140.038 47.5477 150.403 46.9309 154.233C46.4978 156.703 45.7498 159.108 44.7051 161.39" stroke="#263238" stroke-width="1.04742" stroke-linecap="round" stroke-linejoin="round"/>
<path d="M47.1787 144.976C48.1096 144.658 48.9414 144.103 49.5926 143.367C50.2437 142.632 50.6918 141.74 50.8929 140.779" stroke="#263238" stroke-width="1.04742" stroke-linecap="round" stroke-linejoin="round"/>
<path d="M42.4727 158.677C42.4727 158.677 48.6675 163.983 58.3218 162.018" stroke="#263238" stroke-width="1.04742" stroke-linecap="round" stroke-linejoin="round"/>
<path d="M63.2764 161.758C63.2764 161.758 73.4268 160.648 77.8852 157.688" stroke="#263238" stroke-width="1.04742" stroke-linecap="round" stroke-linejoin="round"/>
<path d="M108.678 94.3383C108.678 94.3383 107.7 95.0601 104.287 97.5462C100.875 100.032 103.563 103.788 103.563 103.788C103.563 103.788 101.123 104.169 97.8643 107.584C94.606 110.999 99.3191 116.86 103.724 117.776C108.129 118.692 113.278 113.258 114.82 108.219C116.362 103.18 114.324 95.5814 113.298 94.0108C112.272 92.4403 108.678 94.3383 108.678 94.3383Z" fill="#263238" stroke="#263238" stroke-width="1.04742" stroke-linecap="round" stroke-linejoin="round"/>
<path d="M121.604 93.6703C121.604 93.6703 123.3 91.0572 121.765 87.2679C120.23 83.4785 115.644 81.7476 111.179 84.4944C109.691 85.3771 108.536 86.7248 107.895 88.3284C107.254 89.9319 107.161 91.7016 107.632 93.3629C108.068 95.1138 110.267 97.8071 110.73 97.8472C111.192 97.8873 115.208 99.3442 117.95 98.0678C120.692 96.7913 121.604 93.6703 121.604 93.6703Z" fill="#263238" stroke="#263238" stroke-width="1.04742" stroke-linecap="round" stroke-linejoin="round"/>
<path d="M101.873 181.887C101.873 181.887 105.058 186.826 110.589 187.668C116.12 188.51 111.145 183.565 110.213 182.816C109.281 182.068 102.624 180.45 101.873 181.887Z" fill="#737373" stroke="#263238" stroke-width="1.04742" stroke-linecap="round" stroke-linejoin="round"/>
<path d="M131.339 183.157C131.339 183.157 137.42 184.647 136.95 185.957C136.481 187.267 131.526 187.167 128.63 186.418C125.734 185.67 123.012 184.554 123.387 183.344C123.763 182.135 131.339 183.157 131.339 183.157Z" fill="#737373" stroke="#263238" stroke-width="1.04742" stroke-linecap="round" stroke-linejoin="round"/>
<path d="M114.048 103.494C114.048 103.494 105.909 104.684 104.421 107.551C102.933 110.418 105.031 126.036 105.031 126.036C105.031 126.036 101.558 133.675 101.511 138.594C101.464 143.513 103.663 152.167 103.489 154.326C103.315 156.485 101.089 181.058 101.089 181.727C101.089 182.395 105.782 183.892 112.547 184.694C119.311 185.496 132.251 183.097 132.251 183.097C132.251 183.097 131.996 168.594 132.673 159.946C133.35 151.298 132.385 143.526 130.662 140.298C128.939 137.07 120.914 125.448 120.914 125.448C120.914 125.448 124.802 118.418 125.044 115.343C125.285 112.269 124.031 110.665 121.095 107.13C120.222 106.087 119.149 105.228 117.939 104.604C116.729 103.98 115.407 103.602 114.048 103.494Z" fill="#108E66" stroke="#263238" stroke-width="1.04742" stroke-linecap="round" stroke-linejoin="round"/>
<path d="M120.933 125.455C120.933 125.455 124.822 118.425 125.063 115.35C125.305 112.276 124.051 110.672 121.114 107.137C120.974 106.963 120.826 106.809 120.679 106.649L120.571 106.749C117.554 111.661 107.578 120.055 104.608 122.501C104.836 124.593 105.031 126.037 105.031 126.037C105.031 126.037 101.558 133.675 101.511 138.594C101.566 140.835 101.79 143.069 102.181 145.277C109.227 141.267 118.654 133.762 123.756 129.579C122.16 127.226 120.933 125.455 120.933 125.455Z" fill="#737373" stroke="#263238" stroke-width="1.04742" stroke-linecap="round" stroke-linejoin="round"/>
<path d="M112.547 97.7599C112.772 99.5941 112.895 101.439 112.916 103.287C112.808 104.657 113.251 107.785 115.597 108.767C117.944 109.749 119.419 108.379 119.412 107.003C119.327 105.866 119.102 104.743 118.742 103.661L118.809 99.8852C118.809 99.8852 114.759 97.359 112.547 97.7599Z" fill="white" stroke="#263238" stroke-width="1.04742" stroke-linecap="round" stroke-linejoin="round"/>
<path d="M110.442 95.3073C110.442 95.3073 108.719 93.797 108.665 95.9757C108.611 98.1543 110.623 98.8761 111.065 99.0231C111.439 99.0737 111.818 98.9805 112.125 98.7625C112.125 98.7625 115.249 101.436 117.756 101.61C120.264 101.783 121.283 100.627 121.873 96.0893C122.463 91.5514 117.763 86.9468 117.763 86.9468C117.763 86.9468 113.74 94.3383 110.442 95.3073Z" fill="white" stroke="#263238" stroke-width="1.04742" stroke-linecap="round" stroke-linejoin="round"/>
<path d="M72.0987 137.899C72.0759 137.124 72.2034 136.353 72.4742 135.626C72.8899 134.717 75.1559 134.196 75.6588 134.022C76.1616 133.849 76.4164 134.022 76.2689 134.497C76.1516 134.752 75.9836 134.981 75.775 135.169C75.5664 135.358 75.3216 135.502 75.0554 135.593C74.7086 135.676 74.3967 135.865 74.1637 136.134C74.0363 136.348 74.1168 137.718 73.4933 138.3C72.8698 138.881 71.8909 138.721 72.0987 137.899Z" fill="white" stroke="#263238" stroke-width="1.04742" stroke-linecap="round" stroke-linejoin="round"/>
<path d="M123.482 117.803C123.482 117.803 115.436 116.753 111.89 122.354C108.343 127.954 101.712 147.549 89.4232 150.703C77.1341 153.858 73.6209 128.649 66.2461 129.351C59.2199 130.019 54.3123 129.351 50.0952 137.05C47.8426 141.173 36.5792 186.197 31.2559 186.659C14.3005 188.136 3.38574 187.173 3.38574 187.173" stroke="#263238" stroke-width="3.14226" stroke-linecap="round" stroke-linejoin="round"/>
<path d="M50.4508 99.4578C50.4508 99.4578 48.5937 98.716 46.1131 100.193C43.6325 101.67 36.9549 117.843 37.451 119.574C37.9472 121.305 45.0002 124.513 48.9625 125.622C52.9248 126.732 60.1052 128.095 60.1052 128.095C60.1052 128.095 62.331 131.55 63.0752 131.67C64.1576 131.656 65.2357 131.533 66.2933 131.303C66.2933 131.303 67.6342 132.412 68.1504 131.176C68.6667 129.939 67.6543 128.342 66.5414 127.106C65.4285 125.869 60.722 125.255 60.722 125.255L47.9635 116.486L53.327 106.615" fill="#263238"/>
<path d="M50.4508 99.4578C50.4508 99.4578 48.5937 98.716 46.1131 100.193C43.6325 101.67 36.9549 117.843 37.451 119.574C37.9472 121.305 45.0002 124.513 48.9625 125.622C52.9248 126.732 60.1052 128.095 60.1052 128.095C60.1052 128.095 62.331 131.55 63.0752 131.67C64.1576 131.656 65.2357 131.533 66.2933 131.303C66.2933 131.303 67.6342 132.412 68.1504 131.176C68.6667 129.939 67.6543 128.342 66.5414 127.106C65.4285 125.869 60.722 125.255 60.722 125.255L47.9635 116.486L53.327 106.615" stroke="#263238" stroke-width="1.04742" stroke-linecap="round" stroke-linejoin="round"/>
<path d="M63.0748 131.664C64.1572 131.649 65.2353 131.526 66.2929 131.296C66.2929 131.296 67.6338 132.405 68.1501 131.169C68.6663 129.933 67.6539 128.335 66.541 127.099C65.4281 125.863 60.7216 125.248 60.7216 125.248L47.9631 116.486L49.8672 112.951C45.1004 109.99 41.9359 110.211 40.2263 110.806C38.5167 114.896 37.216 118.772 37.4439 119.567C37.9401 121.298 44.9931 124.506 48.9554 125.615C52.9177 126.725 60.0981 128.088 60.0981 128.088C60.0981 128.088 62.3307 131.543 63.0748 131.664Z" fill="white" stroke="#263238" stroke-width="1.04742" stroke-linecap="round" stroke-linejoin="round"/>
<path d="M142.824 118.077C142.281 112.243 139.472 107.451 136.12 105.546L136.012 104.356L127.256 105.165C122.329 105.62 118.93 112.363 119.66 120.222C120.391 128.081 124.977 134.076 129.905 133.588L138.661 132.78L138.547 131.59C141.497 129.131 143.367 123.911 142.824 118.077Z" fill="#263238" stroke="#263238" stroke-width="1.04742" stroke-linecap="round" stroke-linejoin="round"/>
<path d="M146.786 117.729C146.216 111.601 143.434 106.555 139.887 104.55L139.766 103.3L136.019 103.648C130.843 104.129 127.269 111.206 128.034 119.467C128.798 127.727 133.625 134.029 138.801 133.548L142.549 133.201L142.435 131.951C145.532 129.318 147.356 123.837 146.786 117.729Z" fill="white" stroke="#263238" stroke-width="1.04742" stroke-linecap="round" stroke-linejoin="round"/>
<path d="M150.54 117.362C151.311 125.622 147.738 132.699 142.555 133.181C137.373 133.662 132.552 127.353 131.768 119.099C130.983 110.846 134.57 103.728 139.746 103.28C144.922 102.833 149.762 109.108 150.54 117.362Z" fill="white" stroke="#263238" stroke-width="1.04742" stroke-linecap="round" stroke-linejoin="round"/>
<path d="M154.563 112.536L140.022 113.873C139.818 113.892 139.612 113.871 139.416 113.811C139.22 113.751 139.039 113.653 138.881 113.522C138.723 113.392 138.593 113.232 138.498 113.051C138.402 112.87 138.344 112.673 138.325 112.469C138.306 112.266 138.327 112.061 138.387 111.866C138.448 111.671 138.546 111.49 138.677 111.332C138.808 111.175 138.968 111.046 139.15 110.951C139.331 110.855 139.529 110.797 139.733 110.779L154.275 109.442C154.479 109.423 154.685 109.444 154.88 109.504C155.076 109.564 155.258 109.662 155.416 109.792C155.573 109.923 155.703 110.083 155.799 110.264C155.894 110.444 155.953 110.642 155.971 110.845C155.991 111.049 155.97 111.254 155.909 111.449C155.849 111.644 155.751 111.825 155.62 111.982C155.489 112.14 155.328 112.269 155.147 112.364C154.966 112.459 154.767 112.518 154.563 112.536Z" fill="#737373" stroke="#263238" stroke-width="1.04742" stroke-linecap="round" stroke-linejoin="round"/>
<path d="M155.642 124.025L141.101 125.362C140.897 125.381 140.691 125.36 140.495 125.3C140.3 125.24 140.118 125.141 139.96 125.011C139.802 124.881 139.672 124.72 139.577 124.54C139.482 124.359 139.423 124.161 139.404 123.958C139.385 123.755 139.406 123.55 139.466 123.355C139.527 123.16 139.625 122.978 139.756 122.821C139.887 122.664 140.048 122.534 140.229 122.439C140.41 122.344 140.608 122.286 140.812 122.267L155.354 120.931C155.765 120.895 156.174 121.023 156.491 121.285C156.809 121.548 157.01 121.925 157.05 122.334C157.07 122.537 157.049 122.742 156.988 122.938C156.928 123.133 156.83 123.314 156.699 123.471C156.568 123.628 156.407 123.758 156.226 123.853C156.045 123.948 155.846 124.006 155.642 124.025Z" fill="#737373" stroke="#263238" stroke-width="1.04742" stroke-linecap="round" stroke-linejoin="round"/>
<path d="M109.02 104.583C109.02 104.583 105.52 105.252 103.864 107.257C102.208 109.262 98.8089 124.733 99.5933 126.511C100.378 128.288 112.948 130.521 116.83 130.841C119.952 130.965 123.078 130.826 126.176 130.427C126.176 130.427 129.528 130.34 130.447 130.186C131.365 130.033 133.055 129.131 133.082 128.79C133.109 128.449 132.941 127.634 131.687 127.533C130.434 127.433 127.745 126.538 127.403 126.511C128.209 126.3 129.026 126.134 129.85 126.016C129.85 126.016 130.025 125.348 128.643 125.348C127.262 125.348 126.009 125.254 125.486 126.016C125.112 126.61 124.793 127.236 124.534 127.888C124.534 127.888 116.79 128.429 112.586 126.384C108.383 124.339 107.055 123.657 107.055 123.657L110.072 111.627" fill="#108E66"/>
<path d="M109.02 104.583C109.02 104.583 105.52 105.252 103.864 107.257C102.208 109.262 98.8089 124.733 99.5933 126.511C100.378 128.288 112.948 130.521 116.83 130.841C119.952 130.965 123.078 130.826 126.176 130.427C126.176 130.427 129.528 130.34 130.447 130.186C131.365 130.033 133.055 129.131 133.082 128.79C133.109 128.449 132.941 127.634 131.687 127.533C130.434 127.433 127.745 126.538 127.403 126.511C128.209 126.3 129.026 126.134 129.85 126.016C129.85 126.016 130.025 125.348 128.643 125.348C127.262 125.348 126.009 125.254 125.486 126.016C125.112 126.61 124.793 127.236 124.534 127.888C124.534 127.888 116.79 128.429 112.586 126.384C108.383 124.339 107.055 123.657 107.055 123.657L110.072 111.627" stroke="#263238" stroke-width="1.04742" stroke-linecap="round" stroke-linejoin="round"/>
<path d="M130.428 130.207C131.359 130.053 133.036 129.151 133.062 128.81C133.089 128.469 132.922 127.654 131.668 127.553C130.414 127.453 127.726 126.558 127.384 126.531C128.189 126.32 129.006 126.155 129.831 126.036C129.831 126.036 130.005 125.368 128.624 125.368C127.243 125.368 125.989 125.275 125.466 126.036C125.092 126.63 124.774 127.256 124.514 127.908C124.514 127.908 116.771 128.449 112.567 126.404C108.363 124.359 107.036 123.677 107.036 123.677L108.873 116.326C106.482 115.345 103.958 114.721 101.384 114.475C100.13 119.514 99.1047 125.448 99.574 126.504C100.352 128.282 112.929 130.514 116.811 130.835C119.932 130.958 123.059 130.819 126.157 130.42C126.157 130.42 129.516 130.36 130.428 130.207Z" fill="white" stroke="#263238" stroke-width="1.04742" stroke-linecap="round" stroke-linejoin="round"/>
<path d="M73.8018 136.602C73.8018 136.602 71.2139 138.534 71.6095 139.81C72.005 141.087 74.1639 138.474 74.7002 137.705C75.2366 136.937 74.8142 135.774 73.8018 136.602Z" fill="white" stroke="#263238" stroke-width="1.04742" stroke-linecap="round" stroke-linejoin="round"/>
<path d="M74.3113 138.333C74.3113 138.333 71.7302 140.265 72.119 141.541C72.5079 142.818 74.6801 140.204 75.2097 139.436C75.7394 138.667 75.3237 137.491 74.3113 138.333Z" fill="white" stroke="#263238" stroke-width="1.04742" stroke-linecap="round" stroke-linejoin="round"/>
<path d="M75.5384 139.456C75.5384 139.456 72.9572 141.388 73.3527 142.664C73.7483 143.941 75.9071 141.327 76.4435 140.559C76.9798 139.79 76.5575 138.614 75.5384 139.456Z" fill="white" stroke="#263238" stroke-width="1.04742" stroke-linecap="round" stroke-linejoin="round"/>
<path d="M76.551 140.365C76.551 140.365 74.3185 141.795 74.6939 142.851C75.0694 143.907 76.9131 141.909 77.3757 141.294C77.8383 140.679 77.4628 139.69 76.551 140.365Z" fill="white" stroke="#263238" stroke-width="1.04742" stroke-linecap="round" stroke-linejoin="round"/>
</g>
<defs>
<clipPath id="clip0_2242_24139">
<rect width="315" height="241.571" fill="white"/>
</clipPath>
</defs>
</svg>
