<svg width="104" height="104" viewBox="0 0 104 104" fill="none" xmlns="http://www.w3.org/2000/svg">
<rect width="104" height="104" rx="16" fill="#108E66" fill-opacity="0.05"/>
<path d="M86.7143 21.1375H17.2857C16.9447 21.1375 16.6177 21.2729 16.3766 21.514C16.1355 21.7551 16 22.0822 16 22.4232V27.566C16 27.907 16.1355 28.234 16.3766 28.4752C16.6177 28.7163 16.9447 28.8517 17.2857 28.8517H19.8571V71.2803C19.8571 71.6213 19.9926 71.9483 20.2337 72.1894C20.4748 72.4306 20.8019 72.566 21.1429 72.566H50.7143V75.3689C49.8564 75.6722 49.1334 76.269 48.673 77.0538C48.2127 77.8386 48.0445 78.7609 48.1984 79.6577C48.3523 80.5545 48.8182 81.368 49.5139 81.9544C50.2095 82.5409 51.0901 82.8626 52 82.8626C52.9099 82.8626 53.7905 82.5409 54.4861 81.9544C55.1818 81.368 55.6477 80.5545 55.8016 79.6577C55.9555 78.7609 55.7873 77.8386 55.327 77.0538C54.8666 76.269 54.1436 75.6722 53.2857 75.3689V72.566H82.8571C83.1981 72.566 83.5252 72.4306 83.7663 72.1894C84.0074 71.9483 84.1429 71.6213 84.1429 71.2803V28.8517H86.7143C87.0553 28.8517 87.3823 28.7163 87.6234 28.4752C87.8645 28.234 88 27.907 88 27.566V22.4232C88 22.0822 87.8645 21.7551 87.6234 21.514C87.3823 21.2729 87.0553 21.1375 86.7143 21.1375ZM52 80.2803C51.7457 80.2803 51.4971 80.2049 51.2857 80.0636C51.0743 79.9224 50.9095 79.7215 50.8122 79.4866C50.7148 79.2517 50.6894 78.9932 50.739 78.7438C50.7886 78.4944 50.9111 78.2653 51.0909 78.0855C51.2707 77.9056 51.4998 77.7832 51.7492 77.7336C51.9986 77.684 52.2571 77.7094 52.492 77.8068C52.727 77.9041 52.9278 78.0689 53.069 78.2803C53.2103 78.4917 53.2857 78.7403 53.2857 78.9946C53.2857 79.3356 53.1503 79.6626 52.9091 79.9037C52.668 80.1448 52.341 80.2803 52 80.2803ZM81.5714 69.9946H22.4286V28.8517H81.5714V69.9946ZM85.4286 26.2803H18.5714V23.7089H85.4286V26.2803Z" fill="#108E66"/>
<path d="M33.9995 64.8516C35.4815 64.8519 36.9181 64.3402 38.0661 63.403C39.2141 62.4659 40.0031 61.1608 40.2995 59.7088H42.9995C45.7275 59.7088 48.3437 58.6251 50.2726 56.6962C52.2016 54.7672 53.2852 52.151 53.2852 49.4231C53.2852 47.3771 54.098 45.415 55.5447 43.9683C56.9914 42.5216 58.9536 41.7088 60.9995 41.7088H72.0438L69.0867 44.6531C68.9668 44.773 68.8717 44.9153 68.8068 45.0719C68.7419 45.2285 68.7085 45.3964 68.7085 45.5659C68.7085 45.7355 68.7419 45.9033 68.8068 46.06C68.8717 46.2166 68.9668 46.3589 69.0867 46.4788C69.2065 46.5987 69.3489 46.6938 69.5055 46.7586C69.6621 46.8235 69.83 46.8569 69.9995 46.8569C70.1691 46.8569 70.3369 46.8235 70.4936 46.7586C70.6502 46.6938 70.7925 46.5987 70.9124 46.4788L76.0552 41.3359C76.1757 41.2164 76.2714 41.0742 76.3367 40.9175C76.4019 40.7609 76.4355 40.5928 76.4355 40.4231C76.4355 40.2534 76.4019 40.0853 76.3367 39.9286C76.2714 39.772 76.1757 39.6298 76.0552 39.5102L70.9124 34.3674C70.7925 34.2475 70.6502 34.1524 70.4936 34.0875C70.3369 34.0226 70.1691 33.9893 69.9995 33.9893C69.83 33.9893 69.6621 34.0226 69.5055 34.0875C69.3489 34.1524 69.2065 34.2475 69.0867 34.3674C68.9668 34.4873 68.8717 34.6296 68.8068 34.7862C68.7419 34.9428 68.7085 35.1107 68.7085 35.2802C68.7085 35.4498 68.7419 35.6176 68.8068 35.7743C68.8717 35.9309 68.9668 36.0732 69.0867 36.1931L72.0438 39.1374H60.9995C58.2716 39.1374 55.6554 40.221 53.7264 42.15C51.7975 44.0789 50.7138 46.6951 50.7138 49.4231C50.7138 51.469 49.9011 53.4312 48.4544 54.8779C47.0076 56.3246 45.0455 57.1374 42.9995 57.1374H40.2995C40.0563 55.9456 39.4799 54.8473 38.6374 53.9701C37.7948 53.0928 36.7207 52.4726 35.5397 52.1814C34.3588 51.8903 33.1194 51.9401 31.9657 52.3252C30.8119 52.7102 29.7911 53.4147 29.0217 54.3568C28.2523 55.2989 27.766 56.4399 27.6192 57.6473C27.4725 58.8548 27.6713 60.0791 28.1925 61.178C28.7138 62.277 29.5361 63.2055 30.564 63.8558C31.5919 64.5061 32.7832 64.8514 33.9995 64.8516ZM33.9995 54.5659C34.7624 54.5659 35.5081 54.7922 36.1424 55.216C36.7767 55.6398 37.2711 56.2422 37.5631 56.947C37.855 57.6518 37.9314 58.4274 37.7826 59.1756C37.6337 59.9238 37.2664 60.6111 36.7269 61.1505C36.1875 61.6899 35.5002 62.0573 34.752 62.2061C34.0038 62.3549 33.2283 62.2785 32.5235 61.9866C31.8187 61.6947 31.2163 61.2003 30.7924 60.566C30.3686 59.9317 30.1424 59.1859 30.1424 58.4231C30.1424 57.4001 30.5488 56.419 31.2721 55.6957C31.9955 54.9723 32.9766 54.5659 33.9995 54.5659Z" fill="#108E66"/>
<path d="M68.3419 52.3674C68.2224 52.2469 68.0802 52.1512 67.9235 52.0859C67.7669 52.0207 67.5988 51.9871 67.4291 51.9871C67.2594 51.9871 67.0913 52.0207 66.9346 52.0859C66.778 52.1512 66.6358 52.2469 66.5162 52.3674L63.5719 55.3245L60.6277 52.3674C60.5078 52.2475 60.3655 52.1524 60.2088 52.0875C60.0522 52.0226 59.8843 51.9893 59.7148 51.9893C59.5453 51.9893 59.3774 52.0226 59.2208 52.0875C59.0641 52.1524 58.9218 52.2475 58.8019 52.3674C58.6821 52.4873 58.587 52.6296 58.5221 52.7862C58.4572 52.9428 58.4238 53.1107 58.4238 53.2802C58.4238 53.4498 58.4572 53.6176 58.5221 53.7743C58.587 53.9309 58.6821 54.0732 58.8019 54.1931L61.7591 57.1374L58.8019 60.0817C58.5598 60.3238 58.4238 60.6521 58.4238 60.9945C58.4238 61.3369 58.5598 61.6653 58.8019 61.9074C59.0441 62.1495 59.3724 62.2855 59.7148 62.2855C60.0572 62.2855 60.3856 62.1495 60.6277 61.9074L63.5719 58.9502L66.5162 61.9074C66.7583 62.1495 67.0867 62.2855 67.4291 62.2855C67.7715 62.2855 68.0998 62.1495 68.3419 61.9074C68.5841 61.6653 68.7201 61.3369 68.7201 60.9945C68.7201 60.6521 68.5841 60.3238 68.3419 60.0817L65.3848 57.1374L68.3419 54.1931C68.4625 54.0736 68.5581 53.9314 68.6234 53.7747C68.6887 53.618 68.7223 53.45 68.7223 53.2802C68.7223 53.1105 68.6887 52.9425 68.6234 52.7858C68.5581 52.6291 68.4625 52.4869 68.3419 52.3674Z" fill="#108E66"/>
<path d="M35.6577 46.4789C35.7772 46.5994 35.9194 46.6951 36.0761 46.7603C36.2327 46.8256 36.4008 46.8592 36.5705 46.8592C36.7402 46.8592 36.9083 46.8256 37.065 46.7603C37.2216 46.6951 37.3638 46.5994 37.4834 46.4789L40.4277 43.5218L43.3719 46.4789C43.614 46.721 43.9424 46.857 44.2848 46.857C44.6272 46.857 44.9555 46.721 45.1977 46.4789C45.4398 46.2368 45.5758 45.9084 45.5758 45.566C45.5758 45.2237 45.4398 44.8953 45.1977 44.6532L42.2405 41.7089L45.1977 38.7646C45.4398 38.5225 45.5758 38.1942 45.5758 37.8518C45.5758 37.5094 45.4398 37.181 45.1977 36.9389C44.9555 36.6968 44.6272 36.5608 44.2848 36.5608C43.9424 36.5608 43.614 36.6968 43.3719 36.9389L40.4277 39.8961L37.4834 36.9389C37.2413 36.6968 36.9129 36.5608 36.5705 36.5608C36.2281 36.5608 35.8998 36.6968 35.6577 36.9389C35.4156 37.181 35.2795 37.5094 35.2795 37.8518C35.2795 38.1942 35.4156 38.5225 35.6577 38.7646L38.6148 41.7089L35.6577 44.6532C35.5371 44.7727 35.4415 44.9149 35.3762 45.0716C35.3109 45.2283 35.2773 45.3963 35.2773 45.566C35.2773 45.7358 35.3109 45.9038 35.3762 46.0605C35.4415 46.2172 35.5371 46.3594 35.6577 46.4789Z" fill="#108E66"/>
</svg>
