<svg width="570" height="607" viewBox="0 0 570 607" fill="none" xmlns="http://www.w3.org/2000/svg">
<g opacity="0.1" clip-path="url(#clip0_2105_22248)">
<g opacity="0.2">
<path d="M278.744 282.113C276.257 276.251 276.07 270.375 276.07 264.364L275.856 245.939C275.696 236.381 275.709 226.661 275.722 217.266V209.143C275.829 187.117 276.15 164.711 276.471 143.051L276.578 135.456C276.72 126.792 276.863 118.123 277.006 109.449C277.246 93.8131 277.5 77.6488 277.861 61.7552L278.704 24.9048C278.837 20.7351 278.958 16.5564 279.065 12.3686C279.185 8.30726 279.305 4.24587 279.425 0.0761719C279.546 4.20525 279.666 8.32079 279.786 12.3686C279.907 16.4165 280.014 20.7351 280.147 24.9183L280.99 61.7552C281.351 77.6488 281.605 93.8131 281.845 109.436C281.988 118.109 282.13 126.783 282.273 135.456L282.38 143.064C282.701 164.725 283.022 187.117 283.129 209.157V217.347C283.129 226.742 283.129 236.449 282.995 245.98L282.768 264.378C282.768 270.389 282.567 276.264 280.094 282.126L278.744 282.113Z" fill="#108E66"/>
<path d="M278.638 282.248C275.188 276.901 273.972 271.147 272.942 265.244L269.573 247.117C267.769 237.708 266.111 228.164 264.507 218.823L263.17 210.862C259.507 189.202 255.991 167.108 252.582 145.745L251.365 138.136C250.037 129.589 248.7 121.042 247.354 112.495C244.854 97.0487 242.328 81.0739 239.961 65.3698L234.48 28.9256C233.892 24.81 233.295 20.6945 232.689 16.579C232.1 12.5176 231.512 8.45617 230.924 4.39478C231.753 8.38848 232.555 12.3686 233.357 16.2947L235.884 28.7225L243.049 64.8554C246.111 80.3564 249.106 96.1416 252.02 111.412C253.651 120.014 255.291 128.588 256.94 137.135L258.384 144.743C262.394 165.971 266.539 187.929 270.416 209.563L271.753 217.523C273.384 226.797 275.068 236.395 276.552 245.858L279.507 264.053C280.536 269.969 281.338 275.791 279.908 282.004L278.638 282.248Z" fill="#108E66"/>
<path d="M278.557 282.397C274.239 277.74 272.06 272.284 270.028 266.639L263.611 249.392C260.215 240.429 256.926 231.264 253.758 222.397L251.084 214.816C243.758 194.13 236.512 173.01 229.493 152.541L226.993 145.23C224.186 136.972 221.369 128.714 218.544 120.456C213.517 105.754 208.317 90.537 203.304 75.5369L191.659 40.6225L187.769 28.6955L183.945 17.0393C185.443 20.8435 186.94 24.6341 188.397 28.3706C189.854 32.1071 191.459 36.2091 193.009 40.1215L206.258 74.4538C211.94 89.2373 217.622 104.237 223.13 118.858C226.196 126.981 229.271 135.104 232.354 143.227L235.028 150.28C242.648 170.587 250.523 191.503 258.063 212.176L260.83 219.852C264.012 228.678 267.314 237.803 270.389 246.833L276.338 264.378C278.37 270.023 280.162 275.615 279.814 281.977L278.557 282.397Z" fill="#108E66"/>
<path d="M278.49 282.546C273.45 278.728 270.362 273.733 267.407 268.534L258.049 252.681C253.183 244.477 248.397 236.043 243.758 227.893L239.747 220.84C228.958 201.697 218.17 182.108 207.728 163.168L204.105 156.589C199.961 149.007 195.803 141.431 191.632 133.858C184.132 120.199 176.365 106.065 168.825 92.1208L151.432 59.7786C149.48 56.0872 147.519 52.4004 145.549 48.7181L139.801 37.8877L146.138 48.2849C148.303 51.895 150.483 55.4735 152.675 59.0205L171.606 90.5098C179.747 104.048 187.929 117.911 195.857 131.3C200.313 138.755 204.729 146.214 209.105 153.678L212.942 160.19C223.905 178.791 235.255 198.096 246.231 217.049L250.242 224.075C254.894 232.198 259.72 240.646 264.306 249.026L273.223 265.096C276.191 270.294 278.918 275.493 279.667 281.828L278.49 282.546Z" fill="#108E66"/>
<path d="M278.462 282.708C272.847 279.838 268.957 275.466 265.093 270.863L253.222 256.878C247.032 249.662 240.869 242.203 234.906 234.987L229.746 228.746C215.896 211.864 201.979 194.576 188.529 177.843L183.61 171.738C178.209 164.969 172.79 158.2 167.353 151.431C157.647 139.328 147.607 126.819 137.821 114.431L115.134 85.6767L107.353 75.7128L99.9199 66.2362L107.941 75.3879L116.203 84.8645L140.267 112.536C150.615 124.45 161.043 136.634 171.136 148.425C176.76 155.005 182.393 161.58 188.035 168.15L193.061 174.039C207.005 190.379 221.43 207.288 235.468 224.048L240.601 230.235C246.591 237.451 252.794 244.91 258.743 252.356L270.281 266.612C274.104 271.215 277.674 275.858 279.492 281.964L278.462 282.708Z" fill="#108E66"/>
<path d="M278.462 282.884C272.433 281.03 267.847 277.469 263.315 273.557L249.238 261.873C241.898 255.849 234.532 249.594 227.446 243.543L221.283 238.29C204.666 224.035 187.861 209.373 171.711 195.199L166.083 190.258C159.612 184.563 153.133 178.872 146.644 173.186C134.987 162.965 122.941 152.378 111.15 141.9L83.8237 117.532L74.4655 109.152L65.4414 101.029C68.6098 103.56 71.7649 106.078 74.7997 108.569L84.6259 116.421L113.048 139.436C125.268 149.346 137.634 159.513 149.586 169.341L169.786 185.858L175.628 190.677C192.206 204.351 209.345 218.498 226.083 232.564L232.286 237.83C239.385 243.854 246.738 250.082 253.864 256.336L267.66 268.358C272.219 272.216 276.524 276.156 279.372 281.896L278.462 282.884Z" fill="#108E66"/>
<path d="M278.489 283.047C272.246 282.289 267.112 279.527 261.978 276.522L246.109 267.492C237.847 262.862 229.532 258.015 221.497 253.263L214.532 249.202C195.708 238.074 176.684 226.566 158.289 215.452L151.938 211.58L129.906 198.204C116.658 190.19 102.941 181.891 89.5723 173.674L58.4627 154.45L47.9547 147.951L37.5938 141.48L48.2889 147.315L59.198 153.272L91.1231 170.939C104.88 178.561 118.81 186.413 132.286 193.954C139.791 198.177 147.295 202.397 154.799 206.612L161.564 210.443C180.174 220.962 199.425 231.833 218.249 242.717L225.16 246.779C233.182 251.476 241.577 256.336 249.679 261.264L265.334 270.741C270.481 273.746 275.401 276.86 279.184 281.977L278.489 283.047Z" fill="#108E66"/>
<path d="M276.978 283.25C271.283 283.25 266.283 281.558 261.163 279.689L243.984 273.584C235.053 270.47 226.029 267.126 217.313 263.904L209.759 261.102C189.305 253.453 168.583 245.466 148.543 237.749L141.658 235.041L117.594 225.714C103.182 220.15 88.2888 214.382 73.6899 208.615L39.7863 195.199L28.182 190.528L16.9922 186.034L28.4895 189.919L40.3077 193.886L74.7862 205.677C89.599 210.754 104.626 216.02 119.158 221.111C127.313 223.963 135.463 226.81 143.61 229.653L150.789 232.185C170.976 239.292 191.845 246.63 212.286 254.049L219.866 256.837C228.596 260.046 237.62 263.349 246.43 266.774L263.449 273.286C269.037 275.33 274.425 277.537 279.01 281.91L278.556 283.196L276.978 283.25Z" fill="#108E66"/>
<path d="M271.631 284.13C268.039 284.046 264.461 283.652 260.935 282.952L242.968 279.96C233.676 278.457 224.251 276.765 215.133 275.127L207.112 273.692C185.722 269.753 163.997 265.569 143.008 261.508L135.588 260.073L110.187 255.104C95.0801 252.153 79.4384 249.094 64.1042 245.993L28.4091 238.751C24.3984 237.884 20.2941 237.045 16.2433 236.205L4.39844 233.714L16.2968 235.488L28.6898 237.302L64.6657 242.853C80.1604 245.249 95.8956 247.794 111.096 250.258C119.59 251.639 128.079 252.993 136.564 254.319L143.917 255.524C165.067 258.976 186.925 262.55 208.382 266.26L216.323 267.681C225.468 269.292 234.919 270.971 244.184 272.785L262.032 276.237C267.874 277.28 273.556 278.512 278.837 282.004L278.596 283.358C276.311 283.886 273.974 284.145 271.631 284.13Z" fill="#108E66"/>
<path d="M206.632 286.54C184.84 286.431 162.688 286.107 141.257 285.795L133.864 285.687C125.264 285.524 116.672 285.38 108.089 285.254C92.6879 284.996 76.7521 284.739 61.0837 284.374L24.6934 283.521C20.549 283.385 16.4047 283.277 12.2469 283.155L0.214844 282.79L12.2469 282.438L24.6934 282.072L61.0837 281.206C76.7521 280.84 92.6879 280.583 108.089 280.339C116.69 280.204 125.281 280.06 133.864 279.906L141.525 279.798C162.915 279.486 184.934 279.162 206.632 279.053H222.447C228.503 279.053 235.669 279.053 243.008 279.202L261.204 279.419C267.18 279.419 272.955 279.635 278.744 282.126V283.48C272.955 285.985 267.166 286.188 261.244 286.188L243.008 286.391C235.682 286.526 228.517 286.54 222.487 286.54H206.632Z" fill="#108E66"/>
<path d="M4.42578 331.892L16.1771 329.441L28.4364 326.869L64.1716 319.626C79.5459 316.513 95.201 313.453 110.335 310.502C118.775 308.85 127.202 307.199 135.615 305.547L143.035 304.112C164.024 300.051 185.749 295.827 207.139 291.928L215.08 290.506C224.225 288.855 233.663 287.162 242.981 285.66L260.936 282.668C264.461 281.965 268.039 281.566 271.631 281.476C273.988 281.463 276.339 281.727 278.636 282.262L278.877 283.615C273.596 287.095 267.915 288.327 262.072 289.369L244.185 292.808C234.907 294.635 225.468 296.314 216.284 297.939L208.383 299.292C186.885 303.029 164.974 306.603 143.797 310.123L136.565 311.301L111.164 315.362C95.9363 317.839 80.1743 320.385 64.6529 322.794L28.6771 328.345C24.5728 328.941 20.4552 329.55 16.3509 330.173L4.42578 331.892Z" fill="#108E66"/>
<path d="M17.0059 379.451L28.209 374.943C32.086 373.386 35.9497 371.842 39.8133 370.272L73.717 356.869C88.3426 351.089 103.262 345.321 117.688 339.73L141.712 330.497L148.476 327.885C168.53 320.154 189.318 312.153 209.813 304.477L217.34 301.702C226.07 298.467 235.094 295.123 244.078 292.009L261.257 285.903C266.35 284.021 271.377 282.343 277.072 282.343H278.65L279.104 283.629C274.519 287.988 269.131 290.195 263.556 292.253L246.524 298.764C237.714 302.176 228.69 305.533 219.973 308.688L212.38 311.476C191.965 318.895 171.137 326.219 150.99 333.313L143.704 335.872L119.265 344.428C104.733 349.518 89.6929 354.784 74.8801 359.861L40.3882 371.653L28.5032 375.714L17.0059 379.451Z" fill="#108E66"/>
<path d="M37.582 424.126L47.9029 417.682L58.4643 411.076L89.5739 391.96C102.943 383.715 116.633 375.43 129.841 367.416C137.221 362.903 144.596 358.426 151.967 353.986L158.491 350.046C176.833 338.959 195.804 327.492 214.56 316.405L221.552 312.343C229.574 307.632 237.876 302.772 246.124 298.128L262.033 289.058C267.18 286.052 272.314 283.304 278.557 282.546L279.239 283.724C275.456 288.828 270.536 291.955 265.402 294.947L249.747 304.356C241.726 309.27 233.357 314.103 225.336 318.787L218.304 322.849C199.587 333.679 180.376 344.509 161.833 355.001L154.855 358.954C147.314 363.178 139.783 367.416 132.261 371.667C118.812 379.234 104.908 387.059 91.1782 394.681L59.1729 412.389L48.2237 418.373L37.582 424.126Z" fill="#108E66"/>
<path d="M65.5098 464.551L74.4937 456.428C77.6131 453.621 80.7326 450.814 83.852 448.007L111.178 423.639C122.983 413.133 135.055 402.547 146.726 392.312L166.084 375.389L171.726 370.448C187.929 356.274 204.681 341.626 221.285 327.37L227.381 322.172C234.507 316.107 241.873 309.825 249.226 303.787L263.37 292.036C267.929 288.178 272.501 284.55 278.531 282.708L279.4 283.751C276.552 289.45 272.247 293.39 267.702 297.289L253.892 309.297C246.766 315.565 239.413 321.793 232.301 327.817L226.098 333.083C209.346 347.176 192.167 361.351 175.563 375.051L169.814 379.789C163.13 385.259 156.445 390.737 149.761 396.224C137.796 406.067 125.429 416.247 113.197 426.157L84.7744 449.171L74.868 457.051L65.5098 464.551Z" fill="#108E66"/>
<path d="M99.9199 499.411C102.42 496.189 104.92 493.007 107.366 489.866L115.134 479.916L137.861 451.134C147.66 438.761 157.701 426.238 167.406 414.121C172.834 407.361 178.249 400.592 183.65 393.814L188.61 387.668C201.979 370.962 215.949 353.674 229.786 336.82L234.946 330.565C240.909 323.363 247.072 315.903 253.262 308.674L265.12 294.703C268.944 290.1 272.834 285.727 278.489 282.844L279.519 283.724C277.7 289.829 274.171 294.473 270.321 299.062L258.783 313.331C252.821 320.777 246.618 328.223 240.628 335.452L235.495 341.639C221.43 358.426 207.005 375.389 193.062 391.635L188.035 397.524C182.393 404.076 176.76 410.647 171.136 417.235C161.043 429.027 150.615 441.224 140.267 453.138L116.203 480.809L107.981 490.164C105.348 493.237 102.647 496.324 99.9199 499.411Z" fill="#108E66"/>
<path d="M139.801 527.678L145.536 516.847C147.515 513.156 149.48 509.465 151.432 505.773L168.892 473.431C176.432 459.487 184.186 445.353 191.699 431.707L204.172 408.95L207.795 402.357C218.236 383.404 229.025 363.855 239.881 344.699L243.891 337.672C248.53 329.55 253.317 321.075 258.183 312.871L267.541 297.018C270.496 291.806 273.584 286.824 278.624 282.993L279.8 283.683C279.052 290.019 276.325 295.204 273.357 300.416L264.44 316.485C259.854 324.852 255.081 333.259 250.389 341.395L246.378 348.449C235.375 367.524 224.012 386.802 212.956 405.444L209.105 411.942C204.649 419.406 200.228 426.87 195.843 434.334C187.929 447.723 179.801 461.558 171.606 475.11L152.675 506.545C150.496 510.092 148.33 513.666 146.164 517.227L139.801 527.678Z" fill="#108E66"/>
<path d="M183.904 548.513L187.714 536.87C189.025 532.89 190.326 528.91 191.618 524.93L203.263 490.002C208.289 475.002 213.49 459.772 218.517 445.056C221.342 436.816 224.154 428.567 226.952 420.308L229.479 412.93C236.484 392.529 243.73 371.436 251.043 350.764L253.717 343.156C256.885 334.302 260.161 325.137 263.557 316.201L269.974 298.954C272.006 293.295 274.185 287.853 278.503 283.196L279.76 283.67C280.107 290.033 278.316 295.637 276.297 301.269L270.321 318.665C267.246 327.709 263.944 336.847 260.749 345.741L258.022 353.336C250.468 374.022 242.594 394.992 234.974 415.272L232.3 422.285C229.207 430.408 226.128 438.531 223.062 446.653C217.567 461.22 211.886 476.274 206.204 491.058L192.955 525.39L188.343 537.128C186.899 540.905 185.415 544.695 183.904 548.513Z" fill="#108E66"/>
<path d="M230.924 561.266C231.512 557.204 232.1 553.062 232.689 549.081C233.277 545.101 233.892 540.85 234.48 536.721L239.961 500.291C242.341 484.56 244.854 468.571 247.301 453.124C248.656 444.577 249.992 436.03 251.311 427.483L252.528 419.929C255.924 398.553 259.453 376.459 263.116 354.758L264.453 346.797C266.057 337.524 267.715 327.844 269.52 318.516L272.889 300.403C273.918 294.473 275.135 288.719 278.584 283.385L279.921 283.616C281.352 289.829 280.549 295.651 279.52 301.567L276.565 319.762C275.082 329.238 273.397 338.823 271.766 348.11L270.429 356.071C266.552 377.731 262.408 399.69 258.397 420.945L256.967 428.485C255.327 437.086 253.687 445.688 252.047 454.289C249.132 469.559 246.124 485.331 243.076 500.846L235.91 536.979L233.384 549.406C232.622 553.278 231.753 557.258 230.924 561.266Z" fill="#108E66"/>
<path d="M279.412 565.571C279.296 561.428 279.176 557.331 279.051 553.278C278.926 549.226 278.806 545.043 278.69 540.729L277.848 503.878C277.487 487.985 277.233 471.834 276.992 456.197C276.85 447.533 276.707 438.864 276.565 430.191L276.458 422.583C276.137 400.922 275.816 378.517 275.709 356.49V348.368C275.709 338.972 275.709 329.265 275.843 319.708L276.057 301.282C276.057 295.272 276.257 289.396 278.73 283.521H280.067C282.554 289.396 282.741 295.272 282.741 301.269L282.955 319.708C283.115 329.252 283.102 338.959 283.089 348.34V356.436C282.982 378.462 282.661 400.868 282.34 422.529L282.233 430.137C282.09 438.801 281.948 447.47 281.805 456.143C281.565 471.78 281.311 487.93 280.95 503.824L280.107 540.674C279.974 544.862 279.853 549.045 279.746 553.224C279.639 557.403 279.528 561.518 279.412 565.571Z" fill="#108E66"/>
<path d="M327.901 561.266C327.072 557.204 326.27 553.278 325.468 549.366L322.941 536.938L315.775 500.805C312.727 485.291 309.719 469.519 306.804 454.248C305.173 445.647 303.533 437.046 301.885 428.445L300.454 420.904C296.443 399.649 292.286 377.677 288.422 356.03L287.085 348.07C285.454 338.783 283.77 329.198 282.286 319.721L279.331 301.54C278.302 295.61 277.5 289.789 278.93 283.575L280.267 283.345C283.716 288.679 284.933 294.432 285.962 300.348L289.251 318.53C291.056 327.939 292.714 337.551 294.318 346.824L295.655 354.798C299.318 376.459 302.847 398.58 306.243 419.956L307.46 427.511C308.788 436.049 310.124 444.596 311.47 453.152C313.917 468.598 316.43 484.587 318.81 500.318L324.291 536.762C324.879 540.878 325.476 544.993 326.082 549.109C326.724 553.062 327.312 557.15 327.901 561.266Z" fill="#108E66"/>
<path d="M374.92 548.513C373.41 544.695 371.926 540.904 370.468 537.168L365.856 525.417L352.608 491.098C346.926 476.315 341.244 461.315 335.749 446.694C332.674 438.571 329.595 430.448 326.511 422.325L323.838 415.313C316.217 395.006 308.343 374.062 300.789 353.376L298.129 345.687C294.934 336.847 291.632 327.708 288.557 318.611L282.541 301.228C280.509 295.583 278.717 289.978 279.065 283.629L280.322 283.155C284.64 287.812 286.819 293.254 288.851 298.9L295.268 316.147C298.664 325.096 301.953 334.261 305.108 343.115L307.781 350.723C315.094 371.396 322.34 392.488 329.346 412.889L331.872 420.268C334.662 428.508 337.474 436.748 340.308 444.988C345.335 459.717 350.535 474.947 355.562 489.961L367.206 524.889C368.499 528.869 369.8 532.849 371.11 536.83L374.92 548.513Z" fill="#108E66"/>
<path d="M419.024 527.678L412.607 517.132L406.15 506.532L387.22 475.056C379.078 461.518 370.896 447.669 362.982 434.279C358.525 426.807 354.105 419.343 349.72 411.888L345.95 405.484C334.96 386.842 323.597 367.578 312.594 348.489L308.49 341.314C303.864 333.191 299.131 324.839 294.519 316.526L285.602 300.457C282.634 295.245 279.907 290.06 279.158 283.724L280.335 283.033C285.375 286.865 288.463 291.847 291.418 297.045L300.776 312.912C305.642 321.116 310.428 329.55 315.067 337.713L319.078 344.753C329.867 363.896 340.655 383.472 351.083 402.398L354.72 409.004L367.193 431.734C374.706 445.394 382.46 459.528 390 473.472L407.46 505.814C409.439 509.542 411.422 513.264 413.409 516.983C415.214 520.503 417.112 524.077 419.024 527.678Z" fill="#108E66"/>
<path d="M458.905 499.411L450.749 490.137C448.076 487.042 445.357 483.946 442.594 480.85L418.53 453.179C408.183 441.265 397.755 429.067 387.661 417.276C382.029 410.696 376.396 404.126 370.763 397.565L365.763 391.635C351.819 375.281 337.394 358.386 323.357 341.612L318.183 335.479C312.194 328.264 305.99 320.804 300.041 313.358L288.504 299.103C284.68 294.5 281.111 289.856 279.279 283.751L280.322 282.871C285.937 285.754 289.827 290.127 293.691 294.717L305.563 308.701C311.752 315.931 317.916 323.39 323.878 330.592L329.039 336.847C342.875 353.702 356.779 370.99 370.228 387.695L375.175 393.842C380.576 400.611 385.99 407.38 391.418 414.149C401.124 426.265 411.164 438.788 420.963 451.161L443.691 479.943L451.445 489.894C453.905 493.007 456.405 496.189 458.905 499.411Z" fill="#108E66"/>
<path d="M493.316 464.55L483.958 457.05L474.078 449.144L445.656 426.13C433.423 416.22 421.057 406.039 409.092 396.197C402.416 390.71 395.732 385.231 389.038 379.762L383.303 375.024C366.686 361.323 349.506 347.149 332.742 333.056L326.552 327.79C319.44 321.765 312.087 315.538 304.961 309.27L291.164 297.262C286.606 293.403 282.301 289.464 279.453 283.724L280.322 282.681C286.351 284.522 290.924 288.096 295.469 292.009L309.547 303.692C316.913 309.73 324.253 316.012 331.405 322.077L337.501 327.275C354.105 341.531 370.924 356.179 387.06 370.367L392.702 375.294L412.087 392.325C423.758 402.573 435.83 413.16 447.635 423.666L474.961 448.034C478.062 450.85 481.182 453.657 484.319 456.455L493.316 464.55Z" fill="#108E66"/>
<path d="M521.243 424.126L510.548 418.318L499.585 412.334L467.66 394.654C453.93 387.046 440.026 379.221 426.577 371.639C419.055 367.406 411.524 363.174 403.984 358.941L397.152 355.082C378.583 344.59 359.371 333.733 340.588 322.876L333.556 318.814C325.535 314.13 317.232 309.338 309.158 304.383L293.503 294.987C288.356 291.982 283.436 288.855 279.652 283.751L280.321 282.573C286.577 283.331 291.711 286.079 296.845 289.085L312.714 298.115C320.976 302.758 329.265 307.591 337.299 312.329L344.291 316.391C363.008 327.478 382.018 338.945 400.361 350.033L406.885 353.972C414.247 358.485 421.622 362.961 429.01 367.402C442.219 375.416 455.882 383.647 469.278 391.946L500.36 411.116L510.922 417.723L521.243 424.126Z" fill="#108E66"/>
<path d="M541.818 379.451L530.414 375.633L518.515 371.572L484.037 359.78C469.224 354.703 454.184 349.437 439.652 344.347L415.213 335.791L407.927 333.422C387.78 326.328 366.951 319.004 346.537 311.585L338.943 308.796C330.227 305.601 321.203 302.284 312.393 298.873L295.374 292.361C289.786 290.303 284.398 288.097 279.812 283.737L280.267 282.451H281.845C287.54 282.451 292.54 284.13 297.66 286.012L314.839 292.104C323.783 295.231 332.807 298.575 341.577 301.81L349.104 304.586C369.558 312.153 390.374 320.154 410.427 327.885L417.192 330.497L441.176 339.784C455.601 345.376 470.521 351.143 485.146 356.924L519.05 370.326C522.914 371.897 526.777 373.44 530.654 374.997L541.818 379.451Z" fill="#108E66"/>
<path d="M554.398 331.892L542.459 330.132C538.355 329.509 534.237 328.9 530.133 328.304L494.157 322.754C478.636 320.344 462.874 317.799 447.646 315.321L422.245 311.26L415.013 310.082C393.836 306.617 371.925 303.043 350.427 299.252L342.526 297.898C333.369 296.274 323.903 294.595 314.625 292.767L296.791 289.342C290.949 288.3 285.267 287.068 279.986 283.588L280.227 282.235C282.524 281.7 284.875 281.436 287.232 281.449C290.824 281.538 294.402 281.936 297.927 282.641L315.895 285.633C325.254 287.135 334.679 288.841 343.823 290.479L351.738 291.901C373.128 295.84 394.919 300.024 415.909 304.085L423.221 305.439C431.644 307.099 440.071 308.751 448.502 310.394C463.636 313.345 479.251 316.404 494.665 319.518L530.36 326.761L542.62 329.333L554.398 331.892Z" fill="#108E66"/>
<path d="M336.337 286.553C330.307 286.553 323.142 286.553 315.815 286.404L297.62 286.201C291.658 286.201 285.869 285.985 280.08 283.494V282.14C285.869 279.635 291.644 279.432 297.553 279.432L315.815 279.216C323.155 279.094 330.321 279.067 336.377 279.067H352.192C373.89 279.175 395.962 279.5 417.299 279.811L424.959 279.92C433.551 280.082 442.143 280.226 450.735 280.353C466.136 280.596 482.072 280.854 497.74 281.219L534.13 282.086L546.577 282.451L558.609 282.803L546.577 283.169C542.419 283.29 538.275 283.399 534.13 283.534L497.74 284.387C482.072 284.753 466.136 285.01 450.735 285.267C442.143 285.402 433.551 285.547 424.959 285.7L417.566 285.809C396.176 286.12 373.984 286.445 352.192 286.553H336.337Z" fill="#108E66"/>
<path d="M287.193 284.13C284.836 284.143 282.485 283.88 280.188 283.345L279.947 281.991C285.228 278.498 290.91 277.266 296.752 276.224L314.64 272.812C323.904 270.998 333.356 269.319 342.501 267.708L350.442 266.287C371.899 262.577 393.757 259.003 414.907 255.551L422.26 254.346C430.745 252.993 439.212 251.639 447.661 250.285C462.861 247.821 478.597 245.276 494.091 242.88L530.067 237.329L542.433 235.501L554.332 233.728L542.487 236.219C538.476 237.058 534.372 237.898 530.321 238.764L494.653 245.966C479.305 249.067 463.677 252.126 448.57 255.077L423.169 260.046L415.856 261.4C394.827 265.461 373.075 269.698 351.685 273.584L343.664 275.005C334.546 276.657 325.108 278.349 315.803 279.852L297.848 282.83C294.34 283.574 290.775 284.009 287.193 284.13Z" fill="#108E66"/>
<path d="M281.845 283.25H280.267L279.812 281.964C284.398 277.591 289.786 275.384 295.361 273.34L312.393 266.828C321.203 263.403 330.227 260.059 338.957 256.892L346.537 254.103C366.978 246.684 387.847 239.346 408.034 232.239L415.213 229.707C423.368 226.882 431.519 224.035 439.665 221.165C454.197 216.075 469.224 210.808 484.037 205.732L518.529 193.926L530.333 189.973L541.804 186.129L530.614 190.623L519.01 195.294L485.106 208.71C470.494 214.477 455.614 220.244 441.203 225.808L417.138 235.136L410.253 237.844C390.2 245.56 369.491 253.548 349.037 261.197L341.484 263.999C332.767 267.221 323.743 270.565 314.812 273.679L297.633 279.784C292.566 281.558 287.54 283.25 281.845 283.25Z" fill="#108E66"/>
<path d="M279.652 281.869C283.436 276.752 288.356 273.638 293.489 270.633L309.144 261.237C317.259 256.296 325.601 251.436 333.676 246.738L340.588 242.677C359.438 231.779 378.716 220.881 397.366 210.348L404.051 206.571C411.564 202.365 419.068 198.146 426.564 193.913C440.04 186.318 453.97 178.466 467.727 170.898L499.665 153.218C503.302 151.241 506.934 149.26 510.561 147.275L521.256 141.44L510.868 147.951L500.36 154.517L469.251 173.674C455.882 181.945 442.139 190.244 428.89 198.272L406.885 211.58L400.534 215.425C382.139 226.539 363.101 238.047 344.291 249.175L337.326 253.236C329.305 257.961 320.976 262.835 312.727 267.465L296.858 276.562C291.711 279.568 286.577 282.329 280.321 283.087L279.652 281.869Z" fill="#108E66"/>
<path d="M279.492 281.842C282.34 276.143 286.645 272.203 291.19 268.304L305 256.296C312.126 250.028 319.479 243.8 326.591 237.762L332.794 232.51C349.519 218.444 366.658 204.297 383.249 190.542L389.037 185.858L409.091 169.382C421.043 159.554 433.409 149.386 445.628 139.477L474.051 116.462L483.877 108.61C486.965 106.119 490.12 103.601 493.235 101.069L484.211 109.192L474.92 117.586L447.594 141.954C435.802 152.433 423.743 163.019 412.099 173.24C405.611 178.926 399.131 184.621 392.66 190.325L387.032 195.24C370.829 209.427 354.078 224.089 337.46 238.345L331.297 243.597C324.198 249.649 316.845 255.903 309.519 261.928L295.441 273.611C290.896 277.469 286.31 281.084 280.281 282.939L279.492 281.842Z" fill="#108E66"/>
<path d="M279.318 281.842C281.15 275.736 284.666 271.093 288.53 266.49L300.067 252.194C306.03 244.748 312.233 237.302 318.222 230.073L323.356 223.886C337.393 207.126 351.818 190.217 365.762 173.877L370.789 167.988C376.43 161.417 382.063 154.842 387.687 148.263C397.781 136.471 408.208 124.287 418.556 112.374L442.62 84.6885C445.356 81.5928 448.088 78.4836 450.815 75.3608L458.93 66.1415L451.497 75.6181L443.69 85.6768L420.962 114.445C411.176 126.832 401.136 139.341 391.43 151.444C386.003 158.195 380.584 164.964 375.174 171.751L370.254 177.857C356.805 194.59 342.888 211.878 329.038 228.76L323.877 235.001C317.915 242.216 311.751 249.676 305.562 256.891L293.703 270.876C289.88 275.479 285.989 279.852 280.334 282.722L279.318 281.842Z" fill="#108E66"/>
<path d="M279.158 281.869C279.907 275.533 282.634 270.335 285.602 265.136L294.519 249.067C299.078 240.727 303.877 232.347 308.516 224.238L312.594 217.09C323.57 198.137 334.92 178.818 345.883 160.23L349.72 153.719C354.176 146.264 358.592 138.804 362.968 131.34C370.896 117.951 379.078 104.102 387.22 90.5504L406.15 59.0476C408.316 55.5142 410.481 51.9537 412.634 48.4067C414.786 44.8598 416.872 41.4347 419.024 37.9148L413.329 48.6233C411.35 52.3327 409.318 56.0557 407.393 59.7786L389.933 92.1208C382.393 106.065 374.626 120.199 367.126 133.872C362.955 141.444 358.797 149.016 354.653 156.589L351.03 163.168C340.589 182.121 329.8 201.697 318.944 220.84L314.934 227.893C310.295 236.016 305.508 244.477 300.642 252.681L291.284 268.534C288.329 273.733 285.241 278.728 280.201 282.546L279.158 281.869Z" fill="#108E66"/>
<path d="M279.012 281.977C278.665 275.601 280.456 270.01 282.475 264.378L288.504 246.995C291.579 237.952 294.881 228.827 298.063 220.001L300.804 212.257C308.344 191.584 316.218 170.628 323.838 150.361L326.512 143.308C329.605 135.185 332.68 127.062 335.737 118.94C341.245 104.373 346.927 89.3185 352.608 74.535L365.857 40.2027C367.408 36.2903 368.932 32.3642 370.469 28.4518C372.007 24.5393 373.41 20.9247 374.921 17.1205L371.098 28.7767L367.207 40.7036L355.616 75.5775C350.603 90.5775 345.402 105.808 340.376 120.524C337.55 128.773 334.734 137.026 331.927 145.284L329.427 152.581C322.408 173.01 315.162 194.13 307.836 214.856L305.162 222.437C301.993 231.305 298.705 240.47 295.309 249.432L288.772 266.639C286.739 272.284 284.56 277.74 280.242 282.397L279.012 281.977Z" fill="#108E66"/>
<path d="M278.864 281.977C277.433 275.763 278.235 269.942 279.265 264.026L282.219 245.844C283.703 236.368 285.388 226.769 287.019 217.496L288.356 209.536C292.233 187.875 296.377 165.943 300.388 144.716L301.832 137.107C303.48 128.524 305.12 119.95 306.751 111.385C309.666 96.1145 312.66 80.3292 315.722 64.8282L322.888 28.6819L325.414 16.2676C326.217 12.3415 327.019 8.36138 327.848 4.36768C327.259 8.42907 326.671 12.5717 326.083 16.5518C325.495 20.532 324.88 24.7829 324.291 28.8985L318.864 65.3698C316.497 81.1009 313.971 97.0757 311.524 112.523C310.178 121.079 308.841 129.63 307.513 138.177L306.297 145.772C302.888 167.135 299.372 189.215 295.709 210.889L294.372 218.85C292.767 228.137 291.11 237.803 289.305 247.144L285.936 265.258C284.907 271.174 283.69 276.928 280.241 282.275L278.864 281.977Z" fill="#108E66"/>
</g>
<path d="M100.827 52.2379L108.367 58.0863L117.418 55.1079C117.625 55.0393 117.847 55.0308 118.058 55.0835C118.27 55.1361 118.462 55.2478 118.614 55.4057C118.766 55.5637 118.871 55.7616 118.917 55.977C118.963 56.1924 118.949 56.4167 118.876 56.6242L115.707 65.6946L121.309 73.4925C121.436 73.6707 121.512 73.8814 121.527 74.1009C121.542 74.3203 121.496 74.5397 121.395 74.7342C121.293 74.9286 121.14 75.0904 120.952 75.2011C120.764 75.3119 120.55 75.3672 120.333 75.3607L110.827 75.1171L105.239 82.9691C105.111 83.1476 104.936 83.2862 104.734 83.3689C104.532 83.4517 104.312 83.4754 104.097 83.4373C103.882 83.3992 103.683 83.3009 103.521 83.1535C103.359 83.0061 103.241 82.8155 103.18 82.6036L100.507 73.3842L91.4558 70.4059C91.2502 70.3381 91.0673 70.2138 90.9276 70.0466C90.7879 69.8795 90.697 69.6763 90.6651 69.4598C90.6332 69.2432 90.6615 69.022 90.7468 68.8208C90.8322 68.6197 90.9712 68.4466 91.1483 68.321L98.9825 62.9058V53.1855C98.9837 52.9691 99.0438 52.7571 99.1561 52.573C99.2685 52.3888 99.4288 52.2396 99.6194 52.1417C99.8101 52.0438 100.024 52.0009 100.237 52.0179C100.45 52.0349 100.654 52.111 100.827 52.2379Z" fill="#E0E0E0"/>
<path d="M457.846 328.548L457.365 338.16L464.905 344.022C465.077 344.155 465.209 344.335 465.286 344.54C465.363 344.745 465.381 344.968 465.339 345.184C465.298 345.399 465.197 345.598 465.05 345.759C464.902 345.92 464.713 346.035 464.504 346.093L455.306 348.598L452.138 357.668C452.066 357.876 451.939 358.059 451.77 358.198C451.601 358.336 451.397 358.423 451.181 358.45C450.965 358.477 450.746 358.442 450.549 358.349C450.352 358.256 450.185 358.11 450.066 357.925L444.879 349.803L435.373 349.545C435.156 349.543 434.944 349.477 434.762 349.358C434.58 349.238 434.435 349.068 434.344 348.869C434.253 348.669 434.22 348.447 434.248 348.229C434.277 348.011 434.365 347.806 434.504 347.637L440.48 340.15L437.806 330.917C437.744 330.706 437.741 330.481 437.799 330.268C437.856 330.055 437.972 329.863 438.132 329.713C438.293 329.564 438.491 329.463 438.705 329.422C438.919 329.381 439.141 329.402 439.344 329.482L448.221 332.934L456.055 327.519C456.233 327.403 456.44 327.338 456.652 327.332C456.864 327.327 457.073 327.379 457.258 327.485C457.442 327.591 457.595 327.746 457.698 327.934C457.802 328.121 457.853 328.333 457.846 328.548Z" fill="#E0E0E0"/>
<path d="M464.972 90.3609L464.49 99.9728L472.031 105.835C472.203 105.968 472.334 106.148 472.411 106.353C472.488 106.558 472.506 106.781 472.465 106.996C472.423 107.212 472.323 107.411 472.175 107.572C472.028 107.733 471.839 107.848 471.629 107.906L462.445 110.411L459.263 119.481C459.192 119.689 459.064 119.872 458.895 120.011C458.726 120.149 458.522 120.236 458.306 120.263C458.09 120.29 457.872 120.255 457.675 120.162C457.477 120.069 457.31 119.923 457.191 119.738L452.004 111.615L442.512 111.399C442.295 111.396 442.083 111.331 441.901 111.211C441.718 111.091 441.573 110.922 441.483 110.722C441.392 110.522 441.358 110.301 441.387 110.083C441.415 109.865 441.504 109.659 441.643 109.49L447.619 102.004L444.945 92.7706C444.882 92.5592 444.88 92.3342 444.937 92.1213C444.995 91.9084 445.111 91.7162 445.271 91.5666C445.431 91.417 445.63 91.316 445.844 91.2752C446.058 91.2343 446.279 91.2553 446.482 91.3356L455.359 94.7878L463.194 89.3726C463.369 89.262 463.57 89.2007 463.777 89.1949C463.983 89.1891 464.187 89.2391 464.368 89.3398C464.549 89.4404 464.701 89.588 464.807 89.7675C464.913 89.9469 464.97 90.1517 464.972 90.3609Z" fill="#E0E0E0"/>
<path d="M24.5991 440.06L33.6632 442.984L41.1766 437.068C41.3479 436.935 41.5525 436.853 41.7674 436.831C41.9823 436.808 42.199 436.847 42.3934 436.943C42.5877 437.038 42.7519 437.187 42.8675 437.372C42.9832 437.556 43.0458 437.77 43.0482 437.989V447.628L50.9225 453.043C51.1002 453.167 51.2404 453.338 51.3276 453.537C51.4149 453.737 51.4456 453.957 51.4165 454.173C51.3874 454.389 51.2995 454.593 51.1628 454.762C51.026 454.93 50.8456 455.057 50.6418 455.128L41.6178 458.174L38.944 467.42C38.8836 467.632 38.7657 467.823 38.6036 467.97C38.4415 468.118 38.2418 468.216 38.0273 468.254C37.8127 468.292 37.5919 468.269 37.3899 468.186C37.188 468.103 37.0131 467.964 36.8851 467.786L31.2434 460.042L21.7381 460.354C21.521 460.36 21.3064 460.305 21.1186 460.194C20.9309 460.083 20.7776 459.921 20.676 459.727C20.5744 459.533 20.5286 459.313 20.5439 459.094C20.5591 458.874 20.6347 458.664 20.7622 458.485L26.2969 450.66L23.0616 441.604C22.9764 441.386 22.9561 441.149 23.0032 440.92C23.0503 440.691 23.1628 440.482 23.3266 440.317C23.4905 440.153 23.6984 440.041 23.9247 439.995C24.1509 439.949 24.3854 439.972 24.5991 440.06Z" fill="#E0E0E0"/>
<path d="M521.696 546.089L530.774 549L538.274 543.084C538.445 542.951 538.649 542.868 538.864 542.846C539.079 542.824 539.296 542.863 539.49 542.958C539.685 543.054 539.849 543.203 539.965 543.387C540.08 543.572 540.143 543.786 540.145 544.004L540.212 553.644L548.086 559.059C548.269 559.179 548.413 559.349 548.504 559.55C548.594 559.75 548.627 559.973 548.597 560.191C548.568 560.409 548.478 560.615 548.338 560.783C548.198 560.952 548.013 561.077 547.806 561.144L538.768 564.176L536.094 573.423C536.036 573.635 535.919 573.827 535.758 573.976C535.596 574.125 535.397 574.225 535.182 574.265C534.967 574.304 534.746 574.282 534.543 574.2C534.34 574.118 534.165 573.98 534.036 573.802L528.394 566.044L518.889 566.356C518.674 566.36 518.462 566.304 518.276 566.194C518.091 566.084 517.939 565.924 517.838 565.732C517.737 565.54 517.69 565.323 517.703 565.106C517.717 564.888 517.789 564.679 517.913 564.501L523.447 556.662L520.212 547.606C520.135 547.395 520.12 547.167 520.167 546.948C520.214 546.729 520.321 546.528 520.477 546.369C520.633 546.21 520.83 546.099 521.046 546.049C521.262 546 521.488 546.014 521.696 546.089Z" fill="#E0E0E0"/>
<path d="M286.923 546.929L286.429 556.541L293.969 562.403C294.141 562.536 294.273 562.716 294.349 562.921C294.426 563.126 294.445 563.349 294.403 563.564C294.361 563.78 294.261 563.979 294.113 564.14C293.966 564.3 293.777 564.416 293.568 564.474L284.383 566.978L281.202 576.049C281.13 576.257 281.003 576.44 280.833 576.578C280.664 576.717 280.46 576.804 280.245 576.831C280.029 576.858 279.81 576.823 279.613 576.73C279.416 576.637 279.248 576.49 279.129 576.306L273.956 568.183L264.45 567.926C264.234 567.921 264.024 567.854 263.843 567.734C263.662 567.615 263.518 567.446 263.426 567.248C263.334 567.05 263.299 566.83 263.324 566.612C263.349 566.395 263.434 566.189 263.568 566.017L269.557 558.531L266.883 549.298C266.822 549.088 266.82 548.865 266.878 548.654C266.935 548.443 267.049 548.252 267.207 548.103C267.365 547.954 267.562 547.853 267.774 547.81C267.986 547.768 268.205 547.786 268.407 547.863L277.284 551.315L285.132 545.9C285.31 545.784 285.517 545.719 285.729 545.713C285.941 545.707 286.15 545.76 286.335 545.866C286.519 545.972 286.672 546.127 286.775 546.314C286.879 546.502 286.93 546.714 286.923 546.929Z" fill="#E0E0E0"/>
<path d="M44.9187 262.862C44.9187 263.446 44.7474 264.017 44.4266 264.503C44.1058 264.988 43.6498 265.367 43.1165 265.59C42.5831 265.813 41.9965 265.87 41.4308 265.755C40.8651 265.64 40.3458 265.358 39.9387 264.944C39.5317 264.53 39.2552 264.003 39.1442 263.429C39.0333 262.856 39.0929 262.262 39.3155 261.723C39.5382 261.184 39.9138 260.724 40.3948 260.401C40.8759 260.079 41.4407 259.908 42.0176 259.91C42.3997 259.91 42.7781 259.987 43.1309 260.135C43.4838 260.284 43.8042 260.501 44.0738 260.776C44.3433 261.05 44.5567 261.375 44.7017 261.733C44.8467 262.091 44.9205 262.475 44.9187 262.862Z" fill="#E0E0E0"/>
<path d="M5.97528 167.432C7.5775 167.432 8.87634 166.117 8.87634 164.495C8.87634 162.872 7.5775 161.557 5.97528 161.557C4.37307 161.557 3.07422 162.872 3.07422 164.495C3.07422 166.117 4.37307 167.432 5.97528 167.432Z" fill="#E0E0E0"/>
<path d="M190.72 415.855C190.72 416.436 190.55 417.003 190.231 417.487C189.912 417.97 189.459 418.346 188.929 418.569C188.399 418.791 187.816 418.849 187.253 418.736C186.69 418.622 186.173 418.343 185.768 417.932C185.362 417.521 185.086 416.997 184.974 416.428C184.862 415.858 184.919 415.267 185.139 414.73C185.358 414.193 185.73 413.735 186.207 413.412C186.684 413.089 187.245 412.917 187.819 412.917C188.2 412.917 188.577 412.993 188.929 413.14C189.281 413.288 189.601 413.504 189.87 413.777C190.14 414.05 190.353 414.374 190.499 414.73C190.645 415.087 190.72 415.469 190.72 415.855Z" fill="#E0E0E0"/>
<path d="M389.304 518.432C389.304 519.013 389.134 519.581 388.815 520.064C388.496 520.547 388.043 520.923 387.513 521.146C386.983 521.368 386.4 521.426 385.837 521.313C385.274 521.199 384.757 520.92 384.352 520.509C383.946 520.098 383.67 519.575 383.558 519.005C383.446 518.435 383.503 517.844 383.723 517.307C383.942 516.771 384.314 516.312 384.791 515.989C385.268 515.666 385.829 515.494 386.403 515.494C386.784 515.494 387.161 515.57 387.513 515.717C387.865 515.865 388.185 516.081 388.454 516.354C388.724 516.627 388.937 516.951 389.083 517.307C389.229 517.664 389.304 518.046 389.304 518.432Z" fill="#E0E0E0"/>
<path d="M561.296 256.336C562.898 256.336 564.197 255.021 564.197 253.399C564.197 251.776 562.898 250.461 561.296 250.461C559.693 250.461 558.395 251.776 558.395 253.399C558.395 255.021 559.693 256.336 561.296 256.336Z" fill="#E0E0E0"/>
<path d="M538.581 124.544C540.183 124.544 541.482 123.229 541.482 121.606C541.482 119.984 540.183 118.669 538.581 118.669C536.979 118.669 535.68 119.984 535.68 121.606C535.68 123.229 536.979 124.544 538.581 124.544Z" fill="#E0E0E0"/>
<path d="M341.63 70.2434C341.63 70.8271 341.459 71.3977 341.138 71.883C340.818 72.3684 340.363 72.7466 339.831 72.97C339.298 73.1934 338.712 73.2518 338.147 73.138C337.581 73.0241 337.062 72.743 336.654 72.3303C336.247 71.9175 335.969 71.3917 335.857 70.8192C335.744 70.2467 335.802 69.6533 336.023 69.114C336.243 68.5747 336.617 68.1138 337.096 67.7895C337.575 67.4652 338.139 67.2921 338.715 67.2921C339.098 67.2921 339.477 67.3685 339.831 67.5168C340.184 67.6651 340.505 67.8825 340.776 68.1565C341.047 68.4306 341.261 68.7559 341.408 69.114C341.554 69.4721 341.63 69.8558 341.63 70.2434Z" fill="#E0E0E0"/>
<path d="M185.909 73.7226C187.511 73.7226 188.81 72.4074 188.81 70.7849C188.81 69.1624 187.511 67.8472 185.909 67.8472C184.307 67.8472 183.008 69.1624 183.008 70.7849C183.008 72.4074 184.307 73.7226 185.909 73.7226Z" fill="#E0E0E0"/>
<path d="M433.048 249.486L476.631 209.698L482.433 203.823L525.481 156.074L526.176 155.302C527.794 153.678 530.454 153.123 533.81 154.03C540.494 155.858 547.419 162.857 549.211 169.653C550.12 173.064 549.572 175.758 547.954 177.396L500 221.639L494.224 227.487L454.545 271.783C452.927 273.354 450.267 273.895 446.965 272.988C440.28 271.16 433.369 264.175 431.551 257.365C430.668 253.967 431.216 251.26 432.887 249.635L433.115 249.405L433.048 249.486Z" fill="#108E66"/>
<path opacity="0.4" d="M433.048 249.486L476.631 209.698L482.433 203.823L525.481 156.074L526.176 155.302C527.794 153.678 530.454 153.123 533.81 154.03C540.494 155.858 547.419 162.857 549.211 169.653C550.12 173.064 549.572 175.758 547.954 177.396L500 221.639L494.224 227.487L454.545 271.783C452.927 273.354 450.267 273.895 446.965 272.988C440.28 271.16 433.369 264.175 431.551 257.365C430.668 253.967 431.216 251.26 432.887 249.635L433.115 249.405L433.048 249.486Z" fill="white"/>
<path opacity="0.3" d="M527.728 154.233C527.151 154.492 526.626 154.854 526.177 155.302L525.482 156.074L482.434 203.809L476.632 209.684L433.049 249.486L432.821 249.716C431.204 251.341 430.656 254.048 431.485 257.446C433.116 262.563 436.374 266.99 440.749 270.037L532.18 177.613C532.18 177.613 522.968 165.023 527.728 154.233Z" fill="#108E66"/>
<path d="M533.81 154.03C530.454 153.123 527.781 153.678 526.176 155.302C524.572 156.927 524.011 159.635 524.906 163.046C526.698 169.815 533.596 176.841 540.307 178.669C543.676 179.576 546.35 179.021 547.954 177.396C549.559 175.772 550.12 173.051 549.224 169.653C547.42 162.843 540.535 155.858 533.81 154.03Z" fill="#108E66"/>
<path d="M432.313 250.19L433.035 249.459L476.618 209.671L482.42 203.795L525.481 156.074C519.104 163.886 527.5 176.002 527.5 176.002L433.637 270.903C433.637 270.903 424.653 257.934 432.313 250.19Z" fill="#108E66"/>
<path opacity="0.6" d="M432.313 250.19L433.035 249.459L476.618 209.671L482.42 203.795L525.481 156.074C519.104 163.886 527.5 176.002 527.5 176.002L433.637 270.903C433.637 270.903 424.653 257.934 432.313 250.19Z" fill="white"/>
<path opacity="0.25" d="M533.81 154.03C530.454 153.123 527.781 153.678 526.176 155.302C524.572 156.927 524.011 159.635 524.906 163.046C526.698 169.815 533.596 176.841 540.307 178.669C543.676 179.576 546.35 179.021 547.954 177.396C549.559 175.772 550.12 173.051 549.224 169.653C547.42 162.843 540.535 155.858 533.81 154.03Z" fill="white"/>
<path opacity="0.5" d="M539.559 169.246C546.885 170.763 544.906 161.543 537.62 155.6C536.412 154.938 535.134 154.416 533.81 154.043C530.454 153.136 527.781 153.691 526.176 155.316C524.572 156.94 524.011 159.648 524.906 163.06C526.458 167.96 529.517 172.23 533.636 175.244L539.559 169.246Z" fill="#108E66"/>
<path d="M543.302 168.651L535.522 176.53C534.861 176.127 534.231 175.674 533.637 175.176L539.559 169.192C540.185 169.378 540.843 169.425 541.489 169.332C542.134 169.238 542.753 169.006 543.302 168.651Z" fill="#108E66"/>
<path opacity="0.1" d="M543.302 168.651L535.522 176.53C534.861 176.127 534.231 175.674 533.637 175.176L539.559 169.192C540.185 169.378 540.843 169.425 541.489 169.332C542.134 169.238 542.753 169.006 543.302 168.651Z" fill="#272B2A"/>
<path d="M494.799 226.932C504.277 231.169 511.457 239.279 517.259 249.716C517.675 246.597 517.53 243.428 516.831 240.362C519.339 240.854 521.771 241.682 524.064 242.826C518.034 233.159 510.775 225.307 501.697 220.136L499.999 221.639L494.799 226.932Z" fill="#108E66"/>
<path opacity="0.2" d="M498.945 229.179L500.442 226.133L505.174 222.356C504.038 221.598 502.888 220.867 501.699 220.19L500.001 221.638L494.773 226.932C496.211 227.587 497.604 228.338 498.945 229.179Z" fill="#272B2A"/>
<path d="M476.631 209.684C475.361 211.038 474.933 213.177 475.642 215.898C476.594 218.841 478.216 221.516 480.379 223.705C482.541 225.895 485.182 227.538 488.088 228.502C490.762 229.233 492.874 228.814 494.184 227.555L494.251 227.487L500.027 221.638C498.69 222.992 496.564 223.398 493.864 222.667C490.956 221.703 488.313 220.058 486.151 217.866C483.988 215.673 482.366 212.996 481.417 210.05C480.695 207.342 481.136 205.122 482.446 203.809L476.671 209.644L476.631 209.684Z" fill="#108E66"/>
<path opacity="0.15" d="M484.892 216.467C483.725 215.065 482.761 213.502 482.031 211.823L476.256 217.658C476.986 219.337 477.949 220.9 479.117 222.302L484.892 216.467ZM475.641 215.898L481.416 210.064C481.19 209.212 481.077 208.333 481.082 207.451L475.307 213.286C475.303 214.168 475.415 215.046 475.641 215.898Z" fill="white"/>
<path opacity="0.1" d="M484.186 226.756C485.398 227.524 486.712 228.112 488.089 228.502C490.763 229.233 492.875 228.814 494.186 227.555L494.252 227.487L500.028 221.639C498.691 222.992 496.565 223.398 493.865 222.667C492.488 222.277 491.173 221.689 489.961 220.921L484.186 226.756Z" fill="#272B2A"/>
<path d="M21.7256 289.965L76.0169 320.912L83.811 324.825L145.816 352.537L146.819 352.997C148.985 354.094 150.429 356.626 150.669 360.349C151.124 367.808 146.511 377.203 140.348 381.332C137.273 383.404 134.399 383.756 132.247 382.686L72.0865 348.841L64.3191 344.929L6.83257 319.505H6.75236C4.64006 318.381 3.20958 315.863 2.98231 312.18C2.54114 304.721 7.15343 295.339 13.3031 291.197C16.378 289.139 19.2523 288.787 21.4181 289.843L21.7256 289.992V289.965Z" fill="#108E66"/>
<path opacity="0.4" d="M21.7256 289.965L76.0169 320.912L83.811 324.825L145.816 352.537L146.819 352.997C148.985 354.094 150.429 356.626 150.669 360.349C151.124 367.808 146.511 377.203 140.348 381.332C137.273 383.404 134.399 383.756 132.247 382.686L72.0865 348.841L64.3191 344.929L6.83257 319.505H6.75236C4.64006 318.381 3.20958 315.863 2.98231 312.18C2.54114 304.721 7.15343 295.339 13.3031 291.197C16.378 289.139 19.2523 288.787 21.4181 289.843L21.7256 289.992V289.965Z" fill="white"/>
<path opacity="0.3" d="M148.397 354.202C147.94 353.709 147.402 353.302 146.806 352.998L145.803 352.537L83.7981 324.825L76.004 320.913L21.726 289.965L21.4185 289.816C19.2661 288.719 16.3784 289.071 13.3036 291.17C8.77416 294.563 5.48316 299.381 3.94531 304.87L126.726 366.766C126.726 366.766 136.071 353.011 148.397 354.202Z" fill="#108E66"/>
<path d="M150.668 360.349C150.441 356.626 148.984 354.081 146.818 352.984C144.652 351.887 141.778 352.253 138.703 354.338C132.554 358.467 127.928 367.876 128.382 375.322C128.623 379.045 130.067 381.59 132.233 382.673C134.398 383.756 137.273 383.417 140.348 381.319C146.497 377.203 151.07 367.808 150.668 360.349Z" fill="#108E66"/>
<path d="M20.7629 289.45L21.7388 289.938L76.0302 320.885L83.8242 324.798L145.829 352.51C135.91 348.665 126.712 361.323 126.712 361.323L0.642578 297.803C0.642578 297.803 10.4821 284.265 20.7629 289.45Z" fill="#108E66"/>
<path opacity="0.6" d="M20.7629 289.45L21.7388 289.938L76.0302 320.885L83.8242 324.798L145.829 352.51C135.91 348.665 126.712 361.323 126.712 361.323L0.642578 297.803C0.642578 297.803 10.4821 284.265 20.7629 289.45Z" fill="white"/>
<path opacity="0.25" d="M150.668 360.349C150.441 356.626 148.984 354.081 146.818 352.984C144.652 351.887 141.778 352.253 138.703 354.338C132.554 358.467 127.928 367.876 128.382 375.322C128.623 379.045 130.067 381.59 132.233 382.673C134.398 383.756 137.273 383.417 140.348 381.319C146.497 377.203 151.07 367.808 150.668 360.349Z" fill="white"/>
<path opacity="0.5" d="M137.488 371.328C138.464 379.315 146.967 374.184 150.402 364.735C150.655 363.283 150.745 361.807 150.67 360.335C150.443 356.612 148.985 354.067 146.82 352.97C144.654 351.874 141.779 352.239 138.705 354.324C134.351 357.558 131.141 362.124 129.547 367.348L137.488 371.328Z" fill="#108E66"/>
<path d="M139.345 374.97L128.891 369.69C129.054 368.894 129.273 368.112 129.546 367.348L137.487 371.341C137.521 372.046 137.705 372.734 138.026 373.36C138.346 373.987 138.796 374.535 139.345 374.97Z" fill="#108E66"/>
<path opacity="0.1" d="M139.345 374.97L128.891 369.69C129.054 368.894 129.273 368.112 129.546 367.348L137.487 371.341C137.521 372.046 137.705 372.734 138.026 373.36C138.346 373.987 138.796 374.535 139.345 374.97Z" fill="#272B2A"/>
<path d="M65.0284 345.254C64.0257 356.341 58.3439 366.414 49.9883 375.85C53.2267 375.22 56.3252 374 59.1327 372.249C59.5009 374.975 59.5009 377.74 59.1327 380.466C66.6861 370.989 72.0471 360.985 74.1059 349.979L72.0471 348.801L65.0284 345.254Z" fill="#108E66"/>
<path opacity="0.2" d="M64.2383 350.222L67.781 350.71L73.1286 354.257C73.503 352.903 73.8372 351.427 74.1046 349.979L72.0458 348.801L65.027 345.254C64.8663 346.925 64.6029 348.584 64.2383 350.222Z" fill="#272B2A"/>
<path d="M76.0164 320.912C74.2784 320.06 72.0057 320.357 69.5057 322.009C66.9017 323.971 64.7915 326.527 63.3466 329.469C61.9017 332.412 61.1629 335.659 61.1902 338.945C61.364 341.896 62.5271 343.927 64.1982 344.834H64.2784L72.0458 348.76C70.2944 347.88 69.1313 345.822 68.9442 342.817C68.9163 339.529 69.6562 336.281 71.1037 333.338C72.5511 330.395 74.665 327.839 77.273 325.881C79.7463 324.202 82.0725 323.918 83.8238 324.798L76.0698 320.885L76.0164 320.912Z" fill="#108E66"/>
<path opacity="0.15" d="M72.0724 331.621C73.0639 329.953 74.2938 328.443 75.7221 327.14L67.9681 323.227C66.5398 324.531 65.3099 326.041 64.3184 327.709L72.0724 331.621ZM69.5189 322.009L77.2729 325.922C78.0392 325.392 78.8766 324.977 79.7595 324.69L72.0055 320.777C71.123 321.066 70.2857 321.481 69.5189 322.009Z" fill="white"/>
<path opacity="0.1" d="M61.605 334.383C61.2529 335.876 61.1134 337.412 61.1906 338.945C61.3644 341.896 62.5275 343.927 64.1986 344.834H64.2788L72.0462 348.76C70.2948 347.88 69.1317 345.822 68.9446 342.817C68.8674 341.284 69.0069 339.748 69.359 338.255L61.605 334.383Z" fill="#272B2A"/>
<path d="M264.24 394.925L308.21 426.969L314.587 431.112L365.523 461.112L366.352 461.613C368.116 462.763 369.119 465.092 369.025 468.382C368.665 471.904 367.489 475.29 365.594 478.266C363.698 481.242 361.137 483.723 358.116 485.507C355.255 486.996 352.769 487.023 350.977 485.873L302.181 450.674L295.844 446.531L248.638 418.955H248.571C246.846 417.777 245.897 415.448 246.004 412.253C246.374 408.734 247.553 405.351 249.448 402.377C251.342 399.403 253.899 396.92 256.913 395.128C259.774 393.652 262.261 393.625 264.066 394.776L264.306 394.938L264.24 394.925Z" fill="#108E66"/>
<path opacity="0.4" d="M264.24 394.925L308.21 426.969L314.587 431.112L365.523 461.112L366.352 461.613C368.116 462.763 369.119 465.092 369.025 468.382C368.665 471.904 367.489 475.29 365.594 478.266C363.698 481.242 361.137 483.723 358.116 485.507C355.255 486.996 352.769 487.023 350.977 485.873L302.181 450.674L295.844 446.531L248.638 418.955H248.571C246.846 417.777 245.897 415.448 246.004 412.253C246.374 408.734 247.553 405.351 249.448 402.377C251.342 399.403 253.899 396.92 256.913 395.128C259.774 393.652 262.261 393.625 264.066 394.776L264.306 394.938L264.24 394.925Z" fill="white"/>
<path opacity="0.3" d="M367.648 462.804C367.3 462.336 366.875 461.933 366.391 461.613L365.562 461.112L314.626 431.112L308.249 426.969L264.279 394.925L264.038 394.762C262.274 393.611 259.747 393.639 256.899 395.114C252.675 397.611 249.385 401.452 247.541 406.039L347.808 471.509C347.808 471.509 357.06 460.57 367.648 462.804Z" fill="#108E66"/>
<path d="M368.984 468.341C369.144 465.092 368.128 462.75 366.31 461.572C364.492 460.394 362.019 460.448 359.158 461.937C356.137 463.722 353.576 466.203 351.68 469.179C349.784 472.154 348.609 475.541 348.249 479.063C348.102 482.299 349.104 484.641 350.922 485.832C352.741 487.023 355.2 486.956 358.061 485.48C361.084 483.694 363.649 481.211 365.547 478.233C367.444 475.255 368.622 471.866 368.984 468.341Z" fill="#108E66"/>
<path d="M263.463 394.342L264.252 394.857L308.223 426.901L314.6 431.044L365.536 461.044C357.327 456.752 348.156 466.798 348.156 466.798L245.215 399.568C245.215 399.568 255.068 388.927 263.463 394.342Z" fill="#108E66"/>
<path opacity="0.6" d="M263.463 394.342L264.252 394.857L308.223 426.901L314.6 431.044L365.536 461.044C357.327 456.752 348.156 466.798 348.156 466.798L245.215 399.568C245.215 399.568 255.068 388.927 263.463 394.342Z" fill="white"/>
<path opacity="0.25" d="M368.984 468.341C369.144 465.092 368.128 462.75 366.31 461.572C364.492 460.394 362.019 460.448 359.158 461.937C356.137 463.722 353.576 466.203 351.68 469.179C349.784 472.154 348.609 475.541 348.249 479.063C348.102 482.299 349.104 484.641 350.922 485.832C352.741 487.023 355.2 486.956 358.061 485.48C361.084 483.694 363.649 481.211 365.547 478.233C367.444 475.255 368.622 471.866 368.984 468.341Z" fill="white"/>
<path opacity="0.5" d="M356.537 476.545C356.618 483.544 364.452 479.943 368.315 472.118C368.679 470.889 368.899 469.622 368.971 468.341C369.131 465.092 368.115 462.75 366.297 461.572C364.479 460.394 362.005 460.448 359.144 461.937C355.081 464.31 351.876 467.94 350 472.294L356.537 476.545Z" fill="#108E66"/>
<path d="M357.795 479.862L349.266 474.284C349.479 473.61 349.742 472.954 350.054 472.321L356.538 476.545C356.502 477.157 356.595 477.769 356.812 478.341C357.029 478.913 357.364 479.432 357.795 479.862Z" fill="#108E66"/>
<path opacity="0.1" d="M357.795 479.862L349.266 474.284C349.479 473.61 349.742 472.954 350.054 472.321L356.538 476.545C356.502 477.157 356.595 477.769 356.812 478.341C357.029 478.913 357.364 479.432 357.795 479.862Z" fill="#272B2A"/>
<path d="M296.391 446.938C294.48 456.414 288.651 464.537 280.482 471.902C283.342 471.675 286.138 470.923 288.731 469.681C288.788 472.07 288.527 474.457 287.956 476.775C295.375 469.383 300.964 461.22 303.798 451.906L302.127 450.674L296.391 446.938Z" fill="#108E66"/>
<path opacity="0.2" d="M295.242 451.202L298.25 451.974L302.542 455.561C303.01 454.37 303.424 453.179 303.798 451.96L302.127 450.728L296.392 446.992C296.105 448.42 295.72 449.827 295.242 451.202Z" fill="#272B2A"/>
<path d="M308.21 426.969C306.793 426.062 304.774 426.089 302.488 427.28C300.049 428.72 297.98 430.722 296.45 433.124C294.919 435.526 293.969 438.259 293.678 441.103C293.558 443.675 294.347 445.543 295.724 446.518H295.79L302.127 450.66C300.697 449.726 299.881 447.845 300.015 445.245C300.304 442.4 301.253 439.663 302.784 437.259C304.315 434.855 306.385 432.85 308.825 431.409C311.125 430.218 313.157 430.191 314.587 431.125L308.25 426.996L308.21 426.969Z" fill="#108E66"/>
<path opacity="0.15" d="M303.784 435.836C304.8 434.49 306.007 433.304 307.367 432.317L301.03 428.187C299.668 429.171 298.46 430.358 297.447 431.707L303.784 435.836ZM302.447 427.28L308.824 431.437C309.536 431.059 310.296 430.786 311.084 430.624L304.814 426.455C304.003 426.614 303.219 426.892 302.487 427.28H302.447Z" fill="white"/>
<path opacity="0.1" d="M294.48 437.204C294.032 438.458 293.762 439.771 293.678 441.103C293.558 443.675 294.347 445.543 295.724 446.518H295.79L302.127 450.66C300.697 449.726 299.881 447.845 300.015 445.245C300.088 443.909 300.353 442.591 300.804 441.333L294.48 437.204Z" fill="#272B2A"/>
<path d="M510.788 519.217C506.483 526.812 497.245 531.591 484.05 531.767C457.432 532.119 424.812 513.626 411.189 490.462C404.505 479.077 403.649 468.693 407.66 461.031C407.727 460.909 407.78 460.773 407.847 460.652L432.406 416.22C428.141 423.923 428.916 434.483 435.721 446.004C449.344 469.181 481.964 487.673 508.595 487.308C521.964 487.118 531.189 482.272 535.454 474.569L510.922 518.946C510.881 519.095 510.828 519.149 510.788 519.217Z" fill="#37474F"/>
<path d="M519.771 502.985C515.453 510.58 506.215 515.359 493.033 515.535C466.402 515.887 433.782 497.394 420.159 474.23C413.474 462.845 412.619 452.461 416.643 444.799C416.693 444.669 416.751 444.542 416.817 444.42L419.41 439.735C415.146 447.439 415.921 457.998 422.726 469.587C436.349 492.75 468.969 511.243 495.6 510.877C508.969 510.701 518.193 505.841 522.458 498.138L519.891 502.782L519.771 502.985Z" fill="#108E66"/>
<path opacity="0.2" d="M433.301 474.704C422.419 469.465 413.903 481.148 418.435 500.426C415.718 497.346 413.292 494.015 411.189 490.476C404.505 479.09 403.649 468.707 407.66 461.044C407.727 460.922 407.78 460.787 407.847 460.665L432.406 416.234C428.141 423.937 428.916 434.496 435.721 446.017C449.344 469.194 481.964 487.687 508.595 487.321C476.43 490.164 447.86 481.69 433.301 474.704Z" fill="#272B2A"/>
<path d="M535.457 474.655C544.654 458.018 529.04 431.454 500.583 415.323C472.126 399.191 441.601 399.6 432.404 416.237C423.207 432.873 438.821 459.437 467.278 475.569C495.736 491.701 526.26 491.291 535.457 474.655Z" fill="#272B2A"/>
<path d="M569.892 494.74L511.523 395.507L397.472 397.01L393.662 403.887L452.018 503.161L566.095 501.617L569.892 494.74Z" fill="#37474F"/>
<path opacity="0.2" d="M452.018 503.161L455.814 496.284L569.892 494.74L566.095 501.618L452.018 503.161Z" fill="white"/>
<path opacity="0.2" d="M455.814 496.284L567.539 496.08L566.095 501.618L569.892 494.74L455.814 496.284Z" fill="white"/>
<path d="M511.523 395.507L397.473 397.01L455.815 496.284L569.892 494.74L511.523 395.507Z" fill="#455A64"/>
<path d="M519.036 340.989C519.036 339.933 517.485 338.742 516.817 339.96C514.884 343.858 513.17 347.863 511.683 351.955C510.018 355.93 508.093 359.788 505.921 363.503C501.79 370.583 496.563 376.486 491.015 382.456C485.466 388.426 480.734 394.64 477.953 402.452C475.49 409.337 474.519 416.678 475.105 423.977C475.455 428.244 476.307 432.452 477.646 436.513C478.925 440.858 481.244 444.815 484.397 448.034C485.159 448.725 486.549 448.643 486.269 447.276C485.797 445.566 485.193 443.895 484.464 442.28C483.822 440.521 483.207 438.72 482.619 436.933C481.445 433.341 480.708 429.618 480.426 425.845C479.861 418.824 480.749 411.76 483.033 405.105C485.663 398.102 489.769 391.763 495.065 386.531C500.841 380.453 506.362 374.347 510.667 367.104C512.988 363.238 514.944 359.158 516.509 354.92C517.329 352.71 518.008 350.449 518.541 348.151C519.045 345.8 519.212 343.388 519.036 340.989Z" fill="#108E66"/>
<path d="M499.638 287.853C503.757 296.296 507.212 305.056 509.972 314.049C515.414 331.648 512.472 339.649 517.299 340.082C521.697 340.461 527.392 325.624 529.397 308.336C530.561 299.214 529.411 289.942 526.055 281.395C525.895 281.002 525.599 280.682 525.223 280.493C524.847 280.304 524.416 280.259 524.01 280.366C523.685 280.451 523.4 280.647 523.202 280.921C523.004 281.195 522.907 281.53 522.927 281.869C522.365 280.515 521.991 279.513 520.534 279.757C520.31 279.808 520.1 279.906 519.916 280.043C519.731 280.181 519.577 280.356 519.463 280.557C519.348 280.758 519.277 280.98 519.251 281.211C519.226 281.442 519.249 281.675 519.317 281.896C520.561 286.594 523.141 298.06 521.496 307.239C521.082 295.881 516.951 285.186 514.705 280.001C514.54 279.613 514.242 279.298 513.866 279.115C513.491 278.931 513.062 278.89 512.66 278.999C512.422 279.065 512.2 279.181 512.01 279.34C511.82 279.499 511.665 279.697 511.557 279.921C511.448 280.145 511.388 280.39 511.379 280.639C511.371 280.889 511.416 281.137 511.51 281.368C513.649 286.567 519.531 300.321 518.435 317.095C517.753 302.406 511.924 288.895 509.892 284.698C509.704 284.213 509.335 283.821 508.866 283.607C508.397 283.392 507.863 283.371 507.379 283.548C507.136 283.657 506.92 283.817 506.744 284.017C506.567 284.218 506.435 284.454 506.357 284.711C506.278 284.967 506.255 285.238 506.288 285.504C506.322 285.771 506.411 286.027 506.55 286.255C508.488 290.317 513.234 301.865 514.05 312.099C513.769 311.274 507.365 294.987 503.101 286.215C502.926 285.841 502.625 285.543 502.253 285.374C501.88 285.205 501.46 285.177 501.069 285.294L500.761 285.375C500.512 285.441 500.28 285.562 500.083 285.73C499.885 285.897 499.727 286.107 499.619 286.344C499.512 286.582 499.458 286.84 499.461 287.101C499.464 287.362 499.525 287.619 499.638 287.853ZM523.809 319.274C525.146 311.274 527.192 297.803 523.809 285.308C528.729 300.524 526.242 310.245 523.809 319.274Z" fill="#108E66"/>
<path d="M513.221 343.061C513.918 344.021 514.88 344.751 515.986 345.157C517.092 345.563 518.293 345.628 519.435 345.344C520.578 345.06 521.612 344.438 522.406 343.559C523.2 342.679 523.718 341.581 523.896 340.403C524.074 339.225 523.902 338.021 523.404 336.941C522.905 335.862 522.102 334.956 521.095 334.34C520.088 333.723 518.923 333.422 517.748 333.475C516.572 333.529 515.439 333.934 514.491 334.64C513.86 335.108 513.327 335.696 512.921 336.373C512.516 337.05 512.247 337.801 512.129 338.583C512.011 339.366 512.046 340.164 512.234 340.932C512.421 341.701 512.757 342.424 513.221 343.061Z" fill="#108E66"/>
<path opacity="0.2" d="M513.221 343.061C513.918 344.021 514.88 344.751 515.986 345.157C517.092 345.563 518.293 345.628 519.435 345.344C520.578 345.06 521.612 344.438 522.406 343.559C523.2 342.679 523.718 341.581 523.896 340.403C524.074 339.225 523.902 338.021 523.404 336.941C522.905 335.862 522.102 334.956 521.095 334.34C520.088 333.723 518.923 333.422 517.748 333.475C516.572 333.529 515.439 333.934 514.491 334.64C513.86 335.108 513.327 335.696 512.921 336.373C512.516 337.05 512.247 337.801 512.129 338.583C512.011 339.366 512.046 340.164 512.234 340.932C512.421 341.701 512.757 342.424 513.221 343.061Z" fill="#272B2A"/>
<path d="M477.499 441.617C477.869 441.067 478.378 440.627 478.973 440.344C479.568 440.061 480.227 439.944 480.881 440.006C482.713 440.079 484.503 440.589 486.103 441.495C487.704 442.401 489.071 443.676 490.092 445.218C490.485 445.752 490.73 446.382 490.803 447.043C490.876 447.705 490.774 448.374 490.507 448.982L489.304 451.202C488.929 451.751 488.418 452.19 487.821 452.473C487.224 452.756 486.564 452.873 485.908 452.813C484.078 452.736 482.293 452.224 480.695 451.318C479.097 450.413 477.732 449.139 476.71 447.601C476.315 447.066 476.068 446.434 475.995 445.77C475.922 445.105 476.026 444.434 476.296 443.824L477.499 441.617Z" fill="#272B2A"/>
<path d="M487.112 450.593C490.481 450.593 491.804 448.142 490.093 445.178C489.071 443.636 487.705 442.36 486.104 441.454C484.503 440.549 482.714 440.038 480.882 439.965C477.526 439.965 476.189 442.416 477.914 445.381C478.934 446.921 480.299 448.195 481.897 449.101C483.495 450.006 485.282 450.518 487.112 450.593Z" fill="#37474F"/>
<path d="M100.627 545.968C103.167 554.348 111.108 561.09 123.929 564.244C149.812 570.607 185.68 559.939 204.063 540.431C213.087 530.859 216.202 520.923 213.983 512.543C213.983 512.407 213.983 512.258 213.889 512.136L199.731 463.386C202.191 471.861 199.103 481.974 189.918 491.735C171.536 511.243 135.667 521.897 109.798 515.534C96.8572 512.353 88.8625 505.516 86.416 497.042L100.547 545.859C100.576 545.894 100.602 545.93 100.627 545.968Z" fill="#37474F"/>
<path d="M95.4685 528.165C97.9952 536.532 105.936 543.274 118.757 546.428C144.639 552.791 180.508 542.137 198.891 522.628C207.915 513.043 211.03 503.107 208.811 494.727C208.811 494.591 208.81 494.456 208.717 494.32L207.22 489.108C209.679 497.583 206.605 507.696 197.407 517.457C179.038 536.979 143.156 547.633 117.287 541.27C104.345 538.075 96.3642 531.252 93.9043 522.777L95.3883 527.881C95.406 527.978 95.4329 528.073 95.4685 528.165Z" fill="#108E66"/>
<path opacity="0.2" d="M185.975 520.124C197.726 517.416 203.462 530.792 194.812 548.553C198.139 546.144 201.236 543.424 204.063 540.431C213.087 530.859 216.202 520.922 213.983 512.542C213.983 512.407 213.983 512.258 213.89 512.136L199.732 463.386C202.192 471.861 199.103 481.974 189.919 491.735C171.537 511.243 135.668 521.897 109.799 515.534C140.521 525.444 170.307 523.644 185.975 520.124Z" fill="#272B2A"/>
<path d="M152.665 513.276C183.959 503.98 205.031 481.612 199.731 463.317C194.431 445.022 164.765 437.728 133.471 447.025C102.177 456.321 81.1052 478.689 86.4053 496.984C91.7054 515.279 121.371 522.573 152.665 513.276Z" fill="#272B2A"/>
<path d="M48.4082 508.806L127.165 425.25L238.02 452.475L240.213 460.029L161.47 543.626L50.6007 516.36L48.4082 508.806Z" fill="#37474F"/>
<path opacity="0.2" d="M161.47 543.626L159.277 536.071L48.4082 508.806L50.6007 516.36L161.47 543.626Z" fill="white"/>
<path opacity="0.2" d="M159.277 536.071L50.4135 510.647L50.6007 516.36L48.4082 508.806L159.277 536.071Z" fill="white"/>
<path d="M127.165 425.25L238.02 452.475L159.277 536.072L48.4082 508.806L127.165 425.25Z" fill="#455A64"/>
<path d="M74.5996 552.479C75.1595 550.451 75.8471 548.462 76.6584 546.523C77.3922 544.379 77.973 542.185 78.3963 539.957C79.0671 535.422 79.3845 530.841 79.3455 526.256C79.6232 518.377 81.5508 510.648 85.0006 503.58C88.2387 496.941 92.8747 491.101 98.5822 486.473C104.29 481.844 110.93 478.538 118.035 476.789C122.174 475.811 126.422 475.397 130.669 475.557C132.694 475.613 134.711 475.839 136.698 476.234C138.771 476.653 141.23 477.005 142.955 478.346C143.918 479.09 143.062 481.175 141.939 481.188C139.994 481.071 138.057 480.845 136.137 480.512C134.292 480.309 132.447 480.187 130.589 480.16C127.12 480.13 123.659 480.488 120.268 481.229C113.559 482.619 107.286 485.644 101.993 490.042C96.8641 494.443 92.6878 499.868 89.7249 505.978C86.762 512.089 85.0763 518.752 84.7733 525.552C84.3054 535.029 83.9578 545.859 77.2466 553.183C76.4846 554.09 74.1985 554.307 74.5996 552.479Z" fill="#108E66"/>
<path d="M33.4223 589.668L33.6229 589.899C33.8988 590.205 34.2728 590.403 34.6788 590.457C35.0849 590.512 35.4969 590.419 35.8421 590.196C43.9704 584.957 57.8875 574.506 58.5694 573.951C52.5533 582.236 42.5132 589.601 38.7699 591.997C38.5413 592.121 38.3406 592.292 38.1807 592.499C38.0207 592.706 37.905 592.944 37.8409 593.199C37.7768 593.453 37.7657 593.719 37.8082 593.978C37.8508 594.237 37.9461 594.485 38.0881 594.704C38.4073 595.095 38.8605 595.348 39.3566 595.413C39.8527 595.478 40.3548 595.351 40.7619 595.056C44.6656 592.565 56.6175 584.145 64.826 572.042C57.1121 586.934 44.9464 595.503 40.441 598.793C40.2422 598.94 40.0765 599.128 39.955 599.345C39.8335 599.562 39.7588 599.803 39.7361 600.051C39.7133 600.3 39.743 600.55 39.823 600.786C39.9031 601.022 40.0317 601.238 40.2004 601.419C40.4854 601.728 40.8705 601.922 41.2853 601.967C41.7001 602.012 42.117 601.904 42.4598 601.663C47.0587 598.427 56.1095 591.523 62.3394 582.074C58.9838 590.751 50.8555 599.145 47.3662 602.489C47.1981 602.647 47.0641 602.839 46.9725 603.052C46.8809 603.265 46.8336 603.495 46.8336 603.728C46.8336 603.96 46.8809 604.19 46.9725 604.403C47.0641 604.616 47.1981 604.808 47.3662 604.966C48.4758 605.941 49.3047 605.291 50.4945 604.425C50.3026 604.703 50.2123 605.04 50.2391 605.379C50.2659 605.717 50.4082 606.036 50.6416 606.279C50.9308 606.587 51.3202 606.779 51.7379 606.819C52.1556 606.858 52.5735 606.744 52.9143 606.496C60.1903 600.991 65.9678 593.705 69.7057 585.323C76.9383 569.524 79.7592 553.86 75.8153 551.857C71.4838 549.677 69.8394 558.057 56.1095 570.16C49.0993 576.346 41.6259 581.972 33.7566 586.988C33.5404 587.125 33.3571 587.31 33.2198 587.528C33.0826 587.745 32.9948 587.992 32.9628 588.248C32.9308 588.504 32.9555 588.765 33.0349 589.01C33.1144 589.256 33.2467 589.481 33.4223 589.668ZM53.0079 601.961C62.3661 593.134 67.6201 580.571 70.6282 573.057C68.0212 582.033 65.1202 591.631 53.0079 601.961Z" fill="#108E66"/>
<path d="M73.9169 547.173C75.007 546.725 76.2038 546.615 77.3559 546.856C78.508 547.097 79.5636 547.678 80.3894 548.526C81.2153 549.375 81.7741 550.452 81.9955 551.622C82.2168 552.792 82.0906 554.002 81.6328 555.1C81.175 556.197 80.4063 557.132 79.4237 557.787C78.4411 558.442 77.2887 558.788 76.1124 558.78C74.936 558.772 73.7884 558.411 72.8146 557.742C71.8408 557.074 71.0846 556.128 70.6414 555.025C70.3452 554.292 70.1949 553.506 70.1993 552.714C70.2037 551.922 70.3627 551.139 70.667 550.409C70.9714 549.679 71.4152 549.018 71.973 548.462C72.5307 547.907 73.1913 547.469 73.9169 547.173Z" fill="#108E66"/>
<path opacity="0.2" d="M73.9169 547.173C75.007 546.725 76.2038 546.615 77.3559 546.856C78.508 547.097 79.5636 547.678 80.3894 548.526C81.2153 549.375 81.7741 550.452 81.9955 551.622C82.2168 552.792 82.0906 554.002 81.6328 555.1C81.175 556.197 80.4063 557.132 79.4237 557.787C78.4411 558.442 77.2887 558.788 76.1124 558.78C74.936 558.772 73.7884 558.411 72.8146 557.742C71.8408 557.074 71.0846 556.128 70.6414 555.025C70.3452 554.292 70.1949 553.506 70.1993 552.714C70.2037 551.922 70.3627 551.139 70.667 550.409C70.9714 549.679 71.4152 549.018 71.973 548.462C72.5307 547.907 73.1913 547.469 73.9169 547.173Z" fill="#272B2A"/>
<path d="M150.187 477.885C149.945 477.264 149.544 476.719 149.024 476.307C148.505 475.895 147.886 475.632 147.232 475.543C145.431 475.206 143.576 475.302 141.818 475.824C140.06 476.346 138.448 477.279 137.112 478.549C136.61 478.982 136.232 479.542 136.015 480.173C135.799 480.804 135.753 481.481 135.882 482.136C135.989 482.529 136.444 484.099 136.564 484.492C136.808 485.112 137.21 485.655 137.729 486.066C138.248 486.478 138.865 486.743 139.518 486.834C141.32 487.171 143.174 487.075 144.932 486.553C146.69 486.031 148.303 485.098 149.639 483.828C150.137 483.393 150.513 482.832 150.729 482.202C150.945 481.572 150.993 480.896 150.869 480.241C150.762 479.848 150.307 478.278 150.187 477.885Z" fill="#272B2A"/>
<path d="M138.824 484.465C135.562 483.666 134.813 481.013 137.112 478.549C138.449 477.279 140.061 476.346 141.819 475.824C143.577 475.302 145.431 475.206 147.233 475.543C150.495 476.342 151.243 478.995 148.944 481.459C147.609 482.73 145.997 483.665 144.239 484.187C142.48 484.709 140.625 484.804 138.824 484.465Z" fill="#37474F"/>
<path d="M55.2399 99.9999H54.772C54.159 100.069 53.5886 100.351 53.1573 100.798C52.726 101.244 52.4605 101.828 52.4057 102.45C51.2827 117.193 51.0688 143.809 51.1892 145.135C46.7373 130.244 47.0448 111.196 47.5662 104.522C47.6309 104.122 47.611 103.713 47.5078 103.322C47.4047 102.931 47.2206 102.566 46.9677 102.253C46.7149 101.939 46.3991 101.683 46.0413 101.503C45.6835 101.322 45.2919 101.221 44.8924 101.205C44.1143 101.233 43.377 101.564 42.834 102.129C42.291 102.694 41.9843 103.449 41.9779 104.237C41.4164 111.291 40.641 133.642 47.74 154.72C36.9512 131.706 37.7132 108.976 37.8603 100.447C37.8616 100.071 37.7857 99.6989 37.6374 99.3544C37.489 99.01 37.2715 98.7006 36.9986 98.4459C36.7257 98.1912 36.4035 97.9968 36.0524 97.8751C35.7013 97.7534 35.329 97.7071 34.9592 97.739H34.8924C34.2648 97.8151 33.6842 98.1139 33.2534 98.5822C32.8227 99.0506 32.5697 99.6584 32.5395 100.298C32.232 108.881 32.2721 126.291 37.887 142.536C30.5341 130.528 27.8737 112.902 27.0448 105.564C27.012 105.221 26.911 104.888 26.7479 104.585C26.5849 104.282 26.363 104.016 26.0958 103.803C25.8286 103.589 25.5215 103.432 25.1929 103.342C24.8644 103.251 24.5211 103.229 24.1839 103.276C22.0047 103.763 22.0315 105.361 21.978 107.595C21.8155 107.11 21.4925 106.697 21.0637 106.425C20.6349 106.154 20.1267 106.041 19.625 106.106C19.0126 106.206 18.4536 106.518 18.0438 106.99C17.634 107.462 17.399 108.063 17.3791 108.691C17.3523 122.635 20.8206 136.358 27.4593 148.574C39.7988 171.819 56.002 189.54 61.9913 186.48C68.5421 183.137 59.9993 173.498 57.9806 145.623C56.9455 131.389 57.0036 117.095 58.1544 102.87C58.1792 102.479 58.1202 102.088 57.9813 101.723C57.8425 101.358 57.6272 101.028 57.3502 100.755C57.0732 100.482 56.7411 100.273 56.3768 100.143C56.0125 100.013 55.6247 99.9639 55.2399 99.9999ZM22.7266 112.888C24.7721 132.437 35.0662 150.293 41.3229 160.812C32.9004 149.454 24.0635 137.121 22.7266 112.888Z" fill="#108E66"/>
<path d="M288.274 232.401C283.121 223.759 276.656 215.992 269.116 209.387C262.381 203.258 254.991 197.909 247.084 193.439C231.423 184.548 213.782 179.847 195.828 179.779C186.805 179.784 177.834 181.153 169.21 183.841C161.152 186.59 153.386 190.15 146.028 194.468C139.237 198.259 132.526 202.252 125.454 205.488C123.622 206.341 122.914 206.639 121.296 207.261C119.384 208.006 117.459 208.615 115.507 209.224C112.199 210.223 108.791 210.84 105.347 211.065C97.4761 211.535 89.6426 209.652 82.82 205.65C78.9592 203.454 75.4219 200.72 72.312 197.527C70.5994 195.856 69.0255 194.045 67.6062 192.112C67.0714 191.341 66.5367 190.569 65.9618 189.824C65.4559 189.152 64.8724 188.543 64.2238 188.01C63.1539 187.244 62.3382 186.168 61.8843 184.924C61.1222 183.489 58.5821 183.57 58.9966 185.533C59.411 187.496 59.1436 189.594 59.6918 191.503C60.1431 192.847 60.7489 194.133 61.4966 195.334C62.5812 197.32 63.7914 199.233 65.1195 201.061C67.8124 204.58 71.0121 207.67 74.6115 210.226C80.8899 214.828 88.1814 217.812 95.8548 218.917C112.071 221.124 127.071 214.491 141.002 206.801C147.86 203.024 154.611 199.044 161.67 195.632C169.207 191.966 177.255 189.496 185.534 188.308C203.165 186.016 221.077 188.833 237.191 196.431C246.036 200.519 254.373 205.649 262.031 211.715C270.734 218.606 278.568 226.607 286.403 234.459C287.806 235.84 289.023 233.687 288.274 232.401Z" fill="#108E66"/>
<path d="M69.3042 188.389C68.8535 190.137 67.9014 191.711 66.568 192.911C65.2346 194.111 63.5799 194.884 61.8129 195.132C60.0458 195.38 58.2458 195.093 56.6402 194.305C55.0345 193.518 53.6953 192.267 52.7918 190.709C51.8883 189.151 51.461 187.357 51.5638 185.554C51.6667 183.75 52.2951 182.018 53.3697 180.576C54.4443 179.134 55.9169 178.047 57.6013 177.452C59.2858 176.857 61.1066 176.781 62.8336 177.234C63.9825 177.535 65.0614 178.063 66.0087 178.787C66.9559 179.51 67.7529 180.416 68.3539 181.453C68.955 182.489 69.3483 183.635 69.5113 184.825C69.6744 186.015 69.604 187.227 69.3042 188.389Z" fill="#108E66"/>
<path opacity="0.2" d="M69.3042 188.389C68.8535 190.137 67.9014 191.711 66.568 192.911C65.2346 194.111 63.5799 194.884 61.8129 195.132C60.0458 195.38 58.2458 195.093 56.6402 194.305C55.0345 193.518 53.6953 192.267 52.7918 190.709C51.8883 189.151 51.461 187.357 51.5638 185.554C51.6667 183.75 52.2951 182.018 53.3697 180.576C54.4443 179.134 55.9169 178.047 57.6013 177.452C59.2858 176.857 61.1066 176.781 62.8336 177.234C63.9825 177.535 65.0614 178.063 66.0087 178.787C66.9559 179.51 67.7529 180.416 68.3539 181.453C68.955 182.489 69.3483 183.635 69.5113 184.825C69.6744 186.015 69.604 187.227 69.3042 188.389Z" fill="#272B2A"/>
<path d="M420.721 183.922L293.488 312.627L119.772 265.488L116.604 253.493L243.836 124.734L417.552 171.927L420.721 183.922Z" fill="#37474F"/>
<path opacity="0.2" d="M243.836 124.734L247.004 136.728L420.721 183.922L417.552 171.927L243.836 124.734Z" fill="white"/>
<path opacity="0.2" d="M247.004 136.728L417.619 180.957L417.552 171.927L420.72 183.922L247.004 136.728Z" fill="white"/>
<path d="M293.488 312.627L119.785 265.488L247.004 136.728L420.721 183.922L293.488 312.627Z" fill="#455A64"/>
<path d="M362.111 207.735C358.434 194.441 346.161 183.516 326.014 178.06C285.466 167.04 228.528 182.473 198.836 212.527C184.25 227.284 178.983 242.812 182.164 256.12C182.164 256.323 182.245 256.553 182.298 256.756L199.437 321.603C195.881 308.16 201.108 292.334 215.961 277.293C245.654 247.239 302.579 231.819 343.127 242.839C363.407 248.349 375.734 259.423 379.29 272.866L362.298 208.101L362.111 207.735Z" fill="#37474F"/>
<path d="M369.598 236.07C365.922 222.776 353.649 211.851 333.502 206.395C292.954 195.375 236.016 210.808 206.323 240.863C191.751 255.619 186.47 271.147 189.666 284.441C189.666 284.658 189.732 284.875 189.786 285.091L191.952 293.214C188.396 279.771 193.623 263.945 208.462 248.918C238.155 218.863 295.093 203.43 335.641 214.45C355.922 219.96 368.248 231.034 371.737 244.477L369.598 236.354V236.07Z" fill="#108E66"/>
<path opacity="0.2" d="M226.644 245.289C208.021 249.012 199.478 227.812 213.77 200.167C208.444 203.813 203.462 207.951 198.89 212.528C184.305 227.284 179.037 242.812 182.219 256.12C182.219 256.323 182.299 256.553 182.353 256.756L199.492 321.603C195.936 308.16 201.163 292.334 216.016 277.293C245.708 247.239 302.633 231.819 343.181 242.839C295.12 225.944 251.47 240.335 226.644 245.289Z" fill="#272B2A"/>
<path d="M303.3 349.834C352.964 336.378 387.005 301.931 379.333 272.895C371.66 243.86 325.18 231.231 275.516 244.688C225.852 258.145 191.811 292.592 199.483 321.627C207.156 350.662 253.636 363.291 303.3 349.834Z" fill="#272B2A"/>
<path d="M302.352 346.251C350.112 333.31 383.033 300.886 375.884 273.83C368.735 246.774 324.222 235.331 276.463 248.272C228.703 261.212 195.782 293.637 202.931 320.693C210.08 347.749 254.593 359.192 302.352 346.251Z" fill="#37474F"/>
<path opacity="0.2" d="M283.42 332.84C254.009 322.713 249.998 278.945 274.276 256.485L233.354 267.586C228.254 271.004 223.47 274.883 219.062 279.175C190.346 307.456 198.541 338.471 237.378 348.449C274.731 358.047 326.816 344.672 356.281 318.462C334.062 330.267 303.474 339.717 283.42 332.84Z" fill="#272B2A"/>
<path d="M219.116 279.175C217.672 280.529 216.349 282.031 215.105 283.466C216.897 284.062 218.755 284.631 220.707 285.132C259.477 295.109 314.29 280.272 343.006 251.991C344.45 250.637 345.774 249.134 347.017 247.713C345.212 247.103 343.367 246.535 341.402 246.034C302.592 236.056 247.833 250.84 219.116 279.175Z" fill="#272B2A"/>
</g>
<defs>
<clipPath id="clip0_2105_22248">
<rect width="570" height="607" fill="white"/>
</clipPath>
</defs>
</svg>
