<svg width="17" height="8" viewBox="0 0 17 8" fill="none" xmlns="http://www.w3.org/2000/svg">
<path d="M0.5 3.18213C0.223858 3.18213 0 3.40599 0 3.68213C0 3.95827 0.223858 4.18213 0.5 4.18213V3.18213ZM16.8536 4.03568C17.0488 3.84042 17.0488 3.52384 16.8536 3.32858L13.6716 0.146595C13.4763 -0.0486672 13.1597 -0.0486672 12.9645 0.146595C12.7692 0.341857 12.7692 0.65844 12.9645 0.853702L15.7929 3.68213L12.9645 6.51056C12.7692 6.70582 12.7692 7.0224 12.9645 7.21766C13.1597 7.41293 13.4763 7.41293 13.6716 7.21766L16.8536 4.03568ZM0.5 4.18213H16.5V3.18213H0.5V4.18213Z" fill="#272B2A" fill-opacity="0.54"/>
</svg>
