<svg width="302" height="200" viewBox="0 0 302 200" fill="none" xmlns="http://www.w3.org/2000/svg">
<path d="M253.754 56C253.754 56 212.494 13.888 158.875 10.636C105.255 7.38396 73.9878 41.9 59.1708 62.484C44.3539 83.068 7.3859 117.364 11.7455 148.768C16.105 180.172 58.8457 204 120.072 193.532C181.299 183.064 199.05 179.092 226.946 187.036C254.842 194.98 291.071 183.064 291.794 137.94C292.516 92.816 253.754 56 253.754 56Z" fill="#108E66"/>
<path opacity="0.7" d="M253.754 56C253.754 56 212.494 13.888 158.875 10.636C105.255 7.38396 73.9878 41.9 59.1708 62.484C44.3539 83.068 7.3859 117.364 11.7455 148.768C16.105 180.172 58.8457 204 120.072 193.532C181.299 183.064 199.05 179.092 226.946 187.036C254.842 194.98 291.071 183.064 291.794 137.94C292.516 92.816 253.754 56 253.754 56Z" fill="white"/>
<path d="M19.6387 182.66H281.341" stroke="#263238" stroke-width="0.6" stroke-miterlimit="10"/>
<path d="M31.0391 115.812L36.334 166.332" stroke="#263238" stroke-width="0.6" stroke-miterlimit="10"/>
<path d="M35.4786 156.664L33.082 154.14" stroke="#263238" stroke-width="0.6" stroke-miterlimit="10"/>
<path d="M33.8076 154.896C33.8028 154.51 33.715 154.129 33.5502 153.779C33.3854 153.429 33.1474 153.119 32.8522 152.868C32.238 152.32 28.9984 150.964 28.6893 152.1C28.3561 153.336 31.672 155.768 33.8076 154.896Z" fill="#108E66" stroke="#263238" stroke-width="0.6" stroke-miterlimit="10"/>
<path d="M33.8076 154.896L30.7246 152.98" stroke="#263238" stroke-width="0.6" stroke-miterlimit="10"/>
<path d="M36.0802 162.412L33.6836 159.888" stroke="#263238" stroke-width="0.6" stroke-miterlimit="10"/>
<path d="M34.4111 160.644C34.4065 160.258 34.3189 159.877 34.1541 159.527C33.9893 159.177 33.7511 158.866 33.4557 158.616C32.8415 158.068 29.6019 156.708 29.2928 157.844C28.9596 159.084 32.2755 161.512 34.4111 160.644Z" fill="#108E66" stroke="#263238" stroke-width="0.6" stroke-miterlimit="10"/>
<path d="M34.4111 160.644L31.3281 158.728" stroke="#263238" stroke-width="0.6" stroke-miterlimit="10"/>
<path d="M34.0079 142.644L31.6113 140.12" stroke="#263238" stroke-width="0.6" stroke-miterlimit="10"/>
<path d="M32.3398 140.876C32.3349 140.49 32.2476 140.109 32.0835 139.76C31.9195 139.41 31.6825 139.099 31.3884 138.848C30.7702 138.3 27.5306 136.94 27.2215 138.08C26.8963 139.316 30.2041 141.744 32.3398 140.876Z" fill="#108E66" stroke="#263238" stroke-width="0.6" stroke-miterlimit="10"/>
<path d="M32.3389 140.876L29.2559 138.96" stroke="#263238" stroke-width="0.6" stroke-miterlimit="10"/>
<path d="M34.6114 148.388L32.2148 145.864" stroke="#263238" stroke-width="0.6" stroke-miterlimit="10"/>
<path d="M32.9404 146.62C32.9356 146.234 32.8478 145.853 32.683 145.503C32.5183 145.153 32.2802 144.843 31.985 144.592C31.3708 144.044 28.1312 142.688 27.8221 143.824C27.4889 145.06 30.8048 147.492 32.9404 146.62Z" fill="#108E66" stroke="#263238" stroke-width="0.6" stroke-miterlimit="10"/>
<path d="M32.9404 146.62L29.8574 144.704" stroke="#263238" stroke-width="0.6" stroke-miterlimit="10"/>
<path d="M33.0334 133.308L30.6328 130.784" stroke="#263238" stroke-width="0.6" stroke-miterlimit="10"/>
<path d="M31.3628 131.54C31.358 131.154 31.2702 130.773 31.1054 130.423C30.9406 130.073 30.7026 129.763 30.4074 129.512C29.7932 128.968 26.5496 127.608 26.2445 128.744C25.9073 130 29.2272 132.4 31.3628 131.54Z" fill="#108E66" stroke="#263238" stroke-width="0.6" stroke-miterlimit="10"/>
<path d="M31.3624 131.54L28.2754 129.624" stroke="#263238" stroke-width="0.6" stroke-miterlimit="10"/>
<path d="M32.0489 123.936L29.6523 121.412" stroke="#263238" stroke-width="0.6" stroke-miterlimit="10"/>
<path d="M30.3799 122.168C30.375 121.782 30.2873 121.401 30.1225 121.051C29.9577 120.701 29.7197 120.391 29.4244 120.14C28.8103 119.592 25.5707 118.232 25.2616 119.372C24.9284 120.608 28.2442 123.036 30.3799 122.168Z" fill="#108E66" stroke="#263238" stroke-width="0.6" stroke-miterlimit="10"/>
<path d="M30.3799 122.168L27.2969 120.252" stroke="#263238" stroke-width="0.6" stroke-miterlimit="10"/>
<path d="M35.0762 153.264L36.8987 150.3" stroke="#263238" stroke-width="0.6" stroke-miterlimit="10"/>
<path d="M36.3456 151.2C36.2695 150.821 36.276 150.43 36.3646 150.054C36.4533 149.678 36.622 149.326 36.8595 149.02C37.3452 148.356 40.2355 146.36 40.7734 147.42C41.3475 148.544 38.6137 151.6 36.3456 151.2Z" fill="#108E66" stroke="#263238" stroke-width="0.6" stroke-miterlimit="10"/>
<path d="M36.3457 151.192L39.1236 148.544" stroke="#263238" stroke-width="0.6" stroke-miterlimit="10"/>
<path d="M33.4902 138.144L35.3168 135.18" stroke="#263238" stroke-width="0.6" stroke-miterlimit="10"/>
<path d="M34.7586 136.072C34.6835 135.693 34.6905 135.303 34.7791 134.927C34.8677 134.551 35.0359 134.198 35.2724 133.892C35.7621 133.228 38.6525 131.232 39.1864 132.292C39.7725 133.424 37.0307 136.48 34.7586 136.072Z" fill="#108E66" stroke="#263238" stroke-width="0.6" stroke-miterlimit="10"/>
<path d="M34.7598 136.072L37.5377 133.424" stroke="#263238" stroke-width="0.6" stroke-miterlimit="10"/>
<path d="M32.7969 131.5L34.6194 128.536" stroke="#263238" stroke-width="0.6" stroke-miterlimit="10"/>
<path d="M34.0644 129.424C33.9882 129.045 33.9947 128.655 34.0834 128.278C34.172 127.902 34.3408 127.55 34.5782 127.244C35.068 126.584 37.9543 124.588 38.4922 125.644C39.0743 126.776 36.3325 129.836 34.0644 129.424Z" fill="#108E66" stroke="#263238" stroke-width="0.6" stroke-miterlimit="10"/>
<path d="M34.0645 129.424L36.8424 126.78" stroke="#263238" stroke-width="0.6" stroke-miterlimit="10"/>
<path d="M31.7773 121.76L33.5999 118.796" stroke="#263238" stroke-width="0.6" stroke-miterlimit="10"/>
<path d="M33.0448 119.684C32.9687 119.305 32.9752 118.914 33.0639 118.538C33.1525 118.162 33.3213 117.81 33.5587 117.504C34.0444 116.84 36.9347 114.844 37.4726 115.904C38.0547 117.036 35.325 120.096 33.0448 119.684Z" fill="#108E66" stroke="#263238" stroke-width="0.6" stroke-miterlimit="10"/>
<path d="M33.0449 119.684L35.8228 117.04" stroke="#263238" stroke-width="0.6" stroke-miterlimit="10"/>
<path d="M30.9949 115.528C30.9198 115.149 30.9268 114.759 31.0155 114.383C31.1041 114.007 31.2722 113.654 31.5087 113.348C31.9985 112.688 34.8888 110.692 35.4267 111.748C36.0088 112.88 33.267 115.94 30.9949 115.528Z" fill="#108E66" stroke="#263238" stroke-width="0.6" stroke-miterlimit="10"/>
<path d="M30.9941 115.528L33.7721 112.884" stroke="#263238" stroke-width="0.6" stroke-miterlimit="10"/>
<path d="M31.1579 115.644C30.7714 115.679 30.3817 115.632 30.0154 115.504C29.649 115.376 29.3144 115.172 29.0343 114.904C28.4241 114.352 26.7341 111.28 27.83 110.856C29.0383 110.4 31.8042 113.436 31.1579 115.644Z" fill="#108E66" stroke="#263238" stroke-width="0.6" stroke-miterlimit="10"/>
<path d="M31.159 115.644L28.8066 112.612" stroke="#263238" stroke-width="0.6" stroke-miterlimit="10"/>
<path d="M44.9952 122.768L39.7324 173.296" stroke="#263238" stroke-width="0.6" stroke-miterlimit="10"/>
<path d="M40.8968 163.66L39.0703 160.696" stroke="#263238" stroke-width="0.6" stroke-miterlimit="10"/>
<path d="M39.6281 161.6C39.7032 161.221 39.6962 160.831 39.6076 160.455C39.519 160.079 39.3508 159.726 39.1143 159.42C38.6245 158.76 35.7342 156.764 35.1963 157.82C34.6142 158.94 37.36 162 39.6281 161.6Z" fill="#108E66" stroke="#263238" stroke-width="0.6" stroke-miterlimit="10"/>
<path d="M39.6292 161.584L37.0078 159.076" stroke="#263238" stroke-width="0.6" stroke-miterlimit="10"/>
<path d="M42.3578 149.636L40.5312 146.672" stroke="#263238" stroke-width="0.6" stroke-miterlimit="10"/>
<path d="M41.0892 147.564C41.1642 147.185 41.1572 146.795 41.0686 146.419C40.98 146.043 40.8118 145.69 40.5753 145.384C40.0856 144.72 37.1953 142.728 36.6573 143.784C36.0753 144.916 38.817 147.976 41.0892 147.564Z" fill="#108E66" stroke="#263238" stroke-width="0.6" stroke-miterlimit="10"/>
<path d="M41.0902 147.564L38.4648 145.056" stroke="#263238" stroke-width="0.6" stroke-miterlimit="10"/>
<path d="M41.7601 155.384L39.9336 152.42" stroke="#263238" stroke-width="0.6" stroke-miterlimit="10"/>
<path d="M40.4915 153.308C40.5666 152.929 40.5596 152.539 40.4709 152.163C40.3823 151.787 40.2142 151.434 39.9777 151.128C39.4879 150.468 36.5976 148.472 36.0597 149.528C35.4776 150.664 38.2194 153.72 40.4915 153.308Z" fill="#108E66" stroke="#263238" stroke-width="0.6" stroke-miterlimit="10"/>
<path d="M40.4926 153.308L37.8672 150.8" stroke="#263238" stroke-width="0.6" stroke-miterlimit="10"/>
<path d="M43.3304 140.3L41.5039 137.34" stroke="#263238" stroke-width="0.6" stroke-miterlimit="10"/>
<path d="M42.0617 138.228C42.1368 137.849 42.1298 137.459 42.0412 137.083C41.9525 136.707 41.7844 136.354 41.5479 136.048C41.0581 135.384 38.1678 133.392 37.6299 134.448C37.0478 135.6 39.7936 138.64 42.0617 138.228Z" fill="#108E66" stroke="#263238" stroke-width="0.6" stroke-miterlimit="10"/>
<path d="M42.0608 138.228L39.4395 135.72" stroke="#263238" stroke-width="0.6" stroke-miterlimit="10"/>
<path d="M44.3049 130.928L42.4824 127.964" stroke="#263238" stroke-width="0.6" stroke-miterlimit="10"/>
<path d="M43.0363 128.852C43.1125 128.473 43.106 128.082 43.0173 127.706C42.9287 127.33 42.7599 126.977 42.5225 126.672C42.0328 126.012 39.1424 124.016 38.6045 125.072C38.0224 126.208 40.7682 129.264 43.0363 128.852Z" fill="#108E66" stroke="#263238" stroke-width="0.6" stroke-miterlimit="10"/>
<path d="M43.0374 128.852L40.416 126.344" stroke="#263238" stroke-width="0.6" stroke-miterlimit="10"/>
<path d="M41.207 160.248L43.6036 157.724" stroke="#263238" stroke-width="0.6" stroke-miterlimit="10"/>
<path d="M42.877 158.48C42.8805 158.094 42.9673 157.713 43.1314 157.363C43.2956 157.013 43.5332 156.702 43.8284 156.452C44.4466 155.904 47.6861 154.544 47.9912 155.68C48.3284 156.916 45.0126 159.348 42.877 158.48Z" fill="#108E66" stroke="#263238" stroke-width="0.6" stroke-miterlimit="10"/>
<path d="M42.877 158.48L46.1406 156.46" stroke="#263238" stroke-width="0.6" stroke-miterlimit="10"/>
<path d="M42.7793 145.128L45.1759 142.6" stroke="#263238" stroke-width="0.6" stroke-miterlimit="10"/>
<path d="M44.4492 143.356C44.454 142.97 44.5418 142.589 44.7066 142.239C44.8714 141.889 45.1094 141.579 45.4046 141.328C46.0188 140.78 49.2584 139.42 49.5675 140.56C49.9007 141.796 46.5848 144.224 44.4492 143.356Z" fill="#108E66" stroke="#263238" stroke-width="0.6" stroke-miterlimit="10"/>
<path d="M44.4492 143.356L47.7129 141.34" stroke="#263238" stroke-width="0.6" stroke-miterlimit="10"/>
<path d="M43.4746 138.48L45.8712 135.956" stroke="#263238" stroke-width="0.6" stroke-miterlimit="10"/>
<path d="M45.1406 136.712C45.1454 136.326 45.2332 135.945 45.398 135.595C45.5628 135.245 45.8008 134.935 46.096 134.684C46.7102 134.136 49.9498 132.776 50.2589 133.912C50.5801 135.148 47.2803 137.6 45.1406 136.712Z" fill="#108E66" stroke="#263238" stroke-width="0.6" stroke-miterlimit="10"/>
<path d="M45.1406 136.712L48.4083 134.692" stroke="#263238" stroke-width="0.6" stroke-miterlimit="10"/>
<path d="M44.4863 128.74L46.8869 126.212" stroke="#263238" stroke-width="0.6" stroke-miterlimit="10"/>
<path d="M46.1641 126.972C46.1686 126.586 46.2563 126.205 46.4211 125.855C46.5859 125.505 46.824 125.194 47.1195 124.944C47.7337 124.392 50.9732 123.032 51.2823 124.172C51.6075 125.408 48.2917 127.84 46.1641 126.972Z" fill="#108E66" stroke="#263238" stroke-width="0.6" stroke-miterlimit="10"/>
<path d="M46.1562 126.972L49.4239 124.952" stroke="#263238" stroke-width="0.6" stroke-miterlimit="10"/>
<path d="M45.0117 122.484C45.0166 122.098 45.1039 121.717 45.268 121.368C45.432 121.018 45.669 120.707 45.9631 120.456C46.5813 119.908 49.8209 118.548 50.126 119.684C50.4632 120.92 47.1473 123.352 45.0117 122.484Z" fill="#108E66" stroke="#263238" stroke-width="0.6" stroke-miterlimit="10"/>
<path d="M45.0117 122.484L48.2754 120.464" stroke="#263238" stroke-width="0.6" stroke-miterlimit="10"/>
<path d="M45.1437 122.628C44.7589 122.583 44.3883 122.457 44.0566 122.257C43.7249 122.058 43.4399 121.79 43.2208 121.472C42.7391 120.804 41.7194 117.452 42.8876 117.264C44.1561 117.064 46.2356 120.604 45.1437 122.628Z" fill="#108E66" stroke="#263238" stroke-width="0.6" stroke-miterlimit="10"/>
<path d="M45.1447 122.628L43.4707 119.184" stroke="#263238" stroke-width="0.6" stroke-miterlimit="10"/>
<path d="M38.9668 102.192V166.088" stroke="#263238" stroke-width="0.6" stroke-miterlimit="10"/>
<path d="M39.0181 156.48L36.8945 153.72" stroke="#263238" stroke-width="0.6" stroke-miterlimit="10"/>
<path d="M37.5414 154.548C37.5769 154.163 37.5294 153.775 37.402 153.41C37.2746 153.045 37.0702 152.712 36.8027 152.432C36.2488 151.824 33.1658 150.14 32.7402 151.232C32.2786 152.432 35.3255 155.2 37.5414 154.548Z" fill="#108E66" stroke="#263238" stroke-width="0.6" stroke-miterlimit="10"/>
<path d="M37.5421 154.548L34.6719 152.324" stroke="#263238" stroke-width="0.6" stroke-miterlimit="10"/>
<path d="M39.0181 144.472L36.8945 141.716" stroke="#263238" stroke-width="0.6" stroke-miterlimit="10"/>
<path d="M37.5414 142.54C37.5768 142.156 37.5293 141.769 37.4019 141.404C37.2744 141.04 37.0701 140.707 36.8027 140.428C36.2488 139.816 33.1658 138.132 32.7402 139.228C32.2786 140.428 35.3255 143.2 37.5414 142.54Z" fill="#108E66" stroke="#263238" stroke-width="0.6" stroke-miterlimit="10"/>
<path d="M37.5421 142.54L34.6719 140.316" stroke="#263238" stroke-width="0.6" stroke-miterlimit="10"/>
<path d="M39.0181 130.376L36.8945 127.616" stroke="#263238" stroke-width="0.6" stroke-miterlimit="10"/>
<path d="M37.5414 128.444C37.5769 128.059 37.5294 127.671 37.402 127.306C37.2746 126.941 37.0702 126.608 36.8027 126.328C36.2488 125.72 33.1658 124.036 32.7402 125.128C32.2786 126.328 35.3255 129.088 37.5414 128.444Z" fill="#108E66" stroke="#263238" stroke-width="0.6" stroke-miterlimit="10"/>
<path d="M37.5421 128.444L34.6719 126.22" stroke="#263238" stroke-width="0.6" stroke-miterlimit="10"/>
<path d="M39.0181 120.992L36.8945 118.232" stroke="#263238" stroke-width="0.6" stroke-miterlimit="10"/>
<path d="M37.5414 119.06C37.5769 118.675 37.5294 118.287 37.402 117.922C37.2746 117.557 37.0702 117.224 36.8027 116.944C36.2488 116.336 33.1658 114.648 32.7402 115.744C32.2786 116.944 35.3255 119.704 37.5414 119.06Z" fill="#108E66" stroke="#263238" stroke-width="0.6" stroke-miterlimit="10"/>
<path d="M37.5421 119.06L34.6719 116.836" stroke="#263238" stroke-width="0.6" stroke-miterlimit="10"/>
<path d="M39.0181 111.564L36.8945 108.808" stroke="#263238" stroke-width="0.6" stroke-miterlimit="10"/>
<path d="M37.5414 109.636C37.5769 109.251 37.5294 108.863 37.402 108.498C37.2746 108.133 37.0702 107.8 36.8027 107.52C36.2488 106.912 33.1658 105.224 32.7402 106.32C32.2786 107.52 35.3255 110.28 37.5414 109.636Z" fill="#108E66" stroke="#263238" stroke-width="0.6" stroke-miterlimit="10"/>
<path d="M37.5421 109.636L34.6719 107.412" stroke="#263238" stroke-width="0.6" stroke-miterlimit="10"/>
<path d="M38.9707 160.148L41.0943 157.388" stroke="#263238" stroke-width="0.6" stroke-miterlimit="10"/>
<path d="M40.447 158.216C40.4115 157.831 40.459 157.443 40.5864 157.078C40.7138 156.713 40.9181 156.38 41.1856 156.1C41.7396 155.492 44.8226 153.804 45.2481 154.9C45.7098 156.1 42.6629 158.86 40.447 158.216Z" fill="#108E66" stroke="#263238" stroke-width="0.6" stroke-miterlimit="10"/>
<path d="M40.4473 158.216L43.4861 155.872" stroke="#263238" stroke-width="0.6" stroke-miterlimit="10"/>
<path d="M38.9707 141.052L41.0943 138.292" stroke="#263238" stroke-width="0.6" stroke-miterlimit="10"/>
<path d="M40.447 139.12C40.4115 138.735 40.459 138.347 40.5864 137.982C40.7138 137.617 40.9181 137.284 41.1856 137.004C41.7396 136.396 44.8226 134.708 45.2481 135.804C45.7098 137.004 42.6629 139.764 40.447 139.12Z" fill="#108E66" stroke="#263238" stroke-width="0.6" stroke-miterlimit="10"/>
<path d="M40.4473 139.12L43.4861 136.776" stroke="#263238" stroke-width="0.6" stroke-miterlimit="10"/>
<path d="M38.9707 131.624L41.0943 128.864" stroke="#263238" stroke-width="0.6" stroke-miterlimit="10"/>
<path d="M40.447 129.692C40.4115 129.307 40.459 128.919 40.5864 128.554C40.7138 128.189 40.9181 127.856 41.1856 127.576C41.7396 126.968 44.8226 125.284 45.2481 126.376C45.7098 127.576 42.6629 130.336 40.447 129.692Z" fill="#108E66" stroke="#263238" stroke-width="0.6" stroke-miterlimit="10"/>
<path d="M40.4473 129.692L43.4861 127.348" stroke="#263238" stroke-width="0.6" stroke-miterlimit="10"/>
<path d="M38.9707 119.168L41.0943 116.408" stroke="#263238" stroke-width="0.6" stroke-miterlimit="10"/>
<path d="M40.447 117.236C40.4115 116.851 40.459 116.463 40.5864 116.098C40.7138 115.733 40.9181 115.4 41.1856 115.12C41.7396 114.512 44.8226 112.824 45.2481 113.92C45.7098 115.12 42.6629 117.88 40.447 117.236Z" fill="#108E66" stroke="#263238" stroke-width="0.6" stroke-miterlimit="10"/>
<path d="M40.4473 117.236L43.4861 114.892" stroke="#263238" stroke-width="0.6" stroke-miterlimit="10"/>
<path d="M38.9707 109.372L41.0943 106.612" stroke="#263238" stroke-width="0.6" stroke-miterlimit="10"/>
<path d="M40.447 107.44C40.4115 107.055 40.459 106.667 40.5864 106.302C40.7138 105.937 40.9181 105.604 41.1856 105.324C41.7396 104.716 44.8226 103.032 45.2481 104.124C45.7098 105.324 42.6629 108.084 40.447 107.44Z" fill="#108E66" stroke="#263238" stroke-width="0.6" stroke-miterlimit="10"/>
<path d="M40.4473 107.44L43.4861 105.096" stroke="#263238" stroke-width="0.6" stroke-miterlimit="10"/>
<path d="M38.8456 103.096C38.8098 102.711 38.8569 102.324 38.9835 101.959C39.1102 101.594 39.3137 101.26 39.5802 100.98C40.1382 100.372 43.2172 98.688 43.6427 99.78C44.1044 100.98 41.0575 103.74 38.8456 103.096Z" fill="#108E66" stroke="#263238" stroke-width="0.6" stroke-miterlimit="10"/>
<path d="M38.8457 103.096L41.8805 100.752" stroke="#263238" stroke-width="0.6" stroke-miterlimit="10"/>
<path d="M38.9907 103.228C38.6032 103.223 38.2212 103.135 37.8708 102.97C37.5203 102.805 37.2095 102.567 36.9594 102.272C36.4095 101.66 35.0486 98.428 36.1927 98.124C37.4331 97.792 39.8658 101.1 38.9907 103.228Z" fill="#108E66" stroke="#263238" stroke-width="0.6" stroke-miterlimit="10"/>
<path d="M38.9899 103.228L36.9707 99.972" stroke="#263238" stroke-width="0.6" stroke-miterlimit="10"/>
<path d="M41.6041 182.66H34.8159L33.9648 165.568H42.4552L41.6041 182.66Z" fill="#263238" stroke="#263238" stroke-width="0.6" stroke-miterlimit="10"/>
<path d="M258.566 115.812L263.857 166.332" stroke="#263238" stroke-width="0.6" stroke-miterlimit="10"/>
<path d="M263.006 156.664L260.605 154.14" stroke="#263238" stroke-width="0.6" stroke-miterlimit="10"/>
<path d="M261.333 154.896C261.328 154.51 261.24 154.129 261.076 153.779C260.911 153.429 260.673 153.119 260.378 152.868C259.763 152.32 256.52 150.964 256.215 152.1C255.881 153.336 259.201 155.768 261.333 154.896Z" fill="#108E66" stroke="#263238" stroke-width="0.6" stroke-miterlimit="10"/>
<path d="M261.337 154.896L258.25 152.98" stroke="#263238" stroke-width="0.6" stroke-miterlimit="10"/>
<path d="M263.61 162.412L261.209 159.888" stroke="#263238" stroke-width="0.6" stroke-miterlimit="10"/>
<path d="M261.939 160.644C261.934 160.258 261.847 159.877 261.682 159.527C261.517 159.177 261.279 158.866 260.984 158.616C260.365 158.068 257.126 156.708 256.821 157.844C256.483 159.084 259.803 161.512 261.939 160.644Z" fill="#108E66" stroke="#263238" stroke-width="0.6" stroke-miterlimit="10"/>
<path d="M261.939 160.644L258.852 158.728" stroke="#263238" stroke-width="0.6" stroke-miterlimit="10"/>
<path d="M261.537 142.644L259.137 140.12" stroke="#263238" stroke-width="0.6" stroke-miterlimit="10"/>
<path d="M259.868 140.876C259.863 140.49 259.776 140.109 259.611 139.759C259.446 139.409 259.208 139.099 258.913 138.848C258.299 138.3 255.055 136.94 254.75 138.08C254.417 139.316 257.721 141.744 259.868 140.876Z" fill="#108E66" stroke="#263238" stroke-width="0.6" stroke-miterlimit="10"/>
<path d="M259.868 140.876L256.781 138.96" stroke="#263238" stroke-width="0.6" stroke-miterlimit="10"/>
<path d="M262.139 148.388L259.738 145.864" stroke="#263238" stroke-width="0.6" stroke-miterlimit="10"/>
<path d="M260.47 146.62C260.465 146.234 260.378 145.853 260.213 145.503C260.048 145.153 259.81 144.843 259.515 144.592C258.901 144.044 255.657 142.688 255.352 143.824C255.015 145.06 258.335 147.492 260.47 146.62Z" fill="#108E66" stroke="#263238" stroke-width="0.6" stroke-miterlimit="10"/>
<path d="M260.47 146.62L257.383 144.704" stroke="#263238" stroke-width="0.6" stroke-miterlimit="10"/>
<path d="M260.559 133.308L258.162 130.784" stroke="#263238" stroke-width="0.6" stroke-miterlimit="10"/>
<path d="M258.888 131.54C258.883 131.154 258.795 130.773 258.631 130.424C258.467 130.074 258.23 129.763 257.936 129.512C257.318 128.968 254.078 127.608 253.769 128.744C253.436 130 256.752 132.4 258.888 131.54Z" fill="#108E66" stroke="#263238" stroke-width="0.6" stroke-miterlimit="10"/>
<path d="M258.888 131.54L255.805 129.624" stroke="#263238" stroke-width="0.6" stroke-miterlimit="10"/>
<path d="M259.578 123.936L257.178 121.412" stroke="#263238" stroke-width="0.6" stroke-miterlimit="10"/>
<path d="M257.908 122.168C257.903 121.782 257.815 121.401 257.65 121.051C257.486 120.701 257.248 120.391 256.952 120.14C256.338 119.592 253.095 118.232 252.789 119.372C252.452 120.608 255.772 123.036 257.908 122.168Z" fill="#108E66" stroke="#263238" stroke-width="0.6" stroke-miterlimit="10"/>
<path d="M257.909 122.168L254.822 120.252" stroke="#263238" stroke-width="0.6" stroke-miterlimit="10"/>
<path d="M262.602 153.264L264.428 150.3" stroke="#263238" stroke-width="0.6" stroke-miterlimit="10"/>
<path d="M263.87 151.2C263.795 150.821 263.802 150.431 263.89 150.055C263.979 149.679 264.147 149.326 264.384 149.02C264.873 148.356 267.764 146.36 268.298 147.42C268.884 148.544 266.15 151.6 263.87 151.2Z" fill="#108E66" stroke="#263238" stroke-width="0.6" stroke-miterlimit="10"/>
<path d="M263.869 151.192L266.647 148.544" stroke="#263238" stroke-width="0.6" stroke-miterlimit="10"/>
<path d="M261.02 138.144L262.842 135.18" stroke="#263238" stroke-width="0.6" stroke-miterlimit="10"/>
<path d="M262.289 136.072C262.213 135.693 262.219 135.302 262.308 134.926C262.397 134.55 262.565 134.197 262.803 133.892C263.289 133.228 266.179 131.232 266.717 132.292C267.299 133.424 264.545 136.48 262.289 136.072Z" fill="#108E66" stroke="#263238" stroke-width="0.6" stroke-miterlimit="10"/>
<path d="M262.289 136.072L265.067 133.424" stroke="#263238" stroke-width="0.6" stroke-miterlimit="10"/>
<path d="M260.32 131.5L262.147 128.536" stroke="#263238" stroke-width="0.6" stroke-miterlimit="10"/>
<path d="M261.591 129.424C261.516 129.045 261.523 128.655 261.611 128.279C261.7 127.903 261.868 127.55 262.104 127.244C262.594 126.584 265.484 124.588 266.018 125.644C266.604 126.776 263.863 129.836 261.591 129.424Z" fill="#108E66" stroke="#263238" stroke-width="0.6" stroke-miterlimit="10"/>
<path d="M261.59 129.424L264.368 126.78" stroke="#263238" stroke-width="0.6" stroke-miterlimit="10"/>
<path d="M259.301 121.76L261.127 118.796" stroke="#263238" stroke-width="0.6" stroke-miterlimit="10"/>
<path d="M260.569 119.684C260.494 119.305 260.501 118.915 260.59 118.539C260.678 118.163 260.846 117.81 261.083 117.504C261.573 116.84 264.463 114.844 264.997 115.904C265.583 117.036 262.841 120.096 260.569 119.684Z" fill="#108E66" stroke="#263238" stroke-width="0.6" stroke-miterlimit="10"/>
<path d="M260.57 119.684L263.348 117.04" stroke="#263238" stroke-width="0.6" stroke-miterlimit="10"/>
<path d="M258.522 115.528C258.447 115.149 258.454 114.759 258.543 114.383C258.631 114.007 258.8 113.654 259.036 113.348C259.526 112.688 262.416 110.692 262.95 111.748C263.536 112.88 260.794 115.94 258.522 115.528Z" fill="#108E66" stroke="#263238" stroke-width="0.6" stroke-miterlimit="10"/>
<path d="M258.523 115.528L261.301 112.884" stroke="#263238" stroke-width="0.6" stroke-miterlimit="10"/>
<path d="M258.684 115.644C258.297 115.679 257.907 115.632 257.541 115.504C257.175 115.376 256.84 115.172 256.56 114.904C255.95 114.352 254.264 111.28 255.356 110.856C256.568 110.4 259.326 113.436 258.684 115.644Z" fill="#108E66" stroke="#263238" stroke-width="0.6" stroke-miterlimit="10"/>
<path d="M258.682 115.644L256.334 112.612" stroke="#263238" stroke-width="0.6" stroke-miterlimit="10"/>
<path d="M272.525 122.768L267.262 173.296" stroke="#263238" stroke-width="0.6" stroke-miterlimit="10"/>
<path d="M268.426 163.66L266.6 160.696" stroke="#263238" stroke-width="0.6" stroke-miterlimit="10"/>
<path d="M267.157 161.6C267.232 161.221 267.225 160.83 267.135 160.454C267.046 160.078 266.877 159.725 266.64 159.42C266.15 158.76 263.259 156.764 262.726 157.82C262.135 158.94 264.885 162 267.157 161.6Z" fill="#108E66" stroke="#263238" stroke-width="0.6" stroke-miterlimit="10"/>
<path d="M267.157 161.584L264.531 159.076" stroke="#263238" stroke-width="0.6" stroke-miterlimit="10"/>
<path d="M269.887 149.636L268.061 146.672" stroke="#263238" stroke-width="0.6" stroke-miterlimit="10"/>
<path d="M268.615 147.564C268.691 147.185 268.685 146.794 268.596 146.418C268.508 146.042 268.339 145.689 268.102 145.384C267.612 144.72 264.721 142.728 264.188 143.784C263.601 144.916 266.347 147.976 268.615 147.564Z" fill="#108E66" stroke="#263238" stroke-width="0.6" stroke-miterlimit="10"/>
<path d="M268.616 147.564L265.994 145.056" stroke="#263238" stroke-width="0.6" stroke-miterlimit="10"/>
<path d="M269.289 155.384L267.463 152.42" stroke="#263238" stroke-width="0.6" stroke-miterlimit="10"/>
<path d="M268.016 153.308C268.092 152.929 268.085 152.538 267.997 152.162C267.908 151.786 267.739 151.433 267.502 151.128C267.012 150.468 264.122 148.472 263.588 149.528C263.002 150.664 265.748 153.72 268.016 153.308Z" fill="#108E66" stroke="#263238" stroke-width="0.6" stroke-miterlimit="10"/>
<path d="M268.016 153.308L265.395 150.8" stroke="#263238" stroke-width="0.6" stroke-miterlimit="10"/>
<path d="M270.858 140.3L269.031 137.34" stroke="#263238" stroke-width="0.6" stroke-miterlimit="10"/>
<path d="M269.591 138.228C269.666 137.849 269.658 137.458 269.569 137.082C269.48 136.706 269.311 136.354 269.073 136.048C268.584 135.384 265.693 133.392 265.159 134.448C264.577 135.6 267.319 138.64 269.591 138.228Z" fill="#108E66" stroke="#263238" stroke-width="0.6" stroke-miterlimit="10"/>
<path d="M269.59 138.228L266.965 135.72" stroke="#263238" stroke-width="0.6" stroke-miterlimit="10"/>
<path d="M271.834 130.928L270.008 127.964" stroke="#263238" stroke-width="0.6" stroke-miterlimit="10"/>
<path d="M270.566 128.852C270.64 128.473 270.633 128.082 270.544 127.706C270.454 127.33 270.285 126.978 270.048 126.672C269.562 126.012 266.672 124.016 266.134 125.072C265.552 126.208 268.294 129.264 270.566 128.852Z" fill="#108E66" stroke="#263238" stroke-width="0.6" stroke-miterlimit="10"/>
<path d="M270.565 128.852L267.939 126.344" stroke="#263238" stroke-width="0.6" stroke-miterlimit="10"/>
<path d="M268.734 160.248L271.131 157.724" stroke="#263238" stroke-width="0.6" stroke-miterlimit="10"/>
<path d="M270.4 158.48C270.405 158.094 270.493 157.713 270.658 157.363C270.823 157.013 271.061 156.703 271.356 156.452C271.97 155.904 275.21 154.544 275.519 155.68C275.852 156.916 272.54 159.348 270.4 158.48Z" fill="#108E66" stroke="#263238" stroke-width="0.6" stroke-miterlimit="10"/>
<path d="M270.4 158.48L273.668 156.46" stroke="#263238" stroke-width="0.6" stroke-miterlimit="10"/>
<path d="M270.309 145.128L272.705 142.6" stroke="#263238" stroke-width="0.6" stroke-miterlimit="10"/>
<path d="M271.979 143.356C271.982 142.97 272.069 142.589 272.233 142.239C272.397 141.889 272.635 141.578 272.93 141.328C273.544 140.78 276.784 139.42 277.093 140.56C277.43 141.796 274.114 144.224 271.979 143.356Z" fill="#108E66" stroke="#263238" stroke-width="0.6" stroke-miterlimit="10"/>
<path d="M271.979 143.356L275.242 141.34" stroke="#263238" stroke-width="0.6" stroke-miterlimit="10"/>
<path d="M271 138.48L273.397 135.956" stroke="#263238" stroke-width="0.6" stroke-miterlimit="10"/>
<path d="M272.67 136.712C272.675 136.326 272.762 135.945 272.927 135.595C273.092 135.245 273.33 134.935 273.625 134.684C274.24 134.136 277.479 132.776 277.788 133.912C278.121 135.148 274.806 137.6 272.67 136.712Z" fill="#108E66" stroke="#263238" stroke-width="0.6" stroke-miterlimit="10"/>
<path d="M272.67 136.712L275.934 134.692" stroke="#263238" stroke-width="0.6" stroke-miterlimit="10"/>
<path d="M272.016 128.74L274.412 126.212" stroke="#263238" stroke-width="0.6" stroke-miterlimit="10"/>
<path d="M273.686 126.972C273.689 126.586 273.775 126.205 273.94 125.855C274.104 125.505 274.342 125.194 274.637 124.944C275.255 124.392 278.495 123.032 278.8 124.172C279.137 125.408 275.821 127.84 273.686 126.972Z" fill="#108E66" stroke="#263238" stroke-width="0.6" stroke-miterlimit="10"/>
<path d="M273.686 126.972L276.949 124.952" stroke="#263238" stroke-width="0.6" stroke-miterlimit="10"/>
<path d="M272.537 122.484C272.542 122.098 272.63 121.717 272.794 121.367C272.959 121.017 273.197 120.706 273.493 120.456C274.107 119.908 277.346 118.548 277.655 119.684C277.993 120.92 274.677 123.352 272.537 122.484Z" fill="#108E66" stroke="#263238" stroke-width="0.6" stroke-miterlimit="10"/>
<path d="M272.537 122.484L275.805 120.464" stroke="#263238" stroke-width="0.6" stroke-miterlimit="10"/>
<path d="M272.673 122.628C272.288 122.583 271.917 122.457 271.584 122.258C271.252 122.058 270.966 121.79 270.746 121.472C270.265 120.804 269.249 117.452 270.413 117.264C271.686 117.064 273.777 120.604 272.673 122.628Z" fill="#108E66" stroke="#263238" stroke-width="0.6" stroke-miterlimit="10"/>
<path d="M272.674 122.628L271 119.184" stroke="#263238" stroke-width="0.6" stroke-miterlimit="10"/>
<path d="M266.496 102.192V166.088" stroke="#263238" stroke-width="0.6" stroke-miterlimit="10"/>
<path d="M266.543 156.48L264.424 153.72" stroke="#263238" stroke-width="0.6" stroke-miterlimit="10"/>
<path d="M265.071 154.548C265.106 154.163 265.059 153.775 264.931 153.41C264.804 153.045 264.6 152.712 264.332 152.432C263.774 151.824 260.695 150.14 260.27 151.232C259.808 152.432 262.855 155.2 265.071 154.548Z" fill="#108E66" stroke="#263238" stroke-width="0.6" stroke-miterlimit="10"/>
<path d="M265.069 154.548L262.199 152.324" stroke="#263238" stroke-width="0.6" stroke-miterlimit="10"/>
<path d="M266.543 144.472L264.424 141.716" stroke="#263238" stroke-width="0.6" stroke-miterlimit="10"/>
<path d="M265.071 142.54C265.106 142.156 265.059 141.769 264.931 141.404C264.804 141.04 264.599 140.707 264.332 140.428C263.774 139.816 260.695 138.132 260.27 139.228C259.808 140.428 262.855 143.2 265.071 142.54Z" fill="#108E66" stroke="#263238" stroke-width="0.6" stroke-miterlimit="10"/>
<path d="M265.069 142.54L262.199 140.316" stroke="#263238" stroke-width="0.6" stroke-miterlimit="10"/>
<path d="M266.543 130.376L264.424 127.616" stroke="#263238" stroke-width="0.6" stroke-miterlimit="10"/>
<path d="M265.071 128.444C265.106 128.059 265.059 127.671 264.931 127.306C264.804 126.941 264.6 126.608 264.332 126.328C263.774 125.72 260.695 124.036 260.27 125.128C259.808 126.328 262.855 129.088 265.071 128.444Z" fill="#108E66" stroke="#263238" stroke-width="0.6" stroke-miterlimit="10"/>
<path d="M265.069 128.444L262.199 126.22" stroke="#263238" stroke-width="0.6" stroke-miterlimit="10"/>
<path d="M266.543 120.992L264.424 118.232" stroke="#263238" stroke-width="0.6" stroke-miterlimit="10"/>
<path d="M265.071 119.06C265.106 118.675 265.059 118.287 264.931 117.922C264.804 117.557 264.6 117.224 264.332 116.944C263.774 116.336 260.695 114.648 260.27 115.744C259.808 116.944 262.855 119.704 265.071 119.06Z" fill="#108E66" stroke="#263238" stroke-width="0.6" stroke-miterlimit="10"/>
<path d="M265.069 119.06L262.199 116.836" stroke="#263238" stroke-width="0.6" stroke-miterlimit="10"/>
<path d="M266.543 111.564L264.424 108.808" stroke="#263238" stroke-width="0.6" stroke-miterlimit="10"/>
<path d="M265.071 109.636C265.106 109.251 265.059 108.863 264.931 108.498C264.804 108.133 264.6 107.8 264.332 107.52C263.774 106.912 260.695 105.224 260.27 106.32C259.808 107.52 262.855 110.28 265.071 109.636Z" fill="#108E66" stroke="#263238" stroke-width="0.6" stroke-miterlimit="10"/>
<path d="M265.069 109.636L262.199 107.412" stroke="#263238" stroke-width="0.6" stroke-miterlimit="10"/>
<path d="M266.5 160.148L268.624 157.388" stroke="#263238" stroke-width="0.6" stroke-miterlimit="10"/>
<path d="M267.976 158.216C267.941 157.831 267.988 157.443 268.116 157.078C268.243 156.713 268.447 156.38 268.715 156.1C269.269 155.492 272.352 153.804 272.773 154.9C273.235 156.1 270.188 158.86 267.976 158.216Z" fill="#108E66" stroke="#263238" stroke-width="0.6" stroke-miterlimit="10"/>
<path d="M267.977 158.216L271.015 155.872" stroke="#263238" stroke-width="0.6" stroke-miterlimit="10"/>
<path d="M266.5 141.052L268.624 138.292" stroke="#263238" stroke-width="0.6" stroke-miterlimit="10"/>
<path d="M267.976 139.12C267.941 138.735 267.988 138.347 268.116 137.982C268.243 137.617 268.447 137.284 268.715 137.004C269.269 136.396 272.352 134.708 272.773 135.804C273.235 137.004 270.188 139.764 267.976 139.12Z" fill="#108E66" stroke="#263238" stroke-width="0.6" stroke-miterlimit="10"/>
<path d="M267.977 139.12L271.015 136.776" stroke="#263238" stroke-width="0.6" stroke-miterlimit="10"/>
<path d="M266.5 131.624L268.624 128.864" stroke="#263238" stroke-width="0.6" stroke-miterlimit="10"/>
<path d="M267.976 129.692C267.941 129.307 267.988 128.919 268.116 128.554C268.243 128.189 268.447 127.856 268.715 127.576C269.269 126.968 272.352 125.284 272.773 126.376C273.235 127.576 270.188 130.336 267.976 129.692Z" fill="#108E66" stroke="#263238" stroke-width="0.6" stroke-miterlimit="10"/>
<path d="M267.977 129.692L271.015 127.348" stroke="#263238" stroke-width="0.6" stroke-miterlimit="10"/>
<path d="M266.5 119.168L268.624 116.408" stroke="#263238" stroke-width="0.6" stroke-miterlimit="10"/>
<path d="M267.976 117.236C267.941 116.851 267.988 116.463 268.116 116.098C268.243 115.733 268.447 115.4 268.715 115.12C269.269 114.512 272.352 112.824 272.773 113.92C273.235 115.12 270.188 117.88 267.976 117.236Z" fill="#108E66" stroke="#263238" stroke-width="0.6" stroke-miterlimit="10"/>
<path d="M267.977 117.236L271.015 114.892" stroke="#263238" stroke-width="0.6" stroke-miterlimit="10"/>
<path d="M266.5 109.372L268.624 106.612" stroke="#263238" stroke-width="0.6" stroke-miterlimit="10"/>
<path d="M267.976 107.44C267.941 107.055 267.988 106.667 268.116 106.302C268.243 105.937 268.447 105.604 268.715 105.324C269.269 104.716 272.352 103.032 272.773 104.124C273.235 105.324 270.188 108.084 267.976 107.44Z" fill="#108E66" stroke="#263238" stroke-width="0.6" stroke-miterlimit="10"/>
<path d="M267.977 107.44L271.015 105.096" stroke="#263238" stroke-width="0.6" stroke-miterlimit="10"/>
<path d="M266.371 103.096C266.335 102.711 266.383 102.323 266.51 101.958C266.638 101.593 266.842 101.26 267.109 100.98C267.663 100.372 270.746 98.688 271.172 99.78C271.634 100.98 268.587 103.74 266.371 103.096Z" fill="#108E66" stroke="#263238" stroke-width="0.6" stroke-miterlimit="10"/>
<path d="M266.371 103.096L269.41 100.752" stroke="#263238" stroke-width="0.6" stroke-miterlimit="10"/>
<path d="M266.52 103.228C266.131 103.223 265.749 103.135 265.398 102.97C265.047 102.805 264.735 102.567 264.484 102.272C263.938 101.66 262.578 98.428 263.718 98.124C264.946 97.792 267.395 101.1 266.52 103.228Z" fill="#108E66" stroke="#263238" stroke-width="0.6" stroke-miterlimit="10"/>
<path d="M266.519 103.228L264.5 99.972" stroke="#263238" stroke-width="0.6" stroke-miterlimit="10"/>
<path d="M269.133 182.66H262.341L261.494 165.568H269.98L269.133 182.66Z" fill="#263238" stroke="#263238" stroke-width="0.6" stroke-miterlimit="10"/>
<path d="M271.77 47.6C271.771 45.3272 271.223 43.0877 270.171 41.0709C269.12 39.0541 267.596 37.3195 265.729 36.0137C263.862 34.708 261.707 33.8696 259.446 33.5695C257.186 33.2695 254.885 33.5165 252.741 34.2899C250.596 35.0632 248.669 36.34 247.125 38.0122C245.58 39.6844 244.462 41.7028 243.866 43.8965C243.27 46.0903 243.214 48.3948 243.701 50.6151C244.188 52.8354 245.204 54.9061 246.665 56.652C248.756 59.1496 249.901 62.2993 249.9 65.552V67.488H265.227V65.552C265.218 62.3045 266.355 59.1572 268.439 56.66C270.584 54.1246 271.764 50.9165 271.77 47.6Z" fill="white" stroke="#263238" stroke-width="0.6" stroke-linecap="round" stroke-linejoin="round"/>
<path d="M265.228 67.4919H249.881V71.2759H265.228V67.4919Z" fill="#108E66" stroke="#263238" stroke-width="0.6" stroke-linecap="round" stroke-linejoin="round"/>
<path d="M249.881 71.2841H265.228V73.1761C265.228 73.6778 265.028 74.1591 264.672 74.5139C264.316 74.8687 263.833 75.0681 263.329 75.0681H251.776C251.272 75.0681 250.789 74.8687 250.433 74.5139C250.077 74.1591 249.877 73.6778 249.877 73.1761V71.2841H249.881Z" fill="#108E66" stroke="#263238" stroke-width="0.6" stroke-linecap="round" stroke-linejoin="round"/>
<path d="M251.814 75.064H263.287V76.264C263.287 76.944 263.016 77.5961 262.534 78.077C262.051 78.5578 261.397 78.828 260.714 78.828H254.388C253.705 78.828 253.051 78.5578 252.568 78.077C252.086 77.5961 251.814 76.944 251.814 76.264V75.064Z" fill="#263238" stroke="#263238" stroke-width="0.6" stroke-linecap="round" stroke-linejoin="round"/>
<path d="M273.766 47.676H280.269" stroke="#263238" stroke-width="0.6" stroke-linecap="round" stroke-linejoin="round"/>
<path d="M234.229 47.676H240.816" stroke="#263238" stroke-width="0.6" stroke-linecap="round" stroke-linejoin="round"/>
<path d="M257.25 31.236V24.74" stroke="#263238" stroke-width="0.6" stroke-linecap="round" stroke-linejoin="round"/>
<path d="M269.037 35.9279L273.525 31.4559" stroke="#263238" stroke-width="0.6" stroke-linecap="round" stroke-linejoin="round"/>
<path d="M240.973 63.892L245.525 59.356" stroke="#263238" stroke-width="0.6" stroke-linecap="round" stroke-linejoin="round"/>
<path d="M245.332 35.7999L240.973 31.4559" stroke="#263238" stroke-width="0.6" stroke-linecap="round" stroke-linejoin="round"/>
<path d="M273.525 63.892L269.186 59.568" stroke="#263238" stroke-width="0.6" stroke-linecap="round" stroke-linejoin="round"/>
<path d="M173.641 42.8481L154.85 16.9561L136.055 42.8481H143.786V71.6121H165.913V42.8481H173.641Z" fill="#108E66" stroke="#263238" stroke-width="0.6" stroke-linecap="round" stroke-linejoin="round"/>
<path d="M157.807 87.0986C168.369 85.3978 175.548 75.4869 173.841 64.9622C172.134 54.4374 162.188 47.2843 151.625 48.9851C141.063 50.686 133.884 60.5968 135.591 71.1216C137.298 81.6463 147.244 88.7995 157.807 87.0986Z" fill="white" stroke="#263238" stroke-width="0.6" stroke-linecap="round" stroke-linejoin="round"/>
<path d="M169.469 75.4538C173.576 67.3388 170.303 57.443 162.159 53.3509C154.015 49.2588 144.084 52.52 139.977 60.635C135.87 68.7501 139.143 78.6459 147.287 82.738C155.431 86.8301 165.363 83.5688 169.469 75.4538Z" fill="white" stroke="#263238" stroke-width="0.6" stroke-linecap="round" stroke-linejoin="round"/>
<path d="M160.232 70.5081C160.232 66.2001 154.107 66.1081 154.107 64.3081C154.107 63.3641 154.604 63.0801 155.628 63.0801C156.507 63.0801 157.234 63.4561 158.097 64.2161L160.104 61.8961C159.171 60.8442 157.907 60.1391 156.519 59.8961V57.4961H153.87V60.0001C151.582 60.4921 150.213 62.1161 150.213 64.5081C150.213 68.6521 156.339 68.9081 156.339 70.8041C156.339 71.7281 155.865 72.1281 154.677 72.1281C153.681 72.1281 152.669 71.7521 151.401 70.8041L149.643 73.5481C150.847 74.5405 152.316 75.1618 153.87 75.3361V77.7121H156.531V75.1681C159.008 74.5681 160.232 72.8001 160.232 70.5081Z" fill="#108E66" stroke="#263238" stroke-width="0.6" stroke-linecap="round" stroke-linejoin="round"/>
<path d="M58.8499 54.1353C65.7041 52.8966 70.2527 46.3558 69.0096 39.5261C67.7664 32.6964 61.2022 28.1641 54.3481 29.4028C47.4939 30.6415 42.9453 37.1822 44.1884 44.0119C45.4316 50.8416 51.9957 55.374 58.8499 54.1353Z" fill="white" stroke="#263238" stroke-width="0.6" stroke-linecap="round" stroke-linejoin="round"/>
<path d="M60.1623 29.724L56.6016 41.772H69.2146C69.2134 39.0592 68.3309 36.4196 66.6992 34.248C65.0676 32.0763 62.7743 30.4892 60.1623 29.724Z" fill="#108E66" stroke="#263238" stroke-width="0.6" stroke-linecap="round" stroke-linejoin="round"/>
<path d="M64.4336 33.844L69.4395 27.964H73.7348" stroke="#263238" stroke-width="0.6" stroke-linecap="round" stroke-linejoin="round"/>
<path d="M76.7773 28.1399H83.2163" stroke="#263238" stroke-width="0.6" stroke-linecap="round" stroke-linejoin="round"/>
<path d="M76.7773 29.7439H83.2163" stroke="#263238" stroke-width="0.6" stroke-linecap="round" stroke-linejoin="round"/>
<path d="M76.7773 31.3479H83.2163" stroke="#263238" stroke-width="0.6" stroke-linecap="round" stroke-linejoin="round"/>
<path d="M76.7773 32.9519H83.2163" stroke="#263238" stroke-width="0.6" stroke-linecap="round" stroke-linejoin="round"/>
<path d="M44.5343 67.6279H40.8652V78.5359H44.5343V67.6279Z" fill="#263238" stroke="#263238" stroke-width="0.6" stroke-linecap="round" stroke-linejoin="round"/>
<path d="M50.298 71.5519H46.6289V78.5359H50.298V71.5519Z" fill="#108E66" stroke="#263238" stroke-width="0.6" stroke-linecap="round" stroke-linejoin="round"/>
<path d="M56.0675 65.24H52.3984V78.536H56.0675V65.24Z" fill="#263238" stroke="#263238" stroke-width="0.6" stroke-linecap="round" stroke-linejoin="round"/>
<path d="M61.8371 67.9919H58.168V78.5399H61.8371V67.9919Z" fill="#108E66" stroke="#263238" stroke-width="0.6" stroke-linecap="round" stroke-linejoin="round"/>
<path d="M67.6007 65.58H63.9316V78.536H67.6007V65.58Z" fill="#263238" stroke="#263238" stroke-width="0.6" stroke-linecap="round" stroke-linejoin="round"/>
<path d="M73.3703 57.9039H69.7012V78.5399H73.3703V57.9039Z" fill="#108E66" stroke="#263238" stroke-width="0.6" stroke-linecap="round" stroke-linejoin="round"/>
<path d="M77.4922 57.688H79.6399" stroke="#263238" stroke-width="0.6" stroke-linecap="round" stroke-linejoin="round"/>
<path d="M77.4922 61.856H79.6399" stroke="#263238" stroke-width="0.6" stroke-linecap="round" stroke-linejoin="round"/>
<path d="M77.4922 66.028H79.6399" stroke="#263238" stroke-width="0.6" stroke-linecap="round" stroke-linejoin="round"/>
<path d="M77.4922 70.2H79.6399" stroke="#263238" stroke-width="0.6" stroke-linecap="round" stroke-linejoin="round"/>
<path d="M77.4922 74.3719H79.6399" stroke="#263238" stroke-width="0.6" stroke-linecap="round" stroke-linejoin="round"/>
<path d="M77.4922 78.5399H79.6399" stroke="#263238" stroke-width="0.6" stroke-linecap="round" stroke-linejoin="round"/>
<path d="M42.9648 63.6079L48.5849 66.9959L54.4338 60.7559L60.2104 61.2399L65.8064 59.0279L72.1411 50.7239" stroke="#263238" stroke-width="0.6" stroke-linecap="round" stroke-linejoin="round"/>
<path d="M43.6711 63.6C43.6711 63.4598 43.6293 63.3227 43.551 63.2062C43.4728 63.0897 43.3616 62.9989 43.2315 62.9455C43.1014 62.892 42.9584 62.8782 42.8204 62.9059C42.6825 62.9335 42.5559 63.0013 42.4567 63.1008C42.3575 63.2002 42.2901 63.3267 42.2632 63.4643C42.2362 63.6019 42.2509 63.7444 42.3052 63.8737C42.3596 64.003 42.4513 64.1133 42.5687 64.1906C42.6861 64.2679 42.8239 64.3088 42.9646 64.308C43.0577 64.308 43.1499 64.2896 43.2359 64.254C43.3218 64.2184 43.3999 64.1661 43.4656 64.1003C43.5312 64.0346 43.5832 63.9565 43.6185 63.8706C43.6537 63.7847 43.6716 63.6927 43.6711 63.6Z" fill="#263238"/>
<path d="M49.2961 66.996C49.2961 66.8559 49.2544 66.719 49.1763 66.6026C49.0983 66.4862 48.9873 66.3954 48.8575 66.3419C48.7276 66.2883 48.5848 66.2742 48.4469 66.3016C48.3091 66.3289 48.1825 66.3963 48.0831 66.4953C47.9837 66.5943 47.9161 66.7205 47.8887 66.8578C47.8612 66.9952 47.8753 67.1375 47.9291 67.2669C47.9829 67.3963 48.0739 67.5068 48.1908 67.5846C48.3076 67.6624 48.445 67.704 48.5855 67.704C48.679 67.7045 48.7716 67.6865 48.8581 67.6512C48.9445 67.6158 49.0231 67.5636 49.0892 67.4978C49.1552 67.4319 49.2076 67.3537 49.2431 67.2675C49.2786 67.1814 49.2966 67.0891 49.2961 66.996Z" fill="#263238"/>
<path d="M55.1398 60.756C55.1398 60.6158 55.098 60.4787 55.0198 60.3622C54.9415 60.2457 54.8303 60.155 54.7003 60.1015C54.5702 60.048 54.4271 60.0342 54.2892 60.0619C54.1512 60.0895 54.0247 60.1573 53.9254 60.2568C53.8262 60.3562 53.7589 60.4827 53.7319 60.6203C53.705 60.7579 53.7196 60.9004 53.774 61.0297C53.8284 61.159 53.9201 61.2693 54.0375 61.3466C54.1548 61.4239 54.2926 61.4648 54.4333 61.464C54.5264 61.464 54.6186 61.4456 54.7046 61.41C54.7906 61.3744 54.8687 61.3222 54.9343 61.2564C55 61.1906 55.0519 61.1125 55.0872 61.0266C55.1225 60.9407 55.1404 60.8488 55.1398 60.756Z" fill="#263238"/>
<path d="M60.9172 61.24C60.9172 61.0998 60.8754 60.9627 60.7971 60.8462C60.7189 60.7297 60.6077 60.639 60.4776 60.5855C60.3475 60.532 60.2045 60.5182 60.0665 60.5459C59.9286 60.5735 59.802 60.6414 59.7028 60.7408C59.6036 60.8402 59.5362 60.9667 59.5093 61.1043C59.4823 61.2419 59.4969 61.3844 59.5513 61.5137C59.6057 61.643 59.6974 61.7533 59.8148 61.8306C59.9322 61.9079 60.0699 61.9488 60.2106 61.948C60.3038 61.948 60.396 61.9296 60.482 61.894C60.5679 61.8584 60.646 61.8062 60.7117 61.7404C60.7773 61.6746 60.8293 61.5965 60.8645 61.5106C60.8998 61.4247 60.9177 61.3328 60.9172 61.24Z" fill="#263238"/>
<path d="M66.5168 58.9159C66.5168 58.7759 66.4751 58.639 66.397 58.5225C66.319 58.4061 66.208 58.3154 66.0781 58.2618C65.9483 58.2082 65.8054 58.1942 65.6676 58.2215C65.5298 58.2488 65.4032 58.3162 65.3038 58.4153C65.2044 58.5143 65.1368 58.6404 65.1094 58.7778C65.0819 58.9151 65.096 59.0575 65.1498 59.1868C65.2036 59.3162 65.2946 59.4268 65.4115 59.5046C65.5283 59.5824 65.6657 59.6239 65.8062 59.6239C65.9947 59.6239 66.1754 59.5493 66.3087 59.4165C66.4419 59.2837 66.5168 59.1037 66.5168 58.9159Z" fill="#263238"/>
<path d="M72.8469 50.724C72.8469 50.5838 72.8051 50.4467 72.7268 50.3302C72.6486 50.2137 72.5374 50.123 72.4073 50.0695C72.2772 50.016 72.1342 50.0022 71.9962 50.0299C71.8583 50.0575 71.7317 50.1254 71.6325 50.2248C71.5333 50.3242 71.4659 50.4507 71.4389 50.5883C71.412 50.7259 71.4266 50.8684 71.481 50.9977C71.5354 51.127 71.6271 51.2373 71.7445 51.3146C71.8619 51.3919 71.9996 51.4328 72.1403 51.432C72.3281 51.4309 72.5078 51.3559 72.6402 51.2232C72.7726 51.0905 72.8469 50.9111 72.8469 50.724Z" fill="#263238"/>
<path d="M212.757 165.368H215.045V143.4H212.757V165.368Z" fill="#263238" stroke="#263238" stroke-width="0.6" stroke-linecap="round" stroke-linejoin="round"/>
<path d="M224.152 144.171L228.188 144.641L230.748 122.822L226.713 122.352L224.152 144.171Z" fill="#263238" stroke="#263238" stroke-width="0.6" stroke-linecap="round" stroke-linejoin="round"/>
<path d="M210.994 166.268V162.564H216.803V166.3L240.038 175.592V179.976H238.452V176.644L213.816 171.056L189.831 176.644V179.976H188.289V175.592L210.994 166.268Z" fill="#8C8C8C" stroke="#263238" stroke-width="0.6" stroke-linecap="round" stroke-linejoin="round"/>
<path d="M208.18 150.416H219.621V143.4H208.18V150.416Z" fill="#263238" stroke="#263238" stroke-width="0.6" stroke-linecap="round" stroke-linejoin="round"/>
<path d="M240.059 180.152C240.059 179.666 240.203 179.191 240.474 178.787C240.745 178.383 241.13 178.068 241.581 177.883C242.032 177.697 242.528 177.648 243.006 177.744C243.484 177.839 243.923 178.073 244.268 178.417C244.612 178.761 244.847 179.199 244.941 179.675C245.036 180.152 244.987 180.646 244.799 181.095C244.612 181.543 244.296 181.927 243.89 182.196C243.484 182.465 243.007 182.609 242.519 182.608C242.196 182.608 241.876 182.544 241.577 182.421C241.278 182.298 241.006 182.117 240.778 181.888C240.549 181.66 240.368 181.39 240.245 181.092C240.121 180.794 240.058 180.474 240.059 180.152Z" fill="#263238" stroke="#263238" stroke-width="0.6" stroke-linecap="round" stroke-linejoin="round"/>
<path d="M241.443 180.152C241.443 179.944 241.505 179.741 241.621 179.568C241.737 179.395 241.902 179.26 242.095 179.18C242.288 179.1 242.5 179.08 242.705 179.12C242.91 179.161 243.098 179.261 243.246 179.408C243.393 179.555 243.494 179.743 243.535 179.947C243.575 180.151 243.554 180.362 243.475 180.555C243.395 180.747 243.259 180.911 243.086 181.027C242.912 181.142 242.708 181.204 242.499 181.204C242.219 181.204 241.951 181.093 241.753 180.896C241.555 180.699 241.443 180.431 241.443 180.152Z" fill="white" stroke="#263238" stroke-width="0.6" stroke-linecap="round" stroke-linejoin="round"/>
<path d="M183.182 180.152C183.182 179.666 183.326 179.191 183.597 178.788C183.868 178.384 184.253 178.069 184.703 177.883C185.154 177.697 185.649 177.648 186.127 177.743C186.605 177.838 187.045 178.072 187.389 178.415C187.734 178.759 187.969 179.196 188.064 179.673C188.159 180.149 188.11 180.643 187.924 181.092C187.737 181.541 187.421 181.924 187.016 182.194C186.61 182.464 186.134 182.608 185.646 182.608C184.993 182.608 184.366 182.349 183.904 181.889C183.441 181.428 183.182 180.803 183.182 180.152Z" fill="#263238" stroke="#263238" stroke-width="0.6" stroke-linecap="round" stroke-linejoin="round"/>
<path d="M185.648 181.204C186.231 181.204 186.703 180.733 186.703 180.152C186.703 179.571 186.231 179.1 185.648 179.1C185.064 179.1 184.592 179.571 184.592 180.152C184.592 180.733 185.064 181.204 185.648 181.204Z" fill="white" stroke="#263238" stroke-width="0.6" stroke-linecap="round" stroke-linejoin="round"/>
<path d="M212.841 180.104H214.775L215.747 166.948H211.873L212.841 180.104Z" fill="#8C8C8C" stroke="#263238" stroke-width="0.6" stroke-linecap="round" stroke-linejoin="round"/>
<path d="M212.932 182.732H214.867V177.296H212.932V182.732Z" fill="#263238" stroke="#263238" stroke-width="0.6" stroke-linecap="round" stroke-linejoin="round"/>
<path d="M229.138 133.304C230.267 133.413 231.406 133.299 232.491 132.968C233.576 132.638 234.585 132.098 235.46 131.38C236.335 130.661 237.06 129.777 237.593 128.779C238.125 127.782 238.455 126.689 238.564 125.564L241.261 97.6C241.481 95.3283 240.786 93.0628 239.329 91.3016C237.872 89.5404 235.773 88.4276 233.494 88.208C231.213 87.9906 228.94 88.6842 227.172 90.1363C225.405 91.5883 224.288 93.6801 224.068 95.952L221.366 123.952C221.157 126.218 221.858 128.474 223.314 130.227C224.771 131.98 226.865 133.086 229.138 133.304Z" fill="#8C8C8C" stroke="#263238" stroke-width="0.6" stroke-linecap="round" stroke-linejoin="round"/>
<path d="M227.091 133.108C229.37 133.326 231.644 132.634 233.412 131.182C235.179 129.731 236.296 127.64 236.516 125.368L239.218 97.368C239.43 95.0996 238.732 92.8398 237.275 91.0838C235.818 89.3278 233.722 88.2189 231.446 88C230.317 87.8919 229.178 88.0065 228.093 88.3371C227.009 88.6678 226 89.2082 225.125 89.9273C224.25 90.6464 223.526 91.5303 222.994 92.5283C222.462 93.5264 222.133 94.6191 222.025 95.744L219.323 123.72C219.104 125.991 219.799 128.256 221.256 130.017C222.712 131.777 224.811 132.889 227.091 133.108Z" fill="#8C8C8C" stroke="#263238" stroke-width="0.6" stroke-linecap="round" stroke-linejoin="round"/>
<path d="M189.514 145.6L229.802 146.656C230.025 146.663 230.248 146.626 230.457 146.547C230.666 146.468 230.858 146.349 231.021 146.196C231.184 146.044 231.315 145.86 231.407 145.657C231.498 145.454 231.549 145.235 231.556 145.012L231.761 138.588C231.768 138.365 231.73 138.143 231.651 137.935C231.572 137.726 231.453 137.536 231.299 137.373C231.146 137.211 230.962 137.08 230.758 136.989C230.554 136.897 230.334 136.847 230.111 136.84L189.827 135.784C189.604 135.777 189.381 135.813 189.172 135.892C188.963 135.97 188.771 136.089 188.608 136.241C188.445 136.394 188.314 136.576 188.222 136.779C188.13 136.982 188.079 137.201 188.073 137.424L187.872 143.852C187.858 144.301 188.023 144.736 188.33 145.064C188.638 145.392 189.064 145.584 189.514 145.6Z" fill="#8C8C8C" stroke="#263238" stroke-width="0.6" stroke-linecap="round" stroke-linejoin="round"/>
<path d="M206.359 145.911L229.807 146.649C230.746 146.679 231.532 145.944 231.562 145.007L231.765 138.583C231.795 137.646 231.057 136.864 230.118 136.834L206.67 136.096C205.73 136.066 204.944 136.801 204.915 137.737L204.711 144.162C204.681 145.098 205.419 145.881 206.359 145.911Z" fill="#8C8C8C" stroke="#263238" stroke-width="0.6" stroke-linecap="round" stroke-linejoin="round"/>
<path d="M186.827 173.088L186.631 174.568C186.631 174.568 184.848 178.12 184.154 178.712C183.459 179.304 179.104 181.176 178.313 181.472C177.522 181.768 178.907 182.672 180.79 182.756C182.672 182.84 186.137 182.856 187.325 182.56C188.513 182.264 190.789 180.584 191.287 180.488L191.689 181.768C191.689 181.768 193.868 180.968 194.659 180.784C195.45 180.6 196.739 179.584 196.739 179.584C196.289 178.206 195.761 176.854 195.157 175.536C194.791 174.874 194.322 174.275 193.768 173.76L192.287 172L186.827 173.088Z" fill="#263238" stroke="#263238" stroke-width="0.6" stroke-linecap="round" stroke-linejoin="round"/>
<path d="M198.81 116.72L195.543 118.692L188.413 120.764C188.413 120.764 165.837 124.908 164.548 126.4C163.259 127.892 163.745 129.164 164.845 131.04C165.945 132.916 185.061 174.468 185.061 174.468L192.986 172.888L179.714 133.1C179.714 133.1 204.671 138.132 209.019 137.34C213.366 136.548 218.922 131.916 219.91 128.364C220.897 124.812 216.345 119.164 216.345 119.164L198.81 116.72Z" fill="#108E66" stroke="#263238" stroke-width="0.6" stroke-linecap="round" stroke-linejoin="round"/>
<path d="M174.098 129.24C174.098 129.24 179.087 131.64 179.983 134.34" stroke="#263238" stroke-width="0.6" stroke-linecap="round" stroke-linejoin="round"/>
<path d="M224.654 83.764L213.96 82.776L198.316 118.1L208.613 119.876L224.654 83.764Z" fill="white" stroke="#263238" stroke-width="0.6" stroke-linecap="round" stroke-linejoin="round"/>
<path d="M214.156 86.076C214.156 86.076 198.512 117.6 198.308 118.1C198.103 118.6 193.655 119.876 192.664 120.072C191.672 120.268 188.404 120.764 188.404 120.764L193.952 117.016L197.906 106.852L193.089 104.4C193.089 104.4 202.001 91.08 203.98 86.54C205.959 82 206.738 80.8 208.713 80.704C210.688 80.608 216.34 81 216.34 81L214.156 86.076Z" fill="#108E66" stroke="#263238" stroke-width="0.6" stroke-linecap="round" stroke-linejoin="round"/>
<path d="M211.982 92.74L212.178 95.012C212.178 95.012 201.781 113.56 201.685 113.956C201.589 114.352 202.488 117.112 202.488 117.112L206.153 114.448L213.082 95.408L214.964 94.32V90.796L211.982 92.74Z" fill="#263238" stroke="#263238" stroke-width="0.6" stroke-linecap="round" stroke-linejoin="round"/>
<path d="M216.116 58.644C216.116 58.644 212.439 67.516 211.624 70.204C210.809 72.892 210.235 77.284 210.419 77.772C210.604 78.26 211.624 79.968 213.523 80.052C215.421 80.136 217.035 80.132 217.035 80.132L214.177 86.076C214.177 86.076 214.502 90.716 214.98 90.796C215.457 90.876 222.659 85.344 222.824 85.096C222.988 84.848 227.561 75.096 227.561 75.096C227.561 75.096 231.647 73.06 231.892 71.268C231.972 70.7667 231.916 70.2532 231.728 69.7811C231.541 69.309 231.231 68.8956 230.828 68.584V66.384L232.627 61.012C232.627 61.012 228.135 58.084 223.149 56.86C218.163 55.636 217.103 56.46 217.103 56.46L216.116 58.644Z" fill="white" stroke="#263238" stroke-width="0.6" stroke-linecap="round" stroke-linejoin="round"/>
<path d="M224.365 53.68C224.365 53.68 217.015 51.724 213.747 54.576C210.48 57.428 218.974 62 221.752 62.4C224.53 62.8 227.962 62.236 227.143 62.972C226.324 63.708 224.53 64.844 225.429 65.576C225.993 66.0277 226.628 66.3844 227.308 66.632C227.308 66.632 223.47 75.032 222.816 75.992C222.161 76.952 220.937 76.888 220.202 76.644C219.468 76.4 215.955 74.204 214.811 73.796C213.667 73.388 211.543 72.168 211.054 73.472C210.564 74.776 209.336 80.308 211.134 81.528C212.932 82.748 221.672 79.656 222.98 78.76C224.289 77.864 224.694 76.236 224.939 75.912C225.184 75.588 228.697 69.808 229.022 69.4C229.347 68.992 230.82 68.6 230.82 68.6C230.82 68.6 233.763 62.736 234.008 60.46C234.252 58.184 226.573 53.6 224.365 53.68Z" fill="#263238" stroke="#263238" stroke-width="0.6" stroke-linecap="round" stroke-linejoin="round"/>
<path d="M216.69 64.9921L216.525 68.5921C216.525 68.5921 212.688 72.9041 212.688 73.3921C212.688 73.8801 217.26 73.3121 217.26 73.3121" stroke="#263238" stroke-width="0.6" stroke-linecap="round" stroke-linejoin="round"/>
<path d="M216.116 64.1801C215.976 63.9073 215.744 63.6924 215.46 63.5732C215.177 63.4539 214.86 63.438 214.566 63.5281" stroke="#263238" stroke-width="0.6" stroke-linecap="round" stroke-linejoin="round"/>
<path d="M219.549 66.212C219.549 66.212 221.917 65.968 222.652 67.76" stroke="#263238" stroke-width="0.6" stroke-linecap="round" stroke-linejoin="round"/>
<path d="M213.162 75.248C213.162 75.248 215.286 76.5521 216.675 76.5521" stroke="white" stroke-width="0.6" stroke-linecap="round" stroke-linejoin="round"/>
<path d="M220.355 69.74C220.13 70.184 219.721 70.424 219.44 70.284C219.159 70.144 219.11 69.668 219.335 69.228C219.56 68.788 219.969 68.544 220.25 68.684C220.531 68.824 220.58 69.3 220.355 69.74Z" fill="#263238"/>
<path d="M215.241 67.76C215.021 68.2 214.607 68.444 214.326 68.3C214.045 68.156 213.997 67.688 214.222 67.244C214.447 66.8 214.856 66.56 215.137 66.704C215.418 66.848 215.466 67.316 215.241 67.76Z" fill="#263238"/>
<path d="M179.798 169.788L179.103 173.932L177.618 174.332C177.618 174.332 176.229 176 175.936 176.4C175.643 176.8 171.974 179.456 170.986 179.952C169.999 180.448 167.518 180.64 167.618 181.332C167.719 182.024 172.965 182.616 176.333 182.712C179.701 182.808 181.58 181.728 181.58 181.728L181.877 182.416L185.342 182.12C185.342 182.12 185.145 178.864 185.245 177.484C185.277 176.362 185.21 175.239 185.044 174.128L184.848 171.268L179.798 169.788Z" fill="#263238" stroke="#263238" stroke-width="0.6" stroke-linecap="round" stroke-linejoin="round"/>
<path d="M207.626 121.356C207.626 121.356 179.501 124.808 178.907 125.5C178.313 126.192 178.807 146.616 178.807 146.616L175.539 170.52L185.639 173.6C185.639 173.6 188.81 153.444 189.898 148C190.642 143.952 191.171 139.868 191.484 135.764C191.484 135.764 207.032 139.316 212.359 136.356C217.686 133.396 216.614 129.744 216.614 129.744" fill="#108E66"/>
<path d="M207.626 121.356C207.626 121.356 179.501 124.808 178.907 125.5C178.313 126.192 178.807 146.616 178.807 146.616L175.539 170.52L185.639 173.6C185.639 173.6 188.81 153.444 189.898 148C190.642 143.952 191.171 139.868 191.484 135.764C191.484 135.764 207.032 139.316 212.359 136.356C217.686 133.396 216.614 129.744 216.614 129.744" stroke="#263238" stroke-width="0.6" stroke-linecap="round" stroke-linejoin="round"/>
<path d="M179.346 145.816C179.346 145.816 180.626 140.08 180.879 137.016" stroke="#263238" stroke-width="0.6" stroke-linecap="round" stroke-linejoin="round"/>
<path d="M189.393 132.464C189.088 132.057 188.721 131.701 188.305 131.408" stroke="#263238" stroke-width="0.6" stroke-linecap="round" stroke-linejoin="round"/>
<path d="M191.485 135.764C191.485 135.764 190.915 134.652 190.168 133.528" stroke="#263238" stroke-width="0.6" stroke-linecap="round" stroke-linejoin="round"/>
<path d="M224.261 81.8881C224.261 81.8881 213.069 102.4 210.692 107.64C208.316 112.88 205.132 120.172 205.132 120.96C205.132 121.748 203.053 141.98 203.747 142.372C204.442 142.764 214.835 139.412 219.688 137.54C224.542 135.668 224.738 134.284 225.136 133.196C225.533 132.108 225.433 118.1 225.433 118.1C225.433 118.1 235.533 89.4841 235.433 88.2041C235.332 86.9241 224.261 81.8881 224.261 81.8881Z" fill="#108E66" stroke="#263238" stroke-width="0.6" stroke-linecap="round" stroke-linejoin="round"/>
<path d="M215.755 102.64C213.92 104.432 212.379 105.768 212.379 105.768" stroke="#263238" stroke-width="0.6" stroke-linecap="round" stroke-linejoin="round"/>
<path d="M227.825 84.156C227.825 84.156 223.173 93.236 220.792 96.888C219.618 98.5617 218.293 100.125 216.834 101.56" stroke="#263238" stroke-width="0.6" stroke-linecap="round" stroke-linejoin="round"/>
<path d="M212.941 82.2521C212.941 82.2521 208.124 90.2761 206.735 95.0121C205.346 99.7481 205.049 102.212 205.049 102.212" stroke="#263238" stroke-width="0.6" stroke-linecap="round" stroke-linejoin="round"/>
<path d="M210.396 93.728L214.973 90.796L215.149 97.676" stroke="#263238" stroke-width="0.6" stroke-linecap="round" stroke-linejoin="round"/>
<path d="M220.158 124.556L221.688 124.316" stroke="#263238" stroke-width="0.6" stroke-linecap="round" stroke-linejoin="round"/>
<path d="M221.191 122.54L210.396 123.824V126.092L218.104 124.88" stroke="#263238" stroke-width="0.6" stroke-linecap="round" stroke-linejoin="round"/>
<path d="M206.141 85.34C206.141 85.34 207.923 81.592 208.814 81.492C209.705 81.392 211.684 81.492 211.684 82.292C211.684 83.092 210.597 83.18 210.597 83.18H209.111L208.417 84.956L206.141 85.34Z" fill="white" stroke="#263238" stroke-width="0.6" stroke-linecap="round" stroke-linejoin="round"/>
<path d="M203.664 92.4441L204.359 88.5961C204.359 88.5961 204.656 85.2441 205.162 85.0441C205.667 84.8441 210.212 84.948 210.212 84.948C210.212 84.948 210.312 88.8921 209.915 89.8801C209.517 90.8681 207.735 91.26 207.735 91.26C207.571 91.8754 207.339 92.471 207.044 93.036C206.747 93.436 205.655 93.9241 205.655 93.9241L205.358 94.7241L202.785 93.0441L203.664 92.4441Z" fill="white" stroke="#263238" stroke-width="0.6" stroke-linecap="round" stroke-linejoin="round"/>
<path d="M207.722 91.264L207.229 89.388L209.111 89.288" fill="white"/>
<path d="M207.722 91.264L207.229 89.388L209.111 89.288" stroke="#263238" stroke-width="0.6" stroke-linecap="round" stroke-linejoin="round"/>
<path d="M202.673 92.152L206.736 95.012L205.15 96.688L201.686 93.532L202.673 92.152Z" fill="white" stroke="#263238" stroke-width="0.6" stroke-linecap="round" stroke-linejoin="round"/>
<path d="M201.684 93.532L206.337 96.984L197.425 110.504C196.371 110.727 195.275 110.658 194.258 110.304C192.572 109.712 190.99 106.36 190.99 105.964C190.99 105.568 201.684 93.532 201.684 93.532Z" fill="#108E66" stroke="#263238" stroke-width="0.6" stroke-linecap="round" stroke-linejoin="round"/>
<path d="M198.12 109.22C198.12 109.22 196.635 106.456 196.534 105.668C196.434 104.88 196.337 103.3 195.84 102.708C195.342 102.116 194.752 101.72 194.555 100.832C194.358 99.944 193.463 100.34 193.351 101.232C193.238 102.124 194.041 103.008 194.041 103.008C194.041 103.008 191.568 102.208 191.171 102.416C190.774 102.624 189.967 102.908 190.179 103.616C190.312 104.05 190.48 104.473 190.681 104.88C190.681 104.88 189.1 106.952 189.1 107.936C189.1 108.92 190.187 110.504 190.982 111.096C191.777 111.688 194.547 112.296 194.547 112.296L198.12 109.22Z" fill="white" stroke="#263238" stroke-width="0.6" stroke-linecap="round" stroke-linejoin="round"/>
<path d="M226.689 88.916L217.725 107.444L195.839 108.644C195.287 108.777 194.783 109.059 194.381 109.459C193.98 109.86 193.697 110.362 193.563 110.912C193.333 111.815 193.233 112.745 193.266 113.676C193.266 113.676 207.822 115.452 212.378 115.748C216.934 116.044 222.478 116.636 223.173 115.944C223.867 115.252 232.085 98.284 232.085 98.284" fill="#108E66"/>
<path d="M226.689 88.916L217.725 107.444L195.839 108.644C195.287 108.777 194.783 109.059 194.381 109.459C193.98 109.86 193.697 110.362 193.563 110.912C193.333 111.815 193.233 112.745 193.266 113.676C193.266 113.676 207.822 115.452 212.378 115.748C216.934 116.044 222.478 116.636 223.173 115.944C223.867 115.252 232.085 98.284 232.085 98.284" stroke="#263238" stroke-width="0.6" stroke-linecap="round" stroke-linejoin="round"/>
<path d="M95.6905 143.404H93.4023V165.372H95.6905V143.404Z" fill="#263238" stroke="#263238" stroke-width="0.6" stroke-linecap="round" stroke-linejoin="round"/>
<path d="M81.7479 122.356L77.7129 122.827L80.2736 144.646L84.3087 144.176L81.7479 122.356Z" fill="#263238" stroke="#263238" stroke-width="0.6" stroke-linecap="round" stroke-linejoin="round"/>
<path d="M97.4519 166.268V162.564H91.6432V166.3L68.4082 175.592V179.976H69.9939V176.644L94.6299 171.056L118.616 176.644V179.976H120.157V175.592L97.4519 166.268Z" fill="#8C8C8C" stroke="#263238" stroke-width="0.6" stroke-linecap="round" stroke-linejoin="round"/>
<path d="M100.265 143.404H88.8242V150.42H100.265V143.404Z" fill="#263238" stroke="#263238" stroke-width="0.6" stroke-linecap="round" stroke-linejoin="round"/>
<path d="M68.4081 180.152C68.4081 179.666 68.2636 179.191 67.9927 178.788C67.7219 178.384 67.3369 178.069 66.8866 177.883C66.4362 177.697 65.9406 177.648 65.4625 177.743C64.9843 177.838 64.5451 178.072 64.2004 178.415C63.8557 178.759 63.621 179.196 63.5259 179.673C63.4308 180.149 63.4796 180.643 63.6661 181.092C63.8527 181.541 64.1686 181.924 64.5739 182.194C64.9793 182.464 65.4558 182.608 65.9433 182.608C66.597 182.608 67.224 182.349 67.6862 181.889C68.1484 181.428 68.4081 180.803 68.4081 180.152Z" fill="#263238" stroke="#263238" stroke-width="0.6" stroke-linecap="round" stroke-linejoin="round"/>
<path d="M66.9983 180.152C66.9983 179.944 66.9363 179.741 66.8203 179.568C66.7043 179.395 66.5394 179.26 66.3465 179.18C66.1536 179.1 65.9413 179.08 65.7365 179.12C65.5317 179.161 65.3436 179.261 65.1959 179.408C65.0483 179.555 64.9477 179.743 64.907 179.947C64.8663 180.151 64.8872 180.362 64.9671 180.555C65.047 180.747 65.1823 180.911 65.3559 181.027C65.5296 181.142 65.7337 181.204 65.9425 181.204C66.2225 181.204 66.491 181.093 66.689 180.896C66.887 180.699 66.9983 180.431 66.9983 180.152Z" fill="white" stroke="#263238" stroke-width="0.6" stroke-linecap="round" stroke-linejoin="round"/>
<path d="M125.248 180.152C125.248 179.666 125.103 179.191 124.833 178.788C124.562 178.384 124.177 178.069 123.726 177.883C123.276 177.697 122.78 177.648 122.302 177.743C121.824 177.838 121.385 178.072 121.04 178.415C120.696 178.759 120.461 179.196 120.366 179.673C120.271 180.149 120.319 180.643 120.506 181.092C120.693 181.541 121.008 181.924 121.414 182.194C121.819 182.464 122.296 182.608 122.783 182.608C123.437 182.608 124.064 182.349 124.526 181.889C124.988 181.428 125.248 180.803 125.248 180.152Z" fill="#263238" stroke="#263238" stroke-width="0.6" stroke-linecap="round" stroke-linejoin="round"/>
<path d="M122.798 181.204C123.381 181.204 123.854 180.733 123.854 180.152C123.854 179.571 123.381 179.1 122.798 179.1C122.215 179.1 121.742 179.571 121.742 180.152C121.742 180.733 122.215 181.204 122.798 181.204Z" fill="white" stroke="#263238" stroke-width="0.6" stroke-linecap="round" stroke-linejoin="round"/>
<path d="M95.6016 180.104H93.6667L92.6992 166.948H96.5731L95.6016 180.104Z" fill="#8C8C8C" stroke="#263238" stroke-width="0.6" stroke-linecap="round" stroke-linejoin="round"/>
<path d="M95.513 177.296H93.5781V182.732H95.513V177.296Z" fill="#263238" stroke="#263238" stroke-width="0.6" stroke-linecap="round" stroke-linejoin="round"/>
<path d="M79.308 133.304C78.179 133.413 77.0396 133.299 75.9548 132.969C74.8701 132.638 73.8612 132.098 72.9859 131.38C72.1106 130.661 71.386 129.777 70.8535 128.779C70.321 127.782 69.9909 126.689 69.8823 125.564L67.1807 97.564C67.0716 96.439 67.186 95.3037 67.5173 94.2228C67.8487 93.1419 68.3905 92.1367 69.1119 91.2645C69.8332 90.3923 70.7199 89.6703 71.7214 89.1397C72.7228 88.609 73.8194 88.2802 74.9484 88.172C77.2287 87.9546 79.5023 88.6482 81.2696 90.1002C83.037 91.5523 84.1536 93.6441 84.3741 95.916L87.0757 123.916C87.2949 126.187 86.5997 128.452 85.143 130.213C83.6863 131.973 81.5874 133.085 79.308 133.304Z" fill="#8C8C8C" stroke="#263238" stroke-width="0.6" stroke-linecap="round" stroke-linejoin="round"/>
<path d="M81.3542 133.108C79.0743 133.326 76.8007 132.634 75.0332 131.182C73.2657 129.731 72.149 127.64 71.9285 125.368L69.2269 97.368C69.0144 95.1002 69.7126 92.8409 71.1685 91.085C72.6245 89.3291 74.7195 88.2198 76.9946 88C79.2751 87.7816 81.5493 88.4747 83.3169 89.927C85.0845 91.3792 86.2008 93.4716 86.4203 95.744L89.1179 123.716C89.3372 125.987 88.6426 128.252 87.1869 130.013C85.7311 131.774 83.6332 132.887 81.3542 133.108Z" fill="#8C8C8C" stroke="#263238" stroke-width="0.6" stroke-linecap="round" stroke-linejoin="round"/>
<path d="M120.325 145.6L78.6437 146.656C78.4202 146.663 78.1975 146.626 77.9883 146.547C77.7791 146.468 77.5876 146.349 77.4247 146.196C77.2618 146.044 77.1306 145.86 77.0388 145.657C76.947 145.454 76.8962 145.235 76.8895 145.012L76.6727 138.588C76.6586 138.139 76.8241 137.702 77.1327 137.375C77.4413 137.047 77.8678 136.855 78.3186 136.84L120.028 135.784C120.251 135.777 120.474 135.813 120.683 135.892C120.892 135.97 121.083 136.089 121.246 136.241C121.409 136.394 121.541 136.576 121.632 136.779C121.724 136.982 121.775 137.201 121.782 137.424L121.987 143.852C121.993 144.076 121.956 144.299 121.876 144.508C121.796 144.717 121.675 144.908 121.521 145.071C121.366 145.233 121.181 145.364 120.976 145.455C120.771 145.545 120.549 145.595 120.325 145.6Z" fill="#8C8C8C" stroke="#263238" stroke-width="0.6" stroke-linecap="round" stroke-linejoin="round"/>
<path d="M101.788 136.099L78.3399 136.838C77.4003 136.867 76.6627 137.65 76.6924 138.587L76.8962 145.011C76.9259 145.948 77.7116 146.682 78.6512 146.653L102.099 145.915C103.039 145.885 103.776 145.102 103.747 144.166L103.543 137.741C103.513 136.805 102.728 136.07 101.788 136.099Z" fill="#8C8C8C" stroke="#263238" stroke-width="0.6" stroke-linecap="round" stroke-linejoin="round"/>
<path d="M125.648 132.516C125.648 132.516 126.005 139.38 126.952 145.528C127.9 151.676 129.469 170.328 129.469 170.328C129.963 172.201 130.635 174.022 131.477 175.768C132.038 176.927 132.757 178.004 133.612 178.968C133.612 178.968 136.699 182.044 136.579 182.516C136.458 182.988 134.523 182.94 132.625 182.584C130.726 182.228 130.336 181.784 129.269 181.068C128.201 180.352 125.772 179.436 124.704 179.068C123.637 178.7 123.283 177.772 123.641 176.708C123.998 175.644 125.186 173.16 125.186 171.624C125.186 170.088 124.235 162.8 121.633 157.948C119.032 153.096 117.479 144.7 117.479 144.7L125.648 132.516Z" fill="white" stroke="#263238" stroke-width="0.6" stroke-linecap="round" stroke-linejoin="round"/>
<path d="M126.279 177.064C125.524 176.48 124.817 175.864 124.215 175.284C123.991 175.856 123.782 176.36 123.665 176.708C123.308 177.772 123.665 178.708 124.729 179.068C125.793 179.428 128.226 180.348 129.293 181.068C130.361 181.788 130.751 182.228 132.649 182.584C134.548 182.94 136.487 182.984 136.604 182.516C136.72 182.048 133.637 178.968 133.637 178.968L132.095 179.68C132.095 179.68 128.414 178.72 126.279 177.064Z" fill="#108E66" stroke="#263238" stroke-width="0.6" stroke-linecap="round" stroke-linejoin="round"/>
<path d="M80.1106 118.42C80.1106 118.42 79.0427 122.588 79.6248 125.22C80.2069 127.852 84.1972 133.94 91.1018 135.396C98.0065 136.852 115.36 136.376 115.36 136.376C115.36 136.376 111.178 142.708 109.62 150.332C108.592 155.38 105.441 162.444 104.955 163.512C104.47 164.58 98.7291 166.516 98.9338 167.388C99.1385 168.26 99.8089 173.684 101.266 175.916C102.723 178.148 105.156 179.116 106.127 179.404C107.099 179.692 107.296 179.692 107.296 178.724C107.296 177.756 106.613 176.4 106.613 175.524C106.613 174.648 106.517 168.724 106.906 167.964C107.296 167.204 120.029 147.2 121.972 143.92C123.915 140.64 126.934 134.228 127.809 133.164C128.684 132.1 129.752 130.644 128.877 128.804C128.002 126.964 107.91 120.804 107.91 120.804L106.854 117.08L96.8182 116.5L80.1106 118.42Z" fill="white" stroke="#263238" stroke-width="0.6" stroke-linecap="round" stroke-linejoin="round"/>
<path d="M107.908 120.8L106.852 117.076L96.8166 116.496L80.0889 118.432C80.0889 118.432 78.997 122.604 79.6032 125.232C80.5666 129.388 84.1755 133.952 91.0802 135.408C97.9848 136.864 115.339 136.388 115.339 136.388C115.339 136.388 116.985 128.192 120.2 124.996C116.338 123.684 107.908 120.8 107.908 120.8Z" fill="#263238" stroke="#263238" stroke-width="0.6" stroke-linecap="round" stroke-linejoin="round"/>
<path d="M115.359 136.36C117.675 135.749 119.923 134.904 122.067 133.84L115.359 136.36Z" fill="white"/>
<path d="M115.359 136.36C117.675 135.749 119.923 134.904 122.067 133.84" stroke="#263238" stroke-width="0.6" stroke-linecap="round" stroke-linejoin="round"/>
<path d="M102.229 172.024C101.538 170.424 101.583 167.224 101.671 165.512C100.202 166.236 98.8247 166.936 98.9251 167.372C99.1178 168.244 99.8002 173.668 101.257 175.9C102.715 178.132 105.147 179.1 106.119 179.388C107.09 179.676 107.287 179.676 107.287 178.708C107.287 177.74 106.609 176.388 106.605 175.508C105.588 175.379 104.58 175.182 103.59 174.92C103.59 174.92 103.2 174.252 102.229 172.024Z" fill="#108E66" stroke="#263238" stroke-width="0.6" stroke-linecap="round" stroke-linejoin="round"/>
<path d="M100.823 80.048L97.8086 81.308C97.8086 81.308 100.241 104 100.145 107.2C100.049 110.4 99.8519 116.8 99.8519 116.8C99.8519 116.8 104.035 118.06 106.853 117.092L106.66 106.144C106.66 106.144 108.704 95.676 107.925 92.284C107.146 88.892 104.713 82.884 104.713 82.884C104.713 82.884 103.569 80.144 100.823 80.048Z" fill="white" stroke="#263238" stroke-width="0.6" stroke-linecap="round" stroke-linejoin="round"/>
<path d="M99.956 89.8359L102.878 85.3999L106.471 90.5999C106.471 90.5999 104.918 83.3319 104.721 82.8479C104.255 81.9357 103.551 81.166 102.682 80.6199C101.514 79.8439 100.149 79.8199 99.374 79.7479C98.5992 79.6759 97.8164 81.2999 97.8164 81.2999L99.956 89.8359Z" fill="white" stroke="#263238" stroke-width="0.6" stroke-linecap="round" stroke-linejoin="round"/>
<path d="M98.5924 79.692C98.5924 79.692 88.8175 81.824 87.9785 82.432C87.1395 83.04 86.7742 85.02 86.9829 85.78C87.1917 86.54 89.4276 102.98 89.4276 102.98L78.1875 119.34C78.1875 119.34 81.8566 122.384 85.2929 122.992C88.7291 123.6 96.0593 122.688 98.6566 121.624L101.254 120.56C101.254 120.56 102.458 100.696 101.178 92.856C99.897 85.016 98.5924 79.692 98.5924 79.692Z" fill="#108E66" stroke="#263238" stroke-width="0.6" stroke-linecap="round" stroke-linejoin="round"/>
<path d="M128.607 104.956L132.425 103.284C132.425 103.284 133.573 100.772 133.726 100.544C133.878 100.316 135.175 99.936 135.785 99.4C136.395 98.864 137.238 97.956 137.467 97.88C137.696 97.804 138.077 98.488 137.467 99.4C137.005 100.046 136.465 100.635 135.861 101.152L139.607 99.784C139.607 99.784 141.056 97.348 141.437 98.412C141.819 99.476 139.832 102.752 139.378 103.816C138.924 104.88 138.459 105.416 137.62 105.568C136.781 105.72 134.183 106.176 133.649 106.252C133.116 106.328 129.828 108.228 129.828 108.228L128.607 104.956Z" fill="white" stroke="#263238" stroke-width="0.6" stroke-linecap="round" stroke-linejoin="round"/>
<path d="M133.906 104.196C134.585 103.624 135.367 103.056 135.785 103.056C136.628 103.056 138.459 103.208 138.459 103.208C138.459 103.208 139.53 100.772 140.064 100.408C140.598 100.044 141.056 100.56 140.598 101.32" fill="white"/>
<path d="M133.906 104.196C134.585 103.624 135.367 103.056 135.785 103.056C136.628 103.056 138.459 103.208 138.459 103.208C138.459 103.208 139.53 100.772 140.064 100.408C140.598 100.044 141.056 100.56 140.598 101.32" stroke="#263238" stroke-width="0.6" stroke-linecap="round" stroke-linejoin="round"/>
<path d="M103.711 81.52C103.711 81.52 106.156 92.096 106.079 96.052C106.003 100.008 104.775 102 105.008 103.36C105.24 104.72 105.77 120.712 105.77 120.712L107.91 120.788C107.91 120.788 107.376 114.7 107.452 113.556C107.529 112.412 108.291 107.848 108.291 107.848C108.291 107.848 112.113 115.384 112.647 115.764C113.181 116.144 130.9 108.612 130.9 108.612L129.599 104.272L116.083 107.012C116.083 107.012 113.41 98.184 113.028 96.28C112.647 94.376 112.342 87.684 111.27 86.008C110.198 84.332 103.711 81.52 103.711 81.52Z" fill="#108E66" stroke="#263238" stroke-width="0.6" stroke-linecap="round" stroke-linejoin="round"/>
<path d="M108.291 107.848C108.291 107.848 108.749 105.948 109.515 100.924C109.976 97.9246 110.002 94.8748 109.592 91.868" stroke="#263238" stroke-width="0.6" stroke-linecap="round" stroke-linejoin="round"/>
<path d="M107.456 87.444C107.821 90.184 108.094 93.568 107.604 95.444C107.046 97.5734 106.33 99.659 105.465 101.684" stroke="#263238" stroke-width="0.6" stroke-linecap="round" stroke-linejoin="round"/>
<path d="M106.781 83.2C106.781 83.2 107.01 84.348 107.263 86" stroke="#263238" stroke-width="0.6" stroke-linecap="round" stroke-linejoin="round"/>
<path d="M99.4746 98C100.466 100.448 101.341 102.836 101.341 102.836" stroke="#263238" stroke-width="0.6" stroke-linecap="round" stroke-linejoin="round"/>
<path d="M94.8496 80.908C94.8496 80.908 96.6039 91.64 97.9808 94.532C98.2618 95.12 98.5669 95.816 98.876 96.532" stroke="#263238" stroke-width="0.6" stroke-linecap="round" stroke-linejoin="round"/>
<path d="M116.539 102.676L119.518 101.836C119.518 101.836 121.429 99.4 121.886 98.792C122.344 98.184 123.412 98.184 124.178 97.728C124.945 97.272 125.933 95.596 126.314 95.9C126.695 96.204 126.314 97.576 125.913 97.956C125.401 98.3683 124.865 98.749 124.307 99.096C124.002 99.324 127.896 98.412 127.896 98.412C127.896 98.412 130.417 96.204 130.569 96.812C130.722 97.42 129.421 99.552 129.421 99.552C129.421 99.552 127.591 101.3 126.671 102.06C125.752 102.82 123.54 103.128 122.93 103.26C122.32 103.392 121.252 103.564 121.252 103.564L116.668 105.236L116.539 102.676Z" fill="white" stroke="#263238" stroke-width="0.6" stroke-linecap="round" stroke-linejoin="round"/>
<path d="M128.835 100C128.835 100 127.23 100.76 126.391 101.14L128.835 100Z" fill="white"/>
<path d="M128.835 100C128.835 100 127.23 100.76 126.391 101.14" stroke="#263238" stroke-width="0.6" stroke-linecap="round" stroke-linejoin="round"/>
<path d="M124.332 99.0959L122.955 99.3999" stroke="#263238" stroke-width="0.6" stroke-linecap="round" stroke-linejoin="round"/>
<path d="M89.6558 81.824C89.6558 81.824 85.1517 83.344 84.4613 84.488C83.7708 85.632 86.2195 94.988 88.0541 100.164C89.8886 105.34 94.7741 114.012 95.3843 114.316C95.9945 114.62 111.959 108.992 115.613 107.848C119.266 106.704 119.888 106.1 119.888 106.1L118.282 101.988L99.9566 105.26L94.3365 87.684" fill="#108E66"/>
<path d="M89.6558 81.824C89.6558 81.824 85.1517 83.344 84.4613 84.488C83.7708 85.632 86.2195 94.988 88.0541 100.164C89.8886 105.34 94.7741 114.012 95.3843 114.316C95.9945 114.62 111.959 108.992 115.613 107.848C119.266 106.704 119.888 106.1 119.888 106.1L118.282 101.988L99.9566 105.26L94.3365 87.684" stroke="#263238" stroke-width="0.6" stroke-linecap="round" stroke-linejoin="round"/>
<path d="M111.786 58.648C111.786 58.648 113.569 59.848 112.665 61.14C111.762 62.432 109.855 62.52 109.855 62.52L108.189 59.904C108.189 59.904 110.173 57.56 111.786 58.648Z" fill="#263238" stroke="#263238" stroke-width="0.6" stroke-linecap="round" stroke-linejoin="round"/>
<path d="M109.916 60.208C109.916 60.208 112.65 66.672 112.497 67.228C112.345 67.784 111.072 68.652 111.65 69.496C112.229 70.34 113.923 72.028 113.878 72.264C113.834 72.5 111.763 73.704 111.763 73.704C111.763 73.704 110.314 78.904 109.724 79.664C109.133 80.424 104.152 79.5 104.152 79.5L103.1 85.324L97.1828 79.828L94.9709 77.748C94.9709 77.748 92.9878 68.876 97.1948 63.544C101.402 58.212 109.916 60.208 109.916 60.208Z" fill="white" stroke="#263238" stroke-width="0.6" stroke-linecap="round" stroke-linejoin="round"/>
<path d="M109.539 69.3159C109.539 69.8599 109.314 70.2999 109.061 70.2959C108.808 70.2919 108.612 69.8439 108.624 69.2959C108.636 68.748 108.844 68.3119 109.097 68.3159C109.35 68.3199 109.547 68.7679 109.539 69.3159Z" fill="#263238"/>
<path d="M109.552 75.004C109.079 74.9817 108.615 74.8638 108.19 74.6575C107.764 74.4512 107.385 74.1608 107.075 73.804C107.075 73.804 106.926 76.144 107.657 76.28C108.388 76.416 109.552 75.004 109.552 75.004Z" fill="#263238" stroke="#263238" stroke-width="0.6" stroke-linecap="round" stroke-linejoin="round"/>
<path d="M108.014 67.148C108.014 67.148 109.535 65.864 110.896 67.368" stroke="#263238" stroke-width="0.6" stroke-linecap="round" stroke-linejoin="round"/>
<path d="M104.152 79.5L101.684 78.912L103.542 82.348L104.152 79.5Z" fill="#263238" stroke="#263238" stroke-width="0.6" stroke-linecap="round" stroke-linejoin="round"/>
<path d="M109.916 60.208C109.916 60.208 109.378 61.892 106.748 64.092C104.119 66.292 101.766 67.692 101.774 68.3C101.783 68.908 102.176 69.476 101.646 69.624C101.214 69.679 100.775 69.6052 100.386 69.412C100.386 69.412 99.109 73.04 98.9163 75.6C98.838 77.2896 99.0959 78.978 99.675 80.568C99.675 80.568 94.0108 80.872 90.7431 78.4C87.4754 75.928 86.5561 73.128 86.9174 70.7C87.2787 68.272 88.3144 60.604 93.3404 56.848C98.3663 53.092 105.568 53.248 108.013 54.78C110.458 56.312 112.228 57.436 111.778 58.648C111.329 59.86 109.916 60.208 109.916 60.208Z" fill="#263238" stroke="#263238" stroke-width="0.6" stroke-linecap="round" stroke-linejoin="round"/>
<path d="M98.0467 136.604C97.8968 136.605 97.7486 136.572 97.6131 136.508C97.3266 136.352 97.107 136.098 96.9954 135.792C96.8838 135.486 96.8879 135.151 97.007 134.848C98.8214 129.912 100.901 121.108 98.7693 118.48C98.2715 118.08 95.2728 117.28 79.1191 118.944L77.9429 119.064C76.8148 119.16 75.8514 120.784 75.6025 121.344C75.5494 121.487 75.4663 121.617 75.3586 121.725C75.2509 121.834 75.1212 121.918 74.9783 121.972C74.8353 122.026 74.6823 122.049 74.5296 122.039C74.377 122.03 74.2281 121.988 74.0931 121.916C73.8168 121.74 73.6135 121.47 73.5206 121.156C73.4278 120.842 73.4514 120.506 73.5873 120.208C73.7439 119.856 75.193 116.752 77.7703 116.528L78.9143 116.412C96.1278 114.628 99.4276 115.528 100.431 116.76C104.221 121.432 99.6283 134.36 99.0864 135.82C99.0159 136.042 98.878 136.236 98.6917 136.377C98.5055 136.517 98.2801 136.597 98.0467 136.604Z" fill="white" stroke="#263238" stroke-width="0.6" stroke-linecap="round" stroke-linejoin="round"/>
<path d="M169.013 99.016H142.635L136.533 119.612H162.911L169.013 99.016Z" fill="#D9D9D9" stroke="#263238" stroke-width="0.6" stroke-linecap="round" stroke-linejoin="round"/>
<path d="M117.236 118.484L116.902 119.612H162.911L163.248 118.484H117.236Z" fill="#D9D9D9" stroke="#263238" stroke-width="0.6" stroke-linecap="round" stroke-linejoin="round"/>
<path d="M136.913 118.484L136.58 119.612H162.91L163.247 118.484H136.913Z" fill="#263238" stroke="#263238" stroke-width="0.6" stroke-linecap="round" stroke-linejoin="round"/>
<path d="M162.532 122.704H158.068V182.176H162.532V122.704Z" fill="white" stroke="#263238" stroke-width="0.6" stroke-linecap="round" stroke-linejoin="round"/>
<path d="M162.532 122.704H158.068V132.528H162.532V122.704Z" fill="#263238" stroke="#263238" stroke-width="0.6" stroke-linecap="round" stroke-linejoin="round"/>
<path d="M216.762 119.624H103.438V122.928H216.762V119.624Z" fill="white" stroke="#263238" stroke-width="0.6" stroke-linecap="round" stroke-linejoin="round"/>
<path d="M183.593 182.66H136.625C141.272 180.483 146.343 179.354 151.478 179.356H168.792C173.927 179.353 178.999 180.482 183.645 182.66H183.593Z" fill="white" stroke="#263238" stroke-width="0.6" stroke-linecap="round" stroke-linejoin="round"/>
</svg>
