<svg width="315" height="297" viewBox="0 0 315 297" fill="none" xmlns="http://www.w3.org/2000/svg">
<path d="M6.30005 160.752C6.30005 160.752 8.08533 216.042 54.2422 252.889C100.399 289.737 164.34 292.38 216.113 295.882C267.886 299.383 307.653 270.068 313.645 225.765C319.637 181.463 280.077 168.46 258.615 118.028C237.153 67.5953 239.061 51.0144 193.648 19.9979C148.234 -11.0185 77.1827 8.02963 39.9523 61.1667C2.72181 114.304 6.30005 160.752 6.30005 160.752Z" fill="#108E66"/>
<path opacity="0.7" d="M6.30005 160.752C6.30005 160.752 8.08533 216.042 54.2422 252.889C100.399 289.737 164.34 292.38 216.113 295.882C267.886 299.383 307.653 270.068 313.645 225.765C319.637 181.463 280.077 168.46 258.615 118.028C237.153 67.5953 239.061 51.0144 193.648 19.9979C148.234 -11.0185 77.1827 8.02963 39.9523 61.1667C2.72181 114.304 6.30005 160.752 6.30005 160.752Z" fill="white"/>
<path d="M303.248 171.962H0.0634766" stroke="#263238" stroke-width="1.08162" stroke-miterlimit="10"/>
<path d="M55.6758 83.6016C55.6758 81.4945 56.6489 79.9468 58.8403 79.9468C61.0316 79.9468 62.043 81.4792 62.043 83.6016V91.0033C62.043 93.1104 61.0699 94.6581 58.8403 94.6581C56.6106 94.6581 55.6758 93.1257 55.6758 91.0033V83.6016ZM56.6259 91.0646C56.6259 92.597 57.2465 93.7923 58.8403 93.7923C60.434 93.7923 61.0929 92.6353 61.0929 91.0646V83.5403C61.0929 82.0079 60.4493 80.8126 58.8403 80.8126C57.2312 80.8126 56.6259 81.9696 56.6259 83.5403V91.0646Z" fill="#263238"/>
<path d="M63.5518 83.6016C63.5518 81.4945 64.5248 79.9468 66.7086 79.9468C68.8923 79.9468 69.9114 81.4792 69.9114 83.6016V91.0033C69.9114 93.1104 68.9459 94.6581 66.7086 94.6581C64.4712 94.6581 63.5518 93.1257 63.5518 91.0033V83.6016ZM64.5019 91.0646C64.5019 92.597 65.1225 93.7923 66.7086 93.7923C68.2946 93.7923 68.9612 92.6353 68.9612 91.0646V83.5403C68.9612 82.0079 68.3253 80.8126 66.7086 80.8126C65.0918 80.8126 64.5019 81.9696 64.5019 83.5403V91.0646Z" fill="#263238"/>
<path d="M74.4783 80.0693C76.7157 80.0693 77.5815 81.4792 77.5815 83.5863V85.157C77.5815 87.4557 76.5241 88.582 74.2331 88.582H72.4325V94.5355H71.4824V80.0693H74.4783ZM74.2331 87.7315C75.9035 87.7315 76.6314 86.9653 76.6314 85.2336V83.5403C76.6314 81.9696 76.095 80.9581 74.4783 80.9581H72.4325V87.7315H74.2331Z" fill="#263238"/>
<path d="M85.1055 83.5633V83.8698H84.1937V83.502C84.1937 81.9696 83.619 80.8126 82.0483 80.8126C80.4775 80.8126 79.8952 81.9543 79.8952 83.479C79.8952 86.996 85.1208 87.0573 85.1208 91.0416C85.1208 93.1257 84.2167 94.6581 82.0023 94.6581C79.7879 94.6581 78.8838 93.1257 78.8838 91.0416V90.2754H79.7956V91.0416C79.7956 92.574 80.3932 93.708 81.987 93.708C83.5807 93.708 84.1707 92.5894 84.1707 91.0416C84.1707 87.5706 78.9451 87.5093 78.9451 83.479C78.9451 81.3106 79.8952 79.9085 82.01 79.8855C84.1247 79.8625 85.1055 81.4792 85.1055 83.5633Z" fill="#263238"/>
<path d="M87.4584 92.7197V94.5357H86.5312V92.7197H87.4584Z" fill="#263238"/>
<path d="M90.0629 92.7197V94.5357H89.1357V92.7197H90.0629Z" fill="#263238"/>
<path d="M92.6449 92.7197V94.5357H91.7178V92.7197H92.6449Z" fill="#263238"/>
<path d="M21.7627 144.002L38.0448 105.5H47.814V144.002H52.0436V152.14H47.814V162.476H39.0179V152.14H21.7627V144.002ZM39.0179 144.002V122.594L29.9919 144.002H39.0179Z" fill="#263238"/>
<path d="M55.3838 119.169C55.3838 110.059 60.188 104.849 68.9765 104.849C77.765 104.849 82.5691 110.059 82.5691 119.169V148.799C82.5691 157.917 77.765 163.127 68.9765 163.127C60.188 163.127 55.3838 157.917 55.3838 148.799V119.169ZM64.3332 149.373C64.3332 153.442 66.1261 154.99 68.9765 154.99C71.8268 154.99 73.6197 153.457 73.6197 149.373V118.602C73.6197 114.534 71.8268 112.986 68.9765 112.986C66.1261 112.986 64.3332 114.518 64.3332 118.602V149.373Z" fill="#263238"/>
<path d="M86.2324 144.002L102.515 105.5H112.284V144.002H116.513V152.14H112.284V162.476H103.488V152.14H86.2324V144.002ZM103.488 144.002V122.594L94.4539 144.002H103.488Z" fill="#263238"/>
<path d="M25.6856 176.161C27.877 176.161 28.7504 177.54 28.7504 179.601V181.133C28.7504 183.378 27.7161 184.497 25.471 184.497H23.7087V190.32H22.751V176.161H25.6856ZM25.4481 183.654C27.0878 183.654 27.7927 182.888 27.7927 181.202V179.54C27.7927 178.007 27.2716 177.011 25.6856 177.011H23.6858V183.654H25.4481Z" fill="#263238"/>
<path d="M31.2175 187.163L30.5049 190.297H29.6621L32.727 176.107H34.0832L37.24 190.297H36.3359L35.6309 187.163H31.2175ZM31.3554 186.351H35.4854L33.4012 177.157L31.3554 186.351Z" fill="#263238"/>
<path d="M44.7264 179.624V180.673H43.8299V179.562C43.8299 178.03 43.2476 176.888 41.6845 176.888C40.1214 176.888 39.5391 178.045 39.5391 179.562V186.933C39.5391 188.466 40.1291 189.584 41.6845 189.584C43.2399 189.584 43.8299 188.451 43.8299 186.933V183.869H41.9527V183.026H44.7264V186.857C44.7264 188.903 43.8299 190.435 41.6615 190.435C39.4932 190.435 38.5967 188.903 38.5967 186.857V179.608C38.5967 177.563 39.4855 176.022 41.6615 176.022C43.8376 176.022 44.7264 177.578 44.7264 179.624Z" fill="#263238"/>
<path d="M51.0784 182.719V183.57H47.2473V189.462H51.8982V190.305H46.3125V176.161H51.8982V177.011H47.2473V182.719H51.0784Z" fill="#263238"/>
<path d="M57.3769 190.328H56.5264V176.161H57.7447L61.9972 188.121V176.161H62.8477V190.328H61.8133L57.3769 177.701V190.328Z" fill="#263238"/>
<path d="M64.3877 179.624C64.3877 177.555 65.3378 176.038 67.4526 176.038C69.5673 176.038 70.5864 177.571 70.5864 179.624V186.872C70.5864 188.933 69.6363 190.451 67.4526 190.451C65.2688 190.451 64.3877 188.918 64.3877 186.872V179.624ZM65.3148 186.934C65.3148 188.466 65.9201 189.6 67.4832 189.6C69.0463 189.6 69.6899 188.466 69.6899 186.934V179.563C69.6899 178.03 69.0616 176.889 67.4832 176.889C65.9048 176.889 65.3148 178.023 65.3148 179.563V186.934Z" fill="#263238"/>
<path d="M74.5471 190.328V177.011H71.6738V176.161H78.3706V177.011H75.4819V190.328H74.5471Z" fill="#263238"/>
<path d="M87.2668 183.064V183.915H83.6273V190.328H82.7002V176.161H88.0637V177.011H83.6273V183.064H87.2668Z" fill="#263238"/>
<path d="M89.4121 179.624C89.4121 177.555 90.3622 176.038 92.477 176.038C94.5917 176.038 95.6185 177.571 95.6185 179.624V186.872C95.6185 188.933 94.6607 190.451 92.477 190.451C90.2933 190.451 89.4121 188.918 89.4121 186.872V179.624ZM90.3392 186.934C90.3392 188.466 90.9522 189.6 92.5076 189.6C94.063 189.6 94.7143 188.466 94.7143 186.934V179.563C94.7143 178.03 94.086 176.889 92.5076 176.889C90.9292 176.889 90.3392 178.023 90.3392 179.563V186.934Z" fill="#263238"/>
<path d="M98.0779 186.911C98.0779 188.443 98.6449 189.6 100.2 189.6C101.756 189.6 102.33 188.428 102.33 186.911V176.184H103.196V186.911C103.196 188.933 102.346 190.489 100.185 190.489C98.0243 190.489 97.1201 188.956 97.1201 186.911V176.184H98.0549L98.0779 186.911Z" fill="#263238"/>
<path d="M105.648 190.328H104.798V176.161H106.016L110.269 188.121V176.161H111.119V190.328H110.085L105.648 177.701V190.328Z" fill="#263238"/>
<path d="M115.808 176.161C117.999 176.161 118.95 177.601 118.95 179.685V186.811C118.95 188.895 117.999 190.328 115.808 190.328H112.743V176.161H115.808ZM115.808 189.462C117.386 189.462 118.03 188.382 118.03 186.826V179.616C118.03 178.084 117.363 176.988 115.808 176.988H113.64V189.462H115.808Z" fill="#263238"/>
<path d="M285.647 17.9371C285.647 17.9371 285.647 14.1519 280.353 8.86506C275.058 3.57816 271.656 0.543945 271.656 0.543945C271.656 0.543945 269.013 9.2405 273.955 14.5351C277.564 18.2492 281.475 21.6577 285.647 24.7257V17.9371Z" fill="#108E66"/>
<path d="M277.963 41.5826C277.963 41.5826 277.963 37.7975 272.676 32.5106C267.389 27.2237 263.98 24.1895 263.98 24.1895C263.98 24.1895 261.336 32.886 266.278 38.1806C269.893 41.9023 273.812 45.3161 277.994 48.3866L277.963 41.5826Z" fill="#108E66"/>
<path d="M285.31 24.3733C285.31 24.3733 285.716 20.6112 291.532 15.9066C297.347 11.202 301.056 8.55859 301.056 8.55859C301.056 8.55859 302.765 17.485 297.324 22.2279C293.337 25.5471 289.08 28.5278 284.598 31.139L285.31 24.3733Z" fill="#108E66"/>
<path d="M276.032 52.2561C276.032 52.2561 276.798 48.5552 283.111 44.4866C289.425 40.418 293.356 38.1807 293.356 38.1807C293.356 38.1807 294.122 47.2373 288.207 51.3826C283.891 54.2659 279.342 56.7828 274.606 58.9068L276.032 52.2561Z" fill="#108E66"/>
<path d="M277.779 82.6519C277.779 82.6519 277.779 78.8668 283.073 73.5799C288.368 68.293 291.762 65.2588 291.762 65.2588C291.762 65.2588 294.413 73.9554 289.464 79.2499C285.849 82.9716 281.93 86.3854 277.748 89.4559L277.779 82.6519Z" fill="#108E66"/>
<path d="M277.695 90.0686C277.695 90.0686 278.231 86.3294 273.741 80.3376C269.251 74.3458 266.317 70.8672 266.317 70.8672C266.317 70.8672 262.485 79.0964 266.577 85.0345C269.623 89.2326 273.014 93.1692 276.714 96.8036L277.695 90.0686Z" fill="#108E66"/>
<path d="M272.477 112.074C272.477 112.074 272.477 108.297 277.764 103.002C283.051 97.7077 286.46 94.6812 286.46 94.6812C286.46 94.6812 289.104 103.378 284.162 108.672C280.549 112.396 276.63 115.81 272.446 118.878L272.477 112.074Z" fill="#108E66"/>
<path d="M276.009 131.996C276.009 131.996 275.051 128.333 278.829 121.874C282.606 115.415 285.142 111.63 285.142 111.63C285.142 111.63 289.9 119.369 286.491 125.736C283.934 130.251 281.008 134.547 277.74 138.578L276.009 131.996Z" fill="#108E66"/>
<path d="M286.123 16.9639C285.857 20.9004 285.374 24.8192 284.675 28.7023C282.583 39.5136 277.357 46.4862 275.265 56.2478C273.174 66.0094 279.173 78.583 277.564 91.1259C275.955 103.669 271.082 110.634 272.476 119.009C273.871 127.383 281.188 150.033 281.188 150.033" stroke="#263238" stroke-width="1.08162" stroke-linecap="round" stroke-linejoin="round"/>
<path d="M285.265 26.8863L290.965 22.5112" stroke="#263238" stroke-width="1.08162" stroke-linecap="round" stroke-linejoin="round"/>
<path d="M285.525 21.8449L283.143 17.6001" stroke="#263238" stroke-width="1.08162" stroke-linecap="round" stroke-linejoin="round"/>
<path d="M275.58 55.7956C275.58 55.7956 280.354 52.2174 285.265 48.6392" stroke="#263238" stroke-width="1.08162" stroke-linecap="round" stroke-linejoin="round"/>
<path d="M277.962 48.348C277.962 48.348 273.986 40.5479 269.48 35.376" stroke="#263238" stroke-width="1.08162" stroke-linecap="round" stroke-linejoin="round"/>
<path d="M277.971 88.0303C280.703 83.0042 284.151 78.4022 288.207 74.3687" stroke="#263238" stroke-width="1.08162" stroke-linecap="round" stroke-linejoin="round"/>
<path d="M277.035 93.3325C275.588 89.9224 273.858 86.6392 271.863 83.5173C269.082 79.4027 268.684 78.874 268.684 78.874" stroke="#263238" stroke-width="1.08162" stroke-linecap="round" stroke-linejoin="round"/>
<path d="M272.477 119.009C273.683 116.003 275.121 113.096 276.775 110.312C278.426 107.73 280.289 105.29 282.345 103.018" stroke="#263238" stroke-width="1.08162" stroke-linecap="round" stroke-linejoin="round"/>
<path d="M277.733 138.578C277.457 135.709 277.948 132.819 279.158 130.203C281.151 126.372 283.403 121.315 284.33 119.331" stroke="#263238" stroke-width="1.08162" stroke-linecap="round" stroke-linejoin="round"/>
<path d="M250.992 68.4C250.992 68.4 250.578 66.0324 253.329 62.14C256.08 58.2476 257.872 56.0103 257.872 56.0103C257.872 56.0103 260.478 61.1746 257.972 65.0286C256.11 67.7539 254.021 70.3171 251.727 72.6908L250.992 68.4Z" fill="#108E66"/>
<path d="M258.371 82.4066C258.371 82.4066 257.957 80.0314 260.708 76.139C263.458 72.2466 265.251 70.0093 265.251 70.0093C265.251 70.0093 267.857 75.1736 265.351 79.0276C263.489 81.7529 261.4 84.3161 259.106 86.6898L258.371 82.4066Z" fill="#108E66"/>
<path d="M251.896 72.438C251.896 72.438 251.237 70.1393 247.077 67.8023C242.916 65.4654 240.311 64.2241 240.311 64.2241C240.311 64.2241 240.204 70.0091 244.142 72.392C247.003 74.0409 249.996 75.4479 253.091 76.5985L251.896 72.438Z" fill="#108E66"/>
<path d="M260.746 88.9116C260.746 88.9116 259.85 86.6819 255.467 84.8124C251.084 82.9428 248.356 81.9697 248.356 81.9697C248.356 81.9697 248.862 87.7317 253.015 89.6855C256.036 91.0233 259.162 92.1074 262.363 92.9266L260.746 88.9116Z" fill="#108E66"/>
<path d="M262.922 108.159C262.922 108.159 262.508 105.791 258.616 103.048C254.723 100.305 252.264 98.7729 252.264 98.7729C252.264 98.7729 251.543 104.512 255.198 107.301C257.862 109.239 260.681 110.953 263.627 112.427L262.922 108.159Z" fill="#108E66"/>
<path d="M263.811 112.841C263.811 112.841 263.045 110.542 265.228 106.313C267.412 102.083 268.86 99.5698 268.86 99.5698C268.86 99.5698 272.17 104.313 270.232 108.481C268.778 111.445 267.079 114.282 265.152 116.963L263.811 112.841Z" fill="#108E66"/>
<path d="M270.454 131.927C270.454 131.927 270.73 129.537 274.461 126.564C278.193 123.591 280.591 121.966 280.591 121.966C280.591 121.966 281.633 127.659 278.139 130.648C275.585 132.739 272.861 134.613 269.994 136.249L270.454 131.927Z" fill="#108E66"/>
<path d="M269.473 126.027C269.473 126.027 269.06 123.66 265.167 120.909C261.275 118.158 258.815 116.641 258.815 116.641C258.815 116.641 258.095 122.38 261.75 125.169C264.413 127.107 267.233 128.821 270.178 130.295L269.473 126.027Z" fill="#108E66"/>
<path d="M269.419 138.892C269.419 138.892 269.618 136.494 266.554 132.854C263.489 129.215 261.489 127.107 261.489 127.107C261.489 127.107 259.336 132.471 262.171 136.103C264.269 138.657 266.576 141.032 269.067 143.206L269.419 138.892Z" fill="#108E66"/>
<path d="M250.586 67.8789C251.181 70.3179 251.91 72.7223 252.77 75.0813C255.252 81.6325 259.29 85.4329 261.665 91.3328C264.041 97.2326 261.665 105.768 264.002 113.453C266.339 121.139 270.193 124.947 270.224 130.379C270.255 135.812 268.125 150.791 268.125 150.791" stroke="#263238" stroke-width="1.08162" stroke-linecap="round" stroke-linejoin="round"/>
<path d="M252.203 74.0008L248.157 71.8784" stroke="#263238" stroke-width="1.08162" stroke-linecap="round" stroke-linejoin="round"/>
<path d="M251.49 70.8748L252.525 67.9556" stroke="#263238" stroke-width="1.08162" stroke-linecap="round" stroke-linejoin="round"/>
<path d="M261.389 91.0878C261.389 91.0878 258.01 89.3561 254.539 87.6475" stroke="#263238" stroke-width="1.08162" stroke-linecap="round" stroke-linejoin="round"/>
<path d="M259.091 86.6667C260.087 83.5163 261.405 80.4764 263.022 77.5947" stroke="#263238" stroke-width="1.08162" stroke-linecap="round" stroke-linejoin="round"/>
<path d="M263.42 111.553C261.163 108.701 258.504 106.19 255.528 104.098" stroke="#263238" stroke-width="1.08162" stroke-linecap="round" stroke-linejoin="round"/>
<path d="M264.577 114.779C265.114 112.485 265.841 110.24 266.753 108.067C268.056 105.186 268.247 104.811 268.247 104.811" stroke="#263238" stroke-width="1.08162" stroke-linecap="round" stroke-linejoin="round"/>
<path d="M270.04 134.479C271.356 132.845 272.815 131.332 274.4 129.958C275.406 129.215 276.352 128.392 277.227 127.499" stroke="#263238" stroke-width="1.08162" stroke-linecap="round" stroke-linejoin="round"/>
<path d="M270.223 130.379C269.139 128.629 267.922 126.964 266.584 125.399C265.268 123.96 263.835 122.633 262.301 121.43" stroke="#263238" stroke-width="1.08162" stroke-linecap="round" stroke-linejoin="round"/>
<path d="M269.052 143.229C268.916 141.399 268.291 139.64 267.243 138.134C265.581 135.934 263.619 133.023 262.822 131.874" stroke="#263238" stroke-width="1.08162" stroke-linecap="round" stroke-linejoin="round"/>
<path d="M286.276 176.59H262.976C262.393 176.588 261.835 176.355 261.423 175.944C261.011 175.532 260.779 174.973 260.777 174.391L257.313 148.171H291.931L288.476 174.391C288.473 174.973 288.241 175.532 287.829 175.944C287.417 176.355 286.859 176.588 286.276 176.59Z" fill="#263238"/>
<path d="M291.632 152.684H257.313C256.596 152.684 255.908 152.399 255.401 151.892C254.893 151.384 254.608 150.696 254.608 149.979C254.607 149.623 254.677 149.271 254.812 148.942C254.948 148.613 255.147 148.313 255.398 148.062C255.649 147.81 255.948 147.61 256.276 147.473C256.605 147.337 256.957 147.267 257.313 147.267H291.632C291.988 147.267 292.341 147.337 292.67 147.473C292.999 147.609 293.298 147.809 293.55 148.061C293.802 148.313 294.002 148.612 294.138 148.941C294.274 149.27 294.344 149.623 294.344 149.979C294.342 150.697 294.056 151.385 293.547 151.892C293.039 152.399 292.35 152.684 291.632 152.684Z" fill="#263238"/>
<path d="M258.569 207.307C257.956 207.309 257.352 207.154 256.816 206.857C256.279 206.56 255.827 206.132 255.502 205.612C255.177 205.092 254.99 204.498 254.958 203.886C254.926 203.273 255.051 202.663 255.32 202.112C256.019 200.714 256.156 199.101 255.705 197.604C255.253 196.107 254.247 194.839 252.891 194.059C247.482 190.596 234.9 190.044 230.495 190.113H230.433C229.474 190.123 228.551 189.75 227.866 189.079C227.181 188.407 226.792 187.491 226.782 186.531C226.773 185.572 227.146 184.649 227.817 183.964C228.489 183.279 229.405 182.89 230.364 182.88C232.211 182.842 248.57 182.712 256.784 187.968C264.882 193.155 263.626 201.538 261.825 205.254C261.53 205.867 261.068 206.386 260.492 206.749C259.916 207.112 259.25 207.306 258.569 207.307Z" fill="#263238"/>
<path d="M275.242 226.386L274.446 229.091L262.378 209.246L262.063 204.962L275.242 226.386Z" fill="white" stroke="#263238" stroke-width="1.08162" stroke-linecap="round" stroke-linejoin="round"/>
<path d="M274.445 229.091L278.215 227.229L278.889 224.646L275.242 226.386L274.445 229.091Z" fill="white" stroke="#263238" stroke-width="1.08162" stroke-linecap="round" stroke-linejoin="round"/>
<path d="M260.477 202.741L274.445 202.258L278.889 224.647L275.242 226.386L260.477 202.741Z" fill="white" stroke="#263238" stroke-width="1.08162" stroke-linecap="round" stroke-linejoin="round"/>
<path d="M258.569 203.69L272.537 227.183L267.94 229.405L247.298 212.579L258.569 203.69Z" fill="white" stroke="#263238" stroke-width="1.08162" stroke-linecap="round" stroke-linejoin="round"/>
<path d="M267.94 229.405L267.304 231.788L246.509 215.276L247.298 212.579L267.94 229.405Z" fill="white" stroke="#263238" stroke-width="1.08162" stroke-linecap="round" stroke-linejoin="round"/>
<path d="M267.94 229.405L272.537 227.183L271.909 229.566L267.304 231.788L267.94 229.405Z" fill="white" stroke="#263238" stroke-width="1.08162" stroke-linecap="round" stroke-linejoin="round"/>
<path d="M266.318 212.163C269.083 209.398 269.083 204.915 266.318 202.151C263.554 199.386 259.071 199.386 256.306 202.151C253.541 204.915 253.541 209.398 256.306 212.163C259.071 214.928 263.554 214.928 266.318 212.163Z" fill="#108E66" stroke="#263238" stroke-width="1.08162" stroke-linecap="round" stroke-linejoin="round"/>
<path d="M112.106 226.386L112.903 229.091L124.964 209.246L125.285 204.962L112.106 226.386Z" fill="white" stroke="#263238" stroke-width="1.08162" stroke-linecap="round" stroke-linejoin="round"/>
<path d="M112.904 229.091L109.134 227.229L108.46 224.646L112.107 226.386L112.904 229.091Z" fill="white" stroke="#263238" stroke-width="1.08162" stroke-linecap="round" stroke-linejoin="round"/>
<path d="M126.872 202.741L112.904 202.258L108.46 224.647L112.107 226.386L126.872 202.741Z" fill="white" stroke="#263238" stroke-width="1.08162" stroke-linecap="round" stroke-linejoin="round"/>
<path d="M128.779 203.69L114.804 227.183L119.409 229.405L140.043 212.579L128.779 203.69Z" fill="white" stroke="#263238" stroke-width="1.08162" stroke-linecap="round" stroke-linejoin="round"/>
<path d="M119.409 229.405L120.045 231.788L140.84 215.276L140.043 212.579L119.409 229.405Z" fill="white" stroke="#263238" stroke-width="1.08162" stroke-linecap="round" stroke-linejoin="round"/>
<path d="M119.409 229.405L114.804 227.183L115.44 229.566L120.045 231.788L119.409 229.405Z" fill="white" stroke="#263238" stroke-width="1.08162" stroke-linecap="round" stroke-linejoin="round"/>
<path d="M126.489 209.713C125.741 209.716 125.01 209.488 124.398 209.058C123.785 208.629 123.321 208.02 123.069 207.316C122.817 206.611 122.789 205.846 122.99 205.126C123.191 204.405 123.61 203.765 124.19 203.292C152.939 179.9 147.085 145.014 147.024 144.662C146.881 143.729 147.108 142.777 147.657 142.009C148.206 141.242 149.033 140.719 149.962 140.553C150.891 140.387 151.848 140.591 152.629 141.121C153.41 141.651 153.953 142.465 154.142 143.39C154.425 144.991 160.777 182.85 128.757 208.901C128.117 209.424 127.316 209.711 126.489 209.713Z" fill="#263238"/>
<path d="M168.486 136.955C169.733 129.235 164.484 121.966 156.764 120.72C149.044 119.473 141.775 124.721 140.529 132.442C139.283 140.162 144.531 147.431 152.251 148.677C159.971 149.923 167.24 144.675 168.486 136.955Z" fill="#ADADAD" stroke="#263238" stroke-width="1.08162" stroke-linecap="round" stroke-linejoin="round"/>
<path d="M131.038 212.16C133.803 209.396 133.803 204.913 131.038 202.148C128.273 199.383 123.791 199.383 121.026 202.148C118.261 204.913 118.261 209.396 121.026 212.16C123.791 214.925 128.273 214.925 131.038 212.16Z" fill="#108E66" stroke="#263238" stroke-width="1.08162" stroke-linecap="round" stroke-linejoin="round"/>
<path d="M192.421 193.009C204.833 193.009 214.894 183.624 214.894 172.046C214.894 160.468 204.833 151.082 192.421 151.082C180.01 151.082 169.948 160.468 169.948 172.046C169.948 183.624 180.01 193.009 192.421 193.009Z" fill="#ADADAD" stroke="#263238" stroke-width="1.08162" stroke-linecap="round" stroke-linejoin="round"/>
<path d="M180.714 163.089L182.813 171.279C183.434 173.306 184.748 175.05 186.527 176.203C188.305 177.356 190.433 177.846 192.537 177.585C194.638 177.323 196.579 176.327 198.018 174.774C199.457 173.222 200.303 171.211 200.406 169.096L200.819 160.836L180.714 163.089Z" fill="#263238" stroke="#263238" stroke-width="1.08162" stroke-linecap="round" stroke-linejoin="round"/>
<path d="M225.017 121.874C222.896 121.905 220.783 121.616 218.749 121.016L219.331 119.307C219.431 119.307 229.491 122.579 239.736 115.085L240.801 116.549C236.25 119.977 230.714 121.844 225.017 121.874Z" fill="#263238"/>
<path d="M236.311 135.467C228.02 123.353 218.588 124.265 218.496 124.272L218.297 122.479C218.726 122.433 228.909 121.445 237.797 134.448L236.311 135.467Z" fill="#263238"/>
<path d="M234.211 144.026C223.484 140.723 217.04 126.441 216.765 125.836L218.42 125.069C218.481 125.215 224.81 139.206 234.748 142.263L234.211 144.026Z" fill="#263238"/>
<path d="M239.789 116.304L242.685 114.373" stroke="#263238" stroke-width="1.08162" stroke-miterlimit="10"/>
<path d="M236.249 133.352L238.18 137.206" stroke="#263238" stroke-width="1.08162" stroke-miterlimit="10"/>
<path d="M232.87 142.516C234.397 142.904 235.962 143.12 237.536 143.16" stroke="#263238" stroke-width="1.08162" stroke-miterlimit="10"/>
<path d="M151.536 119.216L154.21 137.919L220.756 131.115L220.511 111.684L151.536 119.216Z" fill="white" stroke="#263238" stroke-width="1.08162" stroke-linecap="round" stroke-linejoin="round"/>
<path d="M154.211 137.919L166.11 168.031L217.355 162.928L220.757 131.115L154.211 137.919Z" fill="#E5E5E5" stroke="#263238" stroke-width="1.08162" stroke-linecap="round" stroke-linejoin="round"/>
<path d="M170.263 145.788L174.937 159.579C175.27 160.574 175.938 161.423 176.826 161.982C177.714 162.541 178.769 162.775 179.81 162.644L200.337 160.407C201.373 160.281 202.334 159.803 203.06 159.052C203.785 158.302 204.23 157.325 204.321 156.285L205.593 141.78C205.636 141.305 205.573 140.827 205.407 140.379C205.242 139.932 204.98 139.527 204.638 139.194C204.297 138.861 203.886 138.608 203.435 138.454C202.984 138.299 202.504 138.247 202.03 138.302L172.968 141.55C172.488 141.603 172.027 141.762 171.617 142.017C171.207 142.272 170.86 142.615 170.6 143.021C170.341 143.428 170.176 143.887 170.118 144.366C170.059 144.845 170.109 145.331 170.263 145.788Z" fill="#263238"/>
<mask id="mask0_2248_25097" style="mask-type:luminance" maskUnits="userSpaceOnUse" x="170" y="138" width="36" height="25">
<path d="M170.263 145.788L174.937 159.579C175.27 160.574 175.938 161.423 176.826 161.982C177.714 162.541 178.769 162.775 179.81 162.644L200.337 160.407C201.373 160.281 202.334 159.803 203.06 159.052C203.785 158.302 204.23 157.325 204.321 156.285L205.593 141.78C205.636 141.305 205.573 140.827 205.407 140.379C205.242 139.932 204.98 139.527 204.638 139.194C204.297 138.861 203.886 138.608 203.435 138.454C202.984 138.299 202.504 138.247 202.03 138.302L172.968 141.55C172.488 141.603 172.027 141.762 171.617 142.017C171.207 142.272 170.86 142.615 170.6 143.021C170.341 143.428 170.176 143.887 170.118 144.366C170.059 144.845 170.109 145.331 170.263 145.788Z" fill="white"/>
</mask>
<g mask="url(#mask0_2248_25097)">
<path d="M170.263 153.365L178.737 152.615L181.426 145.312L187.755 156.691L190.974 148.209L192.583 150.898L207.938 149.067" stroke="white" stroke-width="1.08162" stroke-linecap="round" stroke-linejoin="round"/>
</g>
<path d="M170.263 145.788L174.937 159.579C175.27 160.574 175.938 161.423 176.826 161.982C177.714 162.541 178.769 162.775 179.81 162.644L200.337 160.407C201.373 160.281 202.334 159.803 203.06 159.052C203.785 158.302 204.23 157.325 204.321 156.285L205.593 141.78C205.636 141.305 205.573 140.827 205.407 140.379C205.242 139.932 204.98 139.527 204.638 139.194C204.297 138.861 203.886 138.608 203.435 138.454C202.984 138.299 202.504 138.247 202.03 138.302L172.968 141.55C172.488 141.603 172.027 141.762 171.617 142.017C171.207 142.272 170.86 142.615 170.6 143.021C170.341 143.428 170.176 143.887 170.118 144.366C170.059 144.845 170.109 145.331 170.263 145.788Z" stroke="#263238" stroke-width="1.08162" stroke-linecap="round" stroke-linejoin="round"/>
<path d="M213.032 143.627C215.089 143.627 216.756 141.96 216.756 139.903C216.756 137.846 215.089 136.179 213.032 136.179C210.976 136.179 209.309 137.846 209.309 139.903C209.309 141.96 210.976 143.627 213.032 143.627Z" fill="white" stroke="#263238" stroke-width="1.08162" stroke-linecap="round" stroke-linejoin="round"/>
<path d="M216.067 151.55C216.067 152.241 215.862 152.916 215.478 153.491C215.094 154.065 214.549 154.513 213.91 154.778C213.272 155.042 212.569 155.111 211.891 154.976C211.214 154.842 210.591 154.509 210.102 154.02C209.614 153.532 209.281 152.909 209.146 152.231C209.011 151.553 209.081 150.851 209.345 150.213C209.61 149.574 210.057 149.028 210.632 148.644C211.206 148.261 211.882 148.056 212.573 148.056C213.5 148.056 214.388 148.424 215.044 149.079C215.699 149.734 216.067 150.623 216.067 151.55Z" fill="#108E66" stroke="#263238" stroke-width="1.08162" stroke-linecap="round" stroke-linejoin="round"/>
<path d="M167.696 143.949C167.908 144.654 167.907 145.406 167.692 146.11C167.477 146.815 167.058 147.439 166.488 147.905C165.918 148.372 165.222 148.658 164.489 148.73C163.757 148.801 163.019 148.653 162.37 148.305C161.721 147.957 161.19 147.424 160.844 146.774C160.497 146.124 160.352 145.387 160.425 144.654C160.498 143.921 160.786 143.227 161.254 142.658C161.722 142.089 162.347 141.672 163.052 141.459C163.521 141.316 164.013 141.267 164.5 141.315C164.987 141.363 165.46 141.507 165.892 141.739C166.323 141.97 166.705 142.284 167.014 142.664C167.324 143.043 167.555 143.48 167.696 143.949Z" fill="#108E66" stroke="#263238" stroke-width="1.08162" stroke-linecap="round" stroke-linejoin="round"/>
<path d="M169.978 158.225C171.029 156.607 170.569 154.443 168.951 153.392C167.333 152.341 165.169 152.801 164.118 154.419C163.067 156.038 163.527 158.202 165.145 159.253C166.763 160.304 168.927 159.844 169.978 158.225Z" fill="white" stroke="#263238" stroke-width="1.08162" stroke-linecap="round" stroke-linejoin="round"/>
<path d="M178.921 196.496C184.388 196.496 188.821 192.222 188.821 186.949C188.821 181.676 184.388 177.402 178.921 177.402C173.454 177.402 169.021 181.676 169.021 186.949C169.021 192.222 173.454 196.496 178.921 196.496Z" fill="#108E66" stroke="#263238" stroke-width="1.08162" stroke-linecap="round" stroke-linejoin="round"/>
<path d="M164.363 208.372L173.428 188.022C173.816 187.147 174.513 186.447 175.384 186.052C176.256 185.658 177.242 185.598 178.155 185.884C179.097 186.173 179.895 186.807 180.388 187.66C180.881 188.513 181.033 189.521 180.814 190.481L174.845 217.237L164.363 208.372Z" fill="#263238" stroke="#263238" stroke-width="1.08162" stroke-linecap="round" stroke-linejoin="round"/>
<path d="M161.336 177.203L181.127 223.781L157.375 227.045C157.375 227.045 143.169 212.602 133.622 185.125L161.336 177.203Z" fill="#ADADAD" stroke="#263238" stroke-width="1.08162" stroke-linecap="round" stroke-linejoin="round"/>
<path d="M161.336 177.164L162.263 172.743L182.062 220.249L181.127 223.743L161.336 177.164Z" fill="white" stroke="#263238" stroke-width="1.08162" stroke-linecap="round" stroke-linejoin="round"/>
<path d="M162.263 172.743L135.254 180.888L133.622 185.087L161.336 177.164L162.263 172.743Z" fill="white" stroke="#263238" stroke-width="1.08162" stroke-linecap="round" stroke-linejoin="round"/>
<path d="M135.484 189.508L162.731 181.125" stroke="#263238" stroke-width="1.08162" stroke-linecap="round" stroke-linejoin="round"/>
<path d="M137.576 194.396L165.06 186.949" stroke="#263238" stroke-width="1.08162" stroke-linecap="round" stroke-linejoin="round"/>
<path d="M139.676 199.522L167.39 192.075" stroke="#263238" stroke-width="1.08162" stroke-linecap="round" stroke-linejoin="round"/>
<path d="M142.702 205.813L169.719 197.89" stroke="#263238" stroke-width="1.08162" stroke-linecap="round" stroke-linejoin="round"/>
<path d="M145.567 210.809L172.515 203.713" stroke="#263238" stroke-width="1.08162" stroke-linecap="round" stroke-linejoin="round"/>
<path d="M148.525 215.375L174.845 209.069" stroke="#263238" stroke-width="1.08162" stroke-linecap="round" stroke-linejoin="round"/>
<path d="M151.935 219.766L176.469 213.966" stroke="#263238" stroke-width="1.08162" stroke-linecap="round" stroke-linejoin="round"/>
<path d="M154.349 223.352L178.722 219.321" stroke="#263238" stroke-width="1.08162" stroke-linecap="round" stroke-linejoin="round"/>
<path d="M205.286 196.496C210.754 196.496 215.186 192.222 215.186 186.949C215.186 181.676 210.754 177.402 205.286 177.402C199.819 177.402 195.387 181.676 195.387 186.949C195.387 192.222 199.819 196.496 205.286 196.496Z" fill="#108E66" stroke="#263238" stroke-width="1.08162" stroke-linecap="round" stroke-linejoin="round"/>
<path d="M219.837 208.372L210.772 188.022C210.384 187.147 209.687 186.447 208.816 186.052C207.944 185.658 206.958 185.598 206.045 185.884C205.103 186.173 204.306 186.807 203.814 187.661C203.322 188.514 203.172 189.522 203.394 190.481L209.363 217.237L219.837 208.372Z" fill="#263238" stroke="#263238" stroke-width="1.08162" stroke-linecap="round" stroke-linejoin="round"/>
<path d="M222.871 177.203L203.072 223.781L226.825 227.045C226.825 227.045 241.031 212.602 250.578 185.125L222.871 177.203Z" fill="#ADADAD" stroke="#263238" stroke-width="1.08162" stroke-linecap="round" stroke-linejoin="round"/>
<path d="M222.872 177.164L221.937 172.743L202.138 220.249L203.072 223.743L222.872 177.164Z" fill="white" stroke="#263238" stroke-width="1.08162" stroke-linecap="round" stroke-linejoin="round"/>
<path d="M221.937 172.743L248.953 180.888L250.585 185.087L222.871 177.164L221.937 172.743Z" fill="white" stroke="#263238" stroke-width="1.08162" stroke-linecap="round" stroke-linejoin="round"/>
<path d="M248.715 189.508L221.469 181.125" stroke="#263238" stroke-width="1.08162" stroke-linecap="round" stroke-linejoin="round"/>
<path d="M246.624 194.396L219.14 186.949" stroke="#263238" stroke-width="1.08162" stroke-linecap="round" stroke-linejoin="round"/>
<path d="M244.525 199.522L216.811 192.075" stroke="#263238" stroke-width="1.08162" stroke-linecap="round" stroke-linejoin="round"/>
<path d="M241.498 205.813L214.481 197.89" stroke="#263238" stroke-width="1.08162" stroke-linecap="round" stroke-linejoin="round"/>
<path d="M238.633 210.809L211.692 203.713" stroke="#263238" stroke-width="1.08162" stroke-linecap="round" stroke-linejoin="round"/>
<path d="M235.674 215.375L209.362 209.069" stroke="#263238" stroke-width="1.08162" stroke-linecap="round" stroke-linejoin="round"/>
<path d="M232.272 219.766L207.73 213.966" stroke="#263238" stroke-width="1.08162" stroke-linecap="round" stroke-linejoin="round"/>
<path d="M229.851 223.352L205.478 219.321" stroke="#263238" stroke-width="1.08162" stroke-linecap="round" stroke-linejoin="round"/>
<path d="M240.915 137.367L243.49 138.494" stroke="#263238" stroke-width="1.08162" stroke-miterlimit="10"/>
<path d="M239.307 138.333L241.881 142.355" stroke="#263238" stroke-width="1.08162" stroke-miterlimit="10"/>
<path d="M237.859 138.493L237.376 141.068" stroke="#263238" stroke-width="1.08162" stroke-miterlimit="10"/>
<path d="M244.134 121.767H250.401" stroke="#263238" stroke-width="1.08162" stroke-miterlimit="10"/>
<path d="M239.307 122.088L248.31 124.663" stroke="#263238" stroke-width="1.08162" stroke-miterlimit="10"/>
<path d="M242.686 118.717L248.47 117.913" stroke="#263238" stroke-width="1.08162" stroke-miterlimit="10"/>
<path d="M221.937 138.654L223.546 143.321" stroke="#263238" stroke-width="1.08162" stroke-miterlimit="10"/>
<path d="M224.028 138.333L228.526 145.734" stroke="#263238" stroke-width="1.08162" stroke-miterlimit="10"/>
<path d="M225.637 133.996L229.974 135.444" stroke="#263238" stroke-width="1.08162" stroke-miterlimit="10"/>
<path d="M249.597 131.582L248.149 133.16L249.199 135.03L247.245 134.133L245.797 135.712L246.042 133.582L244.096 132.685L246.195 132.264L246.448 130.134L247.498 132.003L249.597 131.582Z" fill="#108E66" stroke="#263238" stroke-width="0.540812" stroke-linecap="round" stroke-linejoin="round"/>
<path d="M251.849 110.35L250.393 111.928L251.451 113.798L249.497 112.902L248.049 114.48L248.294 112.35L246.348 111.453L248.447 111.032L248.692 108.902L249.75 110.771L251.849 110.35Z" fill="#108E66" stroke="#263238" stroke-width="0.540812" stroke-linecap="round" stroke-linejoin="round"/>
<path d="M228.365 147.504L226.917 149.082L227.966 150.952L226.02 150.055L224.564 151.634L224.809 149.504L222.863 148.607L224.963 148.186L225.216 146.056L226.265 147.925L228.365 147.504Z" fill="#108E66" stroke="#263238" stroke-width="0.540812" stroke-linecap="round" stroke-linejoin="round"/>
<path d="M158.946 112.419C164.917 112.419 169.757 107.633 169.757 101.73C169.757 95.827 164.917 91.0415 158.946 91.0415C152.975 91.0415 148.135 95.827 148.135 101.73C148.135 107.633 152.975 112.419 158.946 112.419Z" fill="#ADADAD" stroke="#263238" stroke-width="1.08162" stroke-linecap="round" stroke-linejoin="round"/>
<path d="M206.06 109.499C212.031 109.499 216.872 104.714 216.872 98.8108C216.872 92.9076 212.031 88.1221 206.06 88.1221C200.089 88.1221 195.249 92.9076 195.249 98.8108C195.249 104.714 200.089 109.499 206.06 109.499Z" fill="#ADADAD" stroke="#263238" stroke-width="1.08162" stroke-linecap="round" stroke-linejoin="round"/>
<path d="M184.323 134.271C191.834 134.271 197.923 128.453 197.923 121.276C197.923 114.099 191.834 108.281 184.323 108.281C176.812 108.281 170.723 114.099 170.723 121.276C170.723 128.453 176.812 134.271 184.323 134.271Z" fill="#108E66" stroke="#263238" stroke-width="1.08162" stroke-linecap="round" stroke-linejoin="round"/>
<path d="M174.369 114.603L176.246 122.847C176.807 124.891 178.072 126.67 179.817 127.872C181.563 129.073 183.677 129.619 185.786 129.414C187.894 129.209 189.862 128.268 191.344 126.756C192.827 125.244 193.729 123.258 193.892 121.146L194.528 112.902L174.369 114.603Z" fill="#263238" stroke="#263238" stroke-width="1.08162" stroke-linecap="round" stroke-linejoin="round"/>
<path d="M161.98 79.8702L156.885 100.275L207.639 96.1446L200.115 76.7134L161.98 79.8702Z" fill="white" stroke="#263238" stroke-width="1.08162" stroke-linecap="round" stroke-linejoin="round"/>
<path d="M156.885 100.274L165.865 122.617L205.7 118.733L207.639 96.1445L156.885 100.274Z" fill="#E5E5E5" stroke="#263238" stroke-width="1.08162" stroke-linecap="round" stroke-linejoin="round"/>
<path d="M179.71 109.385C179.572 112.557 176.798 115.055 173.48 115.308C170.163 115.56 166.914 113.484 166.201 110.342C165.435 106.741 168.125 103.201 172.377 102.933C176.63 102.665 179.855 105.768 179.71 109.385Z" fill="#108E66" stroke="#263238" stroke-width="1.08162" stroke-linecap="round" stroke-linejoin="round"/>
<path d="M177.174 109.561C177.133 110.564 176.716 111.514 176.006 112.224C175.296 112.934 174.346 113.35 173.343 113.392C172.325 113.502 171.302 113.234 170.469 112.639C169.635 112.045 169.049 111.165 168.822 110.166C168.447 107.99 170.155 105.944 172.653 105.776C173.201 105.714 173.755 105.765 174.283 105.924C174.811 106.083 175.301 106.348 175.723 106.701C176.146 107.055 176.492 107.491 176.742 107.982C176.991 108.474 177.138 109.011 177.174 109.561Z" fill="white" stroke="#263238" stroke-width="1.08162" stroke-linecap="round" stroke-linejoin="round"/>
<path d="M202.291 107.201C202.16 110.373 199.387 112.871 196.069 113.124C192.751 113.377 189.495 111.3 188.79 108.151C187.985 104.557 190.713 101.017 194.966 100.742C199.218 100.466 202.444 103.584 202.291 107.201Z" fill="#108E66" stroke="#263238" stroke-width="1.08162" stroke-linecap="round" stroke-linejoin="round"/>
<path d="M199.754 107.377C199.714 108.38 199.298 109.332 198.588 110.042C197.878 110.752 196.926 111.168 195.923 111.208C194.904 111.316 193.881 111.047 193.048 110.451C192.215 109.855 191.629 108.974 191.402 107.975C191.027 105.799 192.736 103.76 195.233 103.592C195.781 103.528 196.337 103.577 196.865 103.736C197.394 103.894 197.885 104.158 198.308 104.512C198.731 104.866 199.077 105.303 199.326 105.796C199.575 106.288 199.72 106.826 199.754 107.377Z" fill="white" stroke="#263238" stroke-width="1.08162" stroke-linecap="round" stroke-linejoin="round"/>
<path d="M179.956 118.595C179.489 118.6 179.038 118.424 178.698 118.104C178.358 117.784 178.155 117.345 178.131 116.879C178.107 116.412 178.265 115.955 178.571 115.602C178.877 115.249 179.307 115.029 179.772 114.986L189.488 114.013C189.965 113.965 190.442 114.109 190.814 114.413C191.185 114.717 191.42 115.156 191.468 115.633C191.516 116.111 191.372 116.588 191.068 116.959C190.764 117.331 190.325 117.566 189.848 117.614L180.17 118.587L179.956 118.595Z" fill="#263238" stroke="#263238" stroke-width="1.08162" stroke-linecap="round" stroke-linejoin="round"/>
<path d="M162.914 89.9077C164.941 89.9077 166.584 88.2645 166.584 86.2376C166.584 84.2106 164.941 82.5674 162.914 82.5674C160.887 82.5674 159.244 84.2106 159.244 86.2376C159.244 88.2645 160.887 89.9077 162.914 89.9077Z" fill="#108E66" stroke="#263238" stroke-width="1.08162" stroke-linecap="round" stroke-linejoin="round"/>
<path d="M160.647 87.2335C162.377 87.2335 163.78 85.8304 163.78 84.0997C163.78 82.3689 162.377 80.9658 160.647 80.9658C158.916 80.9658 157.513 82.3689 157.513 84.0997C157.513 85.8304 158.916 87.2335 160.647 87.2335Z" fill="#108E66" stroke="#263238" stroke-width="1.08162" stroke-linecap="round" stroke-linejoin="round"/>
<path d="M160.042 80.7664C160.04 81.254 159.894 81.7303 159.622 82.135C159.35 82.5397 158.964 82.8548 158.513 83.0403C158.063 83.2259 157.567 83.2737 157.089 83.1776C156.611 83.0815 156.172 82.8459 155.827 82.5006C155.483 82.1552 155.249 81.7156 155.154 81.2372C155.06 80.7588 155.109 80.2632 155.296 79.8128C155.483 79.3624 155.799 78.9775 156.205 78.7068C156.61 78.436 157.087 78.2915 157.575 78.2915C157.899 78.2915 158.221 78.3556 158.521 78.48C158.82 78.6045 159.093 78.7869 159.322 79.0168C159.551 79.2467 159.733 79.5196 159.856 79.8199C159.98 80.1201 160.043 80.4417 160.042 80.7664Z" fill="#108E66" stroke="#263238" stroke-width="1.08162" stroke-linecap="round" stroke-linejoin="round"/>
<path d="M156.977 79.9007L151.368 74.6904" stroke="#263238" stroke-width="1.08162" stroke-linecap="round" stroke-linejoin="round"/>
<path d="M198.957 87.3711C200.984 87.3711 202.627 85.7279 202.627 83.7009C202.627 81.674 200.984 80.0308 198.957 80.0308C196.93 80.0308 195.287 81.674 195.287 83.7009C195.287 85.7279 196.93 87.3711 198.957 87.3711Z" fill="#108E66" stroke="#263238" stroke-width="1.08162" stroke-linecap="round" stroke-linejoin="round"/>
<path d="M201.226 84.6973C202.956 84.6973 204.359 83.2943 204.359 81.5635C204.359 79.8327 202.956 78.4297 201.226 78.4297C199.495 78.4297 198.092 79.8327 198.092 81.5635C198.092 83.2943 199.495 84.6973 201.226 84.6973Z" fill="#108E66" stroke="#263238" stroke-width="1.08162" stroke-linecap="round" stroke-linejoin="round"/>
<path d="M201.831 78.2302C201.833 78.7179 201.979 79.1941 202.251 79.5989C202.523 80.0036 202.908 80.3186 203.359 80.5042C203.81 80.6898 204.306 80.7375 204.784 80.6414C205.262 80.5454 205.701 80.3098 206.046 79.9645C206.39 79.6191 206.624 79.1795 206.719 78.7011C206.813 78.2227 206.764 77.727 206.577 77.2767C206.39 76.8263 206.074 76.4414 205.668 76.1706C205.263 75.8999 204.786 75.7554 204.298 75.7554C203.974 75.7554 203.652 75.8194 203.352 75.9439C203.053 76.0684 202.78 76.2508 202.551 76.4807C202.322 76.7106 202.14 76.9835 202.017 77.2837C201.893 77.5839 201.83 77.9056 201.831 78.2302Z" fill="#108E66" stroke="#263238" stroke-width="1.08162" stroke-linecap="round" stroke-linejoin="round"/>
<path d="M204.896 77.3569L210.504 72.1543" stroke="#263238" stroke-width="1.08162" stroke-linecap="round" stroke-linejoin="round"/>
<path d="M196.681 212.127C196.681 213.897 195.509 215.329 194.061 215.329C192.613 215.329 191.448 213.897 191.448 212.127C191.448 210.357 192.621 208.924 194.061 208.924C195.502 208.924 196.681 210.357 196.681 212.127Z" fill="white" stroke="#263238" stroke-width="1.08162" stroke-linecap="round" stroke-linejoin="round"/>
<path d="M201.861 214.808H201.662L194.39 213.743C194.046 213.678 193.741 213.483 193.538 213.198C193.334 212.914 193.249 212.561 193.299 212.215C193.35 211.869 193.532 211.555 193.808 211.34C194.084 211.125 194.433 211.025 194.781 211.061L202.053 212.119C202.405 212.153 202.729 212.323 202.958 212.593C203.186 212.863 203.3 213.212 203.275 213.565C203.25 213.917 203.088 214.246 202.824 214.482C202.56 214.717 202.214 214.84 201.861 214.824V214.808Z" fill="white" stroke="#263238" stroke-width="1.08162" stroke-miterlimit="10"/>
<path d="M100.238 227.099C99.2882 225.604 99.4721 223.766 100.729 222.999C101.985 222.233 103.702 222.808 104.652 224.294C105.602 225.781 105.38 227.627 104.154 228.401C102.928 229.175 101.181 228.593 100.238 227.099Z" fill="white" stroke="#263238" stroke-width="1.08162" stroke-linecap="round" stroke-linejoin="round"/>
<path d="M94.4226 227.612C94.4789 227.577 94.5378 227.546 94.5989 227.52L101.311 224.524C101.636 224.396 101.998 224.399 102.321 224.531C102.644 224.663 102.904 224.915 103.046 225.234C103.188 225.553 103.202 225.915 103.084 226.243C102.966 226.572 102.727 226.843 102.414 226.999L95.7022 229.995C95.3895 230.134 95.036 230.149 94.7124 230.038C94.3888 229.927 94.1191 229.698 93.9573 229.397C93.7954 229.096 93.7535 228.744 93.8398 228.413C93.9261 228.082 94.1343 227.796 94.4226 227.612Z" fill="white" stroke="#263238" stroke-width="1.08162" stroke-miterlimit="10"/>
<path d="M273.886 192.772C272.936 191.278 273.158 189.446 274.376 188.673C275.594 187.899 277.349 188.481 278.299 189.968C279.249 191.454 279.027 193.301 277.809 194.074C276.59 194.848 274.828 194.266 273.886 192.772Z" fill="white" stroke="#263238" stroke-width="1.08162" stroke-linecap="round" stroke-linejoin="round"/>
<path d="M268.078 193.293L268.246 193.201L274.959 190.205C275.122 190.123 275.301 190.075 275.484 190.064C275.667 190.053 275.85 190.079 276.023 190.141C276.195 190.203 276.353 190.299 276.488 190.423C276.622 190.548 276.73 190.698 276.804 190.866C276.879 191.033 276.919 191.214 276.922 191.397C276.925 191.58 276.89 191.762 276.821 191.931C276.751 192.101 276.648 192.255 276.518 192.383C276.388 192.512 276.232 192.613 276.062 192.68L269.357 195.676C269.045 195.815 268.691 195.83 268.368 195.719C268.044 195.608 267.774 195.379 267.613 195.078C267.451 194.776 267.409 194.425 267.495 194.094C267.581 193.763 267.79 193.477 268.078 193.293Z" fill="white" stroke="#263238" stroke-width="1.08162" stroke-miterlimit="10"/>
<path d="M144.296 228.539C141.231 228.539 138.764 230.01 138.764 231.818C138.764 233.627 141.239 235.098 144.296 235.098C147.353 235.098 149.835 233.627 149.835 231.818C149.835 230.01 147.353 228.539 144.296 228.539ZM144.296 233.512C142.717 233.512 141.438 232.746 141.438 231.818C141.438 230.891 142.717 230.125 144.296 230.125C145.874 230.125 147.161 230.891 147.161 231.818C147.161 232.746 145.882 233.512 144.296 233.512Z" fill="white" stroke="#263238" stroke-width="1.08162" stroke-miterlimit="10"/>
<path d="M194.161 229.068L190.384 227.535L186.599 229.068L185.664 232.439L188.285 235.144H192.483L195.096 232.439L194.161 229.068ZM191.449 233.374H189.319L187.986 232.002L188.461 230.294L190.384 229.527L192.299 230.294L192.775 232.002L191.449 233.374Z" fill="white" stroke="#263238" stroke-width="1.08162" stroke-linecap="round" stroke-linejoin="round"/>
<path d="M265.848 180.114L262.063 178.582L258.278 180.114L257.343 183.493L259.963 186.198H264.162L266.783 183.493L265.848 180.114ZM263.128 184.428H260.998L259.672 183.056L260.139 181.34L262.063 180.574L263.986 181.34L264.461 183.056L263.128 184.428Z" fill="white" stroke="#263238" stroke-width="1.08162" stroke-linecap="round" stroke-linejoin="round"/>
<path d="M219.454 236.761C219.347 236.761 219.241 236.743 219.14 236.707C218.625 236.49 218.192 236.118 217.899 235.642C217.477 234.991 217.133 233.834 217.799 232.041C218.033 231.385 218.424 230.797 218.938 230.328C219.453 229.859 220.075 229.523 220.749 229.351C221.615 229.142 222.517 229.136 223.385 229.334C224.253 229.532 225.063 229.929 225.752 230.493C225.845 230.568 225.921 230.66 225.978 230.765C226.034 230.87 226.069 230.985 226.08 231.103C226.092 231.222 226.079 231.341 226.044 231.455C226.009 231.568 225.951 231.674 225.875 231.765C225.723 231.95 225.503 232.066 225.264 232.089C225.026 232.112 224.788 232.04 224.603 231.887C224.133 231.512 223.584 231.249 222.998 231.116C222.411 230.983 221.802 230.985 221.216 231.121C220.821 231.223 220.456 231.421 220.156 231.698C219.855 231.975 219.627 232.321 219.492 232.707C218.811 234.508 219.63 235.006 219.799 235.052C220.015 235.148 220.185 235.323 220.275 235.542C220.365 235.76 220.367 236.004 220.282 236.224C220.212 236.385 220.096 236.522 219.949 236.618C219.802 236.713 219.63 236.763 219.454 236.761Z" fill="white" stroke="#263238" stroke-width="1.08162" stroke-linecap="round" stroke-linejoin="round"/>
<path d="M238.134 240.086C237.848 240.087 237.563 240.043 237.291 239.956L222.587 235.167C222.24 235.064 221.916 234.893 221.636 234.663C221.356 234.433 221.124 234.149 220.956 233.829C220.787 233.508 220.684 233.157 220.653 232.796C220.623 232.434 220.665 232.071 220.777 231.726C220.889 231.381 221.069 231.063 221.306 230.789C221.544 230.515 221.834 230.292 222.159 230.132C222.484 229.972 222.838 229.878 223.2 229.858C223.562 229.837 223.924 229.889 224.265 230.01L238.977 234.799C239.588 235.001 240.106 235.415 240.441 235.964C240.775 236.514 240.903 237.165 240.802 237.8C240.7 238.436 240.376 239.015 239.888 239.433C239.399 239.852 238.777 240.083 238.134 240.086Z" fill="white" stroke="#263238" stroke-width="1.08162" stroke-linecap="round" stroke-linejoin="round"/>
<path d="M222.144 235.044C222.144 235.044 222.726 231.305 227.4 231.213" stroke="#263238" stroke-width="1.08162" stroke-linecap="round" stroke-linejoin="round"/>
<path d="M225.292 235.856C225.292 235.856 225.882 232.125 230.548 232.025" stroke="#263238" stroke-width="1.08162" stroke-linecap="round" stroke-linejoin="round"/>
<path d="M228.097 236.906C228.097 236.906 228.679 233.175 233.345 233.075" stroke="#263238" stroke-width="1.08162" stroke-linecap="round" stroke-linejoin="round"/>
<path d="M231.016 237.733C231.016 237.733 231.598 234.002 236.264 233.902" stroke="#263238" stroke-width="1.08162" stroke-linecap="round" stroke-linejoin="round"/>
<path d="M233.936 238.776C233.936 238.776 234.518 235.044 239.184 234.945" stroke="#263238" stroke-width="1.08162" stroke-linecap="round" stroke-linejoin="round"/>
<path d="M238.126 240.032C238.021 240.03 237.917 240.01 237.82 239.971C237.302 239.759 236.865 239.389 236.571 238.913C236.149 238.262 235.804 237.105 236.471 235.305C236.707 234.65 237.099 234.063 237.613 233.594C238.127 233.126 238.748 232.79 239.421 232.615C240.287 232.407 241.19 232.402 242.058 232.602C242.926 232.801 243.736 233.199 244.424 233.764C244.517 233.839 244.593 233.932 244.65 234.037C244.706 234.141 244.741 234.256 244.752 234.375C244.763 234.493 244.751 234.613 244.716 234.726C244.681 234.84 244.623 234.945 244.547 235.036C244.394 235.221 244.175 235.338 243.936 235.361C243.698 235.384 243.46 235.311 243.275 235.159C242.805 234.784 242.256 234.519 241.67 234.387C241.083 234.254 240.474 234.256 239.888 234.393C239.493 234.492 239.128 234.689 238.827 234.964C238.526 235.24 238.298 235.586 238.164 235.971C237.482 237.779 238.302 238.27 238.471 238.316C238.661 238.399 238.817 238.545 238.913 238.729C239.01 238.913 239.04 239.124 239 239.328C238.96 239.532 238.851 239.715 238.692 239.849C238.533 239.983 238.334 240.058 238.126 240.063V240.032Z" fill="white" stroke="#263238" stroke-width="1.08162" stroke-linecap="round" stroke-linejoin="round"/>
</svg>
