<svg width="31" height="40" viewBox="0 0 31 40" fill="none" xmlns="http://www.w3.org/2000/svg">
<path d="M16.1443 5.47762C16.1305 5.47762 16.2941 4.66626 16.3103 4.61786C16.4993 4.0393 17.2023 3.02971 17.8823 3.03202C17.996 3.03503 18.1079 3.06215 18.2104 3.11158C18.3129 3.16101 18.4037 3.23163 18.4769 3.31877C18.5501 3.40591 18.604 3.50759 18.635 3.6171C18.666 3.7266 18.6734 3.84144 18.6567 3.95402C18.6083 4.43346 18.1773 4.84144 17.7901 5.07655C17.336 5.34624 16.1443 5.47762 16.1443 5.47762Z" fill="#108E66"/>
<path d="M14.828 0.0216973C15.4688 0.252197 15.7868 1.43697 15.7661 2.04549C15.7661 2.0985 15.6439 2.91678 15.6324 2.90986C15.6831 3.09656 15.7361 3.2971 15.7914 3.51838C15.886 3.92636 15.992 4.38967 16.0727 4.90138C16.1644 5.45145 16.2244 6.00633 16.2524 6.56328C16.2873 7.18624 16.2665 7.81107 16.1902 8.43033C16.1911 8.43799 16.1911 8.44572 16.1902 8.45338C16.2755 8.27129 16.5267 7.77341 16.5498 7.73653C16.884 7.22943 17.8268 6.44112 18.4837 6.62321C18.5918 6.65645 18.6917 6.71205 18.7769 6.7864C18.8621 6.86075 18.9308 6.95218 18.9784 7.05477C19.026 7.15736 19.0515 7.26881 19.0532 7.3819C19.055 7.49498 19.0329 7.60716 18.9885 7.71117C18.8156 8.15834 18.297 8.43955 17.8567 8.56402C17.3635 8.70463 16.2663 8.53867 16.1787 8.52484C16.0845 9.15312 15.9489 9.77451 15.773 10.385C15.6716 10.743 15.5617 11.0988 15.4434 11.4522C15.5195 11.2978 15.5909 11.1618 15.6024 11.1433C15.9367 10.6339 16.8794 9.8479 17.5363 10.0277C17.6446 10.0607 17.7448 10.1161 17.8303 10.1903C17.9157 10.2646 17.9846 10.356 18.0325 10.4586C18.0803 10.5612 18.106 10.6728 18.1079 10.786C18.1098 10.8992 18.0878 11.0115 18.0434 11.1157C17.8682 11.5651 17.3519 11.844 16.9094 11.9685C16.4668 12.093 15.5264 11.9685 15.2797 11.9362C15.2313 12.0722 15.1875 12.2082 15.1414 12.3442C14.9109 12.9942 14.6804 13.6442 14.4845 14.285C14.4131 14.5155 14.3508 14.746 14.2863 14.9627C14.3554 14.8267 14.4154 14.7114 14.4269 14.6953C14.7611 14.1882 15.7039 13.3999 16.3608 13.582C16.4691 13.6149 16.5692 13.6704 16.6547 13.7446C16.7401 13.8189 16.8089 13.9104 16.8565 14.0131C16.9042 14.1158 16.9296 14.2274 16.9312 14.3406C16.9327 14.4537 16.9104 14.566 16.8656 14.67C16.6927 15.1171 16.1741 15.3983 15.7338 15.5228C15.2936 15.6473 14.443 15.5366 14.1457 15.4951C14.0881 15.7256 14.0304 15.9561 13.9843 16.1866C13.9567 16.3434 13.9198 16.4909 13.9013 16.6476C13.8829 16.8044 13.8576 16.9611 13.8368 17.1086C13.8045 17.4083 13.7723 17.7149 13.7492 18.0053C13.7308 18.2081 13.7193 18.4018 13.7054 18.5954C13.7746 18.3649 13.9175 17.9292 13.9359 17.9039C14.1765 17.4252 14.5361 17.0165 14.9801 16.7168C15.0038 16.6617 15.0332 16.6092 15.0677 16.5601C15.1295 16.4654 15.2105 16.3848 15.3055 16.3235C15.4005 16.2622 15.5073 16.2215 15.619 16.2041C15.7307 16.1867 15.8448 16.193 15.954 16.2226C16.0631 16.2521 16.1648 16.3043 16.2524 16.3757C16.7688 16.8205 16.6397 18.0422 16.4023 18.6023C16.3884 18.6369 16.1971 18.978 16.0727 19.1901C16.1649 19.0771 16.2525 18.9596 16.3493 18.8489C16.5383 18.6184 16.7342 18.3879 16.9439 18.1459L17.262 17.8001C17.3658 17.6826 17.4925 17.5697 17.6055 17.4567C17.8798 17.1939 18.1679 16.9381 18.4652 16.6891C18.2624 16.5232 17.5432 15.9239 17.3473 15.5159C17.1514 15.1079 16.997 14.5363 17.209 14.1052C17.2554 14.0008 17.3235 13.9074 17.4087 13.8313C17.4939 13.7551 17.5943 13.6979 17.7032 13.6635C17.8122 13.6291 17.9272 13.6182 18.0407 13.6315C18.1542 13.6449 18.2635 13.6822 18.3615 13.741C18.9378 14.1029 18.9954 15.3315 18.8456 15.9216C18.8456 15.9562 18.6819 16.3687 18.592 16.5923C18.7718 16.4448 18.9493 16.295 19.136 16.1498C19.6754 15.7349 20.2332 15.3292 20.7887 14.9235C20.9593 14.799 21.1252 14.6746 21.2935 14.5478C21.222 14.4902 20.3715 13.7941 20.141 13.3377C19.9381 12.932 19.7929 12.3581 20.005 11.927C20.0513 11.8225 20.1194 11.7291 20.2046 11.653C20.2899 11.5768 20.3904 11.5198 20.4994 11.4855C20.6085 11.4513 20.7236 11.4407 20.837 11.4544C20.9505 11.4681 21.0597 11.5059 21.1575 11.5651C21.7337 11.927 21.7937 13.1533 21.6438 13.7434C21.6323 13.7872 21.4133 14.3772 21.3442 14.5247C21.7153 14.2505 22.0818 13.9715 22.4321 13.6811C22.9091 13.2937 23.3595 12.8748 23.7806 12.4272C23.746 12.3995 22.8447 11.6781 22.6119 11.2102C22.4068 10.8045 22.2616 10.2305 22.4736 9.7995C22.5197 9.69481 22.5876 9.60116 22.6728 9.52479C22.7579 9.44842 22.8584 9.39109 22.9675 9.35662C23.0766 9.32215 23.1917 9.31135 23.3053 9.32492C23.4189 9.33849 23.5283 9.37612 23.6261 9.43531C24.2047 9.7972 24.2623 11.0258 24.1125 11.6158C24.1125 11.6527 23.9327 12.1045 23.8474 12.3073L23.8797 12.3281C24.2913 11.8667 24.6615 11.3699 24.9861 10.8437C25.1682 10.5555 25.3249 10.2697 25.4724 9.98851C25.2903 9.87096 24.4675 9.32698 24.2093 8.92821C23.9511 8.52945 23.7483 7.99238 23.9189 7.54521C23.9539 7.43758 24.0112 7.33853 24.0871 7.2545C24.1629 7.17047 24.2556 7.10333 24.359 7.05746C24.4625 7.01159 24.5745 6.98801 24.6877 6.98825C24.8009 6.98849 24.9128 7.01255 25.0161 7.05886C25.6292 7.35621 25.8205 8.56863 25.7375 9.17254C25.7375 9.20481 25.6499 9.53212 25.5854 9.76953C25.6499 9.64276 25.7191 9.51138 25.7767 9.38921C26.0072 8.92821 26.1778 8.48565 26.3322 8.09611C26.4175 7.86561 26.4889 7.67199 26.5627 7.48067C26.4452 7.27322 25.9795 6.42959 25.9334 5.96629C25.8873 5.50298 25.9611 4.92443 26.3161 4.59942C26.3967 4.5203 26.4931 4.45901 26.599 4.41951C26.7049 4.38002 26.8179 4.36321 26.9306 4.37016C27.0434 4.37711 27.1535 4.40768 27.2537 4.45988C27.3539 4.51208 27.442 4.58475 27.5124 4.67319C27.9204 5.21947 27.5308 6.3858 27.1804 6.88137C27.1505 6.92517 26.5973 7.5406 26.5904 7.52908C26.5304 7.71348 26.4636 7.9094 26.3875 8.12377C26.2423 8.51792 26.074 8.96048 25.8597 9.4307C25.6337 9.94 25.3782 10.4357 25.0944 10.9151C24.7795 11.4543 24.417 11.9642 24.0111 12.4387C24.0069 12.4452 24.0014 12.4507 23.9949 12.4549C24.1655 12.3511 24.6496 12.0745 24.6864 12.0561C25.2442 11.8256 26.4659 11.6827 26.9131 12.1944C26.9852 12.2817 27.0381 12.3832 27.0684 12.4922C27.0987 12.6013 27.1057 12.7155 27.089 12.8275C27.0722 12.9395 27.0321 13.0467 26.9712 13.1421C26.9104 13.2375 26.8301 13.3191 26.7356 13.3815C26.3414 13.6581 25.7513 13.612 25.3203 13.4668C24.8317 13.3123 24.0065 12.5678 23.9373 12.5079C23.5124 12.9809 23.0566 13.4252 22.5728 13.8379C22.2915 14.0684 22.0011 14.3127 21.7084 14.5455C21.8582 14.4602 21.9919 14.3841 22.0126 14.3749C22.5704 14.1444 23.7921 13.9992 24.2393 14.5132C24.3113 14.6003 24.3642 14.7016 24.3945 14.8105C24.4248 14.9194 24.4318 15.0335 24.415 15.1452C24.3983 15.257 24.3582 15.364 24.2973 15.4593C24.2365 15.5545 24.1562 15.6358 24.0618 15.698C23.6699 15.9769 23.0799 15.9285 22.6465 15.7856C22.2132 15.6427 21.494 15.0249 21.3027 14.8636L20.9639 15.1264C20.4176 15.5459 19.869 15.9608 19.3504 16.3849C19.166 16.5347 18.9885 16.6868 18.811 16.8459L19.0761 16.6984C19.6339 16.4679 20.8555 16.3226 21.3027 16.8367C21.3745 16.9241 21.4271 17.0256 21.4572 17.1346C21.4873 17.2436 21.4942 17.3577 21.4775 17.4696C21.4608 17.5815 21.4208 17.6886 21.3601 17.784C21.2994 17.8795 21.2194 17.9611 21.1252 18.0237C20.7334 18.3003 20.1433 18.2542 19.7099 18.109C19.2766 17.9638 18.6243 17.4175 18.4007 17.2124C18.2232 17.3737 18.0457 17.5374 17.8821 17.7033C17.7737 17.8186 17.6516 17.9223 17.5571 18.0422L17.2459 18.3948C17.0546 18.6253 16.8587 18.8558 16.6789 19.0863C16.5521 19.2454 16.4345 19.3998 16.317 19.5473C16.4991 19.3975 16.861 19.1094 16.8955 19.0863C17.4096 18.7636 18.5966 18.4456 19.1176 18.8858C19.2018 18.9613 19.2692 19.0536 19.3154 19.1569C19.3615 19.2602 19.3854 19.372 19.3854 19.4851C19.3854 19.5982 19.3615 19.71 19.3154 19.8133C19.2692 19.9166 19.2018 20.0089 19.1176 20.0844C18.7718 20.4186 18.1817 20.4532 17.7346 20.3841C17.2413 20.3057 16.3516 19.7248 16.234 19.6511C16.0404 19.9069 15.8514 20.1582 15.6785 20.4002C15.0769 21.2323 14.6067 21.9468 14.2955 22.4516C14.284 22.4701 14.2725 22.4862 14.2632 22.5046L13.846 22.3018L13.9106 22.2027C14.2471 21.6979 14.7381 20.9857 15.3627 20.1605C15.5609 19.8977 15.7776 19.6211 16.0012 19.3399C15.7696 19.0864 15.5533 18.8193 15.3535 18.5401C14.8764 18.7268 13.8806 18.736 13.7515 18.736C13.7308 19.0564 13.7123 19.3699 13.7008 19.658C13.657 20.6837 13.6616 21.5412 13.6708 22.1382C13.6708 22.1635 13.6708 22.1843 13.6708 22.2073L13.2098 21.9768C13.2098 21.3821 13.2329 20.5777 13.2928 19.628C13.3136 19.3007 13.3412 18.9503 13.3735 18.5931C13.2467 18.5608 12.2095 18.2957 11.8176 17.9822C11.4627 17.6987 11.0893 17.24 11.1031 16.7583C11.1022 16.645 11.1252 16.5328 11.1705 16.429C11.2159 16.3252 11.2826 16.2321 11.3663 16.1558C11.45 16.0794 11.5488 16.0216 11.6564 15.986C11.764 15.9504 11.8778 15.9379 11.9905 15.9492C12.6659 16.0368 13.2329 17.1271 13.3435 17.7241C13.3435 17.761 13.3781 18.1505 13.3919 18.3971C13.4058 18.2519 13.4173 18.109 13.4334 17.9592C13.4634 17.6618 13.5026 17.3645 13.5418 17.0372L13.6178 16.5762C13.6409 16.4218 13.6824 16.2604 13.7146 16.0991C13.7976 15.7303 13.899 15.3592 14.0074 14.9881C13.7469 14.9604 12.8226 14.8521 12.4285 14.6239C12.0343 14.3957 11.5964 13.9992 11.5364 13.5221C11.5185 13.4103 11.5242 13.2961 11.5533 13.1868C11.5824 13.0774 11.6342 12.9754 11.7053 12.8874C11.7764 12.7993 11.8652 12.7272 11.9659 12.6757C12.0667 12.6243 12.1772 12.5946 12.2902 12.5885C12.9701 12.5724 13.6962 13.5636 13.9037 14.1398C13.9152 14.1744 14.012 14.6008 14.0627 14.8313C14.1295 14.6008 14.1964 14.3864 14.2725 14.1629C14.4914 13.5198 14.7335 12.8744 14.964 12.229C15.0377 12.0307 15.1069 11.8348 15.1783 11.6366C15.0861 11.6366 13.9843 11.5236 13.5418 11.2678C13.1476 11.0373 12.7097 10.6431 12.6497 10.166C12.6314 10.0542 12.6369 9.93985 12.6659 9.83035C12.6948 9.72084 12.7465 9.61868 12.8177 9.53056C12.8888 9.44243 12.9778 9.37033 13.0787 9.31896C13.1797 9.26759 13.2903 9.23812 13.4035 9.23247C14.0834 9.21634 14.8095 10.2075 15.017 10.7814C15.0308 10.8252 15.1714 11.443 15.1991 11.5997C15.3558 11.1664 15.5079 10.7307 15.6416 10.2951C15.8241 9.7087 15.9688 9.11126 16.075 8.5064C16.0312 8.5064 14.881 8.39576 14.4269 8.13529C14.0327 7.90479 13.5948 7.51064 13.5349 7.0335C13.5169 6.92178 13.5227 6.80753 13.5518 6.69818C13.5809 6.58883 13.6326 6.48683 13.7037 6.39879C13.7748 6.31075 13.8636 6.23865 13.9644 6.18717C14.0651 6.13569 14.1756 6.10598 14.2886 6.09998C14.9686 6.08385 15.6946 7.07499 15.9021 7.65124C15.9159 7.68812 16.022 8.15834 16.0681 8.38193H16.1072C16.1956 7.77148 16.2296 7.15439 16.2087 6.53793C16.2087 6.19679 16.1764 5.87178 16.1441 5.556C15.9274 5.556 14.9409 5.556 14.5053 5.36929C14.0696 5.18259 13.6086 4.83915 13.498 4.37123C13.4677 4.26231 13.4607 4.14821 13.4774 4.0364C13.4942 3.92458 13.5343 3.81755 13.5952 3.72229C13.6561 3.62703 13.7364 3.54567 13.8308 3.48353C13.9253 3.42139 14.0318 3.37986 14.1434 3.36164C14.8187 3.27175 15.6485 4.17761 15.9113 4.7262C15.9251 4.75616 16.0381 5.07426 16.1141 5.30937C16.098 5.16646 16.0842 5.01893 16.0657 4.88294C15.9966 4.37353 15.9021 3.91023 15.8145 3.49994C15.7638 3.26944 15.7108 3.05738 15.6624 2.86376C15.448 2.75543 14.5952 2.30826 14.3024 1.94176C14.0097 1.57527 13.7492 1.05895 13.8668 0.591032C13.9221 0.390124 14.0531 0.218504 14.2324 0.11231C14.4117 0.00611475 14.6252 -0.0263697 14.828 0.0216973Z" fill="#108E66"/>
<path d="M27.1414 10.521C26.6066 10.4979 25.544 9.95164 25.544 9.95164C25.544 9.95164 26.1157 9.36156 26.1572 9.32699C26.632 8.94897 27.7707 8.49488 28.3423 8.86599C28.4347 8.93126 28.5124 9.01525 28.5703 9.11251C28.6282 9.20976 28.6649 9.3181 28.6782 9.43049C28.6914 9.54288 28.6809 9.65681 28.6473 9.76486C28.6136 9.87291 28.5576 9.97267 28.4829 10.0577C28.1786 10.4357 27.5955 10.5394 27.1414 10.521Z" fill="#108E66"/>
<g opacity="0.5">
<path d="M16.1441 5.47762C16.1302 5.47762 16.2939 4.66626 16.31 4.61786C16.499 4.0393 17.202 3.02971 17.882 3.03202C17.9958 3.03503 18.1076 3.06215 18.2101 3.11158C18.3126 3.16101 18.4035 3.23163 18.4767 3.31877C18.5499 3.40591 18.6038 3.50759 18.6348 3.6171C18.6658 3.7266 18.6732 3.84144 18.6565 3.95402C18.6081 4.43346 18.1771 4.84144 17.7898 5.07655C17.3357 5.34624 16.1441 5.47762 16.1441 5.47762Z" fill="white"/>
<path d="M14.828 0.0216973C15.4688 0.252197 15.7868 1.43697 15.7661 2.04549C15.7661 2.0985 15.6439 2.91678 15.6324 2.90986C15.6831 3.09656 15.7361 3.2971 15.7914 3.51838C15.886 3.92636 15.992 4.38967 16.0727 4.90138C16.1644 5.45145 16.2244 6.00633 16.2524 6.56328C16.2873 7.18624 16.2665 7.81107 16.1902 8.43033C16.1911 8.43799 16.1911 8.44572 16.1902 8.45338C16.2755 8.27129 16.5267 7.77341 16.5498 7.73653C16.884 7.22943 17.8268 6.44112 18.4837 6.62321C18.5918 6.65645 18.6917 6.71205 18.7769 6.7864C18.8621 6.86075 18.9308 6.95218 18.9784 7.05477C19.026 7.15736 19.0515 7.26881 19.0532 7.3819C19.055 7.49498 19.0329 7.60716 18.9885 7.71117C18.8156 8.15834 18.297 8.43955 17.8567 8.56402C17.3635 8.70463 16.2663 8.53867 16.1787 8.52484C16.0845 9.15312 15.9489 9.77451 15.773 10.385C15.6716 10.743 15.5617 11.0988 15.4434 11.4522C15.5195 11.2978 15.5909 11.1618 15.6024 11.1433C15.9367 10.6339 16.8794 9.8479 17.5363 10.0277C17.6446 10.0607 17.7448 10.1161 17.8303 10.1903C17.9157 10.2646 17.9846 10.356 18.0325 10.4586C18.0803 10.5612 18.106 10.6728 18.1079 10.786C18.1098 10.8992 18.0878 11.0115 18.0434 11.1157C17.8682 11.5651 17.3519 11.844 16.9094 11.9685C16.4668 12.093 15.5264 11.9685 15.2797 11.9362C15.2313 12.0722 15.1875 12.2082 15.1414 12.3442C14.9109 12.9942 14.6804 13.6442 14.4845 14.285C14.4131 14.5155 14.3508 14.746 14.2863 14.9627C14.3554 14.8267 14.4154 14.7114 14.4269 14.6953C14.7611 14.1882 15.7039 13.3999 16.3608 13.582C16.4691 13.6149 16.5692 13.6704 16.6547 13.7446C16.7401 13.8189 16.8089 13.9104 16.8565 14.0131C16.9042 14.1158 16.9296 14.2274 16.9312 14.3406C16.9327 14.4537 16.9104 14.566 16.8656 14.67C16.6927 15.1171 16.1741 15.3983 15.7338 15.5228C15.2936 15.6473 14.443 15.5366 14.1457 15.4951C14.0881 15.7256 14.0304 15.9561 13.9843 16.1866C13.9567 16.3434 13.9198 16.4909 13.9013 16.6476C13.8829 16.8044 13.8576 16.9611 13.8368 17.1086C13.8045 17.4083 13.7723 17.7149 13.7492 18.0053C13.7308 18.2081 13.7193 18.4018 13.7054 18.5954C13.7746 18.3649 13.9175 17.9292 13.9359 17.9039C14.1765 17.4252 14.5361 17.0165 14.9801 16.7168C15.0038 16.6617 15.0332 16.6092 15.0677 16.5601C15.1295 16.4654 15.2105 16.3848 15.3055 16.3235C15.4005 16.2622 15.5073 16.2215 15.619 16.2041C15.7307 16.1867 15.8448 16.193 15.954 16.2226C16.0631 16.2521 16.1648 16.3043 16.2524 16.3757C16.7688 16.8205 16.6397 18.0422 16.4023 18.6023C16.3884 18.6369 16.1971 18.978 16.0727 19.1901C16.1649 19.0771 16.2525 18.9596 16.3493 18.8489C16.5383 18.6184 16.7342 18.3879 16.9439 18.1459L17.262 17.8001C17.3658 17.6826 17.4925 17.5697 17.6055 17.4567C17.8798 17.1939 18.1679 16.9381 18.4652 16.6891C18.2624 16.5232 17.5432 15.9239 17.3473 15.5159C17.1514 15.1079 16.997 14.5363 17.209 14.1052C17.2554 14.0008 17.3235 13.9074 17.4087 13.8313C17.4939 13.7551 17.5943 13.6979 17.7032 13.6635C17.8122 13.6291 17.9272 13.6182 18.0407 13.6315C18.1542 13.6449 18.2635 13.6822 18.3615 13.741C18.9378 14.1029 18.9954 15.3315 18.8456 15.9216C18.8456 15.9562 18.6819 16.3687 18.592 16.5923C18.7718 16.4448 18.9493 16.295 19.136 16.1498C19.6754 15.7349 20.2332 15.3292 20.7887 14.9235C20.9593 14.799 21.1252 14.6746 21.2935 14.5478C21.222 14.4902 20.3715 13.7941 20.141 13.3377C19.9381 12.932 19.7929 12.3581 20.005 11.927C20.0513 11.8225 20.1194 11.7291 20.2046 11.653C20.2899 11.5768 20.3904 11.5198 20.4994 11.4855C20.6085 11.4513 20.7236 11.4407 20.837 11.4544C20.9505 11.4681 21.0597 11.5059 21.1575 11.5651C21.7337 11.927 21.7937 13.1533 21.6438 13.7434C21.6323 13.7872 21.4133 14.3772 21.3442 14.5247C21.7153 14.2505 22.0818 13.9715 22.4321 13.6811C22.9091 13.2937 23.3595 12.8748 23.7806 12.4272C23.746 12.3995 22.8447 11.6781 22.6119 11.2102C22.4068 10.8045 22.2616 10.2305 22.4736 9.7995C22.5197 9.69481 22.5876 9.60116 22.6728 9.52479C22.7579 9.44842 22.8584 9.39109 22.9675 9.35662C23.0766 9.32215 23.1917 9.31135 23.3053 9.32492C23.4189 9.33849 23.5283 9.37612 23.6261 9.43531C24.2047 9.7972 24.2623 11.0258 24.1125 11.6158C24.1125 11.6527 23.9327 12.1045 23.8474 12.3073L23.8797 12.3281C24.2913 11.8667 24.6615 11.3699 24.9861 10.8437C25.1682 10.5555 25.3249 10.2697 25.4724 9.98851C25.2903 9.87096 24.4675 9.32698 24.2093 8.92821C23.9511 8.52945 23.7483 7.99238 23.9189 7.54521C23.9539 7.43758 24.0112 7.33853 24.0871 7.2545C24.1629 7.17047 24.2556 7.10333 24.359 7.05746C24.4625 7.01159 24.5745 6.98801 24.6877 6.98825C24.8009 6.98849 24.9128 7.01255 25.0161 7.05886C25.6292 7.35621 25.8205 8.56863 25.7375 9.17254C25.7375 9.20481 25.6499 9.53212 25.5854 9.76953C25.6499 9.64276 25.7191 9.51138 25.7767 9.38921C26.0072 8.92821 26.1778 8.48565 26.3322 8.09611C26.4175 7.86561 26.4889 7.67199 26.5627 7.48067C26.4452 7.27322 25.9795 6.42959 25.9334 5.96629C25.8873 5.50298 25.9611 4.92443 26.3161 4.59942C26.3967 4.5203 26.4931 4.45901 26.599 4.41951C26.7049 4.38002 26.8179 4.36321 26.9306 4.37016C27.0434 4.37711 27.1535 4.40768 27.2537 4.45988C27.3539 4.51208 27.442 4.58475 27.5124 4.67319C27.9204 5.21947 27.5308 6.3858 27.1804 6.88137C27.1505 6.92517 26.5973 7.5406 26.5904 7.52908C26.5304 7.71348 26.4636 7.9094 26.3875 8.12377C26.2423 8.51792 26.074 8.96048 25.8597 9.4307C25.6337 9.94 25.3782 10.4357 25.0944 10.9151C24.7795 11.4543 24.417 11.9642 24.0111 12.4387C24.0069 12.4452 24.0014 12.4507 23.9949 12.4549C24.1655 12.3511 24.6496 12.0745 24.6864 12.0561C25.2442 11.8256 26.4659 11.6827 26.9131 12.1944C26.9852 12.2817 27.0381 12.3832 27.0684 12.4922C27.0987 12.6013 27.1057 12.7155 27.089 12.8275C27.0722 12.9395 27.0321 13.0467 26.9712 13.1421C26.9104 13.2375 26.8301 13.3191 26.7356 13.3815C26.3414 13.6581 25.7513 13.612 25.3203 13.4668C24.8317 13.3123 24.0065 12.5678 23.9373 12.5079C23.5124 12.9809 23.0566 13.4252 22.5728 13.8379C22.2915 14.0684 22.0011 14.3127 21.7084 14.5455C21.8582 14.4602 21.9919 14.3841 22.0126 14.3749C22.5704 14.1444 23.7921 13.9992 24.2393 14.5132C24.3113 14.6003 24.3642 14.7016 24.3945 14.8105C24.4248 14.9194 24.4318 15.0335 24.415 15.1452C24.3983 15.257 24.3582 15.364 24.2973 15.4593C24.2365 15.5545 24.1562 15.6358 24.0618 15.698C23.6699 15.9769 23.0799 15.9285 22.6465 15.7856C22.2132 15.6427 21.494 15.0249 21.3027 14.8636L20.9639 15.1264C20.4176 15.5459 19.869 15.9608 19.3504 16.3849C19.166 16.5347 18.9885 16.6868 18.811 16.8459L19.0761 16.6984C19.6339 16.4679 20.8555 16.3226 21.3027 16.8367C21.3745 16.9241 21.4271 17.0256 21.4572 17.1346C21.4873 17.2436 21.4942 17.3577 21.4775 17.4696C21.4608 17.5815 21.4208 17.6886 21.3601 17.784C21.2994 17.8795 21.2194 17.9611 21.1252 18.0237C20.7334 18.3003 20.1433 18.2542 19.7099 18.109C19.2766 17.9638 18.6243 17.4175 18.4007 17.2124C18.2232 17.3737 18.0457 17.5374 17.8821 17.7033C17.7737 17.8186 17.6516 17.9223 17.5571 18.0422L17.2459 18.3948C17.0546 18.6253 16.8587 18.8558 16.6789 19.0863C16.5521 19.2454 16.4345 19.3998 16.317 19.5473C16.4991 19.3975 16.861 19.1094 16.8955 19.0863C17.4096 18.7636 18.5966 18.4456 19.1176 18.8858C19.2018 18.9613 19.2692 19.0536 19.3154 19.1569C19.3615 19.2602 19.3854 19.372 19.3854 19.4851C19.3854 19.5982 19.3615 19.71 19.3154 19.8133C19.2692 19.9166 19.2018 20.0089 19.1176 20.0844C18.7718 20.4186 18.1817 20.4532 17.7346 20.3841C17.2413 20.3057 16.3516 19.7248 16.234 19.6511C16.0404 19.9069 15.8514 20.1582 15.6785 20.4002C15.0769 21.2323 14.6067 21.9468 14.2955 22.4516C14.284 22.4701 14.2725 22.4862 14.2632 22.5046L13.846 22.3018L13.9106 22.2027C14.2471 21.6979 14.7381 20.9857 15.3627 20.1605C15.5609 19.8977 15.7776 19.6211 16.0012 19.3399C15.7696 19.0864 15.5533 18.8193 15.3535 18.5401C14.8764 18.7268 13.8806 18.736 13.7515 18.736C13.7308 19.0564 13.7123 19.3699 13.7008 19.658C13.657 20.6837 13.6616 21.5412 13.6708 22.1382C13.6708 22.1635 13.6708 22.1843 13.6708 22.2073L13.2098 21.9768C13.2098 21.3821 13.2329 20.5777 13.2928 19.628C13.3136 19.3007 13.3412 18.9503 13.3735 18.5931C13.2467 18.5608 12.2095 18.2957 11.8176 17.9822C11.4627 17.6987 11.0893 17.24 11.1031 16.7583C11.1022 16.645 11.1252 16.5328 11.1705 16.429C11.2159 16.3252 11.2826 16.2321 11.3663 16.1558C11.45 16.0794 11.5488 16.0216 11.6564 15.986C11.764 15.9504 11.8778 15.9379 11.9905 15.9492C12.6659 16.0368 13.2329 17.1271 13.3435 17.7241C13.3435 17.761 13.3781 18.1505 13.3919 18.3971C13.4058 18.2519 13.4173 18.109 13.4334 17.9592C13.4634 17.6618 13.5026 17.3645 13.5418 17.0372L13.6178 16.5762C13.6409 16.4218 13.6824 16.2604 13.7146 16.0991C13.7976 15.7303 13.899 15.3592 14.0074 14.9881C13.7469 14.9604 12.8226 14.8521 12.4285 14.6239C12.0343 14.3957 11.5964 13.9992 11.5364 13.5221C11.5185 13.4103 11.5242 13.2961 11.5533 13.1868C11.5824 13.0774 11.6342 12.9754 11.7053 12.8874C11.7764 12.7993 11.8652 12.7272 11.9659 12.6757C12.0667 12.6243 12.1772 12.5946 12.2902 12.5885C12.9701 12.5724 13.6962 13.5636 13.9037 14.1398C13.9152 14.1744 14.012 14.6008 14.0627 14.8313C14.1295 14.6008 14.1964 14.3864 14.2725 14.1629C14.4914 13.5198 14.7335 12.8744 14.964 12.229C15.0377 12.0307 15.1069 11.8348 15.1783 11.6366C15.0861 11.6366 13.9843 11.5236 13.5418 11.2678C13.1476 11.0373 12.7097 10.6431 12.6497 10.166C12.6314 10.0542 12.6369 9.93985 12.6659 9.83035C12.6948 9.72084 12.7465 9.61868 12.8177 9.53056C12.8888 9.44243 12.9778 9.37033 13.0787 9.31896C13.1797 9.26759 13.2903 9.23812 13.4035 9.23247C14.0834 9.21634 14.8095 10.2075 15.017 10.7814C15.0308 10.8252 15.1714 11.443 15.1991 11.5997C15.3558 11.1664 15.5079 10.7307 15.6416 10.2951C15.8241 9.7087 15.9688 9.11126 16.075 8.5064C16.0312 8.5064 14.881 8.39576 14.4269 8.13529C14.0327 7.90479 13.5948 7.51064 13.5349 7.0335C13.5169 6.92178 13.5227 6.80753 13.5518 6.69818C13.5809 6.58883 13.6326 6.48683 13.7037 6.39879C13.7748 6.31075 13.8636 6.23865 13.9644 6.18717C14.0651 6.13569 14.1756 6.10598 14.2886 6.09998C14.9686 6.08385 15.6946 7.07499 15.9021 7.65124C15.9159 7.68812 16.022 8.15834 16.0681 8.38193H16.1072C16.1956 7.77148 16.2296 7.15439 16.2087 6.53793C16.2087 6.19679 16.1764 5.87178 16.1441 5.556C15.9274 5.556 14.9409 5.556 14.5053 5.36929C14.0696 5.18259 13.6086 4.83915 13.498 4.37123C13.4677 4.26231 13.4607 4.14821 13.4774 4.0364C13.4942 3.92458 13.5343 3.81755 13.5952 3.72229C13.6561 3.62703 13.7364 3.54567 13.8308 3.48353C13.9253 3.42139 14.0318 3.37986 14.1434 3.36164C14.8187 3.27175 15.6485 4.17761 15.9113 4.7262C15.9251 4.75616 16.0381 5.07426 16.1141 5.30937C16.098 5.16646 16.0842 5.01893 16.0657 4.88294C15.9966 4.37353 15.9021 3.91023 15.8145 3.49994C15.7638 3.26944 15.7108 3.05738 15.6624 2.86376C15.448 2.75543 14.5952 2.30826 14.3024 1.94176C14.0097 1.57527 13.7492 1.05895 13.8668 0.591032C13.9221 0.390124 14.0531 0.218504 14.2324 0.11231C14.4117 0.00611475 14.6252 -0.0263697 14.828 0.0216973Z" fill="white"/>
<path d="M27.1411 10.521C26.6064 10.4979 25.5438 9.95164 25.5438 9.95164C25.5438 9.95164 26.1154 9.36156 26.1569 9.32699C26.6317 8.94897 27.7704 8.49488 28.3421 8.86599C28.4345 8.93126 28.5122 9.01525 28.57 9.11251C28.6279 9.20976 28.6647 9.3181 28.6779 9.43049C28.6912 9.54288 28.6807 9.65681 28.647 9.76486C28.6134 9.87291 28.5574 9.97267 28.4827 10.0577C28.1784 10.4357 27.5952 10.5394 27.1411 10.521Z" fill="white"/>
</g>
<path d="M20.9248 23.8485C20.9248 23.8485 17.6978 16.0622 15.8884 16.401C14.0789 16.7399 18.9886 28.8134 18.9886 28.8134C18.9886 28.8134 13.3045 18.0929 9.42975 18.0929C5.55505 18.0929 10.8427 29.9406 15.7593 33.8914C15.7593 33.8914 8.00987 25.5403 3.48746 27.3475C-1.03494 29.1546 12.53 37.6139 12.53 37.6139C12.53 37.6139 4.65149 35.1314 5.55505 37.0515C6.45861 38.9716 8.91343 39.3081 8.91343 39.3081L0 39.7691H30.9999L24.025 39.0914C24.025 39.0914 31.2581 35.4795 29.3265 34.0204C27.3949 32.5614 23.1261 35.7123 23.1261 35.7123C23.1261 35.7123 30.4882 27.5895 29.0683 24.5423C27.6485 21.4951 21.3166 30.0743 21.3166 30.0743C21.3166 30.0743 26.4844 19.1301 25.4518 17.2124C24.4192 15.2946 20.9248 23.8485 20.9248 23.8485Z" fill="#108E66"/>
<path opacity="0.4" d="M20.9248 23.8485C20.9248 23.8485 17.6978 16.0622 15.8884 16.401C14.0789 16.7399 18.9886 28.8134 18.9886 28.8134C18.9886 28.8134 13.3045 18.0929 9.42975 18.0929C5.55505 18.0929 10.8427 29.9406 15.7593 33.8914C15.7593 33.8914 8.00987 25.5403 3.48746 27.3475C-1.03494 29.1546 12.53 37.6139 12.53 37.6139C12.53 37.6139 4.65149 35.1314 5.55505 37.0515C6.45861 38.9716 8.91343 39.3081 8.91343 39.3081L0 39.7691H30.9999L24.025 39.0914C24.025 39.0914 31.2581 35.4795 29.3265 34.0204C27.3949 32.5614 23.1261 35.7123 23.1261 35.7123C23.1261 35.7123 30.4882 27.5895 29.0683 24.5423C27.6485 21.4951 21.3166 30.0743 21.3166 30.0743C21.3166 30.0743 26.4844 19.1301 25.4518 17.2124C24.4192 15.2946 20.9248 23.8485 20.9248 23.8485Z" fill="white"/>
<path d="M21.9597 24.2587C19.1177 32.6535 19.1177 38.5958 19.1177 38.5958C19.1177 38.5958 22.476 38.7249 25.9635 36.141" stroke="#263238" stroke-width="0.5" stroke-linecap="round" stroke-linejoin="round"/>
<path d="M20.5374 28.7881C19.9548 26.2736 19.1796 23.8077 18.2186 21.4121" stroke="#263238" stroke-width="0.5" stroke-linecap="round" stroke-linejoin="round"/>
<path d="M12.1427 23.8715L19.3712 34.5921C19.3712 34.5921 24.2785 30.4592 25.9589 28.1381" stroke="#263238" stroke-width="0.5" stroke-linecap="round" stroke-linejoin="round"/>
<path d="M19.2467 37.176C19.2467 37.176 11.6263 33.5594 8.53763 31.4919" stroke="#263238" stroke-width="0.5" stroke-linecap="round" stroke-linejoin="round"/>
</svg>
