<svg width="32" height="32" viewBox="0 0 32 32" fill="none" xmlns="http://www.w3.org/2000/svg">
<path d="M13.3327 20L20.2527 16L13.3327 12V20ZM28.746 9.55996C28.9193 10.1866 29.0393 11.0266 29.1193 12.0933C29.2127 13.16 29.2527 14.08 29.2527 14.88L29.3327 16C29.3327 18.92 29.1193 21.0666 28.746 22.44C28.4127 23.64 27.6393 24.4133 26.4393 24.7466C25.8127 24.92 24.666 25.04 22.906 25.12C21.1727 25.2133 19.586 25.2533 18.1193 25.2533L15.9993 25.3333C10.4127 25.3333 6.93268 25.12 5.55935 24.7466C4.35935 24.4133 3.58602 23.64 3.25268 22.44C3.07935 21.8133 2.95935 20.9733 2.87935 19.9066C2.78602 18.84 2.74602 17.92 2.74602 17.12L2.66602 16C2.66602 13.08 2.87935 10.9333 3.25268 9.55996C3.58602 8.35996 4.35935 7.58663 5.55935 7.25329C6.18602 7.07996 7.33268 6.95996 9.09268 6.87996C10.826 6.78663 12.4127 6.74663 13.8793 6.74663L15.9993 6.66663C21.586 6.66663 25.066 6.87996 26.4393 7.25329C27.6393 7.58663 28.4127 8.35996 28.746 9.55996Z" fill="#FCFFFE"/>
</svg>
