<svg width="34" height="75" viewBox="0 0 34 75" fill="none" xmlns="http://www.w3.org/2000/svg">
<path d="M29.2769 30.3296L27.594 34.9468L26.4582 35.1153L27.2569 38.2296C27.2569 38.2296 28.4782 36.7128 28.8568 36.1657C29.2354 35.6186 32.9429 29.6971 32.9429 29.6971L29.2769 30.3296Z" fill="white" stroke="#263238" stroke-width="0.4" stroke-linecap="round" stroke-linejoin="round"/>
<path d="M16.0647 70.9351C16.0647 70.9351 13.246 73.4606 12.992 74.3448C12.7381 75.229 15.0536 74.6796 16.1917 73.9224C16.7818 73.5417 17.3442 73.1198 17.8747 72.6596L17.9993 72.9966C17.9993 72.9966 18.6734 72.9135 18.8004 72.4934C18.9274 72.0732 18.5465 71.062 18.5465 71.062L16.0647 70.9351Z" fill="white" stroke="#263238" stroke-width="0.4" stroke-linecap="round" stroke-linejoin="round"/>
<path d="M23.7225 70.2194C23.7225 70.2194 26.5921 73.2921 26.8437 74.1763C27.0953 75.0605 24.7821 74.511 23.6463 73.7538C23.0567 73.3734 22.4943 72.9522 21.9634 72.4934L21.8364 72.8281C21.8364 72.8281 21.1623 72.745 21.0376 72.3248C20.913 71.9047 21.2893 70.8935 21.2893 70.8935L23.7225 70.2194Z" fill="white" stroke="#263238" stroke-width="0.4" stroke-linecap="round" stroke-linejoin="round"/>
<path d="M14.5065 32.7282C14.5065 32.7282 13.7077 38.0379 13.5831 40.7228C13.4584 43.4077 14.2572 54.1887 14.2572 57.2591C14.2572 60.3295 16.5657 69.9563 16.5657 69.9563L15.9332 70.4618L15.8916 71.1336L17.7385 71.7223C18.6619 72.0178 18.8327 71.9763 18.8327 71.9763C18.8327 71.9763 18.6227 69.9978 18.6227 65.5792C18.6227 61.1606 19.3383 53.0829 19.3799 49.5046C19.4214 45.9263 20.7258 42.5212 20.7258 42.5212L21.2729 42.0595C21.2729 42.0595 23.4776 53.5146 23.4776 54.3988C23.4776 55.283 21.416 69.1737 21.2891 69.5038C21.1621 69.8339 20.9936 70.0094 20.9936 70.4734V71.7777L24.1078 70.5565C24.1129 70.2016 24.071 69.8477 23.9832 69.5038C23.8907 69.2479 23.8477 68.9769 23.8562 68.705C23.8562 68.578 28.3579 56.7558 28.3579 55.4076C28.3373 54.4492 28.2493 53.4934 28.0947 52.5473L27.5892 40.5127C27.5892 40.5127 28.1778 39.2499 27.9262 38.1557C27.6746 37.0614 26.2848 33.8225 26.0332 33.6124C25.7816 33.4023 17.0736 34.9999 14.5065 32.7282Z" fill="#108E66"/>
<mask id="mask0_0_402" style="mask-type:luminance" maskUnits="userSpaceOnUse" x="13" y="32" width="16" height="40">
<path d="M14.5065 32.7282C14.5065 32.7282 13.7077 38.0379 13.5831 40.7228C13.4584 43.4077 14.2572 54.1887 14.2572 57.2591C14.2572 60.3295 16.5657 69.9563 16.5657 69.9563L15.9332 70.4618L15.8916 71.1336L17.7385 71.7223C18.6619 72.0178 18.8327 71.9763 18.8327 71.9763C18.8327 71.9763 18.6227 69.9978 18.6227 65.5792C18.6227 61.1606 19.3383 53.0829 19.3799 49.5046C19.4214 45.9263 20.7258 42.5212 20.7258 42.5212L21.2729 42.0595C21.2729 42.0595 23.4776 53.5146 23.4776 54.3988C23.4776 55.283 21.416 69.1737 21.2891 69.5038C21.1621 69.8339 20.9936 70.0094 20.9936 70.4734V71.7777L24.1078 70.5565C24.1129 70.2016 24.071 69.8477 23.9832 69.5038C23.8907 69.2479 23.8477 68.9769 23.8562 68.705C23.8562 68.578 28.3579 56.7558 28.3579 55.4076C28.3373 54.4492 28.2493 53.4934 28.0947 52.5473L27.5892 40.5127C27.5892 40.5127 28.1778 39.2499 27.9262 38.1557C27.6746 37.0614 26.2848 33.8225 26.0332 33.6124C25.7816 33.4023 17.0736 34.9999 14.5065 32.7282Z" fill="white"/>
</mask>
<g mask="url(#mask0_0_402)">
<g opacity="0.2">
<path d="M24.8073 54.0086C24.8073 52.7389 25.6084 39.6078 25.6084 39.6078L21.2821 42.0687C21.5846 43.657 23.4707 53.5862 23.4707 54.3988C23.4707 55.283 21.4091 69.1736 21.2821 69.5038C21.1552 69.8339 20.9866 70.0094 20.9866 70.4734V71.7777L24.1009 70.5565C24.106 70.2016 24.064 69.8476 23.9762 69.5038C23.8838 69.2479 23.8407 68.9769 23.8493 68.705C23.8493 68.6034 26.7627 60.9344 27.9008 57.236C24.3548 58.0094 24.8073 55.2506 24.8073 54.0086Z" fill="black"/>
<path d="M19.3984 58.2264L19.0429 56.435C19.059 56.1649 19.0775 55.8971 19.0937 55.6316L18.939 55.9132L15.0906 36.5212L21.2822 35.5008C18.8559 35.5585 14.5065 32.7305 14.5065 32.7305L13.5508 39.4485L13.8578 52.5312L14.2618 57.5777C14.2757 57.8686 14.3011 58.2033 14.3426 58.5681L14.4742 60.2256C14.502 60.3946 14.5598 60.5573 14.645 60.7058C15.303 64.695 16.5704 69.9678 16.5704 69.9678L15.9378 70.4734L15.8963 71.1452L17.7431 71.7339C18.6666 72.0294 18.8374 71.9878 18.8374 71.9878C18.8374 71.9878 18.6273 70.0094 18.6273 65.5908C18.6273 63.9332 18.7266 61.7562 18.8582 59.4984C19.0693 59.0883 19.2499 58.6632 19.3984 58.2264Z" fill="black"/>
</g>
</g>
<path d="M14.5065 32.7282C14.5065 32.7282 13.7077 38.0379 13.5831 40.7228C13.4584 43.4077 14.2572 54.1887 14.2572 57.2591C14.2572 60.3295 16.5657 69.9563 16.5657 69.9563L15.9332 70.4618L15.8916 71.1336L17.7385 71.7223C18.6619 72.0178 18.8327 71.9763 18.8327 71.9763C18.8327 71.9763 18.6227 69.9978 18.6227 65.5792C18.6227 61.1606 19.3383 53.0829 19.3799 49.5046C19.4214 45.9263 20.7258 42.5212 20.7258 42.5212L21.2729 42.0595C21.2729 42.0595 23.4776 53.5146 23.4776 54.3988C23.4776 55.283 21.416 69.1737 21.2891 69.5038C21.1621 69.8339 20.9936 70.0094 20.9936 70.4734V71.7777L24.1078 70.5565C24.1129 70.2016 24.071 69.8477 23.9832 69.5038C23.8907 69.2479 23.8477 68.9769 23.8562 68.705C23.8562 68.578 28.3579 56.7558 28.3579 55.4076C28.3373 54.4492 28.2493 53.4934 28.0947 52.5473L27.5892 40.5127C27.5892 40.5127 28.1778 39.2499 27.9262 38.1557C27.6746 37.0614 26.2848 33.8225 26.0332 33.6124C25.7816 33.4023 17.0736 34.9999 14.5065 32.7282Z" stroke="#263238" stroke-width="0.4" stroke-linecap="round" stroke-linejoin="round"/>
<path d="M21.2821 42.0687L25.4053 39.587" stroke="#263238" stroke-width="0.4" stroke-linecap="round" stroke-linejoin="round"/>
<path d="M22.5036 41.7755L24.6482 40.9329" stroke="#263238" stroke-width="0.4" stroke-linecap="round" stroke-linejoin="round"/>
<path d="M20.6936 35.3784L20.7351 39.797" stroke="#263238" stroke-width="0.4" stroke-linecap="round" stroke-linejoin="round"/>
<path d="M21.2823 35.5054L21.4924 39.1668L21.0307 39.6701" stroke="#263238" stroke-width="0.4" stroke-linecap="round" stroke-linejoin="round"/>
<path d="M24.1447 35.1684L24.4795 38.3657" stroke="#263238" stroke-width="0.4" stroke-linecap="round" stroke-linejoin="round"/>
<path d="M24.6482 34.8313L25.4493 36.5143" stroke="#263238" stroke-width="0.4" stroke-linecap="round" stroke-linejoin="round"/>
<path d="M17.2421 35.1684L15.7693 40.1757" stroke="#263238" stroke-width="0.4" stroke-linecap="round" stroke-linejoin="round"/>
<path d="M17.3691 35.4639V39.1668" stroke="#263238" stroke-width="0.4" stroke-linecap="round" stroke-linejoin="round"/>
<path d="M1.96871 8.91068C1.96871 8.91068 0.200348 6.72215 0.200348 6.30199C0.200348 5.88183 13.4977 0.368956 13.7078 0.368956C13.9179 0.368956 17.4962 2.85067 17.5377 3.06306C17.5793 3.27545 17.7894 4.40896 17.7894 4.57748C17.7894 4.74601 17.1591 5.08075 17.1591 5.08075C17.1591 5.08075 16.358 5.84027 16.148 5.84027H15.9379C15.6698 5.95991 15.3873 6.04448 15.0976 6.09191C14.9174 6.06943 14.7524 5.97952 14.6359 5.84027C14.6359 5.84027 13.4585 6.13346 13.5416 5.92338C13.6247 5.7133 14.9729 4.87067 14.9729 4.87067C14.9729 4.87067 13.4169 3.90338 13.126 3.27314C12.9397 2.86479 12.7853 2.44259 12.6643 2.01035L4.45042 7.9757L1.96871 8.91068Z" fill="white"/>
<mask id="mask1_0_402" style="mask-type:luminance" maskUnits="userSpaceOnUse" x="0" y="0" width="18" height="9">
<path d="M1.96871 8.91068C1.96871 8.91068 0.200348 6.72215 0.200348 6.30199C0.200348 5.88183 13.4977 0.368956 13.7078 0.368956C13.9179 0.368956 17.4962 2.85067 17.5377 3.06306C17.5793 3.27545 17.7894 4.40896 17.7894 4.57748C17.7894 4.74601 17.1591 5.08075 17.1591 5.08075C17.1591 5.08075 16.358 5.84027 16.148 5.84027H15.9379C15.6698 5.95991 15.3873 6.04448 15.0976 6.09191C14.9174 6.06943 14.7524 5.97952 14.6359 5.84027C14.6359 5.84027 13.4585 6.13346 13.5416 5.92338C13.6247 5.7133 14.9729 4.87067 14.9729 4.87067C14.9729 4.87067 13.4169 3.90338 13.126 3.27314C12.9397 2.86479 12.7853 2.44259 12.6643 2.01035L4.45042 7.9757L1.96871 8.91068Z" fill="white"/>
</mask>
<g mask="url(#mask1_0_402)">
<path opacity="0.2" d="M12.4681 0.846831C9.1299 2.19273 0.200348 5.95801 0.200348 6.30199C0.200348 6.72215 1.96871 8.91068 1.96871 8.91068L4.45042 7.98725L12.6436 2.02189L12.4681 0.846831Z" fill="black"/>
</g>
<path d="M1.96871 8.91068C1.96871 8.91068 0.200348 6.72215 0.200348 6.30199C0.200348 5.88183 13.4977 0.368956 13.7078 0.368956C13.9179 0.368956 17.4962 2.85067 17.5377 3.06306C17.5793 3.27545 17.7894 4.40896 17.7894 4.57748C17.7894 4.74601 17.1591 5.08075 17.1591 5.08075C17.1591 5.08075 16.358 5.84027 16.148 5.84027H15.9379C15.6698 5.95991 15.3873 6.04448 15.0976 6.09191C14.9174 6.06943 14.7524 5.97952 14.6359 5.84027C14.6359 5.84027 13.4585 6.13346 13.5416 5.92338C13.6247 5.7133 14.9729 4.87067 14.9729 4.87067C14.9729 4.87067 13.4169 3.90338 13.126 3.27314C12.9397 2.86479 12.7853 2.44259 12.6643 2.01035L4.45042 7.9757L1.96871 8.91068Z" stroke="#263238" stroke-width="0.4" stroke-linecap="round" stroke-linejoin="round"/>
<path d="M14.6335 5.84027C14.6335 5.84027 15.5223 5.65328 15.6077 5.46397C15.6931 5.27467 15.8663 4.72061 15.7301 4.37433" stroke="#263238" stroke-width="0.4" stroke-linecap="round" stroke-linejoin="round"/>
<path d="M15.9378 5.84027C15.9378 5.84027 16.3995 5.58401 16.4549 5.18694C16.4596 4.72932 16.4194 4.27235 16.3349 3.82257" stroke="#263238" stroke-width="0.4" stroke-linecap="round" stroke-linejoin="round"/>
<path d="M17.1592 5.08073C17.2679 4.81234 17.2874 4.51608 17.2146 4.23579C17.0946 3.77408 17.0068 3.28697 17.0068 3.28697" stroke="#263238" stroke-width="0.4" stroke-linecap="round" stroke-linejoin="round"/>
<path d="M18.2948 13.4124C18.2948 13.4124 16.9905 12.7821 15.3976 11.9003C13.8047 11.0184 12.999 11.1846 12.3687 11.1846C11.7385 11.1846 6.18175 8.32429 6.18175 8.32429L3.69311 10.8476C3.69311 10.8476 13.5807 18.0849 13.7492 18.6321C13.9178 19.1792 14.2964 30.6667 14.1279 31.5601C13.9593 32.4535 13.6661 32.8229 13.8347 33.1599C14.0032 33.497 16.1432 35.39 19.8947 35.3484C23.6461 35.3069 26.2894 34.2542 26.5411 33.7486C26.7927 33.243 26.795 33.0329 26.6265 32.6543C26.4579 32.2757 26.2894 31.814 26.2894 31.814L27.633 22.7136L28.9812 29.6139C28.9812 29.6139 29.653 29.9926 31.0843 29.7409C32.5156 29.4893 33.1459 29.1084 33.1459 29.1084C33.1459 29.1084 30.8742 18.6736 30.4102 17.3693C29.9462 16.0649 29.653 16.1896 28.1801 15.6448C26.7073 15.1 22.8358 13.8764 22.8358 13.8764L18.2948 13.4124Z" fill="white"/>
<mask id="mask2_0_402" style="mask-type:luminance" maskUnits="userSpaceOnUse" x="3" y="8" width="31" height="28">
<path d="M18.2948 13.4124C18.2948 13.4124 16.9905 12.7821 15.3976 11.9003C13.8047 11.0184 12.999 11.1846 12.3687 11.1846C11.7385 11.1846 6.18175 8.32429 6.18175 8.32429L3.69311 10.8476C3.69311 10.8476 13.5807 18.0849 13.7492 18.6321C13.9178 19.1792 14.2964 30.6667 14.1279 31.5601C13.9593 32.4535 13.6661 32.8229 13.8347 33.1599C14.0032 33.497 16.1432 35.39 19.8947 35.3484C23.6461 35.3069 26.2894 34.2542 26.5411 33.7486C26.7927 33.243 26.795 33.0329 26.6265 32.6543C26.4579 32.2757 26.2894 31.814 26.2894 31.814L27.633 22.7136L28.9812 29.6139C28.9812 29.6139 29.653 29.9926 31.0843 29.7409C32.5156 29.4893 33.1459 29.1084 33.1459 29.1084C33.1459 29.1084 30.8742 18.6736 30.4102 17.3693C29.9462 16.0649 29.653 16.1896 28.1801 15.6448C26.7073 15.1 22.8358 13.8764 22.8358 13.8764L18.2948 13.4124Z" fill="white"/>
</mask>
<g mask="url(#mask2_0_402)">
<path opacity="0.2" d="M23.9855 34.6605C22.4572 34.6605 19.6869 34.4689 18.6365 33.7048C17.5861 32.9406 16.1525 27.4001 16.1525 27.4001L18.9228 31.2207L14.1902 11.367C13.5983 11.1883 12.9776 11.1248 12.3618 11.18C11.7293 11.18 6.17482 8.3197 6.17482 8.3197L3.69311 10.8476C3.69311 10.8476 13.5807 18.085 13.7492 18.6321C13.9178 19.1792 14.2964 30.6667 14.1279 31.5601C13.9593 32.4535 13.6661 32.8229 13.8347 33.1599C14.0032 33.497 16.1432 35.39 19.8947 35.3485C21.5287 35.3402 23.1537 35.1071 24.7242 34.6559C24.4887 34.6582 24.2417 34.6605 23.9855 34.6605Z" fill="black"/>
<path opacity="0.2" d="M27.6908 23.1153L28.4296 20.8206L28.5935 21.968L30.1495 20.9845L28.9836 29.614L27.6908 23.1153Z" fill="black"/>
</g>
<path d="M18.2948 13.4124C18.2948 13.4124 16.9905 12.7821 15.3976 11.9003C13.8047 11.0184 12.999 11.1846 12.3687 11.1846C11.7385 11.1846 6.18175 8.32429 6.18175 8.32429L3.69311 10.8476C3.69311 10.8476 13.5807 18.0849 13.7492 18.6321C13.9178 19.1792 14.2964 30.6667 14.1279 31.5601C13.9593 32.4535 13.6661 32.8229 13.8347 33.1599C14.0032 33.497 16.1432 35.39 19.8947 35.3484C23.6461 35.3069 26.2894 34.2542 26.541 33.7486C26.7927 33.243 26.795 33.0329 26.6265 32.6543C26.4579 32.2757 26.2894 31.814 26.2894 31.814L27.633 22.7136L28.9812 29.6139C28.9812 29.6139 29.653 29.9926 31.0843 29.7409C32.5156 29.4893 33.1459 29.1084 33.1459 29.1084C33.1459 29.1084 30.8742 18.6736 30.4102 17.3693C29.9462 16.0649 29.653 16.1896 28.1801 15.6448C26.7073 15.1 22.8358 13.8764 22.8358 13.8764L18.2948 13.4124Z" stroke="#263238" stroke-width="0.4" stroke-linecap="round" stroke-linejoin="round"/>
<path d="M28.9766 20.0703L27.6353 22.7136L30.2163 20.1326" stroke="#263238" stroke-width="0.4" stroke-linecap="round" stroke-linejoin="round"/>
<path d="M13.7494 18.6321L12.4451 13.4978" stroke="#263238" stroke-width="0.4" stroke-linecap="round" stroke-linejoin="round"/>
<path d="M13.7493 18.4635L11.0575 11.6879" stroke="#263238" stroke-width="0.4" stroke-linecap="round" stroke-linejoin="round"/>
<path d="M13.9109 18.3458C13.9109 18.3458 16.1917 28.3858 17.8354 30.4912" stroke="#263238" stroke-width="0.4" stroke-linecap="round" stroke-linejoin="round"/>
<path d="M14.6474 23.1892C14.6474 23.1892 15.8756 31.0891 16.9999 32.6682" stroke="#263238" stroke-width="0.4" stroke-linecap="round" stroke-linejoin="round"/>
<path d="M17.8748 15.8964L19.4723 19.851L18.5904 31.844L20.3149 36.011L22.1248 31.2923L20.2295 19.7217L23.1337 16.028L22.8382 15.8156C22.8382 15.8156 21.9563 16.4897 21.1137 17.2885C20.2711 18.0872 19.5162 18.1727 19.0937 17.584C18.6712 16.9953 18.2949 15.3539 18.2949 15.3539L17.8748 15.8964Z" fill="#263238" stroke="#263238" stroke-width="0.4" stroke-linecap="round" stroke-linejoin="round"/>
<path d="M19.8949 11.4778C19.8949 11.4778 18.4636 11.6463 18.048 12.4012C17.6325 13.1561 16.9099 13.3685 16.7852 14.7998C16.6606 16.2311 16.4897 16.9884 16.6582 16.9884C16.8268 16.9884 18.6367 15.7256 18.6367 15.7256C18.6367 15.7256 19.2669 17.5355 19.5209 17.6601C19.7748 17.7848 20.1927 17.5355 20.5713 17.24C20.9499 16.9445 21.8341 15.8941 22.2542 16.1042C22.6744 16.3143 23.5586 18.5028 23.8956 17.951C24.2327 17.3993 25.2808 14.7537 24.4428 12.8168C23.6047 10.8799 19.8949 11.4778 19.8949 11.4778Z" fill="white" stroke="#263238" stroke-width="0.4" stroke-linecap="round" stroke-linejoin="round"/>
<path d="M19.0521 11.1823C19.0521 11.1823 19.3038 15.3077 19.3476 16.5267C19.3915 17.7456 19.7262 18.0411 20.0194 17.7894C20.3126 17.5378 22.8821 15.1808 23.1337 13.7933C23.3853 12.4058 23.5123 11.6048 23.5123 11.6048L19.0521 11.1823Z" fill="white" stroke="#263238" stroke-width="0.4" stroke-linecap="round" stroke-linejoin="round"/>
<path d="M18.505 7.31311C18.505 7.31311 18.0848 5.9649 17.5815 6.17498C17.0783 6.38506 16.9074 7.90179 17.2445 8.57359C17.5815 9.24538 18.5073 9.28924 18.6296 8.99606C18.752 8.70287 18.505 7.31311 18.505 7.31311Z" fill="white" stroke="#263238" stroke-width="0.4" stroke-linecap="round" stroke-linejoin="round"/>
<path d="M25.6594 6.63902L27.804 4.87065L28.6051 4.70212L28.1826 5.46164L25.8279 7.2277C25.8279 7.2277 25.5324 7.18615 25.6594 6.63902Z" fill="#108E66" stroke="#263238" stroke-width="0.4" stroke-linecap="round" stroke-linejoin="round"/>
<path d="M27.804 4.87065L27.7163 4.94452L28.1434 5.48935L28.1826 5.46164L28.6051 4.70212L27.804 4.87065Z" fill="white" stroke="#263238" stroke-width="0.4" stroke-linecap="round" stroke-linejoin="round"/>
<path d="M25.6592 7.01761C25.6592 7.01761 26.4995 6.17498 26.795 6.84908C27.0905 7.52318 26.8366 8.36351 26.2063 8.95219C25.5761 9.54088 25.1952 9.41391 25.1952 8.99606C25.1952 8.5782 25.6592 7.01761 25.6592 7.01761Z" fill="white" stroke="#263238" stroke-width="0.4" stroke-linecap="round" stroke-linejoin="round"/>
<path d="M19.8509 1.38009C19.8509 1.38009 18.2533 1.67328 18.1263 2.51591C17.9994 3.35854 18.4218 9.75329 18.6319 10.7621C18.842 11.771 20.6519 13.7933 22.0809 13.7079C23.5099 13.6225 24.565 11.9418 24.9436 10.9722C25.3222 10.0026 26.458 4.32352 26.458 3.01918C26.458 1.71483 24.1009 0.200409 22.3026 0.200409C20.5042 0.200409 19.8509 1.38009 19.8509 1.38009Z" fill="white" stroke="#263238" stroke-width="0.4" stroke-linecap="round" stroke-linejoin="round"/>
<path d="M22.1203 7.45856C22.1203 7.45856 22.7944 9.0584 22.5405 9.39545C22.2865 9.7325 20.8991 9.89872 20.8991 9.14151" stroke="#263238" stroke-width="0.4" stroke-linecap="round" stroke-linejoin="round"/>
<path d="M20.4372 10.1111C20.4372 10.1111 21.3214 11.1615 23.0875 10.1526" stroke="#263238" stroke-width="0.4" stroke-linecap="round" stroke-linejoin="round"/>
<path d="M21.6586 7.24847C21.6586 6.95717 21.5722 6.6724 21.4104 6.43019C21.2485 6.18798 21.0185 5.99919 20.7494 5.88772C20.4802 5.77624 20.1841 5.74707 19.8984 5.8039C19.6127 5.86073 19.3502 6.00101 19.1442 6.20699C18.9383 6.41298 18.798 6.67542 18.7412 6.96113C18.6843 7.24683 18.7135 7.54298 18.825 7.81211C18.9364 8.08124 19.1252 8.31127 19.3674 8.47312C19.6096 8.63496 19.8944 8.72134 20.1857 8.72134C20.5763 8.72134 20.951 8.56616 21.2272 8.28995C21.5034 8.01373 21.6586 7.6391 21.6586 7.24847Z" stroke="#263238" stroke-width="0.4" stroke-linecap="round" stroke-linejoin="round"/>
<path d="M25.4446 7.514C25.4451 7.22259 25.3591 6.9376 25.1976 6.69509C25.036 6.45257 24.8061 6.26343 24.537 6.1516C24.2679 6.03977 23.9717 6.01027 23.6859 6.06684C23.4 6.12341 23.1373 6.2635 22.9311 6.4694C22.7249 6.67529 22.5844 6.93772 22.5274 7.22349C22.4704 7.50927 22.4994 7.80553 22.6108 8.07479C22.7222 8.34406 22.911 8.57423 23.1533 8.73617C23.3955 8.89812 23.6804 8.98456 23.9718 8.98456C24.362 8.98456 24.7363 8.8297 25.0124 8.55398C25.2886 8.27826 25.444 7.90423 25.4446 7.514Z" fill="white" stroke="#263238" stroke-width="0.4" stroke-linecap="round" stroke-linejoin="round"/>
<path d="M21.6586 7.24851C21.6586 7.24851 22.1619 7.07998 22.4989 7.33392" stroke="#263238" stroke-width="0.4" stroke-linecap="round" stroke-linejoin="round"/>
<path d="M22.2934 0.200409C20.4835 0.200409 19.8509 1.38009 19.8509 1.38009C19.8509 1.38009 18.2534 1.67328 18.1264 2.51591C18.0618 2.94761 18.1403 4.84757 18.2626 6.72905C18.3088 6.76137 18.5466 6.90451 18.5466 6.63902C18.5466 6.37353 18.3781 5.92336 18.5905 5.67173C18.8028 5.42009 19.4308 5.29312 19.8509 4.61902C20.2711 3.94491 20.1464 3.52475 20.2734 3.39778C20.4004 3.27081 21.7463 2.38894 21.4508 3.01918C21.1553 3.64942 19.2623 4.74599 20.3565 5.32775C21.4508 5.90951 23.764 5.87488 24.565 5.28619C25.3661 4.69751 25.9502 3.39086 25.8278 3.98185C25.7055 4.57285 25.3223 5.53783 25.4492 5.82871C25.5555 6.21383 25.6258 6.60798 25.6593 7.00608C25.6593 7.00608 25.2807 8.35198 25.4054 8.4374C25.4592 8.45587 25.5177 8.45587 25.5716 8.4374C26.0033 6.41047 26.4581 3.82025 26.4581 3.00533C26.4581 1.71483 24.101 0.200409 22.2934 0.200409Z" fill="#263238" stroke="#263238" stroke-width="0.4" stroke-linecap="round" stroke-linejoin="round"/>
<path d="M28.2679 28.9398L28.351 30.3711C28.351 30.3711 28.6465 30.7913 30.625 30.7082C32.6034 30.6251 33.6954 29.951 33.6954 29.951L33.2752 28.058C33.2752 28.058 30.5395 29.0668 28.2679 28.9398Z" fill="white" stroke="#263238" stroke-width="0.4" stroke-linecap="round" stroke-linejoin="round"/>
<path d="M5.88162 7.14458L0.915877 9.03762C0.915877 9.03762 3.06285 11.5609 3.18751 11.5193C3.31217 11.4778 6.88123 8.70056 6.84891 8.40507C6.81659 8.10957 5.88162 7.14458 5.88162 7.14458Z" fill="white" stroke="#263238" stroke-width="0.4" stroke-linecap="round" stroke-linejoin="round"/>
</svg>
