<svg width="16" height="16" viewBox="0 0 16 16" fill="none" xmlns="http://www.w3.org/2000/svg">
<path d="M7.33398 11.3333H8.66732V7.33325H7.33398V11.3333ZM8.00065 5.99992C8.18954 5.99992 8.34798 5.93592 8.47598 5.80792C8.60398 5.67992 8.66776 5.5217 8.66732 5.33325C8.66732 5.14436 8.60332 4.98592 8.47532 4.85792C8.34732 4.72992 8.18909 4.66614 8.00065 4.66658C7.81176 4.66658 7.65332 4.73058 7.52532 4.85858C7.39732 4.98658 7.33354 5.14481 7.33398 5.33325C7.33398 5.52214 7.39798 5.68058 7.52598 5.80858C7.65398 5.93658 7.81221 6.00036 8.00065 5.99992ZM8.00065 14.6666C7.07843 14.6666 6.21176 14.4915 5.40065 14.1412C4.58954 13.791 3.88398 13.3161 3.28398 12.7166C2.68398 12.1166 2.2091 11.411 1.85932 10.5999C1.50954 9.78881 1.33443 8.92214 1.33398 7.99992C1.33398 7.0777 1.5091 6.21103 1.85932 5.39992C2.20954 4.58881 2.68443 3.88325 3.28398 3.28325C3.88398 2.68325 4.58954 2.20836 5.40065 1.85859C6.21176 1.50881 7.07843 1.3337 8.00065 1.33325C8.92287 1.33325 9.78954 1.50836 10.6006 1.85859C11.4118 2.20881 12.1173 2.6837 12.7173 3.28325C13.3173 3.88325 13.7924 4.58881 14.1426 5.39992C14.4929 6.21103 14.6678 7.0777 14.6673 7.99992C14.6673 8.92214 14.4922 9.78881 14.142 10.5999C13.7918 11.411 13.3169 12.1166 12.7173 12.7166C12.1173 13.3166 11.4118 13.7917 10.6006 14.1419C9.78954 14.4921 8.92287 14.667 8.00065 14.6666ZM8.00065 13.3333C9.48954 13.3333 10.7506 12.8166 11.784 11.7832C12.8173 10.7499 13.334 9.48881 13.334 7.99992C13.334 6.51103 12.8173 5.24992 11.784 4.21658C10.7506 3.18325 9.48954 2.66659 8.00065 2.66659C6.51176 2.66659 5.25065 3.18325 4.21732 4.21658C3.18398 5.24992 2.66732 6.51103 2.66732 7.99992C2.66732 9.48881 3.18398 10.7499 4.21732 11.7832C5.25065 12.8166 6.51176 13.3333 8.00065 13.3333Z" fill="#272B2A" fill-opacity="0.54"/>
</svg>
