<svg width="200" height="200" viewBox="0 0 200 200" fill="none" xmlns="http://www.w3.org/2000/svg">
<path d="M166.993 36.6759C166.993 36.6759 157.309 18.7559 136.557 17.7119C115.805 16.6679 108.421 37.9159 93.3007 46.1119C85.3847 50.4079 69.3767 43.2159 60.9327 45.6759C33.9367 53.5519 24.3007 89.5999 35.9167 108.636C45.9687 125.14 63.3087 132.712 89.5167 132.608C115.725 132.504 134.133 133.408 157.301 114.472C180.469 95.5359 178.337 60.3519 166.993 36.6759Z" fill="#108E66"/>
<path opacity="0.8" d="M166.993 36.6759C166.993 36.6759 157.309 18.7559 136.557 17.7119C115.805 16.6679 108.421 37.9159 93.3007 46.1119C85.3847 50.4079 69.3767 43.2159 60.9327 45.6759C33.9367 53.5519 24.3007 89.5999 35.9167 108.636C45.9687 125.14 63.3087 132.712 89.5167 132.608C115.725 132.504 134.133 133.408 157.301 114.472C180.469 95.5359 178.337 60.3519 166.993 36.6759Z" fill="white"/>
<path d="M113.263 39.796H101.939V42.404H113.263V39.796Z" fill="#108E66"/>
<path d="M109.379 43.564H101.939V46.172H109.379V43.564Z" fill="#108E66"/>
<path d="M106.223 47.332H101.939V49.94H106.223V47.332Z" fill="#108E66"/>
<path d="M82.2754 68.676V76.528H86.1154V68.676H82.2754Z" fill="#108E66"/>
<path d="M87.8242 71.372V76.528H91.6642V71.372H87.8242Z" fill="#108E66"/>
<path d="M93.3672 73.556V76.524H97.2072V73.556H93.3672Z" fill="#108E66"/>
<path d="M81.4154 82.256H127.915C128.524 82.2571 129.128 82.138 129.69 81.9057C130.253 81.6734 130.765 81.3324 131.196 80.9022C131.627 80.4719 131.969 79.9609 132.202 79.3984C132.435 78.8359 132.555 78.233 132.555 77.624V39.304C132.555 38.695 132.435 38.0921 132.202 37.5296C131.969 36.9671 131.627 36.4561 131.196 36.0259C130.765 35.5956 130.253 35.2546 129.69 35.0223C129.128 34.79 128.524 34.671 127.915 34.672H81.4154C80.8066 34.6715 80.2036 34.7909 79.641 35.0234C79.0783 35.2559 78.5669 35.5969 78.1361 36.027C77.7052 36.4571 77.3633 36.9679 77.1298 37.5302C76.8963 38.0925 76.7759 38.6952 76.7754 39.304V77.624C76.7759 78.2328 76.8963 78.8356 77.1298 79.3978C77.3633 79.9601 77.7052 80.4709 78.1361 80.901C78.5669 81.3311 79.0783 81.6721 79.641 81.9046C80.2036 82.1371 80.8066 82.2565 81.4154 82.256Z" stroke="#263238" stroke-width="0.6" stroke-miterlimit="10"/>
<path d="M110.736 69.1H127.316" stroke="#263238" stroke-width="0.6" stroke-miterlimit="10"/>
<path d="M110.736 70.8719H127.316" stroke="#263238" stroke-width="0.6" stroke-miterlimit="10"/>
<path d="M110.736 72.644H127.316" stroke="#263238" stroke-width="0.6" stroke-miterlimit="10"/>
<path d="M110.736 74.42H127.316" stroke="#263238" stroke-width="0.6" stroke-miterlimit="10"/>
<path d="M110.736 76.192H127.316" stroke="#263238" stroke-width="0.6" stroke-miterlimit="10"/>
<path d="M81.7676 40.184H98.3476" stroke="#263238" stroke-width="0.6" stroke-miterlimit="10"/>
<path d="M81.7676 41.9561H98.3476" stroke="#263238" stroke-width="0.6" stroke-miterlimit="10"/>
<path d="M81.7676 43.728H98.3476" stroke="#263238" stroke-width="0.6" stroke-miterlimit="10"/>
<path d="M81.7676 45.5H98.3476" stroke="#263238" stroke-width="0.6" stroke-miterlimit="10"/>
<path d="M81.7676 47.276H98.3476" stroke="#263238" stroke-width="0.6" stroke-miterlimit="10"/>
<path d="M125.239 54.12L128.399 55.78L128.043 46.868L120.491 51.632L123.651 53.288L121.275 57.812C120.854 57.8137 120.446 57.9544 120.115 58.212L115.931 56.268C115.931 55.7567 115.727 55.2663 115.366 54.9047C115.004 54.5432 114.514 54.34 114.003 54.34C113.491 54.34 113.001 54.5432 112.639 54.9047C112.278 55.2663 112.075 55.7567 112.075 56.268C112.074 56.5443 112.134 56.8173 112.251 57.068L106.767 63.012C106.592 62.956 106.41 62.9263 106.227 62.924C106.134 62.9272 106.042 62.9366 105.951 62.952L98.0665 52.988C98.1799 52.7367 98.2372 52.4637 98.2345 52.188C98.2345 51.6767 98.0314 51.1863 97.6698 50.8247C97.3083 50.4632 96.8179 50.26 96.3065 50.26C95.7952 50.26 95.3048 50.4632 94.9432 50.8247C94.5817 51.1863 94.3785 51.6767 94.3785 52.188C94.3827 52.3866 94.4164 52.5834 94.4785 52.772L85.4745 61.94C85.263 61.8626 85.0398 61.8221 84.8145 61.82C84.4342 61.8208 84.0626 61.9344 83.7467 62.1462C83.4308 62.3581 83.1849 62.6589 83.0398 63.0105C82.8948 63.3622 82.8573 63.7489 82.932 64.1218C83.0067 64.4948 83.1902 64.8373 83.4595 65.1059C83.7287 65.3746 84.0715 65.5574 84.4446 65.6314C84.8178 65.7053 85.2044 65.6669 85.5557 65.5212C85.9071 65.3755 86.2073 65.1289 86.4186 64.8125C86.6298 64.4962 86.7425 64.1244 86.7425 63.744C86.7417 63.5846 86.7202 63.4259 86.6785 63.272L95.7585 54C95.936 54.0558 96.1206 54.0855 96.3065 54.088C96.4246 54.0878 96.5424 54.0771 96.6585 54.056L104.503 64C104.361 64.2838 104.291 64.5982 104.3 64.9154C104.308 65.2325 104.395 65.5426 104.553 65.8181C104.71 66.0936 104.933 66.3261 105.201 66.4949C105.47 66.6636 105.776 66.7635 106.093 66.7856C106.409 66.8077 106.726 66.7513 107.016 66.6215C107.305 66.4917 107.558 66.2925 107.752 66.0415C107.946 65.7905 108.075 65.4955 108.128 65.1827C108.181 64.8698 108.156 64.5488 108.055 64.248L113.679 58.156C113.786 58.175 113.894 58.1857 114.003 58.188C114.385 58.1885 114.758 58.0743 115.075 57.86L119.355 59.86C119.371 60.1568 119.456 60.4457 119.603 60.7041C119.75 60.9625 119.954 61.1834 120.201 61.3495C120.447 61.5155 120.729 61.6222 121.023 61.6611C121.318 61.7 121.618 61.6702 121.899 61.5739C122.18 61.4776 122.435 61.3175 122.644 61.1061C122.853 60.8947 123.01 60.6378 123.103 60.3555C123.196 60.0732 123.222 59.7732 123.18 59.4791C123.137 59.1849 123.027 58.9046 122.859 58.66L125.239 54.12Z" fill="#263238"/>
<path d="M66.1483 62.876L60.7403 54.424L51.8043 60.996L43.5643 44.688L21.8203 58.512V69.68H70.8523V60.292L66.1483 62.876Z" fill="#263238" stroke="#263238" stroke-width="0.6" stroke-linecap="round" stroke-linejoin="round"/>
<path d="M67.0883 69.212L61.2123 60.2919L51.3363 64.284L39.8123 53.252L21.8203 60.5159V76.724H70.8523V66.628L67.0883 69.212Z" fill="#108E66" stroke="#263238" stroke-width="0.6" stroke-miterlimit="10"/>
<path d="M67.0883 69.212L61.2123 60.2919L51.3363 64.284L39.8123 53.252L21.8203 60.5159V76.724H70.8523V66.628L67.0883 69.212Z" stroke="#263238" stroke-width="0.6" stroke-miterlimit="10"/>
<path d="M49.6792 40.552H45.7312C45.4898 40.5502 45.2549 40.6303 45.0648 40.7791C44.8747 40.928 44.7407 41.1368 44.6845 41.3716C44.6284 41.6064 44.6534 41.8533 44.7556 42.072C44.8578 42.2908 45.0311 42.4684 45.2472 42.576L43.8672 44.044L46.3832 42.696H49.6792C49.9635 42.696 50.2362 42.5831 50.4372 42.3821C50.6382 42.181 50.7512 41.9083 50.7512 41.624C50.7512 41.3397 50.6382 41.0671 50.4372 40.866C50.2362 40.665 49.9635 40.552 49.6792 40.552Z" fill="#108E66"/>
<path opacity="0.2" d="M49.6792 40.552H45.7312C45.4898 40.5502 45.2549 40.6303 45.0648 40.7791C44.8747 40.928 44.7407 41.1368 44.6845 41.3716C44.6284 41.6064 44.6534 41.8533 44.7556 42.072C44.8578 42.2908 45.0311 42.4684 45.2472 42.576L43.8672 44.044L46.3832 42.696H49.6792C49.9635 42.696 50.2362 42.5831 50.4372 42.3821C50.6382 42.181 50.7512 41.9083 50.7512 41.624C50.7512 41.3397 50.6382 41.0671 50.4372 40.866C50.2362 40.665 49.9635 40.552 49.6792 40.552Z" fill="black" fill-opacity="0.5"/>
<path d="M66.9722 50.096H63.0242C62.7827 50.0942 62.5478 50.1742 62.3578 50.3231C62.1677 50.4719 62.0336 50.6808 61.9775 50.9156C61.9214 51.1504 61.9464 51.3973 62.0486 51.616C62.1508 51.8347 62.3241 52.0124 62.5402 52.12L61.1602 53.6L63.6762 52.248H66.9722C67.2565 52.248 67.5291 52.135 67.7302 51.934C67.9312 51.733 68.0442 51.4603 68.0442 51.176C68.0442 50.8917 67.9312 50.619 67.7302 50.418C67.5291 50.2169 67.2565 50.104 66.9722 50.104V50.096Z" fill="#108E66"/>
<path opacity="0.2" d="M66.9722 50.096H63.0242C62.7827 50.0942 62.5478 50.1742 62.3578 50.3231C62.1677 50.4719 62.0336 50.6808 61.9775 50.9156C61.9214 51.1504 61.9464 51.3973 62.0486 51.616C62.1508 51.8347 62.3241 52.0124 62.5402 52.12L61.1602 53.6L63.6762 52.248H66.9722C67.2565 52.248 67.5291 52.135 67.7302 51.934C67.9312 51.733 68.0442 51.4603 68.0442 51.176C68.0442 50.8917 67.9312 50.619 67.7302 50.418C67.5291 50.2169 67.2565 50.104 66.9722 50.104V50.096Z" fill="black" fill-opacity="0.5"/>
<path d="M23.8002 82.256H70.3002C70.9091 82.2571 71.5123 82.138 72.0752 81.9057C72.6381 81.6734 73.1497 81.3324 73.5807 80.9022C74.0116 80.4719 74.3535 79.9609 74.5868 79.3984C74.8201 78.8359 74.9402 78.233 74.9402 77.624V39.304C74.9402 38.695 74.8201 38.0921 74.5868 37.5296C74.3535 36.9671 74.0116 36.4561 73.5807 36.0259C73.1497 35.5956 72.6381 35.2546 72.0752 35.0223C71.5123 34.79 70.9091 34.671 70.3002 34.672H23.8002C23.1912 34.671 22.588 34.79 22.0251 35.0223C21.4622 35.2546 20.9506 35.5956 20.5197 36.0259C20.0887 36.4561 19.7468 36.9671 19.5135 37.5296C19.2802 38.0921 19.1602 38.695 19.1602 39.304V77.624C19.1602 78.233 19.2802 78.8359 19.5135 79.3984C19.7468 79.9609 20.0887 80.4719 20.5197 80.9022C20.9506 81.3324 21.4622 81.6734 22.0251 81.9057C22.588 82.138 23.1912 82.2571 23.8002 82.256Z" stroke="#263238" stroke-width="0.6" stroke-miterlimit="10"/>
<path d="M22.6914 39.844H25.8954" stroke="#263238" stroke-width="0.6" stroke-miterlimit="10"/>
<path d="M22.6914 43.332H25.8954" stroke="#263238" stroke-width="0.6" stroke-miterlimit="10"/>
<path d="M22.6914 46.8199H25.8954" stroke="#263238" stroke-width="0.6" stroke-miterlimit="10"/>
<path d="M22.6914 50.308H25.8954" stroke="#263238" stroke-width="0.6" stroke-miterlimit="10"/>
<path d="M22.6914 53.796H25.8954" stroke="#263238" stroke-width="0.6" stroke-miterlimit="10"/>
<path d="M148.528 44.572C146.445 44.5752 144.409 45.1958 142.679 46.3554C140.948 47.5151 139.6 49.1617 138.805 51.0871C138.01 53.0126 137.804 55.1306 138.212 57.1733C138.621 59.216 139.625 61.0918 141.099 62.5637C142.574 64.0356 144.451 65.0375 146.494 65.4427C148.538 65.848 150.655 65.6384 152.579 64.8405C154.504 64.0426 156.148 62.6921 157.305 60.9598C158.462 59.2276 159.08 57.1912 159.08 55.108C159.076 52.3122 157.962 49.6324 155.984 47.657C154.005 45.6815 151.324 44.572 148.528 44.572ZM148.528 62.548C147.057 62.5425 145.62 62.1011 144.399 61.2796C143.179 60.4581 142.229 59.2934 141.67 57.9324C141.111 56.5715 140.968 55.0755 141.259 53.6332C141.549 52.191 142.261 50.8672 143.303 49.8291C144.346 48.791 145.673 48.0851 147.116 47.8006C148.56 47.5161 150.055 47.6657 151.414 48.2305C152.772 48.7954 153.933 49.7501 154.749 50.9742C155.565 52.1983 156.001 53.6368 156 55.108C155.998 56.0872 155.803 57.0563 155.426 57.9601C155.05 58.8639 154.499 59.6847 153.805 60.3755C153.111 61.0664 152.288 61.6138 151.382 61.9866C150.477 62.3594 149.507 62.5501 148.528 62.548Z" fill="#108E66" stroke="#263238" stroke-width="0.6" stroke-miterlimit="10"/>
<path d="M148.528 44.572C146.445 44.5752 144.409 45.1958 142.679 46.3554C140.948 47.5151 139.6 49.1617 138.805 51.0871C138.01 53.0126 137.804 55.1306 138.212 57.1733C138.621 59.216 139.625 61.0918 141.099 62.5637C142.574 64.0356 144.451 65.0375 146.494 65.4427C148.538 65.848 150.655 65.6384 152.579 64.8405C154.504 64.0426 156.148 62.6921 157.305 60.9598C158.462 59.2276 159.08 57.1912 159.08 55.108C159.076 52.3122 157.962 49.6324 155.984 47.657C154.005 45.6815 151.324 44.572 148.528 44.572ZM148.528 62.548C147.057 62.5425 145.62 62.1011 144.399 61.2796C143.179 60.4581 142.229 59.2934 141.67 57.9324C141.111 56.5715 140.968 55.0755 141.259 53.6332C141.549 52.191 142.261 50.8672 143.303 49.8291C144.346 48.791 145.673 48.0851 147.116 47.8006C148.56 47.5161 150.055 47.6657 151.414 48.2305C152.772 48.7954 153.933 49.7501 154.749 50.9742C155.565 52.1983 156.001 53.6368 156 55.108C155.998 56.0872 155.803 57.0563 155.426 57.9601C155.05 58.8639 154.499 59.6847 153.805 60.3755C153.111 61.0664 152.288 61.6138 151.382 61.9866C150.477 62.3593 149.507 62.5501 148.528 62.548Z" stroke="#263238" stroke-width="0.6" stroke-miterlimit="10"/>
<path d="M148.528 44.5719C147.104 44.5662 145.694 44.8509 144.384 45.4087C143.074 45.9664 141.891 46.7856 140.908 47.8159L143.144 49.9559C143.995 49.0649 145.054 48.3988 146.226 48.0175C147.397 47.6362 148.645 47.5516 149.858 47.7712C151.07 47.9908 152.209 48.5077 153.173 49.2758C154.136 50.0438 154.894 51.0389 155.379 52.1718C155.863 53.3048 156.059 54.5402 155.949 55.7674C155.838 56.9946 155.425 58.1753 154.746 59.2036C154.067 60.2319 153.144 61.0756 152.059 61.6593C150.973 62.243 149.76 62.5483 148.528 62.5479V65.6399C149.929 65.6672 151.321 65.4149 152.623 64.8978C153.925 64.3807 155.11 63.6091 156.111 62.6282C157.111 61.6474 157.905 60.4769 158.448 59.1853C158.99 57.8936 159.269 56.5068 159.269 55.1059C159.269 53.7051 158.99 52.3182 158.448 51.0266C157.905 49.735 157.111 48.5645 156.111 47.5836C155.11 46.6028 153.925 45.8312 152.623 45.3141C151.321 44.7969 149.929 44.5447 148.528 44.5719Z" fill="#263238" stroke="#263238" stroke-width="0.6" stroke-linecap="round" stroke-linejoin="round"/>
<path d="M174.553 44.572C172.47 44.5752 170.435 45.1958 168.704 46.3554C166.974 47.5151 165.626 49.1617 164.831 51.0871C164.036 53.0126 163.829 55.1306 164.238 57.1733C164.646 59.216 165.651 61.0918 167.125 62.5637C168.599 64.0356 170.476 65.0375 172.52 65.4427C174.563 65.848 176.681 65.6384 178.605 64.8405C180.529 64.0426 182.174 62.6921 183.331 60.9598C184.488 59.2276 185.105 57.1912 185.105 55.108C185.101 52.3122 183.987 49.6324 182.009 47.657C180.031 45.6815 177.349 44.572 174.553 44.572ZM174.553 62.548C173.081 62.5472 171.642 62.1099 170.418 61.2913C169.194 60.4726 168.241 59.3095 167.678 57.949C167.116 56.5885 166.969 55.0917 167.257 53.6478C167.545 52.204 168.255 50.878 169.296 49.8375C170.338 48.797 171.665 48.0887 173.109 47.8023C174.553 47.5158 176.05 47.664 177.41 48.2282C178.77 48.7923 179.932 49.7471 180.749 50.9717C181.566 52.1963 182.002 53.6357 182.001 55.108C181.996 57.081 181.209 58.9715 179.813 60.3659C178.418 61.7602 176.526 62.5449 174.553 62.548Z" fill="#108E66" stroke="#263238" stroke-width="0.6" stroke-miterlimit="10"/>
<path d="M174.553 44.572C172.47 44.5752 170.435 45.1958 168.704 46.3554C166.974 47.5151 165.626 49.1617 164.831 51.0871C164.036 53.0126 163.829 55.1306 164.238 57.1733C164.646 59.216 165.651 61.0918 167.125 62.5637C168.599 64.0356 170.476 65.0375 172.52 65.4427C174.563 65.848 176.681 65.6384 178.605 64.8405C180.529 64.0426 182.174 62.6921 183.331 60.9598C184.488 59.2276 185.105 57.1912 185.105 55.108C185.101 52.3122 183.987 49.6324 182.009 47.657C180.031 45.6815 177.349 44.572 174.553 44.572ZM174.553 62.548C173.081 62.5472 171.642 62.1099 170.418 61.2913C169.194 60.4726 168.241 59.3095 167.678 57.949C167.116 56.5885 166.969 55.0917 167.257 53.6478C167.545 52.204 168.255 50.878 169.296 49.8375C170.338 48.797 171.665 48.0887 173.109 47.8023C174.553 47.5158 176.05 47.664 177.41 48.2282C178.77 48.7923 179.932 49.7471 180.749 50.9717C181.566 52.1963 182.002 53.6357 182.001 55.108C181.996 57.081 181.209 58.9715 179.813 60.3659C178.418 61.7602 176.526 62.5449 174.553 62.548Z" stroke="#263238" stroke-width="0.6" stroke-miterlimit="10"/>
<path d="M178.661 45.4L177.461 48.248C179.043 48.9172 180.345 50.1129 181.146 51.6325C181.947 53.1521 182.198 54.902 181.856 56.5855C181.514 58.269 180.601 59.7824 179.27 60.8691C177.94 61.9558 176.274 62.549 174.557 62.548V65.64C176.99 65.6456 179.351 64.8082 181.237 63.2701C183.123 61.7319 184.418 59.5881 184.902 57.203C185.386 54.8178 185.03 52.3387 183.892 50.1869C182.755 48.0352 180.908 46.3437 178.665 45.4H178.661Z" fill="#263238" stroke="#263238" stroke-width="0.6" stroke-linecap="round" stroke-linejoin="round"/>
<path d="M183.728 34.672H140.248C139.492 34.6715 138.742 34.82 138.042 35.1092C137.343 35.3984 136.707 35.8225 136.172 36.3574C135.636 36.8923 135.211 37.5274 134.921 38.2265C134.631 38.9256 134.481 39.6751 134.48 40.432V76.5C134.483 78.028 135.091 79.4927 136.173 80.572C137.255 81.6514 138.72 82.2571 140.248 82.256H183.728C184.485 82.257 185.235 82.109 185.934 81.8202C186.634 81.5315 187.269 81.1077 187.805 80.5732C188.341 80.0386 188.766 79.4038 189.056 78.7049C189.346 78.006 189.496 77.2567 189.496 76.5V40.432C189.496 39.6751 189.346 38.9256 189.056 38.2265C188.766 37.5274 188.341 36.8923 187.805 36.3574C187.27 35.8225 186.634 35.3984 185.935 35.1092C185.235 34.82 184.485 34.6715 183.728 34.672Z" stroke="#263238" stroke-width="0.6" stroke-miterlimit="10"/>
<path d="M139.152 69.1H155.728" stroke="#263238" stroke-width="0.6" stroke-miterlimit="10"/>
<path d="M139.152 70.8719H155.728" stroke="#263238" stroke-width="0.6" stroke-miterlimit="10"/>
<path d="M139.152 72.644H155.728" stroke="#263238" stroke-width="0.6" stroke-miterlimit="10"/>
<path d="M139.152 74.42H155.728" stroke="#263238" stroke-width="0.6" stroke-miterlimit="10"/>
<path d="M139.152 76.192H155.728" stroke="#263238" stroke-width="0.6" stroke-miterlimit="10"/>
<path d="M166.529 69.1H183.109" stroke="#263238" stroke-width="0.6" stroke-miterlimit="10"/>
<path d="M166.529 70.8719H183.109" stroke="#263238" stroke-width="0.6" stroke-miterlimit="10"/>
<path d="M166.529 72.644H183.109" stroke="#263238" stroke-width="0.6" stroke-miterlimit="10"/>
<path d="M166.529 74.42H183.109" stroke="#263238" stroke-width="0.6" stroke-miterlimit="10"/>
<path d="M166.529 76.192H183.109" stroke="#263238" stroke-width="0.6" stroke-miterlimit="10"/>
<path d="M153.145 39.556H169.721" stroke="#263238" stroke-width="0.6" stroke-miterlimit="10"/>
<path d="M153.145 41.332H169.721" stroke="#263238" stroke-width="0.6" stroke-miterlimit="10"/>
<path d="M134.303 148.936H183.375C184.997 148.937 186.552 148.294 187.7 147.149C188.847 146.004 189.493 144.449 189.495 142.828V91.144C189.495 90.3408 189.336 89.5456 189.028 88.8038C188.72 88.062 188.27 87.388 187.701 86.8205C187.133 86.2529 186.458 85.8029 185.716 85.496C184.974 85.1891 184.179 85.0315 183.375 85.032H110.895C110.092 85.0315 109.297 85.1891 108.555 85.496C107.812 85.8029 107.138 86.2529 106.57 86.8205C106.001 87.388 105.55 88.062 105.242 88.8038C104.935 89.5456 104.776 90.3408 104.775 91.144V125.2" stroke="#263238" stroke-width="0.6" stroke-miterlimit="10"/>
<path d="M128.512 115.172H116.84V132.136H128.512V115.172Z" fill="#108E66" stroke="#263238" stroke-width="0.6" stroke-miterlimit="10"/>
<path d="M128.512 115.172H116.84V132.136H128.512V115.172Z" stroke="#263238" stroke-width="0.6" stroke-miterlimit="10"/>
<path d="M144.719 106.688H133.047V125.468H144.719V106.688Z" fill="#108E66" stroke="#263238" stroke-width="0.6" stroke-miterlimit="10"/>
<path d="M144.719 106.688H133.047V125.468H144.719V106.688Z" stroke="#263238" stroke-width="0.6" stroke-miterlimit="10"/>
<path d="M160.928 99.724H149.256V112.144H160.928V99.724Z" fill="#108E66" stroke="#263238" stroke-width="0.6" stroke-miterlimit="10"/>
<path d="M160.928 99.724H149.256V112.144H160.928V99.724Z" stroke="#263238" stroke-width="0.6" stroke-miterlimit="10"/>
<path d="M128.512 132.132H116.84V139.1H128.512V132.132Z" fill="#263238" stroke="#263238" stroke-width="0.6" stroke-linecap="round" stroke-linejoin="round"/>
<path d="M144.719 125.468H133.047V139.1H144.719V125.468Z" fill="#263238" stroke="#263238" stroke-width="0.6" stroke-linecap="round" stroke-linejoin="round"/>
<path d="M176.18 106.688H164.508V125.468H176.18V106.688Z" fill="#108E66" stroke="#263238" stroke-width="0.6" stroke-miterlimit="10"/>
<path d="M176.18 106.688H164.508V125.468H176.18V106.688Z" stroke="#263238" stroke-width="0.6" stroke-miterlimit="10"/>
<path d="M176.18 125.468H164.508V139.1H176.18V125.468Z" fill="#263238" stroke="#263238" stroke-width="0.6" stroke-linecap="round" stroke-linejoin="round"/>
<path d="M160.928 112.14H149.256V139.1H160.928V112.14Z" fill="#263238" stroke="#263238" stroke-width="0.6" stroke-linecap="round" stroke-linejoin="round"/>
<path d="M142.696 99.7479H135.412C135.078 99.7479 134.758 99.8807 134.521 100.117C134.285 100.353 134.152 100.674 134.152 101.008V102.684C134.152 103.018 134.285 103.339 134.521 103.575C134.758 103.811 135.078 103.944 135.412 103.944H138.112L139.056 105.576L139.996 103.944H142.696C143.031 103.944 143.351 103.811 143.587 103.575C143.824 103.339 143.956 103.018 143.956 102.684V101.008C143.956 100.674 143.824 100.353 143.587 100.117C143.351 99.8807 143.031 99.7479 142.696 99.7479Z" fill="#108E66"/>
<mask id="mask0_2783_25972" style="mask-type:luminance" maskUnits="userSpaceOnUse" x="134" y="99" width="10" height="7">
<path d="M142.696 99.7479H135.412C135.078 99.7479 134.758 99.8807 134.521 100.117C134.285 100.353 134.152 100.674 134.152 101.008V102.684C134.152 103.018 134.285 103.339 134.521 103.575C134.758 103.811 135.078 103.944 135.412 103.944H138.112L139.056 105.576L139.996 103.944H142.696C143.031 103.944 143.351 103.811 143.587 103.575C143.824 103.339 143.956 103.018 143.956 102.684V101.008C143.956 100.674 143.824 100.353 143.587 100.117C143.351 99.8807 143.031 99.7479 142.696 99.7479Z" fill="white"/>
</mask>
<g mask="url(#mask0_2783_25972)">
<path opacity="0.5" d="M142.696 99.7479H135.412C135.078 99.7479 134.758 99.8807 134.521 100.117C134.285 100.353 134.152 100.674 134.152 101.008V102.684C134.152 103.018 134.285 103.339 134.521 103.575C134.758 103.811 135.078 103.944 135.412 103.944H138.112L139.056 105.576L139.996 103.944H142.696C143.031 103.944 143.351 103.811 143.587 103.575C143.824 103.339 143.956 103.018 143.956 102.684V101.008C143.956 100.674 143.824 100.353 143.587 100.117C143.351 99.8807 143.031 99.7479 142.696 99.7479Z" fill="white"/>
</g>
<path d="M142.696 99.7479H135.412C135.078 99.7479 134.758 99.8807 134.521 100.117C134.285 100.353 134.152 100.674 134.152 101.008V102.684C134.152 103.018 134.285 103.339 134.521 103.575C134.758 103.811 135.078 103.944 135.412 103.944H138.112L139.056 105.576L139.996 103.944H142.696C143.031 103.944 143.351 103.811 143.587 103.575C143.824 103.339 143.956 103.018 143.956 102.684V101.008C143.956 100.674 143.824 100.353 143.587 100.117C143.351 99.8807 143.031 99.7479 142.696 99.7479Z" stroke="#263238" stroke-width="0.6" stroke-linecap="round" stroke-linejoin="round"/>
<path d="M126.315 108.448H119.035C118.702 108.448 118.382 108.58 118.146 108.816C117.91 109.051 117.776 109.371 117.775 109.704V111.384C117.776 111.717 117.91 112.037 118.146 112.272C118.382 112.508 118.702 112.64 119.035 112.64H121.731L122.675 114.272L123.619 112.64H126.315C126.649 112.64 126.969 112.508 127.205 112.272C127.441 112.037 127.574 111.717 127.575 111.384V109.704C127.574 109.371 127.441 109.051 127.205 108.816C126.969 108.58 126.649 108.448 126.315 108.448Z" fill="#108E66"/>
<mask id="mask1_2783_25972" style="mask-type:luminance" maskUnits="userSpaceOnUse" x="117" y="108" width="11" height="7">
<path d="M126.315 108.448H119.035C118.702 108.448 118.382 108.58 118.146 108.816C117.91 109.051 117.776 109.371 117.775 109.704V111.384C117.776 111.717 117.91 112.037 118.146 112.272C118.382 112.508 118.702 112.64 119.035 112.64H121.731L122.675 114.272L123.619 112.64H126.315C126.649 112.64 126.969 112.508 127.205 112.272C127.441 112.037 127.574 111.717 127.575 111.384V109.704C127.574 109.371 127.441 109.051 127.205 108.816C126.969 108.58 126.649 108.448 126.315 108.448Z" fill="white"/>
</mask>
<g mask="url(#mask1_2783_25972)">
<path opacity="0.5" d="M126.315 108.448H119.035C118.702 108.448 118.382 108.58 118.146 108.816C117.91 109.051 117.776 109.371 117.775 109.704V111.384C117.776 111.717 117.91 112.037 118.146 112.272C118.382 112.508 118.702 112.64 119.035 112.64H121.731L122.675 114.272L123.619 112.64H126.315C126.649 112.64 126.969 112.508 127.205 112.272C127.441 112.037 127.574 111.717 127.575 111.384V109.704C127.574 109.371 127.441 109.051 127.205 108.816C126.969 108.58 126.649 108.448 126.315 108.448Z" fill="white"/>
</g>
<path d="M126.315 108.448H119.035C118.702 108.448 118.382 108.58 118.146 108.816C117.91 109.051 117.776 109.371 117.775 109.704V111.384C117.776 111.717 117.91 112.037 118.146 112.272C118.382 112.508 118.702 112.64 119.035 112.64H121.731L122.675 114.272L123.619 112.64H126.315C126.649 112.64 126.969 112.508 127.205 112.272C127.441 112.037 127.574 111.717 127.575 111.384V109.704C127.574 109.371 127.441 109.051 127.205 108.816C126.969 108.58 126.649 108.448 126.315 108.448Z" stroke="#263238" stroke-width="0.6" stroke-linecap="round" stroke-linejoin="round"/>
<path d="M158.659 92.76H151.375C151.041 92.76 150.721 92.8928 150.484 93.1291C150.248 93.3654 150.115 93.6858 150.115 94.02V95.696C150.115 95.8613 150.148 96.0249 150.211 96.1776C150.275 96.3302 150.367 96.4689 150.485 96.5856C150.602 96.7022 150.741 96.7947 150.893 96.8576C151.046 96.9204 151.21 96.9525 151.375 96.952H154.075L155.015 98.584L155.959 96.952H158.659C158.825 96.9525 158.988 96.9204 159.141 96.8576C159.294 96.7947 159.433 96.7022 159.55 96.5856C159.667 96.4689 159.76 96.3302 159.823 96.1776C159.887 96.0249 159.919 95.8613 159.919 95.696V94.02C159.919 93.6858 159.786 93.3654 159.55 93.1291C159.314 92.8928 158.993 92.76 158.659 92.76Z" fill="#108E66"/>
<mask id="mask2_2783_25972" style="mask-type:luminance" maskUnits="userSpaceOnUse" x="150" y="92" width="10" height="7">
<path d="M158.659 92.76H151.375C151.041 92.76 150.721 92.8928 150.484 93.1291C150.248 93.3654 150.115 93.6858 150.115 94.02V95.696C150.115 95.8613 150.148 96.0249 150.211 96.1776C150.275 96.3302 150.367 96.4689 150.485 96.5856C150.602 96.7022 150.741 96.7947 150.893 96.8576C151.046 96.9204 151.21 96.9525 151.375 96.952H154.075L155.015 98.584L155.959 96.952H158.659C158.825 96.9525 158.988 96.9204 159.141 96.8576C159.294 96.7947 159.433 96.7022 159.55 96.5856C159.667 96.4689 159.76 96.3302 159.823 96.1776C159.887 96.0249 159.919 95.8613 159.919 95.696V94.02C159.919 93.6858 159.786 93.3654 159.55 93.1291C159.314 92.8928 158.993 92.76 158.659 92.76Z" fill="white"/>
</mask>
<g mask="url(#mask2_2783_25972)">
<path opacity="0.5" d="M158.659 92.76H151.375C151.041 92.76 150.721 92.8928 150.484 93.1291C150.248 93.3654 150.115 93.6858 150.115 94.02V95.696C150.115 95.8613 150.148 96.0249 150.211 96.1776C150.275 96.3302 150.367 96.4689 150.485 96.5856C150.602 96.7022 150.741 96.7947 150.893 96.8576C151.046 96.9204 151.21 96.9525 151.375 96.952H154.075L155.015 98.584L155.959 96.952H158.659C158.825 96.9525 158.988 96.9204 159.141 96.8576C159.294 96.7947 159.433 96.7022 159.55 96.5856C159.667 96.4689 159.76 96.3302 159.823 96.1776C159.887 96.0249 159.919 95.8613 159.919 95.696V94.02C159.919 93.6858 159.786 93.3654 159.55 93.1291C159.314 92.8928 158.993 92.76 158.659 92.76Z" fill="white"/>
</g>
<path d="M158.659 92.76H151.375C151.041 92.76 150.721 92.8928 150.484 93.1291C150.248 93.3654 150.115 93.6858 150.115 94.02V95.696C150.115 95.8613 150.148 96.0249 150.211 96.1776C150.275 96.3302 150.367 96.4689 150.485 96.5856C150.602 96.7022 150.741 96.7947 150.893 96.8576C151.046 96.9204 151.21 96.9525 151.375 96.952H154.075L155.015 98.584L155.959 96.952H158.659C158.825 96.9525 158.988 96.9204 159.141 96.8576C159.294 96.7947 159.433 96.7022 159.55 96.5856C159.667 96.4689 159.76 96.3302 159.823 96.1776C159.887 96.0249 159.919 95.8613 159.919 95.696V94.02C159.919 93.6858 159.786 93.3654 159.55 93.1291C159.314 92.8928 158.993 92.76 158.659 92.76Z" stroke="#263238" stroke-width="0.6" stroke-linecap="round" stroke-linejoin="round"/>
<path d="M173.999 99.64H166.719C166.385 99.64 166.064 99.7728 165.828 100.009C165.592 100.245 165.459 100.566 165.459 100.9V102.576C165.459 102.741 165.492 102.905 165.555 103.058C165.618 103.21 165.711 103.349 165.828 103.466C165.945 103.582 166.084 103.675 166.237 103.738C166.39 103.8 166.554 103.833 166.719 103.832H169.415L170.359 105.464L171.303 103.832H173.999C174.164 103.833 174.328 103.8 174.481 103.738C174.635 103.675 174.774 103.582 174.891 103.466C175.008 103.349 175.102 103.211 175.166 103.058C175.229 102.905 175.262 102.741 175.263 102.576V100.9C175.262 100.565 175.128 100.245 174.891 100.009C174.654 99.7726 174.334 99.64 173.999 99.64Z" fill="#108E66"/>
<mask id="mask3_2783_25972" style="mask-type:luminance" maskUnits="userSpaceOnUse" x="165" y="99" width="11" height="7">
<path d="M173.999 99.64H166.719C166.385 99.64 166.064 99.7728 165.828 100.009C165.592 100.245 165.459 100.566 165.459 100.9V102.576C165.459 102.741 165.492 102.905 165.555 103.058C165.618 103.21 165.711 103.349 165.828 103.466C165.945 103.582 166.084 103.675 166.237 103.738C166.39 103.8 166.554 103.833 166.719 103.832H169.415L170.359 105.464L171.303 103.832H173.999C174.164 103.833 174.328 103.8 174.481 103.738C174.635 103.675 174.774 103.582 174.891 103.466C175.008 103.349 175.102 103.211 175.166 103.058C175.229 102.905 175.262 102.741 175.263 102.576V100.9C175.262 100.565 175.128 100.245 174.891 100.009C174.654 99.7726 174.334 99.64 173.999 99.64Z" fill="white"/>
</mask>
<g mask="url(#mask3_2783_25972)">
<path opacity="0.5" d="M173.999 99.64H166.719C166.385 99.64 166.064 99.7728 165.828 100.009C165.592 100.245 165.459 100.566 165.459 100.9V102.576C165.459 102.741 165.492 102.905 165.555 103.058C165.618 103.21 165.711 103.349 165.828 103.466C165.945 103.582 166.084 103.675 166.237 103.738C166.39 103.8 166.554 103.833 166.719 103.832H169.415L170.359 105.464L171.303 103.832H173.999C174.164 103.833 174.328 103.8 174.481 103.738C174.635 103.675 174.774 103.582 174.891 103.466C175.008 103.349 175.102 103.211 175.166 103.058C175.229 102.905 175.262 102.741 175.263 102.576V100.9C175.262 100.565 175.128 100.245 174.891 100.009C174.654 99.7726 174.334 99.64 173.999 99.64Z" fill="white"/>
</g>
<path d="M173.999 99.64H166.719C166.385 99.64 166.064 99.7728 165.828 100.009C165.592 100.245 165.459 100.566 165.459 100.9V102.576C165.459 102.741 165.492 102.905 165.555 103.058C165.618 103.21 165.711 103.349 165.828 103.466C165.945 103.582 166.084 103.675 166.237 103.738C166.39 103.8 166.554 103.833 166.719 103.832H169.415L170.359 105.464L171.303 103.832H173.999C174.164 103.833 174.328 103.8 174.481 103.738C174.635 103.675 174.774 103.582 174.891 103.466C175.008 103.349 175.102 103.211 175.166 103.058C175.229 102.905 175.262 102.741 175.263 102.576V100.9C175.262 100.565 175.128 100.245 174.891 100.009C174.654 99.7726 174.334 99.64 173.999 99.64Z" stroke="#263238" stroke-width="0.6" stroke-linecap="round" stroke-linejoin="round"/>
<path d="M117.236 90.376H133.816" stroke="#263238" stroke-width="0.6" stroke-miterlimit="10"/>
<path d="M117.236 92.1479H133.816" stroke="#263238" stroke-width="0.6" stroke-miterlimit="10"/>
<path d="M117.236 93.924H133.816" stroke="#263238" stroke-width="0.6" stroke-miterlimit="10"/>
<path d="M117.236 95.696H133.816" stroke="#263238" stroke-width="0.6" stroke-miterlimit="10"/>
<path d="M117.236 97.468H133.816" stroke="#263238" stroke-width="0.6" stroke-miterlimit="10"/>
<path d="M28.2718 118.652C28.0518 118.916 27.8278 119.196 27.5878 119.516C24.6118 123.516 26.1638 131.916 24.3558 135.016C22.5478 138.116 18.0198 137.228 17.1158 142.1C16.2118 146.972 16.7158 152.06 15.9518 154.5C15.1878 156.94 12.2038 158.5 11.6838 161.364C11.1638 164.228 11.0078 166.304 11.0078 166.304L28.2718 165.736V118.652Z" fill="#108E66"/>
<path opacity="0.7" d="M28.2718 118.652C28.0518 118.916 27.8278 119.196 27.5878 119.516C24.6118 123.516 26.1638 131.916 24.3558 135.016C22.5478 138.116 18.0198 137.228 17.1158 142.1C16.2118 146.972 16.7158 152.06 15.9518 154.5C15.1878 156.94 12.2038 158.5 11.6838 161.364C11.1638 164.228 11.0078 166.304 11.0078 166.304L28.2718 165.736V118.652Z" fill="white"/>
<path d="M89.6635 165.916L71.9355 167.964L77.3795 173.004L89.6035 171.944" fill="#263238"/>
<path d="M89.6636 165.916L71.9355 167.964L77.3795 173.004L89.6035 171.944" stroke="#263238" stroke-width="0.6" stroke-linecap="round" stroke-linejoin="round"/>
<path d="M77.7148 168.768L89.0708 167.528" stroke="white" stroke-width="0.6" stroke-linecap="round" stroke-linejoin="round"/>
<path d="M78.6035 170.008L88.8955 169.124" stroke="white" stroke-width="0.6" stroke-linecap="round" stroke-linejoin="round"/>
<path d="M79.668 171.072L89.072 170.184" stroke="white" stroke-width="0.6" stroke-linecap="round" stroke-linejoin="round"/>
<path d="M78.8477 168.04L82.0837 171.568" stroke="white" stroke-width="0.6" stroke-linecap="round" stroke-linejoin="round"/>
<path d="M81.2441 167.924L84.4601 171.248" stroke="white" stroke-width="0.6" stroke-linecap="round" stroke-linejoin="round"/>
<path d="M83.7324 167.568L86.9444 170.892" stroke="white" stroke-width="0.6" stroke-linecap="round" stroke-linejoin="round"/>
<path d="M86.3926 167.392L89.0726 170.184" stroke="white" stroke-width="0.6" stroke-linecap="round" stroke-linejoin="round"/>
<path d="M71.5366 123.94C70.9526 123.692 68.2486 113.168 68.2486 113.168L66.8566 109.2C66.8566 109.2 64.7646 102.06 63.9646 100.732C63.1646 99.404 59.9646 98.332 59.9646 98.332L58.7646 97.672L53.5646 94.872V94.9L52.8166 93.336L43.8646 86.136C43.8646 86.136 44.0246 87.872 44.2646 89.584C44.2406 89.584 42.4006 90.784 41.7446 91.836C41.6206 92.032 41.5126 92.452 41.0166 93.552C39.0166 94.584 31.4846 98.532 28.9926 100.456C26.0686 102.708 25.5366 104.3 25.6686 105.628L25.8046 107.748C25.8046 107.748 27.0526 115.348 28.3526 119.096L28.1926 119.02L28.1486 165.668L65.6006 164.248L65.6606 129.596C66.9406 129.176 68.2726 128.684 69.0766 128.328L69.2766 128.508L70.9646 129.744C71.236 129.948 71.551 130.086 71.8848 130.148C72.2186 130.21 72.5622 130.193 72.8886 130.1C73.6046 129.896 73.1566 129.048 72.6366 128.768C72.2419 128.502 71.8675 128.206 71.5166 127.884L69.9566 125.94C70.8926 126.108 72.3926 126.372 73.0166 126.46C73.9446 126.592 75.1406 126.86 75.2726 125.66C75.4046 124.46 72.4686 124.34 71.5366 123.94Z" fill="white"/>
<path d="M43.9082 86.152C43.9082 86.152 44.4162 91.792 44.7482 92.808C45.0482 93.728 46.5642 98.748 47.8922 101C49.2202 103.252 50.8402 103 51.0922 100.472C51.3442 97.944 51.2162 93.844 51.2162 93.844" stroke="#263238" stroke-width="0.6" stroke-linecap="round" stroke-linejoin="round"/>
<path d="M44.2121 89.7159C44.2121 89.7159 42.4481 90.7919 41.7841 91.8519C41.1201 92.9119 38.3281 102.724 38.3281 102.724L43.6401 102.992L39.1241 104.992" stroke="#263238" stroke-width="0.6" stroke-linecap="round" stroke-linejoin="round"/>
<path d="M39.2598 106.172C39.2598 106.172 43.7758 113.6 44.4398 114.4C44.8477 114.895 45.203 115.431 45.4998 116" stroke="#263238" stroke-width="0.6" stroke-linecap="round" stroke-linejoin="round"/>
<path d="M44.5723 92C44.5723 92 46.8283 101.284 48.1723 106.188C49.5163 111.092 50.8003 117.2 50.8003 117.2" stroke="#263238" stroke-width="0.6" stroke-linecap="round" stroke-linejoin="round"/>
<path d="M51.1992 94.9039C51.1992 94.9039 51.7312 105.644 51.7312 109.888V116.648" stroke="#263238" stroke-width="0.6" stroke-linecap="round" stroke-linejoin="round"/>
<path d="M53.0723 93.84L56.6603 101.136L53.7363 102.064L58.2523 104.58L54.1363 117.444" stroke="#263238" stroke-width="0.6" stroke-linecap="round" stroke-linejoin="round"/>
<path d="M53.6035 94.9039L58.7835 97.6879" stroke="#263238" stroke-width="0.6" stroke-linecap="round" stroke-linejoin="round"/>
<path d="M62.9043 105.776L63.5683 118.24" stroke="#263238" stroke-width="0.6" stroke-linecap="round" stroke-linejoin="round"/>
<path d="M40.9836 93.5759C40.9836 93.5759 31.9516 98.2159 29.0316 100.472C26.1116 102.728 25.5756 104.316 25.7076 105.644" stroke="#263238" stroke-width="0.6" stroke-linecap="round" stroke-linejoin="round"/>
<path d="M28.2324 119.036V165.444" stroke="#263238" stroke-width="0.6" stroke-linecap="round" stroke-linejoin="round"/>
<path d="M51.6113 130.44V163.724" stroke="#263238" stroke-width="0.6" stroke-linecap="round" stroke-linejoin="round"/>
<path d="M31.4766 104.984C31.4766 104.984 34.5246 106.052 35.8766 108.64" stroke="#263238" stroke-width="0.6" stroke-linecap="round" stroke-linejoin="round"/>
<path d="M33.4551 104.832C33.4551 104.832 36.1991 105.9 37.4191 108.488" stroke="#263238" stroke-width="0.6" stroke-linecap="round" stroke-linejoin="round"/>
<path d="M31.627 147.428H41.739V149.412H31.987" stroke="#263238" stroke-width="0.6" stroke-linecap="round" stroke-linejoin="round"/>
<path d="M65.7637 149.312V163.124" stroke="#263238" stroke-width="0.6" stroke-linecap="round" stroke-linejoin="round"/>
<path d="M58.0003 75.144C58.8003 75.012 62.7803 72.492 62.1163 69.972C61.4523 67.452 55.8643 64.4 51.4803 65.864C48.8393 66.7432 46.3998 68.1397 44.3043 69.972C44.3043 69.972 41.3843 69.972 40.3043 71.172C39.2243 72.372 40.0403 74.22 40.7043 75.548C41.2803 76.696 41.2563 79.74 41.2403 80.528C41.2041 80.526 41.168 80.5343 41.1363 80.552C40.914 80.6746 40.7201 80.8428 40.5671 81.0454C40.4141 81.248 40.3055 81.4806 40.2483 81.728C40.0683 82.528 40.4003 83.596 41.2083 84.804C41.4772 85.2575 41.8551 85.6367 42.3078 85.907C42.7605 86.1774 43.2735 86.3303 43.8003 86.352C44.1468 86.7511 44.4289 87.2018 44.6363 87.688C44.9723 88.488 48.3203 93.6239 50.2363 93.7719C50.5123 93.7959 50.7763 93.804 51.0363 93.804C52.6883 93.804 53.8883 93.36 54.5323 92.504C55.3843 91.372 57.4963 86.808 57.7603 84.588C57.8043 84.188 57.8283 83.688 57.8403 83.088C58.1359 82.7137 58.2967 82.2508 58.2967 81.774C58.2967 81.2971 58.1359 80.8342 57.8403 80.46C57.7963 78.112 57.6723 75.68 57.6403 75.12C57.7569 75.1553 57.8801 75.1635 58.0003 75.144Z" fill="white"/>
<path d="M57.4562 75.012C57.4562 75.012 57.8562 82.304 57.5882 84.56C57.3202 86.816 55.1882 91.32 54.3882 92.384C53.5882 93.448 51.9882 93.708 50.2722 93.584C48.5562 93.46 45.2242 88.544 44.8242 87.616C44.6026 87.08 44.2885 86.5872 43.8962 86.16C43.8962 86.16 42.4362 86.292 41.3722 84.7C40.3082 83.108 39.9122 81.5 41.2402 80.72" stroke="#263238" stroke-width="0.6" stroke-linecap="round" stroke-linejoin="round"/>
<path d="M51.7441 82.172C51.7441 82.172 52.6761 80.572 53.6041 81.508L54.2681 85.752L52.2681 86.284L52.5321 88.404" stroke="#263238" stroke-width="0.6" stroke-linecap="round" stroke-linejoin="round"/>
<path d="M49.7518 84.16C50.8519 84.16 51.7438 83.2699 51.7438 82.172C51.7438 81.074 50.8519 80.184 49.7518 80.184C48.6516 80.184 47.7598 81.074 47.7598 82.172C47.7598 83.2699 48.6516 84.16 49.7518 84.16Z" fill="#108E66" fill-opacity="0.5" stroke="#263238" stroke-width="0.6" stroke-linecap="round" stroke-linejoin="round"/>
<path opacity="0.4" d="M49.7518 84.16C50.8519 84.16 51.7438 83.2699 51.7438 82.172C51.7438 81.074 50.8519 80.184 49.7518 80.184C48.6516 80.184 47.7598 81.074 47.7598 82.172C47.7598 83.2699 48.6516 84.16 49.7518 84.16Z" fill="white" stroke="#263238" stroke-width="0.6" stroke-miterlimit="10"/>
<path d="M58.1191 81.776C58.1191 81.3804 58.0018 80.9938 57.7821 80.6649C57.5623 80.336 57.25 80.0796 56.8845 79.9282C56.5191 79.7769 56.1169 79.7373 55.729 79.8144C55.341 79.8916 54.9846 80.0821 54.7049 80.3618C54.4252 80.6415 54.2347 80.9979 54.1576 81.3858C54.0804 81.7738 54.12 82.1759 54.2714 82.5414C54.4228 82.9068 54.6791 83.2192 55.008 83.4389C55.3369 83.6587 55.7236 83.776 56.1191 83.776C56.6496 83.776 57.1583 83.5653 57.5334 83.1902C57.9084 82.8151 58.1191 82.3064 58.1191 81.776Z" fill="#108E66" fill-opacity="0.5" stroke="#263238" stroke-width="0.6" stroke-linecap="round" stroke-linejoin="round"/>
<path opacity="0.4" d="M58.1191 81.776C58.1191 81.3804 58.0018 80.9938 57.7821 80.6649C57.5623 80.336 57.25 80.0796 56.8845 79.9282C56.5191 79.7769 56.1169 79.7373 55.729 79.8144C55.341 79.8916 54.9846 80.0821 54.7049 80.3618C54.4252 80.6415 54.2347 80.9979 54.1576 81.3858C54.0804 81.7738 54.12 82.1759 54.2714 82.5414C54.4228 82.9068 54.6791 83.2192 55.008 83.4389C55.3369 83.6587 55.7236 83.776 56.1191 83.776C56.6496 83.776 57.1583 83.5653 57.5334 83.1902C57.9084 82.8151 58.1191 82.3064 58.1191 81.776Z" fill="white" stroke="#263238" stroke-width="0.6" stroke-miterlimit="10"/>
<path d="M47.7594 82.172L43.7754 82.436" stroke="#263238" stroke-width="0.6" stroke-linecap="round" stroke-linejoin="round"/>
<path d="M47.791 79.4079C47.791 79.4079 48.859 78.3439 50.843 78.9519" stroke="#263238" stroke-width="0.6" stroke-linecap="round" stroke-linejoin="round"/>
<path d="M54.5039 78.8C54.5039 78.8 56.5039 77.736 57.0959 79.104" stroke="#263238" stroke-width="0.6" stroke-linecap="round" stroke-linejoin="round"/>
<path d="M45.3672 75.276C45.3672 75.276 46.4312 77.796 46.6952 78.196C46.9592 78.596 45.3672 80.448 45.3672 80.448V82.304L43.7672 82.436L42.1672 80.98L41.2392 80.712C41.2392 80.712 41.3712 76.868 40.7072 75.544C40.0432 74.22 39.2472 72.344 40.3072 71.168C41.3672 69.992 44.3072 69.968 44.3072 69.968C46.4027 68.1357 48.8421 66.7392 51.4832 65.86C55.8832 64.4 61.4432 67.46 62.1072 69.968C62.7712 72.476 58.7992 75.012 57.9992 75.144C57.1992 75.276 55.9992 73.688 54.7992 73.688H52.9392C51.6112 73.688 51.4792 73.552 50.0152 73.552C48.5512 73.552 45.3672 75.276 45.3672 75.276Z" fill="#263238"/>
<path d="M47.0328 73.1C47.0328 73.1 49.3008 71.844 50.4368 69.704C51.5728 67.564 47.7888 68.572 46.7808 69.956C45.7728 71.34 48.1688 70.836 48.1688 70.836" stroke="white" stroke-width="0.6" stroke-linecap="round" stroke-linejoin="round"/>
<path d="M45.3681 75.276C45.3681 75.276 44.0081 76.748 42.2441 76.876" stroke="white" stroke-width="0.6" stroke-linecap="round" stroke-linejoin="round"/>
<path d="M46.0232 77.1279C46.0232 77.1279 43.6232 78.2599 42.3672 78.2599" stroke="white" stroke-width="0.6" stroke-linecap="round" stroke-linejoin="round"/>
<path d="M42.3672 79.2639C42.3672 79.2639 44.2592 79.6639 45.2672 79.2639" stroke="white" stroke-width="0.6" stroke-linecap="round" stroke-linejoin="round"/>
<path d="M49.0469 73.352C49.0469 73.352 50.0549 73.228 53.3309 72.096C56.6069 70.964 57.7309 69.696 55.5989 68.068" stroke="white" stroke-width="0.6" stroke-linecap="round" stroke-linejoin="round"/>
<path d="M114.888 144.464C114.888 144.464 109.668 130.58 108.328 129.244C106.988 127.908 100.272 123.816 100.272 123.816L99.7317 122.892L99.4037 121.768C99.4037 121.768 99.0037 120.076 97.8517 119.24L97.7597 119.044L89.8397 115.652C89.8397 115.652 89.8957 116.7 89.9797 117.964C89.0437 118.304 86.9677 119.216 86.2557 120.84C85.7917 121.892 85.5277 123.64 85.3957 125.284L85.0717 125.524L85.1917 125.084C85.1917 125.084 76.4237 130 76.0277 130.8C75.5157 131.472 74.1917 135.78 74.1917 135.78C74.1917 135.78 72.8717 139.92 71.4197 144.492C69.3717 150.78 67.3917 157.064 67.2637 158.068C67.2637 158.16 67.2637 158.116 67.2637 158.116C67.1317 159.84 73.7157 166.196 73.7157 166.196H73.8037L74.6037 166.996C74.6037 166.996 74.6037 166.916 74.6037 166.664C75.1597 167.796 76.0677 169.464 76.7877 169.112C77.3797 168.82 77.1877 167.792 76.7077 166.452C77.3037 167.36 77.9877 168.02 78.5317 167.756C79.4717 167.292 79.0037 165.688 78.0597 163.392C77.979 163.196 77.8561 163.02 77.6999 162.877C77.5437 162.734 77.3579 162.627 77.1557 162.564C77.4597 162.532 77.7677 162.5 78.0837 162.46C78.3997 163.928 79.1077 165.2 79.9037 165.032C80.6997 164.864 80.8197 163.832 80.6597 162.076C80.7397 162.076 80.8477 161.84 80.9277 161.828C81.2797 163.064 81.8197 164.164 82.4997 164.02C83.2477 163.86 83.4517 163.116 83.3637 161.62C83.3637 161.064 83.3237 160.884 83.3037 160.532C83.5957 160.712 85.0277 161.576 85.1917 161.7C85.7237 162.1 89.7717 161.236 89.7717 161.236C95.6837 159.324 105.136 159.236 111.24 155.148C115.316 152.4 114.888 144.464 114.888 144.464ZM77.6237 155.82L79.2237 145.292L79.8597 154.892L79.6717 157.26L77.6237 155.82Z" fill="white"/>
<path d="M76.0524 130.572L85.5764 124.972C85.5764 124.972 86.1724 119.868 87.3884 119.348C87.3884 119.348 89.0604 117.888 90.9604 118.176C92.0484 118.336 92.8524 116.976 93.4684 114.608C93.4684 109.924 93.4044 103.944 93.3564 100.208C92.9564 98.3639 92.5244 96.8679 92.3804 96.2839L87.8924 94.3999C87.8924 94.3999 86.9324 91.1599 81.9964 90.4359C77.0604 89.7119 71.7684 95.0039 71.1644 98.6079C70.5604 102.212 74.0524 106.056 72.7284 108.1C71.4044 110.144 65.8684 113.144 64.4244 116.628C62.9804 120.112 63.3404 122.516 63.3404 122.516C63.3404 122.516 67.3124 128.16 66.2284 130.084C65.1444 132.008 58.7684 133.808 58.8884 139.456C59.0004 144.688 64.1804 148.372 69.9204 149.056L76.0524 130.572Z" fill="#263238"/>
<path d="M86.4723 95.3639C86.4723 95.3639 83.0723 91.4679 78.7883 92.7239C74.5043 93.9799 72.8643 98.5119 73.7483 100.776C74.6323 103.04 76.6443 104.924 75.1323 108.32C73.6203 111.716 69.8403 112.22 67.9323 116.12C66.0243 120.02 66.5483 121.28 66.5483 121.28" stroke="white" stroke-width="0.6" stroke-linecap="round" stroke-linejoin="round"/>
<path d="M84.2045 98.636C84.2045 98.636 81.0565 99.012 81.0565 101.036C81.0565 103.06 82.8205 104.052 83.0565 106.568C83.2925 109.084 82.5525 110.092 80.6565 113.236C78.7605 116.38 78.6565 118.016 80.0285 120.156C81.4005 122.296 82.2965 125.816 80.5325 127.072" stroke="white" stroke-width="0.6" stroke-linecap="round" stroke-linejoin="round"/>
<path d="M84.9603 96.1199C84.9603 96.1199 81.1803 94.1199 78.1603 95.9959C75.1403 97.8719 79.1683 101.656 79.6723 105.176C80.1763 108.696 77.6723 111.216 74.2563 114.988C73.2556 116.129 72.5125 117.473 72.0777 118.927C71.6428 120.382 71.5264 121.913 71.7363 123.416" stroke="white" stroke-width="0.6" stroke-linecap="round" stroke-linejoin="round"/>
<path d="M71.48 127.82C71.48 127.82 72.36 129.704 69.964 132.22C67.568 134.736 62.404 135.368 61.164 139.14C59.924 142.912 62.4 144.928 62.4 144.928" stroke="white" stroke-width="0.6" stroke-linecap="round" stroke-linejoin="round"/>
<path d="M89.8672 115.44C89.8672 115.44 90.1312 120.496 90.3992 121.82C90.6672 123.144 91.7352 127.872 92.1392 132.048C92.3345 134.215 92.7364 136.358 93.3392 138.448C93.3392 138.448 96.5752 151.016 96.7672 135.228C96.8352 129.66 96.2352 120.908 96.2352 120.908L96.4992 118.256" fill="white"/>
<mask id="mask4_2783_25972" style="mask-type:luminance" maskUnits="userSpaceOnUse" x="89" y="115" width="8" height="29">
<path d="M89.8672 115.44C89.8672 115.44 90.1312 120.496 90.3992 121.82C90.6672 123.144 91.7352 127.872 92.1392 132.048C92.3345 134.215 92.7364 136.358 93.3392 138.448C93.3392 138.448 96.5752 151.016 96.7672 135.228C96.8352 129.66 96.2352 120.908 96.2352 120.908L96.4992 118.256" fill="white"/>
</mask>
<g mask="url(#mask4_2783_25972)">
<g style="mix-blend-mode:multiply" opacity="0.3">
<path d="M95.2799 118.672L90.3999 121.82L90.0879 116.504C90.0879 116.504 93.3479 118.432 95.2799 118.672Z" fill="#108E66"/>
</g>
<g style="mix-blend-mode:multiply" opacity="0.3">
<path d="M96.2446 120.892C96.2446 120.892 96.0846 129.916 95.6446 133.732C95.4017 136.157 95.6521 138.606 96.3806 140.932C96.3806 140.932 96.9926 126.972 96.2446 120.892Z" fill="#108E66"/>
</g>
</g>
<path d="M89.8672 115.44C89.8672 115.44 90.1312 120.496 90.3992 121.82C90.6672 123.144 91.7352 127.872 92.1392 132.048C92.3345 134.215 92.7364 136.358 93.3392 138.448C93.3392 138.448 96.5752 151.016 96.7672 135.228C96.8352 129.66 96.2352 120.908 96.2352 120.908L96.4992 118.256" stroke="#263238" stroke-width="0.6" stroke-linecap="round" stroke-linejoin="round"/>
<path d="M86.3479 136.624L85.5039 138.432L91.0559 143.852L86.3479 136.624Z" fill="#108E66"/>
<path opacity="0.7" d="M86.3479 136.624L85.5039 138.432L91.0559 143.852L86.3479 136.624Z" fill="white"/>
<path d="M79.8805 140.62C79.8805 140.62 81.7365 136.332 82.3205 137.308C82.9045 138.284 79.1965 142.472 80.6605 143.056C82.1245 143.64 84.2605 141.496 83.5885 143.248C82.9165 145 81.7365 147.048 81.7365 147.928C81.7365 148.808 82.1365 157.476 82.1365 157.476L82.2365 158.06L81.0645 158.86C81.0645 158.86 79.7965 157.592 79.7965 156.52C79.7965 155.448 79.6005 151.16 79.6005 150.188C79.6005 149.216 79.1445 145.788 79.1445 145.788L79.8805 140.62Z" fill="#108E66"/>
<path opacity="0.7" d="M79.8792 140.62C79.8792 140.62 81.7352 136.332 82.3192 137.308C82.9032 138.284 79.1952 142.472 80.6592 143.056C82.1232 143.64 84.2592 141.496 83.5872 143.248C82.9152 145 81.7352 147.048 81.7352 147.928C81.7352 148.808 82.1352 157.476 82.1352 157.476L82.2352 158.06L81.0632 158.86C81.0632 158.86 79.7952 157.592 79.7952 156.52C79.7952 155.448 79.5992 151.16 79.5992 150.188C79.5992 149.216 79.1992 145.548 79.1992 145.548L79.8792 140.62Z" fill="white"/>
<path d="M89.9323 117.932C89.9323 117.932 87.2123 118.504 86.2803 120.628C85.3483 122.752 85.2203 127.656 85.3523 128.98C85.4262 130.045 85.4262 131.115 85.3523 132.18L89.0723 130.98" fill="white"/>
<mask id="mask5_2783_25972" style="mask-type:luminance" maskUnits="userSpaceOnUse" x="85" y="117" width="5" height="16">
<path d="M89.9323 117.932C89.9323 117.932 87.2123 118.504 86.2803 120.628C85.3483 122.752 85.2203 127.656 85.3523 128.98C85.4262 130.045 85.4262 131.115 85.3523 132.18L89.0723 130.98" fill="white"/>
</mask>
<g mask="url(#mask5_2783_25972)">
<g style="mix-blend-mode:multiply" opacity="0.3">
<path d="M90.4433 121.3C89.3228 121.326 88.2447 121.734 87.3873 122.456C85.8153 123.692 85.6513 125.92 85.6513 125.92C85.6513 125.92 85.1553 123.28 86.1473 120.972C87.1393 118.664 89.9313 117.932 89.9313 117.932L90.4433 121.3Z" fill="#108E66"/>
</g>
</g>
<path d="M89.9323 117.932C89.9323 117.932 87.2123 118.504 86.2803 120.628C85.3483 122.752 85.2203 127.656 85.3523 128.98C85.4262 130.045 85.4262 131.115 85.3523 132.18L89.0723 130.98" stroke="#263238" stroke-width="0.6" stroke-linecap="round" stroke-linejoin="round"/>
<path d="M90.0008 131.236L85.8848 135.876C85.8848 135.876 88.9408 140.648 90.4008 142.24" stroke="#263238" stroke-width="0.6" stroke-linecap="round" stroke-linejoin="round"/>
<path d="M100.496 141.576L102.62 133.488L98.8998 130.688L101.824 129.76L99.4238 121.54C99.4238 121.54 98.9798 119.476 97.4238 118.812" stroke="#263238" stroke-width="0.6" stroke-linecap="round" stroke-linejoin="round"/>
<path d="M92 127.256C92 127.256 93.328 128.856 94.8 128.584C96.272 128.312 96.26 127.524 96.26 127.524" stroke="#263238" stroke-width="0.6" stroke-linecap="round" stroke-linejoin="round"/>
<mask id="mask6_2783_25972" style="mask-type:luminance" maskUnits="userSpaceOnUse" x="67" y="124" width="19" height="43">
<path d="M85.2191 124.872C85.2191 124.872 76.4511 129.776 76.0511 130.572C75.6511 131.368 67.4191 156.172 67.2871 157.888C67.1551 159.604 73.7951 166.108 73.7951 166.108" fill="white"/>
</mask>
<g mask="url(#mask6_2783_25972)">
<path d="M79.0032 128.928C79.0032 128.928 76.8552 131.268 76.9512 131.852C77.0472 132.436 79.5872 133.508 79.0032 134.188C78.4192 134.868 76.9512 133.216 76.6592 133.508C76.3672 133.8 70.9992 152.116 71.4872 152.4C71.9752 152.684 73.1472 151.62 73.4392 152.304C73.7312 152.988 68.5592 154.932 69.6312 155.504C70.7032 156.076 73.3392 154.82 72.8312 155.016C72.3232 155.212 70.8792 157.06 71.2712 157.84C71.6632 158.62 75.8432 162.572 75.8432 162.572C75.597 162.673 75.3998 162.866 75.2931 163.11C75.1864 163.354 75.1785 163.63 75.2712 163.88C75.3824 164.383 75.6653 164.831 76.0712 165.148C76.0712 165.148 74.9512 164.224 74.7792 165.224C74.6813 165.745 74.6238 166.274 74.6072 166.804L71.8672 164.092C69.6352 161.82 67.8192 159.692 67.2832 157.864C67.2832 157.864 67.1872 158.132 67.7752 155.988C68.3632 153.844 74.2152 135.528 74.2152 135.528C74.2152 135.528 75.5392 131.216 76.0472 130.548C76.5552 129.88 79.0032 128.928 79.0032 128.928Z" fill="#108E66"/>
<path opacity="0.7" d="M79.0022 128.928C79.0022 128.928 76.8542 131.268 76.9502 131.852C77.0462 132.436 79.5862 133.508 79.0022 134.188C78.4182 134.868 76.9502 133.216 76.6582 133.508C76.3662 133.8 70.9982 152.116 71.4862 152.4C71.9742 152.684 73.1462 151.62 73.4382 152.304C73.7302 152.988 68.5582 154.932 69.6302 155.504C70.7022 156.076 73.3382 154.82 72.8302 155.016C72.3222 155.212 70.8782 157.06 71.2702 157.84C71.6622 158.62 75.8422 162.572 75.8422 162.572C75.596 162.673 75.3988 162.866 75.2922 163.11C75.1855 163.354 75.1776 163.63 75.2702 163.88C75.3815 164.383 75.6643 164.831 76.0702 165.148C76.0702 165.148 74.9502 164.224 74.7782 165.224C74.6062 166.224 74.5182 166.88 74.5182 166.88L71.8662 164.08C69.0982 161.316 67.3862 159.136 67.2822 157.852C67.2822 157.852 66.9582 158.46 67.7742 155.976C68.4662 153.864 74.2142 135.516 74.2142 135.516C74.2142 135.516 75.5382 131.204 76.0462 130.536C76.5542 129.868 79.0022 128.928 79.0022 128.928Z" fill="white"/>
<path d="M83.8105 126.264V133.732L88.5185 132.528L90.0865 130.72L85.2585 131.684L85.5745 124.952L83.8105 126.264Z" fill="#108E66"/>
<path opacity="0.7" d="M83.8105 126.264V133.732L88.5185 132.528L90.0865 130.72L85.2585 131.684L85.5745 124.952L83.8105 126.264Z" fill="white"/>
</g>
<path d="M85.2191 124.872C85.2191 124.872 76.4511 129.776 76.0511 130.572C75.6511 131.368 67.4191 156.172 67.2871 157.888C67.1551 159.604 73.7951 166.108 73.7951 166.108" stroke="#263238" stroke-width="0.6" stroke-linecap="round" stroke-linejoin="round"/>
<path d="M80.3044 137.336L77.6484 155.632" stroke="#263238" stroke-width="0.6" stroke-linecap="round" stroke-linejoin="round"/>
<path d="M80.5684 136.272L80.9684 134.416" stroke="#263238" stroke-width="0.6" stroke-linecap="round" stroke-linejoin="round"/>
<path d="M70.0762 156.696C70.0762 156.696 71.8042 154.296 74.3282 154.44C76.8522 154.584 80.5682 158.152 80.5682 158.152" stroke="#263238" stroke-width="0.6" stroke-linecap="round" stroke-linejoin="round"/>
<path d="M70.8711 153.908C71.4282 153.407 72.1378 153.109 72.8853 153.061C73.6328 153.013 74.3746 153.218 74.9911 153.644" stroke="#263238" stroke-width="0.6" stroke-linecap="round" stroke-linejoin="round"/>
<path d="M83.1995 159.432C83.1706 159.212 83.0902 159.001 82.9648 158.818C82.8395 158.634 82.6727 158.483 82.478 158.376C82.2833 158.269 82.0661 158.209 81.844 158.201C81.6219 158.194 81.4011 158.238 81.1995 158.332C81.0359 158.414 80.8964 158.537 80.7948 158.689C80.6931 158.841 80.6327 159.017 80.6195 159.2C80.4715 160.66 81.3675 164.248 82.5675 164C83.5635 163.776 83.5315 161.888 83.1995 159.432Z" fill="white" stroke="#263238" stroke-width="0.6" stroke-linecap="round" stroke-linejoin="round"/>
<path d="M80.5277 160.492C80.4982 160.272 80.4174 160.062 80.2918 159.879C80.1662 159.696 79.9993 159.545 79.8047 159.438C79.6101 159.332 79.3931 159.272 79.1712 159.265C78.9494 159.258 78.7289 159.302 78.5277 159.396C78.3639 159.477 78.2241 159.599 78.1223 159.751C78.0206 159.902 77.9603 160.078 77.9477 160.26C77.7997 161.72 78.6957 165.308 79.8957 165.06C80.9077 164.836 80.8757 162.952 80.5277 160.492Z" fill="white" stroke="#263238" stroke-width="0.6" stroke-linecap="round" stroke-linejoin="round"/>
<path d="M78.0876 163.164C78.0047 162.956 77.8738 162.771 77.7057 162.623C77.5375 162.475 77.3369 162.37 77.12 162.314C76.9032 162.259 76.6764 162.256 76.4581 162.305C76.2397 162.353 76.036 162.453 75.8636 162.596C75.7243 162.715 75.6189 162.869 75.5578 163.041C75.4967 163.214 75.4821 163.4 75.5156 163.58C75.7316 165.028 77.4916 168.304 78.5836 167.748C79.5236 167.268 79.0036 165.332 78.0876 163.164Z" fill="white" stroke="#263238" stroke-width="0.6" stroke-linecap="round" stroke-linejoin="round"/>
<path d="M76.3686 165.724C76.3074 165.568 76.2101 165.429 76.0846 165.319C75.9592 165.208 75.8093 165.128 75.6471 165.087C75.485 165.046 75.3154 165.043 75.1522 165.08C74.989 165.117 74.837 165.193 74.7086 165.3C74.6053 165.39 74.5268 165.505 74.4806 165.633C74.4343 165.762 74.422 165.901 74.4446 166.036C74.6086 167.12 75.9206 169.552 76.7406 169.148C77.4446 168.8 77.0726 167.444 76.3686 165.724Z" fill="white" stroke="#263238" stroke-width="0.6" stroke-linecap="round" stroke-linejoin="round"/>
<path d="M83.4043 160.4C83.4043 160.4 84.4443 161.524 85.2163 161.764C85.8523 161.96 89.1603 161.364 89.1603 161.364" stroke="#263238" stroke-width="0.6" stroke-linecap="round" stroke-linejoin="round"/>
<path d="M88.1391 163.856C88.1391 163.856 86.0151 164.384 84.5391 164.656C83.0631 164.928 81.4831 165.056 81.4831 165.056C81.4831 165.056 80.419 166.384 79.623 166.384" stroke="#263238" stroke-width="0.6" stroke-linecap="round" stroke-linejoin="round"/>
<path d="M100.301 123.6C100.301 123.6 107.017 127.696 108.357 129.032C109.697 130.368 114.401 142.896 114.401 142.896" stroke="#263238" stroke-width="0.6" stroke-linecap="round" stroke-linejoin="round"/>
<path d="M106.684 132.54L108.188 143.4" stroke="#263238" stroke-width="0.6" stroke-linecap="round" stroke-linejoin="round"/>
<path d="M108.188 142.092L107.252 134.024L111.388 143.136L108.376 143.272L108.188 142.092Z" fill="#108E66"/>
<path opacity="0.7" d="M108.188 142.092L107.252 134.024L111.388 143.136L108.376 143.272L108.188 142.092Z" fill="white"/>
<path d="M82.6117 138.116L80.0117 142.384L82.2157 140.64" stroke="#263238" stroke-width="0.6" stroke-linecap="round" stroke-linejoin="round"/>
<path d="M79.2871 145.808C79.2871 145.808 79.8271 153.736 79.8271 154.816C79.8271 155.896 79.6751 157.32 79.6751 157.32" stroke="#263238" stroke-width="0.6" stroke-linecap="round" stroke-linejoin="round"/>
<path d="M88.2722 93.9759C88.2722 93.9759 84.4202 96.2279 84.1562 99.5439C84.029 101.731 84.2532 103.924 84.8202 106.04C84.8202 106.04 83.6202 104.98 83.4922 107.368C83.3642 109.756 85.3522 111.608 86.1482 111.608H86.9482C86.9482 111.608 88.7202 115.248 90.8482 116.972C92.9762 118.696 95.0522 118.772 96.5122 118.24C97.9722 117.708 100.764 115.324 101.032 112.14C101.3 108.956 101.032 103.652 100.764 100.34C100.496 97.0279 99.8362 94.6359 96.2482 93.4439C92.6602 92.2519 90.1322 93.0439 88.2722 93.9759Z" fill="white"/>
<mask id="mask7_2783_25972" style="mask-type:luminance" maskUnits="userSpaceOnUse" x="83" y="92" width="19" height="27">
<path d="M88.2722 93.9759C88.2722 93.9759 84.4202 96.2279 84.1562 99.5439C84.029 101.731 84.2532 103.924 84.8202 106.04C84.8202 106.04 83.6202 104.98 83.4922 107.368C83.3642 109.756 85.3522 111.608 86.1482 111.608H86.9482C86.9482 111.608 88.7202 115.248 90.8482 116.972C92.9762 118.696 95.0522 118.772 96.5122 118.24C97.9722 117.708 100.764 115.324 101.032 112.14C101.3 108.956 101.032 103.652 100.764 100.34C100.496 97.0279 99.8362 94.6359 96.2482 93.4439C92.6602 92.2519 90.1322 93.0439 88.2722 93.9759Z" fill="white"/>
</mask>
<g mask="url(#mask7_2783_25972)">
<g style="mix-blend-mode:multiply" opacity="0.3">
<path d="M84.8202 106.04C84.8202 106.04 83.6202 104.98 83.4922 107.368C83.3642 109.756 85.3522 111.608 86.1482 111.608H86.9482C86.9482 111.608 88.7202 115.244 90.8482 116.972L91.7602 117.6C92.0709 117.788 92.3959 117.951 92.7322 118.088C92.0162 117.208 90.4602 115.18 89.7282 113.356C88.7602 110.956 88.5282 105.888 88.7602 102.636C88.9922 99.3839 90.6922 98.0559 90.6922 98.0559L88.2922 97.9359C87.9362 97.9359 86.0762 100.704 84.1882 102.292L84.8202 106.04Z" fill="#108E66"/>
</g>
</g>
<path d="M88.2722 93.9759C88.2722 93.9759 84.4202 96.2279 84.1562 99.5439C84.029 101.731 84.2532 103.924 84.8202 106.04C84.8202 106.04 83.6202 104.98 83.4922 107.368C83.3642 109.756 85.3522 111.608 86.1482 111.608H86.9482C86.9482 111.608 88.7202 115.248 90.8482 116.972C92.9762 118.696 95.0522 118.772 96.5122 118.24C97.9722 117.708 100.764 115.324 101.032 112.14C101.3 108.956 101.032 103.652 100.764 100.34C100.496 97.0279 99.8362 94.6359 96.2482 93.4439C92.6602 92.2519 90.1322 93.0439 88.2722 93.9759Z" stroke="#263238" stroke-width="0.6" stroke-linecap="round" stroke-linejoin="round"/>
<path d="M94.4238 106.148C94.4238 106.148 95.5358 104.248 96.6438 105.348L97.4438 109.12L95.8438 109.448L95.9958 111.804" stroke="#263238" stroke-width="0.6" stroke-linecap="round" stroke-linejoin="round"/>
<path d="M92.0479 108.52C93.3601 108.52 94.4239 107.458 94.4239 106.148C94.4239 104.838 93.3601 103.776 92.0479 103.776C90.7356 103.776 89.6719 104.838 89.6719 106.148C89.6719 107.458 90.7356 108.52 92.0479 108.52Z" fill="#108E66" fill-opacity="0.5" stroke="#263238" stroke-width="0.6" stroke-linecap="round" stroke-linejoin="round"/>
<path opacity="0.4" d="M92.0479 108.52C93.3601 108.52 94.4239 107.458 94.4239 106.148C94.4239 104.838 93.3601 103.776 92.0479 103.776C90.7356 103.776 89.6719 104.838 89.6719 106.148C89.6719 107.458 90.7356 108.52 92.0479 108.52Z" fill="white" stroke="#263238" stroke-width="0.6" stroke-miterlimit="10"/>
<path d="M102.035 105.672C102.036 105.202 101.898 104.742 101.638 104.351C101.377 103.959 101.007 103.654 100.574 103.472C100.14 103.291 99.6622 103.242 99.2008 103.332C98.7395 103.422 98.315 103.646 97.981 103.977C97.6469 104.307 97.4183 104.73 97.3239 105.19C97.2295 105.651 97.2735 106.129 97.4505 106.564C97.6274 107 97.9294 107.373 98.3182 107.637C98.707 107.901 99.1654 108.044 99.6354 108.048C99.9494 108.051 100.261 107.992 100.552 107.874C100.843 107.756 101.108 107.582 101.331 107.361C101.554 107.14 101.731 106.877 101.852 106.587C101.973 106.297 102.035 105.986 102.035 105.672Z" fill="#108E66" fill-opacity="0.5" stroke="#263238" stroke-width="0.6" stroke-linecap="round" stroke-linejoin="round"/>
<path opacity="0.4" d="M102.035 105.672C102.036 105.202 101.898 104.742 101.638 104.351C101.377 103.959 101.007 103.654 100.574 103.472C100.14 103.291 99.6622 103.242 99.2008 103.332C98.7395 103.422 98.315 103.646 97.981 103.977C97.6469 104.307 97.4183 104.73 97.3239 105.19C97.2295 105.651 97.2735 106.129 97.4505 106.564C97.6274 107 97.9294 107.373 98.3182 107.637C98.707 107.901 99.1654 108.044 99.6354 108.048C99.9494 108.051 100.261 107.992 100.552 107.874C100.843 107.756 101.108 107.582 101.331 107.361C101.554 107.14 101.731 106.877 101.852 106.587C101.973 106.297 102.035 105.986 102.035 105.672Z" fill="white" stroke="#263238" stroke-width="0.6" stroke-miterlimit="10"/>
<path d="M89.672 106.148L84.916 106.464" stroke="#263238" stroke-width="0.6" stroke-linecap="round" stroke-linejoin="round"/>
<path d="M90.1113 102.976C90.3886 102.635 90.7543 102.377 91.1683 102.229C91.5823 102.082 92.0289 102.051 92.4593 102.14" stroke="#263238" stroke-width="0.6" stroke-linecap="round" stroke-linejoin="round"/>
<path d="M97.5 101.972C97.8922 101.756 98.3454 101.679 98.7871 101.751C99.2287 101.824 99.6333 102.042 99.936 102.372" stroke="#263238" stroke-width="0.6" stroke-linecap="round" stroke-linejoin="round"/>
<path d="M100.76 100.34C100.496 97.0239 99.8317 94.6359 96.2437 93.4439C92.6557 92.2519 90.1317 93.0439 88.2717 93.9759C88.2717 93.9759 84.4197 96.2279 84.1557 99.5439C84.0285 101.731 84.2526 103.924 84.8197 106.04C84.8197 106.04 85.8837 107.1 86.1477 105.64C86.4117 104.18 85.6157 101.792 89.3477 99.0079C93.0797 96.2239 98.3797 97.5519 100.24 100.208C100.457 100.382 100.645 100.59 100.796 100.824C100.8 100.776 100.764 100.4 100.76 100.34Z" fill="#263238"/>
<path d="M42.7119 115.056C42.7119 115.056 39.5119 114.528 37.1119 116.12C36.4286 116.575 35.8901 117.216 35.5604 117.967C35.2307 118.719 35.1237 119.549 35.2519 120.36" stroke="#263238" stroke-width="0.6" stroke-linecap="round" stroke-linejoin="round"/>
<path d="M35.8031 115.324C35.8031 115.324 34.2031 117.18 34.2031 118.772" stroke="#263238" stroke-width="0.6" stroke-linecap="round" stroke-linejoin="round"/>
<path d="M25.8398 107.764C25.8398 107.764 27.4398 117.444 28.8958 120.36C30.3518 123.276 34.4958 126.064 37.6638 127.388C40.8318 128.712 55.7278 130.836 56.2598 130.704C56.7918 130.572 53.7358 127.788 54.3998 124.34C54.7318 122.628 57.0558 120.892 57.0558 120.892C57.0558 120.892 50.5478 118.092 48.0238 117.048C45.4998 116.004 42.7118 115.048 42.7118 115.048C42.7118 115.048 39.1118 111.736 37.3998 110.276C35.8257 109.037 34.1846 107.886 32.4838 106.828" stroke="#263238" stroke-width="0.6" stroke-linecap="round" stroke-linejoin="round"/>
<path d="M69.7637 125.724L71.4997 127.884C71.8505 128.206 72.2249 128.501 72.6197 128.768C73.1397 129.048 73.5877 129.896 72.8717 130.1C72.5453 130.193 72.2017 130.21 71.8678 130.148C71.534 130.086 71.219 129.948 70.9477 129.744L69.2597 128.508L67.8477 127.232L68.8717 125.392L69.7637 125.724Z" fill="white" stroke="#263238" stroke-width="0.6" stroke-linecap="round" stroke-linejoin="round"/>
<path d="M57.0549 120.892C57.0549 120.892 61.1749 121.82 62.5029 122.092C63.8309 122.364 70.6069 123.552 71.5349 123.948C72.4629 124.344 75.3869 124.48 75.2549 125.672C75.1229 126.864 73.9269 126.6 72.9989 126.472C72.0709 126.344 69.1429 125.812 69.1429 125.812C69.1429 125.812 70.0749 127.536 69.8109 127.932C69.5469 128.328 63.5669 130.452 62.3709 130.452C61.1749 130.452 60.3709 128.328 59.8469 127.652L58.2469 125.652L55.0469 124.196" fill="white"/>
<path d="M57.0549 120.892C57.0549 120.892 61.1749 121.82 62.5029 122.092C63.8309 122.364 70.6069 123.552 71.5349 123.948C72.4629 124.344 75.3869 124.48 75.2549 125.672C75.1229 126.864 73.9269 126.6 72.9989 126.472C72.0709 126.344 69.1429 125.812 69.1429 125.812C69.1429 125.812 70.0749 127.536 69.8109 127.932C69.5469 128.328 63.5669 130.452 62.3709 130.452C61.1749 130.452 60.3709 128.328 59.8469 127.652L58.2469 125.652L55.0469 124.196" stroke="#263238" stroke-width="0.6" stroke-linecap="round" stroke-linejoin="round"/>
<path d="M69.1428 125.8L68.2148 124.472" stroke="#263238" stroke-width="0.6" stroke-linecap="round" stroke-linejoin="round"/>
<path d="M56.2598 130.704C56.9546 130.071 57.4959 129.289 57.8425 128.415C58.189 127.542 58.3318 126.601 58.2598 125.664" stroke="#263238" stroke-width="0.6" stroke-linecap="round" stroke-linejoin="round"/>
<path d="M63.3008 127.388L64.3648 129.908" stroke="#263238" stroke-width="0.6" stroke-linecap="round" stroke-linejoin="round"/>
<path d="M65.9551 126.328L67.0191 129.112" stroke="#263238" stroke-width="0.6" stroke-linecap="round" stroke-linejoin="round"/>
<path d="M91.4629 145.688V176.848L133.039 174.464V143.568L91.4629 145.688Z" fill="#263238" stroke="#263238" stroke-width="0.6" stroke-linecap="round" stroke-linejoin="round"/>
<path d="M133.04 143.568L130.912 142.372L89.7363 144.364V174.728L91.4643 176.848V145.688L133.04 143.568Z" fill="white" stroke="#263238" stroke-width="0.6" stroke-linecap="round" stroke-linejoin="round"/>
<path d="M89.7363 144.364L91.4603 145.688" stroke="#263238" stroke-width="0.6" stroke-linecap="round" stroke-linejoin="round"/>
<path d="M108.068 163.856V184.94L119.492 184.144V162.928L108.068 163.856Z" fill="#263238" stroke="#263238" stroke-width="0.6" stroke-linecap="round" stroke-linejoin="round"/>
<path d="M107.711 175.792V163.856L119.491 162.928L119.523 175.052" stroke="white" stroke-width="0.6" stroke-linecap="round" stroke-linejoin="round"/>
<path d="M108.068 184.94L102.088 179.636L108.068 179.368" fill="white"/>
<path d="M108.068 184.94L102.088 179.636L108.068 179.368" stroke="#263238" stroke-width="0.6" stroke-linecap="round" stroke-linejoin="round"/>
<path opacity="0.7" d="M35.6191 165.456L73.3991 169.24C73.3991 169.24 71.9511 168.076 72.5151 167.964C73.5871 167.756 75.1751 167.612 75.1751 167.612L71.8431 164.1L35.6191 165.456Z" fill="#108E66"/>
<path opacity="0.7" d="M35.6191 165.456L73.3991 169.24C73.3991 169.24 71.9511 168.076 72.5151 167.964C73.5871 167.756 75.1751 167.612 75.1751 167.612L71.8431 164.1L35.6191 165.456Z" fill="white"/>
<path d="M71.8721 164.116L12.9121 166.216" stroke="#263238" stroke-width="0.6" stroke-linecap="round" stroke-linejoin="round"/>
<path d="M132.756 162.848L172.5 187.376" stroke="#263238" stroke-width="0.6" stroke-linecap="round" stroke-linejoin="round"/>
<path d="M60.511 169.024L39.707 171.564L53.111 185.64L75.535 182.868L60.511 169.024Z" fill="#108E66"/>
<path opacity="0.7" d="M60.511 169.024L39.707 171.564L53.111 185.64L75.535 182.868L60.511 169.024Z" fill="white"/>
<path d="M39.2441 174.564L57.7361 172.256L71.1441 185.868L49.8761 188.868L39.2441 174.564Z" fill="white"/>
<path d="M50.5126 186.888C50.4808 186.888 50.4502 186.875 50.4277 186.853C50.4052 186.83 50.3926 186.8 50.3926 186.768C50.3926 186.736 50.4052 186.706 50.4277 186.683C50.4502 186.661 50.4808 186.648 50.5126 186.648L67.5206 184.46C67.5521 184.457 67.5834 184.467 67.6085 184.486C67.6336 184.505 67.6508 184.533 67.6566 184.564C67.6588 184.58 67.6578 184.596 67.6535 184.612C67.6492 184.628 67.6418 184.642 67.6317 184.655C67.6216 184.668 67.609 184.678 67.5947 184.686C67.5805 184.694 67.5647 184.699 67.5486 184.7L50.5446 186.888H50.5126Z" fill="#108E66"/>
<path d="M49.5634 185.752C49.5315 185.752 49.501 185.739 49.4785 185.717C49.456 185.694 49.4434 185.664 49.4434 185.632C49.4434 185.6 49.456 185.57 49.4785 185.547C49.501 185.525 49.5315 185.512 49.5634 185.512L66.5714 183.324C66.6032 183.32 66.6354 183.328 66.6609 183.348C66.6864 183.367 66.7031 183.396 66.7074 183.428C66.7116 183.46 66.703 183.492 66.6835 183.517C66.664 183.543 66.6352 183.56 66.6034 183.564L49.5994 185.752H49.5634Z" fill="#108E66"/>
<path d="M48.6207 184.616C48.5909 184.616 48.5621 184.605 48.5399 184.585C48.5177 184.565 48.5037 184.538 48.5007 184.508C48.4973 184.476 48.5061 184.444 48.5255 184.419C48.5449 184.394 48.5732 184.377 48.6047 184.372L65.6007 182.184C65.6326 182.182 65.664 182.193 65.689 182.212C65.714 182.232 65.731 182.261 65.7367 182.292C65.7384 182.308 65.7369 182.324 65.7324 182.339C65.7278 182.354 65.7203 182.368 65.7103 182.381C65.7002 182.393 65.6879 182.403 65.6739 182.41C65.6599 182.418 65.6445 182.422 65.6287 182.424L48.6247 184.616H48.6207Z" fill="#108E66"/>
<path d="M47.6727 183.476C47.6409 183.476 47.6104 183.463 47.5879 183.441C47.5654 183.418 47.5527 183.388 47.5527 183.356C47.5527 183.324 47.5654 183.294 47.5879 183.271C47.6104 183.249 47.6409 183.236 47.6727 183.236L64.6807 181.048C64.7124 181.045 64.7442 181.053 64.7696 181.073C64.7949 181.092 64.8118 181.12 64.8167 181.152C64.819 181.168 64.8181 181.184 64.814 181.199C64.81 181.215 64.8029 181.229 64.7933 181.242C64.7836 181.254 64.7715 181.265 64.7576 181.273C64.7438 181.281 64.7286 181.286 64.7127 181.288L47.7047 183.476H47.6727Z" fill="#108E66"/>
<path d="M46.7286 182.34C46.6994 182.34 46.6711 182.33 46.649 182.311C46.6269 182.292 46.6125 182.265 46.6086 182.236C46.6064 182.22 46.6073 182.204 46.6113 182.189C46.6154 182.173 46.6224 182.159 46.6321 182.146C46.6418 182.134 46.6539 182.123 46.6677 182.115C46.6815 182.107 46.6968 182.102 46.7126 182.1L63.7206 179.912C63.7523 179.909 63.7841 179.917 63.8095 179.937C63.8348 179.956 63.8517 179.985 63.8566 180.016C63.8589 180.032 63.8578 180.048 63.8535 180.064C63.8492 180.08 63.8418 180.094 63.8317 180.107C63.8216 180.12 63.8091 180.13 63.7948 180.138C63.7805 180.146 63.7648 180.151 63.7486 180.152L46.7446 182.34H46.7286Z" fill="#108E66"/>
<path d="M45.7806 181.2C45.7507 181.2 45.7219 181.189 45.6997 181.169C45.6775 181.149 45.6635 181.122 45.6606 181.092C45.658 181.061 45.6673 181.029 45.6865 181.004C45.7057 180.979 45.7335 180.962 45.7646 180.956L62.7726 178.768C62.8049 178.765 62.8372 178.774 62.8626 178.794C62.8881 178.814 62.9046 178.844 62.9086 178.876C62.912 178.907 62.903 178.939 62.8835 178.963C62.8641 178.988 62.8357 179.004 62.8046 179.008L45.7966 181.2H45.7806Z" fill="#108E66"/>
<path d="M44.836 180.064C44.8068 180.064 44.7785 180.054 44.7564 180.035C44.7343 180.015 44.7199 179.989 44.716 179.96C44.7138 179.944 44.7147 179.928 44.7187 179.913C44.7228 179.897 44.7298 179.883 44.7395 179.87C44.7492 179.857 44.7613 179.847 44.7751 179.839C44.789 179.831 44.8042 179.826 44.82 179.824L61.828 177.636C61.8596 177.633 61.8909 177.643 61.916 177.662C61.9411 177.681 61.9582 177.709 61.964 177.74C61.9663 177.756 61.9652 177.772 61.9609 177.788C61.9567 177.804 61.9492 177.818 61.9392 177.831C61.9291 177.844 61.9165 177.854 61.9022 177.862C61.8879 177.87 61.8722 177.874 61.856 177.876L44.852 180.064H44.836Z" fill="#108E66"/>
<path d="M43.8876 178.928C43.8558 178.928 43.8252 178.915 43.8027 178.893C43.7802 178.87 43.7676 178.84 43.7676 178.808C43.7676 178.776 43.7802 178.746 43.8027 178.723C43.8252 178.701 43.8558 178.688 43.8876 178.688L60.8956 176.5C60.9113 176.498 60.9274 176.499 60.9427 176.503C60.9581 176.507 60.9725 176.514 60.9851 176.524C60.9977 176.533 61.0083 176.546 61.0163 176.559C61.0243 176.573 61.0295 176.588 61.0316 176.604C61.0337 176.62 61.0327 176.636 61.0286 176.651C61.0245 176.666 61.0174 176.681 61.0077 176.694C60.9981 176.706 60.986 176.717 60.9723 176.725C60.9585 176.733 60.9433 176.738 60.9276 176.74L43.9196 178.928H43.8876Z" fill="#108E66"/>
<path d="M42.943 177.792C42.9132 177.792 42.8843 177.781 42.8621 177.761C42.8399 177.741 42.826 177.714 42.823 177.684C42.8195 177.652 42.8284 177.62 42.8478 177.595C42.8671 177.57 42.8955 177.553 42.927 177.548L59.935 175.36C59.9671 175.358 59.9989 175.367 60.0241 175.387C60.0493 175.407 60.0661 175.436 60.071 175.468C60.0727 175.484 60.0712 175.5 60.0666 175.515C60.0621 175.53 60.0546 175.544 60.0445 175.557C60.0345 175.569 60.0221 175.579 60.0081 175.586C59.9941 175.594 59.9788 175.598 59.963 175.6L42.959 177.792H42.943Z" fill="#108E66"/>
<path d="M41.9989 176.652C41.9671 176.652 41.9366 176.639 41.9141 176.617C41.8915 176.594 41.8789 176.564 41.8789 176.532C41.8789 176.5 41.8915 176.47 41.9141 176.447C41.9366 176.425 41.9671 176.412 41.9989 176.412L59.0069 174.224C59.0386 174.221 59.0704 174.229 59.0957 174.249C59.1211 174.268 59.138 174.297 59.1429 174.328C59.1452 174.344 59.1442 174.36 59.1402 174.375C59.1362 174.391 59.1291 174.405 59.1194 174.418C59.1097 174.43 59.0976 174.441 59.0838 174.449C59.07 174.457 59.0547 174.462 59.0389 174.464L41.9989 176.652Z" fill="#108E66"/>
<g opacity="0.7">
<path d="M50.5106 186.888C50.4788 186.888 50.4483 186.875 50.4258 186.853C50.4033 186.83 50.3906 186.8 50.3906 186.768C50.3906 186.736 50.4033 186.706 50.4258 186.683C50.4483 186.661 50.4788 186.648 50.5106 186.648L67.5186 184.46C67.5501 184.457 67.5815 184.467 67.6066 184.486C67.6317 184.505 67.6488 184.533 67.6546 184.564C67.6569 184.58 67.6558 184.596 67.6515 184.612C67.6472 184.628 67.6398 184.642 67.6297 184.655C67.6196 184.668 67.6071 184.678 67.5928 184.686C67.5785 184.694 67.5628 184.699 67.5466 184.7L50.5426 186.888H50.5106Z" fill="white"/>
<path d="M49.5634 185.752C49.5315 185.752 49.501 185.739 49.4785 185.717C49.456 185.694 49.4434 185.664 49.4434 185.632C49.4434 185.6 49.456 185.57 49.4785 185.547C49.501 185.525 49.5315 185.512 49.5634 185.512L66.5714 183.324C66.6032 183.32 66.6354 183.328 66.6609 183.348C66.6864 183.367 66.7031 183.396 66.7074 183.428C66.7116 183.46 66.703 183.492 66.6835 183.517C66.664 183.543 66.6352 183.56 66.6034 183.564L49.5994 185.752H49.5634Z" fill="white"/>
<path d="M48.6188 184.616C48.5889 184.616 48.5601 184.605 48.5379 184.585C48.5157 184.565 48.5018 184.538 48.4988 184.508C48.4953 184.476 48.5042 184.444 48.5235 184.419C48.5429 184.394 48.5713 184.377 48.6028 184.372L65.5988 182.184C65.6307 182.182 65.662 182.193 65.687 182.212C65.7121 182.232 65.729 182.261 65.7348 182.292C65.7364 182.308 65.735 182.324 65.7304 182.339C65.7259 182.354 65.7184 182.368 65.7083 182.381C65.6983 182.393 65.6859 182.403 65.6719 182.41C65.6579 182.418 65.6426 182.422 65.6268 182.424L48.6228 184.616H48.6188Z" fill="white"/>
<path d="M47.6708 183.476C47.639 183.476 47.6084 183.463 47.5859 183.441C47.5634 183.418 47.5508 183.388 47.5508 183.356C47.5508 183.324 47.5634 183.294 47.5859 183.271C47.6084 183.249 47.639 183.236 47.6708 183.236L64.6788 181.048C64.7105 181.045 64.7423 181.053 64.7676 181.073C64.7929 181.092 64.8098 181.12 64.8148 181.152C64.817 181.168 64.8161 181.184 64.8121 181.199C64.8081 181.215 64.801 181.229 64.7913 181.242C64.7816 181.254 64.7695 181.265 64.7557 181.273C64.7419 181.281 64.7266 181.286 64.7108 181.288L47.7028 183.476H47.6708Z" fill="white"/>
<path d="M46.7267 182.34C46.6974 182.34 46.6691 182.33 46.647 182.311C46.6249 182.292 46.6106 182.265 46.6067 182.236C46.6044 182.22 46.6053 182.204 46.6094 182.189C46.6134 182.173 46.6205 182.159 46.6301 182.146C46.6398 182.134 46.6519 182.123 46.6658 182.115C46.6796 182.107 46.6949 182.102 46.7107 182.1L63.7187 179.912C63.7504 179.909 63.7822 179.917 63.8075 179.937C63.8328 179.956 63.8497 179.985 63.8547 180.016C63.8569 180.032 63.8558 180.048 63.8516 180.064C63.8473 180.08 63.8399 180.094 63.8298 180.107C63.8197 180.12 63.8071 180.13 63.7928 180.138C63.7785 180.146 63.7628 180.151 63.7467 180.152L46.7427 182.34H46.7267Z" fill="white"/>
<path d="M45.7786 181.2C45.7488 181.2 45.7199 181.189 45.6977 181.169C45.6755 181.149 45.6616 181.122 45.6586 181.092C45.6561 181.061 45.6653 181.029 45.6845 181.004C45.7037 180.979 45.7315 180.962 45.7626 180.956L62.7706 178.768C62.8029 178.765 62.8352 178.774 62.8607 178.794C62.8861 178.814 62.9026 178.844 62.9066 178.876C62.91 178.907 62.901 178.939 62.8816 178.963C62.8621 178.988 62.8338 179.004 62.8026 179.008L45.7946 181.2H45.7786Z" fill="white"/>
<path d="M44.8341 180.064C44.8048 180.064 44.7765 180.054 44.7544 180.035C44.7323 180.016 44.718 179.989 44.7141 179.96C44.7118 179.944 44.7128 179.928 44.7168 179.913C44.7208 179.897 44.7279 179.883 44.7376 179.87C44.7472 179.858 44.7594 179.847 44.7732 179.839C44.787 179.831 44.8023 179.826 44.8181 179.824L61.8261 177.636C61.8576 177.634 61.8889 177.643 61.914 177.662C61.9391 177.681 61.9563 177.709 61.9621 177.74C61.9643 177.756 61.9633 177.772 61.959 177.788C61.9547 177.804 61.9473 177.818 61.9372 177.831C61.9271 177.844 61.9145 177.854 61.9002 177.862C61.886 177.87 61.8703 177.875 61.8541 177.876L44.8501 180.064H44.8341Z" fill="white"/>
<path d="M43.8876 178.928C43.8558 178.928 43.8252 178.915 43.8027 178.893C43.7802 178.87 43.7676 178.84 43.7676 178.808C43.7676 178.776 43.7802 178.746 43.8027 178.723C43.8252 178.701 43.8558 178.688 43.8876 178.688L60.8956 176.5C60.9113 176.498 60.9274 176.499 60.9427 176.503C60.9581 176.507 60.9725 176.514 60.9851 176.524C60.9977 176.533 61.0083 176.546 61.0163 176.559C61.0243 176.573 61.0295 176.588 61.0316 176.604C61.0337 176.62 61.0327 176.636 61.0286 176.651C61.0245 176.666 61.0174 176.681 61.0077 176.694C60.9981 176.706 60.986 176.717 60.9723 176.725C60.9585 176.733 60.9433 176.738 60.9276 176.74L43.9196 178.928H43.8876Z" fill="white"/>
<path d="M42.943 177.792C42.9132 177.792 42.8843 177.781 42.8621 177.761C42.8399 177.741 42.826 177.714 42.823 177.684C42.8195 177.652 42.8284 177.62 42.8478 177.595C42.8671 177.57 42.8955 177.553 42.927 177.548L59.935 175.36C59.9671 175.358 59.9989 175.367 60.0241 175.387C60.0493 175.407 60.0661 175.436 60.071 175.468C60.0727 175.484 60.0712 175.5 60.0666 175.515C60.0621 175.53 60.0546 175.544 60.0445 175.557C60.0345 175.569 60.0221 175.579 60.0081 175.586C59.9941 175.594 59.9788 175.598 59.963 175.6L42.959 177.792H42.943Z" fill="white"/>
<path d="M41.9989 176.652C41.9671 176.652 41.9366 176.639 41.9141 176.617C41.8915 176.594 41.8789 176.564 41.8789 176.532C41.8789 176.5 41.8915 176.47 41.9141 176.447C41.9366 176.425 41.9671 176.412 41.9989 176.412L59.0069 174.224C59.0386 174.221 59.0704 174.229 59.0957 174.249C59.1211 174.268 59.138 174.297 59.1429 174.328C59.1452 174.344 59.1442 174.36 59.1402 174.375C59.1362 174.391 59.1291 174.405 59.1194 174.418C59.1097 174.43 59.0976 174.441 59.0838 174.449C59.07 174.457 59.0547 174.462 59.0389 174.464L41.9989 176.652Z" fill="white"/>
</g>
<path d="M60 98.3479C60 98.3479 63.2 99.4119 64 100.748C64.8 102.084 66.856 109.2 66.856 109.2" stroke="#263238" stroke-width="0.6" stroke-linecap="round" stroke-linejoin="round"/>
</svg>
