<svg width="42" height="42" viewBox="0 0 42 42" fill="none" xmlns="http://www.w3.org/2000/svg">
<rect width="42" height="42" rx="8" fill="#46997F"/>
<g clip-path="url(#clip0_241_2771)">
<path d="M10.6875 30.8438V11.625H10.2188C9.95986 11.625 9.75 11.8349 9.75 12.0938V31.7812C9.75 32.0401 9.95986 32.25 10.2188 32.25H25.2188C25.4776 32.25 25.6875 32.0401 25.6875 31.7812V31.3125H11.1562C10.8974 31.3125 10.6875 31.1026 10.6875 30.8438Z" fill="#FCFFFE"/>
<path d="M25.2188 23.3438H26.1562V24.2812H25.2188V23.3438Z" fill="#FCFFFE"/>
<path d="M27.0938 25.2188H28.0312V26.1562H27.0938V25.2188Z" fill="#FCFFFE"/>
<path d="M25.2188 27.0938H26.1562V28.0312H25.2188V27.0938Z" fill="#FCFFFE"/>
<path d="M27.0938 23.3438H28.0312V24.2812H27.0938V23.3438Z" fill="#FCFFFE"/>
<path d="M25.2188 25.2188H26.1562V26.1562H25.2188V25.2188Z" fill="#FCFFFE"/>
<path d="M27.0938 27.0938H28.0312V28.0312H27.0938V27.0938Z" fill="#FCFFFE"/>
<path d="M25.2188 19.5938H29.9062V20.5312H25.2188V19.5938Z" fill="#FCFFFE"/>
<path d="M28.9688 26.625V28.0312H29.9062V25.2188H28.9688V26.625Z" fill="#FCFFFE"/>
<path d="M28.9688 23.3438H29.9062V24.2812H28.9688V23.3438Z" fill="#FCFFFE"/>
<path d="M31.0078 17.25H24.1172C23.4311 17.25 22.875 17.8061 22.875 18.4922V29.1328C22.875 29.8189 23.4311 30.375 24.1172 30.375H31.0078C31.6939 30.375 32.25 29.8189 32.25 29.1328V18.4922C32.25 17.8061 31.6939 17.25 31.0078 17.25ZM30.8438 28.5C30.8438 28.7588 30.6338 28.9688 30.375 28.9688H28.5H26.625H24.75C24.4911 28.9688 24.2812 28.7588 24.2812 28.5V26.625C24.2812 26.1713 24.2812 23.3317 24.2812 22.875C24.2812 22.6162 24.4911 22.4062 24.75 22.4062H26.625H30.375C30.6338 22.4062 30.8438 22.6162 30.8438 22.875V28.5ZM30.8438 21C30.8438 21.2589 30.6338 21.4688 30.375 21.4688H24.75C24.4911 21.4688 24.2812 21.2589 24.2812 21V19.125C24.2812 18.8661 24.4911 18.6562 24.75 18.6562H30.375C30.6338 18.6562 30.8438 18.8661 30.8438 19.125V21Z" fill="#FCFFFE"/>
<path d="M16.7812 18.1875C18.3321 18.1875 19.5937 16.9258 19.5937 15.375C19.5937 13.9839 18.5784 12.8262 17.25 12.6023V15.375C17.25 15.6339 17.0401 15.8437 16.7812 15.8437H14.0085C14.2325 17.1721 15.3902 18.1875 16.7812 18.1875Z" fill="#FCFFFE"/>
<path d="M16.3125 12.6023C15.1367 12.8005 14.2067 13.7304 14.0085 14.9062H16.3125V12.6023Z" fill="#FCFFFE"/>
<path d="M24.2812 10.0247V13.0314H27.288L24.2812 10.0247Z" fill="#FCFFFE"/>
<path d="M12.0938 30.375H22.3276C22.082 30.0223 21.9375 29.5942 21.9375 29.1328V18.4922C21.9375 17.2903 22.9153 16.3125 24.1172 16.3125H27.5625V13.9688H23.8125C23.5536 13.9688 23.3438 13.7589 23.3438 13.5V9.75H12.0938C11.8349 9.75 11.625 9.95986 11.625 10.2188V29.9062C11.625 30.1651 11.8349 30.375 12.0938 30.375ZM20.0625 26.625H15.8438C15.5849 26.625 15.375 26.4151 15.375 26.1562C15.375 25.8974 15.5849 25.6875 15.8438 25.6875H20.0625C20.3214 25.6875 20.5312 25.8974 20.5312 26.1562C20.5312 26.4151 20.3214 26.625 20.0625 26.625ZM20.0625 24.75H15.8438C15.5849 24.75 15.375 24.5401 15.375 24.2812C15.375 24.0224 15.5849 23.8125 15.8438 23.8125H20.0625C20.3214 23.8125 20.5312 24.0224 20.5312 24.2812C20.5312 24.5401 20.3214 24.75 20.0625 24.75ZM20.0625 22.875H15.8438C15.5849 22.875 15.375 22.6651 15.375 22.4062C15.375 22.1474 15.5849 21.9375 15.8438 21.9375H20.0625C20.3214 21.9375 20.5312 22.1474 20.5312 22.4062C20.5312 22.6651 20.3214 22.875 20.0625 22.875ZM20.0625 21H15.8438C15.5849 21 15.375 20.7901 15.375 20.5312C15.375 20.2724 15.5849 20.0625 15.8438 20.0625H20.0625C20.3214 20.0625 20.5312 20.2724 20.5312 20.5312C20.5312 20.7901 20.3214 21 20.0625 21ZM16.7812 11.625C18.849 11.625 20.5312 13.3073 20.5312 15.375C20.5312 17.4427 18.849 19.125 16.7812 19.125C14.7135 19.125 13.0312 17.4427 13.0312 15.375C13.0312 13.3073 14.7135 11.625 16.7812 11.625ZM13.5 20.0625H13.9688C14.2276 20.0625 14.4375 20.2724 14.4375 20.5312C14.4375 20.7901 14.2276 21 13.9688 21H13.5C13.2411 21 13.0312 20.7901 13.0312 20.5312C13.0312 20.2724 13.2411 20.0625 13.5 20.0625ZM13.5 21.9375H13.9688C14.2276 21.9375 14.4375 22.1474 14.4375 22.4062C14.4375 22.6651 14.2276 22.875 13.9688 22.875H13.5C13.2411 22.875 13.0312 22.6651 13.0312 22.4062C13.0312 22.1474 13.2411 21.9375 13.5 21.9375ZM13.5 23.8125H13.9688C14.2276 23.8125 14.4375 24.0224 14.4375 24.2812C14.4375 24.5401 14.2276 24.75 13.9688 24.75H13.5C13.2411 24.75 13.0312 24.5401 13.0312 24.2812C13.0312 24.0224 13.2411 23.8125 13.5 23.8125ZM13.5 25.6875H13.9688C14.2276 25.6875 14.4375 25.8974 14.4375 26.1562C14.4375 26.4151 14.2276 26.625 13.9688 26.625H13.5C13.2411 26.625 13.0312 26.4151 13.0312 26.1562C13.0312 25.8974 13.2411 25.6875 13.5 25.6875Z" fill="#FCFFFE"/>
</g>
<defs>
<clipPath id="clip0_241_2771">
<rect width="24" height="24" fill="white" transform="translate(9 9)"/>
</clipPath>
</defs>
</svg>
