<svg width="315" height="289" viewBox="0 0 315 289" fill="none" xmlns="http://www.w3.org/2000/svg">
<g clip-path="url(#clip0_2248_24667)">
<path d="M9.06651 148.49C9.06651 148.49 10.7624 201.17 54.7244 236.241C98.6865 271.313 159.593 273.853 208.902 277.187C258.211 280.521 296.054 252.608 301.827 210.443C307.6 168.278 269.859 155.865 249.415 107.826C228.971 59.7868 230.789 44.0046 187.534 14.4608C144.28 -15.083 76.5756 3.02289 41.0999 53.6385C5.6243 104.254 9.06651 148.49 9.06651 148.49Z" fill="#108E66"/>
<path opacity="0.7" d="M9.06651 148.49C9.06651 148.49 10.7624 201.17 54.7244 236.241C98.6865 271.313 159.593 273.853 208.902 277.187C258.211 280.521 296.054 252.608 301.827 210.443C307.6 168.278 269.859 155.865 249.415 107.826C228.971 59.7868 230.789 44.0046 187.534 14.4608C144.28 -15.083 76.5756 3.02289 41.0999 53.6385C5.6243 104.254 9.06651 148.49 9.06651 148.49Z" fill="white"/>
<path d="M223.522 256.057C252.297 256.057 275.624 249.137 275.624 240.6C275.624 232.063 252.297 225.143 223.522 225.143C194.747 225.143 171.42 232.063 171.42 240.6C171.42 249.137 194.747 256.057 223.522 256.057Z" fill="#263238" stroke="#263238" stroke-width="1.193" stroke-linecap="round" stroke-linejoin="round"/>
<path d="M223.522 232.251C248.166 232.251 268.805 237.302 274.225 244.15C275.08 243.16 275.574 241.908 275.625 240.6C275.625 232.056 252.294 225.135 223.522 225.135C194.751 225.135 171.413 232.056 171.413 240.6C171.464 241.908 171.957 243.16 172.813 244.15C178.233 237.331 198.871 232.251 223.522 232.251Z" fill="white" stroke="#263238" stroke-width="1.193" stroke-linecap="round" stroke-linejoin="round"/>
<path d="M216.407 254.116C199.001 253.329 185.867 249.786 185.867 245.456C185.876 244.984 186.024 244.524 186.293 244.136" stroke="white" stroke-width="1.193" stroke-linecap="round" stroke-linejoin="round"/>
<path d="M256.797 241.242C259.777 242.505 261.48 243.948 261.48 245.485C261.48 250.342 244.55 254.275 223.674 254.275H222.771" stroke="white" stroke-width="1.193" stroke-linecap="round" stroke-linejoin="round"/>
<path d="M190.955 241.076C197.5 238.457 209.718 236.689 223.674 236.689C231.616 236.627 239.547 237.277 247.373 238.63" stroke="white" stroke-width="1.193" stroke-linecap="round" stroke-linejoin="round"/>
<path d="M215.91 248.502C211.5 247.889 208.549 246.77 208.549 245.486C208.549 243.544 215.325 241.971 223.703 241.971C232.081 241.971 238.821 243.544 238.821 245.486C238.821 247.153 233.842 248.545 227.16 248.906" stroke="white" stroke-width="1.193" stroke-linecap="round" stroke-linejoin="round"/>
<path d="M14.2705 178.46C36.9948 172.001 84.8105 159.257 111.201 158.297C146.676 157.042 206.572 182.79 243.967 187.3C281.363 191.81 306.49 190.526 306.49 190.526" stroke="#263238" stroke-width="1.193" stroke-linecap="round" stroke-linejoin="round"/>
<path d="M1.62695 182.147C1.62695 182.147 3.58981 181.548 7.03201 180.545" stroke="#263238" stroke-width="1.193" stroke-linecap="round" stroke-linejoin="round"/>
<path d="M296.393 141.974C283.294 139.097 269.893 137.829 256.487 138.2C228.762 139.131 198.756 142.797 161.657 147.581C124.557 152.366 71.7263 125.932 35.8032 135.739C-0.11982 145.546 2.60796 148.498 2.60796 148.498" stroke="#263238" stroke-width="1.193" stroke-linecap="round" stroke-linejoin="round"/>
<path d="M306.613 144.63C306.613 144.63 305.213 144.168 302.68 143.497" stroke="#263238" stroke-width="1.193" stroke-linecap="round" stroke-linejoin="round"/>
<path d="M240.091 76.4708C239.692 74.8489 238.76 73.4076 237.446 72.3773C236.131 71.347 234.509 70.7871 232.838 70.7871C231.168 70.7871 229.546 71.347 228.231 72.3773C226.917 73.4076 225.985 74.8489 225.586 76.4708H240.091Z" stroke="#263238" stroke-width="1.193" stroke-linecap="round" stroke-linejoin="round"/>
<path d="M313.373 76.471C312.935 74.6226 311.938 72.9541 310.517 71.6926C309.097 70.431 307.323 69.6377 305.435 69.4206C306.029 66.2857 305.922 63.0585 305.123 59.9697C304.323 56.8809 302.851 54.007 300.811 51.5537C298.772 49.1003 296.215 47.128 293.324 45.778C290.433 44.4281 287.28 43.7337 284.089 43.7448C278.995 43.745 274.062 45.5372 270.156 48.8078C266.249 52.0783 263.618 56.6187 262.722 61.6341C260.673 60.032 258.215 59.0381 255.628 58.766C253.042 58.4939 250.431 58.9546 248.094 60.0954C245.756 61.2362 243.787 63.0111 242.41 65.2176C241.034 67.4242 240.305 69.9733 240.308 72.5741C240.312 73.8983 240.504 75.2151 240.878 76.4854L313.373 76.471Z" stroke="#263238" stroke-width="1.193" stroke-linecap="round" stroke-linejoin="round"/>
<path d="M111.005 93.8912C110.806 93.0636 110.335 92.3271 109.666 91.8002C108.998 91.2733 108.172 90.9868 107.321 90.9868C106.47 90.9868 105.643 91.2733 104.975 91.8002C104.307 92.3271 103.835 93.0636 103.637 93.8912H111.005Z" stroke="#263238" stroke-width="1.193" stroke-linecap="round" stroke-linejoin="round"/>
<path d="M148.205 93.8914C147.986 92.9479 147.481 92.095 146.759 91.4492C146.037 90.8035 145.133 90.3963 144.171 90.2832C144.518 88.8274 144.565 87.3161 144.309 85.8415C144.053 84.3669 143.499 82.96 142.681 81.7064C141.864 80.4529 140.799 79.3791 139.553 78.5505C138.307 77.7219 136.905 77.1558 135.432 76.8869C133.96 76.6179 132.448 76.6517 130.989 76.9862C129.531 77.3207 128.155 77.9488 126.947 78.8323C125.739 79.7158 124.724 80.8361 123.963 82.125C123.202 83.4138 122.712 84.8441 122.522 86.3286C121.482 85.5159 120.234 85.0117 118.922 84.8736C117.609 84.7355 116.284 84.969 115.098 85.5475C113.911 86.126 112.911 87.0262 112.212 88.1455C111.513 89.2648 111.142 90.5581 111.142 91.878C111.145 92.5521 111.242 93.2225 111.43 93.8698L148.205 93.8914Z" stroke="#263238" stroke-width="1.193" stroke-linecap="round" stroke-linejoin="round"/>
<path d="M144.46 105.539C144.335 105.016 144.038 104.55 143.617 104.217C143.195 103.884 142.673 103.703 142.136 103.703C141.599 103.703 141.077 103.884 140.656 104.217C140.234 104.55 139.937 105.016 139.812 105.539H144.46Z" stroke="#263238" stroke-width="1.193" stroke-linecap="round" stroke-linejoin="round"/>
<path d="M167.941 105.539C167.801 104.946 167.481 104.41 167.025 104.006C166.569 103.602 165.999 103.348 165.394 103.28C165.472 102.859 165.511 102.431 165.509 102.003C165.488 100.281 164.829 98.6291 163.66 97.3655C162.491 96.1018 160.895 95.3165 159.181 95.1612C157.467 95.0059 155.756 95.4918 154.379 96.5248C153.002 97.5579 152.057 99.0647 151.726 100.754C151.069 100.242 150.282 99.9239 149.453 99.8373C148.625 99.7506 147.789 99.8986 147.04 100.264C146.292 100.63 145.661 101.198 145.22 101.905C144.779 102.612 144.545 103.428 144.546 104.261C144.547 104.686 144.607 105.109 144.726 105.517L167.941 105.539Z" stroke="#263238" stroke-width="1.193" stroke-linecap="round" stroke-linejoin="round"/>
<path d="M94.4657 188.671C94.2117 188.675 93.9617 188.607 93.744 188.476C93.4284 188.282 93.1998 187.973 93.1058 187.614C93.0117 187.255 93.0594 186.874 93.2389 186.55C93.5925 185.929 182.816 88.6307 223.639 52.953C223.781 52.8387 223.961 52.7825 224.143 52.7959C224.326 52.8093 224.496 52.8912 224.62 53.0252C224.739 53.1685 224.797 53.3521 224.784 53.5376C224.77 53.7232 224.686 53.8964 224.548 54.0211C183.927 89.5472 96.0244 187.351 95.6708 187.964C95.5506 188.178 95.3757 188.356 95.1639 188.481C94.9521 188.605 94.7112 188.671 94.4657 188.671Z" fill="#263238"/>
<path d="M99.3945 169.31C99.3945 169.31 103.818 164.59 106.474 164.59C109.129 164.59 114.145 169.014 113.849 171.374C113.553 173.733 109.129 171.67 109.129 171.67C109.129 171.67 104.994 177.277 100.867 176.389C96.7389 175.501 99.3945 169.31 99.3945 169.31Z" fill="#108E66" stroke="#263238" stroke-width="1.193" stroke-linecap="round" stroke-linejoin="round"/>
<path d="M109.15 171.655C109.15 171.655 111.857 173.531 112.095 174.852C112.333 176.172 109.093 179.903 105.492 180.74C101.891 181.577 99.9639 179.535 101.046 177.616C102.129 175.696 106.423 171.828 109.15 171.655Z" fill="#108E66" stroke="#263238" stroke-width="1.193" stroke-linecap="round" stroke-linejoin="round"/>
<path d="M220.283 154.559V56.9292C220.283 56.9292 218.312 63.994 218.312 64.5064" stroke="#263238" stroke-width="1.193" stroke-linecap="round" stroke-linejoin="round"/>
<path d="M260.997 159.705H186.135V219.687H260.997V159.705Z" fill="#108E66" stroke="#263238" stroke-width="1.193" stroke-linecap="round" stroke-linejoin="round"/>
<path d="M221.35 159.452V156.017C221.35 155.789 221.26 155.571 221.099 155.41C220.938 155.249 220.719 155.158 220.492 155.158C220.264 155.158 220.045 155.249 219.884 155.41C219.723 155.571 219.633 155.789 219.633 156.017V159.452H221.35Z" fill="#263238"/>
<path d="M228.221 151.096V151.269C228.151 151.138 228.047 151.027 227.92 150.95C227.793 150.872 227.648 150.831 227.499 150.829C227.269 150.829 227.049 150.92 226.887 151.082C226.724 151.245 226.633 151.465 226.633 151.695V160.867C226.633 161.568 226.355 162.24 225.86 162.737C225.365 163.233 224.693 163.513 223.992 163.515C223.629 163.515 223.27 163.439 222.938 163.291C222.747 163.577 222.663 163.921 222.703 164.262C222.743 164.603 222.903 164.919 223.155 165.153C223.431 165.205 223.711 165.232 223.992 165.232C224.565 165.232 225.133 165.12 225.662 164.9C226.192 164.681 226.673 164.359 227.079 163.954C227.484 163.548 227.806 163.067 228.025 162.537C228.245 162.008 228.358 161.44 228.358 160.867V156.616H230.335L228.221 151.096Z" fill="#263238"/>
<path d="M220.355 56.0127C220.355 56.0127 221.885 50.5788 220.528 51.0839C219.172 51.5891 220.355 56.0127 220.355 56.0127Z" stroke="#263238" stroke-width="1.193" stroke-linecap="round" stroke-linejoin="round"/>
<path d="M220.354 56.0125C220.354 56.0125 214.581 53.9703 215.094 55.8393C215.606 57.7083 220.354 56.0125 220.354 56.0125Z" stroke="#263238" stroke-width="1.193" stroke-linecap="round" stroke-linejoin="round"/>
<path d="M95.8655 103.374C95.8655 103.374 88.743 99.3833 74.7721 101.382C60.8012 103.381 58.1384 114.898 60.4187 126.87C62.6991 138.842 75.9123 148.981 77.9112 148.13C79.9101 147.278 77.3411 120.477 81.9019 115.346C86.4626 110.215 101.285 111.074 102.108 107.083C102.93 103.093 95.8655 103.374 95.8655 103.374Z" fill="#263238" stroke="#263238" stroke-width="1.193" stroke-linecap="round" stroke-linejoin="round"/>
<path d="M71.0339 110.482L72.4772 119.914C72.4772 119.914 63.5289 144.341 64.9794 147.733C66.4298 151.125 79.9677 152.322 79.9677 152.322C79.9677 152.322 101.978 154.985 108.508 152.322C115.039 149.66 111.655 141.924 110.926 139.752C110.197 137.579 106.091 120.159 106.091 120.159C106.091 120.159 107.534 116.046 107.534 113.874C107.534 111.702 107.289 105.647 106.322 104.197C105.355 102.746 88.4253 101.05 80.9275 102.263C73.4297 103.475 70.0669 105.409 71.0339 110.482Z" fill="#757575" stroke="#263238" stroke-width="1.193" stroke-linecap="round" stroke-linejoin="round"/>
<path d="M74.909 121.371C74.909 121.371 74.6637 142.407 75.876 146.52C77.0884 150.634 81.9233 155.469 92.0768 154.256C102.23 153.044 103.204 143.374 103.204 143.374L102.483 120.888L74.909 121.371Z" fill="white" stroke="#263238" stroke-width="1.193" stroke-linecap="round" stroke-linejoin="round"/>
<path d="M92.3216 136.482C92.323 136.842 92.2176 137.194 92.0186 137.494C91.8197 137.794 91.5362 138.029 91.204 138.167C90.8719 138.306 90.506 138.343 90.1527 138.274C89.7995 138.205 89.4748 138.032 89.2198 137.778C88.9647 137.524 88.7908 137.2 88.72 136.847C88.6493 136.494 88.6849 136.128 88.8223 135.795C88.9597 135.462 89.1928 135.178 89.492 134.978C89.7912 134.778 90.1431 134.671 90.5031 134.671C90.7416 134.67 90.9779 134.716 91.1985 134.807C91.419 134.897 91.6196 135.031 91.7885 135.199C91.9575 135.367 92.0916 135.567 92.183 135.787C92.2745 136.008 92.3216 136.244 92.3216 136.482Z" stroke="#263238" stroke-width="1.193" stroke-miterlimit="10"/>
<path d="M92.077 144.103C92.077 144.343 92.0057 144.578 91.8722 144.777C91.7387 144.977 91.5489 145.132 91.327 145.224C91.105 145.315 90.8609 145.339 90.6255 145.291C90.3901 145.244 90.1741 145.128 90.0049 144.958C89.8356 144.787 89.7207 144.571 89.6748 144.335C89.6288 144.099 89.6538 143.855 89.7467 143.634C89.8396 143.413 89.9961 143.224 90.1964 143.091C90.3967 142.959 90.6318 142.889 90.8719 142.891C91.0308 142.891 91.1881 142.922 91.3348 142.983C91.4815 143.044 91.6146 143.133 91.7266 143.246C91.8386 143.359 91.9272 143.493 91.9874 143.64C92.0475 143.787 92.078 143.944 92.077 144.103Z" fill="#263238"/>
<path d="M84.7734 128.725C85.5456 129.562 85.8126 130.565 85.3796 130.976C84.9466 131.387 83.9363 131.041 83.1786 130.211C82.4209 129.381 82.1322 128.378 82.5724 127.967C83.0126 127.556 84.0013 127.895 84.7734 128.725Z" fill="#263238"/>
<path d="M94.5957 128.725C93.8236 129.562 93.5493 130.565 93.9895 130.976C94.4297 131.387 95.4328 131.041 96.1545 130.211C96.8761 129.381 97.2008 128.378 96.7606 127.967C96.3204 127.556 95.3679 127.895 94.5957 128.725Z" fill="#263238"/>
<path d="M79.6064 125.874C80.1481 125.075 80.9267 124.465 81.8328 124.131C82.739 123.797 83.727 123.756 84.6579 124.012" stroke="#263238" stroke-width="1.193" stroke-linecap="round" stroke-linejoin="round"/>
<path d="M94.2129 124.279C94.2129 124.279 97.6623 123.219 98.7303 126.141" stroke="#263238" stroke-width="1.193" stroke-linecap="round" stroke-linejoin="round"/>
<path d="M105.86 259.24C105.86 259.24 109.663 256.96 111.77 256.065C111.968 255.974 112.17 255.895 112.377 255.827C114.238 255.206 119.514 255.517 124.471 252.413C129.429 249.31 126.954 245.587 123.23 244.656C119.506 243.725 115.48 242.491 115.48 242.491L114.549 227.907C114.549 227.907 103.378 231.01 99.6541 232.561C95.9305 234.113 98.1026 256.137 98.4129 257.999C98.7232 259.861 98.7232 261.102 105.86 259.24Z" fill="#263238" stroke="#263238" stroke-width="1.193" stroke-linecap="round" stroke-linejoin="round"/>
<path d="M118.272 252.413C111.778 253.654 111.778 254.896 104.619 256.137C102.522 256.555 100.384 256.73 98.2471 256.656C98.3192 257.32 98.377 257.789 98.413 257.999C98.7233 259.861 98.7234 261.102 105.86 259.24C105.86 259.24 109.663 256.96 111.771 256.065C111.968 255.974 112.17 255.895 112.377 255.827C114.239 255.206 119.514 255.516 124.471 252.413C126.066 251.425 126.882 250.364 127.149 249.354C124.331 250.744 121.349 251.772 118.272 252.413Z" fill="white" stroke="#263238" stroke-width="1.193" stroke-linecap="round" stroke-linejoin="round"/>
<path d="M120.855 244.468C120.855 244.468 120.617 261.398 120.134 265.02C119.65 268.643 120.372 273.247 125.907 273.247C131.442 273.247 142.353 269.639 146.221 268.917C150.089 268.196 156.381 266.492 159.037 260.452C161.693 254.412 145.499 255.127 145.499 255.127L146.466 242.794C146.466 242.794 129.803 246.157 120.855 244.468Z" fill="#263238" stroke="#263238" stroke-width="1.193" stroke-linecap="round" stroke-linejoin="round"/>
<path d="M159.066 260.431C159.362 259.844 159.434 259.169 159.268 258.533C157.61 260.783 155.363 262.532 152.773 263.584C147 266.002 136.082 268.636 127.862 269.877C124.103 270.425 121.721 269.812 120.228 268.989C120.762 271.335 122.327 273.261 125.928 273.261C131.492 273.261 142.375 269.653 146.243 268.931C150.11 268.21 156.41 266.471 159.066 260.431Z" fill="white" stroke="#263238" stroke-width="1.193" stroke-linecap="round" stroke-linejoin="round"/>
<path d="M145.528 255.105C145.528 255.105 146.733 259.218 143.363 261.881" stroke="white" stroke-width="1.193" stroke-linecap="round" stroke-linejoin="round"/>
<path d="M119.167 235.52C119.167 235.52 118.792 242.873 119.203 244.345C120.748 249.931 121.238 248.625 132.85 248.379C144.461 248.134 149.151 243.501 150.364 240.6C151.576 237.699 150.364 231.406 149.88 229.227C149.397 227.048 145.55 226.341 144.071 226.571C142.592 226.802 119.889 233.102 119.167 235.52Z" fill="#757575" stroke="#263238" stroke-width="1.193" stroke-linecap="round" stroke-linejoin="round"/>
<path d="M39.3535 253.9V270.151C39.3589 270.787 39.5378 271.41 39.871 271.951C40.2042 272.493 40.679 272.934 41.2442 273.225L67.3674 286.713C67.8322 286.955 68.3457 287.088 68.8693 287.103C69.393 287.118 69.9132 287.014 70.3911 286.799L108.876 272.129C109.49 271.853 110.011 271.407 110.378 270.842C110.744 270.277 110.939 269.619 110.94 268.946V249.303L66.92 262.603L39.3535 253.9Z" fill="#108E66"/>
<mask id="mask0_2248_24667" style="mask-type:luminance" maskUnits="userSpaceOnUse" x="39" y="249" width="72" height="39">
<path d="M39.3535 253.9V270.151C39.3589 270.787 39.5378 271.41 39.871 271.951C40.2042 272.493 40.679 272.934 41.2442 273.225L67.3674 286.713C67.8322 286.955 68.3457 287.088 68.8693 287.103C69.393 287.118 69.9132 287.014 70.3911 286.799L108.876 272.129C109.49 271.853 110.011 271.407 110.378 270.842C110.744 270.277 110.939 269.619 110.94 268.946V249.303L66.92 262.603L39.3535 253.9Z" fill="white"/>
</mask>
<g mask="url(#mask0_2248_24667)">
<path opacity="0.18" d="M68.8612 262.018L66.9272 262.603L39.3535 253.9V270.151C39.3589 270.787 39.5378 271.41 39.871 271.951C40.2042 272.493 40.679 272.934 41.2442 273.225L67.3674 286.713C67.8294 286.954 68.3402 287.088 68.8612 287.102V262.018Z" fill="black"/>
</g>
<path d="M39.3535 253.9V270.151C39.3589 270.787 39.5378 271.41 39.871 271.952C40.2042 272.493 40.679 272.934 41.2442 273.225L67.3674 286.713C67.8322 286.955 68.3457 287.088 68.8693 287.103C69.393 287.118 69.9132 287.014 70.3911 286.799L108.876 272.129C109.49 271.853 110.011 271.407 110.378 270.842C110.744 270.277 110.939 269.619 110.94 268.946V249.303L66.92 262.603L39.3535 253.9Z" stroke="#263238" stroke-width="1.193" stroke-linecap="round" stroke-linejoin="round"/>
<path d="M79.5635 226.463L37.3478 240.03C37.0179 240.136 36.7302 240.344 36.5265 240.624C36.3228 240.905 36.2136 241.242 36.2149 241.589V253.626C36.2212 253.929 36.3116 254.224 36.476 254.479C36.6404 254.734 36.8722 254.938 37.1458 255.069L66.5741 269.076C66.7723 269.171 66.9874 269.225 67.2069 269.235C67.4263 269.245 67.6455 269.21 67.8514 269.134L112.037 252.601C112.35 252.485 112.619 252.276 112.81 252.003C113.001 251.73 113.104 251.405 113.105 251.071L113.185 239.778C113.182 239.404 113.053 239.042 112.819 238.751C112.584 238.46 112.258 238.257 111.893 238.176L80.4007 226.42C80.1224 226.365 79.8346 226.379 79.5635 226.463Z" fill="white"/>
<mask id="mask1_2248_24667" style="mask-type:luminance" maskUnits="userSpaceOnUse" x="36" y="226" width="78" height="44">
<path d="M79.5635 226.463L37.3478 240.03C37.0179 240.136 36.7302 240.344 36.5265 240.624C36.3228 240.905 36.2136 241.242 36.2149 241.589V253.626C36.2212 253.929 36.3116 254.224 36.476 254.479C36.6404 254.734 36.8722 254.938 37.1458 255.069L66.5741 269.076C66.7723 269.171 66.9874 269.225 67.2069 269.235C67.4263 269.245 67.6455 269.21 67.8514 269.134L112.037 252.601C112.35 252.485 112.619 252.276 112.81 252.003C113.001 251.73 113.104 251.405 113.105 251.071L113.185 239.778C113.182 239.404 113.053 239.042 112.819 238.751C112.584 238.46 112.258 238.257 111.893 238.176L80.4007 226.42C80.1224 226.365 79.8346 226.379 79.5635 226.463Z" fill="white"/>
</mask>
<g mask="url(#mask1_2248_24667)">
<path d="M66.5234 269.069C66.7216 269.164 66.9368 269.218 67.1562 269.228C67.3756 269.238 67.5948 269.203 67.8007 269.127L112.037 252.601C112.35 252.485 112.619 252.277 112.81 252.003C113.001 251.73 113.104 251.405 113.105 251.071L113.184 239.778C113.186 239.393 113.047 239.022 112.795 238.731L67.1513 255.589L66.5234 269.069Z" fill="#108E66"/>
<path opacity="0.5" d="M66.5234 269.069C66.7216 269.164 66.9368 269.218 67.1562 269.228C67.3756 269.238 67.5948 269.203 67.8007 269.127L112.037 252.601C112.35 252.485 112.619 252.277 112.81 252.003C113.001 251.73 113.104 251.405 113.105 251.071L113.184 239.778C113.186 239.393 113.047 239.022 112.795 238.731L67.1513 255.589L66.5234 269.069Z" fill="white"/>
<path d="M36.2148 241.553V253.59C36.2212 253.893 36.3116 254.188 36.476 254.443C36.6404 254.698 36.8722 254.902 37.1458 255.033L66.5741 269.076C66.7705 269.171 66.9841 269.225 67.2019 269.235V255.589L36.2654 241.271C36.2374 241.363 36.2205 241.457 36.2148 241.553Z" fill="#108E66"/>
</g>
<path d="M79.5636 226.463L37.3478 240.03C37.0179 240.136 36.7302 240.344 36.5265 240.624C36.3228 240.905 36.2136 241.242 36.2149 241.589V253.626C36.2212 253.929 36.3116 254.224 36.476 254.479C36.6404 254.734 36.8722 254.938 37.1458 255.069L66.5741 269.076C66.7723 269.171 66.9874 269.225 67.2069 269.235C67.4263 269.245 67.6455 269.21 67.8514 269.134L112.037 252.601C112.35 252.485 112.619 252.276 112.81 252.003C113.001 251.73 113.104 251.405 113.105 251.071L113.185 239.778C113.182 239.404 113.053 239.042 112.819 238.751C112.584 238.46 112.258 238.257 111.893 238.176L80.4007 226.42C80.1224 226.365 79.8346 226.379 79.5636 226.463Z" stroke="#263238" stroke-width="1.193" stroke-linecap="round" stroke-linejoin="round"/>
<path d="M137.547 204.323C137.547 204.323 143.103 206.979 146.012 212.305C148.92 217.63 146.733 227.777 145.037 230.923C143.341 234.069 131.983 235.52 128.115 235.52C124.247 235.52 123.518 235.036 123.518 235.036C123.518 235.036 111.185 237.454 103.442 238.904C95.6991 240.355 97.6691 222.22 100.058 213.993C102.446 205.767 116.02 201.661 121.584 201.661C127.148 201.661 137.547 204.323 137.547 204.323Z" fill="#263238" stroke="#263238" stroke-width="1.193" stroke-linecap="round" stroke-linejoin="round"/>
<path d="M123.519 235.036C123.519 235.036 133.917 231.428 138.269 222.22" stroke="white" stroke-width="1.193" stroke-linecap="round" stroke-linejoin="round"/>
<path d="M133.434 229.711C136.785 228.305 139.826 226.253 142.382 223.67" stroke="white" stroke-width="1.193" stroke-linecap="round" stroke-linejoin="round"/>
<path d="M109.006 212.305C109.006 212.305 111.893 227.539 110.45 233.824C109.006 240.11 100.534 241.084 98.6003 240.355C96.6664 239.626 97.6333 224.638 97.6333 217.14C97.6333 209.642 105.138 210.126 109.006 212.305Z" fill="#757575" stroke="#263238" stroke-width="1.193" stroke-linecap="round" stroke-linejoin="round"/>
<path d="M47.3349 171.669C47.3349 171.669 45.6462 181.577 46.8514 186.427C47.4653 189.128 48.6163 191.678 50.2358 193.925C50.2358 193.925 44.1885 202.873 45.4009 210.364C46.6132 217.854 49.7307 218.828 49.7307 218.828C49.7307 218.828 47.0751 232.619 51.8956 237.454C56.7161 242.289 67.3747 247.607 79.224 245.435C91.0732 243.263 99.0545 242.772 101.472 238.659C103.89 234.546 102.439 216.411 102.439 216.411C102.439 216.411 101.956 196.342 101.472 184.002C100.989 171.662 99.3071 161.754 93.4907 156.919C87.6743 152.084 62.049 159.582 54.3131 164.655C46.5771 169.728 47.3349 171.669 47.3349 171.669Z" fill="#108E66"/>
<mask id="mask2_2248_24667" style="mask-type:luminance" maskUnits="userSpaceOnUse" x="45" y="155" width="58" height="91">
<path d="M47.3349 171.669C47.3349 171.669 45.6462 181.577 46.8514 186.427C47.4653 189.128 48.6163 191.678 50.2358 193.925C50.2358 193.925 44.1885 202.873 45.4009 210.364C46.6132 217.854 49.7307 218.828 49.7307 218.828C49.7307 218.828 47.0751 232.619 51.8956 237.454C56.7161 242.289 67.3747 247.607 79.224 245.435C91.0732 243.263 99.0545 242.772 101.472 238.659C103.89 234.546 102.439 216.411 102.439 216.411C102.439 216.411 101.956 196.342 101.472 184.002C100.989 171.662 99.3071 161.754 93.4907 156.919C87.6743 152.084 62.049 159.582 54.3131 164.655C46.5771 169.728 47.3349 171.669 47.3349 171.669Z" fill="white"/>
</mask>
<g mask="url(#mask2_2248_24667)">
<path opacity="0.3" d="M49.0595 171.669C49.0595 171.669 47.3636 181.585 48.576 186.427C49.1864 189.129 50.3377 191.679 51.9605 193.925C51.9605 193.925 45.9131 202.873 47.1255 210.364C48.3378 217.854 51.4553 218.828 51.4553 218.828C51.4553 218.828 48.7925 232.619 53.6202 237.454C58.448 242.289 69.1282 247.607 81.0063 245.435C92.8844 243.263 100.844 242.772 103.262 238.659C105.679 234.546 104.229 216.411 104.229 216.411C104.229 216.411 103.745 196.342 103.262 184.002C102.778 171.662 101.097 161.754 95.2803 156.919C89.4639 152.084 63.8386 159.582 56.1026 164.655C48.3667 169.728 49.0595 171.669 49.0595 171.669Z" fill="black"/>
</g>
<path d="M47.3349 171.669C47.3349 171.669 45.6462 181.577 46.8514 186.427C47.4653 189.128 48.6163 191.678 50.2358 193.925C50.2358 193.925 44.1885 202.873 45.4009 210.364C46.6132 217.854 49.7307 218.828 49.7307 218.828C49.7307 218.828 47.0751 232.619 51.8956 237.454C56.7161 242.289 67.3747 247.607 79.224 245.435C91.0732 243.263 99.0545 242.772 101.472 238.659C103.89 234.546 102.439 216.411 102.439 216.411C102.439 216.411 101.956 196.342 101.472 184.002C100.989 171.662 99.3071 161.754 93.4907 156.919C87.6743 152.084 62.049 159.582 54.3131 164.655C46.5771 169.728 47.3349 171.669 47.3349 171.669Z" stroke="#263238" stroke-width="1.193" stroke-linecap="round" stroke-linejoin="round"/>
<path d="M50.2363 193.925C53.9804 196.479 58.2639 198.133 62.7528 198.759C67.2416 199.385 71.8143 198.965 76.1142 197.533" stroke="#263238" stroke-width="1.193" stroke-linecap="round" stroke-linejoin="round"/>
<path d="M49.7529 218.828C49.7529 218.828 62.0857 230.923 82.407 219.312" stroke="#263238" stroke-width="1.193" stroke-linecap="round" stroke-linejoin="round"/>
<path d="M97.8784 159.82C97.8784 159.82 93.2888 152.806 86.9961 148.938C80.7034 145.07 64.5099 142.169 57.9791 140.956C51.4483 139.744 44.434 140.235 42.5 147.451C40.566 154.667 40.8041 166.798 42.7381 172.117C44.6721 177.435 52.6534 180.581 58.9461 176.959C65.2387 173.336 82.6446 159.3 88.6919 158.579C94.7392 157.857 97.3949 162.483 97.8784 159.82Z" fill="#757575"/>
<mask id="mask3_2248_24667" style="mask-type:luminance" maskUnits="userSpaceOnUse" x="41" y="140" width="57" height="39">
<path d="M97.8784 159.82C97.8784 159.82 93.2888 152.806 86.9961 148.938C80.7034 145.07 64.5099 142.169 57.9791 140.956C51.4483 139.744 44.434 140.235 42.5 147.451C40.566 154.667 40.8041 166.798 42.7381 172.117C44.6721 177.435 52.6534 180.581 58.9461 176.959C65.2387 173.336 82.6446 159.3 88.6919 158.579C94.7392 157.857 97.3949 162.483 97.8784 159.82Z" fill="white"/>
</mask>
<g mask="url(#mask3_2248_24667)">
<path opacity="0.3" d="M84.4631 158.485C88.1507 156.948 78.9282 159.712 78.3148 158.788C77.7014 157.864 84.7662 153.26 86.3033 152.647C87.8404 152.033 77.3911 154.184 77.7014 152.647C78.0117 151.11 87.8404 150.799 81.0787 149.262C74.3169 147.725 52.2132 143.727 47.8834 142.19C47.5522 142.083 47.2386 141.927 46.9525 141.729C45.8329 142.306 44.8537 143.122 44.0844 144.12C43.315 145.118 42.7741 146.272 42.5 147.502C40.566 154.754 40.8041 166.849 42.7381 172.167C44.4268 176.8 50.6761 179.78 56.4492 178.085C59.1121 175.92 61.5728 173.076 65.7367 170.457C74.0138 165.218 80.7756 159.993 84.4631 158.485Z" fill="black"/>
</g>
<path d="M97.8784 159.82C97.8784 159.82 93.2888 152.806 86.9961 148.938C80.7034 145.07 64.5099 142.169 57.9791 140.956C51.4483 139.744 44.434 140.235 42.5 147.451C40.566 154.667 40.8041 166.798 42.7381 172.117C44.6721 177.435 52.6534 180.581 58.9461 176.959C65.2387 173.336 82.6446 159.3 88.6919 158.579C94.7392 157.857 97.3949 162.483 97.8784 159.82Z" stroke="#263238" stroke-width="1.193" stroke-linecap="round" stroke-linejoin="round"/>
<path d="M124.002 192.712C124.002 192.712 129.565 193.434 133.188 194.877C136.811 196.321 139.235 205.276 137.785 206.481C136.334 207.686 133.455 206.243 133.455 206.243C131.18 207.043 128.83 207.609 126.441 207.932C123.518 208.191 120.372 194.408 124.002 192.712Z" fill="#108E66" stroke="#263238" stroke-width="1.193" stroke-linecap="round" stroke-linejoin="round"/>
<path d="M105.622 191.984C105.622 191.984 106.589 191.984 111.907 189.566C117.226 187.149 121.585 187.149 124.969 192.453C128.354 197.757 129.804 204.309 127.856 208.177C125.907 212.045 118.669 214.708 114.794 214.708C110.919 214.708 110.464 209.657 110.464 209.657C110.464 209.657 109.981 201.675 107.578 198.774C105.175 195.873 104.655 192.713 105.622 191.984Z" fill="#757575" stroke="#263238" stroke-width="1.193" stroke-linecap="round" stroke-linejoin="round"/>
<path d="M87.7256 159.82C93.0441 157.886 99.8202 159.098 102.238 165.867C104.655 172.636 106.827 192.467 106.827 192.467C106.827 192.467 112.875 193.188 115.292 195.858C117.71 198.529 118.9 205.29 118.438 208.675C117.977 212.059 109.49 218.345 99.8202 218.59C90.1503 218.835 83.1288 214.26 79.7443 201.899C76.3598 189.537 77.7021 170.753 77.7021 170.753C77.7021 170.753 78.9288 165.218 80.7762 163.984" fill="#108E66"/>
<mask id="mask4_2248_24667" style="mask-type:luminance" maskUnits="userSpaceOnUse" x="77" y="158" width="42" height="61">
<path d="M87.7256 159.82C93.0441 157.886 99.8202 159.098 102.238 165.867C104.655 172.636 106.827 192.467 106.827 192.467C106.827 192.467 112.875 193.188 115.292 195.858C117.71 198.529 118.9 205.29 118.438 208.675C117.977 212.059 109.49 218.345 99.8202 218.59C90.1503 218.835 83.1288 214.26 79.7443 201.899C76.3598 189.537 77.7021 170.753 77.7021 170.753C77.7021 170.753 78.9288 165.218 80.7762 163.984" fill="white"/>
</mask>
<g mask="url(#mask4_2248_24667)">
<path opacity="0.3" d="M118.439 208.675C118.922 205.29 117.717 198.514 115.292 195.858C115.199 195.75 115.083 195.649 114.982 195.548C115.272 197.721 115.445 199.909 115.502 202.101C115.985 216.295 96.1474 213.921 92.1495 203.638C89.9846 198.103 89.3784 173.82 82.927 171.979C79.2034 170.919 77.9333 173.834 77.5292 176.497C77.3993 183.461 77.6302 194.191 79.7446 201.898C83.1291 214.238 90.1434 218.828 99.8205 218.59C109.498 218.352 117.955 212.059 118.439 208.675Z" fill="black"/>
</g>
<path d="M87.7256 159.82C93.0441 157.886 99.8202 159.098 102.238 165.867C104.655 172.636 106.827 192.467 106.827 192.467C106.827 192.467 112.875 193.188 115.292 195.858C117.71 198.529 118.9 205.29 118.438 208.675C117.977 212.059 109.49 218.345 99.8202 218.59C90.1503 218.835 83.1288 214.26 79.7443 201.899C76.3598 189.537 77.7021 170.753 77.7021 170.753C77.7021 170.753 78.9288 165.218 80.7762 163.984" stroke="#263238" stroke-width="1.193" stroke-linecap="round" stroke-linejoin="round"/>
<path d="M106.827 192.467C106.827 192.467 108.718 201.278 99.0049 206.113" stroke="#263238" stroke-width="1.193" stroke-linecap="round" stroke-linejoin="round"/>
<path d="M58.708 38.8737C58.708 36.8675 59.6317 35.3882 61.7172 35.3882C63.8028 35.3882 64.7698 36.8315 64.7698 38.8737V45.9096C64.7698 47.9158 63.8388 49.3951 61.7172 49.3951C59.5956 49.3951 58.708 47.9519 58.708 45.9096V38.8737ZM59.6101 45.9746C59.6101 47.4756 60.2018 48.5725 61.7172 48.5725C63.2327 48.5725 63.8821 47.4756 63.8821 45.9746V38.816C63.8821 37.3222 63.276 36.2181 61.7172 36.2181C60.1585 36.2181 59.6101 37.3222 59.6101 38.816V45.9746Z" fill="#263238"/>
<path d="M66.2061 38.8737C66.2061 36.8675 67.1298 35.3882 69.2153 35.3882C71.3008 35.3882 72.2678 36.8315 72.2678 38.8737V45.9096C72.2678 47.9158 71.3441 49.3951 69.2153 49.3951C67.0865 49.3951 66.2061 47.9519 66.2061 45.9096V38.8737ZM67.1081 45.9746C67.1081 47.4756 67.6998 48.5725 69.2153 48.5725C70.7307 48.5725 71.3802 47.4756 71.3802 45.9746V38.816C71.3802 37.3222 70.774 36.2181 69.2153 36.2181C67.6565 36.2181 67.1081 37.3222 67.1081 38.816V45.9746Z" fill="#263238"/>
<path d="M76.6189 35.5107C78.7405 35.5107 79.5703 36.8458 79.5703 38.8519V40.3529C79.5703 42.5178 78.5601 43.6147 76.3807 43.6147H74.6704V49.2868H73.79V35.5107H76.6189ZM76.3807 42.7921C77.9755 42.7921 78.6611 42.0704 78.6611 40.4107V38.7942C78.6611 37.3004 78.1487 36.3334 76.6189 36.3334H74.6704V42.8281L76.3807 42.7921Z" fill="#263238"/>
<path d="M86.7289 38.8376V39.1263H85.863V38.7727C85.863 37.3294 85.3145 36.2181 83.8207 36.2181C82.327 36.2181 81.7713 37.3005 81.7713 38.7582C81.7713 42.0994 86.7506 42.1571 86.7506 45.9746C86.7506 47.9591 85.8846 49.4168 83.7774 49.4168C81.6703 49.4168 80.8115 47.9735 80.8115 45.9746V45.253H81.6775V46.0179C81.6775 47.4612 82.2476 48.5581 83.763 48.5581C85.2785 48.5581 85.8486 47.49 85.8486 46.0179C85.8486 42.7128 80.8693 42.6551 80.8693 38.8015C80.8693 36.7377 81.7713 35.3954 83.7991 35.3738C85.8269 35.3521 86.7289 36.8459 86.7289 38.8376Z" fill="#263238"/>
<path d="M88.9947 47.5552V49.2871H88.1143V47.5552H88.9947Z" fill="#263238"/>
<path d="M91.4556 47.5552V49.2871H90.5752V47.5552H91.4556Z" fill="#263238"/>
<path d="M93.9169 47.5552V49.2871H93.0293V47.5552H93.9169Z" fill="#263238"/>
<path d="M61.6161 55.5508C63.781 55.5508 64.5676 56.8858 64.5676 58.8992V60.393C64.5676 62.5579 63.5645 63.662 61.3852 63.662H59.6677V69.3268H58.7656V55.5508H61.6161ZM61.3852 62.8321C62.9728 62.8321 63.6655 62.1105 63.6655 60.4507V58.8342C63.6655 57.3404 63.1532 56.3807 61.6161 56.3807H59.6677V62.8321H61.3852Z" fill="#263238"/>
<path d="M66.9919 66.2745L66.2703 69.327H65.4404L68.4497 55.5293H69.7702L72.8372 69.327H71.9352L71.2135 66.2745H66.9919ZM67.1291 65.4879H71.1414L69.1136 56.5757L67.1291 65.4879Z" fill="#263238"/>
<path d="M80.1193 58.8992V59.9239H79.2533V58.8415C79.2533 57.3982 78.6832 56.2436 77.1678 56.2436C75.6524 56.2436 75.0823 57.3693 75.0823 58.8415V66.0073C75.0823 67.4506 75.6524 68.5835 77.1678 68.5835C78.6832 68.5835 79.2533 67.4795 79.2533 66.0073V63.0342H77.3987V62.2115H80.0904V65.9496C80.0904 67.9341 79.2245 69.4279 77.1173 69.4279C75.0101 69.4279 74.1514 67.9341 74.1514 65.9496V58.8992C74.1514 56.9147 75.0173 55.4209 77.1173 55.4209C79.2173 55.4209 80.1193 56.9291 80.1193 58.8992Z" fill="#263238"/>
<path d="M86.3038 61.93V62.7527H82.544V68.5258H87.0687V69.3557H81.6348V55.5508H87.0687V56.3807H82.544V61.93H86.3038Z" fill="#263238"/>
<path d="M92.4227 69.3268H91.5928V55.5508H92.7763L96.8824 67.1836V55.5508H97.705V69.3268H96.702L92.3721 57.059L92.4227 69.3268Z" fill="#263238"/>
<path d="M99.2354 58.8992C99.2354 56.893 100.159 55.4209 102.245 55.4209C104.33 55.4209 105.297 56.8642 105.297 58.8992V65.9496C105.297 67.9557 104.366 69.4279 102.245 69.4279C100.123 69.4279 99.2354 67.9846 99.2354 65.9496V58.8992ZM100.137 66.0073C100.137 67.5011 100.729 68.6052 102.245 68.6052C103.76 68.6052 104.409 67.5011 104.409 66.0073V58.8415C104.409 57.3477 103.803 56.2436 102.245 56.2436C100.686 56.2436 100.137 57.3477 100.137 58.8415V66.0073Z" fill="#263238"/>
<path d="M109.15 69.3268V56.3807H106.357V55.5508H112.852V56.3807H110.038V69.3268H109.15Z" fill="#263238"/>
<path d="M121.476 62.262V63.0847H117.911V69.3268H117.009V55.5508H122.241V56.3807H117.911V62.262H121.476Z" fill="#263238"/>
<path d="M123.583 58.8992C123.583 56.893 124.507 55.4209 126.592 55.4209C128.678 55.4209 129.645 56.8642 129.645 58.8992V65.9496C129.645 67.9557 128.721 69.4279 126.592 69.4279C124.463 69.4279 123.583 67.9846 123.583 65.9496V58.8992ZM124.485 66.0073C124.485 67.5011 125.077 68.6052 126.592 68.6052C128.108 68.6052 128.757 67.5011 128.757 66.0073V58.8415C128.757 57.3477 128.151 56.2436 126.592 56.2436C125.033 56.2436 124.485 57.3477 124.485 58.8415V66.0073Z" fill="#263238"/>
<path d="M131.983 66.0001C131.983 67.4433 132.539 68.6196 134.054 68.6196C135.57 68.6196 136.118 67.4794 136.118 66.0001V55.5508H136.962V65.964C136.962 67.9268 136.14 69.4423 134.033 69.4423C131.925 69.4423 131.081 67.9268 131.081 65.964V55.5508H131.983V66.0001Z" fill="#263238"/>
<path d="M139.343 69.3268H138.521V55.5508H139.697L143.832 67.1836V55.5508H144.662V69.3268H143.651L139.322 57.059L139.343 69.3268Z" fill="#263238"/>
<path d="M149.245 55.5508C151.374 55.5508 152.297 56.9508 152.297 58.9786V65.899C152.297 67.9268 151.374 69.3268 149.245 69.3268H146.214V55.5508H149.245ZM149.245 68.4969C150.782 68.4969 151.41 67.4578 151.41 65.9423V58.9353C151.41 57.4198 150.76 56.3807 149.245 56.3807H147.145V68.4969H149.245Z" fill="#263238"/>
<path d="M195.025 196.825L204.847 173.639H210.728V196.825H213.276V201.725H210.728V207.953H205.431V201.725H195.025V196.825ZM205.417 196.825V183.937L199.976 196.825H205.417Z" fill="#263238"/>
<path d="M215.289 181.873C215.289 176.389 218.176 173.213 223.472 173.213C228.769 173.213 231.656 176.352 231.656 181.873V199.712C231.656 205.204 228.769 208.372 223.472 208.372C218.176 208.372 215.289 205.232 215.289 199.712V181.873ZM220.68 200.058C220.68 202.512 221.755 203.443 223.472 203.443C225.19 203.443 226.265 202.512 226.265 200.058V181.534C226.265 179.08 225.183 178.149 223.472 178.149C221.762 178.149 220.68 179.08 220.68 181.534V200.058Z" fill="#263238"/>
<path d="M233.863 196.825L243.663 173.639H249.544V196.825H252.092V201.725H249.544V207.953H244.248V201.725H233.863V196.825ZM244.248 196.825V183.937L238.814 196.825H244.248Z" fill="#263238"/>
</g>
<defs>
<clipPath id="clip0_2248_24667">
<rect width="315" height="288.655" fill="white"/>
</clipPath>
</defs>
</svg>
