<svg xmlns="http://www.w3.org/2000/svg" width="34" height="12" viewBox="0 0 34 12" fill="none">
  <path d="M1.25 5.25C0.835786 5.25 0.5 5.58579 0.5 6C0.5 6.41421 0.835786 6.75 1.25 6.75V5.25ZM33.7803 6.53033C34.0732 6.23744 34.0732 5.76256 33.7803 5.46967L29.0074 0.696699C28.7145 0.403806 28.2396 0.403806 27.9467 0.696699C27.6538 0.989593 27.6538 1.46447 27.9467 1.75736L32.1893 6L27.9467 10.2426C27.6538 10.5355 27.6538 11.0104 27.9467 11.3033C28.2396 11.5962 28.7145 11.5962 29.0074 11.3033L33.7803 6.53033ZM1.25 6.75H33.25V5.25H1.25V6.75Z" fill="#108E66"/>
</svg>