<svg xmlns="http://www.w3.org/2000/svg" width="34" height="12" viewBox="0 0 34 12" fill="none">
  <path d="M0.21967 5.46967C-0.0732233 5.76256 -0.0732233 6.23744 0.21967 6.53033L4.99264 11.3033C5.28553 11.5962 5.76041 11.5962 6.0533 11.3033C6.34619 11.0104 6.34619 10.5355 6.0533 10.2426L1.81066 6L6.0533 1.75736C6.34619 1.46447 6.34619 0.989593 6.0533 0.696699C5.76041 0.403806 5.28553 0.403806 4.99264 0.696699L0.21967 5.46967ZM32.75 6.75C33.1642 6.75 33.5 6.41421 33.5 6C33.5 5.58579 33.1642 5.25 32.75 5.25V6.75ZM0.75 6.75H32.75V5.25H0.75V6.75Z" fill="#272B2A" fill-opacity="0.25"/>
</svg>