<svg xmlns="http://www.w3.org/2000/svg" width="34" height="13" viewBox="0 0 34 13" fill="none">
<path d="M1.25 5.75C0.835786 5.75 0.5 6.08579 0.5 6.5C0.5 6.91421 0.835786 7.25 1.25 7.25V5.75ZM33.7803 7.03033C34.0732 6.73744 34.0732 6.26256 33.7803 5.96967L29.0074 1.1967C28.7145 0.903806 28.2396 0.903806 27.9467 1.1967C27.6538 1.48959 27.6538 1.96447 27.9467 2.25736L32.1893 6.5L27.9467 10.7426C27.6538 11.0355 27.6538 11.5104 27.9467 11.8033C28.2396 12.0962 28.7145 12.0962 29.0074 11.8033L33.7803 7.03033ZM1.25 7.25H33.25V5.75H1.25V7.25Z" fill="#108E66"/>
</svg>