<svg xmlns="http://www.w3.org/2000/svg" width="34" height="13" viewBox="0 0 34 13" fill="none">
<path d="M0.21967 5.96967C-0.0732233 6.26256 -0.0732233 6.73744 0.21967 7.03033L4.99264 11.8033C5.28553 12.0962 5.76041 12.0962 6.0533 11.8033C6.34619 11.5104 6.34619 11.0355 6.0533 10.7426L1.81066 6.5L6.0533 2.25736C6.34619 1.96447 6.34619 1.48959 6.0533 1.1967C5.76041 0.903806 5.28553 0.903806 4.99264 1.1967L0.21967 5.96967ZM32.75 7.25C33.1642 7.25 33.5 6.91421 33.5 6.5C33.5 6.08579 33.1642 5.75 32.75 5.75V7.25ZM0.75 7.25H32.75V5.75H0.75V7.25Z" fill="#108E66"/>
</svg>