<svg width="38.661133" height="40.000732" viewBox="0 0 38.6611 40.0007" fill="none" xmlns="http://www.w3.org/2000/svg" xmlns:xlink="http://www.w3.org/1999/xlink">
	<desc>
			Created with Pixso.
	</desc>
	<defs/>
	<path id="Shape" d="M19.6038 26.5266L26.9758 21.2786C28.8203 19.9734 29.9187 17.856 29.9231 15.5964L29.9231 4.80054C29.9233 4.66772 29.8447 4.54761 29.7231 4.49438L19.3899 0.027832C19.3049 -0.00927734 19.2083 -0.00927734 19.1233 0.027832L8.78979 4.49438C8.66821 4.54761 8.5896 4.66772 8.58984 4.80054L8.58984 15.6006C8.59448 17.8601 9.69312 19.9778 11.5378 21.2825L18.9099 26.5305C19.1187 26.6768 19.3967 26.675 19.6038 26.5266Z" fill="#894B9D" fill-opacity="1.000000" fill-rule="nonzero"/>
	<path id="Shape" d="M13.0842 19.1057C11.9443 18.2996 11.2637 16.9927 11.2568 15.5964L11.2568 6.33374L19.2568 2.87842L27.2568 6.33374L27.2568 15.6003C27.25 16.9966 26.5696 18.3037 25.4294 19.1099L19.2568 23.5037L13.0842 19.1057Z" fill="#B49ACA" fill-opacity="1.000000" fill-rule="nonzero"/>
	<path id="Shape" d="M17.7307 17.4004C17.5864 17.4004 17.446 17.3535 17.3306 17.2671L14.2832 14.981C14.0928 14.8381 13.9929 14.6045 14.0215 14.3679C14.0498 14.1316 14.2024 13.9282 14.4214 13.8347C14.6404 13.741 14.8928 13.7715 15.0833 13.9143L17.6167 15.813L23.3079 8.69824C23.5378 8.41064 23.9575 8.36377 24.2454 8.59375C24.533 8.82373 24.5798 9.24316 24.3499 9.53101L18.2539 17.1484C18.1272 17.3079 17.9343 17.4009 17.7307 17.4004Z" fill="#3D324C" fill-opacity="1.000000" fill-rule="nonzero"/>
	<path id="Shape" d="M8.87451 28.4924L5.82935 25.4465C5.17603 24.7932 4.65332 24.0215 4.28931 23.1724L2.79712 19.6931C2.56738 19.1572 2.04028 18.8096 1.45728 18.8091C0.961426 18.8098 0.5 19.062 0.231934 19.479C-0.0361328 19.896 -0.0744629 20.4204 0.130615 20.8718L2.74316 26.6196C3.06372 27.3245 3.50806 27.9656 4.05518 28.5132L8.87451 33.3337L15.3306 33.3337L15.3306 31.4265C15.3523 29.9988 14.8889 28.6062 14.0159 27.4763C13.5281 26.8328 12.8635 26.3447 12.1033 26.0718C10.6233 25.447 9.25903 24.5776 8.06787 23.4998C7.1167 22.7058 5.71631 22.7705 4.84253 23.6492L8.87451 28.4924Z" fill="#FDD7AD" fill-opacity="1.000000" fill-rule="nonzero"/>
	<path id="Shape" d="M29.7852 28.4924L32.8313 25.4465C33.4844 24.7932 34.0071 24.0215 34.3713 23.1724L35.8638 19.6931C36.094 19.1567 36.6216 18.8091 37.2053 18.8091C37.7007 18.8103 38.1616 19.0627 38.4294 19.4795C38.6973 19.8965 38.7354 20.4207 38.5305 20.8718L35.918 26.6196C35.5974 27.3245 35.1531 27.9656 34.606 28.5132L29.7852 33.3337L23.3306 33.3337L23.3306 31.4265C23.3091 29.9988 23.7727 28.6062 24.646 27.4763C25.1338 26.8328 25.7983 26.3447 26.5586 26.0718C28.0383 25.447 29.4023 24.5776 30.5933 23.4998C31.5447 22.7058 32.9451 22.7708 33.8193 23.6492L29.7852 28.4924Z" fill="#FDD7AD" fill-opacity="1.000000" fill-rule="nonzero"/>
	<path id="Rectangle-path" d="M29.9971 40.0005L22.6638 40.0005C22.2957 40.0005 21.9971 39.7019 21.9971 39.3337L21.9971 34.0005C21.9971 33.6323 22.2957 33.3337 22.6638 33.3337L29.9971 33.3337C30.3652 33.3337 30.6638 33.6323 30.6638 34.0005L30.6638 39.3337C30.6638 39.7019 30.3652 40.0005 29.9971 40.0005Z" fill="#41767F" fill-opacity="1.000000" fill-rule="evenodd"/>
	<path id="Shape" d="M25.3306 37.3337L24.6641 37.3337C24.2959 37.3337 23.9973 37.0354 23.9973 36.6672C23.9973 36.2991 24.2959 36.0005 24.6641 36.0005L25.3306 36.0005C25.6987 36.0005 25.9973 36.2991 25.9973 36.6672C25.9973 37.0354 25.6987 37.3337 25.3306 37.3337Z" fill="#2C3E50" fill-opacity="1.000000" fill-rule="nonzero"/>
	<path id="Rectangle-path" d="M8.66284 33.334L15.9961 33.334C16.3643 33.334 16.6628 33.6326 16.6628 34.0007L16.6628 39.334C16.6628 39.7021 16.3643 40.0007 15.9961 40.0007L8.66284 40.0007C8.29468 40.0007 7.99609 39.7021 7.99609 39.334L7.99609 34.0007C7.99609 33.6326 8.29468 33.334 8.66284 33.334Z" fill="#41767F" fill-opacity="1.000000" fill-rule="evenodd"/>
	<path id="Shape" d="M13.9971 37.3337L13.3306 37.3337C12.9624 37.3337 12.6638 37.0354 12.6638 36.6672C12.6638 36.2991 12.9624 36.0005 13.3306 36.0005L13.9971 36.0005C14.3652 36.0005 14.6638 36.2991 14.6638 36.6672C14.6638 37.0354 14.3652 37.3337 13.9971 37.3337Z" fill="#2C3E50" fill-opacity="1.000000" fill-rule="nonzero"/>
	<path id="Shape" d="M9.94409 28.6604C9.68115 28.9182 9.26025 28.9182 8.99731 28.6604L5.95068 25.6138C5.50732 25.1702 5.11792 24.6755 4.79077 24.1404C4.73071 24.0403 4.67725 23.947 4.62402 23.8472L4.87744 23.6138C5.11621 23.3735 5.40527 23.189 5.72412 23.0737C6.03174 23.6636 6.42725 24.2031 6.89746 24.6738L9.94409 27.7136C10.2041 27.9758 10.2041 28.3984 9.94409 28.6604Z" fill="#F09372" fill-opacity="1.000000" fill-rule="nonzero"/>
	<path id="Shape" d="M28.7693 28.6604C29.032 28.9182 29.4529 28.9182 29.7158 28.6604L32.7625 25.6138C33.2061 25.1702 33.5952 24.6755 33.9226 24.1404C33.9824 24.0403 34.0359 23.947 34.0891 23.8472L33.8359 23.6138C33.5969 23.3735 33.3079 23.189 32.9893 23.0737C32.6816 23.6636 32.2859 24.2031 31.8159 24.6738L28.7693 27.7136C28.5093 27.9758 28.5093 28.3984 28.7693 28.6604Z" fill="#F09372" fill-opacity="1.000000" fill-rule="nonzero"/>
</svg>
