<svg width="24" height="24" viewBox="0 0 24 24" fill="none" xmlns="http://www.w3.org/2000/svg">
<g id="insurance 1">
<g id="Group">
<path id="Vector" d="M13.642 4.21875H10.358C9.33563 5.38406 8.05219 6.28172 6.60938 6.84281V11.1445C6.60938 14.7825 8.71547 18.045 12 19.5384C15.2845 18.045 17.3906 14.7825 17.3906 11.1445V6.84328C15.9473 6.28219 14.6644 5.38453 13.642 4.21875ZM15.7786 10.267L11.4033 14.6419C11.2659 14.7793 11.0859 14.8481 10.9064 14.8481C10.7264 14.8481 10.5464 14.7792 10.4091 14.6419L8.22141 12.4547C7.94719 12.18 7.94719 11.7347 8.22141 11.46C8.49609 11.1858 8.94141 11.1858 9.21609 11.46L10.9064 13.1504L14.7844 9.27286C15.0586 8.99817 15.5039 8.99817 15.7786 9.27286C16.0528 9.5475 16.0528 9.99234 15.7786 10.267ZM20.902 3.28125C18.8752 3.28125 17.0292 2.1675 16.0833 0.375C15.9618 0.144375 15.7223 0 15.4617 0H8.53823C8.27761 0 8.03808 0.144375 7.9162 0.375C6.97078 2.1675 5.12484 3.28125 3.09375 3.28125C2.70562 3.28125 2.39062 3.59625 2.39062 3.98438V11.1445C2.39062 14.0231 3.29016 16.7719 4.99172 19.0936C6.69328 21.4153 9.04312 23.1004 11.7881 23.9672C11.857 23.9892 11.9288 24 12 24C12.0712 24 12.143 23.9892 12.2119 23.9672C14.9569 23.1005 17.3067 21.4154 19.0083 19.0936C20.7098 16.7718 21.6094 14.0231 21.6094 11.1445V3.98438C21.6094 3.59625 21.2902 3.28125 20.902 3.28125ZM18.7969 11.1127C18.7969 15.4186 16.2352 19.2694 12.2705 20.9227C12.1837 20.9588 12.0919 20.9766 12 20.9766C11.9081 20.9766 11.8158 20.9587 11.7295 20.9227C7.76484 19.2694 5.20312 15.4185 5.20312 11.1127V6.31641C5.20312 6.01266 5.39812 5.74312 5.68687 5.64844C7.17891 5.15766 8.49328 4.25531 9.4875 3.03891C9.62109 2.87531 9.82125 2.78062 10.0322 2.78062H13.9678C14.1834 2.78062 14.4375 2.9475 14.5125 3.03891C15.5067 4.25531 16.821 5.15766 18.3131 5.64844C18.5189 5.71594 18.6764 5.87203 18.7504 6.06656C18.7514 6.06844 18.7518 6.07078 18.7528 6.07266C18.7706 6.12094 18.7832 6.17156 18.7903 6.22359C18.7908 6.22875 18.7917 6.23438 18.7922 6.23953C18.795 6.26484 18.7969 6.29016 18.7969 6.31641V11.1127Z" fill="#FCFFFE"/>
</g>
</g>
</svg>
