<svg width="24" height="24" viewBox="0 0 24 24" fill="none" xmlns="http://www.w3.org/2000/svg">
<g id="investment (3) 1" clip-path="url(#clip0_241_2838)">
<g id="Group">
<g id="Group_2">
<path id="Vector" d="M20.7064 0.0543148C20.4441 -0.0562167 20.142 0.0055647 19.9401 0.206753L19.3578 0.789035C18.8267 1.31924 18.3045 1.40704 17.6248 1.40704C15.1608 1.40704 13.0445 2.8364 11.9999 4.89684C10.9577 2.84099 8.92437 1.40704 6.13408 1.40704C5.57036 1.40704 5.041 1.18729 4.64204 0.789035L4.05986 0.206706C3.85796 0.00551783 3.55792 -0.0549042 3.29359 0.0542679C3.03062 0.162737 2.85962 0.419566 2.85962 0.703816V2.11002C2.85962 5.59945 5.69814 8.43797 9.18757 8.43797H11.2969V11.3679C9.0993 11.4825 7.07824 12.1364 7.07824 13.4535C7.07824 14.9105 9.55005 15.5628 12 15.5628C14.4499 15.5628 16.9217 14.9105 16.9217 13.4535C16.9217 12.1365 14.9006 11.4825 12.7031 11.3679V8.43797H14.8124C18.3019 8.43797 21.1404 5.59945 21.1404 2.11002V0.703816C21.1403 0.419566 20.9693 0.162784 20.7064 0.0543148Z" fill="#FCFFFE"/>
</g>
</g>
<g id="Group_3">
<g id="Group_4">
<path id="Vector_2" d="M11.9999 19.7814C9.85088 19.7814 8.17289 19.3611 7.07812 18.6323V19.0783C7.07812 20.5353 9.54994 21.1876 11.9999 21.1876C14.4498 21.1876 16.9216 20.5353 16.9216 19.0783V18.6323C15.8269 19.3611 14.1489 19.7814 11.9999 19.7814Z" fill="#FCFFFE"/>
</g>
</g>
<g id="Group_5">
<g id="Group_6">
<path id="Vector_3" d="M11.9999 22.5938C9.85093 22.5938 8.17294 22.1736 7.07817 21.4447C7.07817 21.6794 7.05173 21.9751 7.14005 22.1744C7.44919 23.4263 9.72071 24 11.9999 24C13.6901 24 16.9217 23.5717 16.9217 21.8907V21.4447C15.8269 22.1736 14.1489 22.5938 11.9999 22.5938Z" fill="#FCFFFE"/>
</g>
</g>
<g id="Group_7">
<g id="Group_8">
<path id="Vector_4" d="M11.9999 16.9689C9.85088 16.9689 8.17289 16.5486 7.07812 15.8198V16.2658C7.07812 17.7228 9.54994 18.3751 11.9999 18.3751C14.4498 18.3751 16.9216 17.7228 16.9216 16.2658V15.8198C15.8269 16.5487 14.1489 16.9689 11.9999 16.9689Z" fill="#FCFFFE"/>
</g>
</g>
<g id="Group_9">
<g id="Group_10">
<path id="Vector_5" d="M4.96886 12.7504C2.51903 12.7504 0.000244141 13.4027 0.000244141 14.8597C0.000244141 16.3167 2.51894 16.969 4.96886 16.969C5.20422 16.969 5.43846 16.9575 5.67199 16.9453V12.7742C5.43846 12.7619 5.20422 12.7504 4.96886 12.7504Z" fill="#FCFFFE"/>
</g>
</g>
<g id="Group_11">
<g id="Group_12">
<path id="Vector_6" d="M19.031 12.7504C18.7956 12.7503 18.5614 12.7619 18.3279 12.7741V16.9452C18.5614 16.9574 18.7956 16.969 19.031 16.969C21.4809 16.969 23.9996 16.3167 23.9996 14.8597C23.9996 13.4026 21.4809 12.7504 19.031 12.7504Z" fill="#FCFFFE"/>
</g>
</g>
<g id="Group_13">
<g id="Group_14">
<path id="Vector_7" d="M4.96886 18.3751C2.81987 18.3751 1.09501 17.9549 0.000244141 17.2261V17.672C0.000244141 19.1291 2.51894 19.7814 4.96886 19.7814C5.20422 19.7814 5.43846 19.7698 5.67199 19.7576V18.3395C5.43649 18.3506 5.21707 18.3751 4.96886 18.3751Z" fill="#FCFFFE"/>
</g>
</g>
<g id="Group_15">
<g id="Group_16">
<path id="Vector_8" d="M4.96886 21.1876C2.81987 21.1876 1.09501 20.7674 0.000244141 20.0386V20.4845C0.000244141 21.9415 2.51898 22.5938 4.96886 22.5938C5.20422 22.5938 5.43846 22.5823 5.67199 22.5701V21.152C5.43649 21.1631 5.21707 21.1876 4.96886 21.1876Z" fill="#FCFFFE"/>
</g>
</g>
<g id="Group_17">
<g id="Group_18">
<path id="Vector_9" d="M19.031 18.3752C18.7828 18.3752 18.5634 18.3507 18.3279 18.3395V19.7576C18.5614 19.7698 18.7956 19.7814 19.031 19.7814C21.4809 19.7814 23.9996 19.1291 23.9996 17.672V17.2261C22.9049 17.955 21.1799 18.3752 19.031 18.3752Z" fill="#FCFFFE"/>
</g>
</g>
<g id="Group_19">
<g id="Group_20">
<path id="Vector_10" d="M19.031 21.1875C18.7828 21.1875 18.5634 21.163 18.3279 21.1519V22.57C18.5614 22.5822 18.7956 22.5938 19.031 22.5938C21.4809 22.5938 23.9996 21.9414 23.9996 20.4844V20.0385C22.9049 20.7673 21.1799 21.1875 19.031 21.1875Z" fill="#FCFFFE"/>
</g>
</g>
</g>
<defs>
<clipPath id="clip0_241_2838">
<rect width="24" height="24" fill="white"/>
</clipPath>
</defs>
</svg>
