<svg width="36.250977" height="36.250000" viewBox="0 0 36.251 36.25" fill="none" xmlns="http://www.w3.org/2000/svg" xmlns:xlink="http://www.w3.org/1999/xlink">
	<desc>
			Created with Pixso.
	</desc>
	<defs/>
	<path id="Vector" d="M10.625 16.25L13.75 16.25L13.75 21.25L10.625 21.25L10.625 16.25Z" fill="#1F88E5" fill-opacity="1.000000" fill-rule="nonzero"/>
	<path id="Vector" d="M16.25 12.5L19.375 12.5L19.375 21.25L16.25 21.25L16.25 12.5Z" fill="#1F88E5" fill-opacity="1.000000" fill-rule="nonzero"/>
	<path id="Vector" d="M21.875 15L25 15L25 21.25L21.875 21.25L21.875 15Z" fill="#1F88E5" fill-opacity="1.000000" fill-rule="nonzero"/>
	<path id="Vector" d="M27.5 11.25L30.625 11.25L30.625 21.25L27.5 21.25L27.5 11.25Z" fill="#1F88E5" fill-opacity="1.000000" fill-rule="nonzero"/>
	<path id="Vector" d="M35.6255 0L32.5005 0L32.5005 1.25L34.1167 1.25L28.1255 7.24121L22.9424 2.05811C22.8252 1.94092 22.6663 1.87524 22.5005 1.87524C22.3347 1.87524 22.1758 1.94092 22.0586 2.05811L15.0005 9.11621L11.0674 5.18311C10.9502 5.06592 10.7913 5.00024 10.6255 5.00024C10.4597 5.00024 10.3008 5.06592 10.1836 5.18311L1.43359 13.9331L2.31738 14.8169L10.6255 6.50879L14.5586 10.4419C14.6758 10.5591 14.8347 10.6248 15.0005 10.6248C15.1663 10.6248 15.3252 10.5591 15.4424 10.4419L22.5005 3.38379L27.6836 8.56689C27.8008 8.68408 27.9597 8.74976 28.1255 8.74976C28.2913 8.74976 28.4502 8.68408 28.5674 8.56689L35.0005 2.13379L35.0005 3.75L36.2505 3.75L36.2505 0.625C36.2505 0.459229 36.1846 0.300293 36.0674 0.183105C35.9502 0.065918 35.7913 0 35.6255 0Z" fill="#FF9800" fill-opacity="1.000000" fill-rule="nonzero"/>
	<path id="Vector" d="M36.0432 22.6086C35.7288 22.127 35.2471 21.7783 34.6912 21.6299C34.135 21.4817 33.5439 21.5442 33.0312 21.8057L28.5037 24.1182C28.4771 24.0361 28.4417 23.957 28.3982 23.8826C28.0347 23.2532 27.4431 22.7878 26.7461 22.5825C26.0491 22.3772 25.2996 22.4475 24.6531 22.7793L19.6086 25.3682C19.2559 25.5496 18.8643 25.6428 18.4675 25.6401C18.0708 25.6377 17.6804 25.5391 17.3301 25.353L13.8926 23.5276C12.6907 22.8894 11.3357 22.5957 9.97754 22.679C8.61914 22.7625 7.3103 23.2195 6.19556 24L4.9375 24.8831L5.75 27.0293L6.77686 33.5056L9.55688 32.907C10.105 32.7891 10.6692 32.7666 11.2251 32.8406L19.032 33.6968C20.5005 33.8926 21.9897 33.5447 23.2195 32.718L35.7024 24.343C35.9751 24.1562 36.1636 23.8699 36.2273 23.5457C36.2908 23.2212 36.2249 22.8848 36.0432 22.6086Z" fill="#FADCB4" fill-opacity="1.000000" fill-rule="nonzero"/>
	<path id="Vector" d="M27.8457 26.272C29.3831 25.3643 28.8706 24.4707 28.6768 24.0312L28.5032 24.1201C28.5935 24.3916 28.5884 24.686 28.4888 24.9543C28.3889 25.2227 28.2007 25.4487 27.9551 25.5957L21 29.7212C19.6438 30.5273 18.0298 30.7817 16.4912 30.4319L11.875 29.375L16.3894 31.032C17.1357 31.2642 17.9231 31.335 18.699 31.2395C19.4749 31.144 20.2214 30.8845 20.8894 30.478L27.8457 26.272Z" fill="#C69C6D" fill-opacity="1.000000" fill-rule="nonzero"/>
	<path id="Vector" d="M6.69067 24.7961C8.83398 23.436 11.4299 22.9829 13.9075 23.5361L13.8938 23.5293C12.6919 22.8911 11.3369 22.5974 9.97876 22.6809C8.62036 22.7642 7.31177 23.2214 6.19678 24.002L4.9375 24.8831L5.25 25.7112L6.69067 24.7961Z" fill="#F7ECDF" fill-opacity="1.000000" fill-rule="nonzero"/>
	<path id="Vector" d="M7.67065 35.2063L2.82129 36.25L0 22.8044L4.84863 21.7607L7.67065 35.2063Z" fill="#455A64" fill-opacity="1.000000" fill-rule="nonzero"/>
	<path id="Vector" d="M2.21191 24.2512L3.43506 23.9939L3.69214 25.2158L2.46899 25.4731L2.21191 24.2512Z" fill="#212121" fill-opacity="1.000000" fill-rule="nonzero"/>
</svg>
