<svg xmlns="http://www.w3.org/2000/svg" width="24" height="25" viewBox="0 0 24 25" fill="none">
  <path d="M21 21.3682H4.6C4.03995 21.3682 3.75992 21.3682 3.54601 21.2592C3.35785 21.1633 3.20487 21.0103 3.10899 20.8222C3 20.6082 3 20.3282 3 19.7682V3.36816M21 7.36816L15.5657 12.8025C15.3677 13.0005 15.2687 13.0995 15.1545 13.1366C15.0541 13.1692 14.9459 13.1692 14.8455 13.1366C14.7313 13.0995 14.6323 13.0005 14.4343 12.8025L12.5657 10.9338C12.3677 10.7358 12.2687 10.6368 12.1545 10.5997C12.0541 10.5671 11.9459 10.5671 11.8455 10.5997C11.7313 10.6368 11.6323 10.7358 11.4343 10.9338L7 15.3682M21 7.36816H17M21 7.36816V11.3682" stroke="#108E66" stroke-width="2" stroke-linecap="round" stroke-linejoin="round"/>
</svg>