<svg xmlns="http://www.w3.org/2000/svg" width="174" height="28" viewBox="0 0 174 28" fill="none">
  <g clip-path="url(#clip0_4657_44154)">
    <path d="M25.3534 0H5.02262C2.61653 0 0.666016 1.8804 0.666016 4.2V23.8C0.666016 26.1196 2.61653 28 5.02262 28H25.3534C27.7595 28 29.71 26.1196 29.71 23.8V4.2C29.71 1.8804 27.7595 0 25.3534 0Z" fill="#30AB84"/>
    <path d="M10.7222 5.51287H9.23438C9.23438 6.9159 9.81723 8.18688 10.7601 9.10668C11.703 10.0265 13.0058 10.5951 14.444 10.5951V13.8632C14.444 13.9627 14.4855 14.0533 14.5532 14.1194C14.6209 14.1854 14.7138 14.226 14.8167 14.226H15.561C15.663 14.226 15.7559 14.1854 15.8236 14.1194C15.8913 14.0533 15.9328 13.9627 15.9328 13.8632V10.5951C15.9328 9.19207 15.3499 7.92108 14.407 7.00128C13.4642 6.08146 12.1613 5.51287 10.7222 5.51287ZM19.6546 4.06055C18.6747 4.06055 17.7598 4.3246 16.9775 4.78319C16.1962 5.24177 15.5475 5.89487 15.1027 6.67471C15.4248 7.01712 15.7045 7.39647 15.9364 7.80576C16.1673 8.21503 16.3487 8.65428 16.475 9.11635C17.7851 8.98345 18.9527 8.37701 19.7917 7.47481C20.6308 6.57349 21.1424 5.37555 21.1424 4.06055H19.6546Z" fill="#FCFFFE"/>
    <path d="M18.6307 15.2277C18.7083 15.2277 18.7779 15.1969 18.8284 15.1476C18.8789 15.0983 18.9104 15.0306 18.9104 14.9548V14.0473C18.9104 13.9726 18.8789 13.9039 18.8284 13.8546C18.7779 13.8053 18.7083 13.7754 18.6307 13.7754H11.7465C11.6689 13.7754 11.5994 13.8053 11.5489 13.8546C11.4984 13.9039 11.4668 13.9726 11.4668 14.0473V15.0632C11.4668 15.1379 11.4984 15.2057 11.5489 15.255C11.5994 15.3043 11.6689 15.3351 11.7465 15.3351H13.7297C14.0473 15.3351 14.3279 15.3913 14.5661 15.497C14.8042 15.6026 15 15.7576 15.148 15.953H11.7465C11.6689 15.953 11.5994 15.9838 11.5489 16.0331C11.4984 16.0824 11.4668 16.1501 11.4668 16.2259V17.1334C11.4668 17.2081 11.4984 17.2769 11.5489 17.3261C11.5994 17.3754 11.6689 17.4052 11.7465 17.4052H15.4385C15.3663 17.8146 15.1751 18.1472 14.88 18.378C14.585 18.6077 14.1862 18.7361 13.6999 18.7361H11.7465C11.6689 18.7361 11.5994 18.766 11.5489 18.8153C11.4984 18.8646 11.4668 18.9333 11.4668 19.0081V20.2114C11.4668 20.2492 11.4749 20.2862 11.4902 20.3205C11.5056 20.3548 11.5282 20.3857 11.557 20.4112L15.3961 23.8685C15.4214 23.8914 15.4512 23.9099 15.4837 23.9214C15.5162 23.9337 15.5505 23.9407 15.5856 23.9407H17.5056C17.6328 23.9407 17.7266 23.8641 17.7655 23.7673C17.8043 23.6705 17.788 23.5517 17.6951 23.4681L14.1853 20.3081C15.0749 20.2808 15.8373 19.978 16.3986 19.4711C16.9597 18.9633 17.3188 18.2511 17.4028 17.4052H18.6307C18.7083 17.4052 18.7779 17.3754 18.8284 17.3261C18.8789 17.2769 18.9104 17.2081 18.9104 17.1334V16.2259C18.9104 16.1501 18.8789 16.0824 18.8284 16.0331C18.7779 15.9838 18.7083 15.953 18.6307 15.953H17.2657C17.225 15.8227 17.1772 15.696 17.1222 15.5754C17.0663 15.4539 17.004 15.3377 16.9346 15.2277H18.6307Z" fill="#FCFFFE"/>
    <path d="M43.0734 20.711C42.0819 20.711 41.1935 20.5559 40.408 20.2455C39.6225 19.9351 38.9917 19.4759 38.5152 18.8676C38.0517 18.2593 37.807 17.527 37.7812 16.6704H41.2964C41.348 17.1546 41.5218 17.527 41.8179 17.7876C42.114 18.0359 42.5003 18.16 42.9768 18.16C43.466 18.16 43.8523 18.0545 44.1356 17.8435C44.419 17.6201 44.5606 17.316 44.5606 16.9311C44.5606 16.6084 44.4447 16.3414 44.2129 16.1305C43.9941 15.9195 43.7171 15.7456 43.3824 15.6091C43.0604 15.4726 42.5969 15.3173 41.9918 15.1436C41.1162 14.8829 40.4016 14.6222 39.8479 14.3616C39.2942 14.1009 38.8178 13.7161 38.4186 13.2071C38.0194 12.6982 37.8199 12.0341 37.8199 11.2148C37.8199 9.99827 38.277 9.04865 39.1912 8.36592C40.1054 7.67077 41.2964 7.3232 42.7643 7.3232C44.2579 7.3232 45.4619 7.67077 46.3761 8.36592C47.2903 9.04865 47.7797 10.0045 47.844 11.2334H44.2708C44.2451 10.8113 44.0841 10.4824 43.788 10.2465C43.4919 9.99827 43.112 9.87414 42.6484 9.87414C42.2492 9.87414 41.9274 9.97966 41.6827 10.1907C41.438 10.3893 41.3158 10.681 41.3158 11.0658C41.3158 11.4879 41.5218 11.8168 41.9338 12.0527C42.3458 12.2885 42.9897 12.543 43.8652 12.8161C44.7408 13.1016 45.449 13.3747 45.9898 13.6354C46.5435 13.8961 47.0199 14.2746 47.4191 14.7712C47.8183 15.2678 48.0178 15.907 48.0178 16.6891C48.0178 17.4339 47.8183 18.1103 47.4191 18.7186C47.0328 19.3269 46.4663 19.8111 45.7194 20.171C44.9725 20.5309 44.0906 20.711 43.0734 20.711ZM53.3531 11.6617C53.675 11.1775 54.1192 10.7865 54.6857 10.4886C55.2524 10.1907 55.9155 10.0417 56.6751 10.0417C57.5636 10.0417 58.3684 10.259 59.0894 10.6934C59.8106 11.1279 60.3771 11.7486 60.789 12.5554C61.214 13.3623 61.4264 14.2995 61.4264 15.367C61.4264 16.4345 61.214 17.378 60.789 18.1973C60.3771 19.0041 59.8106 19.631 59.0894 20.0779C58.3684 20.5123 57.5636 20.7296 56.6751 20.7296C55.9284 20.7296 55.2652 20.5806 54.6857 20.2827C54.1192 19.9848 53.675 19.5999 53.3531 19.1283V25.5336H50.0503V10.1907H53.3531V11.6617ZM58.0657 15.367C58.0657 14.5725 57.834 13.9519 57.3704 13.505C56.9198 13.0457 56.3597 12.8161 55.6901 12.8161C55.0334 12.8161 54.4733 13.0457 54.0097 13.505C53.5591 13.9643 53.3337 14.5912 53.3337 15.3857C53.3337 16.1802 53.5591 16.8069 54.0097 17.2663C54.4733 17.7256 55.0334 17.9552 55.6901 17.9552C56.3468 17.9552 56.9069 17.7256 57.3704 17.2663C57.834 16.7946 58.0657 16.1615 58.0657 15.367ZM66.4619 11.9223C66.8482 11.3513 67.3311 10.9044 67.9105 10.5817C68.4899 10.2465 69.1337 10.079 69.8419 10.079V13.4492H68.9342C68.11 13.4492 67.492 13.623 67.08 13.9705C66.6679 14.3057 66.4619 14.9015 66.4619 15.7581V20.5806H63.1592V10.1907H66.4619V11.9223ZM73.0815 9.11072C72.5021 9.11072 72.0257 8.94934 71.6522 8.6266C71.2918 8.29144 71.1114 7.8818 71.1114 7.39768C71.1114 6.90114 71.2918 6.4915 71.6522 6.16876C72.0257 5.8336 72.5021 5.66602 73.0815 5.66602C73.6481 5.66602 74.1117 5.8336 74.4721 6.16876C74.8456 6.4915 75.0322 6.90114 75.0322 7.39768C75.0322 7.8818 74.8456 8.29144 74.4721 8.6266C74.1117 8.94934 73.6481 9.11072 73.0815 9.11072ZM74.7232 10.1907V20.5806H71.4205V10.1907H74.7232ZM83.6836 10.079C84.9454 10.079 85.9497 10.4762 86.6966 11.2706C87.4563 12.0527 87.8361 13.1326 87.8361 14.5105V20.5806H84.5527V14.9388C84.5527 14.2437 84.366 13.7037 83.9926 13.3188C83.6192 12.934 83.1171 12.7416 82.4861 12.7416C81.8551 12.7416 81.3529 12.934 80.9796 13.3188C80.6062 13.7037 80.4195 14.2437 80.4195 14.9388V20.5806H77.1167V10.1907H80.4195V11.5686C80.7542 11.1093 81.205 10.7493 81.7715 10.4886C82.338 10.2155 82.9753 10.079 83.6836 10.079ZM94.2258 10.0417C94.9855 10.0417 95.6487 10.1907 96.2152 10.4886C96.7946 10.7865 97.2389 11.1775 97.5479 11.6617V10.1907H100.851V20.562C100.851 21.5178 100.651 22.3806 100.252 23.1502C99.8656 23.9322 99.2669 24.5529 98.4557 25.0122C97.6574 25.4715 96.6594 25.7011 95.4619 25.7011C93.8653 25.7011 92.5712 25.3349 91.5798 24.6026C90.5884 23.8825 90.0217 22.902 89.8801 21.6606H93.1442C93.2472 22.0578 93.4919 22.3682 93.8782 22.5916C94.2645 22.8275 94.7409 22.9454 95.3074 22.9454C95.9898 22.9454 96.5306 22.753 96.9298 22.3682C97.3418 21.9958 97.5479 21.3938 97.5479 20.562V19.091C97.2259 19.5752 96.7817 19.9723 96.2152 20.2827C95.6487 20.5806 94.9855 20.7296 94.2258 20.7296C93.3374 20.7296 92.5326 20.5123 91.8115 20.0779C91.0905 19.631 90.5175 19.0041 90.0926 18.1973C89.6806 17.378 89.4745 16.4345 89.4745 15.367C89.4745 14.2995 89.6806 13.3623 90.0926 12.5554C90.5175 11.7486 91.0905 11.1279 91.8115 10.6934C92.5326 10.259 93.3374 10.0417 94.2258 10.0417ZM97.5479 15.3857C97.5479 14.5912 97.3161 13.9643 96.8526 13.505C96.402 13.0457 95.8482 12.8161 95.1915 12.8161C94.5349 12.8161 93.9748 13.0457 93.5112 13.505C93.0606 13.9519 92.8352 14.5725 92.8352 15.367C92.8352 16.1615 93.0606 16.7946 93.5112 17.2663C93.9748 17.7256 94.5349 17.9552 95.1915 17.9552C95.8482 17.9552 96.402 17.7256 96.8526 17.2663C97.3161 16.8069 97.5479 16.1802 97.5479 15.3857ZM122.688 7.5094V20.5806H119.385V12.7416L116.353 20.5806H113.687L110.636 12.723V20.5806H107.333V7.5094H111.234L115.039 16.5587L118.806 7.5094H122.688ZM129.969 20.7296C128.913 20.7296 127.96 20.5123 127.11 20.0779C126.273 19.6435 125.61 19.0227 125.121 18.2159C124.644 17.4091 124.406 16.4656 124.406 15.3857C124.406 14.3182 124.651 13.3809 125.14 12.574C125.629 11.7548 126.299 11.1279 127.149 10.6934C127.999 10.259 128.951 10.0417 130.007 10.0417C131.063 10.0417 132.016 10.259 132.866 10.6934C133.716 11.1279 134.385 11.7548 134.875 12.574C135.364 13.3809 135.608 14.3182 135.608 15.3857C135.608 16.4532 135.357 17.3966 134.855 18.2159C134.366 19.0227 133.69 19.6435 132.827 20.0779C131.977 20.5123 131.025 20.7296 129.969 20.7296ZM129.969 17.9738C130.6 17.9738 131.134 17.7504 131.572 17.3035C132.022 16.8566 132.248 16.2174 132.248 15.3857C132.248 14.5539 132.029 13.9147 131.591 13.4678C131.166 13.0209 130.638 12.7975 130.007 12.7975C129.364 12.7975 128.829 13.0209 128.404 13.4678C127.979 13.9023 127.767 14.5416 127.767 15.3857C127.767 16.2174 127.973 16.8566 128.385 17.3035C128.81 17.7504 129.338 17.9738 129.969 17.9738ZM143.928 10.079C145.189 10.079 146.194 10.4762 146.941 11.2706C147.7 12.0527 148.079 13.1326 148.079 14.5105V20.5806H144.797V14.9388C144.797 14.2437 144.61 13.7037 144.237 13.3188C143.863 12.934 143.361 12.7416 142.73 12.7416C142.099 12.7416 141.597 12.934 141.224 13.3188C140.85 13.7037 140.663 14.2437 140.663 14.9388V20.5806H137.361V10.1907H140.663V11.5686C140.998 11.1093 141.449 10.7493 142.015 10.4886C142.582 10.2155 143.219 10.079 143.928 10.079ZM160.535 15.2181C160.535 15.516 160.515 15.8264 160.477 16.1491H153.002C153.053 16.7946 153.265 17.2911 153.64 17.6387C154.026 17.9738 154.495 18.1414 155.049 18.1414C155.873 18.1414 156.447 17.8063 156.768 17.1359H160.284C160.104 17.8187 159.775 18.4332 159.298 18.9793C158.834 19.5255 158.249 19.9537 157.54 20.2641C156.833 20.5745 156.04 20.7296 155.165 20.7296C154.109 20.7296 153.169 20.5123 152.345 20.0779C151.521 19.6435 150.878 19.0227 150.413 18.2159C149.95 17.4091 149.719 16.4656 149.719 15.3857C149.719 14.3057 149.944 13.3623 150.394 12.5554C150.857 11.7486 151.502 11.1279 152.326 10.6934C153.15 10.259 154.096 10.0417 155.165 10.0417C156.207 10.0417 157.135 10.2527 157.946 10.6748C158.757 11.0969 159.389 11.6989 159.839 12.4809C160.303 13.263 160.535 14.1754 160.535 15.2181ZM157.154 14.3802C157.154 13.834 156.961 13.3995 156.575 13.0768C156.188 12.754 155.706 12.5927 155.127 12.5927C154.572 12.5927 154.103 12.7478 153.717 13.0582C153.344 13.3685 153.111 13.8092 153.021 14.3802H157.154ZM173.285 10.1907L166.525 25.5149H162.972L165.445 20.2269L161.061 10.1907H164.749L167.241 16.6891L169.713 10.1907H173.285Z" fill="#272B2A"/>
  </g>
  <defs>
    <clipPath id="clip0_4657_44154">
      <rect width="172.667" height="28" fill="white" transform="translate(0.666016)"/>
    </clipPath>
  </defs>
</svg>