<svg width="34" height="12" viewBox="0 0 34 12" fill="none" xmlns="http://www.w3.org/2000/svg">
<rect width="34" height="12" fill="#CCCCCC"/>
<g id="Academy">
<path d="M-26168 -23766C-26168 -23767.1 -26167.1 -23768 -26166 -23768H15808C15809.1 -23768 15810 -23767.1 15810 -23766V9679C15810 9680.11 15809.1 9681 15808 9681H-26166C-26167.1 9681 -26168 9680.11 -26168 9679V-23766Z" fill="#777777"/>
<path d="M-26166 -23767H15808V-23769H-26166V-23767ZM15809 -23766V9679H15811V-23766H15809ZM15808 9680H-26166V9682H15808V9680ZM-26167 9679V-23766H-26169V9679H-26167ZM-26166 9680C-26166.6 9680 -26167 9679.55 -26167 9679H-26169C-26169 9680.66 -26167.7 9682 -26166 9682V9680ZM15809 9679C15809 9679.55 15808.6 9680 15808 9680V9682C15809.7 9682 15811 9680.66 15811 9679H15809ZM15808 -23767C15808.6 -23767 15809 -23766.6 15809 -23766H15811C15811 -23767.7 15809.7 -23769 15808 -23769V-23767ZM-26166 -23769C-26167.7 -23769 -26169 -23767.7 -26169 -23766H-26167C-26167 -23766.6 -26166.6 -23767 -26166 -23767V-23769Z" fill="black" fill-opacity="0.1"/>
<g id="Tools">
<path d="M-8350 -23466C-8350 -23467.1 -8349.1 -23468 -8348 -23468H15238C15239.1 -23468 15240 -23467.1 15240 -23466V8656C15240 8657.11 15239.1 8658 15238 8658H-8348C-8349.11 8658 -8350 8657.11 -8350 8656V-23466Z" fill="#888888"/>
<path d="M-8348 -23467H15238V-23469H-8348V-23467ZM15239 -23466V8656H15241V-23466H15239ZM15238 8657H-8348V8659H15238V8657ZM-8349 8656V-23466H-8351V8656H-8349ZM-8348 8657C-8348.55 8657 -8349 8656.55 -8349 8656H-8351C-8351 8657.66 -8349.66 8659 -8348 8659V8657ZM15239 8656C15239 8656.55 15238.6 8657 15238 8657V8659C15239.7 8659 15241 8657.66 15241 8656H15239ZM15238 -23467C15238.6 -23467 15239 -23466.6 15239 -23466H15241C15241 -23467.7 15239.7 -23469 15238 -23469V-23467ZM-8348 -23469C-8349.66 -23469 -8351 -23467.7 -8351 -23466H-8349C-8349 -23466.6 -8348.55 -23467 -8348 -23467V-23469Z" fill="black" fill-opacity="0.1"/>
<g id="Financial X-Ray">
<path d="M-8056 -4852C-8056 -4853.1 -8055.1 -4854 -8054 -4854H9893C9894.11 -4854 9895 -4853.1 9895 -4852V4018C9895 4019.1 9894.11 4020 9893 4020H-8054C-8055.1 4020 -8056 4019.1 -8056 4018V-4852Z" fill="#999999"/>
<path d="M-8054 -4853H9893V-4855H-8054V-4853ZM9894 -4852V4018H9896V-4852H9894ZM9893 4019H-8054V4021H9893V4019ZM-8055 4018V-4852H-8057V4018H-8055ZM-8054 4019C-8054.55 4019 -8055 4018.55 -8055 4018H-8057C-8057 4019.66 -8055.66 4021 -8054 4021V4019ZM9894 4018C9894 4018.55 9893.55 4019 9893 4019V4021C9894.66 4021 9896 4019.66 9896 4018H9894ZM9893 -4853C9893.55 -4853 9894 -4852.55 9894 -4852H9896C9896 -4853.66 9894.66 -4855 9893 -4855V-4853ZM-8054 -4855C-8055.66 -4855 -8057 -4853.66 -8057 -4852H-8055C-8055 -4852.55 -8054.55 -4853 -8054 -4853V-4855Z" fill="black" fill-opacity="0.1"/>
<g id="Insight 2 - Desktop/Tablet">
<rect width="1440" height="1868" transform="translate(-403 -532.5)" fill="#F2F5F4"/>
<g id="Frame">
<g id="frame 2">
<g id="Main">
<g id="tool frame">
<rect x="-53" y="-434.5" width="710" height="778" rx="8" fill="#FCFFFE"/>
<rect x="-52.75" y="-434.25" width="709.5" height="777.5" rx="7.75" stroke="#272B2A" stroke-opacity="0.25" stroke-width="0.5"/>
<g id="Frame 2325">
<g id="Frame 2117">
<g id="nav buttons">
<g id="CTA">
<rect x="-36.5" y="-16" width="106.5" height="44" rx="3.5" stroke="#108E66"/>
<path id="Arrow" d="M0.21967 5.46967C-0.0732233 5.76256 -0.0732233 6.23744 0.21967 6.53033L4.99264 11.3033C5.28553 11.5962 5.76041 11.5962 6.0533 11.3033C6.34619 11.0104 6.34619 10.5355 6.0533 10.2426L1.81066 6L6.0533 1.75736C6.34619 1.46447 6.34619 0.989593 6.0533 0.696699C5.76041 0.403806 5.28553 0.403806 4.99264 0.696699L0.21967 5.46967ZM32.75 6.75C33.1642 6.75 33.5 6.41421 33.5 6C33.5 5.58579 33.1642 5.25 32.75 5.25V6.75ZM0.75 6.75H32.75V5.25H0.75V6.75Z" fill="#108E66"/>
</g>
</g>
</g>
</g>
</g>
</g>
</g>
</g>
</g>
</g>
</g>
</g>
</svg>
