<svg xmlns="http://www.w3.org/2000/svg" width="24" height="25" viewBox="0 0 24 25" fill="none">
  <path d="M13.5295 8.72002C12.9571 9.12811 12.2566 9.36816 11.5 9.36816C9.567 9.36816 8 7.80116 8 5.86816C8 3.93517 9.567 2.36816 11.5 2.36816C12.753 2.36816 13.8522 3.02658 14.4705 4.01631M6 20.4553H8.61029C8.95063 20.4553 9.28888 20.4958 9.61881 20.5768L12.3769 21.247C12.9753 21.3928 13.5988 21.407 14.2035 21.2896L17.253 20.6963C18.0585 20.5393 18.7996 20.1536 19.3803 19.5887L21.5379 17.4899C22.154 16.8915 22.154 15.9206 21.5379 15.3212C20.9832 14.7816 20.1047 14.7209 19.4771 15.1785L16.9626 17.013C16.6025 17.2763 16.1643 17.418 15.7137 17.418H13.2855L14.8311 17.4179C15.7022 17.4179 16.4079 16.7315 16.4079 15.8841V15.5773C16.4079 14.8737 15.9156 14.2601 15.2141 14.09L12.8286 13.5099C12.4404 13.4157 12.0428 13.3682 11.6431 13.3682C10.6783 13.3682 8.93189 14.167 8.93189 14.167L6 15.393M20 6.86816C20 8.80116 18.433 10.3682 16.5 10.3682C14.567 10.3682 13 8.80116 13 6.86816C13 4.93517 14.567 3.36816 16.5 3.36816C18.433 3.36816 20 4.93517 20 6.86816ZM2 14.9682L2 20.7682C2 21.3282 2 21.6082 2.10899 21.8222C2.20487 22.0103 2.35785 22.1633 2.54601 22.2592C2.75992 22.3682 3.03995 22.3682 3.6 22.3682H4.4C4.96005 22.3682 5.24008 22.3682 5.45399 22.2592C5.64215 22.1633 5.79513 22.0103 5.89101 21.8222C6 21.6082 6 21.3282 6 20.7682V14.9682C6 14.4081 6 14.1281 5.89101 13.9142C5.79513 13.726 5.64215 13.573 5.45399 13.4772C5.24008 13.3682 4.96005 13.3682 4.4 13.3682L3.6 13.3682C3.03995 13.3682 2.75992 13.3682 2.54601 13.4772C2.35785 13.573 2.20487 13.726 2.10899 13.9142C2 14.1281 2 14.4081 2 14.9682Z" stroke="#108E66" stroke-width="2" stroke-linecap="round" stroke-linejoin="round"/>
</svg>