<svg id="Layer_1" data-name="Layer 1" xmlns="http://www.w3.org/2000/svg" viewBox="0 0 784.98 156.11"><defs><style>.cls-1{fill:#993f90;}.cls-2{fill:#624198;}.cls-3{fill:#564c58;}</style></defs><polygon class="cls-1" points="3.29 2.27 3.29 52.59 104.39 52.59 104.39 153.68 154.7 153.68 154.7 2.27 3.29 2.27"/><polygon class="cls-2" points="32.02 124.96 32.02 88.08 3.29 67.4 3.29 153.68 89.58 153.68 68.9 124.96 32.02 124.96"/><path class="cls-2" d="M208,89.88H242.3v16.56H187.08V2.27H208Z"/><path class="cls-2" d="M266.66,102.49a38.1,38.1,0,0,1-15-15,44.87,44.87,0,0,1-5.45-22.39,44,44,0,0,1,5.6-22.38,38.82,38.82,0,0,1,15.29-15,46.83,46.83,0,0,1,43.28,0,38.84,38.84,0,0,1,15.3,15,44,44,0,0,1,5.6,22.38,43.11,43.11,0,0,1-5.75,22.39,39.73,39.73,0,0,1-15.52,15,45.15,45.15,0,0,1-21.86,5.3A43.55,43.55,0,0,1,266.66,102.49Zm32.16-15.67a20.07,20.07,0,0,0,8-8.28,27.92,27.92,0,0,0,3-13.44q0-11.77-6.2-18.13a20.36,20.36,0,0,0-15.15-6.34,19.85,19.85,0,0,0-15,6.34q-6,6.35-6.05,18.13t5.9,18.14a19.4,19.4,0,0,0,14.85,6.34A21.76,21.76,0,0,0,298.82,86.82Z"/><path class="cls-2" d="M344.27,42.57a36.74,36.74,0,0,1,13.58-14.93A36.19,36.19,0,0,1,377,22.42a33.74,33.74,0,0,1,16.19,3.73,32.81,32.81,0,0,1,11.12,9.4V23.76h21.05v82.68H404.34V94.36A31,31,0,0,1,393.22,104a34,34,0,0,1-16.34,3.81,35.09,35.09,0,0,1-19-5.38,37.67,37.67,0,0,1-13.58-15.14,48.71,48.71,0,0,1-5-22.46A47.9,47.9,0,0,1,344.27,42.57Zm57.09,9.48a21,21,0,0,0-8.06-8.36,21.55,21.55,0,0,0-10.9-2.91,21.13,21.13,0,0,0-10.74,2.83,21.42,21.42,0,0,0-8,8.29,25.92,25.92,0,0,0-3.05,12.91,26.77,26.77,0,0,0,3.05,13,22.09,22.09,0,0,0,8.06,8.59,20.48,20.48,0,0,0,10.67,3,21.55,21.55,0,0,0,10.9-2.91,21,21,0,0,0,8.06-8.36,26.78,26.78,0,0,0,3-13.06A26.77,26.77,0,0,0,401.36,52.05Z"/><path class="cls-2" d="M512.44,31.9q9.09,9.33,9.1,26v48.5H500.65V60.78q0-9.86-4.93-15.15t-13.43-5.3q-8.66,0-13.66,5.3t-5,15.15v45.66h-20.9V23.76h20.9v10.3a28.82,28.82,0,0,1,10.67-8.43,33,33,0,0,1,14.25-3.06Q503.34,22.57,512.44,31.9Z"/><path class="cls-1" d="M597.59,2.27V19.14H569.83v87.3H548.94V19.14H521.18V2.27Z"/><path class="cls-1" d="M598,42.57a36.67,36.67,0,0,1,13.58-14.93,36.17,36.17,0,0,1,19.18-5.22,33.77,33.77,0,0,1,16.19,3.73,32.9,32.9,0,0,1,11.12,9.4V23.76h21v82.68h-21V94.36A31.18,31.18,0,0,1,646.93,104a34,34,0,0,1-16.34,3.81,35.06,35.06,0,0,1-19-5.38A37.59,37.59,0,0,1,598,87.27a48.59,48.59,0,0,1-5-22.46A47.78,47.78,0,0,1,598,42.57Zm57.08,9.48a21,21,0,0,0-8-8.36,21.58,21.58,0,0,0-10.9-2.91,21.13,21.13,0,0,0-10.74,2.83,21.35,21.35,0,0,0-8,8.29,25.93,25.93,0,0,0-3.06,12.91,26.77,26.77,0,0,0,3.06,13,22.09,22.09,0,0,0,8.06,8.59,20.46,20.46,0,0,0,10.67,3A21.58,21.58,0,0,0,647,86.52a21,21,0,0,0,8-8.36,26.78,26.78,0,0,0,3-13.06A26.77,26.77,0,0,0,655.06,52.05Z"/><path class="cls-1" d="M728.46,26.23a33.64,33.64,0,0,1,16.19-3.81,36.17,36.17,0,0,1,19.18,5.22,36.83,36.83,0,0,1,13.58,14.85,47.81,47.81,0,0,1,5,22.32,48.71,48.71,0,0,1-5,22.46,37.59,37.59,0,0,1-13.58,15.14,35.33,35.33,0,0,1-19.18,5.38,33.44,33.44,0,0,1-16-3.73,34.38,34.38,0,0,1-11.27-9.41v51.19H696.45V23.76h20.89V35.7A31.65,31.65,0,0,1,728.46,26.23ZM758,51.9A21.24,21.24,0,0,0,750,43.61a21.56,21.56,0,0,0-10.82-2.83,20.86,20.86,0,0,0-10.67,2.91,21.63,21.63,0,0,0-8.06,8.43,26.36,26.36,0,0,0-3.06,13,26.37,26.37,0,0,0,3.06,13,21.63,21.63,0,0,0,8.06,8.43A21.08,21.08,0,0,0,750,86.45,22.2,22.2,0,0,0,758,77.94a26.69,26.69,0,0,0,3.06-13.13A25.93,25.93,0,0,0,758,51.9Z"/><path class="cls-3" d="M202.7,126V129h-12v9.32h9.76v2.94h-9.76v12.46h-3.61V126Z"/><path class="cls-3" d="M209.34,136.86a9.71,9.71,0,0,1,3.71-3.91,10.19,10.19,0,0,1,5.25-1.38,9.63,9.63,0,0,1,5,1.23,8.18,8.18,0,0,1,3.14,3.09v-4h3.65v21.75H226.4v-4a8.59,8.59,0,0,1-3.2,3.16,9.57,9.57,0,0,1-4.94,1.25,9.83,9.83,0,0,1-8.92-5.44,12.48,12.48,0,0,1-1.35-5.87A12.22,12.22,0,0,1,209.34,136.86Zm16.07,1.61a7.09,7.09,0,0,0-2.68-2.8,7.61,7.61,0,0,0-7.4,0,6.93,6.93,0,0,0-2.66,2.78,8.88,8.88,0,0,0-1,4.29,9.06,9.06,0,0,0,1,4.34,7,7,0,0,0,2.66,2.82,7.16,7.16,0,0,0,3.69,1,7.29,7.29,0,0,0,3.71-1,7.08,7.08,0,0,0,2.68-2.82,9.81,9.81,0,0,0,0-8.59Z"/><path class="cls-3" d="M242.42,153.17a7.52,7.52,0,0,1-3.13-2.38,6.33,6.33,0,0,1-1.27-3.51h3.73a3.64,3.64,0,0,0,1.53,2.66,5.77,5.77,0,0,0,3.59,1,5.21,5.21,0,0,0,3.25-.91,2.8,2.8,0,0,0,1.19-2.3,2.27,2.27,0,0,0-1.27-2.13,18.1,18.1,0,0,0-3.93-1.37,28.22,28.22,0,0,1-4-1.29,7,7,0,0,1-2.62-1.94,5.5,5.5,0,0,1-.09-6.45,6.76,6.76,0,0,1,2.81-2.2,10.21,10.21,0,0,1,4.17-.81,8.92,8.92,0,0,1,5.83,1.82,6.58,6.58,0,0,1,2.38,5H251a3.72,3.72,0,0,0-1.37-2.74,6.06,6.06,0,0,0-6.44-.2,2.6,2.6,0,0,0-1.16,2.19,2.4,2.4,0,0,0,.7,1.76,4.78,4.78,0,0,0,1.75,1.11c.7.28,1.67.59,2.91.94a31,31,0,0,1,3.81,1.25,6.63,6.63,0,0,1,2.52,1.84,4.91,4.91,0,0,1,1.09,3.22,5.49,5.49,0,0,1-1,3.21,6.57,6.57,0,0,1-2.8,2.24,10,10,0,0,1-4.14.82A11.24,11.24,0,0,1,242.42,153.17Z"/><path class="cls-3" d="M267.25,134.9v12.82a3.06,3.06,0,0,0,.68,2.24,3.36,3.36,0,0,0,2.34.65h2.66v3.06h-3.26a6.45,6.45,0,0,1-4.52-1.39c-1-.93-1.51-2.45-1.51-4.56V134.9h-2.81v-3h2.81v-5.47h3.61v5.47h5.68v3Z"/><path class="cls-3" d="M284.58,149.22v4.45h-4.32v-4.45Z"/><path class="cls-3" d="M322.91,126V129h-12v9.32h9.76v2.94h-9.76v12.46h-3.61V126Z"/><path class="cls-3" d="M333.63,124.3v29.37H330V124.3Z"/><path class="cls-3" d="M362.73,144.15H345.35a6.84,6.84,0,0,0,7.06,6.82,6.65,6.65,0,0,0,3.91-1.09,5.81,5.81,0,0,0,2.21-2.92h3.88a9.32,9.32,0,0,1-3.49,5.1,10.52,10.52,0,0,1-6.51,2,11,11,0,0,1-5.53-1.39,9.84,9.84,0,0,1-3.83-3.95,12.2,12.2,0,0,1-1.39-5.93,12.46,12.46,0,0,1,1.35-5.92,9.52,9.52,0,0,1,3.79-3.91,11.31,11.31,0,0,1,5.61-1.36,10.91,10.91,0,0,1,5.48,1.35,9.23,9.23,0,0,1,3.67,3.71,10.92,10.92,0,0,1,1.29,5.33A21.23,21.23,0,0,1,362.73,144.15Zm-4.52-6.49a5.94,5.94,0,0,0-2.48-2.26,7.69,7.69,0,0,0-3.47-.78,6.69,6.69,0,0,0-4.67,1.75,7.14,7.14,0,0,0-2.2,4.84h13.73A6.63,6.63,0,0,0,358.21,137.66Z"/><path class="cls-3" d="M381.6,153.67l-5.16-8.1-5,8.1h-3.77l7-10.79-7-11h4.09L377,140l4.92-8.06h3.77l-7,10.76,7,11Z"/><path class="cls-3" d="M392.54,127.68a2.37,2.37,0,0,1-.71-1.75,2.33,2.33,0,0,1,.71-1.74,2.38,2.38,0,0,1,1.75-.72,2.24,2.24,0,0,1,1.68.72,2.4,2.4,0,0,1,.7,1.74,2.44,2.44,0,0,1-.7,1.75,2.27,2.27,0,0,1-1.68.71A2.41,2.41,0,0,1,392.54,127.68Zm3.49,4.24v21.75h-3.61V131.92Z"/><path class="cls-3" d="M412.09,132.8a9.62,9.62,0,0,1,4.88-1.23,10.22,10.22,0,0,1,5.28,1.38,9.87,9.87,0,0,1,3.69,3.91,12.33,12.33,0,0,1,1.35,5.86,12.6,12.6,0,0,1-1.35,5.87,9.89,9.89,0,0,1-9,5.44A9.66,9.66,0,0,1,412,152.8a8.4,8.4,0,0,1-3.2-3.14v4h-3.61V124.3h3.61V136A8.5,8.5,0,0,1,412.09,132.8Zm10.51,5.63a6.85,6.85,0,0,0-2.68-2.78,7.45,7.45,0,0,0-3.71-1,7.32,7.32,0,0,0-3.67,1,7.2,7.2,0,0,0-2.7,2.82,9.59,9.59,0,0,0,0,8.57,7.35,7.35,0,0,0,10.08,2.82,7,7,0,0,0,2.68-2.82,9.06,9.06,0,0,0,1-4.34A8.88,8.88,0,0,0,422.6,138.43Z"/><path class="cls-3" d="M438.88,124.3v29.37h-3.61V124.3Z"/><path class="cls-3" d="M468,144.15H450.6a6.84,6.84,0,0,0,7.06,6.82,6.65,6.65,0,0,0,3.91-1.09,5.81,5.81,0,0,0,2.21-2.92h3.88a9.32,9.32,0,0,1-3.49,5.1,10.52,10.52,0,0,1-6.51,2,11,11,0,0,1-5.53-1.39,9.91,9.91,0,0,1-3.83-3.95,12.2,12.2,0,0,1-1.39-5.93,12.46,12.46,0,0,1,1.35-5.92,9.52,9.52,0,0,1,3.79-3.91,11.31,11.31,0,0,1,5.61-1.36,10.91,10.91,0,0,1,5.48,1.35,9.23,9.23,0,0,1,3.67,3.71A10.92,10.92,0,0,1,468.1,142,21.23,21.23,0,0,1,468,144.15Zm-4.52-6.49A5.94,5.94,0,0,0,461,135.4a7.69,7.69,0,0,0-3.47-.78,6.69,6.69,0,0,0-4.67,1.75,7.14,7.14,0,0,0-2.2,4.84h13.73A6.63,6.63,0,0,0,463.46,137.66Z"/><path class="cls-3" d="M478.93,149.22v4.45H474.6v-4.45Z"/><path class="cls-3" d="M517.26,126V129h-12v9.32H515v2.94h-9.77v12.46h-3.61V126Z"/><path class="cls-3" d="M529.52,132.56a8.35,8.35,0,0,1,4.3-1v3.73h-1q-6.07,0-6.07,6.58v11.83h-3.61V131.92h3.61v3.53A6.9,6.9,0,0,1,529.52,132.56Z"/><path class="cls-3" d="M541,127.68a2.41,2.41,0,0,1-.71-1.75,2.44,2.44,0,0,1,2.46-2.46,2.28,2.28,0,0,1,1.69.72,2.39,2.39,0,0,1,.69,1.74,2.43,2.43,0,0,1-.69,1.75,2.3,2.3,0,0,1-1.69.71A2.41,2.41,0,0,1,541,127.68Zm3.5,4.24v21.75h-3.61V131.92Z"/><path class="cls-3" d="M573.36,144.15H556A6.84,6.84,0,0,0,563,151a6.65,6.65,0,0,0,3.91-1.09,5.73,5.73,0,0,0,2.2-2.92H573a9.32,9.32,0,0,1-3.49,5.1,10.56,10.56,0,0,1-6.51,2,11,11,0,0,1-5.53-1.39,9.84,9.84,0,0,1-3.83-3.95,12.2,12.2,0,0,1-1.39-5.93,12.46,12.46,0,0,1,1.35-5.92,9.52,9.52,0,0,1,3.79-3.91,11.28,11.28,0,0,1,5.61-1.36,10.91,10.91,0,0,1,5.48,1.35,9.23,9.23,0,0,1,3.67,3.71,10.92,10.92,0,0,1,1.29,5.33A21.23,21.23,0,0,1,573.36,144.15Zm-4.52-6.49a5.94,5.94,0,0,0-2.48-2.26,7.73,7.73,0,0,0-3.48-.78,6.67,6.67,0,0,0-4.66,1.75,7.1,7.1,0,0,0-2.2,4.84h13.73A6.72,6.72,0,0,0,568.84,137.66Z"/><path class="cls-3" d="M598.44,133.93q2.46,2.4,2.46,6.92v12.82h-3.57v-12.3a7,7,0,0,0-1.63-5,5.8,5.8,0,0,0-4.44-1.73,5.93,5.93,0,0,0-4.54,1.79,7.27,7.27,0,0,0-1.69,5.2v12h-3.61V131.92H585V135a7.17,7.17,0,0,1,2.92-2.58,9,9,0,0,1,4.06-.91A8.81,8.81,0,0,1,598.44,133.93Z"/><path class="cls-3" d="M610,136.86a9.78,9.78,0,0,1,3.71-3.91,10.3,10.3,0,0,1,5.3-1.38,9.85,9.85,0,0,1,4.72,1.17,8.47,8.47,0,0,1,3.33,3.07V124.3h3.65v29.37H627v-4.09a8.46,8.46,0,0,1-3.17,3.2,9.52,9.52,0,0,1-4.92,1.25,9.89,9.89,0,0,1-9-5.44,12.48,12.48,0,0,1-1.35-5.87A12.22,12.22,0,0,1,610,136.86ZM626,138.47a7,7,0,0,0-2.68-2.8,7.61,7.61,0,0,0-7.4,0,6.93,6.93,0,0,0-2.66,2.78,8.88,8.88,0,0,0-1,4.29,9.06,9.06,0,0,0,1,4.34,7,7,0,0,0,2.66,2.82,7.16,7.16,0,0,0,3.69,1,7.26,7.26,0,0,0,3.71-1,7,7,0,0,0,2.68-2.82,9.81,9.81,0,0,0,0-8.59Z"/><path class="cls-3" d="M643.42,124.3v29.37h-3.61V124.3Z"/><path class="cls-3" d="M671.46,131.92l-13.1,32h-3.73l4.29-10.48-8.77-21.51h4L661,149.54l6.75-17.62Z"/><path class="cls-3" d="M679.11,149.22v4.45h-4.32v-4.45Z"/></svg>