<svg width="40.000000" height="40.000000" viewBox="0 0 40 40" fill="none" xmlns="http://www.w3.org/2000/svg" xmlns:xlink="http://www.w3.org/1999/xlink">
	<desc>
			Created with Pixso.
	</desc>
	<defs>
		<clipPath id="clip4079_9101">
			<rect id="pay 2" width="40.000000" height="40.000000" fill="white" fill-opacity="0"/>
		</clipPath>
	</defs>
	<rect id="pay 2" width="40.000000" height="40.000000" fill="#FFFFFF" fill-opacity="0"/>
	<g clip-path="url(#clip4079_9101)">
		<path id="Vector" d="M35 8.75L38.75 8.75L38.75 22.5L35 22.5L35 8.75Z" fill="#2A70AB" fill-opacity="1.000000" fill-rule="nonzero"/>
		<path id="Vector" d="M32.5 9.375L35 9.375L35 20.625L32.5 20.625L32.5 9.375Z" fill="#4DB7E5" fill-opacity="1.000000" fill-rule="nonzero"/>
		<path id="Vector" d="M32.5 11.25L30 11.25L25.625 9.375L21.25 9.375L21.25 20.625L28.125 20.625L30 18.75L32.5 18.75L32.5 11.25Z" fill="#FF9F9B" fill-opacity="1.000000" fill-rule="nonzero"/>
		<path id="Vector" d="M18.125 1.875L4.37524 9.20825L15.6252 29.8333L29.375 22.5L18.125 1.875Z" fill="#448703" fill-opacity="1.000000" fill-rule="nonzero"/>
		<path id="Vector" d="M15.8223 19.8408L11.45 22.175L9.0813 17.8374L13.457 15.5044L15.8223 19.8408Z" fill="#F98500" fill-opacity="1.000000" fill-rule="nonzero"/>
		<path id="Vector" d="M18.125 1.875L8.75 6.875L20 27.5L29.375 22.5L18.125 1.875Z" fill="#95CB37" fill-opacity="1.000000" fill-rule="nonzero"/>
		<path id="Vector" d="M13.1626 4.5249C13.7822 5.68726 13.918 7.04736 13.5398 8.30908C13.1616 9.57104 12.3005 10.6323 11.1438 11.2625L8.75 6.875L13.1626 4.5249Z" fill="#6DBB24" fill-opacity="1.000000" fill-rule="nonzero"/>
		<path id="Vector" d="M18.1255 6.875C17.2183 6.87671 16.3281 6.63086 15.5505 6.16382C14.7729 5.69678 14.1375 5.02661 13.7129 4.2251L18.1255 1.875L20.519 6.26245C19.7854 6.66479 18.9622 6.87549 18.1255 6.875Z" fill="#6DBB24" fill-opacity="1.000000" fill-rule="nonzero"/>
		<path id="Vector" d="M24.4124 25.1499L20 27.5L17.6062 23.1125C18.186 22.7954 18.823 22.5964 19.4802 22.5273C20.1375 22.4583 20.8018 22.5203 21.4348 22.7097C22.0679 22.8994 22.6572 23.2126 23.1682 23.6313C23.6794 24.0503 24.1023 24.5664 24.4124 25.1499Z" fill="#6DBB24" fill-opacity="1.000000" fill-rule="nonzero"/>
		<path id="Vector" d="M29.375 22.5L24.9624 24.8501C24.3428 23.6877 24.207 22.3276 24.5852 21.0659C24.9634 19.804 25.8245 18.7427 26.9812 18.1125L29.375 22.5Z" fill="#6DBB24" fill-opacity="1.000000" fill-rule="nonzero"/>
		<path id="Vector" d="M25.1938 14.8376L15.8223 19.8408L13.457 15.5046L22.8313 10.5063L25.1938 14.8376Z" fill="#FCA713" fill-opacity="1.000000" fill-rule="nonzero"/>
		<path id="Vector" d="M21.2495 14.375C20.9182 14.7065 20.7324 15.1562 20.7324 15.6248C20.7324 16.0935 20.9187 16.543 21.2502 16.8743C21.5815 17.2058 22.031 17.3921 22.4998 17.3921C22.9685 17.3923 23.418 17.2063 23.7495 16.875L26.2495 14.375C26.9126 15.0381 27.8118 15.4104 28.7495 15.4104C29.6873 15.4104 30.5864 15.0381 31.2495 14.375L32.4995 13.125L32.4995 11.25L29.9995 11.25L25.6245 9.375L22.2156 9.375L23.6328 11.9917L21.2495 14.375Z" fill="#FFDAD2" fill-opacity="1.000000" fill-rule="nonzero"/>
		<path id="Vector" d="M1.25 26.875L3.75 26.875L3.75 38.125L1.25 38.125L1.25 26.875Z" fill="#2A70AB" fill-opacity="1.000000" fill-rule="nonzero"/>
		<path id="Vector" d="M3.75 28.125L6.25 28.125L6.25 36.875L3.75 36.875L3.75 28.125Z" fill="#4DB7E5" fill-opacity="1.000000" fill-rule="nonzero"/>
		<path id="Vector" d="M13.75 30L14.375 30.625L18.125 30.625C18.6223 30.625 19.0991 30.8225 19.4509 31.1743C19.8025 31.5259 20 32.0027 20 32.5C20 32.9973 19.8025 33.4744 19.4509 33.8259C19.0991 34.1775 18.6223 34.375 18.125 34.375L28.125 34.375C28.6223 34.375 29.0991 34.5725 29.4509 34.9243C29.8025 35.2759 30 35.7527 30 36.25C30 36.7473 29.8025 37.2244 29.4509 37.5759C29.0991 37.9275 28.6223 38.125 28.125 38.125L14.5068 38.125C11.5681 38.125 8.69531 37.2551 6.25 35.625L6.25 30C6.74243 29.5076 7.32715 29.1169 7.97046 28.8506C8.61401 28.584 9.30347 28.4468 10 28.4468C10.6965 28.4468 11.386 28.584 12.0295 28.8506C12.6729 29.1169 13.2576 29.5076 13.75 30Z" fill="#FFDAD2" fill-opacity="1.000000" fill-rule="nonzero"/>
		<path id="Vector" d="M12.5 35C12.5 35.1658 12.5659 35.3247 12.6831 35.4419C12.8003 35.5591 12.9592 35.625 13.125 35.625L18.125 35.625C18.2908 35.625 18.4497 35.5591 18.5669 35.4419C18.6841 35.3247 18.75 35.1658 18.75 35C18.75 34.8342 18.6841 34.6753 18.5669 34.5581C18.4497 34.4409 18.2908 34.375 18.125 34.375L13.125 34.375C12.9592 34.375 12.8003 34.4409 12.6831 34.5581C12.5659 34.6753 12.5 34.8342 12.5 35Z" fill="#FF9F9B" fill-opacity="1.000000" fill-rule="nonzero"/>
	</g>
</svg>
