<svg xmlns="http://www.w3.org/2000/svg" width="26" height="32" viewBox="0 0 26 32" fill="none">
  <path d="M21.76 11.232V9.33331C21.76 4.17869 17.7485 0 12.8 0C7.85149 0 3.84001 4.17869 3.84001 9.33331V11.232C1.51044 12.2911 0.00336001 14.6857 0 17.3333V25.3333C0.00420001 29.0134 2.8671 31.9956 6.39997 32H19.2C22.7328 31.9956 25.5957 29.0134 25.6 25.3333V17.3333C25.5967 14.6857 24.0896 12.2911 21.76 11.232ZM14.08 22.6667C14.08 23.4031 13.5069 24 12.8 24C12.0931 24 11.52 23.4031 11.52 22.6667V20C11.52 19.2636 12.0931 18.6667 12.8 18.6667C13.5069 18.6667 14.08 19.2636 14.08 20V22.6667ZM19.2 10.6667H6.39997V9.33337C6.39997 5.6515 9.26534 2.66669 12.8 2.66669C16.3347 2.66669 19.2 5.65144 19.2 9.33337V10.6667Z" fill="#B4B4B4"/>
</svg>