<svg xmlns="http://www.w3.org/2000/svg" width="115" height="48" viewBox="0 0 115 48" fill="none">
  <path d="M2.72721 2.7138H0C0 5.33551 1.06839 7.71047 2.79667 9.42924C4.52496 11.148 6.91314 12.2104 9.54936 12.2104V18.3173C9.54936 18.5032 9.62546 18.6726 9.74948 18.796C9.87355 18.9193 10.0439 18.995 10.2324 18.995H11.5968C11.7837 18.995 11.9541 18.9193 12.0781 18.796C12.2022 18.6726 12.2782 18.5032 12.2782 18.3173V12.2104C12.2782 9.58877 11.2099 7.21377 9.48158 5.49504C7.75327 3.7763 5.36513 2.7138 2.72721 2.7138ZM19.1004 0C17.3043 0 15.6273 0.493419 14.1934 1.35032C12.7612 2.20722 11.572 3.42761 10.7567 4.88486C11.3471 5.52463 11.8598 6.23353 12.2849 6.99832C12.7083 7.7631 13.0407 8.58382 13.2722 9.44732C15.6736 9.19897 17.8137 8.06575 19.3518 6.37991C20.8899 4.69569 21.8276 2.45722 21.8276 0H19.1004Z" fill="#12F2A2"/>
  <path d="M17.2232 20.8671C17.3655 20.8671 17.4928 20.8096 17.5854 20.7174C17.678 20.6254 17.736 20.4987 17.736 20.3573V18.6615C17.736 18.5218 17.678 18.3934 17.5854 18.3014C17.4928 18.2093 17.3655 18.1533 17.2232 18.1533H4.6043C4.46206 18.1533 4.33472 18.2093 4.24213 18.3014C4.1495 18.3934 4.09161 18.5218 4.09161 18.6615V20.5596C4.09161 20.6994 4.1495 20.826 4.24213 20.9181C4.33472 21.0102 4.46206 21.0678 4.6043 21.0678H8.23947C8.82165 21.0678 9.336 21.1731 9.77262 21.3704C10.2092 21.5678 10.5681 21.8573 10.8394 22.2224H4.6043C4.46206 22.2224 4.33472 22.2799 4.24213 22.3721C4.1495 22.4641 4.09161 22.5908 4.09161 22.7322V24.428C4.09161 24.5677 4.1495 24.6961 4.24213 24.7882C4.33472 24.8802 4.46206 24.9362 4.6043 24.9362H11.3719C11.2396 25.701 10.889 26.3227 10.3482 26.7536C9.80733 27.1829 9.07633 27.423 8.18491 27.423H4.6043C4.46206 27.423 4.33472 27.4789 4.24213 27.571C4.1495 27.6631 4.09161 27.7914 4.09161 27.9312V30.1796C4.09161 30.2503 4.1065 30.3194 4.13461 30.3835C4.16273 30.4477 4.20406 30.5052 4.25699 30.5529L11.2941 37.0134C11.3405 37.0562 11.395 37.0907 11.4546 37.1121C11.5141 37.1351 11.577 37.1483 11.6415 37.1483H15.1609C15.3941 37.1483 15.5661 37.0052 15.6372 36.8243C15.7083 36.6433 15.6785 36.4213 15.5082 36.2651L9.07469 30.3605C10.7054 30.3095 12.1029 29.7437 13.1316 28.7963C14.1603 27.8474 14.8185 26.5168 14.9723 24.9362H17.2232C17.3655 24.9362 17.4928 24.8802 17.5854 24.7882C17.678 24.6961 17.736 24.5677 17.736 24.428V22.7322C17.736 22.5908 17.678 22.4641 17.5854 22.3721C17.4928 22.2799 17.3655 22.2224 17.2232 22.2224H14.7209C14.6465 21.979 14.5589 21.7421 14.458 21.5168C14.3555 21.2898 14.2413 21.0727 14.114 20.8671H17.2232Z" fill="#12F2A2"/>
  <path d="M32.4305 37.3351C31.0516 37.3351 29.816 37.1125 28.7236 36.6673C27.6313 36.2221 26.7538 35.5632 26.0912 34.6905C25.4466 33.8179 25.1063 32.7672 25.0705 31.5384H29.9593C30.0309 32.2329 30.2726 32.7672 30.6845 33.1412C31.0964 33.4973 31.6336 33.6754 32.2962 33.6754C32.9767 33.6754 33.5139 33.524 33.9079 33.2213C34.3018 32.9008 34.4988 32.4645 34.4988 31.9124C34.4988 31.4494 34.3376 31.0664 34.0153 30.7637C33.7109 30.461 33.3259 30.2116 32.8603 30.0157C32.4126 29.8199 31.7679 29.5972 30.9263 29.3479C29.7085 28.9739 28.7147 28.6 27.9447 28.226C27.1746 27.852 26.512 27.2999 25.9569 26.5698C25.4018 25.8396 25.1242 24.8868 25.1242 23.7115C25.1242 21.9662 25.7599 20.6039 27.0314 19.6244C28.3028 18.6271 29.9593 18.1284 32.0007 18.1284C34.078 18.1284 35.7523 18.6271 37.0238 19.6244C38.2952 20.6039 38.9757 21.9751 39.0652 23.7382H34.0959C34.0601 23.1327 33.8362 22.6608 33.4244 22.3224C33.0125 21.9662 32.4842 21.7881 31.8395 21.7881C31.2844 21.7881 30.8367 21.9395 30.4965 22.2422C30.1562 22.5272 29.9861 22.9457 29.9861 23.4978C29.9861 24.1033 30.2726 24.5752 30.8457 24.9136C31.4187 25.2519 32.3141 25.617 33.5318 26.0088C34.7495 26.4184 35.7344 26.8102 36.4866 27.1842C37.2565 27.5581 37.9191 28.1013 38.4743 28.8137C39.0294 29.526 39.307 30.4432 39.307 31.5651C39.307 32.6336 39.0294 33.6042 38.4743 34.4768C37.9371 35.3495 37.1491 36.044 36.1105 36.5604C35.0718 37.0769 33.8452 37.3351 32.4305 37.3351ZM46.7269 24.3526C47.1748 23.658 47.7926 23.0971 48.5804 22.6697C49.3686 22.2422 50.2907 22.0285 51.3471 22.0285C52.5827 22.0285 53.702 22.3402 54.7047 22.9635C55.7078 23.5868 56.4956 24.4773 57.0685 25.6348C57.6595 26.7924 57.955 28.1369 57.955 29.6685C57.955 31.2 57.6595 32.5535 57.0685 33.7289C56.4956 34.8864 55.7078 35.7858 54.7047 36.4269C53.702 37.0502 52.5827 37.3618 51.3471 37.3618C50.3087 37.3618 49.3862 37.1481 48.5804 36.7207C47.7926 36.2933 47.1748 35.7412 46.7269 35.0645V44.2538H42.1336V22.2422H46.7269V24.3526ZM53.2811 29.6685C53.2811 28.5287 52.9587 27.6383 52.3141 26.9972C51.6875 26.3382 50.9085 26.0088 49.9771 26.0088C49.0639 26.0088 48.2849 26.3382 47.6402 26.9972C47.0136 27.6561 46.7001 28.5554 46.7001 29.6952C46.7001 30.835 47.0136 31.7343 47.6402 32.3932C48.2849 33.0521 49.0639 33.3816 49.9771 33.3816C50.8904 33.3816 51.6694 33.0521 52.3141 32.3932C52.9587 31.7165 53.2811 30.8082 53.2811 29.6685ZM64.9582 24.7266C65.4954 23.9073 66.167 23.2662 66.9728 22.8032C67.7786 22.3224 68.6739 22.082 69.6589 22.082V26.917H68.3965C67.2502 26.917 66.3907 27.1663 65.8178 27.665C65.2444 28.1458 64.9582 29.0006 64.9582 30.2294V37.1481H60.3649V22.2422H64.9582V24.7266ZM74.1645 20.6929C73.3587 20.6929 72.6959 20.4614 72.1768 19.9983C71.6752 19.5175 71.4246 18.9298 71.4246 18.2353C71.4246 17.5229 71.6752 16.9352 72.1768 16.4722C72.6959 15.9914 73.3587 15.751 74.1645 15.751C74.9523 15.751 75.597 15.9914 76.0985 16.4722C76.6177 16.9352 76.8775 17.5229 76.8775 18.2353C76.8775 18.9298 76.6177 19.5175 76.0985 19.9983C75.597 20.4614 74.9523 20.6929 74.1645 20.6929ZM76.4477 22.2422V37.1481H71.8544V22.2422H76.4477ZM88.9093 22.082C90.6641 22.082 92.0608 22.6518 93.0996 23.7916C94.156 24.9136 94.6844 26.4629 94.6844 28.4397V37.1481H90.118V29.0541C90.118 28.0568 89.8582 27.2821 89.339 26.73C88.8194 26.178 88.121 25.9019 87.2439 25.9019C86.3662 25.9019 85.6679 26.178 85.1487 26.73C84.6291 27.2821 84.3697 28.0568 84.3697 29.0541V37.1481H79.7764V22.2422H84.3697V24.219C84.8352 23.5601 85.4618 23.0436 86.25 22.6697C87.0378 22.2778 87.9242 22.082 88.9093 22.082ZM103.571 22.0285C104.627 22.0285 105.549 22.2422 106.338 22.6697C107.143 23.0971 107.761 23.658 108.191 24.3526V22.2422H112.784V37.1214C112.784 38.4927 112.507 39.7304 111.952 40.8345C111.414 41.9565 110.582 42.8468 109.454 43.5058C108.343 44.1649 106.955 44.4942 105.29 44.4942C103.069 44.4942 101.27 43.9687 99.8909 42.9181C98.5118 41.8851 97.724 40.4784 97.5271 38.6975H102.067C102.21 39.2673 102.55 39.7126 103.087 40.0331C103.625 40.3715 104.287 40.5407 105.075 40.5407C106.024 40.5407 106.776 40.2647 107.331 39.7126C107.904 39.1783 108.191 38.3146 108.191 37.1214V35.0111C107.743 35.7056 107.125 36.2755 106.338 36.7207C105.549 37.1481 104.627 37.3618 103.571 37.3618C102.335 37.3618 101.216 37.0502 100.213 36.4269C99.2101 35.7858 98.4135 34.8864 97.8226 33.7289C97.2493 32.5535 96.963 31.2 96.963 29.6685C96.963 28.1369 97.2493 26.7924 97.8226 25.6348C98.4135 24.4773 99.2101 23.5868 100.213 22.9635C101.216 22.3402 102.335 22.0285 103.571 22.0285ZM108.191 29.6952C108.191 28.5554 107.869 27.6561 107.224 26.9972C106.597 26.3382 105.827 26.0088 104.914 26.0088C104.001 26.0088 103.222 26.3382 102.577 26.9972C101.95 27.6383 101.637 28.5287 101.637 29.6685C101.637 30.8082 101.95 31.7165 102.577 32.3932C103.222 33.0521 104.001 33.3816 104.914 33.3816C105.827 33.3816 106.597 33.0521 107.224 32.3932C107.869 31.7343 108.191 30.835 108.191 29.6952Z" fill="#2C2C2C"/>
</svg>