<svg xmlns="http://www.w3.org/2000/svg" width="19" height="19" viewBox="0 0 19 19" fill="none">
  <path d="M10.9392 1.81884C10.5321 1.47184 10.0146 1.28125 9.47969 1.28125C8.94475 1.28125 8.42731 1.47184 8.02019 1.81884L7.00919 2.68059C6.88911 2.78302 6.73977 2.84496 6.58244 2.85759L5.25869 2.96259C4.72546 3.00511 4.22482 3.23623 3.84658 3.61447C3.46833 3.99272 3.23722 4.49336 3.19469 5.02659L3.08969 6.35109C3.07685 6.5085 3.01464 6.65785 2.91194 6.77784L2.05094 7.78884C1.70414 8.19591 1.51367 8.71319 1.51367 9.24796C1.51367 9.78273 1.70414 10.3 2.05094 10.7071L2.91194 11.7188C3.01437 11.8389 3.07631 11.9883 3.08894 12.1456L3.19469 13.4693C3.23722 14.0026 3.46833 14.5032 3.84658 14.8814C4.22482 15.2597 4.72546 15.4908 5.25869 15.5333L6.58244 15.6383C6.74012 15.651 6.88975 15.7132 7.00994 15.8161L8.02019 16.6771C8.42731 17.0241 8.94475 17.2147 9.47969 17.2147C10.0146 17.2147 10.5321 17.0241 10.9392 16.6771L11.9502 15.8161C12.0705 15.7135 12.2201 15.6516 12.3777 15.6391L13.7014 15.5333C14.2347 15.4908 14.7353 15.2597 15.1136 14.8814C15.4918 14.5032 15.7229 14.0026 15.7654 13.4693L15.8704 12.1456C15.8829 11.988 15.9449 11.8384 16.0474 11.7181L16.9092 10.7078C17.2562 10.3007 17.4468 9.78327 17.4468 9.24834C17.4468 8.7134 17.2562 8.19596 16.9092 7.78884L16.0474 6.77784C15.9449 6.65755 15.8829 6.50793 15.8704 6.35034L15.7654 5.02659C15.7229 4.49336 15.4918 3.99272 15.1136 3.61447C14.7353 3.23623 14.2347 3.00511 13.7014 2.96259L12.3769 2.85759C12.2196 2.84496 12.0703 2.78302 11.9502 2.68059L10.9392 1.81884ZM11.6007 6.06609L12.6619 7.12659L7.35869 12.4306L6.29744 11.3693L11.6007 6.06609ZM8.15369 7.92234C8.04991 8.02979 7.92577 8.11549 7.78852 8.17445C7.65126 8.23341 7.50364 8.26444 7.35427 8.26574C7.20489 8.26704 7.05675 8.23858 6.91849 8.18201C6.78023 8.12544 6.65462 8.04191 6.54899 7.93628C6.44337 7.83065 6.35983 7.70504 6.30326 7.56678C6.2467 7.42853 6.21823 7.28039 6.21953 7.13101C6.22083 6.98163 6.25186 6.83401 6.31082 6.69676C6.36978 6.5595 6.45549 6.43536 6.56294 6.33159C6.77512 6.12666 7.05929 6.01327 7.35427 6.01583C7.64924 6.01839 7.9314 6.13671 8.13999 6.34529C8.34857 6.55387 8.46688 6.83604 8.46945 7.13101C8.47201 7.42598 8.35862 7.71016 8.15369 7.92234ZM10.8057 12.1651C10.6964 12.0618 10.609 11.9376 10.5485 11.7999C10.488 11.6623 10.4558 11.5139 10.4537 11.3635C10.4515 11.2131 10.4796 11.0639 10.5361 10.9246C10.5927 10.7852 10.6766 10.6586 10.7829 10.5523C10.8892 10.4459 11.0157 10.362 11.155 10.3054C11.2943 10.2488 11.4436 10.2206 11.5939 10.2227C11.7443 10.2248 11.8927 10.2569 12.0304 10.3173C12.1681 10.3777 12.2923 10.4651 12.3957 10.5743C12.5944 10.7876 12.7026 11.0697 12.6975 11.3611C12.6923 11.6526 12.5742 11.9306 12.3681 12.1368C12.162 12.3429 11.8839 12.461 11.5925 12.4661C11.301 12.4712 11.019 12.3631 10.8057 12.1643" fill="#108E66"/>
</svg>