<svg id="MoneyTap_Logo" data-name="MoneyTap Logo" xmlns="http://www.w3.org/2000/svg" xmlns:xlink="http://www.w3.org/1999/xlink" width="215.556" height="57.017" viewBox="0 0 215.556 57.017">
  <defs>
    <clipPath id="clip-path">
      <rect id="Rectangle_3066" data-name="Rectangle 3066" width="215.556" height="57.017" fill="none"/>
    </clipPath>
  </defs>
  <g id="Group_13243" data-name="Group 13243" clip-path="url(#clip-path)">
    <path id="Path_21445" data-name="Path 21445" d="M360.994,145.209v2.98h-.955v-7.4h2.35a2.683,2.683,0,0,1,1.9.593,2.12,2.12,0,0,1,.63,1.621,2.065,2.065,0,0,1-.651,1.621,2.728,2.728,0,0,1-1.878.582Zm2.565-1.165a1.621,1.621,0,0,0,0-2.093,1.79,1.79,0,0,0-1.254-.362h-1.311v2.823h1.311a1.773,1.773,0,0,0,1.254-.367" transform="translate(-257.298 -100.615)"/>
    <path id="Path_21446" data-name="Path 21446" d="M384.422,146.628a2.557,2.557,0,0,1,1.028,1.028,3.5,3.5,0,0,1,0,3.143,2.563,2.563,0,0,1-1.028,1.023,3.265,3.265,0,0,1-2.969,0,2.6,2.6,0,0,1-1.034-1.023,3.459,3.459,0,0,1,0-3.143,2.59,2.59,0,0,1,1.034-1.028,3.268,3.268,0,0,1,2.969,0m-2.434.713a1.732,1.732,0,0,0-.7.708,2.383,2.383,0,0,0-.268,1.181,2.358,2.358,0,0,0,.268,1.17,1.728,1.728,0,0,0,.7.708,2.066,2.066,0,0,0,1.9,0,1.734,1.734,0,0,0,.7-.708,2.361,2.361,0,0,0,.267-1.17,2.387,2.387,0,0,0-.267-1.181,1.738,1.738,0,0,0-.7-.708,2.07,2.07,0,0,0-1.9,0" transform="translate(-271.593 -104.531)"/>
    <path id="Path_21447" data-name="Path 21447" d="M411.01,146.527l-1.658,5.76h-1.028l-1.584-4.69-1.595,4.69h-1.039l-1.637-5.76h.965l1.228,4.848,1.595-4.848h1l1.605,4.837,1.238-4.837Z" transform="translate(-287.62 -104.714)"/>
    <path id="Path_21448" data-name="Path 21448" d="M440.071,149.429h-4.606a2.018,2.018,0,0,0,.561,1.48,1.831,1.831,0,0,0,1.3.493,1.873,1.873,0,0,0,1.159-.352,1.452,1.452,0,0,0,.572-.939h1.018a2.4,2.4,0,0,1-1.406,1.8,3.106,3.106,0,0,1-1.3.263,2.964,2.964,0,0,1-1.469-.357,2.52,2.52,0,0,1-1-1.023,3.591,3.591,0,0,1,0-3.143,2.514,2.514,0,0,1,1-1.028,2.967,2.967,0,0,1,1.469-.357,2.9,2.9,0,0,1,1.464.357,2.458,2.458,0,0,1,.955.955,2.687,2.687,0,0,1,.33,1.322,2.869,2.869,0,0,1-.042.525m-1.133-1.532a1.536,1.536,0,0,0-.661-.64,2.015,2.015,0,0,0-.913-.21,1.887,1.887,0,0,0-1.322.488,1.964,1.964,0,0,0-.577,1.432h3.683a1.957,1.957,0,0,0-.21-1.07" transform="translate(-310.533 -104.531)"/>
    <path id="Path_21449" data-name="Path 21449" d="M460.25,146.527a2.463,2.463,0,0,1,1.3-.33v1.039h-.294a2.04,2.04,0,0,0-1.322.414,1.66,1.66,0,0,0-.514,1.369v3.032h-.955v-5.76h.955v1.165a2.118,2.118,0,0,1,.829-.929" transform="translate(-327.637 -104.478)"/>
    <path id="Path_21450" data-name="Path 21450" d="M477.133,149.429h-4.606a2.018,2.018,0,0,0,.561,1.48,1.831,1.831,0,0,0,1.3.493,1.873,1.873,0,0,0,1.159-.352,1.452,1.452,0,0,0,.572-.939h1.018a2.405,2.405,0,0,1-1.406,1.8,3.105,3.105,0,0,1-1.3.263,2.964,2.964,0,0,1-1.469-.357,2.519,2.519,0,0,1-1-1.023,3.59,3.59,0,0,1,0-3.143,2.514,2.514,0,0,1,1-1.028,2.967,2.967,0,0,1,1.469-.357,2.9,2.9,0,0,1,1.464.357,2.459,2.459,0,0,1,.955.955,2.688,2.688,0,0,1,.33,1.322,2.87,2.87,0,0,1-.042.525M476,147.9a1.536,1.536,0,0,0-.661-.64,2.015,2.015,0,0,0-.913-.21,1.888,1.888,0,0,0-1.322.488,1.963,1.963,0,0,0-.577,1.432h3.683a1.958,1.958,0,0,0-.21-1.07" transform="translate(-337.018 -104.531)"/>
    <path id="Path_21451" data-name="Path 21451" d="M498.6,141.855a2.187,2.187,0,0,1,.813,1.123v-3.473h.955v7.764h-.955V145.8a2.183,2.183,0,0,1-.813,1.123,2.366,2.366,0,0,1-1.422.42,2.609,2.609,0,0,1-1.364-.357,2.468,2.468,0,0,1-.939-1.023,3.794,3.794,0,0,1,0-3.143,2.464,2.464,0,0,1,.939-1.028,2.609,2.609,0,0,1,1.364-.357,2.367,2.367,0,0,1,1.422.419m-2.56.992a2.525,2.525,0,0,0,0,3.1,1.848,1.848,0,0,0,1.411.562,1.956,1.956,0,0,0,1.012-.263,1.824,1.824,0,0,0,.7-.739,2.34,2.34,0,0,0,.252-1.107,2.371,2.371,0,0,0-.252-1.112,1.784,1.784,0,0,0-.7-.74,1.992,1.992,0,0,0-1.012-.257,1.849,1.849,0,0,0-1.411.561" transform="translate(-353.414 -99.696)"/>
    <path id="Path_21452" data-name="Path 21452" d="M533.935,141.793a2.464,2.464,0,0,1,.939,1.028,3.792,3.792,0,0,1,0,3.143,2.468,2.468,0,0,1-.939,1.023,2.61,2.61,0,0,1-1.364.357,2.344,2.344,0,0,1-1.421-.425,2.156,2.156,0,0,1-.8-1.117v1.469h-.955v-7.764h.955v3.473a2.157,2.157,0,0,1,.8-1.117,2.344,2.344,0,0,1,1.421-.425,2.613,2.613,0,0,1,1.364.357m-2.644.75a1.775,1.775,0,0,0-.7.74,2.371,2.371,0,0,0-.252,1.112,2.34,2.34,0,0,0,.252,1.107,1.81,1.81,0,0,0,.7.739,1.963,1.963,0,0,0,1.007.263,1.861,1.861,0,0,0,1.421-.561,2.525,2.525,0,0,0,0-3.1,1.862,1.862,0,0,0-1.421-.561,2,2,0,0,0-1.007.257" transform="translate(-378.324 -99.696)"/>
    <path id="Path_21453" data-name="Path 21453" d="M552.891,146.527l1.868,4.533,1.731-4.533h1.06l-3.42,8.488h-1.081l1.2-2.823-2.424-5.666Z" transform="translate(-394.352 -104.714)"/>
    <path id="Path_21454" data-name="Path 21454" d="M689.972,152.59l-.193.053c-6.463,1.652-6.181-1.233-6.082-1.764h6.779c.048-.191.284-1.558.284-1.559a10.151,10.151,0,0,0,.179-2.2,2.925,2.925,0,0,0-.684-1.708,3.321,3.321,0,0,0-.3-.329,3.81,3.81,0,0,0-.792-.6,4.942,4.942,0,0,0-2.457-.615,5.06,5.06,0,0,0-3.976,1.7,6.1,6.1,0,0,0-1.282,2.632c-.015.06-.028.12-.041.181-.069.322-.3,1.439-.406,2.383-.661,5.836,6.018,5.251,8.5,4.49Zm-5.842-3.941a.839.839,0,0,1,.028-.188,2.361,2.361,0,0,1,2.439-2.009,1.979,1.979,0,0,1,1.542.572,1.833,1.833,0,0,1,.189,1.511l-.025.114Z" transform="translate(-486.637 -102.816)" fill="#212120"/>
    <path id="Path_21455" data-name="Path 21455" d="M655.83,149.1a2.605,2.605,0,0,1,2.568-2.247,2.331,2.331,0,0,1,1.209.271l.523-2.953a6.929,6.929,0,0,0-1.749-.3A5.493,5.493,0,0,0,653,148.5l-1.278,7.229h2.933Z" transform="translate(-465.745 -102.816)" fill="#212120"/>
    <path id="Path_21456" data-name="Path 21456" d="M728.464,145.2a4.537,4.537,0,0,0-1.623-1.046,5.14,5.14,0,0,0-1.987-.325,5.075,5.075,0,0,0-5.065,4.479,21.01,21.01,0,0,0-.309,2.5,4.56,4.56,0,0,0,1.245,3.517,4.87,4.87,0,0,0,3.634,1.378,5.068,5.068,0,0,0,5.046-4.479,22.955,22.955,0,0,0,.308-2.5,4.58,4.58,0,0,0-1.249-3.531m-1.476,3.568v.01c-.025.382-.123,1.34-.226,1.883-.434,2.3-1.926,2.351-2.417,2.366a2.17,2.17,0,0,1-1.6-.6,2.1,2.1,0,0,1-.536-1.65c.016-.369.127-1.356.223-1.9.3-1.566,1.07-2.315,2.43-2.358a2.188,2.188,0,0,1,1.639.617,2.017,2.017,0,0,1,.49,1.631" transform="translate(-514.163 -102.781)" fill="#212120"/>
    <path id="Path_21457" data-name="Path 21457" d="M610.931,131.454a8.55,8.55,0,0,0-2.518-.524,4.33,4.33,0,0,0-1.44.2,5.869,5.869,0,0,0-4.049,4.652l-1.673,9.434a3,3,0,0,1-2.965,2.582,3.076,3.076,0,0,1-3.058-3.524l.012-.075a3.072,3.072,0,0,1,3.042-2.573H600.8l.5-2.811h-2.786a6.2,6.2,0,0,0-4.542,2.115,5.748,5.748,0,0,0-1.386,2.7,6.991,6.991,0,0,0,.088,2.8,5.058,5.058,0,0,0,2.269,3.209,6.239,6.239,0,0,0,1.281.6,6.91,6.91,0,0,0,4.835-.2,5.931,5.931,0,0,0,3.205-4.453l.232-1.31.47-2.648h2.715l.5-2.81h-2.715l.425-2.4a2.942,2.942,0,0,1,.342-.968,2.821,2.821,0,0,1,2.874-1.381,2.741,2.741,0,0,1,1.1.421c.113.076.171.125.171.125Z" transform="translate(-423.411 -93.566)" fill="#212120"/>
    <path id="Path_21458" data-name="Path 21458" d="M200.38,43.961h5.176l-2.032-22.7h-5.5L193,34.358l-5.026-13.1H182.5l-2.031,22.7h5.154l1.07-13.463h.128l4.641,13.312h3.08L199.183,30.5h.128Z" transform="translate(-128.97 -15.193)" fill="#171724" fill-rule="evenodd"/>
    <path id="Path_21459" data-name="Path 21459" d="M277.71,31.558c0-3.366,1.861-6.753,5.839-6.753,4,0,5.817,3.387,5.817,6.753,0,3.387-1.711,6.774-5.817,6.774-4.234,0-5.839-3.387-5.839-6.774m-5.582,0c0,6.646,4.726,11.791,11.42,11.791,6.5,0,11.378-5.145,11.378-11.791a11.4,11.4,0,1,0-22.8,0" transform="translate(-194.473 -14.173)" fill="#171724" fill-rule="evenodd"/>
    <path id="Path_21460" data-name="Path 21460" d="M365.193,29.856h.064l9,14.106h5.154V21.26h-5.154V35.344H374.2l-9-14.084h-5.154v22.7h5.154Z" transform="translate(-257.298 -15.193)" fill="#171724" fill-rule="evenodd"/>
    <path id="Path_21461" data-name="Path 21461" d="M452.442,21.259h-12.96v22.7h12.96V39.417h-7.806V34.851H452.1V30.306h-7.464V25.783h7.806Z" transform="translate(-314.07 -15.193)" fill="#171724" fill-rule="evenodd"/>
    <path id="Path_21462" data-name="Path 21462" d="M486.622,21.259l8.341,12.519V43.961h5.154V33.779l8.362-12.519h-6.223l-4.726,7.267-4.705-7.267Z" transform="translate(-347.759 -15.193)" fill="#171724" fill-rule="evenodd"/>
    <path id="Path_21463" data-name="Path 21463" d="M607.048,31.4V25.375H608.5c2.032,0,3.956.686,3.956,3.023,0,2.315-1.925,3-3.956,3Zm-5.154-10.14v22.7h5.154V35.536h3.1c4.427,0,7.742-2.615,7.742-7.289,0-4.716-3.315-6.989-7.742-6.989Zm-9.859,13.613h-5.111l2.524-6.6h.064Zm-.171-13.613h-4.769l-9.132,22.7H583.5l1.668-4.545h8.619l1.668,4.545H601Zm-28.872,4.523h6.288V43.961h5.154V25.782h5.389V21.259H566.029Z" transform="translate(-402.336 -15.192)" fill="#ef7f2c" fill-rule="evenodd"/>
    <path id="Path_21464" data-name="Path 21464" d="M1.839,0h31.2A1.86,1.86,0,0,1,34.9,1.844v14.9c-1.026-.172-1.968-.364-2.844-.579V3.28a.448.448,0,0,0-.449-.429H3.272a.43.43,0,0,0-.428.429v28.4a.448.448,0,0,0,.428.45H16.446a36.948,36.948,0,0,0,2.93,2.83H1.839A1.841,1.841,0,0,1,0,33.121V1.844A1.855,1.855,0,0,1,1.839,0" fill="#171724" fill-rule="evenodd"/>
    <path id="Path_21465" data-name="Path 21465" d="M49.693,58.473l-.128-.064C35.322,51.484,32.37,41.559,31.772,37.936c-.086,3.58,2.353,16.1,14.607,25.446,1.326.236,15.27-1.822,15.27-1.822s-2.609-.515-6.523-3.687c-2.63.236-4.812.579-5.261.6Z" transform="translate(-22.704 -27.111)" fill="#ef7f2c" fill-rule="evenodd"/>
    <path id="Path_21466" data-name="Path 21466" d="M75.668,62.9a14.107,14.107,0,0,1-1.647-.043l-.706-.064a13.363,13.363,0,0,1-2.588-.622.3.3,0,0,0-.128-.043c-.128-.043-.235-.107-.364-.15a1.27,1.27,0,0,1-.171-.086,2.145,2.145,0,0,1-.321-.15.665.665,0,0,1-.214-.107c-.107-.043-.193-.107-.3-.15-.085-.043-.15-.086-.235-.129a1.8,1.8,0,0,0-.257-.172c-.086-.064-.171-.107-.257-.172-.064-.043-.15-.107-.235-.172l-.257-.193a2.241,2.241,0,0,0-.235-.172,1.122,1.122,0,0,0-.235-.214,1.016,1.016,0,0,1-.214-.214,2.572,2.572,0,0,1-.257-.236c-.064-.064-.128-.15-.193-.214-.085-.086-.171-.193-.257-.279a.834.834,0,0,1-.171-.214,3.919,3.919,0,0,1-.278-.343l-.128-.193a3.942,3.942,0,0,1-.406-.579s-6.78,2.573-12.255,1.736c.192.129.364.257.556.407,3.593,2.53,9.282,4.266,18.264,3.237,1.347-.129,2.866-.279,4.427-.514-.3.021-.62.043-.941.043" transform="translate(-38.135 -41.445)" fill="#d86927" fill-rule="evenodd"/>
    <path id="Path_21467" data-name="Path 21467" d="M55.9,50.006a39.727,39.727,0,0,1-6.01-.064,21.036,21.036,0,0,1-10.372-3.516c-.193-.129-.385-.279-.578-.407a14.918,14.918,0,0,1-2.417-2.358,16.8,16.8,0,0,1-2.8-5.724c.214.729.492,1.736.877,2.787a.021.021,0,0,1-.021-.021c.214.622.492,1.308.813,2.015.043.086.064.15.107.236a.075.075,0,0,0,.021.043c.15.3.278.579.428.858,2.246,4.309,6.63,9.668,15.291,13.87,1.347-.043,17.345-2.036,17.345-2.036A40.967,40.967,0,0,1,55.9,50.006" transform="translate(-24.101 -27.111)" fill="#ef7f2c" fill-rule="evenodd"/>
    <path id="Path_21468" data-name="Path 21468" d="M68.17,39.083a53.942,53.942,0,0,1-6.352-.171c-6.245-.557-10.094-2.294-12.447-4.159-3.4-2.658-3.721-5.574-3.721-5.574L34.1,28.772l.021.064H34.1a10.962,10.962,0,0,0,.3,1.715c.086.322.192.643.321,1.029A14.623,14.623,0,0,0,36.6,35.332a15.651,15.651,0,0,0,1.476,1.8H38.1a1.254,1.254,0,0,0,.214.236.978.978,0,0,1,.15.15,3.663,3.663,0,0,0,1.07.665c.064.021.128.064.192.086.278.043.535.064.813.086A25.388,25.388,0,0,0,48.6,37.54a31.371,31.371,0,0,0,3.229-.986l.235-.086.15.214a5.1,5.1,0,0,0,.385.557.465.465,0,0,0,.064.107l.064.086c.086.107.171.236.257.343l.128.129.064.086c.086.086.15.172.235.257a.934.934,0,0,1,.128.15l.064.043a1.236,1.236,0,0,0,.235.236l.193.193a2.294,2.294,0,0,0,.257.214,1.5,1.5,0,0,0,.214.172,2.27,2.27,0,0,1,.235.193c.086.064.171.107.257.172.064.043.15.107.214.15a3.159,3.159,0,0,1,.278.172c.064.043.15.086.214.129a1.156,1.156,0,0,1,.278.15c.064.022.128.064.193.086.128.064.235.107.321.15.064.021.192.086.192.086a1.663,1.663,0,0,1,.342.15l.128.043a11.74,11.74,0,0,0,2.524.6h.043a3.206,3.206,0,0,0,.471.043l.171.021a13.559,13.559,0,0,0,1.625.043,3.626,3.626,0,0,0,.471-.021c.15,0,.3-.021.449-.021q.225-.032.578-.064c.214-.021.428-.064.684-.086.364-.064.77-.107,1.176-.193h.021c.513-.107,1.048-.236,1.561-.386a1.974,1.974,0,0,0,.278-.086,20.5,20.5,0,0,0,3.614-1.629c-.919.064-1.8.107-2.652.129" transform="translate(-24.37 -20.562)" fill="#ef7f2c" fill-rule="evenodd"/>
  </g>
</svg>
