<svg xmlns="http://www.w3.org/2000/svg" width="19" height="19" viewBox="0 0 19 19" fill="none">
  <path d="M9.48047 16.75C13.6227 16.75 16.9805 13.3923 16.9805 9.25C16.9805 5.10775 13.6227 1.75 9.48047 1.75C5.33822 1.75 1.98047 5.10775 1.98047 9.25C1.98047 13.3923 5.33822 16.75 9.48047 16.75ZM10.6055 6.25C10.8515 6.577 11.0277 6.9595 11.1117 7.375H12.4805V8.5H11.1117C10.9819 9.1352 10.6367 9.70608 10.1345 10.1161C9.63223 10.5261 9.0038 10.75 8.35547 10.75H8.21297L11.003 13.54L10.208 14.335L6.48047 10.6075V9.625H8.35547C8.70452 9.62511 9.04502 9.51697 9.33005 9.31549C9.61508 9.114 9.83062 8.82909 9.94697 8.5H6.48047V7.375H9.94697C9.83052 7.04597 9.61496 6.76112 9.32995 6.55965C9.04494 6.35819 8.7045 6.25 8.35547 6.25H6.48047V5.125H12.4805V6.25H10.6055Z" fill="#108E66"/>
</svg>