<svg xmlns="http://www.w3.org/2000/svg" width="19" height="19" viewBox="0 0 19 19" fill="none">
  <path d="M8.73047 10.7504V16.7504H5.73047C5.13373 16.7504 4.56144 16.5134 4.13948 16.0914C3.71752 15.6695 3.48047 15.0972 3.48047 14.5004V11.5004C3.48047 11.3015 3.55949 11.1108 3.70014 10.9701C3.84079 10.8295 4.03156 10.7504 4.23047 10.7504H8.73047ZM14.7305 10.7504C14.9294 10.7504 15.1201 10.8295 15.2608 10.9701C15.4015 11.1108 15.4805 11.3015 15.4805 11.5004V14.5004C15.4805 15.0972 15.2434 15.6695 14.8215 16.0914C14.3995 16.5134 13.8272 16.7504 13.2305 16.7504H10.2305V10.7504H14.7305ZM12.8555 1.75044C13.2984 1.75035 13.7341 1.86232 14.122 2.07592C14.51 2.28952 14.8376 2.59781 15.0744 2.97209C15.3112 3.34637 15.4494 3.77448 15.4762 4.21655C15.503 4.65862 15.4175 5.10029 15.2277 5.50044H15.4805C15.8783 5.50044 16.2598 5.65848 16.5411 5.93978C16.8224 6.22108 16.9805 6.60262 16.9805 7.00044V7.75044C16.9805 8.14826 16.8224 8.5298 16.5411 8.8111C16.2598 9.0924 15.8783 9.25044 15.4805 9.25044H10.2305V5.50044H8.73047V9.25044H3.48047C3.08264 9.25044 2.70111 9.0924 2.41981 8.8111C2.1385 8.5298 1.98047 8.14826 1.98047 7.75044V7.00044C1.98047 6.60262 2.1385 6.22108 2.41981 5.93978C2.70111 5.65848 3.08264 5.50044 3.48047 5.50044H3.73322C3.56663 5.14881 3.4803 4.76454 3.48047 4.37544C3.48047 2.92569 4.65572 1.75044 6.09272 1.75044C7.40897 1.72794 8.57672 2.56944 9.37847 3.95094L9.48047 4.13319C10.2552 2.69769 11.4005 1.79769 12.6987 1.75194L12.8555 1.75044ZM6.10547 3.25044C5.8071 3.25044 5.52095 3.36897 5.30997 3.57994C5.09899 3.79092 4.98047 4.07707 4.98047 4.37544C4.98047 4.67381 5.09899 4.95996 5.30997 5.17094C5.52095 5.38191 5.8071 5.50044 6.10547 5.50044H8.46272C7.90697 4.07169 7.00097 3.23544 6.10547 3.25044ZM12.8427 3.25044C11.9577 3.23544 11.054 4.07244 10.4982 5.50044H12.8555C13.1538 5.49875 13.4393 5.3786 13.6491 5.16643C13.8589 4.95425 13.9758 4.66743 13.9741 4.36907C13.9724 4.0707 13.8523 3.78522 13.6401 3.57544C13.4279 3.36565 13.1411 3.24875 12.8427 3.25044Z" fill="#108E66"/>
</svg>