<svg xmlns="http://www.w3.org/2000/svg" width="36" height="36" viewBox="0 0 36 36" fill="none">
<path d="M31.1232 18L32.7792 15.138C32.9782 14.7937 33.0324 14.3844 32.9297 14.0002C32.827 13.6159 32.576 13.2882 32.2317 13.089L29.3667 11.433V8.13303C29.3667 7.7352 29.2087 7.35367 28.9274 7.07237C28.6461 6.79106 28.2645 6.63303 27.8667 6.63303H24.5682L22.9137 3.76953C22.7139 3.4259 22.3868 3.17478 22.0032 3.07053C21.813 3.01895 21.6144 3.00565 21.4189 3.0314C21.2235 3.05715 21.0351 3.12143 20.8647 3.22053L17.9997 4.87653L15.1347 3.21903C14.7902 3.02012 14.3808 2.96622 13.9965 3.06918C13.6123 3.17213 13.2846 3.42352 13.0857 3.76803L11.4297 6.63303H8.13121C7.73339 6.63303 7.35186 6.79106 7.07055 7.07237C6.78925 7.35367 6.63121 7.7352 6.63121 8.13303V11.4315L3.76621 13.0875C3.59526 13.1859 3.44542 13.317 3.32531 13.4734C3.20519 13.6298 3.11717 13.8084 3.06629 13.999C3.01542 14.1895 3.00269 14.3882 3.02885 14.5837C3.05501 14.7792 3.11953 14.9676 3.21871 15.138L4.87471 18L3.21871 20.862C3.02069 21.2067 2.96697 21.6157 3.06925 21.9998C3.17153 22.3839 3.42152 22.712 3.76471 22.9125L6.62971 24.5685V27.867C6.62971 28.2648 6.78775 28.6464 7.06905 28.9277C7.35036 29.209 7.73189 29.367 8.12971 29.367H11.4297L13.0857 32.232C13.2185 32.459 13.4081 32.6476 13.6359 32.7791C13.8636 32.9106 14.1217 32.9805 14.3847 32.982C14.6457 32.982 14.9052 32.913 15.1362 32.7795L17.9982 31.1235L20.8632 32.7795C21.2076 32.9781 21.6168 33.0321 22.0009 32.9294C22.385 32.8268 22.7128 32.576 22.9122 32.232L24.5667 29.367H27.8652C28.263 29.367 28.6446 29.209 28.9259 28.9277C29.2072 28.6464 29.3652 28.2648 29.3652 27.867V24.5685L32.2302 22.9125C32.4009 22.8139 32.5504 22.6826 32.6703 22.5262C32.7902 22.3697 32.8781 22.1912 32.9289 22.0007C32.9798 21.8103 32.9926 21.6117 32.9666 21.4163C32.9407 21.2209 32.8765 21.0326 32.7777 20.862L31.1232 18ZM14.2482 10.485C14.8451 10.4852 15.4176 10.7225 15.8395 11.1448C16.2615 11.567 16.4984 12.1396 16.4982 12.7365C16.498 13.3335 16.2607 13.9059 15.8385 14.3278C15.4162 14.7498 14.8436 14.9867 14.2467 14.9865C13.6498 14.9863 13.0774 14.749 12.6554 14.3268C12.2335 13.9045 11.9965 13.332 11.9967 12.735C11.9969 12.1381 12.2342 11.5657 12.6565 11.1437C13.0787 10.7218 13.6513 10.4848 14.2482 10.485ZM14.6982 24.885L12.2982 23.0865L21.2982 11.0865L23.6982 12.885L14.6982 24.885ZM21.7482 25.485C21.4526 25.4849 21.16 25.4266 20.8869 25.3134C20.6139 25.2002 20.3658 25.0343 20.1569 24.8253C19.948 24.6162 19.7823 24.368 19.6693 24.0949C19.5562 23.8218 19.4981 23.5291 19.4982 23.2335C19.4983 22.938 19.5566 22.6453 19.6698 22.3723C19.783 22.0992 19.9489 21.8512 20.158 21.6422C20.367 21.4333 20.6152 21.2676 20.8883 21.1546C21.1614 21.0415 21.4541 20.9834 21.7497 20.9835C22.3466 20.9837 22.9191 21.221 23.341 21.6433C23.763 22.0655 23.9999 22.6381 23.9997 23.235C23.9995 23.832 23.7622 24.4044 23.34 24.8263C22.9177 25.2483 22.3451 25.4852 21.7482 25.485Z" fill="#FCFFFE"/>
</svg>