<svg xmlns="http://www.w3.org/2000/svg" width="25" height="25" viewBox="0 0 25 25" fill="none">
  <g clip-path="url(#clip0_5439_37967)">
    <mask id="mask0_5439_37967" style="mask-type:luminance" maskUnits="userSpaceOnUse" x="0" y="0" width="25" height="25">
      <path d="M0.667969 0.28125H24.668V24.2812H0.667969V0.28125Z" fill="white"/>
      <path d="M8.05198 13.2055C7.80717 13.2055 7.57238 13.1083 7.39927 12.9352C7.22616 12.7621 7.12891 12.5273 7.12891 12.2825C7.12891 12.0376 7.22616 11.8028 7.39927 11.6297C7.57238 11.4566 7.80717 11.3594 8.05198 11.3594H17.2828C17.5276 11.3594 17.7624 11.4566 17.9355 11.6297C18.1086 11.8028 18.2058 12.0376 18.2058 12.2825C18.2058 12.5273 18.1086 12.7621 17.9355 12.9352C17.7624 13.1083 17.5276 13.2055 17.2828 13.2055H8.05198Z" fill="black"/>
      <path d="M11.7441 7.66526C11.7441 7.42045 11.8414 7.18566 12.0145 7.01255C12.1876 6.83944 12.4224 6.74219 12.6672 6.74219C12.912 6.74219 13.1468 6.83944 13.3199 7.01255C13.493 7.18566 13.5903 7.42045 13.5903 7.66526V16.896C13.5903 17.1408 13.493 17.3756 13.3199 17.5487C13.1468 17.7219 12.912 17.8191 12.6672 17.8191C12.4224 17.8191 12.1876 17.7219 12.0145 17.5487C11.8414 17.3756 11.7441 17.1408 11.7441 16.896V7.66526Z" fill="black"/>
    </mask>
    <g mask="url(#mask0_5439_37967)">
      <path d="M12.668 24.2812C19.2954 24.2812 24.668 18.9087 24.668 12.2812C24.668 5.65383 19.2954 0.28125 12.668 0.28125C6.04055 0.28125 0.667969 5.65383 0.667969 12.2812C0.667969 18.9087 6.04055 24.2812 12.668 24.2812Z" fill="#108E66"/>
    </g>
  </g>
  <defs>
    <clipPath id="clip0_5439_37967">
      <rect width="24" height="24" fill="white" transform="translate(0.667969 0.28125)"/>
    </clipPath>
  </defs>
</svg>