<svg width="18" height="18" viewBox="0 0 18 18" fill="none" xmlns="http://www.w3.org/2000/svg">
<g id="radix-icons:reload">
<path id="Vector" fill-rule="evenodd" clip-rule="evenodd" d="M15.7805 8.99953C15.7805 5.59753 13.1285 2.21953 9.00047 2.21953C5.66687 2.21953 4.01807 4.68673 3.31607 5.99953H5.40047C5.5596 5.99953 5.71222 6.06275 5.82474 6.17527C5.93726 6.28779 6.00047 6.4404 6.00047 6.59953C6.00047 6.75866 5.93726 6.91127 5.82474 7.0238C5.71222 7.13632 5.5596 7.19953 5.40047 7.19953H1.80047C1.64135 7.19953 1.48873 7.13632 1.37621 7.0238C1.26369 6.91127 1.20047 6.75866 1.20047 6.59953V2.99953C1.20047 2.8404 1.26369 2.68779 1.37621 2.57527C1.48873 2.46275 1.64135 2.39953 1.80047 2.39953C1.9596 2.39953 2.11222 2.46275 2.22474 2.57527C2.33726 2.68779 2.40047 2.8404 2.40047 2.99953V5.17513C3.24527 3.68473 5.20127 1.01953 9.00047 1.01953C13.8761 1.01953 16.9805 5.02153 16.9805 8.99953C16.9805 12.9775 13.8761 16.9795 9.00047 16.9795C6.66767 16.9795 4.72607 16.0555 3.34367 14.6491C2.61013 13.9009 2.02824 13.0179 1.63007 12.0487C1.60013 11.9758 1.58484 11.8978 1.58507 11.819C1.5853 11.7402 1.60105 11.6622 1.63141 11.5895C1.66177 11.5168 1.70616 11.4508 1.76204 11.3952C1.81792 11.3397 1.88419 11.2957 1.95707 11.2657C2.02996 11.2358 2.10803 11.2205 2.18682 11.2207C2.26561 11.221 2.34359 11.2367 2.4163 11.2671C2.48901 11.2974 2.55502 11.3418 2.61058 11.3977C2.66613 11.4536 2.71013 11.5198 2.74007 11.5927C3.07916 12.4183 3.57465 13.1705 4.19927 13.8079C5.36447 14.9959 7.00247 15.7795 9.00047 15.7795C13.1285 15.7795 15.7805 12.4015 15.7805 8.99953Z" fill="#272B2A"/>
</g>
</svg>
