<svg xmlns="http://www.w3.org/2000/svg" width="80" height="80" viewBox="0 0 80 80" fill="none">
  <path d="M3.75 28.75H76.25V66.25H3.75V28.75Z" fill="#798CBD"/>
  <path d="M18.75 33.75H61.25V61.25H18.75V33.75Z" fill="#FCFDFF"/>
  <path d="M32.5 11.25H47.5V16.25C47.5 18.2391 46.7098 20.1468 45.3033 21.5533C43.8968 22.9598 41.9891 23.75 40 23.75C38.0109 23.75 36.1032 22.9598 34.6967 21.5533C33.2902 20.1468 32.5 18.2391 32.5 16.25V11.25Z" fill="#FCFDFF"/>
  <path d="M32.5 3.75H42.5C43.8261 3.75 45.0979 4.27678 46.0355 5.21447C46.9732 6.15215 47.5 7.42392 47.5 8.75V11.25H32.5V3.75Z" fill="#798CBD"/>
  <path d="M30 23.75H50C51.3261 23.75 52.5979 24.2768 53.5355 25.2145C54.4732 26.1521 55 27.4239 55 28.75H25C25 27.4239 25.5268 26.1521 26.4645 25.2145C27.4021 24.2768 28.6739 23.75 30 23.75Z" fill="#FCFDFF"/>
  <path d="M30 66.25H50V76.25H30V66.25Z" fill="#FCFDFF"/>
  <path d="M66.25 33.75H71.25V38.75H66.25V33.75Z" fill="#A8B6DB"/>
  <path d="M66.25 45H71.25V50H66.25V45Z" fill="#A8B6DB"/>
  <path d="M66.25 56.25H71.25V61.25H66.25V56.25Z" fill="#A8B6DB"/>
  <path d="M11.25 38.75C12.6307 38.75 13.75 37.6307 13.75 36.25C13.75 34.8693 12.6307 33.75 11.25 33.75C9.86929 33.75 8.75 34.8693 8.75 36.25C8.75 37.6307 9.86929 38.75 11.25 38.75Z" fill="#A8B6DB"/>
  <path d="M18.75 33.75V61.25H61.25V33.75H18.75ZM58.75 55H42.5C37.415 54.9979 32.522 53.0574 28.8177 49.5738C25.1134 46.0901 22.8764 41.3253 22.5625 36.25H50C52.3206 36.25 54.5462 37.1719 56.1872 38.8128C57.8281 40.4538 58.75 42.6794 58.75 45V55Z" fill="#9EC9F0"/>
  <path d="M50 66.25V70H47.5C46.5054 70 45.5516 70.3951 44.8484 71.0984C44.1451 71.8016 43.75 72.7554 43.75 73.75V76.25H40V70H37.5C36.5054 70 35.5516 70.3951 34.8483 71.0984C34.1451 71.8016 33.75 72.7554 33.75 73.75V76.25H30V66.25H50Z" fill="#9EC9F0"/>
  <path d="M36.25 13.75V15C36.25 16.9891 37.0402 18.8968 38.4467 20.3033C39.8532 21.7098 41.7609 22.5 43.75 22.5C43.8921 22.5045 44.0344 22.4961 44.175 22.475C42.9435 23.3109 41.4883 23.7553 40 23.75C38.0109 23.75 36.1032 22.9598 34.6967 21.5533C33.2902 20.1468 32.5 18.2391 32.5 16.25V11.25H47.5V13.75H36.25Z" fill="#9EC9F0"/>
  <path d="M55 28.7496H25C25.0003 27.5952 25.4001 26.4765 26.1315 25.5833C26.8629 24.6902 27.8808 24.0776 29.0125 23.8496C29.2786 24.5583 29.7556 25.1683 30.3792 25.5975C31.0028 26.0266 31.743 26.2542 32.5 26.2496H54.325C54.7662 27.009 54.9991 27.8714 55 28.7496Z" fill="#9EC9F0"/>
  <path d="M76.25 27.5H56.125C55.8349 26.0893 55.0673 24.8217 53.9516 23.9109C52.8359 23.0001 51.4403 22.5018 50 22.5H46.1125C46.9473 21.6872 47.6108 20.7154 48.0638 19.642C48.5168 18.5685 48.7502 17.4151 48.75 16.25V8.75C48.748 7.09301 48.0889 5.50445 46.9172 4.33277C45.7456 3.1611 44.157 2.50198 42.5 2.5H32.5C32.1685 2.5 31.8505 2.6317 31.6161 2.86612C31.3817 3.10054 31.25 3.41848 31.25 3.75V16.25C31.2498 17.4151 31.4832 18.5685 31.9362 19.642C32.3892 20.7154 33.0527 21.6872 33.8875 22.5H30C28.5597 22.5018 27.1641 23.0001 26.0484 23.9109C24.9327 24.8217 24.1651 26.0893 23.875 27.5H3.75C3.41848 27.5 3.10054 27.6317 2.86612 27.8661C2.6317 28.1005 2.5 28.4185 2.5 28.75V66.25C2.5 66.5815 2.6317 66.8995 2.86612 67.1339C3.10054 67.3683 3.41848 67.5 3.75 67.5H28.75V76.25C28.75 76.5815 28.8817 76.8995 29.1161 77.1339C29.3505 77.3683 29.6685 77.5 30 77.5C30.3315 77.5 30.6495 77.3683 30.8839 77.1339C31.1183 76.8995 31.25 76.5815 31.25 76.25V67.5H38.75V76.25C38.75 76.5815 38.8817 76.8995 39.1161 77.1339C39.3505 77.3683 39.6685 77.5 40 77.5C40.3315 77.5 40.6495 77.3683 40.8839 77.1339C41.1183 76.8995 41.25 76.5815 41.25 76.25V67.5H48.75V76.25C48.75 76.5815 48.8817 76.8995 49.1161 77.1339C49.3505 77.3683 49.6685 77.5 50 77.5C50.3315 77.5 50.6495 77.3683 50.8839 77.1339C51.1183 76.8995 51.25 76.5815 51.25 76.25V67.5H76.25C76.5815 67.5 76.8995 67.3683 77.1339 67.1339C77.3683 66.8995 77.5 66.5815 77.5 66.25V28.75C77.5 28.4185 77.3683 28.1005 77.1339 27.8661C76.8995 27.6317 76.5815 27.5 76.25 27.5ZM33.75 5H42.5C43.4946 5 44.4484 5.39509 45.1516 6.09835C45.8549 6.80161 46.25 7.75544 46.25 8.75V10H33.75V5ZM33.75 16.25V12.5H46.25V16.25C46.25 17.9076 45.5915 19.4973 44.4194 20.6694C43.2473 21.8415 41.6576 22.5 40 22.5C38.3424 22.5 36.7527 21.8415 35.5806 20.6694C34.4085 19.4973 33.75 17.9076 33.75 16.25ZM30 25H50C50.7753 25.0009 51.5314 25.2417 52.1645 25.6893C52.7976 26.1369 53.2768 26.7694 53.5362 27.5H26.4637C26.7232 26.7694 27.2024 26.1369 27.8355 25.6893C28.4686 25.2417 29.2247 25.0009 30 25ZM75 65H5V30H75V65Z" fill="#010E8A"/>
  <path d="M18.75 32.5C18.4185 32.5 18.1005 32.6317 17.8661 32.8661C17.6317 33.1005 17.5 33.4185 17.5 33.75V61.25C17.5 61.5815 17.6317 61.8995 17.8661 62.1339C18.1005 62.3683 18.4185 62.5 18.75 62.5H61.25C61.5815 62.5 61.8995 62.3683 62.1339 62.1339C62.3683 61.8995 62.5 61.5815 62.5 61.25V33.75C62.5 33.4185 62.3683 33.1005 62.1339 32.8661C61.8995 32.6317 61.5815 32.5 61.25 32.5H18.75ZM36.7425 55.125C36.5956 55.0516 36.4357 55.0078 36.2718 54.9962C36.108 54.9846 35.9435 55.0054 35.7877 55.0574C35.6319 55.1094 35.4879 55.1916 35.3639 55.2993C35.2399 55.407 35.1383 55.538 35.065 55.685C34.7962 56.2312 34.3794 56.691 33.862 57.0119C33.3446 57.3328 32.7475 57.5019 32.1388 57.5H31.1838C30.8522 57.5 30.5343 57.6317 30.2999 57.8661C30.0654 58.1005 29.9338 58.4185 29.9338 58.75C29.9338 59.0815 30.0654 59.3995 30.2999 59.6339C30.5343 59.8683 30.8522 60 31.1838 60H26.25V53.75C26.25 53.4185 26.1183 53.1005 25.8839 52.8661C25.6495 52.6317 25.3315 52.5 25 52.5C24.6685 52.5 24.3505 52.6317 24.1161 52.8661C23.8817 53.1005 23.75 53.4185 23.75 53.75V60H20V35H23.75V48.2325L22.8662 49.1162C22.6386 49.352 22.5126 49.6678 22.5154 49.9955C22.5183 50.3232 22.6497 50.6368 22.8815 50.8685C23.1132 51.1003 23.4268 51.2317 23.7545 51.2346C24.0822 51.2374 24.398 51.1114 24.6338 50.8838L25 50.5175L25.3662 50.8838C25.602 51.1114 25.9178 51.2374 26.2455 51.2346C26.5732 51.2317 26.8868 51.1003 27.1185 50.8685C27.3503 50.6368 27.4817 50.3232 27.4846 49.9955C27.4874 49.6678 27.3614 49.352 27.1338 49.1162L26.25 48.2325V35H38.75V38.0638C37.5394 38.8212 36.1286 39.1964 34.7016 39.1404C33.2746 39.0845 31.8976 38.5999 30.75 37.75C30.4848 37.5511 30.1514 37.4657 29.8232 37.5126C29.495 37.5594 29.1989 37.7348 29 38C28.8011 38.2652 28.7157 38.5986 28.7626 38.9268C28.8094 39.255 28.9848 39.5511 29.25 39.75C30.5968 40.7514 32.1816 41.3838 33.8478 41.5849C35.5139 41.7859 37.2037 41.5485 38.75 40.8962V43.0638C37.5394 43.8212 36.1286 44.1964 34.7016 44.1404C33.2746 44.0845 31.8976 43.5999 30.75 42.75C30.6187 42.6515 30.4692 42.5798 30.3102 42.5391C30.1512 42.4984 29.9857 42.4894 29.8232 42.5126C29.6607 42.5358 29.5044 42.5908 29.3631 42.6744C29.2219 42.758 29.0985 42.8687 29 43C28.9015 43.1313 28.8298 43.2808 28.7891 43.4398C28.7484 43.5988 28.7393 43.7643 28.7626 43.9268C28.7858 44.0893 28.8408 44.2456 28.9244 44.3869C29.008 44.5281 29.1187 44.6515 29.25 44.75C30.597 45.7509 32.1819 46.383 33.848 46.5839C35.5141 46.7847 37.2038 46.5472 38.75 45.895V48.0638C37.5394 48.8212 36.1286 49.1964 34.7016 49.1404C33.2746 49.0845 31.8976 48.5999 30.75 47.75C30.6187 47.6515 30.4692 47.5798 30.3102 47.5391C30.1512 47.4984 29.9857 47.4894 29.8232 47.5126C29.6607 47.5358 29.5044 47.5908 29.3631 47.6744C29.2219 47.758 29.0985 47.8687 29 48C28.9015 48.1313 28.8298 48.2808 28.7891 48.4398C28.7484 48.5988 28.7393 48.7643 28.7626 48.9268C28.7858 49.0893 28.8408 49.2456 28.9244 49.3869C29.008 49.5281 29.1187 49.6515 29.25 49.75C30.5807 50.7357 32.1456 51.357 33.79 51.5525C33.0834 52.1611 32.1826 52.4972 31.25 52.5C30.9185 52.5 30.6005 52.6317 30.3661 52.8661C30.1317 53.1005 30 53.4185 30 53.75C30 54.0815 30.1317 54.3995 30.3661 54.6339C30.6005 54.8683 30.9185 55 31.25 55C32.4452 54.9946 33.6155 54.6576 34.6307 54.0267C35.6458 53.3958 36.466 52.4956 37 51.4262C37.599 51.3055 38.185 51.1276 38.75 50.895V60H32.1388C33.2115 60.0036 34.2638 59.7066 35.1763 59.1425C36.0888 58.5784 36.8249 57.7699 37.3013 56.8087C37.3747 56.6619 37.4186 56.5021 37.4303 56.3383C37.442 56.1745 37.4213 56.01 37.3694 55.8542C37.3175 55.6985 37.2354 55.5544 37.1279 55.4304C37.0203 55.3063 36.8894 55.2047 36.7425 55.1312V55.125ZM60 60H56.25V53.75C56.25 53.4185 56.1183 53.1005 55.8839 52.8661C55.6495 52.6317 55.3315 52.5 55 52.5C54.6685 52.5 54.3505 52.6317 54.1161 52.8661C53.8817 53.1005 53.75 53.4185 53.75 53.75V60H48.6837C49.0153 60 49.3332 59.8683 49.5676 59.6339C49.8021 59.3995 49.9337 59.0815 49.9337 58.75C49.9337 58.4185 49.8021 58.1005 49.5676 57.8661C49.3332 57.6317 49.0153 57.5 48.6837 57.5H47.7287C47.1206 57.5018 46.5241 57.3334 46.0067 57.0137C45.4893 56.6941 45.0717 56.236 44.8013 55.6913C44.6471 55.4053 44.3876 55.1907 44.0779 55.0927C43.7682 54.9948 43.4325 55.0212 43.142 55.1665C42.8515 55.3118 42.6289 55.5644 42.5214 55.871C42.4139 56.1775 42.43 56.5139 42.5663 56.8087C43.0426 57.7699 43.7787 58.5784 44.6912 59.1425C45.6037 59.7066 46.656 60.0036 47.7287 60H41.25V50.8937C41.8151 51.1259 42.4011 51.3034 43 51.4237C43.5334 52.4937 44.3534 53.3946 45.3686 54.026C46.3839 54.6574 47.5545 54.9946 48.75 55C49.0815 55 49.3995 54.8683 49.6339 54.6339C49.8683 54.3995 50 54.0815 50 53.75C50 53.4185 49.8683 53.1005 49.6339 52.8661C49.3995 52.6317 49.0815 52.5 48.75 52.5C47.8223 52.4959 46.9264 52.1618 46.2225 51.5575C47.8632 51.3591 49.4237 50.7361 50.75 49.75C50.8813 49.6515 50.992 49.5281 51.0756 49.3869C51.1592 49.2456 51.2142 49.0893 51.2374 48.9268C51.2607 48.7643 51.2516 48.5988 51.2109 48.4398C51.1702 48.2808 51.0985 48.1313 51 48C50.9015 47.8687 50.7781 47.758 50.6369 47.6744C50.4956 47.5908 50.3393 47.5358 50.1768 47.5126C50.0143 47.4894 49.8488 47.4984 49.6898 47.5391C49.5308 47.5798 49.3813 47.6515 49.25 47.75C48.1024 48.5999 46.7254 49.0845 45.2984 49.1404C43.8714 49.1964 42.4606 48.8212 41.25 48.0638V45.8938C42.7959 46.5471 44.4857 46.7853 46.152 46.5847C47.8183 46.3841 49.4033 45.7516 50.75 44.75C50.8813 44.6515 50.992 44.5281 51.0756 44.3869C51.1592 44.2456 51.2142 44.0893 51.2374 43.9268C51.2607 43.7643 51.2516 43.5988 51.2109 43.4398C51.1702 43.2808 51.0985 43.1313 51 43C50.9015 42.8687 50.7781 42.758 50.6369 42.6744C50.4956 42.5908 50.3393 42.5358 50.1768 42.5126C50.0143 42.4894 49.8488 42.4984 49.6898 42.5391C49.5308 42.5798 49.3813 42.6515 49.25 42.75C48.1024 43.5999 46.7254 44.0845 45.2984 44.1404C43.8714 44.1964 42.4606 43.8212 41.25 43.0638V40.8938C42.7959 41.5471 44.4857 41.7853 46.152 41.5847C47.8183 41.3841 49.4033 40.7516 50.75 39.75C50.8813 39.6515 50.992 39.5281 51.0756 39.3869C51.1592 39.2456 51.2142 39.0893 51.2374 38.9268C51.2607 38.7643 51.2516 38.5988 51.2109 38.4398C51.1702 38.2808 51.0985 38.1313 51 38C50.9015 37.8687 50.7781 37.758 50.6369 37.6744C50.4956 37.5908 50.3393 37.5358 50.1768 37.5126C50.0143 37.4893 49.8488 37.4984 49.6898 37.5391C49.5308 37.5798 49.3813 37.6515 49.25 37.75C48.1024 38.5999 46.7254 39.0845 45.2984 39.1404C43.8714 39.1964 42.4606 38.8212 41.25 38.0638V35H53.75V48.2325L52.8662 49.1162C52.6385 49.352 52.5126 49.6678 52.5154 49.9955C52.5183 50.3232 52.6497 50.6368 52.8815 50.8685C53.1132 51.1003 53.4268 51.2317 53.7545 51.2346C54.0822 51.2374 54.398 51.1114 54.6338 50.8838L55 50.5175L55.3662 50.8838C55.602 51.1114 55.9178 51.2374 56.2455 51.2346C56.5732 51.2317 56.8868 51.1003 57.1185 50.8685C57.3503 50.6368 57.4817 50.3232 57.4846 49.9955C57.4874 49.6678 57.3615 49.352 57.1338 49.1162L56.25 48.2325V35H60V60Z" fill="#010E8A"/>
  <path d="M66.25 40H71.25C71.5815 40 71.8995 39.8683 72.1339 39.6339C72.3683 39.3995 72.5 39.0815 72.5 38.75V33.75C72.5 33.4185 72.3683 33.1005 72.1339 32.8661C71.8995 32.6317 71.5815 32.5 71.25 32.5H66.25C65.9185 32.5 65.6005 32.6317 65.3661 32.8661C65.1317 33.1005 65 33.4185 65 33.75V38.75C65 39.0815 65.1317 39.3995 65.3661 39.6339C65.6005 39.8683 65.9185 40 66.25 40ZM67.5 35H70V37.5H67.5V35Z" fill="#010E8A"/>
  <path d="M66.25 51.25H71.25C71.5815 51.25 71.8995 51.1183 72.1339 50.8839C72.3683 50.6495 72.5 50.3315 72.5 50V45C72.5 44.6685 72.3683 44.3505 72.1339 44.1161C71.8995 43.8817 71.5815 43.75 71.25 43.75H66.25C65.9185 43.75 65.6005 43.8817 65.3661 44.1161C65.1317 44.3505 65 44.6685 65 45V50C65 50.3315 65.1317 50.6495 65.3661 50.8839C65.6005 51.1183 65.9185 51.25 66.25 51.25ZM67.5 46.25H70V48.75H67.5V46.25Z" fill="#010E8A"/>
  <path d="M66.25 62.5H71.25C71.5815 62.5 71.8995 62.3683 72.1339 62.1339C72.3683 61.8995 72.5 61.5815 72.5 61.25V56.25C72.5 55.9185 72.3683 55.6005 72.1339 55.3661C71.8995 55.1317 71.5815 55 71.25 55H66.25C65.9185 55 65.6005 55.1317 65.3661 55.3661C65.1317 55.6005 65 55.9185 65 56.25V61.25C65 61.5815 65.1317 61.8995 65.3661 62.1339C65.6005 62.3683 65.9185 62.5 66.25 62.5ZM67.5 57.5H70V60H67.5V57.5Z" fill="#010E8A"/>
  <path d="M11.25 32.5C10.5083 32.5 9.7833 32.7199 9.16661 33.132C8.54993 33.544 8.06928 34.1297 7.78545 34.8149C7.50162 35.5002 7.42736 36.2542 7.57206 36.9816C7.71675 37.709 8.0739 38.3772 8.59835 38.9017C9.1228 39.4261 9.79098 39.7832 10.5184 39.9279C11.2458 40.0726 11.9998 39.9984 12.6851 39.7145C13.3703 39.4307 13.956 38.9501 14.368 38.3334C14.7801 37.7167 15 36.9917 15 36.25C15 35.2554 14.6049 34.3016 13.9017 33.5983C13.1984 32.8951 12.2446 32.5 11.25 32.5ZM11.25 37.5C11.0028 37.5 10.7611 37.4267 10.5555 37.2893C10.35 37.152 10.1898 36.9568 10.0952 36.7284C10.0005 36.4999 9.97579 36.2486 10.024 36.0061C10.0723 35.7637 10.1913 35.5409 10.3661 35.3661C10.5409 35.1913 10.7637 35.0722 11.0061 35.024C11.2486 34.9758 11.4999 35.0005 11.7284 35.0952C11.9568 35.1898 12.152 35.35 12.2893 35.5555C12.4267 35.7611 12.5 36.0028 12.5 36.25C12.5 36.5815 12.3683 36.8995 12.1339 37.1339C11.8995 37.3683 11.5815 37.5 11.25 37.5Z" fill="#010E8A"/>
  <path d="M11.25 45C11.9404 45 12.5 44.4404 12.5 43.75C12.5 43.0596 11.9404 42.5 11.25 42.5C10.5596 42.5 10 43.0596 10 43.75C10 44.4404 10.5596 45 11.25 45Z" fill="#010E8A"/>
  <path d="M11.25 50C11.9404 50 12.5 49.4404 12.5 48.75C12.5 48.0596 11.9404 47.5 11.25 47.5C10.5596 47.5 10 48.0596 10 48.75C10 49.4404 10.5596 50 11.25 50Z" fill="#010E8A"/>
  <path d="M11.25 55C11.9404 55 12.5 54.4404 12.5 53.75C12.5 53.0596 11.9404 52.5 11.25 52.5C10.5596 52.5 10 53.0596 10 53.75C10 54.4404 10.5596 55 11.25 55Z" fill="#010E8A"/>
  <path d="M11.25 60C11.9404 60 12.5 59.4404 12.5 58.75C12.5 58.0596 11.9404 57.5 11.25 57.5C10.5596 57.5 10 58.0596 10 58.75C10 59.4404 10.5596 60 11.25 60Z" fill="#010E8A"/>
</svg>