<svg xmlns="http://www.w3.org/2000/svg" width="18" height="19" viewBox="0 0 18 19" fill="none">
<path fill-rule="evenodd" clip-rule="evenodd" d="M15.7805 9.50002C15.7805 6.09802 13.1285 2.72002 9.00047 2.72002C5.66687 2.72002 4.01807 5.18722 3.31607 6.50002H5.40047C5.5596 6.50002 5.71222 6.56323 5.82474 6.67576C5.93726 6.78828 6.00047 6.94089 6.00047 7.10002C6.00047 7.25915 5.93726 7.41176 5.82474 7.52428C5.71222 7.63681 5.5596 7.70002 5.40047 7.70002H1.80047C1.64135 7.70002 1.48873 7.63681 1.37621 7.52428C1.26369 7.41176 1.20047 7.25915 1.20047 7.10002V3.50002C1.20047 3.34089 1.26369 3.18828 1.37621 3.07576C1.48873 2.96323 1.64135 2.90002 1.80047 2.90002C1.9596 2.90002 2.11222 2.96323 2.22474 3.07576C2.33726 3.18828 2.40047 3.34089 2.40047 3.50002V5.67562C3.24527 4.18522 5.20127 1.52002 9.00047 1.52002C13.8761 1.52002 16.9805 5.52202 16.9805 9.50002C16.9805 13.478 13.8761 17.48 9.00047 17.48C6.66767 17.48 4.72607 16.556 3.34367 15.1496C2.61013 14.4014 2.02824 13.5184 1.63007 12.5492C1.60013 12.4763 1.58484 12.3983 1.58507 12.3195C1.5853 12.2407 1.60105 12.1627 1.63141 12.09C1.66177 12.0173 1.70616 11.9513 1.76204 11.8957C1.81792 11.8402 1.88419 11.7962 1.95707 11.7662C2.02996 11.7363 2.10803 11.721 2.18682 11.7212C2.26561 11.7214 2.34359 11.7372 2.4163 11.7676C2.48901 11.7979 2.55502 11.8423 2.61058 11.8982C2.66613 11.9541 2.71013 12.0203 2.74007 12.0932C3.07916 12.9188 3.57465 13.671 4.19927 14.3084C5.36447 15.4964 7.00247 16.28 9.00047 16.28C13.1285 16.28 15.7805 12.902 15.7805 9.50002Z" fill="#272B2A"/>
</svg>