<svg xmlns="http://www.w3.org/2000/svg" width="205" height="34" viewBox="0 0 205 34" fill="none">
  <g clip-path="url(#clip0_1611_4967)">
    <path d="M29.3063 0H5.17169C2.31545 0 0 2.28335 0 5.1V28.9C0 31.7167 2.31545 34 5.17169 34H29.3063C32.1625 34 34.478 31.7167 34.478 28.9V5.1C34.478 2.28335 32.1625 0 29.3063 0Z" fill="#30AB84"/>
    <path d="M11.9371 6.69346H10.1709C10.1709 8.39715 10.8628 9.94048 11.9821 11.0574C13.1013 12.1743 14.6479 12.8647 16.3553 12.8647V16.8332C16.3553 16.954 16.4045 17.064 16.4848 17.1443C16.5652 17.2243 16.6755 17.2736 16.7976 17.2736H17.6812C17.8022 17.2736 17.9126 17.2243 17.9929 17.1443C18.0732 17.064 18.1226 16.954 18.1226 16.8332V12.8647C18.1226 11.1611 17.4306 9.61772 16.3113 8.50082C15.1921 7.3839 13.6454 6.69346 11.9371 6.69346ZM22.5407 4.92993C21.3774 4.92993 20.2914 5.25057 19.3627 5.80742C18.4353 6.36427 17.6652 7.15732 17.1371 8.10427C17.5195 8.52006 17.8516 8.98069 18.1269 9.47769C18.401 9.97467 18.6163 10.508 18.7663 11.0691C20.3214 10.9077 21.7074 10.1714 22.7035 9.07583C23.6995 7.98136 24.3069 6.52673 24.3069 4.92993H22.5407Z" fill="#FCFFFE"/>
    <path d="M21.3256 18.4898C21.4176 18.4898 21.5002 18.4524 21.5602 18.3926C21.6202 18.3327 21.6576 18.2505 21.6576 18.1585V17.0565C21.6576 16.9657 21.6202 16.8824 21.5602 16.8225C21.5002 16.7626 21.4176 16.7263 21.3256 16.7263H13.1533C13.0612 16.7263 12.9787 16.7626 12.9188 16.8225C12.8588 16.8824 12.8213 16.9657 12.8213 17.0565V18.2901C12.8213 18.3808 12.8588 18.4631 12.9188 18.523C12.9787 18.5828 13.0612 18.6202 13.1533 18.6202H15.5075C15.8845 18.6202 16.2176 18.6885 16.5004 18.8169C16.7831 18.9451 17.0156 19.1333 17.1912 19.3706H13.1533C13.0612 19.3706 12.9787 19.408 12.9188 19.4678C12.8588 19.5277 12.8213 19.6099 12.8213 19.7019V20.8039C12.8213 20.8946 12.8588 20.9781 12.9188 21.0379C12.9787 21.0978 13.0612 21.134 13.1533 21.134H17.5361C17.4504 21.6311 17.2234 22.035 16.8731 22.3152C16.5229 22.5941 16.0495 22.75 15.4722 22.75H13.1533C13.0612 22.75 12.9787 22.7864 12.9188 22.8462C12.8588 22.9061 12.8213 22.9895 12.8213 23.0803V24.5415C12.8213 24.5874 12.8309 24.6323 12.8491 24.6739C12.8674 24.7156 12.8941 24.7531 12.9284 24.7841L17.4858 28.9822C17.5158 29.0101 17.5511 29.0325 17.5897 29.0465C17.6283 29.0614 17.669 29.0699 17.7107 29.0699H19.9899C20.1409 29.0699 20.2523 28.9769 20.2985 28.8593C20.3445 28.7418 20.3252 28.5975 20.2149 28.496L16.0484 24.6589C17.1045 24.6258 18.0095 24.2581 18.6758 23.6425C19.3419 23.0259 19.7682 22.1611 19.8678 21.134H21.3256C21.4176 21.134 21.5002 21.0978 21.5602 21.0379C21.6202 20.9781 21.6576 20.8946 21.6576 20.8039V19.7019C21.6576 19.6099 21.6202 19.5277 21.5602 19.4678C21.5002 19.408 21.4176 19.3706 21.3256 19.3706H19.7051C19.6568 19.2123 19.6001 19.0585 19.5348 18.9121C19.4684 18.7645 19.3945 18.6234 19.3121 18.4898H21.3256Z" fill="#FCFFFE"/>
    <path d="M50.3428 25.1483C49.1659 25.1483 48.1112 24.9599 47.1787 24.583C46.2463 24.2061 45.4974 23.6485 44.9318 22.9099C44.3815 22.1712 44.0911 21.282 44.0605 20.2419H48.2334C48.2946 20.8298 48.501 21.282 48.8525 21.5985C49.204 21.8999 49.6625 22.0507 50.2281 22.0507C50.8089 22.0507 51.2675 21.9225 51.6038 21.6663C51.9401 21.395 52.1082 21.0258 52.1082 20.5584C52.1082 20.1666 51.9707 19.8424 51.6955 19.5862C51.4357 19.33 51.107 19.1189 50.7096 18.9531C50.3274 18.7874 49.7772 18.5989 49.0588 18.3879C48.0195 18.0713 47.1711 17.7548 46.5138 17.4383C45.8565 17.1217 45.2911 16.6544 44.8172 16.0364C44.3433 15.4184 44.1064 14.612 44.1064 13.6172C44.1064 12.14 44.6491 10.9869 45.7343 10.1578C46.8195 9.31374 48.2334 8.89169 49.9759 8.89169C51.749 8.89169 53.1782 9.31374 54.2634 10.1578C55.3486 10.9869 55.9296 12.1475 56.006 13.6398H51.7643C51.7338 13.1273 51.5426 12.7279 51.1911 12.4415C50.8396 12.14 50.3886 11.9893 49.8384 11.9893C49.3645 11.9893 48.9824 12.1174 48.692 12.3736C48.4015 12.6148 48.2563 12.969 48.2563 13.4363C48.2563 13.9488 48.501 14.3482 48.99 14.6346C49.4791 14.921 50.2435 15.23 51.2828 15.5616C52.3222 15.9083 53.1629 16.2399 53.8049 16.5565C54.4622 16.873 55.0276 17.3327 55.5015 17.9357C55.9754 18.5387 56.2123 19.3149 56.2123 20.2645C56.2123 21.1689 55.9754 21.9904 55.5015 22.729C55.043 23.4677 54.3705 24.0555 53.4839 24.4926C52.5973 24.9297 51.5504 25.1483 50.3428 25.1483ZM62.5457 14.1598C62.9279 13.572 63.4553 13.0971 64.1278 12.7354C64.8004 12.3736 65.5876 12.1927 66.4893 12.1927C67.544 12.1927 68.4994 12.4565 69.3553 12.9841C70.2114 13.5117 70.8839 14.2653 71.373 15.2451C71.8774 16.2249 72.1296 17.363 72.1296 18.6592C72.1296 19.9555 71.8774 21.1011 71.373 22.0959C70.8839 23.0756 70.2114 23.8369 69.3553 24.3795C68.4994 24.907 67.544 25.1709 66.4893 25.1709C65.6029 25.1709 64.8156 24.99 64.1278 24.6282C63.4553 24.2665 62.9279 23.7992 62.5457 23.2264V31.0043H58.6251V12.3736H62.5457V14.1598ZM68.1401 18.6592C68.1401 17.6945 67.865 16.9408 67.3147 16.3982C66.7798 15.8405 66.1149 15.5616 65.32 15.5616C64.5405 15.5616 63.8755 15.8405 63.3253 16.3982C62.7904 16.9559 62.5228 17.7171 62.5228 18.6818C62.5228 19.6466 62.7904 20.4077 63.3253 20.9654C63.8755 21.5232 64.5405 21.802 65.32 21.802C66.0995 21.802 66.7645 21.5232 67.3147 20.9654C67.865 20.3927 68.1401 19.624 68.1401 18.6592ZM78.1072 14.4764C78.5658 13.783 79.1389 13.2403 79.8268 12.8484C80.5146 12.4415 81.2788 12.238 82.1196 12.238V16.3304H81.042C80.0636 16.3304 79.3299 16.5414 78.8409 16.9635C78.3516 17.3704 78.1072 18.094 78.1072 19.134V24.99H74.1865V12.3736H78.1072V14.4764ZM85.9652 11.0622C85.2774 11.0622 84.712 10.8663 84.2686 10.4744C83.8407 10.0674 83.6266 9.56998 83.6266 8.98212C83.6266 8.37919 83.8407 7.88177 84.2686 7.48986C84.712 7.08288 85.2774 6.87939 85.9652 6.87939C86.6379 6.87939 87.1882 7.08288 87.616 7.48986C88.0594 7.88177 88.2809 8.37919 88.2809 8.98212C88.2809 9.56998 88.0594 10.0674 87.616 10.4744C87.1882 10.8663 86.6379 11.0622 85.9652 11.0622ZM87.9141 12.3736V24.99H83.9934V12.3736H87.9141ZM98.5509 12.238C100.049 12.238 101.241 12.7203 102.128 13.685C103.029 14.6346 103.48 15.946 103.48 17.6191V24.99H99.5826V18.1392C99.5826 17.2951 99.361 16.6394 98.9177 16.1721C98.4745 15.7048 97.8784 15.4712 97.1294 15.4712C96.3803 15.4712 95.7842 15.7048 95.341 16.1721C94.8978 16.6394 94.6761 17.2951 94.6761 18.1392V24.99H90.7554V12.3736H94.6761V14.0468C95.0735 13.489 95.6086 13.0519 96.281 12.7354C96.9535 12.4038 97.7102 12.238 98.5509 12.238ZM111.066 12.1927C111.967 12.1927 112.755 12.3736 113.427 12.7354C114.115 13.0971 114.642 13.572 115.009 14.1598V12.3736H118.93V24.9674C118.93 26.128 118.693 27.1757 118.219 28.1102C117.76 29.0598 117.05 29.8134 116.087 30.3712C115.139 30.929 113.954 31.2078 112.533 31.2078C110.637 31.2078 109.101 30.763 107.924 29.8738C106.748 28.9995 106.075 27.8088 105.907 26.3014H109.782C109.904 26.7837 110.194 27.1606 110.653 27.4319C111.111 27.7183 111.677 27.8615 112.349 27.8615C113.16 27.8615 113.802 27.6279 114.275 27.1606C114.764 26.7084 115.009 25.9774 115.009 24.9674V23.1812C114.627 23.7691 114.1 24.2514 113.427 24.6282C112.755 24.99 111.967 25.1709 111.066 25.1709C110.011 25.1709 109.055 24.907 108.2 24.3795C107.344 23.8369 106.663 23.0756 106.159 22.0959C105.67 21.1011 105.425 19.9555 105.425 18.6592C105.425 17.363 105.67 16.2249 106.159 15.2451C106.663 14.2653 107.344 13.5117 108.2 12.9841C109.055 12.4565 110.011 12.1927 111.066 12.1927ZM115.009 18.6818C115.009 17.7171 114.734 16.9559 114.184 16.3982C113.649 15.8405 112.991 15.5616 112.212 15.5616C111.432 15.5616 110.767 15.8405 110.217 16.3982C109.682 16.9408 109.415 17.6945 109.415 18.6592C109.415 19.624 109.682 20.3927 110.217 20.9654C110.767 21.5232 111.432 21.802 112.212 21.802C112.991 21.802 113.649 21.5232 114.184 20.9654C114.734 20.4077 115.009 19.6466 115.009 18.6818ZM144.853 9.11778V24.99H140.932V15.4712L137.332 24.99H134.168L130.546 15.4486V24.99H126.625V9.11778H131.256L135.773 20.1062L140.244 9.11778H144.853ZM153.496 25.1709C152.242 25.1709 151.111 24.907 150.102 24.3795C149.109 23.852 148.322 23.0982 147.741 22.1185C147.175 21.1388 146.892 19.9932 146.892 18.6818C146.892 17.3856 147.183 16.2475 147.764 15.2677C148.344 14.2729 149.139 13.5117 150.148 12.9841C151.157 12.4565 152.288 12.1927 153.542 12.1927C154.795 12.1927 155.926 12.4565 156.935 12.9841C157.944 13.5117 158.739 14.2729 159.319 15.2677C159.9 16.2475 160.191 17.3856 160.191 18.6818C160.191 19.9781 159.893 21.1237 159.296 22.1185C158.716 23.0982 157.913 23.852 156.889 24.3795C155.88 24.907 154.749 25.1709 153.496 25.1709ZM153.496 21.8246C154.245 21.8246 154.879 21.5533 155.399 21.0106C155.934 20.468 156.201 19.6918 156.201 18.6818C156.201 17.6718 155.941 16.8956 155.422 16.353C154.917 15.8103 154.291 15.539 153.542 15.539C152.777 15.539 152.143 15.8103 151.639 16.353C151.134 16.8805 150.882 17.6569 150.882 18.6818C150.882 19.6918 151.127 20.468 151.616 21.0106C152.12 21.5533 152.747 21.8246 153.496 21.8246ZM170.066 12.238C171.564 12.238 172.757 12.7203 173.643 13.685C174.545 14.6346 174.995 15.946 174.995 17.6191V24.99H171.098V18.1392C171.098 17.2951 170.876 16.6394 170.433 16.1721C169.99 15.7048 169.393 15.4712 168.645 15.4712C167.896 15.4712 167.299 15.7048 166.856 16.1721C166.413 16.6394 166.191 17.2951 166.191 18.1392V24.99H162.271V12.3736H166.191V14.0468C166.589 13.489 167.124 13.0519 167.796 12.7354C168.469 12.4038 169.225 12.238 170.066 12.238ZM189.781 18.4783C189.781 18.8401 189.756 19.217 189.712 19.6088H180.839C180.899 20.3927 181.151 20.9955 181.596 21.4176C182.054 21.8246 182.611 22.0281 183.268 22.0281C184.247 22.0281 184.928 21.6211 185.309 20.8072H189.482C189.269 21.6362 188.879 22.3824 188.312 23.0455C187.762 23.7087 187.067 24.2287 186.226 24.6056C185.386 24.9825 184.445 25.1709 183.406 25.1709C182.152 25.1709 181.037 24.907 180.058 24.3795C179.08 23.852 178.317 23.0982 177.765 22.1185C177.215 21.1388 176.941 19.9932 176.941 18.6818C176.941 17.3704 177.208 16.2249 177.743 15.2451C178.293 14.2653 179.058 13.5117 180.035 12.9841C181.015 12.4565 182.137 12.1927 183.406 12.1927C184.643 12.1927 185.745 12.449 186.707 12.9615C187.671 13.474 188.42 14.205 188.955 15.1547C189.505 16.1043 189.781 17.2122 189.781 18.4783ZM185.767 17.4609C185.767 16.7977 185.538 16.2701 185.08 15.8782C184.621 15.4863 184.049 15.2903 183.361 15.2903C182.702 15.2903 182.145 15.4787 181.687 15.8556C181.244 16.2324 180.968 16.7675 180.861 17.4609H185.767ZM204.916 12.3736L196.892 30.9817H192.673L195.609 24.5604L190.405 12.3736H194.783L197.742 20.2645L200.676 12.3736H204.916Z" fill="#272B2A"/>
  </g>
  <defs>
    <clipPath id="clip0_1611_4967">
      <rect width="204.971" height="34" fill="white"/>
    </clipPath>
  </defs>
</svg>