<svg xmlns="http://www.w3.org/2000/svg" width="48" height="48" viewBox="0 0 48 48" fill="none">
  <path fill-rule="evenodd" clip-rule="evenodd" d="M7.16568 0H40.6055C44.563 0 47.7712 3.22355 47.7712 7.2V40.8C47.7712 44.7764 44.563 48 40.6055 48H7.16568C3.20819 48 0 44.7764 0 40.8V7.2C0 3.22355 3.20819 0 7.16568 0ZM16.5391 9.44965H14.0919C14.0919 11.8549 15.0506 14.0337 16.6014 15.6105C18.1522 17.1873 20.2951 18.162 22.6607 18.162V23.6133H18.225C18.0974 23.6133 17.9831 23.6646 17.9 23.7491C17.8169 23.8336 17.7649 23.9513 17.7649 24.0795V25.8209C17.7649 25.9491 17.8169 26.0652 17.9 26.1497C17.9831 26.2342 18.0974 26.287 18.225 26.287H21.4869C22.0092 26.287 22.4708 26.3835 22.8626 26.5647C23.2543 26.7456 23.5764 27.0113 23.8197 27.3464H18.225C18.0974 27.3464 17.9831 27.3992 17.9 27.4836C17.8169 27.5681 17.7649 27.6843 17.7649 27.8141V29.3698C17.7649 29.498 17.8169 29.6158 17.9 29.7003C17.9831 29.7848 18.0974 29.8359 18.225 29.8359H24.2976C24.1789 30.5376 23.8643 31.1079 23.379 31.5034C22.8938 31.8972 22.2378 32.1173 21.4379 32.1173H18.225C18.0974 32.1173 17.9831 32.1687 17.9 32.2532C17.8169 32.3376 17.7649 32.4555 17.7649 32.5836V34.6464C17.7649 34.7112 17.7783 34.7746 17.8035 34.8334C17.8288 34.8922 17.8659 34.9452 17.9133 34.9889L24.2278 40.9157C24.2694 40.9551 24.3184 40.9868 24.3719 41.0065C24.4254 41.0276 24.4817 41.0396 24.5395 41.0396H27.6975C27.9067 41.0396 28.061 40.9083 28.125 40.7422C28.1888 40.5764 28.162 40.3726 28.0092 40.2293L22.2363 34.8123C23.6996 34.7655 24.9535 34.2464 25.8767 33.3773C26.7996 32.5068 27.3903 31.286 27.5284 29.8359H29.5481C29.6757 29.8359 29.7901 29.7848 29.8732 29.7003C29.9563 29.6158 30.0082 29.498 30.0082 29.3698V27.8141C30.0082 27.6843 29.9563 27.5681 29.8732 27.4836C29.7901 27.3992 29.6757 27.3464 29.5481 27.3464H27.3029C27.236 27.1229 27.1574 26.9057 27.0669 26.6991C26.9749 26.4908 26.8725 26.2916 26.7583 26.1029H29.5481C29.6757 26.1029 29.7901 26.0501 29.8732 25.9656C29.9563 25.8812 30.0082 25.765 30.0082 25.6352V24.0795C30.0082 23.9513 29.9563 23.8336 29.8732 23.7491C29.7901 23.6646 29.6757 23.6133 29.5481 23.6133H25.1094V18.162C25.1094 15.7568 24.1506 13.578 22.5999 12.0012C21.049 10.4244 18.9061 9.44965 16.5391 9.44965ZM31.2311 6.95996C29.6192 6.95996 28.1145 7.41263 26.8277 8.19877C25.5427 8.98491 24.4757 10.1045 23.7441 11.4414C24.2739 12.0284 24.7339 12.6787 25.1154 13.3803C25.4952 14.0819 25.7935 14.8349 26.0013 15.6271C28.156 15.3992 30.0764 14.3596 31.4565 12.813C32.8366 11.2679 33.6781 9.21426 33.6781 6.95996H31.2311Z" fill="#FCFFFE"/>
</svg>