<svg xmlns="http://www.w3.org/2000/svg" width="80" height="80" viewBox="0 0 80 80" fill="none">
<path d="M75.7461 46.6256L75.7228 46.6371C72.9806 48.7401 71.8188 52.3187 72.7948 55.6303L72.8064 55.6535C74.3633 60.917 70.5059 66.2267 65.0216 66.3662H64.9984C61.5359 66.4592 58.4917 68.6667 57.3414 71.9317V71.9432C55.5055 77.1253 49.2547 79.1585 44.7348 76.0329C41.9283 74.1165 38.2181 74.0165 35.2653 76.0329H35.2537C30.7341 79.1468 24.483 77.1251 22.6588 71.9315C21.4981 68.6584 18.4584 66.4589 15.0019 66.366H14.9786C9.49453 66.2265 5.63688 60.9168 7.19391 55.6534L7.20547 55.6301C8.18125 52.3185 7.01937 48.7399 4.2775 46.637L4.25422 46.6254C-0.102969 43.279 -0.102969 36.726 4.25422 33.3798L4.2775 33.3682C7.01937 31.2653 8.18125 27.6865 7.19391 24.3751V24.3518C5.62516 19.0885 9.49438 13.7785 14.9786 13.6392H15.0019C18.4527 13.5462 21.5084 11.3385 22.6588 8.0737V8.06214C24.4828 2.88011 30.7341 0.846828 35.2537 3.97245H35.2653C38.1119 5.93605 41.8764 5.93605 44.7348 3.97245C49.3002 0.819797 55.5163 2.9112 57.3414 8.06214V8.0737C58.4917 11.327 61.5358 13.5464 64.9984 13.6392H65.0216C70.5058 13.7785 74.3633 19.0885 72.8064 24.3518L72.7948 24.3751C71.8188 27.6865 72.9806 31.2653 75.7228 33.3682L75.7461 33.3798C80.1033 36.726 80.1033 43.2792 75.7461 46.6256Z" fill="#108E66"/>
<path d="M40.0007 61.6432C51.954 61.6432 61.644 51.9532 61.644 40C61.644 28.0467 51.954 18.3567 40.0007 18.3567C28.0474 18.3567 18.3574 28.0467 18.3574 40C18.3574 51.9532 28.0474 61.6432 40.0007 61.6432Z" fill="#86D9A7"/>
<path opacity="0.1" d="M56.6177 26.1457C52.8741 23.0661 48.0845 21.215 42.8633 21.215C30.9102 21.215 21.2148 30.9103 21.2148 42.8634C21.2148 48.0847 23.0659 52.8742 26.1455 56.6178C21.3891 52.6501 18.3594 46.6818 18.3594 39.9997C18.3594 28.0464 28.0464 18.3595 39.9995 18.3595C46.6817 18.3595 52.65 21.3892 56.6177 26.1457Z" fill="black"/>
<path d="M34.8514 48.4727L30.0654 43.3808C28.8119 42.0471 28.8766 39.9501 30.2099 38.6966C31.5432 37.4416 33.6411 37.509 34.8935 38.8418L37.1782 41.2715L46.8896 30.1718C48.0933 28.7943 50.1871 28.6546 51.5657 29.8601C52.9432 31.0655 53.0822 33.1587 51.8774 34.5362L39.7594 48.3854C38.4685 49.8593 36.1902 49.8979 34.8514 48.4727Z" fill="white"/>
</svg>