<?xml version="1.0" standalone="no"?>
<!DOCTYPE svg PUBLIC "-//W3C//DTD SVG 20010904//EN"
        "http://www.w3.org/TR/2001/REC-SVG-20010904/DTD/svg10.dtd">
<svg version="1.0" xmlns="http://www.w3.org/2000/svg"
     width="158.000000pt" height="43.000000pt" viewBox="0 0 158.000000 43.000000"
     preserveAspectRatio="xMidYMid meet">
    <metadata>
        Created by potrace 1.16, written by Peter Selinger 2001-2019
    </metadata>
    <g transform="translate(0.000000,43.000000) scale(0.010611,-0.010539)"
       fill="#207268" stroke="none">
        <path d="M9300 2505 l0 -1575 275 0 275 0 0 1575 0 1575 -275 0 -275 0 0
-1575z"/>
        <path d="M826 3209 c-375 -49 -650 -240 -730 -509 -40 -136 -26 -318 35 -447
46 -97 165 -214 277 -272 163 -83 345 -130 592 -151 236 -20 326 -46 384 -110
81 -89 53 -224 -62 -300 -146 -97 -334 -104 -602 -23 -160 48 -313 129 -408
217 -23 21 -44 37 -46 35 -43 -51 -267 -393 -263 -403 9 -23 146 -136 235
-194 143 -93 319 -156 512 -183 131 -18 417 -16 530 5 221 40 378 115 506 241
64 63 89 98 122 165 57 116 72 182 72 316 0 417 -260 638 -815 694 -259 26
-296 31 -357 50 -84 26 -144 70 -169 123 -44 98 -7 187 101 242 73 37 153 50
300 48 204 -2 331 -41 468 -145 53 -40 67 -47 77 -36 7 7 76 89 155 181 164
193 161 170 35 257 -160 110 -343 176 -548 199 -111 13 -301 12 -401 0z"/>
        <path d="M6065 3209 c-193 -21 -327 -93 -446 -242 l-39 -49 0 121 0 121 -280
0 -280 0 0 -1115 0 -1115 280 0 280 0 0 623 c0 589 1 628 20 701 27 106 62
166 139 239 103 97 233 151 396 166 l70 6 0 275 0 275 -30 1 c-16 1 -66 -2
-110 -7z"/>
        <path d="M13725 3209 c-321 -41 -589 -202 -688 -411 -47 -99 -61 -165 -61
-283 1 -175 51 -295 174 -416 153 -152 394 -238 750 -269 154 -13 228 -26 294
-51 92 -35 136 -91 136 -175 0 -139 -143 -247 -346 -261 -234 -16 -598 111
-768 268 l-44 40 -25 -33 c-64 -87 -247 -358 -247 -367 0 -13 136 -131 211
-181 146 -100 341 -172 540 -201 131 -18 415 -16 534 5 234 42 396 123 527
265 117 127 171 270 171 456 0 194 -55 339 -173 455 -148 146 -368 219 -750
250 -235 20 -354 60 -405 138 -72 111 -22 228 119 281 136 51 366 49 533 -4
77 -24 211 -101 242 -138 7 -9 17 -17 21 -17 7 0 303 345 308 360 9 25 -201
162 -321 210 -194 77 -491 109 -732 79z"/>
        <path d="M7635 3199 c-209 -27 -424 -138 -549 -281 l-46 -53 0 148 0 147 -277
-2 -278 -3 -3 -1577 -2 -1578 280 0 280 0 0 588 0 588 73 -72 c88 -86 212
-151 362 -190 123 -32 364 -44 496 -25 464 68 797 385 899 856 28 128 37 331
21 458 -50 393 -262 711 -586 876 -195 100 -462 148 -670 120z m261 -554 c270
-69 444 -305 444 -600 0 -183 -56 -321 -180 -446 -122 -123 -260 -179 -441
-179 -292 0 -515 164 -600 440 -30 96 -32 261 -5 360 65 238 248 399 501 441
66 10 208 2 281 -16z"/>
        <path d="M2343 2468 c3 -662 4 -697 24 -786 96 -419 313 -668 662 -759 80 -21
119 -25 236 -25 282 0 486 81 691 274 l51 48 6 -27 c3 -16 11 -81 18 -145 l13
-118 248 0 248 0 0 1115 0 1115 -275 0 -275 0 0 -611 c0 -667 -1 -686 -60
-814 -121 -266 -410 -394 -685 -303 -124 41 -223 129 -281 253 -63 132 -64
148 -64 846 l0 629 -281 0 -280 0 4 -692z"/>
        <path d="M10340 2496 c0 -612 2 -673 19 -778 43 -247 132 -430 280 -578 165
-165 367 -243 626 -242 268 0 459 73 667 255 l75 65 7 -56 c4 -31 11 -96 18
-144 l11 -88 248 0 249 0 0 1115 0 1115 -275 0 -274 0 -4 -632 c-3 -556 -5
-640 -20 -688 -85 -282 -322 -458 -585 -435 -241 21 -398 153 -464 392 -21 76
-22 98 -26 721 l-3 642 -275 0 -274 0 0 -664z"/>
    </g>
</svg>
