<svg xmlns="http://www.w3.org/2000/svg" width="24" height="25" viewBox="0 0 24 25" fill="none">
  <path d="M9 11.868L11 13.868L15.5 9.36803M20 12.368C20 17.2765 14.646 20.8464 12.698 21.9829C12.4766 22.1121 12.3659 22.1767 12.2097 22.2102C12.0884 22.2362 11.9116 22.2362 11.7903 22.2102C11.6341 22.1767 11.5234 22.1121 11.302 21.9829C9.35396 20.8464 4 17.2765 4 12.368V7.58564C4 6.78612 4 6.38637 4.13076 6.04274C4.24627 5.73918 4.43398 5.46831 4.67766 5.25356C4.9535 5.01047 5.3278 4.87011 6.0764 4.58938L11.4382 2.57871C11.6461 2.50075 11.75 2.46177 11.857 2.44631C11.9518 2.43261 12.0482 2.43261 12.143 2.44631C12.25 2.46177 12.3539 2.50075 12.5618 2.57871L17.9236 4.58938C18.6722 4.87011 19.0465 5.01047 19.3223 5.25356C19.566 5.46831 19.7537 5.73918 19.8692 6.04274C20 6.38637 20 6.78612 20 7.58564V12.368Z" stroke="#108E66" stroke-width="2" stroke-linecap="round" stroke-linejoin="round"/>
</svg>