<svg xmlns="http://www.w3.org/2000/svg" width="40" height="40" viewBox="0 0 40 40" fill="none">
  <mask id="mask0_1037_4253" style="mask-type:luminance" maskUnits="userSpaceOnUse" x="0" y="0" width="40" height="40">
    <path d="M0 3.8147e-06H40V40H0V3.8147e-06Z" fill="white"/>
  </mask>
  <g mask="url(#mask0_1037_4253)">
    <path fill-rule="evenodd" clip-rule="evenodd" d="M5.33281 3.08938V11.5823C5.31281 13.137 6.615 14.4082 8.1564 14.4082H28.7144V3.08938C28.7144 2.59773 28.3114 2.19469 27.8198 2.19469H6.22742C5.73578 2.19469 5.33281 2.59773 5.33281 3.08938Z" fill="#FFDBB4"/>
    <path fill-rule="evenodd" clip-rule="evenodd" d="M26.7612 14.4082H28.7144V3.08938C28.7144 2.59773 28.3114 2.19469 27.8198 2.19469H25.8665C26.3581 2.19469 26.7612 2.59773 26.7612 3.08938V14.4082Z" fill="#FFBD99"/>
    <path fill-rule="evenodd" clip-rule="evenodd" d="M13.7925 6.635H13.8722H22.6597V14.4082H13.8722H13.859H8.15631C9.711 14.4015 10.9689 13.1392 10.9689 11.5845V9.46078C10.949 7.90617 12.2512 6.635 13.7925 6.635Z" fill="#FFBD99"/>
    <path fill-rule="evenodd" clip-rule="evenodd" d="M40 9.45879C40 7.93965 38.7665 6.65301 37.2428 6.63528H13.8058C15.3604 6.64184 16.6184 7.90426 16.6184 9.45879V37.1812C16.6184 37.5244 16.8995 37.8057 17.2429 37.8057H39.3755C39.7187 37.8057 40 37.5244 40 37.1812V9.45879Z" fill="#FFEBC5"/>
    <path fill-rule="evenodd" clip-rule="evenodd" d="M40 9.45879C40 7.93965 38.7665 6.65301 37.2428 6.63528H35.2895C36.8132 6.65301 38.0467 7.93965 38.0467 9.45879V37.1812C38.0467 37.5244 37.7655 37.8057 37.4223 37.8057H39.3755C39.7187 37.8057 40 37.5244 40 37.1812V9.45879Z" fill="#FFDBB4"/>
    <path fill-rule="evenodd" clip-rule="evenodd" d="M2.75719 37.8057H10.6611C11.0043 37.8057 11.2856 37.5244 11.2856 37.1812V35.4271C11.2856 35.0839 11.0043 34.8027 10.6611 34.8027H8.53055C8.87391 34.8027 9.15516 34.5214 9.15516 34.1782V32.4242C9.15516 32.081 8.87391 31.7996 8.53055 31.7996H12.2777C12.621 31.7996 12.9022 31.5184 12.9022 31.1752V29.4212C12.9022 29.0779 12.621 28.7967 12.2777 28.7967C12.621 28.7967 12.9022 28.5154 12.9022 28.1721V26.4182C12.9022 26.075 12.621 25.7937 12.2777 25.7937H8.53055C8.87391 25.7937 9.15516 25.5125 9.15516 25.1671V23.4153C9.15516 23.0697 8.87391 22.7885 8.53055 22.7885H0.624531C0.281328 22.7885 0 23.0697 0 23.4153V25.1671C0 25.5125 0.281328 25.7937 0.624531 25.7937H4.37383C4.03063 25.7937 3.74938 26.075 3.74938 26.4182V28.1721C3.74938 28.5154 4.03063 28.7967 4.37383 28.7967C4.03063 28.7967 3.74938 29.0779 3.74938 29.4212V31.1752C3.74938 31.5184 4.03063 31.7996 4.37383 31.7996H0.624531C0.281328 31.7996 0 32.081 0 32.4242V34.1782C0 34.5214 0.281328 34.8027 0.624531 34.8027H2.75719C2.41383 34.8027 2.13266 35.0839 2.13266 35.4271V37.1812C2.13266 37.5244 2.41383 37.8057 2.75719 37.8057Z" fill="#FFE36D"/>
    <path fill-rule="evenodd" clip-rule="evenodd" d="M8.53057 25.7937C8.87392 25.7937 9.1551 25.5125 9.1551 25.1671V23.4153C9.1551 23.0697 8.87392 22.7885 8.53057 22.7885H6.57736C6.92064 22.7885 7.20182 23.0697 7.20182 23.4153V25.1671C7.20182 25.5125 6.92064 25.7937 6.57736 25.7937H8.53057ZM10.3245 31.7996H12.2778C12.621 31.7996 12.9022 31.5184 12.9022 31.1752V29.4212C12.9022 29.0779 12.621 28.7967 12.2778 28.7967C12.621 28.7967 12.9022 28.5154 12.9022 28.1721V26.4182C12.9022 26.075 12.621 25.7937 12.2778 25.7937H10.3245C10.6677 25.7937 10.949 26.075 10.949 26.4182V28.1721C10.949 28.5154 10.6677 28.7967 10.3245 28.7967C10.6677 28.7967 10.949 29.0779 10.949 29.4212V31.1752C10.949 31.5184 10.6677 31.7996 10.3245 31.7996ZM8.53057 34.8026C8.87392 34.8026 9.1551 34.5214 9.1551 34.1782V32.4242C9.1551 32.081 8.87392 31.7996 8.53057 31.7996H6.57736C6.92064 31.7996 7.20182 32.081 7.20182 32.4242V34.1782C7.20182 34.5214 6.92064 34.8026 6.57736 34.8026H8.53057ZM8.70775 37.8057H10.6611C11.0043 37.8057 11.2856 37.5244 11.2856 37.1812V35.4271C11.2856 35.0839 11.0043 34.8026 10.6611 34.8026H8.70775C9.05103 34.8026 9.33228 35.0839 9.33228 35.4271V37.1812C9.33228 37.5244 9.05103 37.8057 8.70775 37.8057Z" fill="#FFD456"/>
    <path fill-rule="evenodd" clip-rule="evenodd" d="M28.3091 25.3174C32.5855 25.3174 36.0756 21.8294 36.0756 17.5531C36.0756 13.2745 32.5855 9.78637 28.3091 9.78637C24.0328 9.78637 20.5426 13.2745 20.5426 17.5531C20.5426 21.8294 24.0328 25.3174 28.3091 25.3174Z" fill="#82C4F4"/>
    <path fill-rule="evenodd" clip-rule="evenodd" d="M28.3091 9.78637C27.9792 9.78637 27.6514 9.80637 27.3325 9.8484C31.1616 10.3268 34.1224 13.5933 34.1224 17.5531C34.1224 21.5104 31.1616 24.7771 27.3325 25.2576C27.6514 25.2975 27.9792 25.3174 28.3091 25.3174C32.5988 25.3174 36.0756 21.8404 36.0756 17.5531C36.0756 13.2633 32.5988 9.78637 28.3091 9.78637Z" fill="#3FA5DA"/>
    <path d="M31.6289 20.9021C31.7949 20.7094 31.8968 20.437 31.8968 20.1314C31.8968 19.8259 31.7949 19.5557 31.6289 19.363C31.4849 19.1969 31.2922 19.0928 31.084 19.0928C30.8758 19.0928 30.681 19.1969 30.5371 19.363C30.3733 19.5557 30.2713 19.8259 30.2713 20.1314C30.2713 20.437 30.3733 20.7094 30.5371 20.9021C30.681 21.0682 30.8758 21.1723 31.084 21.1723C31.2922 21.1723 31.4849 21.0682 31.6289 20.9021ZM33.0683 20.1314C33.0683 20.7249 32.8579 21.2652 32.5168 21.6617C32.1537 22.0824 31.6466 22.3438 31.084 22.3438C30.5193 22.3438 30.0122 22.0824 29.649 21.6617C29.31 21.2652 29.0975 20.7249 29.0975 20.1314C29.0975 19.5401 29.31 18.9998 29.649 18.6034C30.0122 18.1804 30.5193 17.9213 31.084 17.9213C31.6466 17.9213 32.1537 18.1804 32.5168 18.6034C32.8579 18.9998 33.0683 19.5401 33.0683 20.1314ZM26.0813 15.7442C26.2452 15.5516 26.3471 15.2792 26.3471 14.9736C26.3471 14.668 26.2452 14.3956 26.0813 14.2052C25.9373 14.0369 25.7424 13.935 25.5343 13.935C25.3261 13.935 25.1334 14.0369 24.9895 14.2052C24.8234 14.3956 24.7215 14.668 24.7215 14.9736C24.7215 15.2792 24.8234 15.5516 24.9895 15.7442C25.1334 15.9104 25.3261 16.0145 25.5343 16.0145C25.7424 16.0145 25.9373 15.9104 26.0813 15.7442ZM27.5208 14.9736C27.5208 15.5671 27.3081 16.1075 26.9693 16.5039C26.6061 16.9248 26.099 17.1861 25.5343 17.1861C24.9718 17.1861 24.4647 16.9248 24.1015 16.5039C23.7604 16.1075 23.55 15.5671 23.55 14.9736C23.55 14.3823 23.7604 13.8398 24.1015 13.4434C24.4647 13.0226 24.9718 12.7613 25.5343 12.7613C26.099 12.7613 26.6061 13.0226 26.9693 13.4434C27.3081 13.8398 27.5208 14.3823 27.5208 14.9736ZM29.4032 13.4721C29.5293 13.1755 29.8727 13.0337 30.1694 13.1598C30.4684 13.2839 30.6079 13.6272 30.484 13.9262L27.317 21.4713C27.193 21.7702 26.8497 21.9097 26.5508 21.7858C26.2518 21.6595 26.1123 21.3163 26.2364 21.0173L29.4032 13.4721Z" fill="#F9F6F7"/>
    <path d="M20.5426 31.7353C20.2192 31.7353 19.9579 31.4718 19.9579 31.1484C19.9579 30.8251 20.2192 30.5616 20.5426 30.5616H36.0756C36.399 30.5616 36.6603 30.8251 36.6603 31.1484C36.6603 31.4718 36.399 31.7353 36.0756 31.7353H20.5426ZM20.5426 34.4658C20.2192 34.4658 19.9579 34.2045 19.9579 33.8789C19.9579 33.5557 20.2192 33.2943 20.5426 33.2943H31.9588C32.2821 33.2943 32.5457 33.5557 32.5457 33.8789C32.5457 34.2045 32.2821 34.4658 31.9588 34.4658H20.5426ZM20.5426 29.0025C20.2192 29.0025 19.9579 28.7411 19.9579 28.4156C19.9579 28.0922 20.2192 27.8309 20.5426 27.8309H36.0756C36.399 27.8309 36.6603 28.0922 36.6603 28.4156C36.6603 28.7411 36.399 29.0025 36.0756 29.0025H20.5426Z" fill="#0081B1"/>
  </g>
</svg>