<svg width="21" height="22" viewBox="0 0 21 22" fill="none" xmlns="http://www.w3.org/2000/svg">
<path id="tick" fill-rule="evenodd" clip-rule="evenodd" d="M7.8185 1.62995C9.13274 -0.209982 11.8673 -0.209982 13.1815 1.62995L13.3907 1.92286C13.622 2.24668 14.0104 2.42007 14.4059 2.37613L15.3384 2.27251C17.4373 2.0393 19.2107 3.81274 18.9775 5.91156L18.8739 6.84414C18.8299 7.23964 19.0033 7.62798 19.3271 7.85928L19.6201 8.0685C21.46 9.38274 21.46 12.1173 19.6201 13.4315L19.3271 13.6407C19.0033 13.872 18.8299 14.2604 18.8739 14.6559L18.9775 15.5884C19.2107 17.6873 17.4373 19.4607 15.3384 19.2275L14.4059 19.1239C14.0104 19.0799 13.622 19.2533 13.3907 19.5771L13.1815 19.8701C11.8673 21.71 9.13274 21.71 7.8185 19.8701L7.60928 19.5771C7.37798 19.2533 6.98964 19.0799 6.59414 19.1239L5.66156 19.2275C3.56273 19.4607 1.7893 17.6873 2.02251 15.5884L2.12613 14.6559C2.17007 14.2604 1.99668 13.872 1.67286 13.6407L1.37995 13.4315C-0.459982 12.1173 -0.459982 9.38274 1.37995 8.0685L1.67286 7.85928C1.99668 7.62798 2.17007 7.23964 2.12613 6.84414L2.02251 5.91156C1.7893 3.81273 3.56274 2.0393 5.66156 2.27251L6.59414 2.37613C6.98964 2.42007 7.37798 2.24668 7.60928 1.92286L7.8185 1.62995ZM14.5043 7.84599C14.8948 8.23652 14.8948 8.86968 14.5043 9.26021L10.3095 13.455C9.80908 13.9554 8.9978 13.9554 8.49741 13.455L6.49947 11.4571C6.10894 11.0665 6.10894 10.4334 6.49947 10.0429C6.88999 9.65234 7.52316 9.65234 7.91368 10.0429L9.40344 11.5326L13.0901 7.84599C13.4806 7.45547 14.1138 7.45547 14.5043 7.84599Z" fill="#108E66"/>
</svg>
