<svg width="155" height="132" viewBox="0 0 155 132" fill="none" xmlns="http://www.w3.org/2000/svg">
<path id="Vector" d="M19.7122 19.54H0.460938C0.460938 38.4169 8.00261 55.517 20.2026 67.8923C32.4024 80.2676 49.2603 87.9178 67.8698 87.9178V131.889C67.8698 133.227 68.4066 134.446 69.2821 135.335C70.1581 136.222 71.3605 136.769 72.6912 136.769H82.3227C83.6418 136.769 84.8444 136.222 85.72 135.335C86.5956 134.446 87.133 133.227 87.133 131.889V87.9178C87.133 69.0411 79.5906 51.9408 67.391 39.5655C55.1911 27.19 38.3332 19.54 19.7122 19.54ZM135.291 0C122.611 0 110.773 3.55267 100.651 9.72261C90.5416 15.8925 82.148 24.6796 76.3921 35.1718C80.5602 39.7787 84.1792 44.8825 87.18 50.3893C90.1677 55.8958 92.5146 61.8056 94.1493 68.0224C111.1 66.2343 126.207 58.0751 137.065 45.9366C147.922 33.81 154.541 17.6925 154.541 0H135.291Z" fill="#272B2A" fill-opacity="0.1"/>
</svg>
