<svg xmlns="http://www.w3.org/2000/svg" width="33" height="32" viewBox="0 0 33 32" fill="none">
  <path fill-rule="evenodd" clip-rule="evenodd" d="M2.57031 30.2233L4.55537 22.9764C3.33073 20.8558 2.68673 18.4493 2.68747 15.9845C2.69115 8.27347 8.9661 2 16.6779 2C20.4203 2.00147 23.9321 3.45821 26.5737 6.10126C29.2145 8.74505 30.6691 12.2583 30.6676 15.9956C30.6646 23.7066 24.3882 29.9808 16.6779 29.9808C16.6772 29.9808 16.6779 29.9808 16.6779 29.9808H16.672C14.3311 29.9801 12.0299 29.3928 9.98663 28.278L2.57031 30.2233Z" fill="#FCFFFE" fill-opacity="0.54"/>
  <path fill-rule="evenodd" clip-rule="evenodd" d="M2.57122 30.5917C2.47396 30.5917 2.37965 30.5534 2.30965 30.4826C2.21754 30.3891 2.18143 30.2528 2.21607 30.1268L4.16059 23.0265C2.95512 20.8853 2.31922 18.4537 2.3207 15.9853C2.32364 8.07012 8.76438 1.63159 16.6788 1.63159C20.5177 1.63307 24.1246 3.12812 26.8354 5.84117C29.5463 8.55496 31.0384 12.1611 31.0369 15.9956C31.034 23.91 24.5925 30.3493 16.6788 30.3493C14.329 30.3485 12.0043 29.7686 9.94112 28.6715L2.6648 30.5792C2.63386 30.588 2.60291 30.5917 2.57122 30.5917Z" fill="#FCFFFE" fill-opacity="0.54"/>
  <path fill-rule="evenodd" clip-rule="evenodd" d="M16.6768 2.00003C20.4192 2.0015 23.931 3.45824 26.5725 6.10129C29.2134 8.74508 30.6679 12.2583 30.6664 15.9956C30.6635 23.7067 24.3871 29.9809 16.6768 29.9809H16.6709C14.3299 29.9801 12.0288 29.3929 9.98549 28.278L2.56918 30.2233L4.55423 22.9764C3.3296 20.8558 2.6856 18.4493 2.68633 15.9846C2.69002 8.2735 8.96497 2.00003 16.6768 2.00003ZM16.6768 1.26318C8.5597 1.26318 1.95318 7.86676 1.94949 15.9846C1.94876 18.4655 2.57507 20.9103 3.76286 23.0744L1.85812 30.0295C1.78886 30.2837 1.8596 30.5549 2.04528 30.742C2.18528 30.8835 2.37465 30.9609 2.56918 30.9609C2.63181 30.9609 2.69444 30.9528 2.75633 30.9366L9.89412 29.065C11.9779 30.1467 14.3137 30.7177 16.6709 30.7184C24.7938 30.7184 31.4003 24.1141 31.404 15.9963C31.4055 12.0623 29.8751 8.36339 27.095 5.58108C24.3134 2.79803 20.6137 1.26466 16.6768 1.26318Z" fill="#CFD8DC" fill-opacity="0.54"/>
  <path fill-rule="evenodd" clip-rule="evenodd" d="M24.9043 7.77094C22.7085 5.57367 19.7898 4.36304 16.6833 4.3623C10.2698 4.3623 5.05373 9.5762 5.05078 15.9853C5.05005 18.1818 5.66457 20.3201 6.82878 22.1718L7.10583 22.6117L5.93057 26.9008L10.3317 25.7469L10.7569 25.9989C12.5415 27.0585 14.5885 27.6185 16.6752 27.6193H16.6796C23.0887 27.6193 28.3048 22.4046 28.307 15.9948C28.3077 12.889 27.1 9.9682 24.9043 7.77094Z" fill="#40C351" fill-opacity="0.54"/>
  <path fill-rule="evenodd" clip-rule="evenodd" d="M13.183 10.1384C12.9215 9.55629 12.6459 9.5445 12.3961 9.53418C12.192 9.52534 11.9592 9.52608 11.7263 9.52608C11.4935 9.52608 11.1147 9.61376 10.7942 9.96376C10.4737 10.3138 9.57031 11.1589 9.57031 12.8787C9.57031 14.5985 10.8229 16.2608 10.9976 16.4937C11.1722 16.7265 13.4159 20.3687 16.9689 21.7702C19.9215 22.9344 20.5227 22.703 21.1638 22.6448C21.8048 22.5866 23.2321 21.7997 23.5232 20.9832C23.8142 20.1668 23.8142 19.4675 23.7273 19.3217C23.6396 19.1758 23.4067 19.0888 23.0575 18.9134C22.7082 18.7381 20.9892 17.8929 20.6686 17.7765C20.3481 17.6601 20.1153 17.6019 19.8817 17.9519C19.6488 18.3011 18.9791 19.0888 18.7749 19.3217C18.5708 19.5552 18.3667 19.5847 18.0175 19.4093C17.6682 19.234 16.5423 18.8656 15.2064 17.6748C14.1675 16.7486 13.466 15.6043 13.2619 15.2543C13.0578 14.905 13.2398 14.7157 13.4152 14.541C13.5721 14.3841 13.7644 14.1328 13.9398 13.9287C14.1144 13.7246 14.1726 13.5787 14.289 13.3459C14.4055 13.1123 14.3473 12.9082 14.2596 12.7336C14.1734 12.5582 13.494 10.8296 13.183 10.1384Z" fill="#FCFFFE" fill-opacity="0.54"/>
</svg>