<svg xmlns="http://www.w3.org/2000/svg" width="33" height="32" viewBox="0 0 33 32" fill="none">
<path fill-rule="evenodd" clip-rule="evenodd" d="M2.56934 30.2233L4.55439 22.9764C3.32976 20.8558 2.68576 18.4493 2.68649 15.9845C2.69018 8.27347 8.96513 2 16.6769 2C20.4193 2.00147 23.9311 3.45821 26.5727 6.10126C29.2135 8.74505 30.6681 12.2583 30.6666 15.9956C30.6637 23.7066 24.3872 29.9808 16.6769 29.9808C16.6762 29.9808 16.6769 29.9808 16.6769 29.9808H16.671C14.3301 29.9801 12.0289 29.3928 9.98565 28.278L2.56934 30.2233Z" fill="white"/>
<path fill-rule="evenodd" clip-rule="evenodd" d="M2.56927 30.5917C2.47201 30.5917 2.37769 30.5534 2.30769 30.4826C2.21559 30.3891 2.17948 30.2528 2.21411 30.1268L4.15864 23.0265C2.95317 20.8853 2.31727 18.4537 2.31874 15.9853C2.32169 8.07012 8.76243 1.63159 16.6768 1.63159C20.5158 1.63307 24.1226 3.12812 26.8335 5.84117C29.5443 8.55496 31.0364 12.1611 31.035 15.9956C31.032 23.91 24.5905 30.3493 16.6768 30.3493C14.3271 30.3485 12.0023 29.7686 9.93917 28.6715L2.66285 30.5792C2.6319 30.588 2.60096 30.5917 2.56927 30.5917Z" fill="white"/>
<path fill-rule="evenodd" clip-rule="evenodd" d="M16.6777 2.00003C20.4202 2.0015 23.9319 3.45824 26.5735 6.10129C29.2144 8.74508 30.6689 12.2583 30.6674 15.9956C30.6645 23.7067 24.388 29.9809 16.6777 29.9809H16.6718C14.3309 29.9801 12.0297 29.3929 9.98647 28.278L2.57015 30.2233L4.55521 22.9764C3.33057 20.8558 2.68657 18.4493 2.68731 15.9846C2.691 8.2735 8.96594 2.00003 16.6777 2.00003ZM16.6777 1.26318C8.56068 1.26318 1.95415 7.86676 1.95047 15.9846C1.94973 18.4655 2.57605 20.9103 3.76384 23.0744L1.8591 30.0295C1.78984 30.2837 1.86057 30.5549 2.04626 30.742C2.18626 30.8835 2.37563 30.9609 2.57015 30.9609C2.63278 30.9609 2.69542 30.9528 2.75731 30.9366L9.8951 29.065C11.9789 30.1467 14.3147 30.7177 16.6718 30.7184C24.7948 30.7184 31.4013 24.1141 31.405 15.9963C31.4065 12.0623 29.876 8.36339 27.0959 5.58108C24.3144 2.79803 20.6147 1.26466 16.6777 1.26318Z" fill="#CFD8DC"/>
<path fill-rule="evenodd" clip-rule="evenodd" d="M24.9023 7.77094C22.7065 5.57367 19.7879 4.36304 16.6814 4.3623C10.2679 4.3623 5.05178 9.5762 5.04883 15.9853C5.04809 18.1818 5.66262 20.3201 6.82683 22.1718L7.10388 22.6117L5.92862 26.9008L10.3298 25.7469L10.7549 25.9989C12.5396 27.0585 14.5865 27.6185 16.6732 27.6193H16.6777C23.0867 27.6193 28.3028 22.4046 28.305 15.9948C28.3058 12.889 27.0981 9.9682 24.9023 7.77094Z" fill="#40C351"/>
<path fill-rule="evenodd" clip-rule="evenodd" d="M13.1801 10.1385C12.9185 9.55635 12.643 9.54456 12.3932 9.53424C12.1891 9.5254 11.9562 9.52614 11.7234 9.52614C11.4905 9.52614 11.1118 9.61382 10.7913 9.96382C10.4708 10.3138 9.56738 11.159 9.56738 12.8788C9.56738 14.5986 10.82 16.2609 10.9946 16.4937C11.1693 16.7266 13.413 20.3688 16.966 21.7702C19.9185 22.9345 20.5198 22.7031 21.1609 22.6449C21.8019 22.5867 23.2292 21.7997 23.5202 20.9833C23.8113 20.1669 23.8113 19.4676 23.7243 19.3217C23.6366 19.1758 23.4038 19.0889 23.0545 18.9135C22.7053 18.7381 20.9862 17.893 20.6657 17.7766C20.3452 17.6601 20.1123 17.6019 19.8788 17.9519C19.6459 18.3012 18.9761 19.0889 18.772 19.3217C18.5679 19.5553 18.3638 19.5848 18.0145 19.4094C17.6653 19.234 16.5394 18.8656 15.2035 17.6749C14.1645 16.7487 13.4631 15.6043 13.259 15.2543C13.0549 14.9051 13.2369 14.7157 13.4122 14.5411C13.5692 14.3841 13.7615 14.1329 13.9369 13.9288C14.1115 13.7247 14.1697 13.5788 14.2861 13.3459C14.4025 13.1123 14.3443 12.9082 14.2566 12.7336C14.1704 12.5582 13.4911 10.8296 13.1801 10.1385Z" fill="white"/>
</svg>